<svg width="77" height="17" viewBox="0 0 77 17" fill="none" xmlns="http://www.w3.org/2000/svg">
<path opacity="0.7" d="M0.869626 0.249999C0.593483 0.25 0.369626 0.473857 0.369626 0.75L0.369626 5.25C0.369625 5.52614 0.593483 5.75 0.869626 5.75C1.14577 5.75 1.36963 5.52614 1.36963 5.25L1.36963 1.25L5.36963 1.25C5.64577 1.25 5.86963 1.02614 5.86963 0.75C5.86963 0.473857 5.64577 0.249999 5.36963 0.25L0.869626 0.249999ZM0.516073 1.10355C21.5601 22.1476 55.6792 22.1476 76.7232 1.10355L76.0161 0.396447C55.3626 21.0499 21.8767 21.0499 1.22318 0.396446L0.516073 1.10355Z" fill="black"/>
</svg>
