<svg width="564" height="318" viewBox="0 0 564 318" fill="none" xmlns="http://www.w3.org/2000/svg">
<g clip-path="url(#clip0_1715_3595)">
<path d="M239.415 149.194C236.691 149.873 234.088 150.523 231.655 150.938C223.776 152.282 217.689 151.173 215.064 140.686C212.442 130.198 217.29 126.361 224.877 123.848C227.22 123.072 229.823 122.424 232.547 121.745C238.371 120.293 244.817 120.934 249.95 122.616C254.999 124.273 258.778 126.938 259.449 129.616C260.213 132.665 258.133 136.795 254.433 140.534C250.672 144.34 245.239 147.742 239.415 149.194Z" fill="#739AF0"/>
<path d="M224.878 123.85L215.93 118.014L201.801 121.02L216.475 131.314L224.878 123.85Z" fill="#163560"/>
<path d="M231.633 150.852L226.483 160.202L212.599 164.183L220.703 148.209L231.633 150.852Z" fill="#163560"/>
<path d="M231.655 150.938C223.776 152.283 217.689 151.174 215.064 140.687C212.442 130.199 217.29 126.361 224.877 123.849L231.655 150.938Z" fill="#163560"/>
<path d="M196.67 145.273C196.67 145.273 200.602 136.124 207.488 137.532C214.51 138.969 213.625 146.525 208.355 147.217C203.084 147.912 199.743 144.506 196.67 145.273Z" fill="#F77D48"/>
<path d="M238.552 127.41C242.19 126.502 245.877 128.713 246.786 132.345C247.696 135.978 245.481 139.659 241.843 140.567C238.205 141.475 234.518 139.264 233.609 135.632C232.699 131.999 234.913 128.318 238.552 127.41Z" fill="#163560"/>
<path d="M240.198 141.222C236.953 141.222 233.993 139.024 233.169 135.742C232.202 131.874 234.567 127.939 238.441 126.974C242.316 126.006 246.256 128.369 247.223 132.237C247.691 134.111 247.402 136.055 246.406 137.713C245.411 139.368 243.828 140.538 241.951 141.008C241.366 141.151 240.777 141.222 240.198 141.222ZM240.196 127.659C239.688 127.659 239.174 127.721 238.662 127.849C237.019 128.259 235.635 129.281 234.763 130.732C233.891 132.18 233.637 133.882 234.048 135.522C234.896 138.907 238.342 140.973 241.733 140.128C243.375 139.718 244.759 138.696 245.631 137.245C246.503 135.795 246.757 134.095 246.347 132.455C245.627 129.583 243.035 127.659 240.196 127.659Z" fill="#BDD1F9"/>
<path d="M254.433 140.536L249.952 122.618C255.001 124.276 258.78 126.941 259.451 129.619C260.213 132.667 258.133 136.796 254.433 140.536Z" fill="#F77D48"/>
<path d="M21.6685 316.673C21.8009 314.359 -32.761 244.871 30.7794 180.716C59.4633 151.755 107.981 167.447 100.307 82.8427C93.6796 9.79552 208.135 -33.1269 279.265 32.091C325.222 74.2287 371.746 18.015 444.655 49.9098C517.563 81.8046 469.553 168.494 499.471 176.662C558.404 192.753 587.673 263.561 540.688 315.886L21.6685 316.673Z" fill="#EBF3FA"/>
<path d="M267.324 147.785C267.015 147.148 266.675 146.502 266.31 145.865L267.337 145.283C267.712 145.942 268.065 146.612 268.386 147.271L267.324 147.785ZM265.178 144.009C264.787 143.409 264.37 142.808 263.937 142.219L264.889 141.52C265.335 142.126 265.765 142.746 266.167 143.363L265.178 144.009ZM147.914 157.005C147.168 157.084 146.418 157.148 145.683 157.19L145.614 156.013C146.329 155.971 147.062 155.909 147.789 155.832L147.914 157.005ZM150.133 156.712L149.952 155.548C150.663 155.438 151.387 155.31 152.105 155.167L152.336 156.322C151.601 156.467 150.859 156.599 150.133 156.712ZM143.442 157.265C142.691 157.272 141.936 157.256 141.199 157.223L141.254 156.046C141.969 156.079 142.702 156.092 143.433 156.088L143.442 157.265ZM154.52 155.837L154.239 154.693C154.939 154.523 155.65 154.333 156.354 154.131L156.681 155.264C155.961 155.468 155.235 155.662 154.52 155.837ZM138.96 157.056C138.214 156.978 137.466 156.881 136.735 156.762L136.925 155.599C137.631 155.713 138.358 155.81 139.082 155.883L138.96 157.056ZM158.816 154.607L158.447 153.487C159.132 153.262 159.827 153.02 160.516 152.766L160.924 153.873C160.224 154.131 159.513 154.377 158.816 154.607ZM163.004 153.066L162.558 151.975C163.227 151.702 163.904 151.413 164.573 151.113L165.055 152.189C164.375 152.493 163.686 152.788 163.004 153.066ZM134.53 156.335C133.794 156.169 133.064 155.978 132.353 155.768L132.688 154.638C133.373 154.84 134.081 155.023 134.79 155.184L134.53 156.335ZM262.599 140.502C262.142 139.947 261.661 139.391 261.173 138.853L262.047 138.06C262.551 138.613 263.043 139.182 263.513 139.755L262.599 140.502ZM167.077 151.247L166.562 150.187C167.211 149.872 167.872 149.541 168.523 149.202L169.07 150.247C168.406 150.591 167.737 150.928 167.077 151.247ZM130.218 155.061C129.514 154.801 128.812 154.514 128.134 154.208L128.62 153.134C129.273 153.427 129.949 153.705 130.626 153.954L130.218 155.061ZM171.029 149.187L170.452 148.157C171.084 147.804 171.724 147.436 172.353 147.062L172.958 148.073C172.318 148.455 171.669 148.829 171.029 149.187ZM259.663 137.277C259.151 136.768 258.617 136.263 258.078 135.778L258.868 134.903C259.42 135.401 259.968 135.919 260.495 136.442L259.663 137.277ZM126.114 153.211C125.454 152.854 124.8 152.471 124.171 152.07L124.807 151.078C125.41 151.463 126.039 151.834 126.675 152.175L126.114 153.211ZM174.857 146.912L174.225 145.915C174.837 145.53 175.455 145.129 176.069 144.721L176.724 145.702C176.104 146.114 175.475 146.522 174.857 146.912ZM178.561 144.445L177.883 143.48C178.475 143.065 179.075 142.633 179.669 142.199L180.369 143.149C179.769 143.59 179.159 144.026 178.561 144.445ZM122.319 150.785C121.719 150.333 121.131 149.854 120.571 149.361L121.352 148.477C121.889 148.951 122.454 149.409 123.03 149.843L122.319 150.785ZM256.422 134.354C255.862 133.896 255.283 133.446 254.7 133.012L255.405 132.066C256.003 132.51 256.597 132.972 257.171 133.442L256.422 134.354ZM182.144 141.813L181.424 140.879L181.599 140.744C182.131 140.334 182.661 139.931 183.19 139.537L183.897 140.48C183.374 140.872 182.848 141.271 182.321 141.679L182.144 141.813ZM252.917 131.756C252.316 131.352 251.696 130.958 251.075 130.583L251.687 129.574C252.325 129.957 252.959 130.363 253.577 130.775L252.917 131.756ZM118.941 147.807C118.42 147.269 117.915 146.702 117.438 146.127L118.35 145.378C118.807 145.931 119.29 146.471 119.791 146.987L118.941 147.807ZM185.672 139.179L184.983 138.223C185.586 137.791 186.197 137.359 186.8 136.944L187.471 137.914C186.873 138.324 186.268 138.752 185.672 139.179ZM249.181 129.499C248.546 129.155 247.89 128.82 247.236 128.507L247.749 127.444C248.42 127.766 249.091 128.11 249.742 128.463L249.181 129.499ZM189.292 136.684L188.641 135.701C189.264 135.291 189.893 134.886 190.511 134.498L191.14 135.496C190.531 135.88 189.908 136.279 189.292 136.684ZM116.074 144.331C115.645 143.718 115.235 143.079 114.857 142.431L115.877 141.836C116.241 142.455 116.632 143.068 117.043 143.656L116.074 144.331ZM193.014 134.346L192.407 133.334C193.043 132.953 193.69 132.578 194.33 132.214L194.913 133.239C194.282 133.598 193.644 133.971 193.014 134.346ZM245.247 127.607C244.578 127.325 243.896 127.054 243.218 126.805L243.627 125.699C244.322 125.954 245.024 126.232 245.709 126.523L245.247 127.607ZM196.836 132.181L196.277 131.143C196.931 130.792 197.595 130.449 198.253 130.118L198.783 131.172C198.136 131.496 197.48 131.835 196.836 132.181ZM241.152 126.1C240.461 125.882 239.757 125.679 239.055 125.494L239.357 124.354C240.077 124.544 240.801 124.753 241.508 124.978L241.152 126.1ZM200.761 130.211L200.258 129.144C200.931 128.829 201.613 128.52 202.287 128.225L202.759 129.305C202.099 129.596 201.426 129.9 200.761 130.211ZM113.793 140.44C113.469 139.768 113.164 139.074 112.892 138.375L113.992 137.947C114.252 138.617 114.544 139.283 114.855 139.929L113.793 140.44ZM236.931 124.984C236.225 124.832 235.503 124.696 234.785 124.577L234.98 123.415C235.715 123.536 236.454 123.677 237.178 123.834L236.931 124.984ZM204.783 128.46L204.344 127.367C205.035 127.089 205.735 126.82 206.426 126.569L206.832 127.676C206.154 127.923 205.466 128.187 204.783 128.46ZM232.624 124.268C231.904 124.182 231.174 124.112 230.449 124.059L230.536 122.884C231.277 122.939 232.026 123.009 232.763 123.098L232.624 124.268ZM208.903 126.953L208.532 125.833C209.241 125.599 209.958 125.375 210.662 125.17L210.996 126.3C210.302 126.503 209.598 126.724 208.903 126.953ZM228.268 123.948C227.549 123.929 226.813 123.922 226.083 123.933L226.065 122.754C226.811 122.743 227.564 122.747 228.301 122.769L228.268 123.948ZM213.108 125.718L212.815 124.577C213.534 124.391 214.265 124.217 214.987 124.061L215.239 125.211C214.53 125.368 213.815 125.538 213.108 125.718ZM223.899 124.012C223.177 124.054 222.445 124.112 221.72 124.182L221.603 123.009C222.343 122.937 223.094 122.877 223.831 122.835L223.899 124.012ZM217.387 124.786L217.177 123.627C217.912 123.494 218.654 123.375 219.385 123.274L219.548 124.442C218.833 124.541 218.107 124.658 217.387 124.786ZM112.157 136.246C111.941 135.536 111.749 134.802 111.585 134.068L112.738 133.812C112.895 134.518 113.08 135.221 113.288 135.904L112.157 136.246ZM111.175 131.857C111.135 131.586 111.098 131.315 111.067 131.044C111.009 130.572 110.963 130.094 110.928 129.622L112.104 129.534C112.14 129.988 112.184 130.451 112.239 130.903C112.27 131.165 112.305 131.425 112.345 131.685L111.175 131.857ZM112.014 127.365L110.833 127.374C110.828 126.633 110.846 125.877 110.89 125.128L112.069 125.196C112.027 125.921 112.007 126.651 112.014 127.365ZM112.263 123.031L111.091 122.89C111.179 122.167 111.29 121.431 111.422 120.704L112.59 120.88L112.581 120.926C112.458 121.619 112.349 122.331 112.263 123.031ZM113.027 118.744L111.875 118.484C112.038 117.759 112.221 117.029 112.413 116.317L113.553 116.626C113.365 117.323 113.188 118.035 113.027 118.744ZM153.412 112.78C152.632 112.852 151.862 112.872 151.118 112.839L151.173 111.662C151.86 111.695 152.575 111.675 153.299 111.607L153.412 112.78ZM155.666 112.423L155.412 111.272C156.096 111.122 156.794 110.928 157.48 110.697L157.858 111.814C157.129 112.059 156.392 112.264 155.666 112.423ZM148.828 112.544C148.054 112.374 147.307 112.136 146.616 111.832L147.091 110.752C147.711 111.023 148.38 111.239 149.08 111.391L148.828 112.544ZM159.97 110.981L159.485 109.908C160.134 109.615 160.778 109.284 161.403 108.927L161.99 109.95C161.333 110.326 160.653 110.673 159.97 110.981ZM163.902 108.737L163.222 107.772C163.81 107.36 164.384 106.914 164.927 106.454L165.693 107.351C165.123 107.838 164.52 108.303 163.902 108.737ZM114.173 114.534L113.049 114.175C113.277 113.467 113.522 112.755 113.778 112.063L114.884 112.471C114.634 113.148 114.396 113.842 114.173 114.534ZM144.592 110.662C143.965 110.196 143.391 109.659 142.888 109.059L143.791 108.301C144.237 108.83 144.744 109.306 145.296 109.716L144.592 110.662ZM167.346 105.801L166.498 104.981C167 104.463 167.476 103.919 167.916 103.363L168.843 104.093C168.377 104.682 167.874 105.255 167.346 105.801ZM115.687 110.443L114.599 109.985C114.888 109.299 115.197 108.614 115.515 107.946L116.581 108.453C116.272 109.108 115.97 109.775 115.687 110.443ZM141.592 107.122C141.245 106.463 140.949 105.742 140.713 104.983L141.841 104.633C142.055 105.323 142.325 105.975 142.638 106.573L141.592 107.122ZM170.152 102.241L169.152 101.613C169.536 101.005 169.885 100.377 170.192 99.7419L171.256 100.255C170.929 100.928 170.558 101.596 170.152 102.241ZM117.568 106.509L116.528 105.953C116.879 105.299 117.25 104.644 117.63 104.007L118.643 104.611C118.272 105.233 117.91 105.872 117.568 106.509ZM140.199 102.751C140.168 102.546 140.137 102.336 140.113 102.125C140.049 101.598 140.004 101.047 139.985 100.485L141.164 100.438C141.183 100.967 141.225 101.488 141.285 101.981C141.309 102.18 141.336 102.374 141.367 102.568L140.199 102.751ZM172.126 98.1505L171.011 97.7669C171.243 97.0924 171.437 96.4003 171.583 95.7104L172.737 95.9551C172.578 96.6913 172.373 97.4297 172.126 98.1505ZM119.805 102.764L118.82 102.114C119.228 101.496 119.657 100.879 120.096 100.278L121.05 100.972C120.621 101.56 120.202 102.162 119.805 102.764ZM141.172 98.2783L139.993 98.232C140.022 97.4782 140.077 96.7243 140.159 95.9926L141.333 96.1204C141.254 96.8257 141.199 97.5531 141.172 98.2783ZM173.073 93.7024L171.896 93.601C171.956 92.8979 171.976 92.1793 171.949 91.4695L173.128 91.4277C173.157 92.1837 173.137 92.9508 173.073 93.7024ZM122.376 99.2415L121.456 98.5053C121.919 97.9278 122.403 97.3525 122.895 96.7949L123.781 97.573C123.301 98.1152 122.829 98.6773 122.376 99.2415ZM125.262 95.9661L124.412 95.1483C124.928 94.6127 125.463 94.0837 126.001 93.5745L126.814 94.4298C126.288 94.9279 125.765 95.4437 125.262 95.9661ZM141.645 93.9845L140.484 93.7707C140.62 93.0323 140.786 92.2939 140.978 91.5775L142.119 91.8817C141.934 92.5672 141.775 93.2748 141.645 93.9845ZM171.686 89.3954C171.527 88.7143 171.291 88.0596 170.989 87.4535L172.046 86.9289C172.391 87.6188 172.656 88.3572 172.837 89.1287L171.686 89.3954ZM128.432 92.9618L127.657 92.0713C128.218 91.5864 128.796 91.1058 129.379 90.6452L130.112 91.5687C129.545 92.0206 128.977 92.4901 128.432 92.9618ZM142.757 89.8208L141.645 89.4262C141.896 88.7209 142.179 88.0178 142.486 87.3367L143.563 87.8216C143.27 88.4718 142.998 89.1441 142.757 89.8208ZM169.856 85.732C169.421 85.2162 168.914 84.7357 168.351 84.3015L169.07 83.3669C169.702 83.8518 170.271 84.3918 170.761 84.9715L169.856 85.732ZM131.856 90.2506L131.163 89.2962C131.766 88.8598 132.384 88.4321 133.004 88.0244L133.655 89.0074C133.048 89.4064 132.443 89.8252 131.856 90.2506ZM135.503 87.8458L134.896 86.8341C135.534 86.4528 136.187 86.0803 136.841 85.7276L137.404 86.7636C136.766 87.1096 136.126 87.4733 135.503 87.8458ZM144.528 85.8929L143.495 85.3242C143.813 84.7467 144.159 84.1736 144.521 83.6138C144.133 83.7504 143.744 83.8915 143.36 84.037L142.941 82.9349C143.638 82.6704 144.349 82.4191 145.053 82.1898L145.42 83.3096C145.223 83.3735 145.025 83.4396 144.828 83.508L145.647 84.0502C145.25 84.6475 144.875 85.2691 144.528 85.8929ZM166.571 83.1839C165.966 82.8732 165.308 82.5954 164.615 82.3574L164.997 81.242C165.743 81.4977 166.454 81.7975 167.11 82.1347L166.571 83.1839ZM139.349 85.7673L138.832 84.707C139.501 84.383 140.186 84.0678 140.868 83.7747L141.336 84.8569C140.671 85.1435 140.002 85.4499 139.349 85.7673ZM162.551 81.7887C161.873 81.6432 161.158 81.5264 160.425 81.4404L160.56 80.27C161.33 80.3582 162.083 80.4816 162.798 80.6359L162.551 81.7887ZM147.513 82.6792L147.279 81.8306C147.153 81.9849 147.031 82.1392 146.91 82.2934L145.978 81.5705C146.433 80.9864 146.919 80.4067 147.427 79.8468L148.303 80.6359C148.067 80.8982 147.833 81.1649 147.608 81.4338C148.199 81.2773 148.793 81.134 149.378 81.004L149.632 82.1546C148.93 82.3111 148.217 82.4874 147.513 82.6792ZM158.268 81.2839C157.564 81.2619 156.833 81.2641 156.098 81.2949L156.052 80.1179C156.816 80.087 157.573 80.0826 158.306 80.1069L158.268 81.2839ZM151.773 81.7446L151.581 80.5808C152.33 80.4573 153.078 80.3582 153.809 80.281L153.933 81.4536C153.224 81.5286 152.5 81.6256 151.773 81.7446ZM149.811 79.0797L148.99 78.2333C149.519 77.7219 150.078 77.215 150.654 76.7278L151.418 77.625C150.864 78.0944 150.323 78.586 149.811 79.0797ZM153.116 76.2672L152.405 75.326C152.99 74.8851 153.604 74.4487 154.231 74.0277L154.891 75.0064C154.281 75.4141 153.685 75.8395 153.116 76.2672ZM156.727 73.8381L156.118 72.8286C156.745 72.4517 157.401 72.077 158.063 71.7177L158.626 72.7537C157.979 73.1063 157.339 73.47 156.727 73.8381ZM160.573 71.7552L160.057 70.6971C160.714 70.3775 161.397 70.0601 162.085 69.7582L162.562 70.836C161.887 71.1336 161.218 71.4422 160.573 71.7552ZM164.584 69.9918L164.149 68.8963C164.829 68.6252 165.534 68.3607 166.24 68.1072L166.64 69.2159C165.944 69.465 165.253 69.7251 164.584 69.9918ZM168.717 68.5106L168.355 67.3886C169.055 67.1638 169.775 66.9434 170.49 66.7362L170.819 67.867C170.115 68.0719 169.406 68.288 168.717 68.5106ZM172.94 67.2872L172.645 66.1455C173.358 65.9603 174.088 65.784 174.815 65.6187L175.077 66.7671C174.362 66.9302 173.642 67.1065 172.94 67.2872ZM177.23 66.3064L176.998 65.1514C177.733 65.0037 178.473 64.867 179.197 64.7458L179.395 65.9074C178.682 66.0287 177.954 66.1631 177.23 66.3064ZM183.74 65.3167C183.733 65.3167 182.93 65.3828 181.572 65.5702L181.411 64.4019C182.813 64.208 183.623 64.1419 183.647 64.1396L183.74 65.3167Z" fill="#8C9DF4"/>
<path d="M189.48 195.127H142.519V315.531H189.48V195.127Z" fill="#BDD1F9"/>
<path d="M262.535 155.772H215.574V315.531H262.535V155.772Z" fill="#BDD1F9"/>
<path d="M333.421 113.298H282V315.529H333.421V113.298Z" fill="#BDD1F9"/>
<path d="M398.703 85.3027H351.742V315.531H398.703V85.3027Z" fill="#BDD1F9"/>
<path d="M333.421 180.694L432.12 132.988L388.102 226.669L380.66 184.165L333.421 180.694Z" fill="#F77D48"/>
<path d="M310.715 148.756C308.3 138.848 314.389 128.861 324.312 126.45C334.235 124.038 344.238 130.115 346.653 140.026C349.069 149.933 342.982 159.921 333.057 162.332C323.133 164.743 313.13 158.664 310.715 148.756Z" fill="#FFB93E"/>
<path d="M332.719 160.95C328.345 162.012 323.82 161.311 319.976 158.975C316.131 156.638 313.428 152.946 312.364 148.582C311.3 144.215 312.002 139.697 314.342 135.857C316.682 132.017 320.378 129.319 324.751 128.257C329.125 127.195 333.65 127.896 337.496 130.232C341.342 132.568 344.044 136.258 345.108 140.625C346.172 144.991 345.47 149.51 343.13 153.35C340.79 157.187 337.092 159.887 332.719 160.95ZM324.99 129.231C316.501 131.294 311.274 139.867 313.34 148.344C315.406 156.819 323.992 162.036 332.483 159.976C340.971 157.912 346.199 149.34 344.132 140.863C342.066 132.386 333.478 127.168 324.99 129.231Z" fill="#FFA412"/>
<path d="M332.145 148.8C332.101 148.437 332.01 148.124 331.876 147.861C331.739 147.597 331.542 147.368 331.282 147.172C331.021 146.975 330.697 146.806 330.306 146.658C329.915 146.513 329.443 146.38 328.891 146.263C327.939 146.054 327.069 145.82 326.284 145.56C325.495 145.3 324.809 144.974 324.224 144.582C323.637 144.187 323.16 143.702 322.793 143.125C322.425 142.547 322.191 141.835 322.087 140.989C321.999 140.255 322.047 139.569 322.235 138.934C322.422 138.3 322.731 137.727 323.16 137.22C323.59 136.713 324.124 136.276 324.765 135.915C325.405 135.553 326.14 135.282 326.97 135.104L326.635 132.331L328.869 132.06L329.211 134.87C330.023 134.877 330.776 135 331.467 135.24C332.158 135.48 332.763 135.829 333.28 136.283C333.798 136.737 334.222 137.297 334.553 137.962C334.885 138.628 335.103 139.393 335.207 140.255L331.171 140.744C331.045 139.708 330.721 138.961 330.198 138.502C329.675 138.044 329.025 137.863 328.253 137.956C327.833 138.007 327.48 138.108 327.191 138.262C326.902 138.414 326.672 138.606 326.502 138.831C326.332 139.058 326.215 139.314 326.156 139.602C326.096 139.891 326.085 140.193 326.125 140.513C326.164 140.832 326.246 141.117 326.37 141.364C326.493 141.613 326.683 141.831 326.939 142.025C327.193 142.217 327.522 142.388 327.922 142.536C328.323 142.684 328.814 142.829 329.399 142.968C330.343 143.195 331.207 143.442 331.99 143.707C332.774 143.971 333.458 144.302 334.046 144.701C334.633 145.1 335.11 145.587 335.478 146.164C335.847 146.742 336.081 147.449 336.183 148.287C336.275 149.047 336.225 149.746 336.033 150.381C335.84 151.018 335.529 151.587 335.099 152.085C334.668 152.583 334.127 153.008 333.474 153.359C332.823 153.709 332.081 153.974 331.253 154.152L331.566 156.731L329.346 157L329.034 154.434C328.253 154.45 327.485 154.373 326.732 154.201C325.979 154.029 325.292 153.733 324.674 153.312C324.056 152.891 323.535 152.332 323.109 151.628C322.683 150.928 322.409 150.057 322.283 149.021L326.319 148.534C326.394 149.147 326.542 149.649 326.763 150.037C326.983 150.427 327.255 150.727 327.573 150.939C327.891 151.15 328.24 151.282 328.619 151.338C328.999 151.393 329.379 151.397 329.761 151.351C330.198 151.298 330.575 151.194 330.893 151.042C331.209 150.89 331.467 150.7 331.668 150.476C331.867 150.251 332.006 149.995 332.085 149.709C332.165 149.422 332.185 149.12 332.145 148.8Z" fill="#FFA412"/>
<path d="M438.74 108.429C445.775 101.406 445.775 90.0195 438.74 82.9963C431.706 75.9732 420.302 75.9732 413.268 82.9964C406.234 90.0195 406.234 101.406 413.268 108.429C420.302 115.453 431.706 115.453 438.74 108.429Z" fill="#FFB93E"/>
<path d="M426.661 112.295C422.281 112.467 418.095 110.926 414.876 107.955C411.657 104.983 409.79 100.939 409.617 96.5655C409.445 92.1924 410.988 88.0132 413.964 84.7995C416.94 81.5858 420.991 79.721 425.371 79.5491C429.751 79.3772 433.935 80.9179 437.156 83.8892C440.374 86.8604 442.242 90.9052 442.414 95.2783C442.586 99.6514 441.043 103.831 438.067 107.044C435.091 110.258 431.04 112.123 426.661 112.295ZM425.411 80.5278C416.909 80.8606 410.264 88.0397 410.598 96.5281C410.931 105.016 418.121 111.651 426.623 111.318C435.125 110.983 441.77 103.806 441.436 95.318C441.101 86.8274 433.913 80.1927 425.411 80.5278Z" fill="#FFA412"/>
<path d="M428.46 100.587C428.489 100.232 428.462 99.9167 428.385 99.6367C428.305 99.359 428.162 99.1011 427.952 98.8631C427.742 98.625 427.464 98.4002 427.12 98.1864C426.776 97.9726 426.349 97.7566 425.844 97.5383C424.976 97.1548 424.19 96.7647 423.491 96.3657C422.789 95.9667 422.197 95.5215 421.713 95.0344C421.23 94.545 420.868 93.9896 420.629 93.368C420.391 92.7464 420.303 92.0212 420.369 91.1924C420.426 90.4739 420.605 89.8302 420.908 89.2594C421.21 88.6885 421.614 88.2013 422.122 87.8002C422.63 87.399 423.226 87.086 423.908 86.8634C424.59 86.6408 425.343 86.5239 426.168 86.5129L426.383 83.8018L428.568 83.9737L428.352 86.7223C429.127 86.8854 429.82 87.1477 430.434 87.5114C431.047 87.8751 431.555 88.3226 431.964 88.856C432.37 89.3894 432.668 90.0066 432.855 90.7053C433.043 91.404 433.103 92.1755 433.036 93.0197L429.089 92.7089C429.169 91.695 429.003 90.9191 428.592 90.3813C428.182 89.8435 427.599 89.5437 426.842 89.4842C426.431 89.4511 426.074 89.482 425.769 89.5724C425.464 89.6627 425.208 89.7994 425.001 89.9823C424.793 90.1653 424.634 90.3901 424.522 90.6524C424.409 90.9147 424.341 91.2035 424.316 91.5165C424.292 91.8295 424.314 92.116 424.385 92.3761C424.455 92.6362 424.594 92.8831 424.8 93.1167C425.005 93.3504 425.285 93.5752 425.639 93.7956C425.992 94.0138 426.433 94.2475 426.965 94.4921C427.822 94.8911 428.599 95.2923 429.297 95.6956C429.992 96.099 430.584 96.5464 431.067 97.0402C431.551 97.5339 431.913 98.0916 432.151 98.7132C432.39 99.337 432.478 100.056 432.414 100.875C432.354 101.618 432.173 102.275 431.866 102.846C431.56 103.417 431.153 103.9 430.646 104.292C430.138 104.687 429.54 104.986 428.849 105.196C428.158 105.405 427.4 105.515 426.575 105.526L426.376 108.048L424.204 107.876L424.402 105.368C423.652 105.231 422.934 105.011 422.25 104.7C421.563 104.391 420.967 103.977 420.459 103.457C419.952 102.936 419.561 102.299 419.292 101.548C419.02 100.796 418.925 99.9123 419.007 98.8983L422.954 99.2091C422.908 99.8087 422.952 100.316 423.089 100.73C423.226 101.144 423.424 101.484 423.689 101.746C423.952 102.008 424.259 102.202 424.612 102.328C424.963 102.454 425.327 102.531 425.7 102.56C426.129 102.593 426.508 102.568 426.84 102.485C427.171 102.401 427.456 102.271 427.687 102.092C427.921 101.916 428.102 101.698 428.233 101.44C428.358 101.184 428.436 100.9 428.46 100.587Z" fill="#FFA412"/>
<path d="M382.596 128.318C382.474 121.467 387.938 115.818 394.797 115.696C401.657 115.575 407.317 121.03 407.438 127.879C407.56 134.727 402.096 140.379 395.237 140.5C388.378 140.621 382.717 135.166 382.596 128.318Z" fill="#FFB93E"/>
<path d="M395.219 139.544C392.197 139.596 389.333 138.472 387.159 136.376C384.984 134.28 383.757 131.463 383.702 128.445C383.649 125.428 384.775 122.569 386.874 120.398C388.974 118.227 391.795 117.001 394.817 116.946C397.839 116.893 400.703 118.017 402.877 120.114C405.052 122.21 406.279 125.027 406.334 128.044C406.387 131.062 405.262 133.921 403.16 136.092C401.063 138.265 398.243 139.491 395.219 139.544ZM394.83 117.618C388.963 117.722 384.274 122.573 384.377 128.432C384.481 134.291 389.34 138.973 395.208 138.869C401.076 138.766 405.765 133.914 405.661 128.055C405.557 122.197 400.701 117.515 394.83 117.618Z" fill="#FFA412"/>
<path d="M396.636 131.496C396.661 131.251 396.647 131.033 396.599 130.841C396.548 130.647 396.453 130.469 396.312 130.301C396.17 130.134 395.983 129.975 395.747 129.821C395.513 129.669 395.221 129.512 394.877 129.354C394.283 129.076 393.749 128.796 393.272 128.509C392.793 128.223 392.391 127.908 392.066 127.564C391.74 127.22 391.499 126.832 391.342 126.398C391.186 125.963 391.137 125.463 391.194 124.894C391.245 124.401 391.378 123.958 391.594 123.57C391.81 123.18 392.097 122.851 392.453 122.582C392.808 122.313 393.225 122.106 393.698 121.963C394.17 121.82 394.694 121.751 395.263 121.756L395.451 119.889L396.954 120.041L396.762 121.934C397.294 122.058 397.769 122.249 398.186 122.509C398.603 122.77 398.948 123.085 399.221 123.459C399.493 123.834 399.689 124.264 399.809 124.747C399.928 125.232 399.957 125.765 399.899 126.345L397.182 126.071C397.252 125.373 397.148 124.837 396.875 124.458C396.599 124.081 396.201 123.865 395.68 123.814C395.398 123.786 395.151 123.801 394.941 123.858C394.729 123.916 394.55 124.006 394.404 124.13C394.259 124.253 394.146 124.405 394.064 124.584C393.983 124.762 393.932 124.961 393.91 125.177C393.888 125.393 393.899 125.589 393.945 125.769C393.989 125.95 394.082 126.122 394.221 126.285C394.36 126.448 394.55 126.609 394.791 126.766C395.031 126.922 395.334 127.09 395.696 127.266C396.281 127.555 396.811 127.841 397.285 128.13C397.76 128.419 398.16 128.736 398.486 129.085C398.813 129.433 399.054 129.821 399.208 130.255C399.365 130.687 399.414 131.185 399.356 131.749C399.305 132.261 399.168 132.711 398.95 133.101C398.729 133.491 398.442 133.817 398.087 134.079C397.731 134.344 397.314 134.542 396.835 134.677C396.356 134.811 395.833 134.875 395.263 134.871L395.089 136.605L393.594 136.455L393.769 134.727C393.254 134.624 392.762 134.458 392.294 134.236C391.826 134.013 391.42 133.718 391.077 133.352C390.735 132.986 390.475 132.541 390.3 132.018C390.126 131.496 390.073 130.885 390.144 130.189L392.861 130.462C392.819 130.874 392.844 131.225 392.932 131.514C393.02 131.8 393.153 132.038 393.331 132.223C393.508 132.409 393.718 132.547 393.958 132.638C394.199 132.73 394.449 132.788 394.705 132.814C394.998 132.843 395.261 132.832 395.493 132.779C395.722 132.726 395.921 132.64 396.084 132.521C396.248 132.402 396.378 132.254 396.471 132.08C396.557 131.906 396.614 131.712 396.636 131.496Z" fill="#FFA412"/>
<path d="M457.501 161.927C457.501 161.927 471.222 176.131 471.871 181.478C472.52 186.823 465.299 195.171 465.299 195.171L457.501 161.927Z" fill="#ED7D2B"/>
<path d="M451.302 309.138C451.302 309.138 450.819 316.672 449.357 316.778C449.163 316.791 441.951 316.776 441.951 316.776L432.745 316.703C432.745 316.703 432.809 314.488 435.502 314.025C438.193 313.562 442.703 311.684 444.339 308.138C446.063 304.404 451.302 309.138 451.302 309.138Z" fill="#2E5A99"/>
<path d="M471.807 309.183C471.807 309.183 471.323 316.717 469.862 316.822C469.668 316.836 462.455 316.82 462.455 316.82L453.249 316.747C453.249 316.747 453.313 314.532 456.007 314.072C458.698 313.609 463.208 311.731 464.844 308.184C466.568 304.45 471.807 309.183 471.807 309.183Z" fill="#18417C"/>
<path d="M441.281 228.129C441.281 228.129 443.655 243.51 452.578 270.823C461.501 298.135 462.698 309.956 462.698 309.956L472.334 309.707C472.334 309.707 472.482 279.88 468.372 266.145C464.261 252.411 467.586 216.663 467.586 216.663L441.281 228.129Z" fill="#163560"/>
<path d="M436.617 217.439C436.617 217.439 436.226 240.608 440.178 269.064C444.132 297.52 442.743 309.593 442.743 309.593L452.36 309.932C452.36 309.932 458.168 281.487 456.552 267.243C454.936 253.002 464.528 218.4 464.528 218.4L436.617 217.439Z" fill="#1C468A"/>
<path d="M455.349 163.263L450.218 166.606L442.816 165.213C442.92 164.616 443.414 162.145 443.865 159.906C443.891 159.773 443.92 159.641 443.944 159.513C444.33 157.607 444.662 155.971 444.662 155.971L451.585 152.94L454.165 151.81C454.159 151.849 453.96 153.923 453.934 154.228C453.439 159.601 455.349 163.263 455.349 163.263Z" fill="#FFB27D"/>
<path d="M444.721 161.548C444.865 161.488 453.645 158.923 454.596 159.238C455.548 159.553 456.108 161.396 456.108 161.396L441.752 164.603C441.752 164.603 442.887 162.313 444.721 161.548Z" fill="#ED7D2B"/>
<path d="M468.217 220.369C466.716 227.138 441.966 227.888 435.599 221.727C434.875 221.024 434.846 217.764 435.129 213.369C435.683 204.781 437.429 191.864 437.511 185.263C437.551 182.076 437.997 178.816 438.588 175.858C439.844 169.551 441.752 164.603 441.752 164.603C441.752 164.603 453.847 160.728 456.108 161.396C466.998 164.616 469.72 213.6 468.217 220.369Z" fill="#F99746"/>
<path d="M435.131 213.368C435.685 204.781 437.431 191.864 437.513 185.262C437.553 182.075 437.999 178.815 438.59 175.857L445.865 174.592C445.862 174.592 452.909 203.601 435.131 213.368Z" fill="#ED7D2B"/>
<path d="M439.094 201.406C439.094 201.406 439.586 202.589 438.544 203.381C437.502 204.172 436.824 205.457 437.06 206.398C437.297 207.339 439.577 208.878 440.37 208.633C441.162 208.389 442.776 207.152 442.604 206.656C442.432 206.16 443.697 202.305 441.769 200.817C439.842 199.327 439.094 201.406 439.094 201.406Z" fill="#FFB27D"/>
<path d="M447.308 162.877C447.308 162.877 440.213 164.186 434.546 172.489C428.877 180.79 425.146 186.964 426.181 189.964C427.214 192.964 436.681 203.377 438.317 203.381C439.953 203.386 442.595 202.202 442.75 199.531C442.75 199.531 436.091 189.519 437.412 188.025C437.975 187.385 446.099 180.83 447.251 183.801C449.154 188.717 447.308 162.877 447.308 162.877Z" fill="#F99746"/>
<path d="M453.415 154.318C451.892 156.884 446.227 159.092 443.865 159.904C443.891 159.771 443.92 159.639 443.944 159.511C444.33 157.605 444.661 155.969 444.661 155.969L451.585 152.938C453.115 152.918 454.044 153.262 453.415 154.318Z" fill="#FCA56B"/>
<path d="M442.059 155.541C442.059 155.541 453.192 159.035 455.263 152.079C457.336 145.124 460.168 140.89 453.148 138.366C446.127 135.842 443.948 138.084 442.692 140.238C441.434 142.391 439.215 154.452 442.059 155.541Z" fill="#FFB27D"/>
<path d="M443.132 139.567C443.132 139.567 443.825 147.668 445.503 147.319C447.18 146.971 448.704 146.713 448.452 149.156C448.2 151.596 445.869 154.41 451.037 154.853C456.205 155.296 463.667 142.001 462.252 139.477C458.17 132.196 437.228 130.682 443.132 139.567Z" fill="#163560"/>
<path d="M389.151 312.104V315.018C389.151 315.25 389.067 315.466 388.921 315.644C388.769 315.832 388.55 315.982 388.294 316.063C388.215 316.092 388.133 316.109 388.049 316.123C387.972 316.134 387.892 316.14 387.813 316.14H332.463C331.794 316.14 331.235 315.724 331.136 315.186C331.132 315.151 331.125 315.113 331.125 315.076C331.125 315.056 331.123 315.038 331.123 315.018V312.104C331.123 312.085 331.125 312.067 331.125 312.047C331.127 312.01 331.132 311.972 331.136 311.937C331.235 311.399 331.794 310.982 332.463 310.982H387.813C387.895 310.982 387.972 310.987 388.049 311C388.133 311.011 388.215 311.033 388.294 311.06C388.55 311.143 388.769 311.291 388.921 311.478C389.065 311.657 389.151 311.873 389.151 312.104Z" fill="#FFB93E"/>
<path d="M361.97 316.14H332.317C331.767 316.14 331.304 315.785 331.167 315.309C331.153 315.27 331.142 315.228 331.134 315.186C331.129 315.151 331.123 315.113 331.123 315.076C331.123 315.056 331.12 315.038 331.12 315.018V312.104C331.12 312.085 331.123 312.067 331.123 312.047C331.125 312.01 331.129 311.972 331.134 311.937C331.142 311.895 331.153 311.853 331.167 311.813C331.306 311.337 331.767 310.982 332.317 310.982H358.33C358.745 312.501 359.712 314.6 361.97 316.14Z" fill="#FFA412"/>
<path d="M382.415 310.979H381.786V316.14H382.415V310.979Z" fill="#FFA412"/>
<path d="M380.285 310.979H379.656V316.14H380.285V310.979Z" fill="#FFA412"/>
<path d="M377.733 310.979H377.104V316.14H377.733V310.979Z" fill="#FFA412"/>
<path d="M373.818 310.979H373.189V316.14H373.818V310.979Z" fill="#FFA412"/>
<path d="M369.679 310.979H369.05V316.14H369.679V310.979Z" fill="#FFA412"/>
<path d="M363.335 310.979H362.705V316.14H363.335V310.979Z" fill="#FFA412"/>
<path d="M357.391 310.979H356.762V316.14H357.391V310.979Z" fill="#FFA412"/>
<path d="M352.086 310.979H351.457V316.14H352.086V310.979Z" fill="#FFA412"/>
<path d="M384.442 310.979H383.812V316.14H384.442V310.979Z" fill="#FFA412"/>
<path d="M385.78 310.979H385.15V316.14H385.78V310.979Z" fill="#FFA412"/>
<path d="M387.073 310.979H386.444V316.14H387.073V310.979Z" fill="#FFA412"/>
<path d="M388.047 310.999V316.122C387.969 316.133 387.89 316.14 387.81 316.14H387.417V310.979H387.81C387.89 310.979 387.969 310.986 388.047 310.999Z" fill="#FFA412"/>
<path d="M388.921 311.475V315.644C388.769 315.833 388.55 315.981 388.292 316.065V311.057C388.548 311.138 388.769 311.288 388.921 311.475Z" fill="#FFA412"/>
<path d="M383.232 306.943V309.855C383.232 310.089 383.148 310.305 383.004 310.483C382.967 310.53 382.923 310.576 382.879 310.616C382.739 310.739 382.57 310.841 382.375 310.902C382.298 310.929 382.214 310.946 382.13 310.96C382.055 310.971 381.973 310.979 381.894 310.979H326.542C325.875 310.979 325.316 310.561 325.217 310.023C325.213 309.987 325.206 309.95 325.206 309.915C325.204 309.895 325.204 309.877 325.204 309.855V306.943C325.204 306.924 325.204 306.904 325.206 306.884C325.208 306.847 325.213 306.811 325.217 306.776C325.316 306.238 325.875 305.819 326.542 305.819H381.894C381.929 305.819 381.965 305.822 382 305.824C382.013 305.824 382.026 305.826 382.037 305.828C382.04 305.826 382.042 305.826 382.044 305.828C382.06 305.828 382.077 305.83 382.095 305.833C382.106 305.835 382.117 305.837 382.13 305.837C382.214 305.85 382.298 305.868 382.375 305.894C382.422 305.91 382.468 305.927 382.51 305.947H382.512C382.541 305.96 382.572 305.976 382.598 305.989C382.614 305.998 382.631 306.009 382.647 306.018C382.662 306.027 382.678 306.035 382.691 306.044C382.751 306.079 382.803 306.119 382.854 306.163C382.872 306.176 382.885 306.192 382.901 306.207C382.912 306.216 382.918 306.225 382.929 306.234C382.934 306.238 382.94 306.245 382.943 306.249L382.954 306.26C382.971 306.278 382.989 306.295 383.004 306.317C383.146 306.498 383.232 306.712 383.232 306.943Z" fill="#FFB93E"/>
<path d="M356.051 310.982H326.398C325.848 310.982 325.387 310.625 325.25 310.149C325.237 310.109 325.226 310.068 325.217 310.026C325.213 309.99 325.206 309.953 325.206 309.918C325.204 309.898 325.204 309.88 325.204 309.858V306.946C325.204 306.927 325.204 306.907 325.206 306.887C325.208 306.849 325.213 306.814 325.217 306.779C325.224 306.737 325.237 306.695 325.25 306.655C325.387 306.179 325.848 305.822 326.398 305.822H352.411C352.422 305.866 352.433 305.906 352.448 305.95C352.881 307.456 353.857 309.486 356.051 310.982Z" fill="#FFA412"/>
<path d="M376.497 305.821H375.867V310.981H376.497V305.821Z" fill="#FFA412"/>
<path d="M374.368 305.821H373.739V310.981H374.368V305.821Z" fill="#FFA412"/>
<path d="M371.814 305.821H371.185V310.981H371.814V305.821Z" fill="#FFA412"/>
<path d="M367.9 305.821H367.271V310.981H367.9V305.821Z" fill="#FFA412"/>
<path d="M363.76 305.821H363.131V310.981H363.76V305.821Z" fill="#FFA412"/>
<path d="M357.416 305.821H356.787V310.981H357.416V305.821Z" fill="#FFA412"/>
<path d="M351.475 305.821H350.846V310.981H351.475V305.821Z" fill="#FFA412"/>
<path d="M346.17 305.822H345.541V310.982H346.17V305.822Z" fill="#FFA412"/>
<path d="M378.523 305.821H377.894V310.981H378.523V305.821Z" fill="#FFA412"/>
<path d="M379.863 305.821H379.234V310.981H379.863V305.821Z" fill="#FFA412"/>
<path d="M381.157 305.821H380.528V310.981H381.157V305.821Z" fill="#FFA412"/>
<path d="M382.128 305.839V310.962C382.051 310.973 381.971 310.979 381.892 310.979H381.499V305.819H381.892C381.973 305.822 382.051 305.828 382.128 305.839Z" fill="#FFA412"/>
<path d="M383.002 306.317V310.485C382.85 310.675 382.631 310.823 382.373 310.906V305.898C382.631 305.98 382.85 306.128 383.002 306.317Z" fill="#FFA412"/>
<path d="M386.091 301.911V304.825C386.091 305.057 386.007 305.273 385.861 305.451C385.709 305.639 385.49 305.788 385.234 305.87C385.157 305.896 385.073 305.914 384.989 305.929C384.914 305.941 384.834 305.947 384.755 305.947H329.403C329.182 305.947 328.97 305.901 328.785 305.819C328.418 305.658 328.149 305.359 328.078 305.004C328.074 304.979 328.072 304.955 328.067 304.931C328.065 304.916 328.065 304.898 328.065 304.88C328.063 304.86 328.063 304.843 328.063 304.823V301.909C328.063 301.889 328.063 301.872 328.065 301.852C328.067 301.816 328.069 301.777 328.076 301.744C328.175 301.204 328.734 300.787 329.401 300.787H384.753C384.832 300.787 384.912 300.792 384.987 300.805C385.071 300.816 385.155 300.836 385.232 300.862C385.49 300.946 385.709 301.096 385.859 301.283C386.007 301.464 386.091 301.68 386.091 301.911Z" fill="#FFB93E"/>
<path d="M358.913 305.947H329.26C329.061 305.947 328.873 305.901 328.71 305.819C328.381 305.658 328.14 305.359 328.081 305.004C328.076 304.979 328.074 304.955 328.07 304.931C328.067 304.916 328.067 304.898 328.067 304.88C328.065 304.86 328.065 304.843 328.065 304.823V301.909C328.065 301.889 328.065 301.872 328.067 301.852C328.07 301.816 328.072 301.777 328.078 301.744C328.085 301.702 328.096 301.662 328.109 301.623C328.244 301.142 328.708 300.787 329.26 300.787H355.272C355.676 302.264 356.603 304.292 358.732 305.817C358.789 305.863 358.851 305.907 358.913 305.947Z" fill="#FFA412"/>
<path d="M379.357 300.789H378.728V305.949H379.357V300.789Z" fill="#FFA412"/>
<path d="M377.227 300.789H376.598V305.949H377.227V300.789Z" fill="#FFA412"/>
<path d="M374.673 300.789H374.044V305.949H374.673V300.789Z" fill="#FFA412"/>
<path d="M370.759 300.789H370.129V305.949H370.759V300.789Z" fill="#FFA412"/>
<path d="M366.619 300.789H365.99V305.949H366.619V300.789Z" fill="#FFA412"/>
<path d="M360.275 300.789H359.646V305.949H360.275V300.789Z" fill="#FFA412"/>
<path d="M354.334 300.789H353.704V305.949H354.334V300.789Z" fill="#FFA412"/>
<path d="M349.029 300.79H348.4V305.95H349.029V300.79Z" fill="#FFA412"/>
<path d="M381.384 300.789H380.755V305.949H381.384V300.789Z" fill="#FFA412"/>
<path d="M382.722 300.789H382.093V305.949H382.722V300.789Z" fill="#FFA412"/>
<path d="M384.015 300.789H383.386V305.949H384.015V300.789Z" fill="#FFA412"/>
<path d="M384.989 300.807V305.929C384.912 305.941 384.834 305.947 384.753 305.947H384.36V300.787H384.753C384.832 300.789 384.912 300.796 384.989 300.807Z" fill="#FFA412"/>
<path d="M385.861 301.285V305.453C385.709 305.643 385.49 305.79 385.232 305.874V300.866C385.49 300.948 385.709 301.095 385.861 301.285Z" fill="#FFA412"/>
<path d="M387.418 296.754V299.666C387.418 299.9 387.334 300.113 387.188 300.292C387.17 300.316 387.148 300.338 387.128 300.36C387.022 300.473 386.892 300.568 386.746 300.638C386.687 300.667 386.625 300.691 386.561 300.713C386.482 300.739 386.4 300.757 386.316 300.77C386.278 300.775 386.241 300.781 386.201 300.784C386.161 300.788 386.119 300.788 386.08 300.788H330.727C330.059 300.788 329.5 300.369 329.401 299.831C329.396 299.794 329.39 299.759 329.39 299.723V296.693C329.425 296.146 329.928 295.701 330.569 295.637C330.619 295.632 330.674 295.628 330.727 295.628H386.078C386.117 295.628 386.159 295.63 386.199 295.632C386.239 295.635 386.276 295.639 386.314 295.646C386.398 295.657 386.479 295.676 386.559 295.703C386.815 295.787 387.033 295.934 387.186 296.122C387.334 296.305 387.418 296.521 387.418 296.754Z" fill="#FFB93E"/>
<path d="M360.237 300.791H330.584C330.034 300.791 329.571 300.434 329.434 299.958C329.421 299.918 329.41 299.876 329.401 299.834C329.396 299.797 329.39 299.762 329.39 299.726V296.696C329.421 296.151 329.871 295.704 330.443 295.64C330.489 295.635 330.535 295.631 330.584 295.631H356.597C356.597 295.635 356.599 295.635 356.599 295.64C357.016 297.156 357.983 299.252 360.237 300.791Z" fill="#FFA412"/>
<path d="M380.682 295.63H380.053V300.79H380.682V295.63Z" fill="#FFA412"/>
<path d="M378.554 295.63H377.925V300.79H378.554V295.63Z" fill="#FFA412"/>
<path d="M376 295.63H375.371V300.79H376V295.63Z" fill="#FFA412"/>
<path d="M372.086 295.63H371.457V300.79H372.086V295.63Z" fill="#FFA412"/>
<path d="M367.946 295.63H367.317V300.79H367.946V295.63Z" fill="#FFA412"/>
<path d="M361.601 295.63H360.972V300.79H361.601V295.63Z" fill="#FFA412"/>
<path d="M355.661 295.63H355.032V300.79H355.661V295.63Z" fill="#FFA412"/>
<path d="M350.356 295.631H349.727V300.791H350.356V295.631Z" fill="#FFA412"/>
<path d="M382.709 295.63H382.08V300.79H382.709V295.63Z" fill="#FFA412"/>
<path d="M384.049 295.63H383.419V300.79H384.049V295.63Z" fill="#FFA412"/>
<path d="M385.343 295.63H384.713V300.79H385.343V295.63Z" fill="#FFA412"/>
<path d="M386.314 295.648V300.77C386.236 300.781 386.159 300.788 386.078 300.788H385.685V295.628H386.078C386.159 295.63 386.236 295.637 386.314 295.648Z" fill="#FFA412"/>
<path d="M387.188 296.126V300.294C387.036 300.484 386.817 300.631 386.559 300.715V295.707C386.817 295.789 387.036 295.938 387.188 296.126Z" fill="#FFA412"/>
<path d="M383.347 291.604V294.515C383.347 294.749 383.263 294.963 383.119 295.141C382.967 295.331 382.748 295.481 382.49 295.562C382.413 295.589 382.329 295.606 382.245 295.62C382.218 295.624 382.194 295.629 382.168 295.631H382.157C382.143 295.633 382.128 295.635 382.115 295.635C382.104 295.637 382.093 295.637 382.079 295.64C382.055 295.64 382.033 295.642 382.009 295.642H326.659C325.946 295.642 325.356 295.168 325.321 294.577C325.319 294.557 325.319 294.54 325.319 294.518V291.606C325.319 291.586 325.319 291.566 325.321 291.546C325.321 291.531 325.323 291.515 325.323 291.5C325.376 291.026 325.789 290.632 326.328 290.517C326.339 290.515 326.354 290.51 326.367 290.508C326.46 290.491 326.557 290.479 326.659 290.479H382.009C382.051 290.479 382.088 290.482 382.128 290.484C382.146 290.486 382.163 290.486 382.179 290.488C382.181 290.488 382.181 290.488 382.183 290.488H382.185C382.205 290.491 382.227 290.493 382.247 290.497C382.331 290.508 382.413 290.528 382.492 290.554C382.75 290.638 382.969 290.786 383.121 290.975C383.265 291.156 383.347 291.37 383.347 291.604Z" fill="#FFB93E"/>
<path d="M356.168 295.639H326.517C325.879 295.639 325.356 295.165 325.323 294.574C325.321 294.554 325.321 294.537 325.321 294.515V291.603C325.321 291.583 325.321 291.563 325.323 291.543C325.323 291.528 325.325 291.513 325.325 291.497C325.374 291.01 325.756 290.613 326.255 290.507C326.27 290.503 326.288 290.499 326.305 290.496C326.374 290.485 326.447 290.477 326.517 290.477H352.528C352.53 290.49 352.534 290.501 352.539 290.514C352.958 292.026 353.927 294.1 356.157 295.628C356.159 295.634 356.164 295.637 356.168 295.639Z" fill="#FFA412"/>
<path d="M376.613 290.479H375.984V295.639H376.613V290.479Z" fill="#FFA412"/>
<path d="M374.483 290.479H373.854V295.639H374.483V290.479Z" fill="#FFA412"/>
<path d="M371.931 290.479H371.302V295.639H371.931V290.479Z" fill="#FFA412"/>
<path d="M368.017 290.479H367.388V295.639H368.017V290.479Z" fill="#FFA412"/>
<path d="M363.877 290.479H363.248V295.639H363.877V290.479Z" fill="#FFA412"/>
<path d="M357.531 290.479H356.901V295.639H357.531V290.479Z" fill="#FFA412"/>
<path d="M351.589 290.479H350.96V295.639H351.589V290.479Z" fill="#FFA412"/>
<path d="M346.285 290.479H345.656V295.64H346.285V290.479Z" fill="#FFA412"/>
<path d="M378.64 290.479H378.011V295.639H378.64V290.479Z" fill="#FFA412"/>
<path d="M379.98 290.479H379.351V295.639H379.98V290.479Z" fill="#FFA412"/>
<path d="M381.271 290.479H380.642V295.639H381.271V290.479Z" fill="#FFA412"/>
<path d="M382.245 290.496V295.619C382.168 295.63 382.09 295.637 382.009 295.637H381.616V290.477H382.009C382.09 290.479 382.168 290.485 382.245 290.496Z" fill="#FFA412"/>
<path d="M383.119 290.974V295.143C382.967 295.332 382.749 295.48 382.49 295.564V290.556C382.746 290.637 382.967 290.787 383.119 290.974Z" fill="#FFA412"/>
<path d="M383.232 286.48V289.392C383.232 289.625 383.148 289.839 383.004 290.018C382.967 290.064 382.923 290.108 382.879 290.152C382.739 290.275 382.569 290.377 382.375 290.439C382.313 290.458 382.249 290.476 382.185 290.487H382.183C382.181 290.487 382.181 290.487 382.179 290.487C382.161 290.489 382.146 290.494 382.128 290.496C382.053 290.507 381.971 290.516 381.892 290.516H326.539C326.482 290.516 326.425 290.511 326.367 290.505C326.345 290.503 326.323 290.5 326.301 290.496C325.738 290.41 325.292 290.024 325.213 289.546C325.208 289.513 325.204 289.482 325.202 289.449C325.199 289.429 325.199 289.409 325.199 289.389V286.478C325.199 286.458 325.199 286.438 325.202 286.418C325.204 286.383 325.208 286.345 325.213 286.31C325.312 285.772 325.871 285.354 326.537 285.354H381.89C381.925 285.354 381.96 285.356 381.995 285.358C382 285.358 382.007 285.36 382.009 285.36C382.02 285.362 382.029 285.362 382.04 285.362C382.055 285.365 382.073 285.367 382.09 285.369C382.101 285.369 382.113 285.371 382.126 285.373C382.21 285.384 382.294 285.404 382.371 285.431C382.417 285.446 382.464 285.464 382.505 285.481H382.508C382.68 285.559 382.83 285.664 382.951 285.792C382.969 285.812 382.987 285.83 383.002 285.849C383.146 286.03 383.232 286.246 383.232 286.48Z" fill="#FFB93E"/>
<path d="M356.052 290.516H326.398C326.376 290.516 326.352 290.513 326.33 290.513C326.304 290.511 326.279 290.509 326.255 290.507C325.718 290.443 325.29 290.046 325.217 289.548C325.213 289.515 325.209 289.484 325.206 289.451C325.204 289.431 325.204 289.411 325.204 289.391V286.48C325.204 286.46 325.204 286.44 325.206 286.42C325.209 286.385 325.213 286.347 325.217 286.312C325.224 286.27 325.237 286.228 325.25 286.189C325.387 285.713 325.849 285.355 326.398 285.355H352.411C352.422 285.4 352.433 285.439 352.449 285.483C352.879 286.978 353.842 288.984 356.001 290.478C356.016 290.491 356.034 290.502 356.052 290.516Z" fill="#FFA412"/>
<path d="M376.496 285.355H375.867V290.516H376.496V285.355Z" fill="#FFA412"/>
<path d="M374.368 285.355H373.739V290.516H374.368V285.355Z" fill="#FFA412"/>
<path d="M371.814 285.355H371.185V290.516H371.814V285.355Z" fill="#FFA412"/>
<path d="M367.899 285.355H367.27V290.516H367.899V285.355Z" fill="#FFA412"/>
<path d="M363.76 285.355H363.131V290.516H363.76V285.355Z" fill="#FFA412"/>
<path d="M357.416 285.355H356.786V290.516H357.416V285.355Z" fill="#FFA412"/>
<path d="M351.475 285.355H350.845V290.516H351.475V285.355Z" fill="#FFA412"/>
<path d="M346.17 285.355H345.541V290.516H346.17V285.355Z" fill="#FFA412"/>
<path d="M378.523 285.355H377.894V290.516H378.523V285.355Z" fill="#FFA412"/>
<path d="M379.863 285.355H379.234V290.516H379.863V285.355Z" fill="#FFA412"/>
<path d="M381.157 285.355H380.527V290.516H381.157V285.355Z" fill="#FFA412"/>
<path d="M382.128 285.375V290.498C382.05 290.509 381.971 290.516 381.892 290.516H381.499V285.355H381.892C381.973 285.355 382.05 285.362 382.128 285.375Z" fill="#FFA412"/>
<path d="M383.002 285.851V290.02C382.85 290.209 382.631 290.357 382.373 290.441V285.433C382.631 285.514 382.85 285.664 383.002 285.851Z" fill="#FFA412"/>
<path d="M386.091 281.448V284.36C386.091 284.593 386.007 284.809 385.861 284.988C385.709 285.175 385.49 285.325 385.234 285.407C385.157 285.433 385.073 285.451 384.989 285.464C384.914 285.475 384.834 285.482 384.755 285.482H329.403C329.182 285.482 328.97 285.435 328.785 285.354C328.418 285.193 328.149 284.893 328.078 284.538C328.074 284.514 328.072 284.49 328.067 284.465C328.065 284.448 328.065 284.432 328.065 284.415C328.063 284.395 328.063 284.377 328.063 284.355V281.443C328.063 281.424 328.063 281.404 328.065 281.384C328.067 281.346 328.069 281.311 328.076 281.276C328.175 280.738 328.734 280.319 329.401 280.319H384.753C384.832 280.319 384.912 280.326 384.987 280.339C385.071 280.35 385.155 280.37 385.232 280.396C385.49 280.48 385.709 280.628 385.859 280.817C386.007 281 386.091 281.214 386.091 281.448Z" fill="#FFB93E"/>
<path d="M358.913 285.485H329.26C329.061 285.485 328.873 285.438 328.71 285.357C328.381 285.196 328.14 284.896 328.081 284.541C328.076 284.517 328.074 284.493 328.07 284.468C328.067 284.451 328.067 284.435 328.067 284.418C328.065 284.398 328.065 284.38 328.065 284.358V281.446C328.065 281.427 328.065 281.407 328.067 281.387C328.07 281.349 328.072 281.314 328.078 281.279C328.085 281.237 328.096 281.197 328.109 281.16C328.244 280.682 328.708 280.322 329.26 280.322H355.272C355.676 281.801 356.603 283.829 358.732 285.354C358.789 285.401 358.851 285.443 358.913 285.485Z" fill="#FFA412"/>
<path d="M379.357 280.326H378.728V285.486H379.357V280.326Z" fill="#FFA412"/>
<path d="M377.227 280.326H376.598V285.486H377.227V280.326Z" fill="#FFA412"/>
<path d="M374.673 280.326H374.043V285.486H374.673V280.326Z" fill="#FFA412"/>
<path d="M370.759 280.326H370.129V285.486H370.759V280.326Z" fill="#FFA412"/>
<path d="M366.619 280.326H365.99V285.486H366.619V280.326Z" fill="#FFA412"/>
<path d="M360.274 280.326H359.645V285.486H360.274V280.326Z" fill="#FFA412"/>
<path d="M354.333 280.326H353.704V285.486H354.333V280.326Z" fill="#FFA412"/>
<path d="M349.029 280.327H348.399V285.487H349.029V280.327Z" fill="#FFA412"/>
<path d="M381.384 280.326H380.755V285.486H381.384V280.326Z" fill="#FFA412"/>
<path d="M382.722 280.326H382.093V285.486H382.722V280.326Z" fill="#FFA412"/>
<path d="M384.015 280.326H383.386V285.486H384.015V280.326Z" fill="#FFA412"/>
<path d="M384.989 280.344V285.467C384.912 285.478 384.834 285.484 384.753 285.484H384.36V280.324H384.753C384.832 280.324 384.912 280.331 384.989 280.344Z" fill="#FFA412"/>
<path d="M385.861 280.82V284.988C385.709 285.178 385.49 285.326 385.232 285.409V280.401C385.49 280.483 385.709 280.633 385.861 280.82Z" fill="#FFA412"/>
<path d="M390.614 276.289V279.203C390.614 279.434 390.53 279.648 390.387 279.829L390.384 279.831C390.365 279.855 390.345 279.877 390.325 279.899C390.241 279.99 390.142 280.067 390.029 280.131C389.974 280.161 389.914 280.19 389.852 280.214C389.85 280.214 389.85 280.217 389.85 280.217C389.822 280.228 389.791 280.241 389.758 280.252C389.68 280.278 389.596 280.296 389.512 280.309C389.437 280.32 389.356 280.327 389.276 280.327H333.924C333.257 280.327 332.699 279.91 332.599 279.372C332.593 279.335 332.588 279.3 332.588 279.262C332.586 279.242 332.586 279.225 332.586 279.205V276.291C332.586 276.271 332.586 276.253 332.588 276.234C332.622 275.687 333.127 275.242 333.767 275.178C333.82 275.171 333.871 275.169 333.924 275.169H389.276C389.356 275.169 389.435 275.176 389.512 275.187C389.596 275.2 389.68 275.22 389.758 275.246C389.983 275.319 390.175 275.44 390.325 275.597C390.345 275.619 390.367 275.641 390.384 275.665L390.387 275.667C390.53 275.843 390.614 276.057 390.614 276.289Z" fill="#FFB93E"/>
<path d="M363.436 280.325H333.783C333.231 280.325 332.767 279.968 332.633 279.489C332.62 279.45 332.608 279.41 332.602 279.37C332.595 279.333 332.591 279.298 332.591 279.26C332.589 279.24 332.589 279.223 332.589 279.203V276.289C332.589 276.269 332.589 276.251 332.591 276.232C332.62 275.685 333.072 275.24 333.642 275.176C333.688 275.169 333.734 275.167 333.783 275.167H359.796C359.796 275.169 359.798 275.171 359.798 275.176C360.213 276.692 361.18 278.788 363.436 280.325Z" fill="#FFA412"/>
<path d="M383.881 275.166H383.252V280.326H383.881V275.166Z" fill="#FFA412"/>
<path d="M381.751 275.166H381.121V280.326H381.751V275.166Z" fill="#FFA412"/>
<path d="M379.196 275.166H378.567V280.326H379.196V275.166Z" fill="#FFA412"/>
<path d="M375.282 275.166H374.653V280.326H375.282V275.166Z" fill="#FFA412"/>
<path d="M371.143 275.166H370.514V280.326H371.143V275.166Z" fill="#FFA412"/>
<path d="M364.798 275.166H364.169V280.326H364.798V275.166Z" fill="#FFA412"/>
<path d="M358.857 275.166H358.228V280.326H358.857V275.166Z" fill="#FFA412"/>
<path d="M353.552 275.167H352.923V280.327H353.552V275.167Z" fill="#FFA412"/>
<path d="M385.908 275.166H385.279V280.326H385.908V275.166Z" fill="#FFA412"/>
<path d="M387.246 275.166H386.616V280.326H387.246V275.166Z" fill="#FFA412"/>
<path d="M388.539 275.166H387.91V280.326H388.539V275.166Z" fill="#FFA412"/>
<path d="M389.512 275.184V280.306C389.435 280.317 389.356 280.324 389.276 280.324H388.883V275.164H389.276C389.356 275.166 389.435 275.173 389.512 275.184Z" fill="#FFA412"/>
<path d="M390.384 275.662V279.83C390.232 280.02 390.013 280.167 389.755 280.251V275.243C390.013 275.325 390.232 275.472 390.384 275.662Z" fill="#FFA412"/>
<path d="M383.347 271.139V274.051C383.347 274.284 383.263 274.498 383.119 274.677C382.967 274.866 382.748 275.016 382.49 275.098C382.413 275.124 382.329 275.142 382.245 275.155C382.218 275.159 382.194 275.162 382.168 275.166H382.157C382.139 275.171 382.121 275.171 382.104 275.171C382.093 275.171 382.084 275.173 382.073 275.173C382.051 275.173 382.031 275.175 382.007 275.175H326.656C326.175 275.175 325.751 274.961 325.517 274.639C325.403 274.483 325.33 274.302 325.319 274.11C325.316 274.09 325.316 274.071 325.316 274.051V271.139C325.316 271.119 325.316 271.099 325.319 271.08C325.347 270.601 325.74 270.198 326.268 270.063C326.392 270.03 326.522 270.013 326.656 270.013H382.007C382.031 270.013 382.053 270.015 382.077 270.015C382.09 270.015 382.101 270.017 382.112 270.019C382.157 270.022 382.201 270.026 382.243 270.033C382.327 270.044 382.408 270.063 382.488 270.09C382.528 270.101 382.565 270.116 382.603 270.134H382.605C382.753 270.193 382.883 270.277 382.991 270.376C382.993 270.379 382.996 270.381 382.996 270.383C383 270.387 383.007 270.392 383.011 270.396C383.049 270.431 383.084 270.469 383.117 270.509C383.265 270.689 383.347 270.905 383.347 271.139Z" fill="#FFB93E"/>
<path d="M356.168 275.175H326.517C326.1 275.175 325.731 274.972 325.517 274.666C325.402 274.502 325.332 274.313 325.323 274.11C325.321 274.09 325.321 274.07 325.321 274.051V271.139C325.321 271.119 325.321 271.099 325.323 271.079C325.352 270.566 325.751 270.14 326.275 270.039C326.352 270.023 326.433 270.015 326.517 270.015H352.528C352.539 270.054 352.55 270.094 352.563 270.134C352.994 271.639 353.967 273.667 356.157 275.166C356.159 275.168 356.164 275.17 356.168 275.175Z" fill="#FFA412"/>
<path d="M376.613 270.015H375.984V275.175H376.613V270.015Z" fill="#FFA412"/>
<path d="M374.483 270.015H373.854V275.175H374.483V270.015Z" fill="#FFA412"/>
<path d="M371.931 270.015H371.302V275.175H371.931V270.015Z" fill="#FFA412"/>
<path d="M368.017 270.015H367.387V275.175H368.017V270.015Z" fill="#FFA412"/>
<path d="M363.877 270.015H363.248V275.175H363.877V270.015Z" fill="#FFA412"/>
<path d="M357.53 270.015H356.901V275.175H357.53V270.015Z" fill="#FFA412"/>
<path d="M351.589 270.015H350.96V275.175H351.589V270.015Z" fill="#FFA412"/>
<path d="M346.284 270.015H345.655V275.175H346.284V270.015Z" fill="#FFA412"/>
<path d="M378.64 270.015H378.01V275.175H378.64V270.015Z" fill="#FFA412"/>
<path d="M379.98 270.015H379.351V275.175H379.98V270.015Z" fill="#FFA412"/>
<path d="M381.271 270.015H380.642V275.175H381.271V270.015Z" fill="#FFA412"/>
<path d="M382.245 270.032V275.155C382.167 275.166 382.09 275.172 382.008 275.172H381.615V270.015H382.008C382.09 270.015 382.167 270.021 382.245 270.032Z" fill="#FFA412"/>
<path d="M383.119 270.511V274.679C382.967 274.868 382.748 275.016 382.49 275.1V270.092C382.746 270.173 382.967 270.321 383.119 270.511Z" fill="#FFA412"/>
<path d="M387.418 266.099V269.013C387.418 269.244 387.334 269.46 387.188 269.639C387.036 269.828 386.817 269.976 386.559 270.06C386.479 270.086 386.398 270.106 386.314 270.117C386.236 270.128 386.159 270.135 386.078 270.135H330.727C330.513 270.135 330.308 270.093 330.129 270.016C329.725 269.846 329.436 269.509 329.394 269.116C329.392 269.101 329.392 269.085 329.39 269.07C329.39 269.05 329.387 269.033 329.387 269.013V266.099C329.387 266.079 329.387 266.061 329.39 266.041C329.423 265.495 329.928 265.047 330.569 264.983C330.619 264.977 330.672 264.975 330.727 264.975H386.078C386.159 264.975 386.236 264.981 386.314 264.992C386.398 265.005 386.479 265.023 386.559 265.05C386.815 265.133 387.036 265.281 387.188 265.471C387.334 265.651 387.418 265.865 387.418 266.099Z" fill="#FFB93E"/>
<path d="M360.237 270.135H330.584C330.392 270.135 330.211 270.093 330.05 270.016C329.69 269.846 329.432 269.509 329.394 269.116C329.392 269.101 329.392 269.085 329.39 269.07C329.39 269.05 329.387 269.033 329.387 269.013V266.099C329.387 266.079 329.387 266.061 329.39 266.041C329.418 265.495 329.871 265.047 330.443 264.983C330.489 264.977 330.535 264.975 330.584 264.975H356.594C356.594 264.977 356.597 264.981 356.597 264.983C357.003 266.462 357.932 268.49 360.065 270.016C360.122 270.055 360.18 270.095 360.237 270.135Z" fill="#FFA412"/>
<path d="M380.682 264.974H380.053V270.134H380.682V264.974Z" fill="#FFA412"/>
<path d="M378.554 264.974H377.925V270.134H378.554V264.974Z" fill="#FFA412"/>
<path d="M376 264.974H375.371V270.134H376V264.974Z" fill="#FFA412"/>
<path d="M372.086 264.974H371.457V270.134H372.086V264.974Z" fill="#FFA412"/>
<path d="M367.946 264.974H367.317V270.134H367.946V264.974Z" fill="#FFA412"/>
<path d="M361.601 264.974H360.972V270.134H361.601V264.974Z" fill="#FFA412"/>
<path d="M355.661 264.974H355.032V270.134H355.661V264.974Z" fill="#FFA412"/>
<path d="M350.356 264.975H349.727V270.135H350.356V264.975Z" fill="#FFA412"/>
<path d="M382.709 264.974H382.08V270.134H382.709V264.974Z" fill="#FFA412"/>
<path d="M384.049 264.974H383.419V270.134H384.049V264.974Z" fill="#FFA412"/>
<path d="M385.343 264.974H384.713V270.134H385.343V264.974Z" fill="#FFA412"/>
<path d="M386.314 264.992V270.114C386.236 270.125 386.159 270.132 386.078 270.132H385.685V264.972H386.078C386.159 264.974 386.236 264.98 386.314 264.992Z" fill="#FFA412"/>
<path d="M387.188 265.47V269.638C387.036 269.827 386.817 269.975 386.559 270.059V265.051C386.817 265.132 387.036 265.282 387.188 265.47Z" fill="#FFA412"/>
<path d="M389.15 260.947V263.861C389.15 264.093 389.067 264.309 388.921 264.487C388.769 264.677 388.55 264.824 388.292 264.908C388.212 264.935 388.131 264.954 388.047 264.965C388.02 264.97 387.996 264.972 387.969 264.974C387.956 264.974 387.941 264.976 387.925 264.979C387.912 264.981 387.897 264.981 387.881 264.981C387.857 264.983 387.835 264.983 387.81 264.983H332.46C331.747 264.983 331.16 264.509 331.123 263.918C331.123 263.899 331.12 263.881 331.12 263.861V260.947C331.12 260.927 331.12 260.91 331.123 260.89C331.158 260.299 331.747 259.825 332.46 259.825H387.81C387.892 259.825 387.969 259.832 388.047 259.843C388.131 259.856 388.212 259.874 388.292 259.9C388.548 259.984 388.769 260.132 388.921 260.321C389.064 260.5 389.15 260.713 389.15 260.947Z" fill="#FFB93E"/>
<path d="M361.97 264.983H332.317C331.681 264.983 331.156 264.509 331.123 263.918C331.123 263.899 331.12 263.881 331.12 263.861V260.947C331.12 260.927 331.12 260.91 331.123 260.89C331.156 260.299 331.681 259.825 332.317 259.825H358.33C358.745 261.342 359.709 263.438 361.959 264.976C361.961 264.976 361.966 264.981 361.97 264.983Z" fill="#FFA412"/>
<path d="M382.415 259.822H381.786V264.982H382.415V259.822Z" fill="#FFA412"/>
<path d="M380.285 259.822H379.656V264.982H380.285V259.822Z" fill="#FFA412"/>
<path d="M377.733 259.822H377.104V264.982H377.733V259.822Z" fill="#FFA412"/>
<path d="M373.819 259.822H373.189V264.982H373.819V259.822Z" fill="#FFA412"/>
<path d="M369.679 259.822H369.05V264.982H369.679V259.822Z" fill="#FFA412"/>
<path d="M363.334 259.822H362.705V264.982H363.334V259.822Z" fill="#FFA412"/>
<path d="M357.391 259.822H356.762V264.982H357.391V259.822Z" fill="#FFA412"/>
<path d="M352.086 259.823H351.457V264.983H352.086V259.823Z" fill="#FFA412"/>
<path d="M384.442 259.822H383.813V264.982H384.442V259.822Z" fill="#FFA412"/>
<path d="M385.782 259.822H385.153V264.982H385.782V259.822Z" fill="#FFA412"/>
<path d="M387.073 259.822H386.444V264.982H387.073V259.822Z" fill="#FFA412"/>
<path d="M388.047 259.84V264.963C387.969 264.974 387.892 264.98 387.81 264.98H387.417V259.82H387.81C387.892 259.823 387.969 259.829 388.047 259.84Z" fill="#FFA412"/>
<path d="M388.921 260.318V264.486C388.769 264.676 388.55 264.824 388.292 264.907V259.899C388.548 259.981 388.769 260.131 388.921 260.318Z" fill="#FFA412"/>
<path d="M371.604 230.423C371.604 230.423 368.697 234.51 366.032 234.567C363.367 234.624 359.312 232.673 359.312 232.673C359.312 232.673 356.866 227.229 358.524 225.098C358.524 225.098 360.188 224.368 361.928 225.655C362.226 225.878 362.531 226.158 362.829 226.517C363.25 227.024 363.725 227.313 364.228 227.465C366.131 228.042 368.388 226.685 369.233 227.996C369.725 228.759 370.262 229.332 370.703 229.733C371.224 230.196 371.604 230.423 371.604 230.423Z" fill="#FFEDDC"/>
<path d="M333.703 259.899C333.703 259.899 343.98 235.04 362.476 234.566C362.476 234.566 379.55 236.46 380.497 259.899H333.703Z" fill="#FFEDDC"/>
<path d="M357.409 235.325C357.409 235.325 364.822 236.972 367.109 236.004C367.109 236.004 367.456 232.909 364.332 233.344C362.195 233.641 360.804 232.616 359.985 232.2C358.826 231.609 357.1 234.029 357.409 235.325Z" fill="#DB6A1D"/>
<path d="M363.86 230.659C363.385 231.014 361.93 225.653 361.93 225.653C362.228 225.876 362.533 226.156 362.831 226.515C363.253 227.022 363.727 227.311 364.231 227.463C364.235 227.619 364.321 230.313 363.86 230.659Z" fill="#E5C1A1"/>
<path d="M370.703 229.73C370.6 229.792 367.171 231.842 366.705 231.842C366.231 231.842 369.233 227.991 369.233 227.991C369.728 228.756 370.262 229.327 370.703 229.73Z" fill="#E5C1A1"/>
<path d="M343.742 252.954C343.552 252.791 351.014 241.984 353.069 241.904C355.124 241.825 359.74 244.272 363.085 244.587C366.427 244.902 369.668 243.956 370.302 245.929C370.933 247.902 372.673 254.896 371.606 256.016C370.538 257.135 347.846 256.454 343.742 252.954Z" fill="#F9DDBF"/>
<path opacity="0.5" d="M350.771 290.478C350.768 290.491 350.768 290.505 350.766 290.516C350.669 292.248 350.391 293.961 349.936 295.629C349.936 295.632 349.934 295.634 349.934 295.638C349.868 295.881 349.799 296.121 349.724 296.361C349.261 297.884 348.651 299.368 347.901 300.789C346.958 302.577 345.797 304.268 344.424 305.819C344.386 305.863 344.349 305.905 344.311 305.947C342.596 307.865 340.56 309.569 338.231 310.979C337.741 311.277 337.238 311.564 336.719 311.835C336.37 312.018 336.019 312.19 335.666 312.357C335.328 312.551 334.973 312.719 334.637 312.926C333.661 313.521 332.445 313.995 331.12 314.372V312.104C331.12 312.084 331.123 312.066 331.123 312.046C331.125 312.009 331.129 311.971 331.134 311.936C331.142 311.894 331.153 311.852 331.167 311.813C331.306 311.337 331.767 310.982 332.317 310.982H326.398C325.849 310.982 325.387 310.625 325.25 310.148C325.237 310.109 325.226 310.067 325.217 310.025C325.213 309.99 325.206 309.952 325.206 309.917C325.204 309.897 325.204 309.88 325.204 309.857V306.946C325.204 306.926 325.204 306.906 325.206 306.886C325.208 306.849 325.213 306.813 325.217 306.778C325.224 306.736 325.237 306.694 325.25 306.655C325.387 306.179 325.849 305.822 326.398 305.822H328.707C328.378 305.661 328.138 305.361 328.078 305.006C328.074 304.982 328.072 304.958 328.067 304.933C328.065 304.918 328.065 304.9 328.065 304.883C328.063 304.863 328.063 304.845 328.063 304.825V301.911C328.063 301.892 328.063 301.874 328.065 301.854C328.067 301.819 328.069 301.779 328.076 301.746C328.083 301.704 328.094 301.664 328.107 301.625C328.242 301.144 328.705 300.789 329.257 300.789H330.584C330.034 300.789 329.571 300.432 329.434 299.956C329.42 299.917 329.409 299.875 329.401 299.833C329.396 299.795 329.39 299.76 329.39 299.725V296.694C329.42 296.15 329.871 295.702 330.443 295.638H326.515C325.877 295.638 325.354 295.164 325.321 294.574C325.319 294.554 325.319 294.536 325.319 294.514V291.602C325.319 291.582 325.319 291.563 325.321 291.543C325.321 291.527 325.323 291.512 325.323 291.496C325.372 291.009 325.754 290.613 326.253 290.507C325.716 290.443 325.288 290.046 325.215 289.548C325.211 289.515 325.206 289.484 325.204 289.451C325.202 289.431 325.202 289.411 325.202 289.391V286.48C325.202 286.46 325.202 286.44 325.204 286.42C325.206 286.385 325.211 286.347 325.215 286.312C325.222 286.27 325.235 286.228 325.248 286.189C325.385 285.713 325.846 285.356 326.396 285.356H328.705C328.376 285.195 328.136 284.895 328.076 284.54C328.072 284.516 328.069 284.492 328.065 284.467C328.063 284.45 328.063 284.434 328.063 284.417C328.061 284.397 328.061 284.379 328.061 284.357V281.445C328.061 281.426 328.061 281.406 328.063 281.386C328.065 281.348 328.067 281.313 328.074 281.278C328.08 281.236 328.091 281.196 328.105 281.159C328.239 280.681 328.703 280.321 329.255 280.321H333.778C333.226 280.321 332.763 279.964 332.628 279.486C332.615 279.446 332.604 279.406 332.597 279.367C332.591 279.329 332.586 279.294 332.586 279.257C332.584 279.237 332.584 279.219 332.584 279.199V276.285C332.584 276.265 332.584 276.248 332.586 276.228C332.615 275.681 333.068 275.236 333.637 275.172H326.513C326.096 275.172 325.727 274.969 325.513 274.663L325.517 274.637L326.268 270.063L326.27 270.036L327.339 263.51C328.579 263.675 329.805 263.922 331.006 264.246C331.076 264.266 331.145 264.283 331.217 264.303C331.222 264.305 331.226 264.308 331.231 264.308C331.931 264.502 332.624 264.724 333.304 264.973C333.31 264.976 333.315 264.978 333.324 264.98C336.461 266.122 339.381 267.815 341.918 270.012C341.962 270.05 342.008 270.089 342.05 270.131C343.368 271.286 344.578 272.58 345.653 274.006C345.87 274.291 346.079 274.577 346.28 274.87C346.349 274.967 346.415 275.064 346.479 275.161C346.483 275.163 346.483 275.166 346.483 275.17C346.81 275.653 347.119 276.144 347.413 276.653C348.106 277.85 348.689 279.076 349.163 280.321C349.797 281.974 350.243 283.658 350.506 285.353C350.515 285.397 350.519 285.437 350.526 285.481C350.784 287.15 350.859 288.823 350.771 290.478Z" fill="#E2810E"/>
<path d="M293.595 300.939C286.336 287.791 291.127 271.258 304.295 264.01C317.464 256.763 334.023 261.546 341.282 274.694C348.541 287.842 343.75 304.376 330.584 311.623C317.413 318.868 300.854 314.085 293.595 300.939Z" fill="#E2810E"/>
<path d="M329.524 312.174C329.189 312.379 328.849 312.575 328.502 312.767C328.385 312.831 328.268 312.895 328.149 312.957C327.88 313.1 327.612 313.237 327.341 313.371C314.375 319.728 298.562 314.85 291.513 302.083C284.791 289.907 288.405 274.826 299.434 266.907C300.315 266.274 301.24 265.688 302.211 265.154C302.56 264.962 302.913 264.777 303.266 264.603C303.609 264.431 303.957 264.27 304.304 264.116C305.37 263.642 306.452 263.241 307.547 262.915C309.172 262.425 310.823 262.097 312.477 261.923C317.605 261.381 322.764 262.315 327.341 264.55C332.195 266.92 336.392 270.753 339.2 275.838C346.267 288.64 341.913 304.649 329.524 312.174Z" fill="#FFB93E"/>
<path d="M315.547 313.61C313.271 313.61 310.982 313.288 308.735 312.64C302.476 310.832 297.295 306.699 294.151 301.002C291.005 295.304 290.27 288.724 292.08 282.475C293.89 276.226 298.03 271.053 303.736 267.914C315.516 261.43 330.383 265.725 336.878 277.485C343.37 289.247 339.07 304.09 327.29 310.574C323.632 312.585 319.612 313.61 315.547 313.61ZM315.472 265.547C311.6 265.547 307.677 266.493 304.052 268.487C298.5 271.542 294.471 276.575 292.709 282.656C290.948 288.737 291.663 295.138 294.723 300.682C297.782 306.225 302.823 310.248 308.913 312.007C315.004 313.766 321.415 313.052 326.967 309.995C338.43 303.686 342.615 289.242 336.295 277.798C331.979 269.975 323.848 265.547 315.472 265.547Z" fill="#FFA412"/>
<path d="M327.511 291.606C327.458 291.472 327.401 291.342 327.343 291.216C326.902 290.246 326.352 289.462 325.692 288.86C324.946 288.181 324.08 287.672 323.091 287.332C322.104 286.993 321.003 286.786 319.789 286.713C318.574 286.638 317.25 286.621 315.821 286.662C314.938 286.689 314.183 286.673 313.556 286.616C312.929 286.559 312.397 286.442 311.962 286.268C311.525 286.094 311.17 285.853 310.898 285.547C310.625 285.243 310.402 284.873 310.223 284.434C310.044 283.995 309.942 283.559 309.916 283.127C309.89 282.697 309.954 282.287 310.11 281.897C310.265 281.509 310.519 281.152 310.87 280.823C311.219 280.495 311.682 280.213 312.258 279.979C313.32 279.547 314.311 279.558 315.232 280.008C316.153 280.458 316.901 281.394 317.479 282.818L323.027 280.57C322.544 279.384 321.939 278.381 321.213 277.563C320.486 276.746 319.667 276.115 318.753 275.668C317.841 275.223 316.848 274.96 315.775 274.885C314.702 274.81 313.585 274.923 312.428 275.227L310.856 271.365L307.786 272.611L309.333 276.419C308.225 276.993 307.287 277.66 306.514 278.423C305.744 279.186 305.152 280.01 304.737 280.896C304.322 281.784 304.105 282.715 304.083 283.691C304.064 284.668 304.258 285.659 304.668 286.667C305.141 287.831 305.75 288.752 306.496 289.431C307.243 290.11 308.108 290.617 309.093 290.95C310.077 291.282 311.179 291.483 312.397 291.547C313.616 291.613 314.943 291.611 316.373 291.542C317.203 291.496 317.925 291.501 318.537 291.558C319.148 291.613 319.676 291.732 320.122 291.911C320.568 292.089 320.937 292.34 321.232 292.662C321.528 292.984 321.778 293.396 321.979 293.894C322.157 294.335 322.246 294.772 322.243 295.208C322.243 295.645 322.144 296.061 321.948 296.458C321.751 296.855 321.458 297.223 321.067 297.562C320.676 297.899 320.179 298.19 319.577 298.435C319.051 298.647 318.51 298.788 317.95 298.858C317.389 298.927 316.841 298.871 316.307 298.693C315.773 298.517 315.274 298.193 314.808 297.725C314.342 297.258 313.936 296.603 313.596 295.761L308.051 298.01C308.629 299.434 309.357 300.562 310.232 301.395C311.108 302.228 312.066 302.826 313.106 303.185C314.146 303.544 315.234 303.701 316.371 303.655C317.508 303.608 318.63 303.425 319.733 303.099L321.166 306.624L324.217 305.387L322.778 301.847C323.886 301.274 324.835 300.611 325.626 299.863C326.359 299.171 326.93 298.424 327.343 297.624C327.376 297.56 327.409 297.494 327.44 297.428C327.858 296.555 328.083 295.627 328.109 294.648C328.133 293.663 327.935 292.651 327.511 291.606Z" fill="#FFA412"/>
<g opacity="0.7">
<path d="M509.842 286.118C509.842 286.118 515.075 280.023 510.165 276.153C510.165 276.153 506.58 273.986 503.654 274.16C503.654 274.16 507.798 281.097 506.458 281.787C505.118 282.477 502.4 273.724 502.4 273.724C502.4 273.724 494.241 272.935 491.616 274.193C491.616 274.193 498.592 279.893 497.122 280.233C495.654 280.572 488.117 274.978 488.117 274.978C488.117 274.978 480.523 276.267 480.927 280.894C481.331 285.521 483.949 286.949 485.099 286.826C486.249 286.702 492.978 284.139 493.124 285.08C493.27 286.021 489.221 289.096 486.384 289.239C486.384 289.239 491.738 295.135 495.298 293.434C498.857 291.732 499.162 289.034 501.378 288.022C503.597 287.011 505.491 287.013 504.575 288.044C503.659 289.076 499.645 290.079 498.376 292.318C497.107 294.558 495.97 296.07 499.652 295.517C503.334 294.963 509.319 292.274 509.582 289.193C509.842 286.118 509.842 286.118 509.842 286.118Z" fill="#77A4E5"/>
<path d="M484.658 281.022C484.658 281.022 505.286 280.229 509.842 286.118C509.842 286.118 510.849 289.131 513.951 291.873L514.434 293.189C514.434 293.189 510.86 289.427 509.58 289.197C509.58 289.197 511.58 281.902 484.658 281.022Z" fill="#77A4E5"/>
<path d="M513.951 291.873C513.951 291.873 518.379 295.142 518.686 300.983L517.883 301.056C517.883 301.056 516.468 295.017 513.913 292.654C511.357 290.293 513.951 291.873 513.951 291.873Z" fill="#77A4E5"/>
<path d="M525.976 281.133C525.976 281.133 518.64 277.031 522.064 271.463C522.064 271.463 524.804 268.044 527.737 267.165C527.737 267.165 526.172 275.466 527.737 275.662C529.303 275.858 528.813 266.285 528.813 266.285C528.813 266.285 536.539 262.573 539.573 262.866C539.573 262.866 534.78 270.973 536.345 270.777C537.91 270.581 543.29 262.377 543.29 262.377C543.29 262.377 551.214 260.911 552.485 265.6C553.757 270.288 551.704 272.631 550.529 272.924C549.355 273.217 541.822 273.12 542.019 274.097C542.215 275.073 547.302 276.636 550.138 275.757C550.138 275.757 547.008 283.471 542.9 283.081C538.791 282.691 537.52 280.152 534.976 279.956C532.433 279.759 530.574 280.445 531.846 281.128C533.118 281.812 537.422 281.353 539.476 283.097C541.531 284.84 543.193 285.914 539.378 286.696C535.564 287.476 528.715 286.989 527.347 284.06C525.976 281.133 525.976 281.133 525.976 281.133Z" fill="#77A4E5"/>
<path d="M548.865 267.067C548.865 267.067 528.323 273.709 525.974 281.132C525.974 281.132 526.071 284.454 524.018 288.263V289.729C524.018 289.729 526.17 284.747 527.345 284.064C527.345 284.062 522.748 277.617 548.865 267.067Z" fill="#77A4E5"/>
<path d="M524.02 288.261C524.02 288.261 520.852 293.064 522.658 298.912L523.472 298.694C523.472 298.694 522.682 292.253 524.338 289.015C525.996 285.775 524.02 288.261 524.02 288.261Z" fill="#77A4E5"/>
<path d="M514.893 272.036C514.893 272.036 525.863 265.901 520.744 257.576C520.744 257.576 516.648 252.465 512.26 251.151C512.26 251.151 514.6 263.565 512.26 263.858C509.92 264.149 510.65 249.837 510.65 249.837C510.65 249.837 499.096 244.287 494.561 244.726C494.561 244.726 501.729 256.846 499.389 256.555C497.049 256.265 489.004 243.996 489.004 243.996C489.004 243.996 477.156 241.805 475.255 248.817C473.354 255.826 476.425 259.333 478.18 259.769C479.935 260.208 491.199 260.062 490.907 261.522C490.614 262.983 483.008 265.319 478.765 264.003C478.765 264.003 483.446 275.54 489.589 274.956C495.733 274.372 497.634 270.574 501.438 270.283C505.242 269.99 508.021 271.013 506.118 272.036C504.217 273.058 497.78 272.371 494.709 274.978C491.638 277.586 489.15 279.193 494.855 280.361C500.559 281.529 510.798 280.8 512.847 276.418C514.893 272.036 514.893 272.036 514.893 272.036Z" fill="#9FC1F4"/>
<path d="M480.666 251.005C480.666 251.005 511.383 260.937 514.893 272.035C514.893 272.035 514.748 277.001 517.818 282.697V284.888C517.818 284.888 514.6 277.44 512.845 276.417C512.847 276.417 519.721 266.778 480.666 251.005Z" fill="#9FC1F4"/>
<path d="M517.821 282.696C517.821 282.696 522.558 289.88 519.856 298.622L518.638 298.296C518.638 298.296 519.821 288.665 517.342 283.823C514.865 278.978 517.821 282.696 517.821 282.696Z" fill="#9FC1F4"/>
<path d="M514.628 315.626C504.166 315.626 495.685 307.158 495.685 296.712H533.572C533.572 307.158 525.093 315.626 514.628 315.626Z" fill="#9FC1F4"/>
<path d="M495.256 297.29H534.197V296.71H495.256V297.29Z" fill="#77A4E5"/>
<path d="M522.72 315.626H504.983C504.983 314.788 505.663 314.109 506.502 314.109H521.201C522.04 314.107 522.72 314.788 522.72 315.626Z" fill="#77A4E5"/>
</g>
<path d="M399.165 188.635C374.79 208.451 345.587 223.682 312.367 233.907C285.383 242.21 255.487 247.297 223.507 249.032C214.787 249.506 206.292 249.711 198.114 249.711C181.581 249.711 166.335 248.871 153.05 247.703L158.425 222.308C176.744 223.798 198.624 224.581 222.262 223.3C252.358 221.674 280.389 216.915 305.567 209.167C335.865 199.839 362.365 186.06 384.325 168.204L399.165 188.635Z" fill="#F77D48"/>
<path d="M217.424 137.998C214.036 136.243 211.318 137.346 211.318 137.346C200.946 136.129 197.922 148.206 198.063 152.361C198.202 156.516 198.679 160.979 194.047 166.377C180.669 181.97 208.689 182.657 208.689 182.657C208.925 170.199 223.884 174.744 223.228 176.007C242.399 180.603 225.133 141.99 217.424 137.998Z" fill="#163560"/>
<path d="M177.417 189.936C177.417 189.936 175.594 187.163 174.123 187.11C172.653 187.055 169.931 186.294 170.15 186.839C170.368 187.383 172.055 187.436 172.218 187.762C172.382 188.089 169.715 188.578 168.951 188.633C168.189 188.688 166.392 188.633 166.448 189.014C166.503 189.396 169.686 190.972 171.931 190.754C174.179 190.535 176.954 191.406 176.954 191.406L177.417 189.936Z" fill="#FFB27D"/>
<path d="M203.794 190.832C203.794 190.832 202.803 192.792 201.004 195.045C198.836 197.756 195.496 200.886 191.299 201.503C189.295 201.798 187.334 201.368 185.533 200.568C185.528 200.566 185.526 200.566 185.526 200.566C180.431 198.307 176.598 193.114 176.598 193.114C175.7 190.667 177.17 189.009 177.17 189.009C177.17 189.009 187.46 191.319 188.44 190.83C189.42 190.341 195.136 173.9 196.498 171.832C197.86 169.767 202.499 168.693 202.499 168.693L203.794 190.832Z" fill="#F99746"/>
<path d="M201.006 195.045C198.838 197.756 195.498 200.886 191.301 201.503C189.297 201.798 187.336 201.369 185.535 200.568C185.734 200.595 190.824 201.223 192.851 197.599C194.92 193.903 197.158 188.033 200.231 189.988C201.558 190.835 201.501 192.933 201.006 195.045Z" fill="#ED7D2B"/>
<path d="M242.183 301.728C242.183 301.728 245.322 304.589 244.711 306.622C244.099 308.654 241.265 310.01 240.883 312.494C240.499 314.978 238.969 316.333 237.589 316.333C236.211 316.333 231.017 316.333 231.017 316.333C231.017 316.333 230.001 314.585 232.452 314.059C234.902 313.532 235.827 310.614 235.673 307.902C235.52 305.191 235.902 301.578 235.902 301.578L241.11 300.375L242.183 301.728Z" fill="#36599E"/>
<path d="M215.61 302.942C215.61 302.942 216.74 315.061 215.36 315.74L197.719 315.705C197.719 315.705 197.719 313.672 200.551 313.221C203.384 312.769 208.362 311.113 209.205 307.424C210.048 303.731 215.61 302.942 215.61 302.942Z" fill="#2B478B"/>
<path d="M228.18 215.996C224.551 207.867 222.33 205.535 222.754 203.011C223.069 201.133 221.793 168.002 221.793 168.002C221.363 167.87 220.5 167.749 220.027 167.645C218.537 167.314 217.305 166.272 216.793 164.837C216.175 163.109 215.685 160.558 215.696 157.362L215.23 157.453L207.411 158.998C207.411 158.998 207.589 161.456 207.594 163.77C207.594 163.79 207.594 163.807 207.594 163.827C207.603 165.837 206.282 167.612 204.349 168.17C203.362 168.454 202.501 168.696 202.501 168.696C202.501 168.696 199.629 176.881 199.081 185.287C198.534 193.694 204.302 197.347 199.037 214.147C193.664 231.307 230.185 220.486 228.18 215.996Z" fill="#FFB27D"/>
<path d="M207.41 158.997C207.41 158.997 207.589 161.455 207.594 163.769C211.969 163.646 214.281 159.661 215.23 157.452L207.41 158.997Z" fill="#E8945B"/>
<path d="M205.949 161.189C205.949 161.189 216.3 161.358 216.307 154.92C216.314 148.481 217.656 144.168 211.046 143.787C204.437 143.405 203.15 145.861 202.624 148.01C202.099 150.159 203.256 160.979 205.949 161.189Z" fill="#FFB27D"/>
<path d="M206.331 143.632C206.331 143.632 209.166 151.186 213.515 152.301C217.864 153.419 219.751 152.255 219.751 152.255C219.751 152.255 216.416 149.608 215.722 144.99C215.722 144.988 208.47 140.037 206.331 143.632Z" fill="#163560"/>
<path d="M207.033 144.245C207.033 144.245 204.931 145.03 204.066 146.559C203.22 148.056 202.498 150.037 202.666 152.469C202.666 152.469 200.531 147.335 202.931 144.43C205.477 141.353 207.033 144.245 207.033 144.245Z" fill="#163560"/>
<path d="M208.2 157.195C208.2 157.195 207.485 158.134 206.057 158.065C204.907 158.01 204.463 157.014 204.463 157.014C204.463 157.014 206.576 156.507 208.2 157.195Z" fill="#EBF3FA"/>
<path d="M229.178 182.657C229.178 182.657 229.44 186.358 229.178 190.797C229.003 193.74 226.021 197.683 225.597 198.657C224.535 201.104 223.338 201.501 223.338 201.501L214.075 203.767L210.819 204.562L200.549 201.501C200.549 201.501 195.871 188.465 197.75 181.127C199.628 173.789 202.498 168.693 202.498 168.693C202.498 168.693 210.879 176.886 221.791 167.999L229.178 182.657Z" fill="#F99746"/>
<path d="M201.205 203.483C201.205 203.483 196.118 219.289 195.791 224.669C195.465 230.05 205.514 301.116 205.918 303.595C206.3 305.932 209.205 307.422 209.205 307.422C209.205 307.422 210.543 308.209 212.45 307.671C215.097 306.924 215.934 306.031 215.934 306.031C215.934 306.031 219.892 255.347 217.444 237.242C214.994 219.137 214.965 203.48 214.965 203.48H201.205V203.483Z" fill="#233862"/>
<path d="M222.751 203.011C222.751 203.011 230.509 213.404 231.233 220.428C231.957 227.453 232.368 252.131 233.909 258.98C235.45 265.828 241.11 279.009 241.11 300.37C241.11 300.37 240.52 301.594 238.704 302.246C238.123 302.455 237.344 302.656 236.589 302.83C235.09 303.174 233.553 302.442 232.869 301.067C229.041 293.372 216.85 268.557 216.225 263.406C215.784 259.76 211.934 235.633 203.536 221.478C201.52 218.079 204.772 204.562 204.772 204.562L222.751 203.011Z" fill="#2B478B"/>
<path d="M207.971 157.368C207.971 157.368 207.792 158.127 205.903 158.01C205.903 158.01 204.315 157.911 204.364 157.077C204.362 157.077 205.9 156.485 207.971 157.368Z" fill="white"/>
<path d="M200.392 201.043C200.392 201.043 202.435 202.656 206.49 202.738C211.336 202.835 223.339 201.506 223.339 201.506C223.339 201.506 223.873 202.994 223.851 204.565C223.851 204.565 209.188 208.257 200.693 205.105C200.695 205.101 199.598 203.044 200.392 201.043Z" fill="#233862"/>
<path d="M205.329 206.906C204.11 206.906 203.119 205.786 203.119 204.408C203.119 203.031 204.11 201.911 205.329 201.911C206.547 201.911 207.538 203.031 207.538 204.408C207.538 205.784 206.547 206.906 205.329 206.906ZM205.329 202.641C204.514 202.641 203.849 203.432 203.849 204.406C203.849 205.381 204.512 206.174 205.329 206.174C206.143 206.174 206.808 205.381 206.808 204.406C206.805 203.432 206.143 202.641 205.329 202.641Z" fill="white"/>
<path d="M221.229 183.378L206.208 196.438L224.112 216.968L239.134 203.909L221.229 183.378Z" fill="#B5453C"/>
<path d="M219.952 203.95C219.952 203.95 214.448 204.592 214.466 205.896C214.484 207.201 215.837 209.882 216.517 210.001C217.197 210.12 220.996 206.377 220.996 206.377L219.952 203.95Z" fill="#FFB27D"/>
<path d="M221.791 168.002C221.791 168.002 229.14 168.516 231.955 175.353C234.772 182.19 240.117 193.668 240.117 195.599C240.117 197.529 237.132 203.483 221.098 206.904C221.098 206.904 219.44 205.163 219.539 203.785C219.539 203.785 229.547 195.202 229.52 194.199C229.469 192.301 227.88 189.797 219.093 181.02C216.707 178.635 221.791 168.002 221.791 168.002Z" fill="#F99746"/>
<path d="M62.8406 316.316H62.7678C62.3395 316.316 61.9951 315.966 62.0061 315.538L63.1607 265.533L66.5649 265.137L63.6619 315.542C63.6376 315.977 63.2777 316.316 62.8406 316.316Z" fill="#95C0F4"/>
<path d="M117.575 316.316H117.648C118.076 316.316 118.42 315.966 118.409 315.538L117.255 265.533L113.851 265.137L116.754 315.542C116.778 315.977 117.14 316.316 117.575 316.316Z" fill="#B0D4FF"/>
<path d="M60.5867 262.432V228.165C60.5867 222.137 65.481 217.248 71.5211 217.248H96.2467C102.285 217.248 107.181 222.135 107.181 228.165V263.741L60.5867 262.432Z" fill="#B0D4FF"/>
<path d="M111.612 267.841H63.8694C62.057 267.841 60.5867 266.373 60.5867 264.563V262.432H111.612V267.841Z" fill="#95C0F4"/>
<path d="M117.332 267.841H81.2126C79.8725 267.841 78.7842 266.757 78.7842 265.416V264.854C78.7842 263.516 79.8703 262.43 81.2126 262.43H117.332C118.672 262.43 119.76 263.514 119.76 264.854V265.416C119.76 266.757 118.672 267.841 117.332 267.841Z" fill="#B0D4FF"/>
<path d="M115.93 253.893C112.387 260.049 107.932 262.425 107.932 262.425H89.3965C89.3965 262.425 118.632 249.198 115.93 253.893Z" fill="#233862"/>
<path d="M101.695 301.519C101.212 302.072 101.15 302.689 101.391 303.348C101.391 303.35 101.393 303.355 101.395 303.357C101.837 304.576 103.298 305.938 104.994 307.298C105.21 307.472 105.404 307.631 105.572 307.778C105.616 307.816 105.66 307.856 105.702 307.895C105.735 307.926 105.769 307.957 105.802 307.986C107.385 309.443 106.788 309.775 109.63 312.729C112.871 316.095 115.102 316.157 115.736 315.85C116.272 315.588 115.182 313.803 113.972 311.797C113.913 311.7 113.855 311.603 113.796 311.504C113.634 311.237 113.475 310.966 113.314 310.697C111.897 308.281 112.261 307.148 112.597 303.553C112.871 300.632 117.149 287.233 117.149 287.233L110.939 286.164C110.939 286.164 109.069 296.832 107.007 298.477C105.905 299.352 104.671 299.363 103.612 300.013C103.537 300.059 103.464 300.106 103.391 300.152C102.793 300.553 102.179 300.965 101.695 301.519Z" fill="#FFB27D"/>
<path d="M101.695 301.519C101.212 302.072 101.15 302.689 101.391 303.348C101.391 303.35 101.393 303.355 101.395 303.357C101.936 304.576 103.36 305.931 105 307.287C105.214 307.466 105.404 307.629 105.572 307.781C105.616 307.818 105.66 307.858 105.702 307.898C105.735 307.928 105.769 307.959 105.802 307.988C107.385 309.445 106.788 309.778 109.63 312.731C112.871 316.097 115.102 316.159 115.736 315.853C116.272 315.59 115.182 313.805 113.972 311.799C113.341 311.568 110.411 310.38 108.195 307.549C106.243 305.063 104.943 301.869 103.614 300.018C103.539 300.064 103.466 300.11 103.393 300.156C102.793 300.553 102.179 300.965 101.695 301.519Z" fill="#233862"/>
<path d="M151.771 297.646C152.155 299.559 154.886 299.242 157.939 298.497C160.992 297.752 160.266 298.638 164.611 298.157C168.955 297.677 170.271 296.059 170.404 295.415C170.523 294.842 168.375 294.642 166.072 294.377C165.783 294.344 165.492 294.309 165.2 294.274C162.6 293.947 160.697 292.272 158.335 290.897C156.098 289.594 152.76 284.284 152.76 284.284L146.802 284.756C146.802 284.756 149.928 289.497 151.138 291.56C151.848 292.773 151.811 294.377 151.723 295.614C151.681 296.284 151.637 296.972 151.771 297.646Z" fill="#FFB27D"/>
<path d="M157.942 298.497C160.995 297.752 160.269 298.638 164.613 298.157C168.958 297.677 170.274 296.059 170.406 295.415C170.525 294.842 168.377 294.641 166.075 294.377L166.053 294.421C166.053 294.421 163.448 296.266 159.829 296.352C156.882 296.422 153.758 295.58 151.723 295.614C151.676 296.286 151.632 296.973 151.769 297.648C152.155 299.561 154.889 299.242 157.942 298.497Z" fill="#233862"/>
<path d="M128.938 259.604L123.368 274.57L116.096 294.11C116.096 294.11 114.122 294.3 112.232 293.758C110.493 293.255 108.495 291.941 108.495 291.941C108.495 291.941 110.515 270.96 114.281 258.916C115.246 255.823 116.328 253.324 117.522 251.915C123.361 245.027 128.938 259.604 128.938 259.604Z" fill="#233862"/>
<path d="M123.273 235.836C119.624 234.661 109.215 236.168 98.7591 238.214L96.5692 234.608L73.985 232.847C73.985 232.847 66.532 249.347 70.6117 259.861C71.2122 261.406 72.4021 262.398 74.4331 262.429C74.4331 262.431 74.762 262.429 74.7643 262.429C74.7643 262.429 88.2044 262.42 92.5711 262.42C103.801 262.42 116.341 254.712 117.961 254.388C120.617 253.857 121.679 259.16 124.332 264.726C126.986 270.292 149.288 289.378 149.288 289.378C149.288 289.378 152.716 289.411 154.131 288.882C155.655 288.311 156.211 287.57 156.211 287.57C156.211 287.57 131.503 238.487 123.273 235.836Z" fill="#2B478B"/>
<path d="M95.6818 168.952C92.7875 167.435 88.3877 167.23 87.6724 167.133C79.1156 165.985 73.9652 178.401 73.6605 182.164C73.102 189.098 69.4284 190.156 64.2559 194.498C53.8866 203.205 56.9266 213.325 62.598 217.085C66 219.342 71.9959 217.085 71.9959 217.085C72.0798 217.144 88.3943 207.979 96.4368 203.558C108.495 201.845 103.055 172.818 95.6818 168.952Z" fill="#B5453C"/>
<path d="M89.6968 199.793C89.7321 199.815 85.7407 201.177 83.0717 199.995C80.5594 198.887 78.6586 194.763 78.6961 194.76C79.8375 194.708 81.0936 193.711 82.0583 187.167L82.544 187.341L90.7233 190.279C90.7233 190.279 90.1317 192.9 89.7476 195.395C89.4253 197.489 89.2508 199.497 89.6968 199.793Z" fill="#FFB27D"/>
<path d="M90.7233 190.282C90.7233 190.282 90.1316 192.903 89.7475 195.398C85.0496 194.554 83.2062 189.881 82.5439 187.344L90.7233 190.282Z" fill="#ED975D"/>
<path d="M91.9397 192.88C91.9397 192.88 80.7491 191.382 81.7912 184.436C82.8332 177.493 82.0914 172.622 89.2795 173.287C96.4676 173.951 97.4566 176.807 97.6729 179.21C97.8915 181.613 94.8781 193.092 91.9397 192.88Z" fill="#FFB27D"/>
<path d="M97.2669 175.406C97.2669 175.406 90.1031 181.568 85.2308 182.067C80.3585 182.563 78.5129 181.002 78.5129 181.002C78.5129 181.002 81.3851 178.621 83.1137 174.78C83.6236 173.647 84.6988 172.868 85.9372 172.763C89.4187 172.461 96.0129 172.324 97.2669 175.406Z" fill="#B5453C"/>
<path d="M92.7896 174.852C92.7896 174.852 95.187 177.167 95.9399 178.881C96.6684 180.537 96.8869 184.498 96.3063 186.072C96.3063 186.072 100.039 178.822 97.9267 175.3C95.686 171.566 92.7896 174.852 92.7896 174.852Z" fill="#B5453C"/>
<path d="M99.121 216.252C98.7832 238.869 99.0282 234.144 96.5491 236.288C95.9508 236.804 94.273 237.113 92.0653 237.258C85.1201 237.719 72.9096 236.575 72.4438 235.294C70.8411 230.859 71.9736 229.482 70.6357 222.693C70.4967 221.97 70.3245 221.19 70.1214 220.339C69.0065 215.675 67.9225 214.09 71.8764 206.598C75.4617 199.811 79.1882 194.305 79.5215 194.503C88.9813 200.111 89.7451 195.398 89.7451 195.398C89.7451 195.398 99.2865 205.22 99.121 216.252Z" fill="#8C9DF4"/>
<path d="M123.366 274.57L116.094 294.11C116.094 294.11 114.12 294.3 112.23 293.758C110.491 293.255 108.493 291.942 108.493 291.942C108.493 291.942 110.513 270.96 114.279 258.916L123.366 274.57Z" fill="#2B478B"/>
<path d="M89.7476 195.396C89.7476 195.396 99.4811 197.044 100.625 201.228C101.768 205.414 108.495 230.012 108.495 230.012C108.495 230.012 103.545 230.901 101.26 228.617C98.9733 226.334 93.3063 207.441 93.3063 207.441L89.7476 195.396Z" fill="#8C9DF4"/>
<path d="M92.0656 237.26C85.1203 237.721 72.9099 236.577 72.444 235.296C70.8413 230.861 71.9738 229.484 70.636 222.695L73.9872 213.276C73.9872 213.276 73.4331 223.766 76.5304 226.524C79.6255 229.283 89.2155 231.849 90.7211 234.155C91.4474 235.259 91.9265 236.37 92.0656 237.26Z" fill="#6980E2"/>
<path d="M84.1072 232.848C84.1072 232.848 90.9597 231.324 92.0657 231.931C93.1718 232.537 95.8739 234.75 96.2117 235.519C96.5495 236.288 93.7502 234.935 92.8384 234.69C92.249 234.532 90.6948 235.072 89.9265 235.327C86.6923 236.403 84.7099 235.85 84.7099 235.85L84.1072 232.848Z" fill="#FFB27D"/>
<path d="M79.5173 194.498C79.5173 194.498 70.3159 195.065 67.1302 199.499C62.6465 205.744 53.7519 232.353 58.8494 235.904C64.5892 239.9 84.9768 236.949 84.9768 236.949C84.9768 236.949 85.6546 233.784 84.7119 232.252C83.767 230.72 68.4283 228.247 67.7197 227.539C67.011 226.831 76.5701 213.754 76.5701 211.633C76.5701 209.513 79.5173 194.498 79.5173 194.498Z" fill="#8C9DF4"/>
<path d="M92.3967 233.837C92.3967 233.837 93.8317 235.686 94.3041 235.907C94.7744 236.127 95.079 236.072 95.079 236.072L94.1121 234.333L92.3967 233.837Z" fill="#FFB27D"/>
<path d="M92.0654 231.933L96.2401 233.956C96.2401 233.956 96.0635 234.247 95.5491 234.223C95.0347 234.199 93.7388 233.727 93.7388 233.727L92.0654 231.933Z" fill="#FFB27D"/>
<path d="M92.7939 238.739H128.012L138.607 214.076H103.441L92.7939 238.739Z" fill="#F77D48"/>
<path d="M128.425 237.141H81.917V238.699H128.013L128.425 237.141Z" fill="#F77D48"/>
<path d="M119.122 226.406C119.387 225.54 118.853 224.837 117.926 224.837C116.999 224.837 116.034 225.54 115.769 226.406C115.504 227.273 116.038 227.976 116.966 227.976C117.891 227.978 118.855 227.275 119.122 226.406Z" fill="#EBF3FA"/>
<path d="M180.089 317.004H180.186C180.751 317.004 181.206 316.491 181.193 315.869L179.665 242.908L175.164 242.328L179.003 315.873C179.034 316.508 179.511 317.004 180.089 317.004Z" fill="#233862"/>
<path d="M85.1998 317.004H85.1049C84.5397 317.004 84.0849 316.491 84.0982 315.869L85.6259 242.908L90.1273 242.328L86.2882 315.873C86.255 316.508 85.7782 317.004 85.1998 317.004Z" fill="#233862"/>
<path d="M181.862 243.961H79.3188C78.4136 243.961 77.6785 243.227 77.6785 242.323V240.377C77.6785 239.473 78.4136 238.739 79.3188 238.739H181.859C182.765 238.739 183.5 239.473 183.5 240.377V242.323C183.5 243.227 182.767 243.961 181.862 243.961Z" fill="#233862"/>
<path d="M556.709 318H0.870222C0.428694 318 0.0688477 317.641 0.0688477 317.2V316.426C0.0688477 315.985 0.428694 315.626 0.870222 315.626H556.709C557.15 315.626 557.51 315.985 557.51 316.426V317.2C557.51 317.638 557.15 318 556.709 318Z" fill="#2E3552"/>
<path d="M329.894 186.685C353.203 185.136 370.815 165.4 369.231 142.605C367.647 119.809 347.467 102.585 324.158 104.135C300.849 105.684 283.238 125.419 284.822 148.215C286.406 171.01 306.585 188.234 329.894 186.685Z" fill="#FFB93E"/>
<path d="M339.299 181.653C329.528 184.816 319.078 184.072 309.88 179.55C300.681 175.031 293.833 167.276 290.596 157.72C287.361 148.164 288.122 137.945 292.746 128.949C297.367 119.953 305.296 113.256 315.068 110.09C324.839 106.926 335.288 107.67 344.487 112.192C353.685 116.711 360.533 124.466 363.768 134.022C367.002 143.579 366.241 153.798 361.617 162.793C357 171.792 349.07 178.49 339.299 181.653ZM315.791 112.226C296.822 118.368 286.499 138.46 292.78 157.015C299.061 175.567 319.605 185.663 338.578 179.52C357.548 173.377 367.871 153.285 361.59 134.733C355.305 116.178 334.761 106.083 315.791 112.226Z" fill="#FFA412"/>
<path d="M335.737 154.627C335.571 153.825 335.306 153.142 334.949 152.578C334.588 152.012 334.096 151.536 333.467 151.144C332.839 150.753 332.065 150.43 331.147 150.177C330.229 149.924 329.13 149.716 327.848 149.554C325.639 149.258 323.616 148.894 321.773 148.457C319.928 148.02 318.305 147.414 316.894 146.643C315.483 145.872 314.306 144.872 313.361 143.649C312.415 142.425 311.746 140.877 311.355 139.006C311.016 137.382 311.001 135.846 311.309 134.391C311.617 132.936 312.215 131.604 313.102 130.393C313.986 129.182 315.126 128.112 316.521 127.187C317.917 126.262 319.54 125.524 321.398 124.976L320.116 118.845L325.162 117.836L326.462 124.051C328.316 123.919 330.054 124.06 331.674 124.47C333.292 124.883 334.736 125.548 335.999 126.47C337.265 127.392 338.337 128.564 339.215 129.989C340.093 131.414 340.731 133.083 341.131 134.993L332.019 136.816C331.542 134.523 330.661 132.914 329.382 131.987C328.104 131.059 326.594 130.769 324.848 131.119C323.902 131.309 323.113 131.601 322.485 131.996C321.857 132.39 321.367 132.854 321.019 133.393C320.671 133.93 320.455 134.526 320.375 135.18C320.292 135.834 320.326 136.512 320.473 137.22C320.621 137.925 320.859 138.545 321.191 139.075C321.521 139.606 321.995 140.064 322.611 140.446C323.227 140.829 324.007 141.151 324.946 141.41C325.886 141.669 327.035 141.901 328.393 142.109C330.587 142.447 332.601 142.838 334.437 143.287C336.273 143.736 337.897 144.351 339.308 145.134C340.719 145.917 341.899 146.92 342.844 148.141C343.79 149.364 344.455 150.903 344.843 152.756C345.195 154.437 345.21 156.004 344.89 157.462C344.569 158.92 343.966 160.243 343.075 161.436C342.185 162.629 341.03 163.674 339.61 164.575C338.19 165.476 336.551 166.202 334.693 166.75L335.885 172.45L330.873 173.453L329.687 167.783C327.907 167.961 326.142 167.925 324.395 167.678C322.645 167.431 321.028 166.895 319.543 166.066C318.055 165.241 316.765 164.081 315.665 162.589C314.565 161.098 313.776 159.206 313.296 156.917L322.408 155.094C322.691 156.45 323.123 157.543 323.702 158.372C324.281 159.2 324.953 159.824 325.717 160.236C326.48 160.652 327.303 160.884 328.178 160.938C329.053 160.993 329.921 160.932 330.784 160.761C331.773 160.562 332.614 160.267 333.307 159.869C334 159.471 334.555 159.004 334.967 158.462C335.38 157.923 335.648 157.326 335.777 156.672C335.895 156.013 335.885 155.335 335.737 154.627Z" fill="#FFA412"/>
</g>
<defs>
<clipPath id="clip0_1715_3595">
<rect width="564" height="318" fill="white"/>
</clipPath>
</defs>
</svg>
