<svg width="137" height="161" viewBox="0 0 137 161" fill="none" xmlns="http://www.w3.org/2000/svg">
<g clip-path="url(#clip0_1729_3085)">
<g opacity="0.3">
<path d="M81.7816 33.3112L20.3703 61.0077C17.4476 62.3258 14.0198 61.0357 12.7125 58.1254L4.26059 39.3091C2.95335 36.3988 4.26252 32.9723 7.18527 31.6542L68.5966 3.95778C71.5193 2.63962 74.947 3.92977 76.2543 6.84003L84.7062 25.6564C86.0135 28.5666 84.7044 31.9931 81.7816 33.3112Z" stroke="#E9E9E9" stroke-width="4" stroke-miterlimit="10" stroke-linecap="round"/>
<path d="M82.4347 44.1202L78.3507 35.0248L24.0184 59.5376L28.1024 68.633C30.1932 73.2896 28.0926 78.7897 23.4178 80.8988L23.2664 80.9671C19.281 82.7651 17.4796 87.4455 19.2696 91.432L47.2558 153.76C49.0383 157.729 53.7186 159.506 57.7208 157.7L129.323 125.396C133.308 123.598 135.11 118.917 133.32 114.931L105.334 52.603C103.551 48.6332 98.8709 46.8571 94.8687 48.6627L94.7174 48.731C90.0257 50.8477 84.5331 48.7935 82.4347 44.1202Z" stroke="#E9E9E9" stroke-width="4" stroke-miterlimit="10" stroke-linecap="round"/>
<path d="M109.006 60.929L51.1316 87.0396L72.3029 134.189L130.178 108.078L109.006 60.929Z" stroke="#E9E9E9" stroke-width="4" stroke-miterlimit="10" stroke-linecap="round"/>
</g>
</g>
<defs>
<clipPath id="clip0_1729_3085">
<rect width="137" height="161" fill="white"/>
</clipPath>
</defs>
</svg>
