<svg width="163" height="36" viewBox="0 0 163 36" fill="none" xmlns="http://www.w3.org/2000/svg">
<g clip-path="url(#clip0_1715_3134)">
<path d="M49.8719 0H17.7379C7.9591 0 0 7.80723 0 17.3994C0 26.9917 7.9591 34.7989 17.7379 34.7989H49.8719C59.6507 34.7989 67.6098 26.9917 67.6098 17.3994C67.6098 7.80723 59.6592 0 49.8719 0ZM3.35031 17.3994C3.35031 9.61724 9.80432 3.28638 17.7379 3.28638H39.5149C35.7819 5.93049 33.1459 9.95088 32.3721 14.5885C32.3721 14.6052 32.3721 14.6219 32.3721 14.6386C32.2276 15.531 32.1425 16.4402 32.1425 17.3744C32.1425 17.4328 32.1425 17.4829 32.1425 17.5329C32.0745 25.2484 25.6205 31.5292 17.7549 31.5292C9.88935 31.5292 3.35031 25.19 3.35031 17.3994ZM49.8804 31.5209H28.1034C32.5592 28.3679 35.4758 23.2298 35.4843 17.4411C35.4843 17.3911 35.4843 17.3327 35.4843 17.2827C35.5523 9.56719 42.0064 3.28638 49.8719 3.28638C57.7375 3.28638 64.268 9.61724 64.268 17.4078C64.268 25.1983 57.814 31.5292 49.8719 31.5292L49.8804 31.5209Z" fill="white"/>
<path d="M49.8719 0H17.7379C7.9591 0 0 7.80723 0 17.3994C0 26.9917 7.9591 34.7989 17.7379 34.7989H49.8719C59.6507 34.7989 67.6098 26.9917 67.6098 17.3994C67.6098 7.80723 59.6592 0 49.8719 0Z" fill="white"/>
<path d="M51.7002 3.39457C43.0354 2.33525 35.5609 8.97473 35.4844 17.2824C35.4844 17.3325 35.4844 17.3909 35.4844 17.4409C35.4759 22.6124 33.146 27.2667 29.4726 30.4446C29.0389 30.82 29.3025 31.5206 29.8892 31.5206H49.8805C58.3243 31.5206 65.0844 24.3556 64.1916 15.9062C63.5113 9.44183 58.2818 4.20365 51.7002 3.39457Z" fill="#D92819"/>
<path d="M3.42693 18.9006C4.10719 25.3649 9.33673 30.6031 15.9183 31.4122C24.5832 32.4715 32.0576 25.832 32.1341 17.5243C32.1341 17.4743 32.1341 17.4159 32.1341 17.3658C32.1341 16.4316 32.2191 15.5225 32.3637 14.63C32.3637 14.6133 32.3637 14.5966 32.3637 14.5883C33.0355 10.5429 35.1358 6.96454 38.1289 4.36213C38.5626 3.98678 38.299 3.28613 37.7123 3.28613H17.721C9.30271 3.28613 2.53408 10.4428 3.42693 18.9006Z" fill="#00A5D8"/>
<path d="M19.6257 15.5559V12.4864C19.6257 12.1444 19.3366 11.8608 18.988 11.8608H16.4965C16.1479 11.8608 15.8588 12.1444 15.8588 12.4864V15.5559H12.7295C12.3809 15.5559 12.0918 15.8395 12.0918 16.1815V18.6254C12.0918 18.9674 12.3809 19.251 12.7295 19.251H15.8588V22.3205C15.8588 22.6625 16.1479 22.9461 16.4965 22.9461H18.988C19.3366 22.9461 19.6257 22.6625 19.6257 22.3205V19.251H22.7549C23.1036 19.251 23.3927 18.9674 23.3927 18.6254V16.1815C23.3927 15.8395 23.1121 15.5559 22.7549 15.5559H19.6257Z" fill="white"/>
<path d="M102.329 5.17952H99.7353V10.9015H97.533V5.17952H94.9395V3.39453H102.32V5.17952H102.329Z" fill="#00A5D8"/>
<path d="M110.994 7.7652H105.203C105.305 8.2323 105.552 8.59931 105.943 8.86622C106.334 9.13313 106.819 9.27493 107.397 9.27493C107.796 9.27493 108.145 9.21654 108.46 9.09977C108.766 8.98299 109.055 8.79949 109.319 8.54926L110.501 9.80876C109.778 10.6178 108.723 11.0266 107.346 11.0266C106.478 11.0266 105.722 10.8597 105.058 10.5344C104.395 10.2008 103.885 9.74203 103.519 9.15816C103.162 8.57428 102.975 7.907 102.975 7.16464C102.975 6.42229 103.154 5.76335 103.511 5.17947C103.868 4.58726 104.353 4.1285 104.973 3.79486C105.594 3.46121 106.291 3.30273 107.057 3.30273C107.822 3.30273 108.485 3.46121 109.089 3.77817C109.693 4.09513 110.169 4.54555 110.518 5.13777C110.866 5.72998 111.036 6.41395 111.036 7.19801C111.036 7.22303 111.019 7.42322 110.994 7.78188V7.7652ZM105.798 5.35463C105.458 5.62989 105.245 6.01358 105.169 6.49736H108.936C108.859 6.02192 108.655 5.64657 108.307 5.36298C107.967 5.07938 107.55 4.93758 107.057 4.93758C106.563 4.93758 106.13 5.07938 105.79 5.35463H105.798Z" fill="#00A5D8"/>
<path d="M84.9565 3.39457V10.9015H82.8392V10.034C82.2865 10.6847 81.4957 11.01 80.4498 11.01C79.727 11.01 79.0807 10.8515 78.494 10.5345C77.9073 10.2176 77.4566 9.76713 77.125 9.18326C76.7934 8.59939 76.6233 7.91542 76.6233 7.14804C76.6233 6.38066 76.7934 5.6967 77.125 5.11282C77.4566 4.52895 77.9158 4.07853 78.494 3.76157C79.0807 3.44461 79.727 3.28613 80.4498 3.28613C81.4277 3.28613 82.193 3.58641 82.7372 4.19531V3.40291H84.9565V3.39457ZM82.227 8.66611C82.5926 8.29077 82.7797 7.78196 82.7797 7.14804C82.7797 6.51412 82.5926 6.01366 82.227 5.62997C81.8613 5.25462 81.3936 5.06278 80.8324 5.06278C80.2712 5.06278 79.795 5.25462 79.4209 5.62997C79.0552 6.00532 78.8682 6.51412 78.8682 7.14804C78.8682 7.78196 79.0552 8.28243 79.4209 8.66611C79.7865 9.04146 80.2627 9.23331 80.8324 9.23331C81.4022 9.23331 81.8528 9.04146 82.227 8.66611Z" fill="#00A5D8"/>
<path d="M93.7574 3.39453V10.9015H91.5381V5.17952H88.3493V10.9015H86.147V3.39453H93.7574Z" fill="#00A5D8"/>
<path d="M115.602 8.05718H114.446V10.9015H112.227V3.39453H114.446V6.3139H115.645L117.72 3.39453H120.084L117.405 6.99787L120.262 10.9015H117.643L115.594 8.05718H115.602Z" fill="#00A5D8"/>
<path d="M128.459 3.39457V10.9015H126.342V10.034C125.789 10.6847 124.999 11.01 123.953 11.01C123.23 11.01 122.584 10.8515 121.997 10.5345C121.41 10.2176 120.96 9.76713 120.628 9.18326C120.296 8.59939 120.126 7.91542 120.126 7.14804C120.126 6.38066 120.288 5.6967 120.628 5.11282C120.96 4.52895 121.419 4.07853 121.997 3.76157C122.584 3.44461 123.23 3.28613 123.953 3.28613C124.931 3.28613 125.696 3.58641 126.24 4.19531V3.40291H128.459V3.39457ZM125.73 8.66611C126.096 8.29077 126.283 7.78196 126.283 7.14804C126.283 6.51412 126.096 6.01366 125.73 5.62997C125.356 5.25462 124.897 5.06278 124.335 5.06278C123.774 5.06278 123.298 5.25462 122.924 5.62997C122.55 6.00532 122.371 6.51412 122.371 7.14804C122.371 7.78196 122.558 8.28243 122.924 8.66611C123.289 9.04146 123.766 9.23331 124.335 9.23331C124.905 9.23331 125.356 9.04146 125.73 8.66611Z" fill="#00A5D8"/>
<path d="M92.7116 15.8563C94.3017 16.582 95.5262 17.5913 96.385 18.8675C97.2353 20.152 97.6605 21.6033 97.6605 23.2298C97.6605 24.8563 97.2353 26.3077 96.385 27.5922C95.5347 28.8767 94.3102 29.8777 92.7116 30.6033C91.1129 31.329 89.2592 31.696 87.1419 31.696C85.0246 31.696 83.1453 31.329 81.5552 30.6033C79.9651 29.8777 78.7491 28.8684 77.8988 27.5922C77.0485 26.3077 76.6233 24.8563 76.6233 23.2298C76.6233 21.6033 77.0485 20.152 77.8988 18.8675C78.7491 17.5829 79.9736 16.582 81.5552 15.8563C83.1453 15.1307 84.9991 14.7637 87.1419 14.7637C89.2847 14.7637 91.1214 15.1307 92.7116 15.8563ZM81.6743 26.683C82.5246 27.6089 83.7491 28.1928 85.3477 28.443V18.05C83.7576 18.3003 82.5331 18.8842 81.6743 19.8017C80.8239 20.7192 80.3988 21.8619 80.3988 23.2382C80.3988 24.6145 80.8239 25.7655 81.6743 26.683ZM92.601 26.683C93.4513 25.7572 93.8765 24.6145 93.8765 23.2382C93.8765 21.8619 93.4513 20.7192 92.601 19.8017C91.7507 18.8842 90.5262 18.3003 88.9276 18.05V28.443C90.5177 28.1928 91.7422 27.6089 92.601 26.683Z" fill="#D92819"/>
<path d="M113.179 18.8257V31.4457H109.616V29.9943C108.689 31.087 107.354 31.6375 105.603 31.6375C104.387 31.6375 103.298 31.3706 102.312 30.8368C101.334 30.303 100.56 29.5439 100.007 28.5597C99.4462 27.5754 99.1741 26.4327 99.1741 25.1315C99.1741 23.8303 99.4547 22.6876 100.007 21.7033C100.569 20.7191 101.334 19.9601 102.312 19.4262C103.29 18.8924 104.387 18.6255 105.603 18.6255C107.244 18.6255 108.528 19.1343 109.455 20.1519V18.8173H113.188L113.179 18.8257ZM108.587 27.6839C109.208 27.05 109.523 26.1992 109.523 25.1399C109.523 24.0805 109.208 23.2298 108.587 22.5958C107.966 21.9619 107.184 21.645 106.24 21.645C105.296 21.645 104.497 21.9619 103.876 22.5958C103.256 23.2298 102.941 24.0805 102.941 25.1399C102.941 26.1992 103.256 27.05 103.876 27.6839C104.497 28.3178 105.288 28.6348 106.24 28.6348C107.193 28.6348 107.958 28.3178 108.587 27.6839Z" fill="#D92819"/>
<path d="M125.866 19.4345C126.886 19.9684 127.677 20.7274 128.23 21.7116C128.791 22.6959 129.063 23.8469 129.063 25.1565C129.063 26.466 128.8 27.5671 128.273 28.543C127.745 29.5189 127.006 30.2779 126.045 30.8201C125.092 31.3622 123.987 31.6292 122.745 31.6292C121.104 31.6292 119.82 31.1204 118.893 30.1027V35.9915H115.16V25.1815C115.16 23.8803 115.458 22.7376 116.045 21.7533C116.631 20.7691 117.465 20.0017 118.528 19.4512C119.599 18.9007 120.841 18.6338 122.261 18.6338C123.681 18.6338 124.829 18.9007 125.849 19.4345H125.866ZM124.48 27.6672C125.084 27.0249 125.39 26.1908 125.39 25.1565C125.39 24.1222 125.084 23.2631 124.48 22.6125C123.876 21.9619 123.085 21.6366 122.116 21.6366C121.147 21.6366 120.356 21.9535 119.761 22.5958C119.165 23.2381 118.868 24.0805 118.868 25.1315C118.868 26.1824 119.165 27.0249 119.752 27.6672C120.339 28.3094 121.13 28.6264 122.116 28.6264C123.103 28.6264 123.876 28.3094 124.48 27.6672Z" fill="#D92819"/>
<path d="M143.621 31.4457V23.8887L139.769 30.2196H138.187L134.429 23.8637V31.4374H131.053V18.8174H134.947L139.063 26.1158L143.442 18.8174H146.98V31.4374H143.604L143.621 31.4457Z" fill="#D92819"/>
<path d="M163 18.8257V31.4457H159.437V29.9943C158.51 31.087 157.175 31.6375 155.423 31.6375C154.207 31.6375 153.119 31.3706 152.133 30.8368C151.155 30.303 150.381 29.5439 149.828 28.5597C149.267 27.5754 148.995 26.4327 148.995 25.1315C148.995 23.8303 149.275 22.6876 149.828 21.7033C150.389 20.7191 151.155 19.9601 152.133 19.4262C153.11 18.8924 154.207 18.6255 155.423 18.6255C157.065 18.6255 158.349 19.1343 159.275 20.1519V18.8173H163.008L163 18.8257ZM158.408 27.6839C159.029 27.05 159.343 26.1992 159.343 25.1399C159.343 24.0805 159.029 23.2298 158.408 22.5958C157.787 21.9619 157.005 21.645 156.061 21.645C155.117 21.645 154.318 21.9619 153.697 22.5958C153.076 23.2298 152.762 24.0805 152.762 25.1399C152.762 26.1992 153.076 27.05 153.697 27.6839C154.318 28.3178 155.109 28.6348 156.061 28.6348C157.013 28.6348 157.779 28.3178 158.408 27.6839Z" fill="#D92819"/>
<path d="M55.0592 17.9497L50.3143 22.604C50.0678 22.8459 49.6766 22.8459 49.43 22.604L44.6852 17.9497C43.3671 16.6568 43.1971 14.5382 44.4386 13.1619C45.7141 11.7522 47.8569 11.6355 49.2854 12.8032C49.311 12.8199 49.3705 12.8783 49.4385 12.9534C49.6766 13.1953 50.0763 13.1953 50.3143 12.9534C50.3994 12.87 50.4759 12.7949 50.5099 12.7699C51.9385 11.6355 54.0643 11.7689 55.3228 13.1702C56.5558 14.5382 56.3772 16.6484 55.0592 17.9413V17.9497Z" fill="white"/>
</g>
<defs>
<clipPath id="clip0_1715_3134">
<rect width="163" height="36" fill="white"/>
</clipPath>
</defs>
</svg>
