<svg width="320" height="345" viewBox="0 0 320 345" fill="none" xmlns="http://www.w3.org/2000/svg">
<g opacity="0.3">
<path d="M290.387 79.4779L142.296 13.2438C135.248 10.0915 126.982 13.2485 123.83 20.2965L99.8255 73.9672L273.476 151.633L297.48 97.9622C300.592 90.896 297.435 82.6302 290.387 79.4779Z" stroke="#E9E9E9" stroke-width="4" stroke-miterlimit="10" stroke-linecap="round"/>
<path d="M272.885 151.323L272.521 151.16L100.774 74.3457L100.41 74.1827C90.8099 69.8891 79.5138 74.1698 75.202 83.8103L7.79038 234.534C3.49676 244.134 7.77744 255.43 17.4179 259.742L189.893 336.882C199.493 341.176 210.789 336.895 215.101 327.254L282.513 176.531C286.806 166.931 282.485 155.617 272.885 151.323Z" stroke="#E9E9E9" stroke-width="4" stroke-miterlimit="10" stroke-linecap="round"/>
<path d="M268.149 208.646L136.787 149.895L96.6408 239.656L228.002 298.408L268.149 208.646Z" stroke="#E9E9E9" stroke-width="4" stroke-miterlimit="10" stroke-linecap="round"/>
<path d="M169.151 25.2539L139.458 91.6435" stroke="#E9E9E9" stroke-width="4" stroke-miterlimit="10" stroke-linecap="round"/>
<path d="M216.342 46.3613L186.649 112.751" stroke="#E9E9E9" stroke-width="4" stroke-miterlimit="10" stroke-linecap="round"/>
<path d="M258.833 65.3652L229.14 131.755" stroke="#E9E9E9" stroke-width="4" stroke-miterlimit="10" stroke-linecap="round"/>
</g>
</svg>
