<svg width="318" height="228" viewBox="0 0 318 228" fill="none" xmlns="http://www.w3.org/2000/svg">
<g opacity="0.3">
<path d="M158.753 112.849C195.513 119.338 226.908 115.562 228.876 104.414C230.844 93.2662 202.639 78.9685 165.88 72.4793C129.12 65.99 97.725 69.7666 95.757 80.9145C93.7891 92.0624 121.993 106.36 158.753 112.849Z" stroke="#E9E9E9" stroke-width="4" stroke-miterlimit="10" stroke-linecap="round"/>
<path d="M95.7148 80.9043L90.1895 112.204C88.2199 123.361 116.435 137.651 153.186 144.139C189.936 150.626 221.339 146.861 223.308 135.703L228.834 104.404" stroke="#E9E9E9" stroke-width="4" stroke-miterlimit="10" stroke-linecap="round"/>
<path d="M163.701 26.1185L26.1915 76.4933C14.1272 80.9064 11.6314 95.0444 21.4555 103.321L133.405 197.734C138.871 202.343 146.792 203.741 153.505 201.282L291.015 150.907C303.079 146.494 305.575 132.356 295.751 124.079L183.801 29.6667C178.292 25.0497 170.414 23.659 163.701 26.1185Z" stroke="#E9E9E9" stroke-width="4" stroke-miterlimit="10" stroke-linecap="round"/>
</g>
</svg>
