<svg width="345" height="415" viewBox="0 0 345 415" fill="none" xmlns="http://www.w3.org/2000/svg">
<g opacity="0.3">
<path d="M181.927 144.601L111.504 189.698C106.07 193.178 98.8567 191.566 95.4002 186.168L72.9211 151.065C69.4413 145.631 71.0538 138.418 76.4515 134.961L146.874 89.8638C152.308 86.3841 159.522 87.9967 162.978 93.3944L185.457 128.497C188.973 133.908 187.361 141.121 181.927 144.601Z" stroke="#E9E9E9" stroke-width="4" stroke-miterlimit="10" stroke-linecap="round"/>
<path d="M121.493 106.066L98.1636 121.006C92.7297 124.486 85.5161 122.873 82.0596 117.476L57.5463 63.2429C54.0665 57.8091 55.6791 50.5956 61.0767 47.139L69.9158 41.4786C75.3497 37.9989 82.5631 39.6114 86.0197 45.0091L125.023 89.9624C128.539 95.3731 126.927 102.587 121.493 106.066Z" stroke="#E9E9E9" stroke-width="4" stroke-miterlimit="10" stroke-linecap="round"/>
<path d="M192.518 165.608L179.922 145.937L113.592 188.413L126.189 208.084C132.638 218.155 129.694 231.584 119.623 238.033L119.297 238.242C110.712 243.74 108.174 255.173 113.695 263.795L200.016 398.59C205.514 407.176 216.947 409.713 225.568 404.192L329.102 337.892C337.687 332.394 340.225 320.961 334.703 312.339L248.383 177.543C242.885 168.958 231.452 166.42 222.83 171.941L222.504 172.15C212.361 178.646 198.991 175.715 192.518 165.608Z" stroke="#E9E9E9" stroke-width="4" stroke-miterlimit="10" stroke-linecap="round"/>
<path d="M259.784 195.426L185.774 242.82L251.101 344.832L325.11 297.438L259.784 195.426Z" stroke="#E9E9E9" stroke-width="4" stroke-miterlimit="10" stroke-linecap="round"/>
</g>
</svg>
