<svg width="197" height="251" viewBox="0 0 197 251" fill="none" xmlns="http://www.w3.org/2000/svg">
<g clip-path="url(#clip0_1729_3084)">
<g opacity="0.3">
<path d="M141.443 130.945L99.1367 106.491L58.2479 177.397L100.554 201.852L141.443 130.945Z" stroke="#E9E9E9" stroke-width="4" stroke-miterlimit="10" stroke-linecap="round"/>
<path d="M181.237 50.3134L186.31 41.5163C187.204 39.9661 186.675 38.0066 185.119 37.1073L128.861 4.58824C127.305 3.68899 125.346 4.20973 124.452 5.75989L119.379 14.557C118.485 16.1072 116.525 16.6279 114.969 15.7287L106.783 10.9964C105.227 10.0972 103.267 10.6179 102.373 12.1681L84.5505 43.0744C83.6677 44.6052 84.186 46.5841 85.7417 47.4834L169.594 95.9529C171.15 96.8521 173.109 96.3314 174.003 94.7812L191.826 63.8748C192.72 62.3247 192.191 60.3652 190.635 59.4659L182.429 54.7224C180.892 53.8344 180.355 51.8442 181.237 50.3134Z" stroke="#E9E9E9" stroke-width="4" stroke-miterlimit="10" stroke-linecap="round"/>
<path d="M163.568 92.6914L91.4746 51.0215L3.72139 203.185L75.8149 244.855L163.568 92.6914Z" stroke="#E9E9E9" stroke-width="4" stroke-miterlimit="10" stroke-linecap="round"/>
</g>
</g>
<defs>
<clipPath id="clip0_1729_3084">
<rect width="197" height="251" fill="white"/>
</clipPath>
</defs>
</svg>
