<svg width="336" height="252" viewBox="0 0 336 252" fill="none" xmlns="http://www.w3.org/2000/svg">
<g opacity="0.3">
<path fill-rule="evenodd" clip-rule="evenodd" d="M268.01 47.8042C260.705 37.6376 243.151 35.1457 228.897 42.2515L49.9971 131.432C35.9942 138.412 30.5302 151.993 37.7066 161.98L67.9058 204.007L67.9075 204.01C75.1736 214.165 92.7231 216.663 107.019 209.56L107.023 209.558M107.023 209.558L285.919 120.38C299.922 113.399 305.386 99.8183 298.21 89.8312L268.01 47.8042M227.466 39.0335C243.686 30.9482 263.423 33.7501 271.736 45.3181L301.935 87.3451C310.376 99.0925 303.82 115.387 287.349 123.598L108.45 212.778L108.447 212.78C92.1948 220.856 72.4554 218.059 64.1789 206.491L33.9813 164.466C25.54 152.719 32.0957 136.425 48.5668 128.214L227.466 39.0335Z" fill="#E9E9E9"/>
<path fill-rule="evenodd" clip-rule="evenodd" d="M181.743 85.984C182.825 85.3226 184.112 85.4346 184.617 86.2341L216.359 136.42C216.865 137.22 216.398 138.404 215.316 139.066C214.235 139.727 212.948 139.615 212.442 138.815L180.7 88.6292C180.195 87.8297 180.661 86.6453 181.743 85.984Z" fill="#E9E9E9"/>
<path fill-rule="evenodd" clip-rule="evenodd" d="M120.535 112.793C121.617 112.131 122.904 112.243 123.409 113.043L155.129 163.194C155.635 163.993 155.168 165.178 154.086 165.839C153.005 166.5 151.718 166.388 151.212 165.589L119.492 115.438C118.986 114.638 119.453 113.454 120.535 112.793Z" fill="#E9E9E9"/>
<path fill-rule="evenodd" clip-rule="evenodd" d="M242.557 91.382C243.667 90.7355 244.947 90.8653 245.417 91.6719L245.458 91.7428C245.927 92.5494 245.407 93.7274 244.297 94.3739C243.187 95.0204 241.906 94.8906 241.437 94.084L241.396 94.0131C240.927 93.2065 241.446 92.0285 242.557 91.382Z" fill="#E9E9E9"/>
<path fill-rule="evenodd" clip-rule="evenodd" d="M270.227 100.147C271.352 99.5073 272.629 99.645 273.08 100.455L273.119 100.525C273.57 101.335 273.024 102.51 271.9 103.149C270.775 103.789 269.498 103.651 269.047 102.842L269.008 102.771C268.557 101.962 269.103 100.787 270.227 100.147Z" fill="#E9E9E9"/>
<path fill-rule="evenodd" clip-rule="evenodd" d="M244.582 69.5926C245.769 69.1344 246.907 69.5138 247.125 70.44L247.148 70.5396C247.366 71.4658 246.58 72.588 245.393 73.0462C244.206 73.5044 243.068 73.125 242.85 72.1988L242.827 72.0992C242.609 71.173 243.395 70.0508 244.582 69.5926Z" fill="#E9E9E9"/>
<path fill-rule="evenodd" clip-rule="evenodd" d="M240.099 113.33C241.224 112.69 242.501 112.828 242.952 113.637L242.991 113.708C243.442 114.517 242.896 115.692 241.772 116.332C240.647 116.972 239.37 116.834 238.919 116.025L238.88 115.954C238.429 115.144 238.975 113.969 240.099 113.33Z" fill="#E9E9E9"/>
<path fill-rule="evenodd" clip-rule="evenodd" d="M214.017 83.0137C215.141 82.3737 216.418 82.5109 216.87 83.3201L216.909 83.391C217.361 84.2003 216.815 85.3752 215.691 86.0152C214.566 86.6553 213.289 86.5181 212.838 85.7088L212.798 85.6379C212.347 84.8286 212.892 83.6537 214.017 83.0137Z" fill="#E9E9E9"/>
<path fill-rule="evenodd" clip-rule="evenodd" d="M92.4541 157.073C93.5643 156.427 94.8448 156.557 95.314 157.363L95.3552 157.434C95.8244 158.241 95.3047 159.419 94.1945 160.065C93.0842 160.712 91.8038 160.582 91.3346 159.775L91.2934 159.704C90.8241 158.898 91.3438 157.72 92.4541 157.073Z" fill="#E9E9E9"/>
<path fill-rule="evenodd" clip-rule="evenodd" d="M119.744 166.094C120.759 165.307 122.12 165.211 122.782 165.878L122.859 165.956C123.521 166.624 123.235 167.802 122.22 168.589C121.204 169.375 119.844 169.471 119.182 168.804L119.105 168.726C118.442 168.059 118.728 166.88 119.744 166.094Z" fill="#E9E9E9"/>
<path fill-rule="evenodd" clip-rule="evenodd" d="M94.4792 135.282C95.666 134.824 96.8047 135.203 97.0226 136.129L97.046 136.228C97.2639 137.154 96.4785 138.277 95.2917 138.735C94.1049 139.194 92.9662 138.815 92.7483 137.889L92.7249 137.789C92.507 136.863 93.2924 135.741 94.4792 135.282Z" fill="#E9E9E9"/>
<path fill-rule="evenodd" clip-rule="evenodd" d="M89.9969 179.024C91.1214 178.384 92.3986 178.522 92.8495 179.331L92.889 179.402C93.3399 180.212 92.7938 181.387 91.6693 182.026C90.5448 182.666 89.2676 182.528 88.8167 181.719L88.7773 181.648C88.3263 180.839 88.8724 179.664 89.9969 179.024Z" fill="#E9E9E9"/>
<path fill-rule="evenodd" clip-rule="evenodd" d="M63.9149 148.707C65.0394 148.067 66.3165 148.205 66.7675 149.014L66.8069 149.085C67.2578 149.894 66.7118 151.069 65.5873 151.709C64.4627 152.349 63.1856 152.211 62.7347 151.402L62.6952 151.331C62.2443 150.521 62.7904 149.346 63.9149 148.707Z" fill="#E9E9E9"/>
<path fill-rule="evenodd" clip-rule="evenodd" d="M123.664 70.9319C124.085 71.7656 123.511 72.9369 122.381 73.5481L122.282 73.6018C121.153 74.213 119.896 74.0326 119.475 73.1989C119.054 72.3652 119.628 71.1939 120.758 70.5828L120.857 70.529C121.986 69.9179 123.243 70.0982 123.664 70.9319Z" fill="#E9E9E9"/>
<path fill-rule="evenodd" clip-rule="evenodd" d="M135.763 50.8923C136.416 51.5742 136.123 52.7563 135.108 53.5328L134.999 53.6162C133.985 54.3927 132.633 54.4693 131.98 53.7875C131.327 53.1056 131.62 51.9234 132.634 51.147L132.743 51.0635C133.758 50.2871 135.11 50.2104 135.763 50.8923Z" fill="#E9E9E9"/>
<path fill-rule="evenodd" clip-rule="evenodd" d="M93.464 69.8035C93.8889 70.6275 93.3135 71.7989 92.1789 72.4198L92.0796 72.4741C90.945 73.095 89.6808 72.9303 89.2559 72.1063C88.831 71.2822 89.4064 70.1109 90.541 69.49L90.6403 69.4356C91.7749 68.8147 93.0391 68.9794 93.464 69.8035Z" fill="#E9E9E9"/>
<path fill-rule="evenodd" clip-rule="evenodd" d="M154.61 73.0087C154.803 73.9381 153.989 75.0543 152.792 75.5018L152.653 75.5538C151.456 76.0013 150.329 75.6106 150.136 74.6812C149.943 73.7519 150.757 72.6357 151.954 72.1882L152.093 72.1362C153.29 71.6887 154.417 72.0793 154.61 73.0087Z" fill="#E9E9E9"/>
<path fill-rule="evenodd" clip-rule="evenodd" d="M111.951 91.2927C112.376 92.1167 111.801 93.2881 110.666 93.909L110.567 93.9633C109.432 94.5842 108.168 94.4196 107.743 93.5955C107.318 92.7715 107.894 91.6002 109.028 90.9792L109.128 90.9249C110.262 90.304 111.526 90.4687 111.951 91.2927Z" fill="#E9E9E9"/>
<path fill-rule="evenodd" clip-rule="evenodd" d="M215.766 177.989C216.188 178.822 215.614 179.994 214.485 180.605L214.385 180.659C213.256 181.271 211.999 181.091 211.578 180.257C211.156 179.424 211.73 178.252 212.859 177.641L212.958 177.587C214.088 176.976 215.345 177.156 215.766 177.989Z" fill="#E9E9E9"/>
<path fill-rule="evenodd" clip-rule="evenodd" d="M227.865 157.948C228.519 158.63 228.226 159.812 227.212 160.589L227.103 160.672C226.089 161.449 224.737 161.526 224.083 160.845C223.43 160.163 223.722 158.981 224.737 158.204L224.846 158.121C225.86 157.344 227.212 157.267 227.865 157.948Z" fill="#E9E9E9"/>
<path fill-rule="evenodd" clip-rule="evenodd" d="M185.568 176.859C185.992 177.683 185.417 178.855 184.283 179.475L184.183 179.53C183.049 180.151 181.784 179.986 181.359 179.162C180.935 178.338 181.51 177.167 182.644 176.546L182.744 176.491C183.878 175.87 185.143 176.035 185.568 176.859Z" fill="#E9E9E9"/>
<path fill-rule="evenodd" clip-rule="evenodd" d="M246.56 179.748C246.985 180.571 246.411 181.743 245.277 182.364L245.177 182.419C244.043 183.04 242.779 182.876 242.353 182.053C241.927 181.229 242.501 180.058 243.636 179.436L243.735 179.382C244.869 178.76 246.134 178.924 246.56 179.748Z" fill="#E9E9E9"/>
<path fill-rule="evenodd" clip-rule="evenodd" d="M204.054 198.349C204.479 199.173 203.905 200.344 202.771 200.966L202.672 201.02C201.537 201.642 200.273 201.478 199.847 200.654C199.421 199.831 199.995 198.659 201.13 198.038L201.229 197.983C202.363 197.362 203.628 197.526 204.054 198.349Z" fill="#E9E9E9"/>
<path fill-rule="evenodd" clip-rule="evenodd" d="M130.974 25.4021C147.265 16.8229 166.328 19.2742 173.676 30.8931L189.311 55.6125L71.2298 117.796L55.7006 93.3534C48.2904 81.6374 55.6185 65.0853 72.0456 56.4344L130.974 25.4021ZM169.759 33.2882C163.361 23.1721 146.646 21.0228 132.462 28.4922L73.5343 59.5246C59.487 66.9222 53.2812 80.9387 59.6172 90.9575C59.6174 90.9578 59.6175 90.958 59.6177 90.9583L73.4608 112.747L183.398 54.8521L169.759 33.2882Z" fill="#E9E9E9"/>
<path fill-rule="evenodd" clip-rule="evenodd" d="M264.598 134.028L280.127 158.471C287.537 170.187 280.209 186.739 263.782 195.39L204.854 226.422C188.563 235.001 169.5 232.55 162.151 220.931L146.517 196.212L264.598 134.028ZM262.367 139.077L152.429 196.972L166.068 218.536C172.467 228.652 189.182 230.801 203.366 223.332L262.294 192.3C276.341 184.902 282.546 170.886 276.211 160.868C276.211 160.867 276.21 160.867 276.21 160.866L262.367 139.077Z" fill="#E9E9E9"/>
</g>
</svg>
