<svg width="323" height="209" viewBox="0 0 323 209" fill="none" xmlns="http://www.w3.org/2000/svg">
<g clip-path="url(#clip0_1729_3091)">
<g opacity="0.3">
<path d="M315.858 107.205L297.269 176.099C292.462 193.913 273.167 204.242 254.126 199.195L30.5575 139.936C11.516 134.889 -0.000759423 116.392 4.80607 98.5781L23.3956 29.6845C28.2024 11.8702 47.4972 1.54072 66.5387 6.58788L290.107 65.8471C309.11 70.9149 320.626 89.4113 315.858 107.205Z" stroke="#E9E9E9" stroke-width="4" stroke-miterlimit="10" stroke-linecap="round"/>
<path d="M111.493 134.697L133.492 52.4855" stroke="#E9E9E9" stroke-width="4" stroke-miterlimit="10" stroke-linecap="round"/>
<path d="M187.989 153.904L210.027 71.6717" stroke="#E9E9E9" stroke-width="4" stroke-miterlimit="10" stroke-linecap="round"/>
<path d="M66.3617 79.6135L66.3694 79.4613" stroke="#E9E9E9" stroke-width="4" stroke-miterlimit="10" stroke-linecap="round"/>
<path d="M55.2145 50.1563L55.2454 50.0407" stroke="#E9E9E9" stroke-width="4" stroke-miterlimit="10" stroke-linecap="round"/>
<path d="M40.9821 99.8521L41.013 99.7366" stroke="#E9E9E9" stroke-width="4" stroke-miterlimit="10" stroke-linecap="round"/>
<path d="M92.8905 59.6312L92.9602 59.4945" stroke="#E9E9E9" stroke-width="4" stroke-miterlimit="10" stroke-linecap="round"/>
<path d="M78.6571 109.328L78.6881 109.212" stroke="#E9E9E9" stroke-width="4" stroke-miterlimit="10" stroke-linecap="round"/>
<path d="M253.919 126.6L253.95 126.484" stroke="#E9E9E9" stroke-width="4" stroke-miterlimit="10" stroke-linecap="round"/>
<path d="M242.795 97.1798L242.826 97.0642" stroke="#E9E9E9" stroke-width="4" stroke-miterlimit="10" stroke-linecap="round"/>
<path d="M228.562 146.876L228.593 146.76" stroke="#E9E9E9" stroke-width="4" stroke-miterlimit="10" stroke-linecap="round"/>
<path d="M280.471 106.654L280.517 106.481" stroke="#E9E9E9" stroke-width="4" stroke-miterlimit="10" stroke-linecap="round"/>
<path d="M266.236 156.35L266.267 156.234" stroke="#E9E9E9" stroke-width="4" stroke-miterlimit="10" stroke-linecap="round"/>
</g>
</g>
<defs>
<clipPath id="clip0_1729_3091">
<rect width="323" height="209" fill="white"/>
</clipPath>
</defs>
</svg>
