<svg width="466" height="382" viewBox="0 0 466 382" fill="none" xmlns="http://www.w3.org/2000/svg">
<g opacity="0.3">
<path d="M60.5032 302.911L86.3982 350.862C95.6108 367.921 149.026 357.649 205.731 327.9C262.436 298.151 300.911 260.215 291.699 243.155L282.507 226.134" stroke="#E9E9E9" stroke-width="4" stroke-miterlimit="10" stroke-linecap="round"/>
<path d="M137.611 297.457L189.356 201.65" stroke="#E9E9E9" stroke-width="4" stroke-miterlimit="10" stroke-linecap="round"/>
<path d="M422.996 155.047C425.769 136.128 376.399 113.22 312.723 103.879C249.047 94.5389 195.18 102.303 192.406 121.221C189.632 140.139 239.003 163.048 302.679 172.388C366.354 181.729 420.222 173.965 422.996 155.047Z" stroke="#E9E9E9" stroke-width="4" stroke-miterlimit="10" stroke-linecap="round"/>
<path d="M192.456 121.069L184.673 174.637C181.924 193.707 231.221 216.799 294.842 226.175C358.445 235.609 412.269 227.768 415.057 208.678L422.839 155.11" stroke="#E9E9E9" stroke-width="4" stroke-miterlimit="10" stroke-linecap="round"/>
<path d="M240.302 156.896L375.018 120.143" stroke="#E9E9E9" stroke-width="4" stroke-miterlimit="10" stroke-linecap="round"/>
<path d="M199.302 195.799C183.028 201.082 164.974 208.681 146.585 218.33C89.8707 248.087 51.3894 286.034 60.6035 303.098C69.8176 320.163 123.241 309.888 179.955 280.13C216.926 260.731 246.154 237.85 259.459 219.524C233.833 213.192 212.605 204.701 199.302 195.799Z" stroke="#E9E9E9" stroke-width="4" stroke-miterlimit="10" stroke-linecap="round"/>
</g>
</svg>
