<svg width="254" height="253" viewBox="0 0 254 253" fill="none" xmlns="http://www.w3.org/2000/svg">
<g opacity="0.3">
<path fill-rule="evenodd" clip-rule="evenodd" d="M43.4644 72.2855C44.2475 73.0644 44.2475 74.3274 43.4644 75.1064C33.6435 84.8752 33.6435 100.788 43.4643 110.557C44.2475 111.336 44.2475 112.599 43.4643 113.378C42.6812 114.157 41.4115 114.157 40.6284 113.378C29.2413 102.051 29.2413 83.6122 40.6284 72.2855C41.4115 71.5065 42.6812 71.5065 43.4644 72.2855Z" fill="#E9E9E9"/>
<path fill-rule="evenodd" clip-rule="evenodd" d="M111.781 88.7132C112.564 89.4922 112.564 90.7551 111.781 91.5341L56.6559 146.367C55.8728 147.146 54.6031 147.146 53.82 146.367C53.0369 145.588 53.0369 144.325 53.82 143.546L108.945 88.7132C109.728 87.9342 110.998 87.9342 111.781 88.7132Z" fill="#E9E9E9"/>
<path fill-rule="evenodd" clip-rule="evenodd" d="M197.149 123.994C197.149 103.885 180.779 87.6021 160.563 87.6021L159.79 87.6021C159.79 87.6021 159.79 87.6021 159.79 87.6021C139.574 87.6022 123.204 103.885 123.204 123.994L123.204 194.659C123.204 214.768 139.574 231.051 159.79 231.051L160.563 231.051C180.779 231.051 197.149 214.768 197.149 194.659L197.149 123.994ZM160.563 83.6128C182.994 83.6128 201.159 101.682 201.159 123.994L201.159 194.659C201.159 216.971 182.994 235.041 160.563 235.041L159.79 235.041C137.359 235.041 119.193 216.971 119.193 194.659L119.193 123.994C119.193 101.682 137.359 83.6128 159.79 83.6128L160.563 83.6128C160.563 83.6128 160.563 83.6128 160.563 83.6128Z" fill="#E9E9E9"/>
<path fill-rule="evenodd" clip-rule="evenodd" d="M164.519 99.6495C164.52 100.751 163.623 101.645 162.516 101.647C148.612 101.665 137.304 112.917 137.304 126.723C137.304 127.824 136.406 128.717 135.298 128.717C134.191 128.717 133.293 127.824 133.293 126.723C133.293 110.711 146.399 97.678 162.511 97.6574C163.618 97.6559 164.517 98.5478 164.519 99.6495Z" fill="#E9E9E9"/>
<path fill-rule="evenodd" clip-rule="evenodd" d="M201.159 159.344C201.159 160.446 200.261 161.339 199.153 161.339L121.178 161.319C120.071 161.319 119.173 160.426 119.174 159.324C119.174 158.223 120.072 157.33 121.179 157.33L199.154 157.349C200.262 157.349 201.16 158.243 201.159 159.344Z" fill="#E9E9E9"/>
<path fill-rule="evenodd" clip-rule="evenodd" d="M29.2702 63.7182C45.1192 47.9533 70.8418 47.9533 86.6907 63.7182L128.415 105.221L127.687 106.534C124.816 111.719 123.204 117.652 123.204 123.996L123.184 180.115L121.884 180.601C107.44 185.996 90.553 182.907 78.9294 171.345L28.7101 121.391C12.8612 105.627 12.8612 80.0403 28.7101 64.2754L29.2702 63.7182ZM83.8548 66.5391C69.5721 52.3322 46.3889 52.3321 32.1062 66.5391L31.546 67.0963C17.2634 81.3032 17.2634 104.364 31.546 118.571L81.7653 168.524C91.8917 178.596 106.451 181.537 119.175 177.324L119.194 123.996C119.194 123.996 119.194 123.997 119.194 123.996C119.194 117.505 120.719 111.383 123.468 105.943L83.8548 66.5391Z" fill="#E9E9E9"/>
</g>
</svg>
