<svg width="292" height="260" viewBox="0 0 292 260" fill="none" xmlns="http://www.w3.org/2000/svg">
<g opacity="0.3">
<path d="M110.632 220.861C96.3865 230.189 77.1921 226.185 67.8638 211.939" stroke="#E9E9E9" stroke-width="4" stroke-miterlimit="10" stroke-linecap="round"/>
<path d="M150.555 213.886L102.061 139.828" stroke="#E9E9E9" stroke-width="4" stroke-miterlimit="10" stroke-linecap="round"/>
<path d="M273.417 117.343L273.238 118.202C268.293 141.905 245.095 157.096 221.392 152.151L142.424 135.679C118.721 130.734 103.531 107.536 108.475 83.8328L108.654 82.974C113.599 59.2708 136.797 44.0804 160.5 49.0249L239.468 65.4974C263.171 70.4418 278.361 93.6401 273.417 117.343Z" stroke="#E9E9E9" stroke-width="4" stroke-miterlimit="10" stroke-linecap="round"/>
<path d="M148.741 120.639C132.08 117.163 121.342 100.764 124.8 84.0769" stroke="#E9E9E9" stroke-width="4" stroke-miterlimit="10" stroke-linecap="round"/>
<path d="M181.903 143.937L200.005 57.2663" stroke="#E9E9E9" stroke-width="4" stroke-miterlimit="10" stroke-linecap="round"/>
<path d="M142.426 135.679C134.954 134.121 128.349 130.771 122.933 126.124L68.3108 161.891C48.0707 175.145 42.4007 202.326 55.6541 222.566L56.1468 223.319C69.4003 243.559 96.5816 249.229 116.822 235.975L184.289 191.797C199.132 182.078 206.138 164.922 203.59 148.461L142.426 135.679Z" stroke="#E9E9E9" stroke-width="4" stroke-miterlimit="10" stroke-linecap="round"/>
</g>
</svg>
