<svg width="232" height="227" viewBox="0 0 232 227" fill="none" xmlns="http://www.w3.org/2000/svg">
<g opacity="0.3">
<path fill-rule="evenodd" clip-rule="evenodd" d="M112.974 19.4134C113.746 20.2028 113.733 21.469 112.943 22.2417L22.1886 111.083C21.3993 111.856 20.133 111.843 19.3604 111.053C18.5877 110.264 18.6012 108.998 19.3905 108.225L110.145 19.3833C110.935 18.6106 112.201 18.6241 112.974 19.4134Z" fill="#E9E9E9"/>
<path fill-rule="evenodd" clip-rule="evenodd" d="M93.4162 91.8727C69.1393 115.638 69.1393 154.169 93.4162 177.934C117.693 201.699 157.054 201.699 181.331 177.934C205.608 154.169 205.608 115.638 181.331 91.8726C157.054 68.1075 117.693 68.1075 93.4162 91.8727ZM90.5579 180.732C64.7023 155.422 64.7023 114.385 90.5579 89.0745C116.413 63.764 158.334 63.764 184.189 89.0745C210.045 114.385 210.045 155.422 184.189 180.732C158.334 206.043 116.413 206.043 90.5579 180.732Z" fill="#E9E9E9"/>
<path fill-rule="evenodd" clip-rule="evenodd" d="M184.169 89.0716C184.942 89.861 184.928 91.1272 184.139 91.8999L93.3839 180.742C92.5946 181.514 91.3284 181.501 90.5557 180.711C89.783 179.922 89.7965 178.656 90.5858 177.883L181.341 89.0415C182.13 88.2688 183.396 88.2823 184.169 89.0716Z" fill="#E9E9E9"/>
<path fill-rule="evenodd" clip-rule="evenodd" d="M-6.56894e-09 65.2527C-2.93558e-09 29.3924 29.6994 0.418945 66.1868 0.418945C102.714 0.418945 132.374 29.4316 132.374 65.2527C132.374 67.7854 132.214 70.3111 131.937 72.7529L131.758 74.3367L130.174 74.5148C101.576 77.7309 78.9188 99.9452 75.6043 127.907L75.4169 129.488L73.8344 129.66C71.3441 129.931 68.7688 130.086 66.1868 130.086C29.6593 130.086 -1.01983e-08 101.074 -6.56894e-09 65.2527ZM66.1868 4.41895C31.8262 4.41895 4 31.683 4 65.2527C4 98.7862 31.7893 126.086 66.1868 126.086C68.0799 126.086 69.9771 125.997 71.8423 125.836C75.9646 97.2606 99.0288 74.7203 128.122 70.7399C128.284 68.9296 128.374 67.089 128.374 65.2527C128.374 31.7191 100.584 4.41895 66.1868 4.41895Z" fill="#E9E9E9"/>
</g>
</svg>
