<svg width="451" height="370" viewBox="0 0 451 370" fill="none" xmlns="http://www.w3.org/2000/svg">
<g opacity="0.3">
<path fill-rule="evenodd" clip-rule="evenodd" d="M433.67 154.857C439.767 139.929 432.186 123.391 416.666 117.978L128.722 17.5499C113.202 12.1369 95.6868 19.9223 89.5899 34.8507L16.3544 214.169C10.2575 229.098 17.8384 245.636 33.3585 251.049L321.303 351.477C336.823 356.89 354.338 349.104 360.435 334.176L433.67 154.857ZM418.179 114.274C435.733 120.396 444.401 139.15 437.448 156.175L364.213 335.494C357.259 352.519 337.344 361.303 319.79 355.181L31.8457 254.753C14.2919 248.63 5.62331 229.877 12.5766 212.852L85.8121 33.5331C92.7654 16.5077 112.681 7.72354 130.234 13.8459L418.179 114.274Z" fill="#E9E9E9"/>
<path fill-rule="evenodd" clip-rule="evenodd" d="M358.572 140.732C377.174 147.168 386.23 167.119 378.759 185.267C371.288 203.415 350.112 212.907 331.51 206.471C312.902 200.034 303.909 180.1 311.32 161.942L311.322 161.936C318.793 143.788 339.969 134.296 358.572 140.732ZM374.977 183.959C381.601 167.868 373.577 150.151 357.048 144.433C340.521 138.715 321.73 147.153 315.105 163.242C308.529 179.358 316.511 197.055 333.033 202.771C349.561 208.489 368.354 200.049 374.977 183.959Z" fill="#E9E9E9"/>
<path fill-rule="evenodd" clip-rule="evenodd" d="M321.002 234.532C339.605 240.968 348.661 260.919 341.19 279.067C333.719 297.215 312.543 306.707 293.94 300.271C275.338 293.835 266.282 273.884 273.753 255.736C281.224 237.588 302.4 228.096 321.002 234.532ZM337.408 277.759C344.032 261.668 336.007 243.951 319.479 238.232C302.951 232.514 284.159 240.954 277.535 257.045C270.911 273.135 278.935 290.852 295.464 296.571C311.992 302.289 330.784 293.849 337.408 277.759Z" fill="#E9E9E9"/>
<path fill-rule="evenodd" clip-rule="evenodd" d="M257.393 104.738C275.995 111.174 285.051 131.125 277.58 149.273C270.109 167.421 248.933 176.913 230.331 170.477C211.728 164.041 202.673 144.091 210.143 125.942C217.614 107.794 238.79 98.3022 257.393 104.738ZM273.798 147.965C280.422 131.874 272.398 114.157 255.87 108.438C239.341 102.72 220.549 111.16 213.925 127.251C207.301 143.341 215.326 161.058 231.854 166.777C248.382 172.495 267.175 164.055 273.798 147.965Z" fill="#E9E9E9"/>
<path fill-rule="evenodd" clip-rule="evenodd" d="M219.824 198.538C238.426 204.974 247.482 224.924 240.011 243.073C232.54 261.221 211.364 270.713 192.762 264.277C174.159 257.841 165.104 237.89 172.574 219.742C180.045 201.594 201.221 192.102 219.824 198.538ZM236.229 241.764C242.853 225.674 234.829 207.956 218.3 202.238C201.772 196.52 182.98 204.96 176.356 221.05C169.732 237.141 177.757 254.858 194.285 260.576C210.813 266.295 229.606 257.855 236.229 241.764Z" fill="#E9E9E9"/>
<path fill-rule="evenodd" clip-rule="evenodd" d="M156.155 68.7224C174.757 75.1582 183.813 95.1091 176.342 113.257C168.871 131.406 147.695 140.897 129.093 134.461C110.485 128.024 101.492 108.09 108.903 89.9322L108.906 89.9267C116.377 71.7784 137.552 62.2865 156.155 68.7224ZM172.561 111.949C179.184 95.8584 171.16 78.141 154.632 72.4227C138.104 66.7049 119.314 75.1432 112.689 91.2318C106.112 107.348 114.094 125.045 130.616 130.761C147.145 136.479 165.937 128.04 172.561 111.949Z" fill="#E9E9E9"/>
<path fill-rule="evenodd" clip-rule="evenodd" d="M118.586 162.522C137.188 168.958 146.244 188.909 138.773 207.057C131.302 225.205 110.126 234.697 91.5239 228.261C72.9214 221.825 63.8657 201.875 71.3366 183.726C78.8075 165.578 99.9833 156.086 118.586 162.522ZM134.992 205.749C141.615 189.658 133.591 171.941 117.063 166.223C100.534 160.504 81.742 168.944 75.1182 185.035C68.4944 201.125 76.5188 218.843 93.0472 224.561C109.575 230.279 128.368 221.839 134.992 205.749Z" fill="#E9E9E9"/>
</g>
</svg>
