<svg width="377" height="241" viewBox="0 0 377 241" fill="none" xmlns="http://www.w3.org/2000/svg">
<g opacity="0.3">
<path fill-rule="evenodd" clip-rule="evenodd" d="M112.24 23.8127L111.198 24.103L111.18 24.1078C83.5845 31.4481 64.8059 53.5735 69.2615 73.5235L80.5717 124.318C80.7713 125.214 79.931 126.214 78.6948 126.55C77.4586 126.887 76.2946 126.433 76.0951 125.537L64.7852 74.7437C59.9262 52.9878 80.4087 28.8619 110.475 20.8568L111.52 20.5658L111.539 20.5608C141.634 12.575 169.936 23.7425 174.793 45.4894L186.104 96.2839C186.303 97.1803 185.463 98.1797 184.227 98.5163C182.991 98.8528 181.827 98.3989 181.627 97.5026L170.317 46.7095C165.859 26.7506 139.873 16.4881 112.24 23.8127Z" fill="#E9E9E9"/>
<path fill-rule="evenodd" clip-rule="evenodd" d="M83.8531 121.398C83.8528 121.398 83.8532 121.395 83.8554 121.389C83.8546 121.395 83.8535 121.398 83.8531 121.398ZM83.908 121.292C83.9482 121.232 84.0165 121.146 84.1319 121.028C84.519 120.632 85.2421 120.096 86.4058 119.437C88.7168 118.129 92.3056 116.59 96.9869 114.928C106.314 111.616 119.553 107.963 134.48 104.776C149.407 101.59 163.082 99.4977 173.104 98.679C178.134 98.2681 182.13 98.1879 184.87 98.4181C186.25 98.534 187.174 98.7182 187.726 98.9136C187.89 98.9719 187.997 99.0215 188.064 99.0585C188.024 99.1184 187.955 99.2054 187.84 99.3233C187.453 99.7192 186.73 100.255 185.566 100.914C183.255 102.222 179.666 103.761 174.985 105.423C165.658 108.735 152.418 112.388 137.491 115.575C122.564 118.761 108.89 120.853 98.8675 121.672C93.8373 122.083 89.8417 122.163 87.1017 121.933C85.7219 121.817 84.7981 121.633 84.2461 121.437C84.0817 121.379 83.9752 121.329 83.908 121.292ZM188.168 99.1301C188.168 99.1302 188.165 99.1278 188.161 99.1227C188.166 99.1275 188.168 99.1301 188.168 99.1301ZM188.116 98.9622C188.117 98.9561 188.118 98.953 188.119 98.9529C188.119 98.9528 188.119 98.9558 188.116 98.9622ZM83.8107 121.228C83.8054 121.223 83.8034 121.221 83.8037 121.221C83.804 121.221 83.8067 121.223 83.8107 121.228ZM95.3079 111.932C104.958 108.506 118.474 104.785 133.584 101.56C148.693 98.3346 162.649 96.1906 173.018 95.3435C178.183 94.9216 182.574 94.8115 185.805 95.083C187.411 95.2179 188.87 95.4576 190.021 95.8652C191.16 96.2682 192.303 96.9516 192.619 98.086C192.936 99.2205 192.28 100.288 191.482 101.104C190.675 101.93 189.506 102.731 188.151 103.497C185.426 105.041 181.471 106.712 176.664 108.419C167.014 111.845 153.498 115.565 138.388 118.791C123.278 122.016 109.323 124.16 98.9537 125.007C93.7884 125.429 89.3982 125.539 86.1666 125.268C84.5605 125.133 83.102 124.893 81.9506 124.486C80.8122 124.083 79.6688 123.399 79.3525 122.265C79.0362 121.13 79.6914 120.063 80.4898 119.247C81.2972 118.421 82.4657 117.62 83.8204 116.853C86.546 115.31 90.5008 113.639 95.3079 111.932Z" fill="#E9E9E9"/>
<path fill-rule="evenodd" clip-rule="evenodd" d="M347.481 124.008C351.684 102.682 332.586 86.0982 304.804 86.9928L234.162 89.2654C232.925 89.3052 232.082 88.562 232.278 87.6054C232.475 86.6489 233.637 85.8411 234.874 85.8014L305.516 83.5287C305.516 83.5287 305.516 83.5287 305.516 83.5287C335.737 82.5556 356.551 100.595 351.963 123.849L351.962 123.856L351.795 124.655C351.795 124.658 351.794 124.66 351.794 124.663C347.2 147.921 318.948 167.559 288.718 168.533L218.076 170.805C216.839 170.845 215.996 170.102 216.193 169.145C216.389 168.189 217.551 167.381 218.788 167.341L289.43 165.069C317.203 164.174 343.105 146.144 347.312 124.822L347.313 124.814L347.48 124.015C347.48 124.012 347.481 124.01 347.481 124.008Z" fill="#E9E9E9"/>
<path fill-rule="evenodd" clip-rule="evenodd" d="M232.866 87.7468C232.468 87.4313 232.225 87.4288 232.172 87.4306C232.118 87.4323 231.87 87.4516 231.342 87.7986C230.8 88.1547 230.12 88.7586 229.337 89.6788C227.772 91.5155 226.082 94.2673 224.401 97.7992C221.051 104.834 217.908 114.586 215.805 125.366C213.701 136.146 213.057 145.814 213.689 152.715C214.007 156.179 214.638 158.853 215.503 160.607C215.936 161.487 216.387 162.052 216.797 162.376C217.195 162.692 217.439 162.694 217.492 162.692C217.545 162.691 217.793 162.671 218.321 162.324C218.863 161.968 219.543 161.364 220.326 160.444C221.891 158.608 223.58 155.857 225.26 152.327C228.608 145.295 231.746 135.55 233.839 124.783L233.84 124.782C235.952 113.989 236.602 104.315 235.972 97.4109C235.655 93.9448 235.024 91.2706 234.16 89.5156C233.727 88.6363 233.276 88.0707 232.866 87.7468ZM240.477 96.5115C241.135 103.727 240.451 113.666 238.304 124.634C236.176 135.576 232.97 145.587 229.471 152.935C227.729 156.596 225.869 159.691 223.962 161.931C223.01 163.048 221.973 164.039 220.843 164.782C219.699 165.534 218.32 166.117 216.816 166.167C215.311 166.218 214.142 165.721 213.278 165.037C212.424 164.361 211.763 163.427 211.236 162.358C210.183 160.219 209.513 157.207 209.184 153.615C208.523 146.403 209.202 136.471 211.34 125.515C213.477 114.56 216.689 104.543 220.19 97.1906C221.933 93.5288 223.794 90.4322 225.701 88.1927C226.653 87.0748 227.69 86.0836 228.82 85.341C229.964 84.5893 231.343 84.0063 232.848 83.9556C234.352 83.9048 235.521 84.402 236.385 85.0864C237.239 85.7623 237.901 86.6965 238.427 87.765C239.48 89.9053 240.149 92.9177 240.477 96.5115Z" fill="#E9E9E9"/>
<path fill-rule="evenodd" clip-rule="evenodd" d="M136.107 165.569C136.732 164.661 138.082 164.22 139.124 164.584L139.262 164.633C140.303 164.997 140.641 166.028 140.016 166.936C139.392 167.844 138.041 168.285 137 167.921L136.861 167.872C135.82 167.508 135.483 166.477 136.107 165.569Z" fill="#E9E9E9"/>
<path fill-rule="evenodd" clip-rule="evenodd" d="M164.288 156.457C164.913 155.549 166.263 155.108 167.304 155.472L167.409 155.509C168.45 155.873 168.788 156.904 168.163 157.812C167.538 158.72 166.188 159.161 165.147 158.797L165.042 158.76C164.001 158.396 163.664 157.365 164.288 156.457Z" fill="#E9E9E9"/>
<path fill-rule="evenodd" clip-rule="evenodd" d="M132.458 145.321C133.083 144.413 134.433 143.972 135.474 144.336L135.579 144.373C136.62 144.737 136.958 145.768 136.333 146.676C135.708 147.584 134.358 148.025 133.317 147.661L133.212 147.624C132.171 147.26 131.834 146.229 132.458 145.321Z" fill="#E9E9E9"/>
<path fill-rule="evenodd" clip-rule="evenodd" d="M149.658 183.976C150.282 183.067 151.633 182.626 152.675 182.991L152.779 183.027C153.821 183.392 154.158 184.423 153.533 185.332C152.908 186.24 151.558 186.681 150.516 186.317L150.412 186.28C149.37 185.916 149.033 184.884 149.658 183.976Z" fill="#E9E9E9"/>
<path fill-rule="evenodd" clip-rule="evenodd" d="M105.803 177.827C106.428 176.919 107.779 176.478 108.82 176.842L108.925 176.879C109.966 177.243 110.304 178.275 109.679 179.183C109.054 180.092 107.703 180.533 106.662 180.169L106.557 180.132C105.516 179.768 105.178 178.736 105.803 177.827Z" fill="#E9E9E9"/>
</g>
</svg>
