<svg width="568" height="288" viewBox="0 0 568 288" fill="none" xmlns="http://www.w3.org/2000/svg">
<path d="M494.356 245.318C453.176 304.146 323.212 283.507 227.408 283.507C211.929 282.061 144.879 293.12 107.307 272.792C34.9805 233.657 44.1277 140.799 102.472 86.19C144.936 46.4442 221.057 23.9134 293.386 25.0404C308.966 25.283 368.675 26.7791 421.148 53.0312C428.855 56.8872 445.855 66.0498 461.176 80.5859C497.151 114.718 521.194 206.979 494.356 245.318Z" fill="url(#paint0_linear_1715_8033)"/>
<path d="M237.205 283.906C237.205 283.906 203.882 163.142 145.411 98.3187C141.481 93.961 134.842 95.8541 133.721 101.672C126.22 140.571 114.285 258.28 237.205 283.906Z" fill="#BDD0FB"/>
<path opacity="0.5" d="M225.659 276.365C225.947 276.647 225.614 277.115 225.293 276.876C213.52 268.05 167.459 224.369 146.3 135.461C146.233 135.176 146.613 135.056 146.703 135.335C153.348 155.898 180.034 231.665 225.659 276.365Z" fill="white"/>
<path d="M237.801 239.841C237.801 239.841 255.098 150.677 235.92 88.7764C234.632 84.6153 229.337 83.5361 226.592 86.8882C208.231 109.301 160.221 180.844 237.801 239.841Z" fill="#BDD0FB"/>
<path opacity="0.5" d="M232.242 231C232.349 231.282 231.958 231.466 231.814 231.202C226.53 221.455 208.935 177.439 224.036 112.963C224.085 112.756 224.392 112.811 224.361 113.021C222.097 128.539 215.298 186.48 232.242 231Z" fill="white"/>
<path d="M302.234 237.732C302.234 237.732 334.564 131.011 390.755 75.3909C394.532 71.6518 400.878 73.6196 401.93 78.8719C408.964 113.997 419.953 219.843 302.234 237.732Z" fill="#BDD0FB"/>
<path opacity="0.5" d="M313.311 231.458C313.033 231.699 313.351 232.132 313.658 231.931C324.956 224.514 369.194 187.309 389.767 108.601C389.833 108.348 389.469 108.226 389.382 108.472C382.948 126.603 357.133 193.322 313.311 231.458Z" fill="white"/>
<path d="M323.766 285.333H256.643V153.385C256.643 151.303 258.302 149.617 260.348 149.617H320.06C322.107 149.617 323.765 151.304 323.765 153.385V285.333H323.766Z" fill="#F08F3C"/>
<path d="M306.716 285.333H239.594V153.385C239.594 151.303 241.252 149.617 243.298 149.617H303.011C305.057 149.617 306.715 151.304 306.715 153.385V285.333H306.716Z" fill="#FFA121"/>
<path opacity="0.76" d="M244.094 174.966C243.838 174.966 243.63 174.754 243.63 174.493V164.864C243.63 159.731 247.335 155.555 251.889 155.555H264.78C265.036 155.555 265.244 155.766 265.244 156.027C265.244 156.288 265.036 156.5 264.78 156.5H251.889C247.847 156.5 244.559 160.252 244.559 164.863V174.492C244.559 174.753 244.35 174.966 244.094 174.966Z" fill="#FFC494"/>
<path opacity="0.76" d="M244.094 185.174C243.838 185.174 243.63 184.963 243.63 184.702V180.778C243.63 180.517 243.838 180.306 244.094 180.306C244.351 180.306 244.559 180.517 244.559 180.778V184.702C244.559 184.963 244.35 185.174 244.094 185.174Z" fill="#FFC494"/>
<path d="M246.274 285.333H188.437V193.244C188.437 191.163 190.095 189.477 192.141 189.477H242.57C244.616 189.477 246.274 191.164 246.274 193.244V285.333Z" fill="#F08F3C"/>
<path d="M229.224 285.333H171.387V193.244C171.387 191.163 173.046 189.477 175.091 189.477H225.519C227.565 189.477 229.223 191.164 229.223 193.244V285.333H229.224Z" fill="#FFA121"/>
<g opacity="0.73">
<path d="M176.161 216.78C175.904 216.78 175.696 216.569 175.696 216.308V204.947C175.696 198.938 180.03 194.05 185.357 194.05H200.565C200.822 194.05 201.03 194.261 201.03 194.522C201.03 194.783 200.822 194.995 200.565 194.995H185.357C180.543 194.995 176.626 199.46 176.626 204.947V216.308C176.626 216.569 176.418 216.78 176.161 216.78Z" fill="#FFC494"/>
<path d="M176.161 228.825C175.904 228.825 175.696 228.614 175.696 228.353V223.725C175.696 223.464 175.904 223.252 176.161 223.252C176.418 223.252 176.626 223.464 176.626 223.725V228.353C176.626 228.614 176.418 228.825 176.161 228.825Z" fill="white"/>
</g>
<path d="M388.854 285.333H331.017V193.244C331.017 191.163 332.676 189.477 334.721 189.477H385.149C387.195 189.477 388.853 191.164 388.853 193.244V285.333H388.854Z" fill="#F08F3C"/>
<path d="M371.803 285.333H313.966V193.244C313.966 191.163 315.625 189.477 317.67 189.477H368.098C370.145 189.477 371.803 191.164 371.803 193.244V285.333H371.803Z" fill="#FFA121"/>
<path opacity="0.76" d="M318.74 216.78C318.484 216.78 318.276 216.569 318.276 216.308V204.947C318.276 198.938 322.61 194.05 327.936 194.05H343.144C343.401 194.05 343.609 194.261 343.609 194.522C343.609 194.783 343.401 194.995 343.144 194.995H327.936C323.122 194.995 319.205 199.46 319.205 204.947V216.308C319.205 216.569 318.997 216.78 318.74 216.78Z" fill="#FFC494"/>
<path opacity="0.76" d="M318.74 228.825C318.484 228.825 318.276 228.614 318.276 228.353V223.725C318.276 223.464 318.484 223.252 318.74 223.252C318.997 223.252 319.205 223.464 319.205 223.725V228.353C319.205 228.614 318.997 228.825 318.74 228.825Z" fill="#FFC494"/>
<path d="M311.546 266.633L359.02 174.129H349.294C347.5 174.129 346.514 172.009 347.651 170.599L398.249 107.877C400.443 105.158 404.774 106.882 404.57 110.392L401.014 171.727C400.81 175.239 397.749 177.855 394.313 177.455L387.532 176.666L340.429 280.419C339.202 283.12 336.544 284.849 333.619 284.849H317.294L311.546 266.633Z" fill="#8C9DF4"/>
<path d="M272.296 201.755L305.812 277.479C307.797 281.964 312.183 284.848 317.019 284.848H334.298C336.59 284.848 338.702 283.583 339.814 281.545L340.429 280.418C338.572 280.418 336.873 279.359 336.029 277.677L291.373 188.686L272.296 201.755Z" fill="#6D83E2"/>
<path d="M295.882 197.674C292.522 194.975 287.611 195.769 285.238 199.394L235.961 274.694C232.014 280.725 225.364 284.349 218.24 284.349H211.306L205.663 267.815C205.663 267.815 251.474 196.372 263.281 185.565C263.281 185.565 275.04 174.786 286.634 182.935C289.697 185.088 292.023 188.161 293.443 191.662L295.882 197.674Z" fill="#8C9DF4"/>
<path d="M152.067 223.349C152.067 223.349 160.316 212.863 176.3 211.231C176.3 211.231 183.892 213.862 199.016 241.426C214.141 268.991 224.18 281.561 235.96 274.695L234.985 276.342C231.771 281.769 225.996 285.089 219.766 285.089H213.251C206.077 285.089 199.848 273.851 195.659 267.928C183.888 251.285 159.298 225.933 152.067 223.349Z" fill="#6D83E2"/>
<path d="M398.862 129.78C398.844 129.78 398.827 129.779 398.809 129.777C398.554 129.748 398.37 129.514 398.399 129.254L398.732 126.259C398.762 126 398.992 125.814 399.247 125.843C399.501 125.872 399.685 126.107 399.656 126.366L399.323 129.361C399.295 129.601 399.095 129.78 398.862 129.78Z" fill="#BDD5FF"/>
<path d="M356.623 167.583C356.524 167.583 356.425 167.552 356.34 167.486C356.137 167.326 356.099 167.03 356.256 166.823L398.038 111.606C398.529 110.957 399.33 110.736 400.077 111.042C400.825 111.35 401.248 112.075 401.157 112.89L400.42 119.509C400.391 119.768 400.16 119.954 399.906 119.926C399.651 119.897 399.468 119.662 399.497 119.403L400.233 112.784C400.285 112.321 400.006 112.034 399.728 111.92C399.449 111.805 399.052 111.814 398.773 112.183L356.992 167.4C356.9 167.52 356.763 167.583 356.623 167.583Z" fill="#BDD5FF"/>
<path d="M261.838 225.47C261.748 225.47 261.659 225.444 261.579 225.389C261.366 225.243 261.309 224.949 261.453 224.733L283.061 192.156C283.836 190.989 285.121 190.357 286.502 190.463C287.882 190.569 289.06 191.392 289.652 192.665C289.762 192.901 289.663 193.183 289.431 193.294C289.199 193.407 288.922 193.306 288.812 193.07C288.365 192.109 287.475 191.486 286.432 191.406C285.388 191.325 284.418 191.804 283.833 192.686L262.224 225.262C262.134 225.396 261.988 225.47 261.838 225.47Z" fill="#BDD5FF"/>
<path d="M256.223 233.935C256.133 233.935 256.043 233.909 255.964 233.854C255.751 233.708 255.694 233.414 255.838 233.198L257.224 231.109C257.367 230.892 257.656 230.835 257.869 230.981C258.082 231.126 258.138 231.421 257.994 231.637L256.609 233.726C256.519 233.862 256.372 233.935 256.223 233.935Z" fill="#BDD5FF"/>
<path d="M311.208 30.9467C321.496 27.8464 331.305 28.6826 336.203 29.9997C341.994 31.5573 343.915 32.7253 349.041 33.3134C353.596 33.8364 365.705 30.0873 364.154 32.907C362.133 36.5834 362.686 50.9813 365.704 56.9833C366.143 57.8568 351.804 60.0184 343.116 58.4039C331.139 56.178 327.282 52.4447 319.417 54.1431C315.789 54.9261 313.032 56.493 311.27 57.6936C312.072 48.8178 310.406 39.8226 311.208 30.9467Z" fill="#FFA121"/>
<path d="M311.338 150.376C311.082 150.376 310.874 150.164 310.874 149.903V28.0927C310.874 27.8317 311.082 27.6201 311.338 27.6201C311.595 27.6201 311.803 27.8317 311.803 28.0927V149.903C311.803 150.163 311.595 150.376 311.338 150.376Z" fill="#26264F"/>
<path d="M259.842 150.391C259.841 150.327 259.845 150.264 259.861 150.198C260.802 146.408 264.644 144.466 264.644 144.466L266.493 144.613C267.556 147.954 268.241 149.584 268.07 150.497C268.066 150.522 268.057 150.547 268.051 150.571C266.526 150.71 263.387 150.801 259.842 150.391Z" fill="url(#paint1_linear_1715_8033)"/>
<path d="M268.073 150.571C267.99 150.876 267.769 151.113 267.486 151.174C265.317 151.638 261.869 151.264 260.422 151.072C260.103 151.029 259.869 150.729 259.864 150.39C263.41 150.801 266.548 150.71 268.073 150.571Z" fill="url(#paint2_linear_1715_8033)"/>
<path d="M263.123 141.54L263.932 145.503C263.991 145.793 264.21 146.011 264.476 146.036C264.802 146.066 265.264 146.085 265.73 146.015C266.148 145.953 266.438 145.521 266.364 145.058L265.801 141.539H263.123V141.54Z" fill="url(#paint3_linear_1715_8033)"/>
<path d="M283.733 150.538C281.759 150.482 280.738 150.245 280.21 150.026C280.209 150.226 280.21 150.429 280.216 150.64C280.223 150.864 280.387 151.044 280.589 151.043L291.429 150.972C291.774 150.971 291.977 150.562 291.826 150.24C290.405 150.357 286.785 150.625 283.733 150.538Z" fill="url(#paint4_linear_1715_8033)"/>
<path d="M291.851 150.239C291.838 150.211 291.826 150.182 291.808 150.156C290.85 148.795 288.413 146.086 283.595 144.911L281.283 144.837C281.283 144.837 280.254 146.656 280.235 150.026C280.763 150.245 281.784 150.482 283.758 150.538C286.81 150.626 290.43 150.358 291.851 150.239Z" fill="url(#paint5_linear_1715_8033)"/>
<path d="M280.855 141.274C280.88 141.449 281.197 144.112 281.32 145.145C281.35 145.39 281.524 145.58 281.745 145.607C282.138 145.655 282.775 145.698 283.332 145.582C283.633 145.52 283.85 145.226 283.85 144.884V140.703L280.855 141.274Z" fill="url(#paint6_linear_1715_8033)"/>
<path d="M264.666 89.502C264.666 89.502 260.968 122.94 263.022 143.838C263.022 143.838 265.488 143.838 266.721 143.421C266.721 143.421 270.565 110.727 271.808 101.372C271.854 101.02 272.349 101.003 272.417 101.352C273.951 109.223 279.976 140.088 280.693 143.003C280.693 143.003 282.748 143.839 284.392 143.003C284.392 143.003 281.105 98.2799 278.638 90.3381L264.666 89.502Z" fill="url(#paint7_linear_1715_8033)"/>
<path d="M257.27 50.6307C257.27 50.6307 269.703 48.923 281.05 50.6652C283.858 51.0958 285.813 53.7254 285.434 56.5871L284.393 64.4236C284.393 64.4236 281.105 82.3963 278.639 90.3381C278.639 90.3381 269.187 92.0104 264.666 89.502C264.666 89.502 260.968 66.9311 258.913 63.5875C258.913 63.5875 256.858 54.8104 257.27 50.6307Z" fill="url(#paint8_linear_1715_8033)"/>
<path d="M268.118 39.209L266.563 49.9091C266.563 49.9091 270.909 51.9402 273.953 49.8224L273.297 42.2711L268.118 39.209Z" fill="url(#paint9_linear_1715_8033)"/>
<path d="M274.816 32.2424C274.864 32.3329 275.803 37.7281 276.379 41.0689C276.617 42.4485 275.62 43.7311 274.245 43.8131L272.985 43.8886C270.671 44.0275 268.634 42.3525 268.283 40.0221L267.372 33.9716C267.374 33.9716 273.626 30.0472 274.816 32.2424Z" fill="url(#paint10_linear_1715_8033)"/>
<path d="M266.016 33.9863C265.533 33.3758 265.112 32.3886 266.141 31.3502C267.182 30.2988 268.362 30.5607 269.112 30.914C269.444 31.0696 269.852 31.0007 270.088 30.7173C270.192 30.5914 270.348 30.5057 270.579 30.5318C271.014 30.5812 271.403 30.2894 271.455 29.8467C271.544 29.0879 271.941 28.1949 273.26 27.9358C275.679 27.4604 276.886 29.9231 276.842 31.6532C276.799 33.3841 274.148 33.7477 272.643 33.4606C271.538 33.2499 270.583 34.2371 270.153 34.7768C269.997 34.9725 269.938 35.2289 269.995 35.474L270.377 37.1463C270.113 37.6664 269.852 38.1968 269.48 38.6405C269.213 38.9602 268.918 39.1364 268.607 39.211C268.156 38.3571 266.894 38.2126 266.308 38.1931C266.084 38.1856 265.875 38.0849 265.727 37.9134C265.285 37.398 264.593 36.2468 265.918 35.1161C266.248 34.8336 266.285 34.3275 266.016 33.9863Z" fill="url(#paint11_linear_1715_8033)"/>
<path d="M269.044 40.9992C269.044 40.9992 268.992 37.98 267.791 37.6966C266.589 37.4132 265.293 38.2969 266.321 40.1043C267.599 42.3517 269.044 40.9992 269.044 40.9992Z" fill="url(#paint12_linear_1715_8033)"/>
<path d="M264.298 65.0629C264.298 65.0629 229.012 55.294 246.533 30.1709L247.718 31.8777C247.718 31.8777 242.439 48.8939 259.925 50.5103C259.926 50.5112 264.456 62.3913 264.298 65.0629Z" fill="url(#paint13_linear_1715_8033)"/>
<path d="M246.414 30.3004C246.414 30.3004 246.016 25.4496 248.401 25.046C250.785 24.6414 251.58 27.0668 251.978 28.2796C252.375 29.4923 248.401 31.9177 247.606 31.9177C246.812 31.9177 246.414 30.3004 246.414 30.3004Z" fill="url(#paint14_linear_1715_8033)"/>
<path d="M283.315 67.7453C283.315 67.7453 287.876 86.1039 310.753 65.8792L308.999 64.7905C308.999 64.7905 288.858 79.3244 285.308 54.5322C285.308 54.5322 283.315 65.5157 283.315 67.7453Z" fill="url(#paint15_linear_1715_8033)"/>
<path d="M310.634 66.0088C310.634 66.0088 315.419 66.0889 315.656 63.642C315.894 61.1952 313.461 60.5501 312.245 60.2276C311.029 59.9051 308.915 64.1007 308.968 64.907C309.021 65.7133 310.634 66.0088 310.634 66.0088Z" fill="url(#paint16_linear_1715_8033)"/>
<line x1="128.869" y1="285.5" x2="418.17" y2="285.5" stroke="black"/>
<defs>
<linearGradient id="paint0_linear_1715_8033" x1="527.555" y1="288.461" x2="344.893" y2="25.0302" gradientUnits="userSpaceOnUse">
<stop stop-color="#DAE3FE"/>
<stop offset="1" stop-color="#E9EFFD"/>
</linearGradient>
<linearGradient id="paint1_linear_1715_8033" x1="268.096" y1="147.577" x2="259.842" y2="147.577" gradientUnits="userSpaceOnUse">
<stop stop-color="#09005D"/>
<stop offset="1" stop-color="#1A0F91"/>
</linearGradient>
<linearGradient id="paint2_linear_1715_8033" x1="247.317" y1="137.355" x2="278.067" y2="161.095" gradientUnits="userSpaceOnUse">
<stop stop-color="#4F52FF"/>
<stop offset="1" stop-color="#4042E2"/>
</linearGradient>
<linearGradient id="paint3_linear_1715_8033" x1="265.388" y1="137.726" x2="263.684" y2="152.347" gradientUnits="userSpaceOnUse">
<stop stop-color="#FEBBBA"/>
<stop offset="1" stop-color="#FF928E"/>
</linearGradient>
<linearGradient id="paint4_linear_1715_8033" x1="293.339" y1="144.55" x2="263.603" y2="167.507" gradientUnits="userSpaceOnUse">
<stop stop-color="#4F52FF"/>
<stop offset="1" stop-color="#4042E2"/>
</linearGradient>
<linearGradient id="paint5_linear_1715_8033" x1="280.234" y1="147.696" x2="291.851" y2="147.696" gradientUnits="userSpaceOnUse">
<stop stop-color="#09005D"/>
<stop offset="1" stop-color="#1A0F91"/>
</linearGradient>
<linearGradient id="paint6_linear_1715_8033" x1="282.747" y1="139.597" x2="281.153" y2="153.273" gradientUnits="userSpaceOnUse">
<stop stop-color="#FEBBBA"/>
<stop offset="1" stop-color="#FF928E"/>
</linearGradient>
<linearGradient id="paint7_linear_1715_8033" x1="302.978" y1="78.1683" x2="243.126" y2="155.621" gradientUnits="userSpaceOnUse">
<stop stop-color="#09005D"/>
<stop offset="1" stop-color="#1A0F91"/>
</linearGradient>
<linearGradient id="paint8_linear_1715_8033" x1="290.642" y1="29.277" x2="250.58" y2="99.6146" gradientUnits="userSpaceOnUse">
<stop stop-color="#4F52FF"/>
<stop offset="1" stop-color="#4042E2"/>
</linearGradient>
<linearGradient id="paint9_linear_1715_8033" x1="266.562" y1="44.998" x2="273.952" y2="44.998" gradientUnits="userSpaceOnUse">
<stop stop-color="#FEBBBA"/>
<stop offset="1" stop-color="#FF928E"/>
</linearGradient>
<linearGradient id="paint10_linear_1715_8033" x1="886.25" y1="-535.304" x2="896.217" y2="-544.299" gradientUnits="userSpaceOnUse">
<stop stop-color="#FEBBBA"/>
<stop offset="1" stop-color="#FF928E"/>
</linearGradient>
<linearGradient id="paint11_linear_1715_8033" x1="264.948" y1="36.6093" x2="276.715" y2="30.2303" gradientUnits="userSpaceOnUse">
<stop stop-color="#09005D"/>
<stop offset="1" stop-color="#1A0F91"/>
</linearGradient>
<linearGradient id="paint12_linear_1715_8033" x1="884.951" y1="-536.756" x2="894.918" y2="-545.751" gradientUnits="userSpaceOnUse">
<stop stop-color="#FEBBBA"/>
<stop offset="1" stop-color="#FF928E"/>
</linearGradient>
<linearGradient id="paint13_linear_1715_8033" x1="271.423" y1="18.3299" x2="231.36" y2="88.6677" gradientUnits="userSpaceOnUse">
<stop stop-color="#4F52FF"/>
<stop offset="1" stop-color="#4042E2"/>
</linearGradient>
<linearGradient id="paint14_linear_1715_8033" x1="250.878" y1="22.6718" x2="246.574" y2="36.5767" gradientUnits="userSpaceOnUse">
<stop stop-color="#FEBBBA"/>
<stop offset="1" stop-color="#FF928E"/>
</linearGradient>
<linearGradient id="paint15_linear_1715_8033" x1="307.72" y1="54.177" x2="240.083" y2="97.4842" gradientUnits="userSpaceOnUse">
<stop stop-color="#4F52FF"/>
<stop offset="1" stop-color="#4042E2"/>
</linearGradient>
<linearGradient id="paint16_linear_1715_8033" x1="317.819" y1="60.97" x2="304.361" y2="65.9838" gradientUnits="userSpaceOnUse">
<stop stop-color="#FEBBBA"/>
<stop offset="1" stop-color="#FF928E"/>
</linearGradient>
</defs>
</svg>
