<svg width="533" height="311" viewBox="0 0 533 311" fill="none" xmlns="http://www.w3.org/2000/svg">
<g clip-path="url(#clip0_1715_8015)">
<path d="M90.1041 280.452C90.1041 280.452 41.5471 228.415 81.8921 172.076C117.689 122.088 155.183 142.433 190.143 153.748C215.497 161.954 240.688 146.855 272.693 95.9908C316.336 26.627 467.622 68.6965 440.037 175.415C426.688 227.06 480.662 228.937 453.161 280.561L90.1041 280.452Z" fill="#EBF3FA"/>
<path d="M327.206 279.767C327.245 279.786 327.29 279.804 327.341 279.823H354.318C354.065 278.866 353.183 277.119 350.097 276.619C345.911 275.939 338.656 273.513 337.038 268.167C336.988 267.997 336.941 267.82 336.899 267.642C335.615 261.931 326.271 269.391 326.271 269.391C326.271 269.391 326.242 269.618 326.203 270.007C325.986 272.101 325.432 278.88 327.206 279.767Z" fill="#2C3A64"/>
<path d="M362.886 183.058C362.886 183.058 345.341 245.261 340.056 269.318C340.056 269.318 327.034 271.926 325.009 267.841C325.009 267.841 329.204 200.102 336.923 191.497C346.525 180.793 362.886 183.058 362.886 183.058Z" fill="#2C3A64"/>
<path d="M364.336 120.011C364.336 120.011 363.876 117.228 364.594 114.911C365.312 112.594 368.316 106.481 367.364 104.357C366.415 102.233 362.974 96.5185 360.851 96.5362C358.729 96.5522 363.082 102.652 362.485 104.556C361.888 106.462 361.69 106.616 360.952 106.447C360.215 106.279 359.093 102.633 358.719 103.484C358.346 104.336 358.563 109.979 359.265 111.388C359.967 112.798 358.528 120.742 358.528 120.742L364.336 120.011Z" fill="#ED975D"/>
<path d="M366.033 118.772C366.033 118.772 361.335 116.109 357.702 117.231C357.702 117.231 350.491 137.958 346.521 153.199C338.899 134.428 334.211 115.706 334.211 115.706C334.211 115.706 324.97 128.444 321.633 136.914C318.297 145.383 338.234 175.099 345.969 177.432C354.043 179.867 352.573 177.428 357.129 174.826C358.595 172.928 363.282 163.482 366.033 118.772Z" fill="#FFA412"/>
<path d="M387.285 280.737C387.324 280.756 387.369 280.774 387.42 280.793H414.397C414.144 279.835 413.262 278.089 410.176 277.589C405.99 276.909 398.734 274.483 397.117 269.137C397.067 268.966 397.02 268.79 396.978 268.611C395.693 262.9 386.35 270.361 386.35 270.361C386.35 270.361 386.321 270.588 386.282 270.977C386.063 273.07 385.509 279.851 387.285 280.737Z" fill="#2C3A64"/>
<path d="M368.121 181.548C368.121 181.548 365.494 182.714 362.25 185.102C361.881 183.227 361.35 182.009 361.35 182.009C338.2 175.991 276.231 176.481 276.231 176.481C276.231 176.481 262.908 179.812 266.82 199.17C270.42 216.984 329.919 208.736 349.137 203.392C349.587 203.266 350.023 203.136 350.443 202.999C348.914 214.349 359.623 230.541 368.997 245.442C376.724 257.725 383.301 270.159 383.301 270.159C387.182 272.561 400.211 271.171 400.211 271.171C391.976 247.955 368.121 181.548 368.121 181.548Z" fill="#35488B"/>
<path d="M317.03 109.416C317.03 109.416 323.676 130.653 333.659 135.403C333.659 135.403 334.604 128.959 332.987 124.06C334.306 123.052 335.473 122.117 336.492 121.275C339.877 118.463 341.589 116.662 341.589 116.662L340.104 106.307L339.098 99.2803C337.476 101.138 335.8 102.656 334.127 103.903C325.509 110.321 317.03 109.416 317.03 109.416Z" fill="#FFB27D"/>
<path d="M334.127 103.906C334.127 103.906 330.78 113.099 336.492 121.277C339.878 118.464 341.589 116.663 341.589 116.663L340.104 106.309C336.531 104.313 334.127 103.906 334.127 103.906Z" fill="#ED975D"/>
<path d="M344.121 118.677C344.121 118.677 329.404 108.93 335.626 99.8755C341.848 90.8207 344.139 83.4645 353.8 89.3039C363.46 95.1448 362.892 99.8369 361.553 103.362C360.212 106.889 348.11 120.979 344.121 118.677Z" fill="#FFB27D"/>
<path d="M337.337 80.9171C337.273 80.6713 336.997 80.3627 336.252 79.945C336.252 79.945 337.055 79.8566 337.884 80.2358C338.575 79.2347 340.08 77.5989 342.143 78.0312C342.143 78.0312 340.895 78.081 340.203 79.1672C343.413 77.9942 348.753 78.6113 360.861 85.7827C376.818 95.2343 366.052 103.338 363.271 103.571C360.49 103.804 356.807 97.635 352.642 95.9976C348.477 94.3602 344.836 99.8557 343.081 99.9971C341.326 100.139 342.559 98.9751 341.135 97.2333C339.71 95.4914 338.018 98.4947 337.564 100.762C337.11 103.029 333.282 104.443 333.282 104.443C333.282 104.443 333.282 104.443 332.097 100.407C330.912 96.3704 334.301 83.3869 336.698 81.4393C336.909 81.2674 337.121 81.0923 337.337 80.9171Z" fill="#2B478B"/>
<path d="M334.938 144.802C330.518 155.253 326.475 161.926 325.947 162.799C324.043 165.942 321.997 168.826 320.126 171.345C320.066 171.426 320.008 171.505 319.949 171.585C316.265 176.531 310.633 177.893 310.806 179.134C311.159 181.623 304.861 187.593 294.479 190.241C282.431 193.313 268.47 194.793 264.941 190.728C263.761 189.362 263.368 186.852 263.499 183.731C263.756 177.158 272.045 150.686 272.045 150.686C286.225 107.852 326.834 107.852 326.834 107.852C326.834 107.852 326.039 118.113 336.006 121.674C336.022 121.696 338.35 136.737 334.938 144.802Z" fill="#FFB93E"/>
<path d="M358.789 175.28C358.789 175.28 364.887 177.432 366.559 178.476C368.232 179.521 372.081 184.782 372.516 186.625C372.949 188.468 373.458 193.888 373.142 194.794C372.827 195.7 368.158 192.225 367.121 188.953C366.085 185.682 363.419 184.801 363.52 184.976C363.621 185.153 364.987 189.342 364.698 189.522C364.41 189.702 363.167 190.015 362.042 187.677C360.917 185.339 358.686 183.63 359.107 181.214C359.528 178.798 358.789 175.28 358.789 175.28Z" fill="#FFB27D"/>
<path d="M311.011 179.48C311.362 181.969 304.864 187.593 294.481 190.241C285.82 173.042 302.287 133.671 302.287 133.671L320.128 171.346C316.362 176.418 310.834 178.22 311.011 179.48Z" fill="#FFA412"/>
<path d="M325.949 162.798C324.044 165.941 321.998 168.825 320.128 171.345C320.068 171.425 320.01 171.504 319.95 171.584C317.503 170.643 315.074 168.764 313.851 167.037C311.041 163.076 310.81 139.269 310.81 139.269C310.81 139.269 322.312 153.452 325.949 162.798Z" fill="#FFA412"/>
<path d="M361.128 175.815C361.128 175.815 333.303 168.041 319.022 164.639C320.28 147.82 324.405 96.9702 298.455 117.326C298.455 117.326 296.495 171.821 309.068 182.859C309.068 182.859 349.43 183.712 357.116 183.243C357.116 183.243 359.375 182.077 359.935 181.299C361.731 178.81 361.128 175.815 361.128 175.815Z" fill="#FFB93E"/>
<path d="M199.986 257.404L201.013 257.313C200.62 249.854 194.965 245.679 194.965 245.679C191.004 242.176 189.718 238.329 189.718 238.329C189.718 238.329 196.401 230.547 190.13 225.604C190.13 225.604 185.55 222.836 181.815 223.061C181.815 223.061 187.107 231.918 185.396 232.798C183.684 233.679 180.212 222.505 180.212 222.505C180.212 222.505 169.788 221.495 166.436 223.106C166.436 223.106 175.347 230.383 173.47 230.817C171.593 231.251 161.969 224.107 161.969 224.107C161.969 224.107 152.268 225.754 152.784 231.662C153.301 237.569 156.645 239.393 158.113 239.235C159.583 239.078 168.176 235.803 168.363 237.005C168.55 238.207 163.377 242.133 159.755 242.317C159.755 242.317 166.594 249.846 171.14 247.673C175.687 245.501 176.074 242.055 178.908 240.763C181.741 239.472 184.161 239.475 182.991 240.792C181.82 242.11 176.693 243.391 175.072 246.251C173.45 249.111 171.997 251.041 176.701 250.336C181.403 249.629 189.048 246.195 189.383 242.261C189.398 242.089 189.412 241.927 189.425 241.769C189.432 242.081 189.383 242.261 189.383 242.261C190.364 242.436 192.402 244.238 193.875 245.65C194.102 245.897 194.437 246.23 194.915 246.674C195.095 246.855 195.245 247.008 195.356 247.122C198.341 250.387 199.986 257.404 199.986 257.404Z" fill="#82B378"/>
<path d="M213.081 228.541C213.081 228.541 202.451 222.599 207.411 214.536C207.411 214.536 211.379 209.583 215.632 208.311C215.632 208.311 213.364 220.336 215.632 220.619C217.901 220.902 217.191 207.038 217.191 207.038C217.191 207.038 228.387 201.661 232.782 202.086C232.782 202.086 225.837 213.829 228.106 213.546C230.374 213.263 238.169 201.379 238.169 201.379C238.169 201.379 249.651 199.256 251.492 206.047C253.336 212.837 250.359 216.232 248.657 216.657C246.956 217.081 236.042 216.94 236.326 218.355C236.609 219.769 243.979 222.033 248.091 220.761C248.091 220.761 243.556 231.936 237.602 231.371C231.649 230.805 229.807 227.127 226.121 226.844C222.436 226.561 219.742 227.551 221.586 228.543C223.429 229.533 229.664 228.867 232.641 231.393C235.617 233.919 238.027 235.475 232.499 236.608C226.971 237.739 217.049 237.032 215.066 232.788C213.081 228.541 213.081 228.541 213.081 228.541Z" fill="#A8D29F"/>
<path d="M246.249 208.169C246.249 208.169 216.484 217.789 213.082 228.541C213.082 228.541 213.224 233.35 210.247 238.868C210.247 238.868 205.658 245.826 208.274 254.294L209.455 253.978C209.455 253.978 208.423 245.575 210.371 240.708C210.45 240.528 210.568 240.269 210.713 239.954C211.065 239.265 211.302 238.759 211.453 238.391C212.514 236.217 214.047 233.379 215.067 232.785C215.066 232.786 208.404 223.449 246.249 208.169Z" fill="#82B378"/>
<path d="M196.169 220.348C196.169 220.348 210.181 212.516 203.642 201.885C203.642 201.885 198.41 195.358 192.806 193.68C192.806 193.68 195.795 209.532 192.806 209.905C189.816 210.278 190.75 192.003 190.75 192.003C190.75 192.003 175.991 184.917 170.198 185.476C170.198 185.476 179.354 200.955 176.364 200.582C173.375 200.209 163.099 184.544 163.099 184.544C163.099 184.544 147.965 181.746 145.537 190.698C143.108 199.65 147.031 204.125 149.273 204.684C151.516 205.243 165.902 205.057 165.528 206.923C165.155 208.788 155.439 211.771 150.02 210.093C150.02 210.093 155.999 224.826 163.846 224.079C171.692 223.334 174.122 218.484 178.98 218.111C183.839 217.738 187.389 219.043 184.959 220.35C182.53 221.654 174.31 220.777 170.387 224.107C166.464 227.436 163.287 229.488 170.574 230.979C177.86 232.472 190.938 231.538 193.555 225.945C196.169 220.348 196.169 220.348 196.169 220.348Z" fill="#A8D29F"/>
<path d="M199.905 233.962C195.982 226.689 196.169 220.348 196.169 220.348C191.685 206.176 152.45 193.494 152.45 193.494C202.335 213.635 193.555 225.943 193.555 225.943C194.899 226.726 196.914 230.459 198.313 233.322C198.513 233.809 198.828 234.484 199.297 235.4C199.487 235.814 199.638 236.153 199.744 236.39C202.312 242.804 200.952 253.882 200.952 253.882L202.509 254.3C205.957 243.132 199.905 233.962 199.905 233.962Z" fill="#82B378"/>
<path d="M169.192 251.108C169.192 266.239 181.482 278.506 196.641 278.506C199.806 278.506 202.845 277.97 205.674 276.987C216.395 273.259 224.089 263.08 224.089 251.108H169.192Z" fill="#ED7D2B"/>
<path d="M187.26 251.108C187.26 261.373 189.723 271.827 198.094 276.519C199.485 277.298 204.146 276.455 205.674 276.985C216.395 273.257 224.089 263.078 224.089 251.106H187.26V251.108Z" fill="#F99746"/>
<path d="M196.642 278.506C197.758 278.645 192.143 278.506 193.299 278.506C208.457 278.506 220.747 266.239 220.747 251.108H213.927C213.926 265.088 210.193 276.83 196.642 278.506Z" fill="#FFB176"/>
<path d="M168.814 279.902H224.47C224.47 278.969 224.091 278.124 223.479 277.511C222.865 276.901 222.019 276.521 221.083 276.521H172.2C170.33 276.52 168.814 278.034 168.814 279.902Z" fill="#ED7D2B"/>
<path d="M194.891 279.902H224.469C224.469 278.969 224.089 278.124 223.477 277.511C222.864 276.901 222.017 276.521 221.082 276.521H198.276C196.407 276.52 194.891 278.034 194.891 279.902Z" fill="#F99746"/>
<path d="M168.569 251.949H224.993V251.109H168.569V251.949Z" fill="#DB6A1F"/>
<path d="M337.363 209.27V219.983C337.363 222.194 335.55 224.004 333.335 224.004H269.883C267.668 224.004 265.856 222.194 265.856 219.983V209.27C265.856 207.059 267.668 205.25 269.883 205.25H333.335C335.55 205.248 337.363 207.058 337.363 209.27Z" fill="#F99746"/>
<path d="M337.363 218.033V219.984C337.363 222.195 335.55 224.004 333.335 224.004H269.883C267.668 224.004 265.856 222.195 265.856 219.984V217.872H336.209C336.608 217.872 336.997 217.928 337.363 218.033Z" fill="#ED7D2B"/>
<path d="M281.13 224.004L278.269 234.818C278.269 234.818 278.269 234.818 278.266 234.821L266.358 279.828H265.105L271.988 242.489C271.994 242.452 272.004 242.416 272.012 242.375L275.417 223.909L281.13 224.004Z" fill="#E8C6A7"/>
<path d="M281.13 224.004L278.269 234.818C278.269 234.818 278.269 234.818 278.266 234.821C278.102 234.901 272.894 237.588 272.012 242.373L275.417 223.907L281.13 224.004Z" fill="#C69D7B"/>
<path d="M337.363 279.826H336.11L326.408 243.164C326.408 243.161 326.408 243.161 326.408 243.158L324.202 234.821C324.199 234.818 324.199 234.818 324.199 234.818L321.338 224.004L327.052 223.907L329 234.466L330.457 242.373C330.463 242.414 330.473 242.451 330.481 242.487L337.363 279.826Z" fill="#E8C6A7"/>
<path d="M318.022 238.165C318.016 238.169 318.009 238.165 318.001 238.152C317.975 238.106 317.982 238.115 318.022 238.165Z" fill="#E8C6A7"/>
<path d="M329.001 234.466C327.947 235.997 326.493 238.875 326.409 243.158L324.204 234.821C324.201 234.818 324.201 234.818 324.201 234.818L321.34 224.004L327.053 223.907L329.001 234.466Z" fill="#C69D7B"/>
<path d="M252.967 79.0772C251.404 86.4413 249.195 93.1714 246.34 99.1965C246.21 99.4733 246.078 99.7472 245.943 100.021C245.876 100.16 245.809 100.298 245.74 100.435C245.568 100.782 245.394 101.125 245.217 101.466C245.124 101.649 245.029 101.832 244.932 102.014C244.76 102.342 244.585 102.667 244.408 102.99C244.229 103.317 244.048 103.641 243.864 103.962C243.55 104.518 243.228 105.067 242.898 105.61C242.835 105.714 242.772 105.818 242.707 105.921C242.535 106.202 242.363 106.48 242.184 106.757C242.119 106.864 242.051 106.971 241.981 107.077C241.81 107.345 241.635 107.612 241.459 107.876C241.365 108.019 241.269 108.16 241.173 108.302C241.002 108.558 240.827 108.811 240.651 109.062V109.065H240.649C240.554 109.201 240.458 109.338 240.361 109.474V109.475C240.352 109.489 240.343 109.5 240.332 109.514C240.162 109.758 239.987 109.998 239.809 110.237C239.744 110.33 239.675 110.424 239.606 110.515C239.433 110.749 239.259 110.981 239.083 111.211C238.99 111.334 238.895 111.457 238.798 111.579C238.626 111.803 238.452 112.024 238.274 112.245C238.093 112.473 237.909 112.701 237.722 112.925C237.551 113.135 237.377 113.344 237.2 113.551C237.072 113.704 236.942 113.855 236.81 114.006C236.801 114.018 236.79 114.029 236.779 114.042C236.755 114.07 236.732 114.097 236.707 114.125C236.535 114.324 236.361 114.52 236.184 114.716C235.805 115.143 235.418 115.563 235.022 115.976C234.851 116.158 234.677 116.339 234.5 116.518C234.093 116.938 233.677 117.351 233.255 117.754C233.082 117.923 232.908 118.088 232.731 118.252C232.427 118.539 232.118 118.821 231.807 119.099C231.804 119.102 231.802 119.105 231.797 119.107C231.62 119.266 231.441 119.424 231.261 119.58C231.088 119.732 230.914 119.882 230.739 120.028C229.794 120.832 228.822 121.601 227.823 122.335C227.65 122.464 227.476 122.591 227.3 122.716C226.586 123.229 225.857 123.725 225.116 124.202C224.75 124.44 224.379 124.674 224.006 124.902C223.198 125.397 222.374 125.872 221.534 126.326C220.891 126.675 220.239 127.011 219.578 127.335C218.577 127.826 217.556 128.29 216.513 128.724C216.341 128.798 216.167 128.87 215.991 128.941C215.687 129.065 215.382 129.186 215.074 129.304C214.63 129.476 214.183 129.643 213.731 129.806C212.733 130.166 211.714 130.5 210.679 130.81C210.313 130.921 209.944 131.027 209.573 131.13C208.146 131.53 206.688 131.883 205.196 132.189C204.055 132.424 202.894 132.633 201.714 132.811C199.003 133.227 196.191 133.496 193.276 133.616C192.801 133.637 192.322 133.652 191.841 133.663C191.141 133.681 190.433 133.69 189.72 133.69C188.863 133.69 188.001 133.68 187.135 133.661C179.861 133.499 172.336 132.654 165.069 131.108C164.52 130.991 163.972 130.871 163.426 130.746C156.975 129.272 150.758 127.239 145.133 124.633C144.99 124.568 144.847 124.501 144.707 124.434C143.291 123.768 141.914 123.065 140.58 122.324C125.767 114.103 116.421 101.334 120.503 83.7396C126.844 56.4034 165.121 27.1358 199.304 19.9579C249.268 9.46371 260.657 42.8778 252.967 79.0772Z" fill="#EBF3FA"/>
<path d="M225.116 124.202C224.75 124.44 224.379 124.674 224.006 124.902C223.198 125.397 222.375 125.872 221.535 126.325C220.891 126.674 220.239 127.011 219.579 127.335C218.577 127.826 217.556 128.29 216.514 128.724C216.341 128.798 216.167 128.87 215.991 128.941C215.688 129.065 215.383 129.186 215.075 129.304H195.801C195.617 129.304 195.442 129.259 195.288 129.179C194.962 129.009 194.731 128.682 194.694 128.301L194.689 128.251V125.255C194.72 124.671 195.209 124.202 195.801 124.202H225.116Z" fill="#FFB93E"/>
<path d="M216.513 124.202V128.724C216.34 128.798 216.166 128.87 215.991 128.941V124.202H216.513Z" fill="#FFA412"/>
<path d="M212.105 124.202H211.583V129.305H212.105V124.202Z" fill="#FFA412"/>
<path d="M231.807 119.1C231.804 119.102 231.801 119.105 231.797 119.108C231.62 119.266 231.441 119.425 231.261 119.581C231.088 119.732 230.914 119.882 230.738 120.028C229.794 120.832 228.821 121.601 227.823 122.335C227.65 122.465 227.476 122.591 227.3 122.716C226.585 123.229 225.857 123.726 225.116 124.203H196.902C196.309 124.203 195.821 123.734 195.791 123.149C195.791 123.131 195.789 123.111 195.789 123.092V120.211C195.789 120.191 195.791 120.173 195.791 120.154C195.819 119.613 196.238 119.172 196.77 119.108C196.813 119.102 196.858 119.1 196.902 119.1H231.807Z" fill="#FFB93E"/>
<path d="M231.261 119.1V119.581C231.088 119.732 230.914 119.882 230.738 120.028V119.1H231.261Z" fill="#FFA412"/>
<path d="M227.823 119.1V122.335C227.65 122.465 227.476 122.591 227.301 122.716V119.1H227.823Z" fill="#FFA412"/>
<path d="M222.55 119.1H222.027V124.203H222.55V119.1Z" fill="#FFA412"/>
<path d="M217.614 119.1H217.091V124.203H217.614V119.1Z" fill="#FFA412"/>
<path d="M213.207 119.1H212.685V124.203H213.207V119.1Z" fill="#FFA412"/>
<path d="M235.022 114.006V115.976C235.418 115.563 235.805 115.143 236.184 114.716V114.006H235.022ZM235.022 114.006V115.976C235.418 115.563 235.805 115.143 236.184 114.716C236.361 114.52 236.535 114.324 236.706 114.125C236.731 114.098 236.755 114.07 236.779 114.042C236.79 114.029 236.801 114.018 236.809 114.006H235.022ZM235.022 114.006V115.976C235.418 115.563 235.805 115.143 236.184 114.716C236.361 114.52 236.535 114.324 236.706 114.125C236.731 114.098 236.755 114.07 236.779 114.042C236.79 114.029 236.801 114.018 236.809 114.006H235.022ZM235.022 114.006V115.976C235.418 115.563 235.805 115.143 236.184 114.716C236.361 114.52 236.535 114.324 236.706 114.125C236.731 114.098 236.755 114.07 236.779 114.042C236.79 114.029 236.801 114.018 236.809 114.006H235.022ZM235.022 114.006V115.976C235.418 115.563 235.805 115.143 236.184 114.716C236.361 114.52 236.535 114.324 236.706 114.125C236.731 114.098 236.755 114.07 236.779 114.042C236.79 114.029 236.801 114.018 236.809 114.006H235.022ZM235.022 114.006V115.976C235.418 115.563 235.805 115.143 236.184 114.716C236.361 114.52 236.535 114.324 236.706 114.125C236.731 114.098 236.755 114.07 236.779 114.042C236.79 114.029 236.801 114.018 236.809 114.006H235.022ZM235.022 114.006V115.976C235.418 115.563 235.805 115.143 236.184 114.716V114.006H235.022ZM193.521 114.006C193.439 114.006 193.358 114.014 193.28 114.032C193.269 114.034 193.258 114.036 193.247 114.039C192.827 114.146 192.501 114.493 192.425 114.924C192.419 114.953 192.416 114.982 192.413 115.013C192.412 115.028 192.411 115.043 192.409 115.058C192.409 115.078 192.408 115.096 192.408 115.115V117.997C192.408 118.016 192.409 118.036 192.409 118.054C192.411 118.08 192.412 118.105 192.416 118.13C192.423 118.182 192.433 118.23 192.446 118.279C192.571 118.756 193.007 119.108 193.521 119.108H231.797C231.801 119.105 231.804 119.102 231.807 119.099C232.117 118.821 232.427 118.539 232.73 118.252C232.907 118.088 233.081 117.923 233.254 117.755C233.676 117.351 234.093 116.938 234.499 116.519C234.676 116.339 234.851 116.158 235.022 115.976C235.418 115.563 235.805 115.143 236.184 114.716C236.361 114.52 236.535 114.324 236.706 114.125C236.731 114.098 236.755 114.07 236.779 114.042C236.79 114.029 236.801 114.018 236.809 114.006H193.521Z" fill="#FFB93E"/>
<path d="M218.037 119.107H193.401C192.872 119.107 192.436 118.638 192.409 118.053C192.409 118.034 192.408 118.016 192.408 117.996V115.115C192.408 115.095 192.408 115.077 192.409 115.058C192.409 115.043 192.411 115.026 192.412 115.011C192.452 114.53 192.77 114.136 193.182 114.032C193.196 114.028 193.21 114.025 193.224 114.022C193.281 114.011 193.34 114.004 193.4 114.004H215.01C215.013 114.016 215.015 114.028 215.018 114.04C215.366 115.536 216.172 117.589 218.024 119.099C218.03 119.102 218.034 119.104 218.037 119.107Z" fill="#FFA412"/>
<path d="M235.022 114.005V115.975C234.85 116.157 234.676 116.338 234.499 116.518V114.005H235.022Z" fill="#FFA412"/>
<path d="M233.253 114.005V117.754C233.081 117.922 232.907 118.087 232.73 118.252V114.005H233.253Z" fill="#FFA412"/>
<path d="M231.131 114.005H230.608V119.108H231.131V114.005Z" fill="#FFA412"/>
<path d="M227.879 114.005H227.357V119.108H227.879V114.005Z" fill="#FFA412"/>
<path d="M224.441 114.005H223.919V119.108H224.441V114.005Z" fill="#FFA412"/>
<path d="M219.17 114.005H218.647V119.108H219.17V114.005Z" fill="#FFA412"/>
<path d="M214.234 114.005H213.711V119.108H214.234V114.005Z" fill="#FFA412"/>
<path d="M209.826 114.005H209.303V119.108H209.826V114.005Z" fill="#FFA412"/>
<path d="M236.706 114.005V114.124C236.534 114.323 236.36 114.519 236.183 114.715V114.005H236.706Z" fill="#FFA412"/>
<path d="M236.779 109.066V108.939H236.61V114.006H236.809C236.942 113.856 237.071 113.705 237.199 113.552C237.376 113.345 237.55 113.136 237.722 112.926V109.066H236.779ZM240.331 109.43C240.3 109.386 240.267 109.344 240.231 109.304C240.228 109.301 240.224 109.297 240.221 109.294C240.218 109.29 240.215 109.287 240.213 109.284C240.204 109.275 240.195 109.266 240.186 109.258C240.174 109.247 240.163 109.236 240.15 109.225C240.137 109.213 240.126 109.202 240.114 109.193C240.089 109.172 240.062 109.152 240.034 109.133C239.998 109.108 239.961 109.085 239.922 109.066H239.92C239.902 109.056 239.884 109.047 239.866 109.038C239.856 109.034 239.846 109.03 239.838 109.026C239.828 109.021 239.818 109.019 239.809 109.015C239.743 108.988 239.675 108.97 239.605 108.958C239.6 108.956 239.594 108.956 239.59 108.955C239.586 108.953 239.58 108.952 239.576 108.952C239.569 108.952 239.562 108.951 239.555 108.949C239.55 108.948 239.541 108.946 239.534 108.946C239.53 108.946 239.525 108.945 239.52 108.945H239.516C239.509 108.944 239.502 108.944 239.494 108.944C239.466 108.941 239.438 108.939 239.409 108.939H193.425C192.831 108.939 192.344 109.408 192.313 109.993C192.313 110.012 192.312 110.031 192.312 110.05V112.932C192.312 112.951 192.313 112.969 192.313 112.989C192.315 113.022 192.317 113.055 192.322 113.089C192.391 113.56 192.758 113.938 193.226 114.023C193.244 114.027 193.262 114.03 193.28 114.033C193.327 114.038 193.376 114.043 193.425 114.043H236.779C236.79 114.03 236.801 114.019 236.809 114.006C236.942 113.856 237.071 113.705 237.199 113.552C237.376 113.345 237.55 113.136 237.722 112.926C237.909 112.702 238.092 112.474 238.273 112.246C238.452 112.025 238.626 111.804 238.797 111.58C238.895 111.458 238.99 111.335 239.083 111.212C239.258 110.982 239.433 110.75 239.605 110.516C239.675 110.425 239.743 110.331 239.809 110.238C239.987 109.999 240.161 109.758 240.331 109.515C240.342 109.501 240.352 109.49 240.36 109.476C240.36 109.475 240.36 109.475 240.36 109.475C240.351 109.46 240.341 109.444 240.331 109.43ZM236.779 109.066V108.939H236.61V114.006H236.809C236.942 113.856 237.071 113.705 237.199 113.552C237.376 113.345 237.55 113.136 237.722 112.926V109.066H236.779Z" fill="#FFB93E"/>
<path d="M217.941 114.043H193.306C193.286 114.043 193.267 114.043 193.247 114.042C193.226 114.04 193.205 114.038 193.183 114.035C192.709 113.97 192.337 113.529 192.312 112.991C192.312 112.971 192.311 112.953 192.311 112.934V110.052C192.311 110.033 192.311 110.015 192.312 109.995C192.339 109.411 192.775 108.941 193.304 108.941H214.914C214.924 108.983 214.934 109.025 214.945 109.068C215.303 110.546 216.103 112.53 217.897 114.008C217.911 114.018 217.926 114.031 217.941 114.043Z" fill="#FFA412"/>
<path d="M234.927 108.939H234.404V114.041H234.927V108.939Z" fill="#FFA412"/>
<path d="M233.157 108.939H232.635V114.041H233.157V108.939Z" fill="#FFA412"/>
<path d="M231.036 108.939H230.514V114.041H231.036V108.939Z" fill="#FFA412"/>
<path d="M227.784 108.939H227.262V114.041H227.784V108.939Z" fill="#FFA412"/>
<path d="M224.345 108.939H223.822V114.041H224.345V108.939Z" fill="#FFA412"/>
<path d="M219.073 108.939H218.551V114.041H219.073V108.939Z" fill="#FFA412"/>
<path d="M214.137 108.939H213.615V114.041H214.137V108.939Z" fill="#FFA412"/>
<path d="M209.731 108.939H209.208V114.041H209.731V108.939Z" fill="#FFA412"/>
<path d="M236.609 108.939H236.087V114.041H236.609V108.939Z" fill="#FFA412"/>
<path d="M237.723 108.939V112.926C237.552 113.136 237.378 113.345 237.201 113.552V108.939H237.723Z" fill="#FFA412"/>
<path d="M238.799 108.939V111.58C238.627 111.804 238.453 112.025 238.275 112.246V108.939H238.799Z" fill="#FFA412"/>
<path d="M239.606 108.958V110.516C239.433 110.75 239.259 110.982 239.084 111.212V108.939H239.41C239.439 108.939 239.467 108.941 239.495 108.944C239.503 108.944 239.51 108.944 239.517 108.945H239.521C239.525 108.945 239.531 108.946 239.535 108.946C239.542 108.946 239.55 108.948 239.556 108.949C239.563 108.951 239.57 108.952 239.577 108.953C239.581 108.953 239.585 108.953 239.591 108.955C239.595 108.956 239.6 108.956 239.606 108.958Z" fill="#FFA412"/>
<path d="M242.896 105.073V105.61C242.834 105.714 242.771 105.818 242.706 105.921C242.534 106.202 242.362 106.48 242.183 106.757C242.118 106.864 242.049 106.971 241.98 107.077C241.808 107.345 241.634 107.612 241.457 107.876C241.364 108.019 241.268 108.16 241.172 108.302C241 108.558 240.826 108.811 240.649 109.062V109.065H195.799C195.616 109.065 195.44 109.019 195.287 108.939C195.056 108.819 194.873 108.62 194.773 108.378C194.73 108.279 194.703 108.172 194.692 108.061L194.688 108.011V105.016C194.695 104.887 194.724 104.761 194.773 104.647C194.941 104.246 195.338 103.962 195.799 103.962H241.783C241.852 103.962 241.916 103.967 241.98 103.98C242.051 103.993 242.119 104.011 242.183 104.037C242.398 104.119 242.579 104.266 242.706 104.453C242.827 104.629 242.896 104.842 242.896 105.073Z" fill="#FFB93E"/>
<path d="M220.316 109.065H195.68C195.516 109.065 195.36 109.019 195.223 108.939C194.932 108.769 194.725 108.442 194.692 108.061C194.691 108.044 194.69 108.028 194.688 108.011C194.688 107.992 194.687 107.974 194.687 107.954V105.073C194.687 105.053 194.687 105.035 194.688 105.016C194.715 104.432 195.151 103.962 195.68 103.962H217.29C217.626 105.423 218.396 107.428 220.164 108.939C220.214 108.982 220.264 109.023 220.316 109.065Z" fill="#FFA412"/>
<path d="M237.301 103.962H236.778V109.065H237.301V103.962Z" fill="#FFA412"/>
<path d="M235.531 103.962H235.009V109.065H235.531V103.962Z" fill="#FFA412"/>
<path d="M233.41 103.962H232.887V109.065H233.41V103.962Z" fill="#FFA412"/>
<path d="M230.158 103.962H229.636V109.065H230.158V103.962Z" fill="#FFA412"/>
<path d="M226.72 103.962H226.198V109.065H226.72V103.962Z" fill="#FFA412"/>
<path d="M221.449 103.962H220.926V109.065H221.449V103.962Z" fill="#FFA412"/>
<path d="M216.513 103.962H215.99V109.065H216.513V103.962Z" fill="#FFA412"/>
<path d="M212.105 103.962H211.582V109.065H212.105V103.962Z" fill="#FFA412"/>
<path d="M238.985 103.962H238.462V109.065H238.985V103.962Z" fill="#FFA412"/>
<path d="M240.098 103.962H239.575V109.065H240.098V103.962Z" fill="#FFA412"/>
<path d="M241.172 103.962V108.302C241 108.558 240.826 108.811 240.649 109.062V103.962H241.172Z" fill="#FFA412"/>
<path d="M241.98 103.98V107.077C241.808 107.345 241.634 107.612 241.457 107.876V103.962H241.783C241.852 103.962 241.916 103.967 241.98 103.98Z" fill="#FFA412"/>
<path d="M242.706 104.453V105.921C242.534 106.202 242.362 106.48 242.183 106.757V104.037C242.398 104.119 242.579 104.267 242.706 104.453Z" fill="#FFA412"/>
<path d="M246.34 99.1973C246.21 99.474 246.078 99.7479 245.943 100.022C245.876 100.161 245.809 100.299 245.739 100.436C245.568 100.782 245.394 101.126 245.217 101.467C245.124 101.65 245.029 101.832 244.931 102.014C244.76 102.343 244.584 102.668 244.408 102.991C244.229 103.317 244.048 103.641 243.864 103.963H199.559C198.966 103.963 198.477 103.494 198.447 102.909C198.446 102.89 198.446 102.871 198.446 102.852V99.9704C198.446 99.9509 198.446 99.9329 198.447 99.9134C198.475 99.3739 198.895 98.9317 199.427 98.8677C199.47 98.8622 199.514 98.8594 199.559 98.8594H239.633C239.635 98.8608 239.636 98.8594 239.638 98.8594H245.543C245.61 98.8594 245.675 98.8663 245.739 98.8775C245.809 98.89 245.877 98.9094 245.943 98.9345C245.962 98.9428 245.982 98.9498 246.001 98.9595C246.015 98.9651 246.029 98.972 246.043 98.9803C246.082 98.9984 246.12 99.0207 246.156 99.0457C246.171 99.0554 246.187 99.0666 246.202 99.0777C246.207 99.0805 246.212 99.0846 246.217 99.0888C246.23 99.0985 246.241 99.1069 246.252 99.1166C246.283 99.1416 246.312 99.1681 246.34 99.1973Z" fill="#FFB93E"/>
<path d="M224.074 103.963H199.439C198.91 103.963 198.474 103.494 198.447 102.909C198.447 102.889 198.446 102.871 198.446 102.852V99.9704C198.446 99.9509 198.446 99.9329 198.447 99.9134C198.472 99.3739 198.847 98.9317 199.322 98.8677C199.36 98.8622 199.4 98.8594 199.439 98.8594H221.049C221.049 98.8622 221.051 98.8649 221.051 98.8677C221.397 100.369 222.201 102.443 224.074 103.963Z" fill="#FFA412"/>
<path d="M241.06 98.8604H240.537V103.964H241.06V98.8604Z" fill="#FFA412"/>
<path d="M239.29 98.8604H238.768V103.964H239.29V98.8604Z" fill="#FFA412"/>
<path d="M237.169 98.8604H236.646V103.964H237.169V98.8604Z" fill="#FFA412"/>
<path d="M233.917 98.8604H233.395V103.964H233.917V98.8604Z" fill="#FFA412"/>
<path d="M230.478 98.8604H229.955V103.964H230.478V98.8604Z" fill="#FFA412"/>
<path d="M225.206 98.8604H224.684V103.964H225.206V98.8604Z" fill="#FFA412"/>
<path d="M220.27 98.8604H219.747V103.964H220.27V98.8604Z" fill="#FFA412"/>
<path d="M215.864 98.8613H215.341V103.965H215.864V98.8613Z" fill="#FFA412"/>
<path d="M242.742 98.8604H242.22V103.964H242.742V98.8604Z" fill="#FFA412"/>
<path d="M243.856 98.8604H243.334V103.964H243.856V98.8604Z" fill="#FFA412"/>
<path d="M244.931 98.8604V102.014C244.76 102.342 244.585 102.668 244.408 102.99V98.8604H244.931Z" fill="#FFA412"/>
<path d="M245.739 98.8775V100.436C245.567 100.782 245.393 101.126 245.216 101.467V98.8594H245.542C245.609 98.8594 245.675 98.8663 245.739 98.8775Z" fill="#FFA412"/>
<path d="M246.339 99.1974C246.21 99.4741 246.077 99.748 245.942 100.022V98.9346C245.962 98.9429 245.981 98.9499 246.001 98.9596C246.015 98.9652 246.029 98.9721 246.043 98.9805C246.082 98.9985 246.119 99.0208 246.155 99.0458C246.171 99.0556 246.186 99.0667 246.201 99.0778C246.207 99.0806 246.211 99.0848 246.217 99.0889C246.229 99.0987 246.24 99.107 246.252 99.1167C246.282 99.1418 246.311 99.1682 246.339 99.1974Z" fill="#FFA412"/>
<path d="M240.618 94.8747V97.7558C240.618 97.9853 240.548 98.198 240.427 98.376C240.3 98.5624 240.118 98.7097 239.905 98.7918C239.839 98.8168 239.771 98.8363 239.701 98.8488C239.68 98.853 239.658 98.8557 239.637 98.8585C239.621 98.8613 239.602 98.8627 239.586 98.8641C239.577 98.8641 239.569 98.8655 239.559 98.8655C239.541 98.8655 239.523 98.8669 239.505 98.8669H193.521C192.928 98.8669 192.44 98.3983 192.409 97.8129C192.409 97.7934 192.408 97.7753 192.408 97.7558V94.8747C192.408 94.8552 192.408 94.8372 192.409 94.8177C192.44 94.2337 192.928 93.7637 193.521 93.7637H239.505C239.524 93.7637 239.544 93.7637 239.563 93.7651C239.611 93.7678 239.655 93.7734 239.7 93.7817C239.77 93.7943 239.838 93.8137 239.903 93.8388C239.937 93.8513 239.969 93.8652 239.999 93.8819C240.019 93.8916 240.038 93.9013 240.057 93.9125C240.058 93.9125 240.061 93.9139 240.062 93.9166C240.082 93.9278 240.1 93.9389 240.118 93.9514C240.122 93.9528 240.125 93.9556 240.128 93.957C240.144 93.9681 240.161 93.9806 240.178 93.9931C240.217 94.0223 240.254 94.0543 240.288 94.0891C240.299 94.1002 240.309 94.1099 240.32 94.121C240.321 94.1224 240.324 94.1252 240.325 94.1266C240.332 94.1335 240.338 94.1405 240.345 94.1475C240.346 94.1488 240.348 94.1502 240.349 94.1516C240.36 94.1641 240.371 94.178 240.381 94.192C240.397 94.2114 240.412 94.2309 240.426 94.2517C240.547 94.4325 240.618 94.6453 240.618 94.8747Z" fill="#FFB93E"/>
<path d="M218.037 98.8669H193.401C192.872 98.8669 192.436 98.3983 192.409 97.8129C192.409 97.7934 192.408 97.7753 192.408 97.7558V94.8747C192.408 94.8552 192.408 94.8372 192.409 94.8177C192.436 94.2337 192.872 93.7637 193.401 93.7637H215.011C215.02 93.8026 215.029 93.8415 215.039 93.8819C215.397 95.3711 216.206 97.3748 218.026 98.8585C218.03 98.8613 218.034 98.8641 218.037 98.8669Z" fill="#FFA412"/>
<path d="M235.022 93.7646H234.499V98.8678H235.022V93.7646Z" fill="#FFA412"/>
<path d="M233.252 93.7646H232.73V98.8678H233.252V93.7646Z" fill="#FFA412"/>
<path d="M231.131 93.7646H230.608V98.8678H231.131V93.7646Z" fill="#FFA412"/>
<path d="M227.879 93.7646H227.357V98.8678H227.879V93.7646Z" fill="#FFA412"/>
<path d="M224.441 93.7646H223.919V98.8678H224.441V93.7646Z" fill="#FFA412"/>
<path d="M219.17 93.7646H218.647V98.8678H219.17V93.7646Z" fill="#FFA412"/>
<path d="M214.234 93.7646H213.711V98.8678H214.234V93.7646Z" fill="#FFA412"/>
<path d="M209.826 93.7646H209.303V98.8678H209.826V93.7646Z" fill="#FFA412"/>
<path d="M236.706 93.7646H236.183V98.8678H236.706V93.7646Z" fill="#FFA412"/>
<path d="M237.818 93.7646H237.296V98.8678H237.818V93.7646Z" fill="#FFA412"/>
<path d="M238.893 93.7646H238.37V98.8678H238.893V93.7646Z" fill="#FFA412"/>
<path d="M239.701 93.7827V98.8498C239.637 98.8609 239.571 98.8678 239.504 98.8678H239.178V93.7646H239.504C239.571 93.7646 239.637 93.7702 239.701 93.7827Z" fill="#FFA412"/>
<path d="M240.427 94.2537V98.3751C240.3 98.5615 240.117 98.7089 239.904 98.7909V93.8379C240.117 93.9213 240.3 94.0673 240.427 94.2537Z" fill="#FFA412"/>
<path d="M243.998 89.8923V92.7734C243.998 93.0029 243.928 93.2156 243.807 93.3936C243.68 93.5799 243.498 93.7273 243.285 93.8094C243.219 93.8358 243.151 93.8539 243.081 93.8664C243.017 93.8775 242.952 93.8844 242.885 93.8844H196.902C196.724 93.8844 196.556 93.8427 196.405 93.7663C196.069 93.598 195.83 93.2657 195.793 92.8763C195.792 92.861 195.791 92.8457 195.791 92.8304C195.791 92.811 195.789 92.7929 195.789 92.7734V89.8923C195.789 89.8728 195.789 89.8547 195.791 89.8353C195.819 89.2943 196.238 88.8536 196.77 88.7896C196.813 88.784 196.856 88.7812 196.901 88.7812H242.885C242.952 88.7812 243.017 88.7868 243.081 88.7993C243.151 88.8118 243.219 88.8313 243.285 88.8563C243.498 88.9384 243.68 89.0858 243.807 89.2721C243.928 89.4487 243.998 89.6615 243.998 89.8923Z" fill="#FFB93E"/>
<path d="M221.418 93.8825H196.783C196.624 93.8825 196.473 93.8408 196.34 93.7643C196.04 93.596 195.827 93.2637 195.793 92.8744C195.792 92.8591 195.791 92.8438 195.791 92.8285C195.791 92.809 195.789 92.7909 195.789 92.7715V89.8903C195.789 89.8709 195.789 89.8528 195.791 89.8333C195.816 89.2938 196.191 88.8516 196.666 88.7876C196.703 88.7821 196.744 88.7793 196.783 88.7793H218.393C218.393 88.7821 218.394 88.7849 218.394 88.7876C218.731 90.2505 219.504 92.2556 221.276 93.7643C221.322 93.8046 221.37 93.845 221.418 93.8825Z" fill="#FFA412"/>
<path d="M238.403 88.7803H237.881V93.8821H238.403V88.7803Z" fill="#FFA412"/>
<path d="M236.634 88.7803H236.111V93.8821H236.634V88.7803Z" fill="#FFA412"/>
<path d="M234.513 88.7803H233.99V93.8821H234.513V88.7803Z" fill="#FFA412"/>
<path d="M231.261 88.7803H230.738V93.8821H231.261V88.7803Z" fill="#FFA412"/>
<path d="M227.823 88.7803H227.301V93.8821H227.823V88.7803Z" fill="#FFA412"/>
<path d="M222.55 88.7803H222.027V93.8821H222.55V88.7803Z" fill="#FFA412"/>
<path d="M217.614 88.7803H217.091V93.8821H217.614V88.7803Z" fill="#FFA412"/>
<path d="M213.207 88.7803H212.685V93.8821H213.207V88.7803Z" fill="#FFA412"/>
<path d="M240.088 88.7803H239.565V93.8821H240.088V88.7803Z" fill="#FFA412"/>
<path d="M241.2 88.7803H240.677V93.8821H241.2V88.7803Z" fill="#FFA412"/>
<path d="M242.273 88.7803H241.75V93.8821H242.273V88.7803Z" fill="#FFA412"/>
<path d="M243.082 88.7984V93.8654C243.018 93.8765 242.953 93.8835 242.886 93.8835H242.56V88.7803H242.886C242.953 88.7803 243.018 88.7858 243.082 88.7984Z" fill="#FFA412"/>
<path d="M243.808 89.2712V93.3927C243.682 93.5791 243.499 93.7264 243.286 93.8085V88.8555C243.499 88.9375 243.682 89.0835 243.808 89.2712Z" fill="#FFA412"/>
<path d="M240.618 84.7966V87.6777C240.618 87.9072 240.548 88.1199 240.427 88.2979C240.3 88.4842 240.118 88.6316 239.905 88.7137C239.839 88.7401 239.771 88.7582 239.701 88.7707C239.68 88.7748 239.658 88.7776 239.637 88.7804C239.626 88.7818 239.614 88.7832 239.601 88.7846C239.59 88.786 239.577 88.786 239.565 88.7874C239.545 88.7887 239.526 88.7887 239.506 88.7887H193.521C192.928 88.7887 192.44 88.3201 192.409 87.7347C192.409 87.7153 192.408 87.6972 192.408 87.6777V84.7966C192.408 84.7771 192.408 84.759 192.409 84.7396C192.44 84.1555 192.928 83.6855 193.521 83.6855H239.505C239.572 83.6855 239.637 83.6911 239.701 83.7036C239.771 83.7161 239.839 83.7356 239.905 83.7606C240.118 83.8427 240.3 83.9901 240.427 84.1764C240.547 84.353 240.618 84.5671 240.618 84.7966Z" fill="#FFB93E"/>
<path d="M218.037 88.7887H193.401C192.872 88.7887 192.436 88.3201 192.409 87.7347C192.409 87.7153 192.408 87.6972 192.408 87.6777V84.7966C192.408 84.7771 192.408 84.759 192.409 84.7396C192.436 84.1555 192.872 83.6855 193.401 83.6855H215.011C215.355 85.1859 216.158 87.2578 218.027 88.7804C218.03 88.7832 218.034 88.786 218.037 88.7887Z" fill="#FFA412"/>
<path d="M235.022 83.6855H234.499V88.7887H235.022V83.6855Z" fill="#FFA412"/>
<path d="M233.252 83.6855H232.73V88.7887H233.252V83.6855Z" fill="#FFA412"/>
<path d="M231.131 83.6855H230.608V88.7887H231.131V83.6855Z" fill="#FFA412"/>
<path d="M227.879 83.6855H227.357V88.7887H227.879V83.6855Z" fill="#FFA412"/>
<path d="M224.441 83.6855H223.919V88.7887H224.441V83.6855Z" fill="#FFA412"/>
<path d="M219.17 83.6855H218.647V88.7887H219.17V83.6855Z" fill="#FFA412"/>
<path d="M214.234 83.6855H213.711V88.7887H214.234V83.6855Z" fill="#FFA412"/>
<path d="M209.826 83.6855H209.303V88.7887H209.826V83.6855Z" fill="#FFA412"/>
<path d="M236.706 83.6855H236.183V88.7887H236.706V83.6855Z" fill="#FFA412"/>
<path d="M237.818 83.6855H237.296V88.7887H237.818V83.6855Z" fill="#FFA412"/>
<path d="M238.893 83.6855H238.37V88.7887H238.893V83.6855Z" fill="#FFA412"/>
<path d="M239.701 83.7036V88.7707C239.637 88.7818 239.571 88.7887 239.504 88.7887H239.178V83.6855H239.504C239.571 83.6855 239.637 83.6911 239.701 83.7036Z" fill="#FFA412"/>
<path d="M240.427 84.1765V88.298C240.3 88.4843 240.117 88.6317 239.904 88.7138V83.7607C240.117 83.8428 240.3 83.9902 240.427 84.1765Z" fill="#FFA412"/>
<path d="M224.005 74.1873L201.64 49.2734C199.23 46.5897 194.775 48.2903 194.775 51.8945V114.672C194.775 114.672 224.005 118.719 224.005 114.672C224.005 110.626 224.005 74.1873 224.005 74.1873Z" fill="#ED7D2B"/>
<path d="M184.812 113.801L194.607 112.552C194.607 112.552 193.788 106.527 195.184 98.3872C196.213 92.3746 198.45 85.2093 203.116 78.4667C211.072 66.9671 235.819 59.6975 235.819 59.6975L235.759 58.2541L234.857 58.1943C234.857 58.1943 235.233 57.9079 235.739 57.7313L235.598 54.319C234.858 54.3384 233.802 54.426 232.767 54.7139C233.347 54.5442 234.584 54.2063 235.588 54.0867L235.514 52.293C199.332 54.7542 188.423 77.0789 185.421 94.1336C183.495 105.046 184.812 113.801 184.812 113.801Z" fill="#82B378"/>
<path d="M141.662 112.401L184.814 113.801C184.762 107.178 186.208 100.267 187.667 95.0121C189.124 89.7574 190.596 86.1587 190.596 86.1587C202.301 57.4807 235.513 52.2899 235.513 52.2899L197.848 38.6768C180.01 40.7584 167.812 49.8537 159.478 60.9862C143.155 82.7909 141.662 112.401 141.662 112.401Z" fill="#A8D29F"/>
<path opacity="0.5" d="M141.662 112.4L184.814 113.801L194.609 112.552C194.609 112.552 193.789 106.527 195.185 98.3866C193.085 97.2395 190.596 96.109 187.667 95.0119C186.898 94.724 186.148 94.4292 185.421 94.1303C157.507 82.6418 159.246 62.8798 159.48 60.9873C143.155 82.7906 141.662 112.4 141.662 112.4Z" fill="#82B378"/>
<path d="M197.687 40.8809L197.573 40.8836C197.249 40.8892 189.538 41.0908 179.823 46.1759C174.131 49.1572 168.943 53.2078 164.406 58.2164C162.649 60.1548 160.99 62.2392 159.431 64.4626C157.677 66.9642 156.05 69.6409 154.557 72.4845C153.768 73.9849 153.016 75.5311 152.302 77.1233C152.24 77.2651 152.176 77.407 152.114 77.5488C151.574 78.7711 151.056 80.0183 150.56 81.2921C150.367 81.769 147.205 89.7242 145.487 97.8336C145.305 98.6916 145.14 99.5509 144.997 100.405C144.898 100.983 144.81 101.559 144.734 102.128C144.537 103.59 144.417 105.014 144.401 106.353C144.391 107.058 144.41 107.74 144.463 108.39L144.465 108.402L144.803 111.781L144.876 112.505L144.983 113.583L145.093 114.678L145.132 115.068L145.182 115.568L172.517 113.911L174.773 113.775L175.034 113.759L176.513 113.669L177.99 113.58H177.997L183.49 113.246L183.324 112.516C183.302 112.42 181.47 104.035 183.635 93.3687C183.687 93.1128 183.741 92.857 183.798 92.5983C183.969 91.8113 184.163 91.0132 184.383 90.2053C184.552 89.5823 184.734 88.9524 184.933 88.3197C185.147 87.6425 185.374 86.9709 185.615 86.3077C185.644 86.227 185.673 86.145 185.704 86.0643C186.803 83.0789 188.184 80.2367 189.837 77.5502C189.925 77.407 190.014 77.2651 190.103 77.1233C191.113 75.52 192.221 73.9724 193.427 72.4845C193.862 71.9464 194.31 71.4152 194.773 70.8924C195.539 70.0219 196.342 69.1751 197.177 68.3491C198.221 67.3188 199.319 66.3231 200.469 65.3623C200.475 65.3581 200.479 65.354 200.485 65.3498C203.38 62.9372 206.612 60.7444 210.171 58.7782C210.471 58.6113 210.774 58.4473 211.079 58.2846C211.082 58.2832 211.084 58.2818 211.086 58.2804C211.089 58.279 211.092 58.2776 211.095 58.2762C215.639 55.8526 220.697 53.789 226.241 52.1009L228.103 51.5336L197.687 40.8809ZM220.692 52.6168C216.593 54.1227 212.791 55.8553 209.298 57.8048C204.309 60.5887 199.948 63.816 196.252 67.4703C195.747 67.9709 195.252 68.4784 194.773 68.9943C193.721 70.1206 192.729 71.2845 191.797 72.4845C188.366 76.9022 185.744 81.8121 183.972 87.1489C183.907 87.3394 183.845 87.5313 183.785 87.7232C183.755 87.8136 183.726 87.904 183.698 87.9957C183.316 89.2166 182.99 90.4194 182.716 91.5958C182.618 92.0088 182.527 92.4176 182.444 92.8236V92.825C182.345 93.2964 182.254 93.7608 182.169 94.2225C181.368 98.6527 181.236 102.566 181.31 105.408C181.393 108.603 181.736 110.945 181.935 112.064L176.332 112.403L174.86 112.492L174.545 112.512L172.337 112.645L164.286 113.135H164.276L146.33 114.222L146.163 112.547L145.737 108.282C145.688 107.684 145.67 107.04 145.68 106.353C145.714 103.989 146.093 101.118 146.804 97.8336C147.232 95.8522 147.779 93.7191 148.445 91.4553C150.03 86.0601 151.73 81.801 151.748 81.7593C152.307 80.3229 152.895 78.9184 153.51 77.5502C153.566 77.425 153.623 77.2999 153.682 77.1747C154.414 75.5631 155.189 73.9988 156.003 72.4845C157.139 70.3626 158.354 68.3366 159.641 66.4135C161.399 63.7855 163.294 61.3465 165.32 59.1078C169.747 54.2131 174.805 50.2529 180.356 47.3384C186.377 44.175 191.689 42.9402 194.774 42.4605C196.395 42.2088 198.051 42.359 199.597 42.9013L220.678 50.2835C221.777 50.6687 221.785 52.215 220.692 52.6168Z" fill="#82B378"/>
<path d="M163.99 70.7476C164.25 77.0522 168.109 80.7079 174.424 80.4478C180.74 80.1878 187.122 76.108 186.862 69.8048C186.601 63.5002 182.947 59.8751 176.631 60.1352C170.316 60.3952 163.729 64.4444 163.99 70.7476Z" fill="#82B378"/>
<path d="M224.004 74.1878V124.901C223.196 125.396 222.373 125.872 221.533 126.325C220.889 126.674 220.237 127.011 219.577 127.335C218.575 127.826 217.554 128.29 216.512 128.724C216.34 128.798 216.165 128.87 215.99 128.941C215.686 129.065 215.381 129.185 215.073 129.304C214.629 129.476 214.182 129.643 213.73 129.806C212.731 130.166 211.713 130.5 210.678 130.81C210.312 130.921 209.942 131.027 209.572 131.129C208.145 131.53 206.687 131.883 205.195 132.189C204.049 132.487 202.886 132.694 201.713 132.811C199.002 133.226 196.19 133.496 193.275 133.616C192.8 133.637 192.321 133.652 191.84 133.663C191.14 133.681 190.432 133.689 189.719 133.689C188.862 133.689 187.999 133.68 187.134 133.66C179.859 133.499 172.335 132.653 165.067 131.107C164.518 130.99 163.971 130.871 163.425 130.746C156.973 129.272 150.757 127.239 145.132 124.633C144.988 124.568 144.846 124.501 144.706 124.434C143.29 123.768 141.912 123.064 140.579 122.323V74.1878C140.579 73.2505 141.347 72.4844 142.286 72.4844H222.297C222.361 72.4844 222.423 72.4885 222.485 72.4941C223.336 72.5887 224.004 73.3145 224.004 74.1878Z" fill="#F99746"/>
<path d="M147.854 77.123H146.432C146.315 77.123 146.219 77.219 146.219 77.3358C146.219 77.454 146.315 77.5499 146.432 77.5499H147.854C147.973 77.5499 148.067 77.454 148.067 77.3358C148.067 77.219 147.973 77.123 147.854 77.123ZM150.699 77.123H149.277C149.16 77.123 149.063 77.219 149.063 77.3358C149.063 77.454 149.16 77.5499 149.277 77.5499H150.699C150.817 77.5499 150.913 77.454 150.913 77.3358C150.913 77.219 150.817 77.123 150.699 77.123ZM153.682 77.1745C153.644 77.1425 153.597 77.123 153.545 77.123H152.123C152.004 77.123 151.908 77.219 151.908 77.3358C151.908 77.4512 152 77.5458 152.114 77.5485C152.117 77.5499 152.12 77.5499 152.123 77.5499H153.545C153.662 77.5499 153.758 77.454 153.758 77.3358C153.758 77.2704 153.729 77.212 153.682 77.1745ZM156.39 77.123H154.967C154.849 77.123 154.754 77.219 154.754 77.3358C154.754 77.454 154.849 77.5499 154.967 77.5499H156.39C156.507 77.5499 156.603 77.454 156.603 77.3358C156.603 77.219 156.507 77.123 156.39 77.123ZM159.235 77.123H157.812C157.694 77.123 157.599 77.219 157.599 77.3358C157.599 77.454 157.694 77.5499 157.812 77.5499H159.235C159.353 77.5499 159.448 77.454 159.448 77.3358C159.448 77.219 159.353 77.123 159.235 77.123ZM162.079 77.123H160.657C160.54 77.123 160.444 77.219 160.444 77.3358C160.444 77.454 160.54 77.5499 160.657 77.5499H162.079C162.198 77.5499 162.292 77.454 162.292 77.3358C162.292 77.219 162.198 77.123 162.079 77.123ZM164.924 77.123H163.502C163.385 77.123 163.288 77.219 163.288 77.3358C163.288 77.454 163.385 77.5499 163.502 77.5499H164.924C165.042 77.5499 165.139 77.454 165.139 77.3358C165.139 77.219 165.042 77.123 164.924 77.123ZM167.77 77.123H166.346C166.268 77.123 166.2 77.1648 166.164 77.2273C166.144 77.2593 166.133 77.2969 166.133 77.3358C166.133 77.454 166.229 77.5499 166.346 77.5499H167.77C167.887 77.5499 167.983 77.454 167.983 77.3358C167.983 77.219 167.887 77.123 167.77 77.123ZM170.615 77.123H169.192C169.074 77.123 168.979 77.219 168.979 77.3358C168.979 77.454 169.074 77.5499 169.192 77.5499H170.615C170.732 77.5499 170.828 77.454 170.828 77.3358C170.828 77.219 170.732 77.123 170.615 77.123ZM173.46 77.123H172.037C171.919 77.123 171.824 77.219 171.824 77.3358C171.824 77.454 171.919 77.5499 172.037 77.5499H173.46C173.578 77.5499 173.673 77.454 173.673 77.3358C173.673 77.219 173.578 77.123 173.46 77.123ZM176.304 77.123H174.882C174.765 77.123 174.669 77.219 174.669 77.3358C174.669 77.454 174.765 77.5499 174.882 77.5499H176.304C176.423 77.5499 176.517 77.454 176.517 77.3358C176.517 77.219 176.423 77.123 176.304 77.123ZM179.149 77.123H177.727C177.61 77.123 177.514 77.219 177.514 77.3358C177.514 77.454 177.61 77.5499 177.727 77.5499H179.149C179.267 77.5499 179.364 77.454 179.364 77.3358C179.364 77.219 179.267 77.123 179.149 77.123ZM181.995 77.123H180.571C180.454 77.123 180.358 77.219 180.358 77.3358C180.358 77.454 180.454 77.5499 180.571 77.5499H181.995C182.112 77.5499 182.208 77.454 182.208 77.3358C182.208 77.219 182.112 77.123 181.995 77.123ZM184.84 77.123H183.418C183.306 77.123 183.214 77.2079 183.204 77.3163V77.3177C183.203 77.3247 183.203 77.3288 183.203 77.3358C183.203 77.454 183.299 77.5499 183.418 77.5499H184.84C184.957 77.5499 185.053 77.454 185.053 77.3358C185.053 77.219 184.957 77.123 184.84 77.123ZM187.685 77.123H186.262C186.144 77.123 186.049 77.219 186.049 77.3358C186.049 77.454 186.144 77.5499 186.262 77.5499H187.685C187.802 77.5499 187.898 77.454 187.898 77.3358C187.898 77.219 187.802 77.123 187.685 77.123ZM190.529 77.123H189.107C188.989 77.123 188.894 77.219 188.894 77.3358C188.894 77.454 188.989 77.5499 189.107 77.5499H190.529C190.648 77.5499 190.743 77.454 190.743 77.3358C190.743 77.219 190.648 77.123 190.529 77.123ZM193.374 77.123H191.952C191.835 77.123 191.739 77.219 191.739 77.3358C191.739 77.454 191.835 77.5499 191.952 77.5499H193.374C193.493 77.5499 193.587 77.454 193.587 77.3358C193.587 77.219 193.493 77.123 193.374 77.123ZM196.219 77.123H194.797C194.788 77.123 194.781 77.123 194.773 77.1258C194.667 77.137 194.583 77.2273 194.583 77.3358C194.583 77.4456 194.667 77.536 194.773 77.5472C194.781 77.5499 194.788 77.5499 194.797 77.5499H196.219C196.337 77.5499 196.433 77.454 196.433 77.3358C196.433 77.219 196.337 77.123 196.219 77.123ZM199.065 77.123H197.643C197.524 77.123 197.428 77.219 197.428 77.3358C197.428 77.454 197.524 77.5499 197.643 77.5499H199.065C199.182 77.5499 199.278 77.454 199.278 77.3358C199.278 77.219 199.182 77.123 199.065 77.123ZM201.91 77.123H200.487C200.369 77.123 200.274 77.219 200.274 77.3358C200.274 77.454 200.369 77.5499 200.487 77.5499H201.91C202.027 77.5499 202.123 77.454 202.123 77.3358C202.123 77.219 202.027 77.123 201.91 77.123ZM204.755 77.123H203.332C203.214 77.123 203.119 77.219 203.119 77.3358C203.119 77.454 203.214 77.5499 203.332 77.5499H204.755C204.873 77.5499 204.968 77.454 204.968 77.3358C204.968 77.219 204.873 77.123 204.755 77.123ZM207.599 77.123H206.177C206.06 77.123 205.964 77.219 205.964 77.3358C205.964 77.454 206.06 77.5499 206.177 77.5499H207.599C207.718 77.5499 207.812 77.454 207.812 77.3358C207.812 77.219 207.718 77.123 207.599 77.123ZM210.444 77.123H209.022C208.905 77.123 208.808 77.219 208.808 77.3358C208.808 77.454 208.905 77.5499 209.022 77.5499H210.444C210.562 77.5499 210.659 77.454 210.659 77.3358C210.659 77.219 210.562 77.123 210.444 77.123ZM213.29 77.123H211.868C211.749 77.123 211.653 77.219 211.653 77.3358C211.653 77.454 211.749 77.5499 211.868 77.5499H213.29C213.407 77.5499 213.503 77.454 213.503 77.3358C213.503 77.219 213.407 77.123 213.29 77.123ZM216.135 77.123H214.713C214.594 77.123 214.499 77.219 214.499 77.3358C214.499 77.454 214.594 77.5499 214.713 77.5499H216.135C216.252 77.5499 216.348 77.454 216.348 77.3358C216.348 77.219 216.252 77.123 216.135 77.123ZM217.539 77.7974C217.468 77.7029 217.334 77.6848 217.241 77.7571C217.146 77.828 217.128 77.9615 217.199 78.0547C217.369 78.2786 217.46 78.5428 217.46 78.8223V79.2783C217.46 79.3965 217.554 79.4925 217.673 79.4925C217.791 79.4925 217.886 79.3965 217.886 79.2783V78.8223C217.886 78.4496 217.766 78.095 217.539 77.7974ZM145.334 77.7738C145.238 77.7043 145.106 77.7251 145.034 77.8197C144.82 78.1131 144.706 78.4593 144.706 78.8223V79.3034C144.706 79.4216 144.8 79.5175 144.919 79.5175C145.036 79.5175 145.132 79.4216 145.132 79.3034V78.8223C145.132 78.5511 145.217 78.2911 145.379 78.0728C145.448 77.9768 145.429 77.8433 145.334 77.7738ZM217.673 80.4853C217.554 80.4853 217.46 80.5813 217.46 80.6995V82.1192C217.46 82.236 217.554 82.3319 217.673 82.3319C217.791 82.3319 217.886 82.236 217.886 82.1192V80.6995C217.886 80.5813 217.791 80.4853 217.673 80.4853ZM144.919 80.5103C144.8 80.5103 144.706 80.6063 144.706 80.7231V82.1442C144.706 82.261 144.8 82.357 144.919 82.357C145.036 82.357 145.132 82.261 145.132 82.1442V80.7231C145.132 80.6063 145.036 80.5103 144.919 80.5103ZM217.673 83.3261C217.554 83.3261 217.46 83.4207 217.46 83.5389V84.9586C217.46 85.0754 217.554 85.1714 217.673 85.1714C217.791 85.1714 217.886 85.0754 217.886 84.9586V83.5389C217.886 83.4207 217.791 83.3261 217.673 83.3261ZM144.919 83.3512C144.8 83.3512 144.706 83.4457 144.706 83.5639V84.9836C144.706 85.1004 144.8 85.1964 144.919 85.1964C145.036 85.1964 145.132 85.1004 145.132 84.9836V83.5639C145.132 83.4457 145.036 83.3512 144.919 83.3512ZM217.673 86.1656C217.554 86.1656 217.46 86.2601 217.46 86.3783V87.798C217.46 87.9162 217.554 88.0108 217.673 88.0108C217.791 88.0108 217.886 87.9162 217.886 87.798V86.3783C217.886 86.2601 217.791 86.1656 217.673 86.1656ZM144.919 86.1906C144.8 86.1906 144.706 86.2852 144.706 86.4034V87.8231C144.706 87.9413 144.8 88.0358 144.919 88.0358C145.036 88.0358 145.132 87.9413 145.132 87.8231V86.4034C145.132 86.2852 145.036 86.1906 144.919 86.1906ZM217.673 89.005C217.652 89.005 217.632 89.0078 217.614 89.0134C217.525 89.0384 217.46 89.1204 217.46 89.2178V90.6375C217.46 90.7348 217.525 90.8169 217.614 90.8419C217.632 90.8474 217.652 90.8502 217.673 90.8502C217.791 90.8502 217.886 90.7557 217.886 90.6375V89.2178C217.886 89.101 217.791 89.005 217.673 89.005ZM144.919 89.03C144.8 89.03 144.706 89.1246 144.706 89.2428V90.6625C144.706 90.7807 144.8 90.8753 144.919 90.8753C145.036 90.8753 145.132 90.7807 145.132 90.6625V89.2428C145.132 89.1246 145.036 89.03 144.919 89.03ZM217.673 91.8444C217.652 91.8444 217.632 91.8472 217.614 91.8528C217.525 91.8778 217.46 91.9599 217.46 92.0572V93.4769C217.46 93.5743 217.525 93.6577 217.614 93.6827C217.632 93.6883 217.652 93.6911 217.673 93.6911C217.791 93.6911 217.886 93.5951 217.886 93.4769V92.0572C217.886 91.9404 217.791 91.8444 217.673 91.8444ZM144.919 91.8695C144.8 91.8695 144.706 91.9654 144.706 92.0822V93.5019C144.706 93.552 144.722 93.5965 144.752 93.6327C144.789 93.6841 144.851 93.7161 144.919 93.7161C145.036 93.7161 145.132 93.6201 145.132 93.5019V92.0822C145.132 91.9654 145.036 91.8695 144.919 91.8695ZM217.673 94.6839C217.554 94.6839 217.46 94.7798 217.46 94.8966V96.3177C217.46 96.4345 217.554 96.5305 217.673 96.5305C217.791 96.5305 217.886 96.4345 217.886 96.3177V94.8966C217.886 94.7798 217.791 94.6839 217.673 94.6839ZM144.919 94.7089C144.8 94.7089 144.706 94.8049 144.706 94.9217V96.3428C144.706 96.4596 144.8 96.5555 144.919 96.5555C145.036 96.5555 145.132 96.4596 145.132 96.3428V94.9217C145.132 94.8049 145.036 94.7089 144.919 94.7089ZM217.673 97.5247C217.554 97.5247 217.46 97.6193 217.46 97.7375V99.1572C217.46 99.274 217.554 99.3699 217.673 99.3699C217.791 99.3699 217.886 99.274 217.886 99.1572V97.7375C217.886 97.6193 217.791 97.5247 217.673 97.5247ZM144.919 97.5484C144.8 97.5484 144.706 97.6443 144.706 97.7625V99.1822C144.706 99.299 144.8 99.395 144.919 99.395C145.036 99.395 145.132 99.299 145.132 99.1822V97.7625C145.132 97.6443 145.036 97.5484 144.919 97.5484ZM217.673 100.364C217.554 100.364 217.46 100.459 217.46 100.577V101.997C217.46 102.115 217.554 102.209 217.673 102.209C217.791 102.209 217.886 102.115 217.886 101.997V100.577C217.886 100.459 217.791 100.364 217.673 100.364ZM144.997 100.404C144.973 100.395 144.947 100.389 144.919 100.389C144.8 100.389 144.706 100.484 144.706 100.602V102.022C144.706 102.061 144.715 102.097 144.734 102.127C144.77 102.191 144.839 102.234 144.919 102.234C145.036 102.234 145.132 102.14 145.132 102.022V100.602C145.132 100.512 145.076 100.435 144.997 100.404ZM217.673 103.204C217.554 103.204 217.46 103.298 217.46 103.416V104.836C217.46 104.928 217.515 105.003 217.595 105.033H217.596C217.62 105.043 217.646 105.049 217.673 105.049C217.791 105.049 217.886 104.954 217.886 104.836V103.416C217.886 103.298 217.791 103.204 217.673 103.204ZM144.919 103.229C144.8 103.229 144.706 103.323 144.706 103.441V104.861C144.706 104.979 144.8 105.074 144.919 105.074C145.036 105.074 145.132 104.979 145.132 104.861V103.441C145.132 103.323 145.036 103.229 144.919 103.229ZM217.673 106.043C217.554 106.043 217.46 106.139 217.46 106.256V107.675C217.46 107.794 217.554 107.89 217.673 107.89C217.791 107.89 217.886 107.794 217.886 107.675V106.256C217.886 106.139 217.791 106.043 217.673 106.043ZM144.919 106.068C144.8 106.068 144.706 106.164 144.706 106.281V107.701C144.706 107.819 144.8 107.915 144.919 107.915C145.036 107.915 145.132 107.819 145.132 107.701V106.281C145.132 106.164 145.036 106.068 144.919 106.068ZM217.883 109.065C217.876 109.015 217.851 108.969 217.815 108.938C217.777 108.903 217.727 108.882 217.673 108.882C217.619 108.882 217.568 108.903 217.531 108.938C217.495 108.969 217.469 109.015 217.463 109.065C217.461 109.074 217.46 109.085 217.46 109.095V110.516C217.46 110.633 217.554 110.729 217.673 110.729C217.791 110.729 217.886 110.633 217.886 110.516V109.095C217.886 109.085 217.885 109.074 217.883 109.065ZM144.919 108.907C144.8 108.907 144.706 109.003 144.706 109.12V110.541C144.706 110.658 144.8 110.754 144.919 110.754C145.036 110.754 145.132 110.658 145.132 110.541V109.12C145.132 109.003 145.036 108.907 144.919 108.907ZM217.673 111.722C217.554 111.722 217.46 111.818 217.46 111.936V113.356C217.46 113.473 217.554 113.568 217.673 113.568C217.791 113.568 217.886 113.473 217.886 113.356V111.936C217.886 111.818 217.791 111.722 217.673 111.722ZM144.919 111.747C144.876 111.747 144.837 111.759 144.803 111.78C144.745 111.819 144.706 111.886 144.706 111.961V113.381C144.706 113.498 144.8 113.594 144.919 113.594C144.941 113.594 144.963 113.589 144.983 113.582C145.069 113.556 145.132 113.475 145.132 113.381V111.961C145.132 111.843 145.036 111.747 144.919 111.747ZM217.673 114.563C217.554 114.563 217.46 114.657 217.46 114.775V116.195C217.46 116.313 217.554 116.408 217.673 116.408C217.791 116.408 217.886 116.313 217.886 116.195V114.775C217.886 114.657 217.791 114.563 217.673 114.563ZM145.093 114.678C145.054 114.624 144.991 114.588 144.919 114.588C144.8 114.588 144.706 114.682 144.706 114.8V116.22C144.706 116.337 144.8 116.433 144.919 116.433C145.036 116.433 145.132 116.337 145.132 116.22V114.8C145.132 114.755 145.118 114.713 145.093 114.678ZM217.673 117.402C217.554 117.402 217.46 117.497 217.46 117.615V119.035C217.46 119.057 217.463 119.079 217.471 119.099C217.471 119.101 217.471 119.104 217.474 119.107C217.495 119.171 217.547 119.221 217.614 119.239C217.632 119.245 217.652 119.247 217.673 119.247C217.766 119.247 217.844 119.189 217.872 119.107C217.875 119.104 217.875 119.101 217.875 119.099C217.883 119.079 217.886 119.057 217.886 119.035V117.615C217.886 117.497 217.791 117.402 217.673 117.402ZM144.919 117.427C144.8 117.427 144.706 117.522 144.706 117.64V119.06C144.706 119.178 144.8 119.272 144.919 119.272C145.036 119.272 145.132 119.178 145.132 119.06V117.64C145.132 117.522 145.036 117.427 144.919 117.427ZM217.673 120.242C217.652 120.242 217.632 120.244 217.614 120.25C217.525 120.275 217.46 120.357 217.46 120.454V121.874C217.46 121.971 217.525 122.053 217.614 122.078C217.632 122.084 217.652 122.087 217.673 122.087C217.791 122.087 217.886 121.992 217.886 121.874V120.454C217.886 120.338 217.791 120.242 217.673 120.242ZM144.919 120.267C144.8 120.267 144.706 120.363 144.706 120.479V121.899C144.706 122.017 144.8 122.112 144.919 122.112C145.036 122.112 145.132 122.017 145.132 121.899V120.479C145.132 120.363 145.036 120.267 144.919 120.267ZM217.673 123.081C217.652 123.081 217.632 123.084 217.614 123.089C217.525 123.114 217.46 123.196 217.46 123.294V124.713C217.46 124.832 217.554 124.928 217.673 124.928C217.791 124.928 217.886 124.832 217.886 124.713V123.294C217.886 123.177 217.791 123.081 217.673 123.081ZM144.919 123.106C144.8 123.106 144.706 123.202 144.706 123.319V124.434C144.846 124.501 144.989 124.567 145.132 124.633V123.319C145.132 123.202 145.036 123.106 144.919 123.106ZM217.88 126.087C217.86 125.991 217.775 125.92 217.673 125.92C217.554 125.92 217.46 126.016 217.46 126.135V127.554C217.46 127.671 217.554 127.767 217.673 127.767C217.791 127.767 217.886 127.671 217.886 127.554V126.135C217.886 126.118 217.885 126.103 217.88 126.087ZM164.974 130.704H163.552C163.504 130.704 163.46 130.719 163.425 130.746C163.971 130.871 164.519 130.99 165.067 131.107C165.139 131.074 165.187 131.001 165.187 130.917C165.187 130.798 165.093 130.704 164.974 130.704ZM167.819 130.704H166.397C166.279 130.704 166.183 130.798 166.183 130.917C166.183 131.035 166.279 131.129 166.397 131.129H167.819C167.937 131.129 168.032 131.035 168.032 130.917C168.032 130.798 167.937 130.704 167.819 130.704ZM170.664 130.704H169.241C169.124 130.704 169.028 130.798 169.028 130.917C169.028 131.035 169.124 131.129 169.241 131.129H170.664C170.782 131.129 170.878 131.035 170.878 130.917C170.878 130.798 170.782 130.704 170.664 130.704ZM173.51 130.704H172.086C171.969 130.704 171.873 130.798 171.873 130.917C171.873 131.035 171.969 131.129 172.086 131.129H173.51C173.627 131.129 173.723 131.035 173.723 130.917C173.723 130.798 173.627 130.704 173.51 130.704ZM176.354 130.704H174.932C174.814 130.704 174.718 130.798 174.718 130.917C174.718 131.035 174.814 131.129 174.932 131.129H176.354C176.472 131.129 176.568 131.035 176.568 130.917C176.568 130.798 176.472 130.704 176.354 130.704ZM179.199 130.704H177.777C177.658 130.704 177.564 130.798 177.564 130.917C177.564 131.035 177.658 131.129 177.777 131.129H179.199C179.318 131.129 179.412 131.035 179.412 130.917C179.412 130.798 179.318 130.704 179.199 130.704ZM182.044 130.704H180.622C180.503 130.704 180.408 130.798 180.408 130.917C180.408 131.035 180.503 131.129 180.622 131.129H182.044C182.162 131.129 182.257 131.035 182.257 130.917C182.257 130.798 182.162 130.704 182.044 130.704ZM184.889 130.704H183.466C183.349 130.704 183.253 130.798 183.253 130.917C183.253 131.035 183.349 131.129 183.466 131.129H184.889C185.007 131.129 185.102 131.035 185.102 130.917C185.102 130.798 185.007 130.704 184.889 130.704ZM187.735 130.704H186.311C186.257 130.704 186.208 130.725 186.17 130.758C186.126 130.796 186.098 130.853 186.098 130.917C186.098 131.035 186.194 131.129 186.311 131.129H187.735C187.852 131.129 187.948 131.035 187.948 130.917C187.948 130.798 187.852 130.704 187.735 130.704ZM190.58 130.704H189.157C189.039 130.704 188.943 130.798 188.943 130.917C188.943 131.035 189.039 131.129 189.157 131.129H190.58C190.697 131.129 190.793 131.035 190.793 130.917C190.793 130.798 190.697 130.704 190.58 130.704ZM193.424 130.704H192.002C191.884 130.704 191.789 130.798 191.789 130.917C191.789 131.035 191.884 131.129 192.002 131.129H193.424C193.541 131.129 193.637 131.035 193.637 130.917C193.637 130.798 193.541 130.704 193.424 130.704ZM196.269 130.704H194.847C194.728 130.704 194.634 130.798 194.634 130.917C194.634 131.035 194.728 131.129 194.847 131.129H196.269C196.387 131.129 196.482 131.035 196.482 130.917C196.482 130.798 196.387 130.704 196.269 130.704ZM199.114 130.704H197.691C197.574 130.704 197.478 130.798 197.478 130.917C197.478 131.035 197.574 131.129 197.691 131.129H199.114C199.232 131.129 199.327 131.035 199.327 130.917C199.327 130.798 199.232 130.704 199.114 130.704ZM201.959 130.704H200.536C200.419 130.704 200.323 130.798 200.323 130.917C200.323 131.035 200.419 131.129 200.536 131.129H201.959C202.077 131.129 202.173 131.035 202.173 130.917C202.173 130.798 202.077 130.704 201.959 130.704ZM204.805 130.704H203.382C203.264 130.704 203.168 130.798 203.168 130.917C203.168 131.035 203.264 131.129 203.382 131.129H204.805C204.922 131.129 205.018 131.035 205.018 130.917C205.018 130.798 204.922 130.704 204.805 130.704ZM207.649 130.704H206.227C206.109 130.704 206.014 130.798 206.014 130.917C206.014 131.035 206.109 131.129 206.227 131.129H207.649C207.766 131.129 207.863 131.035 207.863 130.917C207.863 130.798 207.766 130.704 207.649 130.704ZM210.494 130.704H209.072C208.959 130.704 208.867 130.79 208.86 130.901C208.859 130.905 208.859 130.911 208.859 130.917C208.859 131.035 208.953 131.129 209.072 131.129H209.572C209.942 131.026 210.312 130.921 210.678 130.81C210.642 130.746 210.574 130.704 210.494 130.704Z" fill="#ED7D2B"/>
<path d="M147.821 106.354H135.032C133.229 106.354 131.752 104.881 131.752 103.08V101.107C131.752 99.3079 133.228 97.834 135.032 97.834H147.821C149.623 97.834 151.1 99.3065 151.1 101.107V103.08C151.1 104.88 149.623 106.354 147.821 106.354Z" fill="#ED7D2B"/>
<path d="M228.387 108.938C228.387 108.981 228.386 109.023 228.385 109.065C228.339 110.731 228.138 112.385 227.788 114.005C227.787 114.015 227.784 114.025 227.783 114.035C227.783 114.037 227.781 114.039 227.781 114.041C227.659 114.61 227.517 115.173 227.356 115.732C227.03 116.88 226.628 118.004 226.151 119.099C226.151 119.102 226.151 119.104 226.149 119.107C225.55 120.489 224.833 121.824 224.005 123.095C223.761 123.471 223.507 123.839 223.243 124.202C222.713 124.935 222.142 125.644 221.533 126.325C220.89 126.674 220.238 127.011 219.577 127.335C218.576 127.826 217.554 128.29 216.512 128.724C216.34 128.798 216.165 128.87 215.99 128.941C215.686 129.065 215.381 129.186 215.073 129.304C214.629 129.476 214.182 129.643 213.73 129.806C212.731 130.166 211.713 130.5 210.678 130.81C210.312 130.921 209.942 131.027 209.572 131.13C208.145 131.53 206.687 131.883 205.195 132.189C204.05 132.487 202.886 132.694 201.713 132.811C199.002 133.226 196.19 133.496 193.275 133.616C192.8 133.637 192.321 133.652 191.84 133.663C190.063 133.003 188.352 132.156 186.74 131.13C186.548 131.01 186.358 130.885 186.17 130.758C182.713 128.438 179.743 125.281 177.592 121.388C176.24 118.94 175.308 116.375 174.773 113.775C174.752 113.674 174.731 113.574 174.713 113.473C174.651 113.153 174.595 112.833 174.545 112.512C173.383 105.095 175.39 97.4985 180.017 91.6236C181.124 90.215 182.384 88.9065 183.785 87.7232C184.37 87.2281 184.981 86.7554 185.615 86.3076C186.131 85.9391 186.665 85.5901 187.214 85.2564C187.217 85.255 187.218 85.2536 187.221 85.2536C187.406 85.1396 187.594 85.0284 187.784 84.9199C187.933 84.8337 188.083 84.7489 188.235 84.6654C189.479 83.9799 190.755 83.4042 192.049 82.9328C192.949 82.6033 193.858 82.3266 194.773 82.0985C196.934 81.5618 199.128 81.3004 201.307 81.3018C205.145 81.3045 208.935 82.1236 212.417 83.6851C212.853 83.8798 213.285 84.087 213.711 84.3053C213.886 84.3943 214.061 84.486 214.233 84.5806C214.672 84.817 215.104 85.0659 215.529 85.3287C216.189 85.7333 216.834 86.1686 217.46 86.633C217.603 86.7373 217.745 86.8458 217.886 86.9542C218.142 87.1517 218.396 87.3561 218.647 87.5647C218.822 87.7093 218.996 87.8581 219.169 88.0096C219.455 88.2599 219.736 88.5172 220.013 88.78C220.016 88.7827 220.019 88.7855 220.022 88.7883C220.724 89.4585 221.394 90.1705 222.028 90.9241C222.206 91.1341 222.38 91.3496 222.55 91.5666C223.063 92.2132 223.548 92.8875 224.005 93.5898C224.042 93.6482 224.08 93.7066 224.116 93.765C224.142 93.8039 224.168 93.8428 224.19 93.8818C224.276 94.0153 224.36 94.1487 224.441 94.2836C224.643 94.6132 224.838 94.9483 225.026 95.289C225.669 96.4556 226.218 97.6487 226.674 98.8584C226.675 98.8612 226.677 98.864 226.677 98.8668C227.306 100.54 227.759 102.244 228.04 103.962C228.312 105.618 228.426 107.285 228.387 108.938Z" fill="#E2810E"/>
<path d="M225.938 114.006C225.937 114.018 225.934 114.031 225.933 114.042C225.635 115.769 225.171 117.462 224.545 119.099C224.545 119.102 224.544 119.105 224.542 119.107C224.375 119.548 224.196 119.985 224.005 120.416C223.577 121.384 223.092 122.328 222.55 123.241C222.382 123.528 222.208 123.81 222.028 124.088C222.004 124.127 221.979 124.165 221.954 124.202C221.244 125.298 220.451 126.345 219.577 127.335C218.576 127.826 217.555 128.29 216.512 128.724C216.34 128.798 216.166 128.87 215.99 128.941C215.686 129.065 215.381 129.186 215.073 129.304C214.629 129.476 214.182 129.643 213.73 129.806C212.732 130.166 211.713 130.5 210.678 130.81C210.312 130.921 209.943 131.027 209.572 131.13C208.145 131.53 206.687 131.883 205.195 132.189C204.05 132.487 202.886 132.694 201.713 132.811C199.002 133.227 196.19 133.496 193.275 133.616C192.8 133.637 192.321 133.652 191.84 133.663C191.14 133.681 190.432 133.69 189.719 133.69C188.862 133.69 188 133.68 187.135 133.66C182.384 131.297 178.278 127.517 175.522 122.527C173.996 119.765 173.006 116.855 172.517 113.911C172.487 113.741 172.461 113.57 172.437 113.399C172.4 113.149 172.366 112.897 172.337 112.646C171.422 104.882 173.939 97.019 179.259 91.2205C180.492 89.8759 181.876 88.6425 183.402 87.5468C183.59 87.4119 183.78 87.2798 183.972 87.1491C184.531 86.7681 185.109 86.4065 185.704 86.0645C185.856 85.9755 186.01 85.8893 186.165 85.8044C186.512 85.6126 186.863 85.4304 187.214 85.2566C187.217 85.2552 187.218 85.2538 187.221 85.2538C187.399 85.1648 187.578 85.0786 187.757 84.9938C187.92 84.9187 188.083 84.8436 188.246 84.7713C189.306 84.2999 190.383 83.9022 191.471 83.5768C191.574 83.5462 191.677 83.5157 191.781 83.4865C192.771 83.2014 193.77 82.9761 194.773 82.8093C195.307 82.7189 195.84 82.6466 196.375 82.591C197.799 82.4408 199.224 82.4046 200.639 82.4783C202.921 82.5979 205.174 83.0053 207.343 83.6853C208.005 83.8925 208.658 84.1247 209.303 84.382C209.479 84.4515 209.653 84.5224 209.826 84.5975C210.276 84.7866 210.72 84.9896 211.16 85.2037C212.032 85.6292 212.885 86.1034 213.711 86.6249C213.886 86.7333 214.061 86.8459 214.233 86.9627C215.076 87.519 215.89 88.1252 216.67 88.7802C216.673 88.7829 216.677 88.7857 216.68 88.7885C216.818 88.9039 216.956 89.0221 217.092 89.1417C217.215 89.2488 217.339 89.3586 217.46 89.4685C217.511 89.5157 217.563 89.563 217.614 89.6117C217.705 89.6951 217.796 89.7799 217.886 89.8648C218.395 90.3459 218.886 90.8506 219.36 91.3762C220.038 92.1285 220.681 92.9253 221.28 93.7652C221.283 93.7679 221.284 93.7693 221.285 93.7721V93.7735L221.287 93.7749C221.312 93.811 221.338 93.8458 221.362 93.882C221.934 94.6912 222.467 95.5408 222.957 96.428C223.305 97.0593 223.626 97.6989 223.918 98.3441C223.948 98.4081 223.977 98.4721 224.005 98.536C224.052 98.6431 224.099 98.7515 224.145 98.8586C224.147 98.8614 224.148 98.8642 224.15 98.867C224.34 99.3133 224.519 99.7625 224.685 100.213C224.877 100.734 225.049 101.259 225.207 101.786C225.423 102.507 225.607 103.233 225.759 103.962C225.958 104.916 226.104 105.875 226.197 106.836C226.267 107.537 226.307 108.239 226.32 108.938C226.321 108.982 226.323 109.023 226.323 109.065C226.346 110.727 226.217 112.38 225.938 114.006Z" fill="#FFB93E"/>
<path d="M224.07 109.065C224.07 109.022 224.069 108.98 224.066 108.938C224.057 108.559 224.034 108.18 224.005 107.802C223.902 106.509 223.696 105.226 223.388 103.962C223.315 103.667 223.237 103.375 223.155 103.083C222.746 101.642 222.202 100.232 221.525 98.8667C221.524 98.8639 221.522 98.8611 221.521 98.8583C221.357 98.5246 221.184 98.1951 221.003 97.8669C220.453 96.8699 219.84 95.9202 219.169 95.0205C219 94.7925 218.824 94.5658 218.647 94.3447C218.522 94.189 218.395 94.0333 218.267 93.8817C218.233 93.8428 218.201 93.8038 218.168 93.7649C218.074 93.655 217.981 93.5466 217.886 93.4395C217.797 93.3366 217.707 93.2365 217.615 93.1364C217.565 93.0794 217.512 93.0237 217.46 92.9681C217.339 92.8388 217.218 92.7095 217.092 92.5829C215.914 91.3662 214.613 90.2789 213.207 89.3347C213.034 89.2179 212.86 89.1039 212.685 88.9926C212.576 88.9245 212.469 88.8564 212.359 88.7882C212.354 88.7854 212.349 88.7827 212.345 88.7799C211.535 88.2849 210.695 87.8343 209.826 87.4325C209.653 87.3518 209.479 87.274 209.303 87.1975C208.32 86.7692 207.3 86.4021 206.251 86.099C203.958 85.4371 201.62 85.1117 199.298 85.1173C197.778 85.1214 196.264 85.266 194.773 85.5525C193.978 85.7041 193.188 85.8959 192.408 86.1282C191.706 86.3354 191.01 86.5759 190.326 86.8485H190.325C189.358 87.2322 188.41 87.6786 187.483 88.1889C187.195 88.3474 186.909 88.5115 186.629 88.6812C185.848 89.1511 185.099 89.6601 184.383 90.2052C183.805 90.6446 183.248 91.109 182.716 91.5957C182.391 91.8891 182.076 92.1922 181.771 92.5037C178.936 95.3793 176.847 98.9293 175.692 102.913C174.775 106.074 174.503 109.318 174.86 112.492C174.896 112.823 174.94 113.153 174.991 113.482C175.005 113.574 175.019 113.667 175.034 113.759C175.487 116.489 176.408 119.152 177.786 121.646C179.867 125.413 182.827 128.504 186.398 130.704C186.635 130.85 186.874 130.992 187.117 131.129C188.805 132.093 190.622 132.862 192.537 133.415C192.783 133.486 193.029 133.553 193.276 133.616C196.19 133.496 199.003 133.226 201.714 132.811C198.805 133.104 195.839 132.84 192.947 132.004C192.093 131.758 191.261 131.466 190.452 131.129C190.126 130.995 189.804 130.853 189.486 130.704C185.09 128.643 181.465 125.264 179.074 120.937C177.804 118.636 176.947 116.184 176.514 113.669C176.505 113.623 176.498 113.577 176.491 113.531C176.429 113.157 176.376 112.78 176.333 112.403C175.984 109.394 176.238 106.317 177.106 103.321C178.1 99.8873 179.836 96.7962 182.17 94.2224C182.499 93.8608 182.838 93.509 183.19 93.1684C183.389 92.9751 183.592 92.7846 183.798 92.5982C184.524 91.9447 185.293 91.3343 186.104 90.7711C186.773 90.3053 187.471 89.8728 188.194 89.4751C188.667 89.2151 189.146 88.9718 189.631 88.7465C190.538 88.3238 191.466 87.9636 192.408 87.6647C193.188 87.4172 193.978 87.2128 194.773 87.0501C196.045 86.79 197.335 86.6399 198.632 86.5982C201.037 86.5217 203.465 86.8234 205.842 87.5103C207.016 87.8496 208.151 88.2737 209.239 88.7799C209.245 88.7827 209.251 88.7854 209.257 88.7882C210.46 89.3486 211.606 90.0077 212.685 90.7586C212.86 90.881 213.034 91.0061 213.207 91.1326C214.274 91.9211 215.272 92.8013 216.19 93.7649C216.227 93.8038 216.265 93.8428 216.301 93.8817C216.704 94.31 217.09 94.7535 217.46 95.2138C217.605 95.3932 217.746 95.5753 217.886 95.7603C218.15 96.1079 218.403 96.4639 218.647 96.8282C218.827 97.0952 219.002 97.3663 219.169 97.643C219.359 97.949 219.54 98.2604 219.714 98.5761C219.766 98.6692 219.817 98.7638 219.867 98.8583C219.867 98.8583 219.867 98.8583 219.867 98.8597C219.869 98.8611 219.87 98.8639 219.872 98.8667C220.011 99.1253 220.143 99.3867 220.271 99.6509C220.951 101.044 221.483 102.488 221.867 103.962C222.293 105.591 222.535 107.26 222.592 108.938C222.594 108.98 222.595 109.023 222.597 109.065C222.645 110.71 222.514 112.363 222.205 114.005C222.202 114.016 222.201 114.029 222.198 114.041C222.067 114.732 221.903 115.421 221.708 116.105C221.699 116.134 221.691 116.163 221.683 116.193C221.393 117.192 221.04 118.162 220.629 119.099C220.628 119.101 220.627 119.104 220.625 119.107C219.894 120.773 218.974 122.334 217.886 123.765C217.797 123.882 217.707 123.999 217.615 124.114C217.592 124.144 217.569 124.173 217.545 124.202C217.517 124.238 217.489 124.273 217.46 124.309C217.156 124.683 216.842 125.049 216.513 125.403C216.344 125.591 216.169 125.775 215.99 125.957C214.824 127.143 213.525 128.208 212.105 129.131C212.016 129.191 211.925 129.249 211.835 129.304C211.431 129.561 211.017 129.806 210.595 130.038C210.166 130.274 209.731 130.497 209.291 130.704C209.149 130.772 209.005 130.837 208.86 130.901C207.668 131.437 206.442 131.866 205.195 132.189C206.687 131.883 208.146 131.53 209.572 131.129C209.943 131.027 210.312 130.921 210.678 130.81C211.714 130.5 212.732 130.166 213.731 129.806C213.961 129.642 214.188 129.475 214.412 129.304C214.958 128.888 215.485 128.451 215.99 127.994C216.167 127.834 216.341 127.673 216.513 127.507C216.837 127.197 217.154 126.877 217.46 126.55C217.602 126.398 217.743 126.243 217.881 126.087C218.416 125.484 218.922 124.855 219.394 124.202C220.433 122.768 221.316 121.218 222.028 119.571C222.095 119.419 222.16 119.263 222.225 119.107C222.226 119.104 222.226 119.101 222.227 119.099C222.559 118.288 222.849 117.454 223.097 116.601C223.197 116.254 223.29 115.905 223.374 115.556C223.496 115.052 223.604 114.548 223.694 114.041C223.697 114.029 223.699 114.016 223.701 114.005C223.746 113.754 223.786 113.5 223.822 113.249C223.902 112.707 223.963 112.163 224.005 111.619C224.072 110.767 224.094 109.914 224.07 109.065Z" fill="#FFA412"/>
<path d="M211.861 114.041C211.86 114.029 211.858 114.017 211.856 114.005C211.767 113.386 211.591 112.753 211.328 112.11C211.275 111.976 211.218 111.847 211.161 111.72C210.769 110.862 210.293 110.149 209.73 109.582C209.66 109.512 209.59 109.444 209.518 109.379C209.416 109.287 209.313 109.198 209.207 109.112C209.188 109.096 209.168 109.08 209.149 109.064C209.095 109.021 209.04 108.98 208.984 108.938C208.372 108.479 207.687 108.119 206.932 107.86C205.95 107.522 204.854 107.316 203.646 107.244C202.438 107.169 201.122 107.152 199.701 107.193C198.822 107.219 198.071 107.204 197.448 107.147C196.824 107.09 196.295 106.974 195.861 106.801C195.427 106.627 195.074 106.388 194.803 106.084C194.793 106.073 194.782 106.061 194.773 106.05C194.744 106.016 194.715 105.982 194.688 105.947C194.591 105.827 194.502 105.699 194.419 105.562C194.312 105.382 194.216 105.188 194.13 104.976C193.951 104.541 193.851 104.107 193.825 103.677C193.797 103.249 193.862 102.842 194.017 102.455C194.169 102.078 194.411 101.729 194.75 101.41C194.757 101.401 194.764 101.394 194.772 101.387L194.773 101.386C195.122 101.059 195.581 100.781 196.152 100.549C196.958 100.222 197.723 100.151 198.446 100.333C198.671 100.389 198.893 100.471 199.111 100.577C200.027 101.024 200.772 101.955 201.347 103.37L206.866 101.134C206.519 100.283 206.108 99.5268 205.634 98.8663C205.631 98.8635 205.63 98.8607 205.628 98.858C205.447 98.6063 205.258 98.3685 205.059 98.146C204.336 97.3326 203.521 96.7041 202.614 96.2605C201.707 95.8169 200.719 95.5583 199.651 95.4818C198.583 95.4067 197.472 95.5193 196.321 95.8225L195.916 94.8255L195.484 93.7645L194.773 92.018L194.758 91.9805L191.704 93.2194L192.408 94.9478L193.245 97.0058C193.118 97.0712 192.994 97.1379 192.873 97.2074C192.714 97.295 192.56 97.3854 192.408 97.4786C191.661 97.9333 191.006 98.4394 190.441 98.9984C189.675 99.7562 189.085 100.575 188.674 101.457C188.261 102.34 188.045 103.265 188.024 104.235C188.004 105.206 188.198 106.193 188.606 107.194C189.077 108.351 189.683 109.267 190.424 109.942C190.985 110.453 191.615 110.865 192.312 111.179C192.536 111.281 192.769 111.371 193.007 111.452C193.486 111.615 193.996 111.745 194.532 111.844C194.612 111.859 194.693 111.873 194.773 111.886C195.258 111.966 195.765 112.019 196.295 112.047C197.507 112.112 198.826 112.111 200.25 112.043C201.076 111.996 201.793 112 202.402 112.057C203.011 112.112 203.536 112.229 203.979 112.407C204.422 112.585 204.79 112.834 205.084 113.155C205.3 113.39 205.492 113.674 205.658 114.005C205.663 114.017 205.669 114.029 205.676 114.041C205.729 114.148 205.779 114.261 205.826 114.379C206.005 114.817 206.092 115.251 206.09 115.685C206.09 115.767 206.085 115.847 206.077 115.928C206.048 116.274 205.954 116.608 205.796 116.928C205.601 117.323 205.308 117.69 204.919 118.026C204.529 118.363 204.036 118.651 203.437 118.894C203.245 118.972 203.05 119.04 202.852 119.098C202.842 119.101 202.832 119.104 202.824 119.107C202.495 119.203 202.161 119.271 201.818 119.314C201.26 119.381 200.716 119.326 200.184 119.15C200.144 119.136 200.103 119.122 200.063 119.107C200.055 119.104 200.048 119.101 200.041 119.098C199.563 118.913 199.114 118.612 198.694 118.188C198.23 117.725 197.827 117.072 197.486 116.234L192.445 118.278H192.443L191.97 118.47C192.546 119.885 193.269 121.009 194.139 121.836C194.659 122.333 195.209 122.744 195.789 123.071C196.179 123.291 196.582 123.473 196.998 123.616C198.033 123.973 199.116 124.131 200.245 124.083C201.375 124.037 202.491 123.855 203.59 123.531L203.863 124.202L205.015 127.037L208.051 125.806L207.398 124.202L206.618 122.285C207.721 121.714 208.664 121.056 209.451 120.311C209.858 119.927 210.215 119.525 210.522 119.107C210.525 119.104 210.527 119.101 210.528 119.098C210.769 118.77 210.979 118.432 211.161 118.083C211.194 118.019 211.226 117.955 211.257 117.889C211.496 117.388 211.672 116.871 211.782 116.335C211.865 115.942 211.911 115.539 211.923 115.126C211.932 114.768 211.911 114.407 211.861 114.041Z" fill="#FFA412"/>
<path d="M133.369 101.989C133.369 100.878 134.272 99.9766 135.385 99.9766C136.498 99.9766 137.401 100.878 137.401 101.989C137.401 103.1 136.498 104.001 135.385 104.001C134.272 104.001 133.369 103.1 133.369 101.989Z" fill="#FFB93E"/>
<path d="M500.498 280.999H58.5023C58.227 280.999 58 280.774 58 280.498V280.328C58 280.053 58.2254 279.826 58.5023 279.826H500.499C500.775 279.826 501.002 280.051 501.002 280.328V280.498C501 280.774 500.775 280.999 500.498 280.999Z" fill="#2E3552"/>
</g>
<defs>
<clipPath id="clip0_1715_8015">
<rect width="443" height="281" fill="white" transform="translate(58)"/>
</clipPath>
</defs>
</svg>
