<svg width="532" height="288" viewBox="0 0 532 288" fill="none" xmlns="http://www.w3.org/2000/svg">
<g clip-path="url(#clip0_1715_8026)">
<g clip-path="url(#clip1_1715_8026)">
<g opacity="0.4">
<path d="M470.684 232.203C489.619 196.435 491.616 149.923 468.205 116.91C452.96 95.4117 428.651 81.5566 403.186 74.7603C350.165 60.6105 290.901 76.1871 249.569 112.277C236.7 123.514 224.798 136.975 208.602 142.418C196.234 146.575 182.827 145.518 169.784 145.824C152.61 146.228 135.271 149.166 119.783 156.601C104.297 164.035 90.7505 176.251 83.7246 191.927C73.3251 215.133 78.4997 243.027 91.4137 264.935C96.5164 273.591 102.786 281.55 109.955 288.589H421.348C441.448 273.12 458.868 254.521 470.684 232.203Z" fill="#E5E5FF"/>
</g>
<path opacity="0.4" d="M114.258 110.807C128.504 110.807 140.052 99.2607 140.052 85.0177C140.052 70.7747 128.504 59.2285 114.258 59.2285C100.013 59.2285 88.4642 70.7747 88.4642 85.0177C88.4642 99.2607 100.013 110.807 114.258 110.807Z" fill="#E5E5FF"/>
<path d="M450.481 128.941C449.345 128.941 448.197 128.862 447.07 128.707L447.153 128.098C448.488 128.281 449.84 128.353 451.188 128.315L451.206 128.93C450.965 128.937 450.722 128.941 450.481 128.941ZM455.325 128.47L455.207 127.866C456.528 127.605 457.836 127.233 459.094 126.759L459.312 127.334C458.019 127.821 456.679 128.202 455.325 128.47ZM443.026 127.807C441.708 127.395 440.416 126.87 439.187 126.247L439.465 125.699C440.664 126.308 441.924 126.818 443.207 127.219L443.026 127.807ZM463.05 125.551L462.741 125.021C463.899 124.346 465.013 123.566 466.05 122.699L466.444 123.172C465.38 124.06 464.238 124.86 463.05 125.551ZM435.664 124.071C434.672 123.336 433.721 122.516 432.838 121.636L432.547 121.341L432.988 120.913L433.272 121.201C434.133 122.062 435.06 122.861 436.029 123.576L435.664 124.071ZM469.397 120.268L468.931 119.867C469.81 118.848 470.61 117.749 471.307 116.599L471.832 116.917C471.117 118.096 470.299 119.222 469.397 120.268ZM429.921 118.135C429.138 116.998 428.444 115.788 427.862 114.539L428.419 114.279C428.987 115.497 429.663 116.676 430.426 117.785L429.921 118.135ZM473.676 113.208L473.105 112.981C473.601 111.73 473.994 110.429 474.277 109.114L474.877 109.243C474.589 110.593 474.185 111.926 473.676 113.208ZM426.431 110.652C426.064 109.322 425.805 107.953 425.663 106.58L426.275 106.517C426.413 107.856 426.665 109.191 427.022 110.489L426.431 110.652ZM475.407 105.135L474.794 105.107C474.81 104.736 474.819 104.364 474.819 103.992C474.819 103.017 474.76 102.034 474.643 101.069L475.254 100.995C475.373 101.983 475.434 102.991 475.434 103.992C475.434 104.375 475.427 104.756 475.407 105.135ZM426.192 102.476L425.579 102.438C425.665 101.06 425.865 99.6795 426.177 98.339L426.776 98.4773C426.47 99.7856 426.275 101.132 426.192 102.476ZM473.831 97.1116C473.452 95.8177 472.961 94.5508 472.371 93.3432L472.925 93.0737C473.527 94.3118 474.03 95.6111 474.42 96.9373L473.831 97.1116ZM428.011 94.6317L427.443 94.3963C427.973 93.124 428.615 91.8858 429.35 90.7196L429.869 91.0466C429.152 92.1841 428.527 93.3917 428.011 94.6317ZM470.306 89.8714C469.528 88.7824 468.649 87.7437 467.693 86.7877L468.126 86.3528C469.107 87.334 470.008 88.396 470.806 89.5138L470.306 89.8714ZM432.301 87.8174L431.843 87.4076C432.164 87.0482 432.495 86.696 432.84 86.3528C433.475 85.7184 434.149 85.1128 434.843 84.5522L435.229 85.0302C434.551 85.5765 433.894 86.1677 433.273 86.7877C432.937 87.1237 432.612 87.4669 432.301 87.8174ZM465.257 84.6546C464.188 83.8351 463.043 83.102 461.855 82.4748L462.143 81.9321C463.359 82.5754 464.533 83.3284 465.629 84.1676L465.257 84.6546ZM438.574 82.7641L438.274 82.2286C439.476 81.5529 440.745 80.9743 442.045 80.5088L442.253 81.0875C440.984 81.5421 439.746 82.1064 438.574 82.7641ZM458.14 80.8898C456.864 80.4693 455.543 80.1512 454.211 79.9446L454.304 79.3372C455.67 79.5474 457.026 79.8727 458.332 80.3058L458.14 80.8898ZM446.155 80.047L446.047 79.4414C447.404 79.197 448.792 79.0658 450.172 79.0479L450.179 79.6624C448.833 79.6786 447.48 79.808 446.155 80.047Z" fill="#9192FF"/>
<path d="M396.169 156.081L396.084 155.472C397.413 155.287 398.694 154.895 399.893 154.307L400.164 154.859C398.906 155.477 397.562 155.887 396.169 156.081ZM391.993 156C390.609 155.752 389.281 155.29 388.05 154.624L388.343 154.083C389.517 154.717 390.782 155.157 392.101 155.394L391.993 156ZM403.576 152.451L403.144 152.012L403.263 151.896C404.174 150.985 404.934 149.95 405.528 148.817L406.072 149.103C405.452 150.291 404.652 151.375 403.698 152.331L403.576 152.451ZM384.734 152.086C383.763 151.065 382.967 149.906 382.369 148.643L382.924 148.381C383.496 149.585 384.254 150.69 385.18 151.662L384.734 152.086ZM407.397 145.142L406.789 145.042C406.903 144.359 406.96 143.662 406.96 142.968C406.96 142.33 406.912 141.687 406.816 141.058L407.424 140.964C407.524 141.624 407.575 142.298 407.575 142.968C407.577 143.696 407.515 144.427 407.397 145.142ZM381.2 144.634C381.13 144.086 381.096 143.527 381.096 142.97C381.096 142.131 381.177 141.286 381.335 140.459L381.939 140.574C381.788 141.361 381.711 142.168 381.711 142.968C381.711 143.498 381.743 144.032 381.81 144.555L381.2 144.634ZM405.603 137.266C405.003 136.078 404.216 134.995 403.265 134.044L403.698 133.609C404.695 134.606 405.52 135.744 406.151 136.989L405.603 137.266ZM383.298 136.833L382.762 136.535C383.355 135.467 384.101 134.482 384.975 133.609C385.095 133.487 385.219 133.368 385.343 133.253L385.762 133.704C385.643 133.816 385.525 133.929 385.41 134.044C384.574 134.878 383.864 135.816 383.298 136.833ZM400.615 132.015C399.456 131.35 398.203 130.876 396.891 130.606L397.015 130.004C398.392 130.286 399.706 130.784 400.921 131.481L400.615 132.015ZM389.073 131.492L388.818 130.933C390.092 130.349 391.445 129.974 392.842 129.817L392.91 130.428C391.578 130.578 390.288 130.935 389.073 131.492Z" fill="#9192FF"/>
<path d="M442.902 171.017C438.628 171.017 435.15 167.54 435.15 163.266C435.15 158.993 438.628 155.516 442.902 155.516C447.176 155.516 450.654 158.993 450.654 163.266C450.654 167.54 447.176 171.017 442.902 171.017ZM442.902 156.13C438.967 156.13 435.765 159.331 435.765 163.266C435.765 167.2 438.966 170.402 442.902 170.402C446.838 170.402 450.039 167.202 450.039 163.266C450.039 159.331 446.838 156.13 442.902 156.13Z" fill="#9192FF"/>
<path d="M235.85 19.1691C231.575 19.1691 228.098 15.6919 228.098 11.4186C228.098 7.14522 231.575 3.66797 235.85 3.66797C240.124 3.66797 243.602 7.14522 243.602 11.4186C243.602 15.6919 240.124 19.1691 235.85 19.1691ZM235.85 4.28255C231.915 4.28255 228.712 7.48306 228.712 11.4186C228.712 15.3541 231.913 18.5546 235.85 18.5546C239.786 18.5546 242.987 15.3541 242.987 11.4186C242.987 7.48306 239.784 4.28255 235.85 4.28255Z" fill="#9192FF"/>
<path d="M66.6964 139.132C62.4223 139.132 58.9444 135.655 58.9444 131.381C58.9444 127.108 62.4223 123.631 66.6964 123.631C70.9705 123.631 74.4484 127.108 74.4484 131.381C74.4466 135.655 70.9705 139.132 66.6964 139.132ZM66.6964 124.245C62.7602 124.245 59.5591 127.446 59.5591 131.381C59.5591 135.317 62.7602 138.517 66.6964 138.517C70.6308 138.517 73.8337 135.317 73.8337 131.381C73.8337 127.446 70.6308 124.245 66.6964 124.245Z" fill="#9192FF"/>
<path d="M422.416 56.555L410.391 44.5329L422.416 32.5107L434.438 44.5329L422.416 56.555ZM411.261 44.5329L422.416 55.6852L433.57 44.5329L422.416 33.3805L411.261 44.5329Z" fill="#9192FF"/>
<path d="M95.5225 81.9126L92.6251 79.0158L93.0601 78.5809L95.9575 81.4777L95.5225 81.9126ZM98.8548 80.0689L98.4198 79.634L101.317 76.7372L101.752 77.172L98.8548 80.0689ZM89.7278 76.119L86.8305 73.2222L87.2654 72.7873L90.1628 75.6841L89.7278 76.119ZM104.649 74.2752L104.215 73.8403L107.112 70.9435L107.547 71.3784L104.649 74.2752ZM83.9331 70.3272L81.0358 67.4303L81.4707 66.9955L84.3681 69.8923L83.9331 70.3272ZM110.444 68.4816L110.009 68.0467L112.907 65.1499L113.342 65.5848L110.444 68.4816ZM78.1384 64.5335L75.2411 61.6367L75.676 61.2018L78.5734 64.0986L78.1384 64.5335ZM116.237 62.688L115.802 62.2531L118.699 59.3563L119.134 59.7912L116.237 62.688ZM117.909 59.0005L115.011 56.1037L115.446 55.6688L118.344 58.5656L117.909 59.0005ZM74.8834 58.7399L74.4484 58.305L77.3458 55.4082L77.7807 55.8431L74.8834 58.7399ZM112.114 53.2069L109.217 50.31L109.652 49.8752L112.549 52.772L112.114 53.2069ZM80.6781 52.9463L80.2431 52.5114L83.1405 49.6146L83.5754 50.0495L80.6781 52.9463ZM106.319 47.4132L103.422 44.5164L103.857 44.0815L106.754 46.9783L106.319 47.4132ZM86.4728 47.1527L86.0378 46.7178L88.9352 43.821L89.3701 44.2558L86.4728 47.1527ZM100.525 41.6196L97.6272 38.7228L98.0622 38.2879L100.96 41.1847L100.525 41.6196ZM92.2675 41.359L91.8325 40.9242L94.7299 38.0273L95.1648 38.4622L92.2675 41.359Z" fill="#9192FF"/>
<path d="M95.6699 235.165H131.533L131.784 233.438H95.9215L95.6699 235.165Z" fill="#D1D1FF"/>
<path d="M97.8824 220.022H133.745L133.997 218.295H98.1341L97.8824 220.022Z" fill="#D1D1FF"/>
<path d="M100.093 204.879H135.956L136.209 203.152H100.347L100.093 204.879Z" fill="#D1D1FF"/>
<path d="M102.306 189.738H138.168L138.42 188.011H102.557L102.306 189.738Z" fill="#D1D1FF"/>
<path d="M104.77 172.867L104.516 174.594H140.379L140.633 172.867H104.77Z" fill="#D1D1FF"/>
<path d="M93.4591 250.307H129.322L129.573 248.58H93.7108L93.4591 250.307Z" fill="#D1D1FF"/>
<path d="M91.2466 265.449H127.109L127.361 263.722H91.4982L91.2466 265.449Z" fill="#D1D1FF"/>
<path d="M106.981 157.726L106.729 159.453H142.592L142.843 157.726H106.981Z" fill="#D1D1FF"/>
<path d="M142.412 157.667L123.352 288.628L124.163 288.746L143.224 157.785L142.412 157.667Z" fill="#1B1B43"/>
<path d="M106.564 157.557L87.5043 288.518L88.3153 288.636L107.375 157.675L106.564 157.557Z" fill="#1B1B43"/>
<path d="M145.308 121.684L134.108 135.066L129.706 137.178L133.668 142.678L135.884 141.483C138.233 140.004 140.399 138.031 141.758 135.612L146.949 126.327L145.308 121.684Z" fill="#FFBC96"/>
<path d="M117.035 143.259L123.728 148.039L134.518 143.805L129.706 137.18L117.035 143.259Z" fill="#FFA121"/>
<path d="M227.905 62.5025C225.732 63.737 224.012 65.4855 222.772 67.5665L207.126 40.0234L122.873 87.8658L170.728 172.111L202.03 154.336C201.863 157.06 202.431 159.77 203.821 162.214C208.163 169.859 218.909 171.954 227.832 166.888C236.746 161.826 240.458 151.522 236.116 143.877C234.728 141.433 232.69 139.557 230.265 138.305L254.984 124.268L239.27 96.6047C241.693 96.6047 244.076 96.0243 246.249 94.7897C253.895 90.4481 255.991 79.7036 250.924 70.785C245.859 61.8717 235.551 58.1609 227.905 62.5025Z" fill="#3335CF"/>
<g opacity="0.6">
<path d="M244.835 73.0563C235.31 75.786 224.242 85.6786 214.085 79.6945C209.405 76.9361 207.489 71.7624 210.291 66.9069C212.119 63.7387 214.835 60.9821 217.52 58.3189L217.243 57.8301C215.547 59.5912 213.868 61.3666 212.261 63.2068C209.687 66.1557 207.424 69.8522 208.567 73.9099C209.588 77.5345 212.865 80.2265 216.339 81.3927C220.836 82.9022 225.729 81.7683 230.008 80.0971C235.294 78.0341 240.154 74.8821 245.685 73.4535C247.683 72.9377 249.849 72.7113 251.963 72.8748C251.868 72.6556 251.769 72.4345 251.665 72.2171C249.387 72.0877 247.076 72.413 244.835 73.0563Z" fill="white"/>
<path d="M240.206 96.2849C230.483 97.7333 219.073 101.717 215.994 112.203C213.244 121.569 220.432 130.179 228.712 133.568C230.948 134.483 233.247 135.018 235.575 135.289L236.489 134.77C234.306 134.578 232.143 134.157 230.028 133.413C221.151 130.288 213.259 121.053 216.956 111.27C220.556 101.744 230.274 98.7163 239.55 97.1044L239.268 96.6066C240.911 96.6066 242.534 96.3316 244.087 95.7764C242.777 95.9399 241.475 96.0962 240.206 96.2849Z" fill="white"/>
<path d="M181.47 166.011L182.355 165.51C187.353 153.327 191.067 140.594 189.573 127.305C188.649 119.083 185.682 110.729 179.997 104.57C177.585 101.958 174.585 99.7203 171.087 98.8487C167.255 97.8927 163.366 98.8559 159.956 100.7C152.42 104.775 147.258 113.561 138.807 115.915L139.078 116.395C142.761 115.22 146.158 112.774 149.077 110.193C155.601 104.425 163.59 95.9771 173.174 100.218C181.195 103.767 185.89 113.162 187.878 121.245C191.66 136.622 187.375 151.742 181.47 166.011Z" fill="white"/>
<path d="M167.834 74.2401C165.647 78.057 161.838 81.0257 158.328 83.5613C154.458 86.3557 150.232 88.6577 145.787 90.399C140.083 92.6345 133.335 94.0416 128.732 98.1801L129.031 98.7067C131.969 96.0093 135.859 94.5052 139.605 93.2132C144.287 91.5976 148.877 89.9929 153.211 87.5525C157.256 85.2739 161.069 82.5208 164.433 79.3149C166.786 77.0722 169.065 74.3965 169.705 71.1151C170.327 67.9146 169.419 64.9656 167.676 62.4229L167.054 62.7769C169.369 66.1337 170.185 70.1393 167.834 74.2401Z" fill="white"/>
</g>
<path d="M125.54 134.741C125.54 134.741 127.043 136.333 126.967 136.723C126.892 137.113 125.285 137.474 125.285 137.474L125.54 134.741Z" fill="#D28572"/>
<path d="M123.425 137.86H117.204V145.252H123.425V137.86Z" fill="#FFBC96"/>
<path d="M123.423 137.86V142.973C121.309 142.63 119.756 141.212 118.734 138.549L121.268 137.86H123.423Z" fill="#1B1B43"/>
<path d="M125.075 131.318C125.075 131.318 127.778 140.988 122.431 140.808C118.516 140.677 116.483 136.664 116.483 136.664L119.427 131.259L125.075 131.318Z" fill="#FFBC96"/>
<path d="M122.102 136.152C121.712 134.831 121.922 133.404 122.912 132.549C125.537 133.336 127.402 132.721 128.288 130.297C128.288 130.297 125.691 130.951 123.872 129.276C121.949 127.504 118.166 129.007 117.835 130.117C114.042 131.524 114.442 134.982 117.173 139.187C117.864 137.656 119.505 137.043 121.138 136.604L122.102 136.152Z" fill="#1B1B43"/>
<path d="M122.357 135.565C122.77 136.351 122.589 137.258 121.953 137.592C121.316 137.927 120.466 137.56 120.053 136.775C119.639 135.989 119.821 135.082 120.457 134.748C121.094 134.413 121.944 134.78 122.357 135.565Z" fill="#FFBC96"/>
<path d="M117.623 233.793H110.471L111.098 226.283H117.247L117.623 233.793Z" fill="#1B1B43"/>
<path d="M110.342 165.79C108.322 168.852 108.02 175.758 109.112 179.173V228.469H118.809L121.541 171.116L110.342 165.79Z" fill="#3335CF"/>
<path d="M118.955 174.446C118.647 176.851 119.467 179.721 121.072 181.462L121.277 176.136L118.955 174.446Z" fill="#1B1B43"/>
<path d="M124.212 208.548L121.879 212.702L131.901 218.329L129.201 211.798L130.745 208.936L125.389 205.992L124.212 208.548Z" fill="#1B1B43"/>
<path d="M124.546 164.562L135.916 178.593C138.683 182.178 139.774 185.81 138.478 190.063L131.615 209.931L123.045 206.892L128.031 185.761C122.776 181.215 116.897 173.922 110.89 166.064L124.546 164.562Z" fill="#3335CF"/>
<path d="M128.898 153.214C128.898 153.247 128.898 153.272 128.889 153.304C128.824 154.418 128.725 155.516 128.601 156.582C128.249 159.639 127.699 162.505 126.937 165.161C126.764 165.751 126.428 166.128 125.995 166.349C125.643 166.554 125.217 166.644 124.766 166.685C122.848 166.825 120.946 166.25 119.012 166.333C117.143 166.415 115.497 166.973 113.767 167.422C113.399 167.521 113.031 167.611 112.653 167.691C112.515 167.724 112.358 167.749 112.202 167.781C111.357 167.929 110.277 168.018 109.441 167.717C108.99 167.56 108.605 167.298 108.368 166.865C107.763 165.783 108.769 164.284 109.073 163.251C109.474 161.883 109.794 160.498 110.04 159.096C110.548 156.205 110.719 153.263 110.622 150.33C110.491 146.512 113.318 143.169 117.121 142.776C117.147 142.776 117.179 142.767 117.204 142.767C119.343 142.553 121.457 142.652 123.425 142.98C124.269 143.128 125.089 143.316 125.867 143.546C125.876 143.546 125.876 143.546 125.884 143.546C127.03 143.883 128.096 144.299 129.054 144.792C129.135 147.726 129.086 150.537 128.898 153.214Z" fill="#FFA121"/>
<path d="M128.889 153.182V153.304C128.824 154.418 128.725 155.516 128.601 156.582C127.199 155.831 126.687 154.294 126.509 153.065C126.502 153.025 128.889 153.182 128.889 153.182Z" fill="#1B1B43"/>
<path d="M137.521 145.923L145.237 144.762L152.914 137.072L156.437 140.323L149.064 148.927C147.903 150.284 146.257 151.13 144.477 151.29L132.74 152.34L137.521 145.923Z" fill="#FFBC96"/>
<path d="M152.916 137.072L153.82 134.093C153.82 134.093 154.113 130.436 154.587 130.842C155.062 131.248 155.355 134.025 155.355 134.025C155.355 134.025 157.251 129.081 157.997 129.081C158.743 129.081 157.433 133.913 157.433 133.913C157.433 133.913 159.465 134.546 159.6 135.991C159.677 136.814 156.439 140.325 156.439 140.325L152.51 140.596L152.916 137.072Z" fill="#FFBC96"/>
<path d="M125.867 143.544C130.088 144.572 134.153 145.506 137.503 145.921L136.736 153.499L124.189 153.039L125.867 143.544Z" fill="#FFA121"/>
<path d="M137.482 146.085C132.942 145.456 128.197 144.464 123.38 143.141L123.466 142.825C128.27 144.144 132.999 145.133 137.525 145.76L137.482 146.085Z" fill="#1B1B43"/>
<path d="M420.219 206.64C419.112 207.154 418.084 207.9 417.413 208.921C416.743 209.94 416.468 211.259 416.862 212.414C417.135 213.218 417.717 213.949 417.687 214.797C417.66 215.516 417.191 216.14 416.696 216.661C416.202 217.184 415.645 217.68 415.363 218.341C415.081 219.002 415.179 219.901 415.798 220.269C416.028 220.406 416.33 220.481 416.438 220.726C416.59 221.067 416.252 221.408 415.997 221.682C415.203 222.541 415.041 223.924 415.616 224.943C416.191 225.962 417.46 226.539 418.607 226.302L435.734 219.664C436.563 218.731 436.244 217.268 435.729 216.132C435.603 215.857 435.468 215.582 435.267 215.358C435.037 215.101 434.733 214.921 434.435 214.745C433.831 214.389 433.227 214.035 432.621 213.679C432.351 213.521 432.067 213.349 431.918 213.072C431.57 212.429 432.082 211.494 431.587 210.955C431.244 210.58 430.604 210.644 430.227 210.303C429.839 209.952 429.884 209.347 429.788 208.831C429.44 206.964 426.837 206.157 425.354 205.94C423.467 205.661 421.896 205.861 420.219 206.64Z" fill="#FFA121"/>
<path d="M431.717 218.262L427.718 221.703L426.643 220.449L423.645 216.959L425.317 215.525L427.644 213.526L431.717 218.262Z" fill="#FFBC96"/>
<path d="M426.643 220.449L423.643 216.959L425.315 215.525L427.642 215.23C427.939 217.123 427.545 218.851 426.643 220.449Z" fill="#1B1B43"/>
<path d="M427.479 210.988C428.654 213.822 427.646 217.389 425.931 218.101C424.157 218.836 421.725 217.905 419.628 214.244C418.104 211.583 419.34 208.999 421.51 208.1C423.679 207.202 426.303 208.154 427.479 210.988Z" fill="#FFBC96"/>
<path d="M425.904 211.049C425.707 210.884 425.487 210.727 425.246 210.726C424.986 210.724 424.752 210.902 424.517 211.033C424.281 211.164 423.988 211.248 423.773 211.076C423.659 210.984 423.586 210.839 423.501 210.709C423.343 210.469 423.122 210.271 422.869 210.239C422.617 210.204 422.338 210.37 422.254 210.661C422.191 210.88 422.241 211.124 422.207 211.353C422.151 211.728 421.842 212.021 421.529 211.994C421.24 211.969 420.936 211.714 420.683 211.886C420.449 212.046 420.447 212.449 420.496 212.769C420.545 213.089 420.604 213.461 420.426 213.703C420.28 213.901 420.034 213.924 419.818 213.897C419.603 213.87 419.378 213.807 419.17 213.887C418.961 213.966 418.789 214.258 418.889 214.494C418.672 214.205 418.519 213.847 418.451 213.464C418.389 213.126 418.395 212.776 418.425 212.433C418.612 210.346 419.826 208.443 421.441 207.707C421.733 207.574 422.036 207.477 422.342 207.406C423.735 207.087 425.214 207.34 426.479 208.118C427.033 208.458 427.554 208.905 427.928 209.507C428.316 210.131 428.532 210.911 428.523 211.692C428.516 212.26 428.352 212.886 427.939 213.157C427.739 213.288 427.207 213.453 426.992 213.304C426.736 213.128 426.869 213.002 426.853 212.693C426.821 211.987 426.354 211.425 425.904 211.049Z" fill="#FFA121"/>
<path d="M427.441 213.773C428.285 213.773 428.969 213.089 428.969 212.245C428.969 211.402 428.285 210.718 427.441 210.718C426.597 210.718 425.913 211.402 425.913 212.245C425.913 213.089 426.597 213.773 427.441 213.773Z" fill="#FFBC96"/>
<path d="M435.734 283.116L436.106 288.973L424.77 289L429.86 284.097L429.592 280.857L435.68 280.306L435.734 283.116Z" fill="#1B1B43"/>
<path d="M444.877 245.487L443.295 247.232L441.426 249.297L439.435 251.492L432.305 259.365L437.131 282.306H427.919L421.912 264.577C420.282 259.791 421.249 254.508 424.47 250.607L430.64 243.118L433.624 239.497L435.836 238.457L438.885 237.016L441.122 240.178L444.877 245.487Z" fill="#3335CF"/>
<path d="M443.295 247.232L439.437 251.493C438.328 249.364 438.991 246.321 440.582 245.198L443.295 247.232Z" fill="#1B1B43"/>
<path d="M469.28 278.045L472.733 282.791L463.176 288.887L464.846 282.021L462.883 279.427L467.727 275.702L469.28 278.045Z" fill="#1B1B43"/>
<path d="M469.74 275.688L468.363 276.664L463.43 280.154L461.339 281.629L451.473 265.03C448.441 261.678 445.025 255.985 441.426 249.299C440.148 246.914 438.845 244.4 437.526 241.818C436.969 240.713 436.403 239.589 435.838 238.459C435.585 237.967 435.339 237.467 435.085 236.968L438.576 235.485L444.714 232.872L445.69 234.536L446.534 235.995L469.74 275.688Z" fill="#3335CF"/>
<path opacity="0.6" d="M446.533 235.991C444.829 237.72 439.97 242.193 437.352 242.984C435.121 243.658 432.953 243.577 430.642 243.118L433.626 239.497L435.838 238.457C435.585 237.965 435.339 237.465 435.085 236.965L438.576 235.483L445.688 234.532L446.533 235.991Z" fill="#1B1B43"/>
<path d="M408.006 227.105C408.006 227.105 404.318 222.051 404.25 223.212C404.201 224.043 404.192 227.496 404.327 229.532C404.379 230.303 405.012 230.902 405.785 230.916L408.107 230.959L408.006 227.105Z" fill="#D28572"/>
<path d="M428.971 219.252L421.184 228.433L407.458 226.384L407.048 232.426L419.617 235.228C421.24 235.589 422.935 235.129 424.154 233.998L436.755 222.287L428.971 219.252Z" fill="#D1D1FF"/>
<path d="M434.535 241.097C433.117 241.613 431.552 240.86 431.036 239.368C430.7 238.392 430.274 237.329 429.815 236.222C429.078 234.419 428.259 232.477 427.619 230.527C426.251 226.365 425.694 222.153 428.446 219.13C429.397 218.073 430.815 217.491 432.224 217.705C434.321 218.032 437.485 219.779 440.812 226.153C441.672 227.799 442.852 229.242 444.279 230.372C445.425 231.274 446.664 232.405 447.016 233.282C447.875 235.444 439.19 239.392 434.535 241.097Z" fill="#D1D1FF"/>
<path d="M433.117 226.471C432.838 230.46 431.602 233.812 429.815 236.221C429.078 234.419 428.259 232.476 427.619 230.527L433.117 226.471Z" fill="#1B1B43"/>
<path d="M427.756 231.454C427.667 231.165 427.574 230.87 427.479 230.568C426.657 227.966 425.636 224.726 426.972 220.905L427.281 221.013C425.982 224.731 426.943 227.779 427.792 230.467C427.887 230.771 427.98 231.067 428.068 231.357L427.756 231.454Z" fill="#9192FF"/>
<path d="M407.972 231.37C407.972 231.37 404.079 225.702 404.011 226.863C403.962 227.693 403.84 231.611 404.327 233.424C404.526 234.17 405.012 234.793 405.785 234.807L408.107 234.851L407.972 231.37Z" fill="#FFBC96"/>
<path d="M432.145 219.626L421.184 232.326L407.458 230.277L407.048 236.319L419.617 239.12C421.24 239.481 422.935 239.021 424.154 237.891L436.755 226.18L432.145 219.626Z" fill="#D1D1FF"/>
<path d="M421.251 232.502L407.435 230.44L407.483 230.115L421.12 232.151L430.964 220.648L431.212 220.862L421.251 232.502Z" fill="#9192FF"/>
<path d="M404.259 192.117V289.002H307.356V257.261C309.462 258.449 311.822 259.121 314.32 259.121C323.113 259.121 330.243 250.813 330.243 240.563C330.243 230.305 323.113 221.998 314.32 221.998C311.82 221.998 309.46 222.67 307.356 223.866V192.118H342.183C341.306 190.267 340.823 188.251 340.823 186.129C340.823 177.338 349.132 170.209 359.391 170.209C369.643 170.209 377.96 177.338 377.96 186.129C377.96 188.251 377.476 190.266 376.599 192.118H404.259V192.117Z" fill="#9192FF"/>
<g opacity="0.6">
<path d="M330.028 237.509C330.058 237.727 330.085 237.944 330.109 238.163C337.746 240.144 347.16 245.193 353.72 238.09C356.271 235.328 357.601 231.584 358.368 227.967C359.418 223.013 359.691 217.855 359.332 212.811C358.976 207.819 357.765 203.089 356.505 198.266C355.092 192.857 354.315 187.298 357.171 182.211C359.911 177.329 364.231 174.408 369.149 172.584C368.903 172.453 368.651 172.327 368.398 172.207C365.657 173.305 363.081 174.782 360.791 176.827C357.973 179.343 355.757 182.61 354.926 186.33C353.819 191.288 355.342 196.303 356.625 201.067C358.14 206.694 358.989 212.41 358.845 218.247C358.719 223.313 358.126 228.707 356.019 233.376C353.836 238.221 349.77 241.461 344.266 241.209C339.322 240.981 334.774 238.708 330.028 237.509Z" fill="white"/>
<path d="M404.259 261.573C398.717 267.863 389.366 269.437 381.324 269.203C366.36 268.77 348.528 262.048 334.89 271.324C328.921 275.383 325.739 282.027 324.824 289.001H325.45C326.323 282.446 329.213 276.162 334.715 272.195C348.285 262.411 366.581 269.478 381.662 269.829C389.058 270 396.947 268.749 402.783 263.85C403.313 263.404 403.799 262.934 404.259 262.45V261.573Z" fill="white"/>
<path d="M397.93 192.116H397.134C397.006 192.323 396.873 192.528 396.749 192.74C388.683 206.395 390.228 223.94 399.604 236.488C401.126 238.526 402.808 240.665 404.259 242.891V241.639C402.939 239.779 401.494 237.998 400.134 236.178C397.684 232.902 395.676 229.406 394.323 225.534C391.647 217.88 391.395 209.4 393.622 201.603C394.596 198.19 396.068 195.013 397.93 192.116Z" fill="white"/>
</g>
<path d="M320.293 192.123L311.141 192.15L315.512 188.356L315.376 183.849L319.474 183.454L320.293 192.123Z" fill="#1B1B43"/>
<path d="M325.209 135.648C325.2 135.697 325.2 135.738 325.193 135.788C324.873 138.574 324.587 141.548 324.309 144.685C324.039 147.816 323.776 151.108 323.514 154.533C322.777 164.25 322.064 175.016 321.113 186.166H313.738C314.008 170.951 314.001 156.49 315.509 143.217C315.787 140.694 316.132 138.22 316.54 135.787C316.646 135.147 316.761 134.509 316.876 133.869L320.696 134.68L325.209 135.648Z" fill="#FE5B52"/>
<path d="M338.092 192.123L328.931 192.15L332.584 188.084L331.629 183.44L335.999 183.201L338.092 192.123Z" fill="#1B1B43"/>
<path d="M337.911 186.168H330.265C327.912 176.475 325.488 165.932 323.512 154.542V154.533C322.93 151.255 322.398 147.906 321.914 144.488C321.514 141.636 321.136 138.736 320.816 135.787C320.768 135.418 320.726 135.05 320.694 134.68C320.662 134.392 320.629 134.097 320.595 133.803L330.675 134.548C330.7 134.967 330.732 135.375 330.765 135.785C330.979 138.775 331.248 141.708 331.559 144.601C333.101 158.893 335.691 172.182 337.911 186.168Z" fill="#FE5B52"/>
<path d="M331.561 144.604C329.307 144.784 326.791 144.818 324.308 144.687C323.505 144.639 322.702 144.581 321.916 144.491C319.572 144.254 317.351 143.835 315.509 143.221C315.787 140.698 316.132 138.223 316.54 135.79H330.766C330.979 138.778 331.25 141.711 331.561 144.604Z" fill="#BE443D"/>
<path d="M322.498 147.944L322.174 148.003L323.915 157.528L324.239 157.468L322.498 147.944Z" fill="#1B1B43"/>
<path d="M296.358 102.245C295.946 100.804 295.678 99.4292 295.743 98.209H300.803L300.276 102.303L298.856 102.554L296.358 102.245Z" fill="#D28572"/>
<path d="M300.283 102.328L296.361 102.26L296.764 106.255C297.832 105.974 299.607 104.655 300.808 104.328L300.283 102.328Z" fill="#D28572"/>
<path d="M315.92 118.027L303.42 114.3L300.808 104.328C299.607 104.655 296.742 105.606 295.675 105.886L297.233 115.57C297.377 116.422 297.652 117.26 298.137 117.975C298.802 118.956 299.636 119.562 300.472 119.926L316.672 125.607L315.92 118.027Z" fill="#3335CF"/>
<path d="M312.983 124.327L315.647 125.246L315.581 123.409L312.983 124.327Z" fill="#1B1B43"/>
<path d="M351.889 102.916C352.301 101.475 352.568 100.1 352.504 98.8799H347.444L347.971 102.974L349.391 103.225L351.889 102.916Z" fill="#D28572"/>
<path d="M347.964 102.998L351.885 102.93L351.591 106.88C350.523 106.599 348.641 105.325 347.439 104.998L347.964 102.998Z" fill="#D28572"/>
<path d="M352.572 106.554L351.015 116.238C350.875 117.09 350.597 117.926 350.113 118.646C349.45 119.622 348.614 120.228 347.778 120.596L334.084 125.315L331.421 126.233L330.668 126.496L331.282 118.025L344.829 114.968L347.442 104.996C348.368 105.249 350.311 105.88 351.63 106.283C352.006 106.4 352.335 106.489 352.572 106.554Z" fill="#3335CF"/>
<path d="M334.084 125.317L331.421 126.235L331.487 124.398L334.084 125.317Z" fill="#1B1B43"/>
<path d="M331.428 118.032C326.9 117.315 320.024 116.812 315.793 117.964L315.419 134.135C315.412 134.723 315.32 135.305 315.146 135.866C314.558 137.751 314.073 139.059 316.292 139.771C318.81 140.578 321.731 140.811 324.361 140.826C326.088 140.835 330.916 141.133 331.712 139.129C332.109 138.132 331.311 135.684 331.273 134.46C331.212 132.527 331.455 127.804 331.478 125.871C331.482 125.319 331.428 118.032 331.428 118.032Z" fill="#3335CF"/>
<path d="M323.552 120.105C322.121 120.105 320.96 118.944 320.96 117.513V113.405H326.144V117.513C326.144 118.944 324.984 120.105 323.552 120.105Z" fill="#D28572"/>
<path d="M326.14 114.956C324.873 118.412 322.376 117.862 320.955 114.981L323.221 114.329L326.14 114.956Z" fill="#1B1B43"/>
<path d="M327.461 111.162C327.447 114.575 325.225 116.23 323.554 116.23C321.992 116.23 319.738 114.812 319.646 111.162C319.576 108.364 321.395 106.095 323.554 106.095C325.712 106.095 327.472 108.363 327.461 111.162Z" fill="#D28572"/>
<path d="M319.637 110.526C319.812 109.554 320.308 108.641 321.028 107.965C321.228 108.219 321.569 108.35 321.887 108.3C322.206 108.248 322.488 108.014 322.596 107.712C322.691 108.066 323.022 108.341 323.386 108.372C323.751 108.4 324.123 108.181 324.273 107.847C324.377 108.12 324.645 108.321 324.936 108.345C325.227 108.368 325.524 108.21 325.669 107.958C326.492 108.638 327.005 109.683 327.037 110.751L327.801 111.144C328.088 110.666 328.261 110.102 328.293 109.545C328.309 109.267 328.297 108.975 328.22 108.704C328.169 108.524 327.959 108.248 328.069 108.068C328.261 107.75 328.579 107.333 328.46 106.882C328.426 106.756 327.824 106.118 327.677 106.303C327.916 105.827 327.608 105.46 327.373 105.297C327.139 105.133 326.848 105.15 326.577 105.173C326.615 104.646 326.167 104.215 325.727 104.172C325.286 104.129 324.862 104.362 324.463 104.591C324.366 104.219 324.098 103.917 323.782 103.823C323.466 103.73 323.111 103.85 322.881 104.125C322.666 103.84 322.308 103.716 321.999 103.82C321.688 103.924 321.438 104.251 321.379 104.632C321.044 104.402 320.608 104.404 320.273 104.634C319.939 104.864 319.722 105.317 319.72 105.779C319.326 105.845 318.978 106.21 318.87 106.668C318.764 107.126 318.904 107.655 319.213 107.955C318.676 108.794 318.595 110.014 319.013 110.943L319.637 110.526Z" fill="#1B1B43"/>
<path d="M320.518 111.084C320.518 111.745 320.069 112.28 319.515 112.28C318.961 112.28 318.512 111.745 318.512 111.084C318.512 110.422 318.961 109.887 319.515 109.887C320.069 109.887 320.518 110.422 320.518 111.084Z" fill="#D28572"/>
<path d="M328.561 111.053C328.561 111.698 328.09 112.219 327.511 112.219C326.931 112.219 326.462 111.696 326.462 111.053C326.462 110.408 326.933 109.887 327.511 109.887C328.09 109.887 328.561 110.41 328.561 111.053Z" fill="#D28572"/>
<path d="M370.653 2V98.885H342.996C343.873 97.0341 344.356 95.0178 344.356 92.8955C344.356 84.1045 336.038 76.9757 325.788 76.9757C315.528 76.9757 307.219 84.1045 307.219 92.8955C307.219 95.0178 307.703 97.0323 308.58 98.885H273.752V67.0704C275.859 68.2673 278.219 68.9393 280.717 68.9393C289.51 68.9393 296.64 60.6317 296.64 50.3742C296.64 40.124 289.51 31.8091 280.717 31.8091C278.217 31.8091 275.857 32.4812 273.752 33.678V2H370.653Z" fill="#FFA121"/>
<path opacity="0.6" d="M370.653 11.8621C365.869 10.2107 360.899 9.25465 355.73 9.54757C349.418 9.90518 343.272 12.2269 338.234 16.0348C332.995 19.9937 329.451 25.3345 327.051 31.3941C324.278 38.3989 322.854 45.8799 319.653 52.7248C316.876 58.6658 312.994 64.064 308.35 68.6896C299.063 77.9371 286.749 84.0326 273.751 85.5224V86.1334C284.297 84.9383 294.409 80.7585 302.859 74.2927C313.161 66.4092 319.873 55.8606 323.714 43.5743C325.966 36.37 327.846 28.7866 332.461 22.6479C336.818 16.8525 343.26 12.6834 350.295 10.969C357.285 9.26364 364.124 10.2754 370.653 12.554V11.8621Z" fill="white"/>
<path d="M300.24 102.44C300.24 102.44 302.616 96.4555 301.885 95.9882C301.153 95.521 299.778 98.8833 299.399 101.28L300.24 102.44Z" fill="#D28572"/>
<path d="M348.005 103.11C348.005 103.11 345.629 97.1254 346.36 96.6582C347.092 96.1909 348.467 99.5532 348.846 101.95L348.005 103.11Z" fill="#D28572"/>
<path d="M281.697 240.563C281.697 250.814 274.567 259.121 265.774 259.121C263.274 259.121 260.914 258.449 258.809 257.261V289.002H161.915V192.117H197.914C196.423 194.403 195.58 197.041 195.58 199.852C195.58 208.643 203.889 215.771 214.148 215.771C224.4 215.771 232.717 208.643 232.717 199.852C232.717 197.041 231.872 194.403 230.382 192.117H258.809V223.865C260.916 222.668 263.275 221.996 265.774 221.996C274.568 221.996 281.697 230.304 281.697 240.563Z" fill="#D1D1FF"/>
<path d="M205.422 275.751C205.143 267.709 203.761 259.427 196.126 255.145C182.93 247.744 168.803 257.199 161.917 268.885V270.017C164.37 265.407 167.784 261.319 172.104 258.19C178.668 253.436 187.233 251.531 194.778 255.132C203.107 259.109 204.543 267.727 204.822 276.091C204.964 280.393 205.016 284.695 205.018 288.999H205.634C205.629 284.583 205.575 280.166 205.422 275.751Z" fill="#9192FF"/>
<path d="M241.03 229.999C245.216 234.128 251.301 231.808 255.689 229.332C259.37 227.255 262.801 224.782 265.968 222.004C265.903 222.002 265.84 221.998 265.776 221.998C265.519 221.998 265.265 222.009 265.012 222.023C262.028 224.581 258.813 226.863 255.378 228.802C252.092 230.656 247.908 232.622 244.083 231.23C240.71 230 239.112 226.559 238.506 223.247C237.316 216.72 238.959 209.46 241.583 203.467C243.413 199.289 245.933 195.458 249.004 192.117H248.194C242.293 198.727 238.517 207.149 237.713 216.048C237.296 220.683 237.474 226.494 241.03 229.999Z" fill="#9192FF"/>
<path d="M271.782 257.748C272.014 257.639 272.242 257.522 272.467 257.4C268.939 253.82 264.744 251.072 259.343 249.863C252.157 248.254 245.217 250.948 240.846 256.826C235.966 263.389 235.334 271.792 237.304 279.535C238.114 282.723 239.3 285.965 240.801 288.999H241.567C239.922 285.701 238.56 282.249 237.722 278.658C235.941 271.028 236.809 262.758 241.86 256.514C246.858 250.334 254.672 248.589 262.046 251.302C265.819 252.693 269.009 254.984 271.782 257.748Z" fill="#9192FF"/>
<path d="M161.915 241.417V242.12C170.298 237.476 177.004 229.937 180.417 220.907C183.917 211.647 183.647 201.271 180.119 192.117H179.456C182.948 201.016 183.304 211.094 180.033 220.181C176.792 229.181 170.192 236.743 161.915 241.417Z" fill="#9192FF"/>
</g>
</g>
<defs>
<clipPath id="clip0_1715_8026">
<rect width="516" height="288" fill="white" transform="translate(16)"/>
</clipPath>
<clipPath id="clip1_1715_8026">
<rect width="463" height="287" fill="white" transform="translate(43 2)"/>
</clipPath>
</defs>
</svg>
