<svg width="524" height="278" viewBox="0 0 524 278" fill="none" xmlns="http://www.w3.org/2000/svg">
<g clip-path="url(#clip0_1715_7992)">
<g clip-path="url(#clip1_1715_7992)">
<g clip-path="url(#clip2_1715_7992)">
<path d="M101.496 229.868H482.479L468.887 126.839C454.06 33.1737 344.235 2.0706 265.839 56.6114C234 73.7767 196.764 79.2054 160.403 75.5674C89.6321 69.274 40.1699 149.656 81.8521 202.967C81.8503 202.965 101.496 229.868 101.496 229.868Z" fill="#DCECFD"/>
<mask id="mask0_1715_7992" style="mask-type:luminance" maskUnits="userSpaceOnUse" x="66" y="29" width="417" height="201">
<path d="M101.496 229.868H482.479L468.887 126.839C454.06 33.1737 344.235 2.0706 265.839 56.6114C234 73.7767 196.764 79.2054 160.403 75.5674C89.6321 69.274 40.1699 149.656 81.8521 202.967C81.8503 202.965 101.496 229.868 101.496 229.868Z" fill="white"/>
</mask>
<g mask="url(#mask0_1715_7992)">
<path opacity="0.7" d="M66.693 233.386V156.932H125.832V118.074H231.044V166.252H350.364V126.624H433.488V151.081H496.591V234.61L66.693 233.386Z" fill="#F1F8FE"/>
</g>
<path d="M370.326 89.6963H344.066C342.476 89.6963 341.092 90.6999 340.707 92.1286L308.349 212.268L310.732 212.271L342.825 93.1161C343.006 92.4422 343.658 91.9702 344.408 91.9702H370.326C371.004 91.9702 371.553 91.4611 371.553 90.8325C371.551 90.2054 371.002 89.6963 370.326 89.6963Z" fill="#324D90"/>
<path d="M463.885 89.7949H437.583C435.993 89.7949 434.609 90.7986 434.224 92.2273L401.866 212.367L404.249 212.37L436.342 93.2147C436.523 92.5408 437.175 92.0689 437.925 92.0689H463.886C464.564 92.0689 465.114 91.5598 465.114 90.9311C465.11 90.304 464.561 89.7949 463.885 89.7949Z" fill="#324D90"/>
<path d="M341.059 218.042C341.007 213.404 339.096 208.091 334.072 206.456C331.764 205.968 329.324 206.312 326.97 206.23C320.738 205.386 316.29 210.495 316.166 218.042C316.291 225.59 320.738 230.697 326.97 229.853C329.324 229.772 331.764 230.115 334.072 229.627C339.063 228.053 341.038 222.584 341.059 218.042Z" fill="#152E60"/>
<path d="M296.65 212.914C295.517 209.67 292.756 206.233 288.762 206.215C286.266 206.226 283.676 206.221 281.228 206.216C276.413 206.322 272.543 211.682 272.622 218.236C272.706 224.699 276.602 229.901 281.432 229.866C283.876 229.858 286.32 229.856 288.764 229.866C294.871 229.609 297.548 222.983 297.515 218.04C297.513 216.204 297.203 214.465 296.65 212.914Z" fill="#152E60"/>
<path d="M419.959 142.057H357.018V214.004H419.959V142.057Z" fill="#F08F3C"/>
<path d="M397.935 142.057H390.479V150.26H397.935V142.057Z" fill="#FDF1E6"/>
<path d="M367.451 142.057H272.62V214.004H367.451V142.057Z" fill="#F3AC4A"/>
<path d="M325.652 142.057H314.417V150.26H325.652V142.057Z" fill="#FDF1E6"/>
<path d="M428.992 213.371H263.585V217.475H428.992V213.371Z" fill="#324D90"/>
<path d="M346.289 213.371H263.585V217.475H346.289V213.371Z" fill="#152E60"/>
<path d="M414.693 206.215C412.777 206.225 410.861 206.225 408.945 206.215C395.937 204.503 395.186 229.48 407.303 229.868C409.219 229.858 411.135 229.858 413.051 229.868C426.057 231.579 426.81 206.603 414.693 206.215Z" fill="#152E60"/>
<path d="M423.444 218.043C423.217 233.606 406.167 233.605 405.94 218.043C406.168 202.477 423.217 202.479 423.444 218.043Z" fill="#324D90"/>
<path d="M417.831 218.043C417.749 224.039 411.635 224.039 411.553 218.043C411.635 212.045 417.749 212.047 417.831 218.043Z" fill="#152E60"/>
<path d="M371.145 206.215C369.229 206.225 367.314 206.225 365.398 206.215C352.39 204.503 351.639 229.48 363.756 229.868C365.672 229.858 367.587 229.858 369.503 229.868C382.511 231.579 383.262 206.603 371.145 206.215Z" fill="#152E60"/>
<path d="M379.898 218.043C379.671 233.606 362.621 233.605 362.394 218.043C362.623 202.477 379.671 202.479 379.898 218.043Z" fill="#324D90"/>
<path d="M374.285 218.043C374.203 224.039 368.089 224.039 368.007 218.043C368.089 212.045 374.203 212.047 374.285 218.043Z" fill="#152E60"/>
<path d="M268.638 84.374L245.792 101.564L238.407 94.0694L228.821 102.187C229.947 103.345 236.666 110.123 237.585 111.12C241.298 115.151 248.544 115.164 252.28 111.154L273.082 89.7462L268.638 84.374Z" fill="#F4D2C6"/>
<mask id="mask1_1715_7992" style="mask-type:luminance" maskUnits="userSpaceOnUse" x="228" y="84" width="46" height="31">
<path d="M268.638 84.374L245.792 101.564L238.407 94.0694L228.821 102.187C229.947 103.345 236.666 110.123 237.585 111.12C241.298 115.151 248.544 115.164 252.28 111.154L273.082 89.7462L268.638 84.374Z" fill="white"/>
</mask>
<g mask="url(#mask1_1715_7992)">
<path d="M245.792 101.561L239.532 114.176L232.62 108.526L243.553 98.7041L245.792 101.561Z" fill="#EDA19D"/>
</g>
<path d="M281.244 120.769H260.09C258.949 120.769 258.026 119.912 258.026 118.855V89.9048C258.026 88.8478 258.949 87.9912 260.09 87.9912H281.244C282.384 87.9912 283.308 88.8478 283.308 89.9048V118.855C283.308 119.912 282.384 120.769 281.244 120.769Z" fill="#324D90"/>
<path d="M280.834 90.5117H260.501V118.265H280.834V90.5117Z" fill="#F3F5FB"/>
<path d="M274.18 91.288H267.155C266.698 91.288 266.329 90.9453 266.329 90.5219V88.0346C266.329 87.6112 266.698 87.2686 267.155 87.2686H274.18C274.637 87.2686 275.006 87.6112 275.006 88.0346V90.5219C275.005 90.9453 274.635 91.288 274.18 91.288Z" fill="#152E60"/>
<path d="M279.11 95.1426H262.223V97.0303H279.11V95.1426Z" fill="#E3EAF4"/>
<path d="M279.11 99.29H262.223V101.178H279.11V99.29Z" fill="#E3EAF4"/>
<path d="M279.11 103.437H262.223V105.324H279.11V103.437Z" fill="#E3EAF4"/>
<path d="M279.11 107.582H262.223V109.47H279.11V107.582Z" fill="#E3EAF4"/>
<path d="M274.063 111.729H262.223V113.617H274.063V111.729Z" fill="#E3EAF4"/>
<path d="M267.361 86.4941C267.042 88.9766 269.233 90.263 271.318 91.236C274.36 92.9653 278.578 90.1321 277.663 86.9063C277.335 84.6258 275.761 83.5139 273.462 82.9887C270.88 82.2178 267.575 83.8759 267.361 86.4941Z" fill="#F4D2C6"/>
<path d="M189.549 103.092L214.364 91.0254L206.444 77.0261L181.629 89.093L189.549 103.092Z" fill="#4292F3"/>
<path d="M180.607 105.771L188.663 100.772L183.034 91.5781C178.268 94.1818 170.43 96.8824 170.54 103.09C170.971 105.627 167.369 133.82 170.321 135.035C173.798 138.706 177.621 135.701 180.81 133.526L176.354 133.484L180.607 105.771Z" fill="#F4D2C6"/>
<mask id="mask2_1715_7992" style="mask-type:luminance" maskUnits="userSpaceOnUse" x="169" y="91" width="20" height="46">
<path d="M180.607 105.771L188.663 100.772L183.034 91.5781C178.268 94.1818 170.43 96.8824 170.54 103.09C170.971 105.627 167.369 133.82 170.321 135.035C173.798 138.706 177.621 135.701 180.81 133.526L176.354 133.484L180.607 105.771Z" fill="white"/>
</mask>
<g mask="url(#mask2_1715_7992)">
<path d="M179.488 91.7511L182.403 102.566L189.085 98.5325L184.509 89.2783L179.488 91.7511Z" fill="#EDA19D"/>
</g>
<path d="M246.231 98.7872L226.418 80.418L214.361 91.5956L234.175 109.965L246.231 98.7872Z" fill="#4292F3"/>
<path d="M234.593 109.58L231.267 92.6924L236.889 107.451L234.593 109.58Z" fill="#3C7ED7"/>
<path d="M192.942 118.305L195.06 221.202H202.523L218.165 118.074L192.942 118.305Z" fill="#324D90"/>
<mask id="mask3_1715_7992" style="mask-type:luminance" maskUnits="userSpaceOnUse" x="192" y="118" width="27" height="104">
<path d="M192.942 118.305L195.06 221.202H202.523L218.165 118.074L192.942 118.305Z" fill="white"/>
</mask>
<g mask="url(#mask3_1715_7992)">
<path d="M213.973 145.711C203.128 159.067 199.861 203.374 199.005 222.598H205.553L213.652 175.458L213.973 145.711Z" fill="#2A437D"/>
</g>
<path d="M235.099 118.305L232.982 221.202H225.162L209.876 118.074L235.099 118.305Z" fill="#324D90"/>
<mask id="mask4_1715_7992" style="mask-type:luminance" maskUnits="userSpaceOnUse" x="209" y="118" width="27" height="104">
<path d="M235.099 118.305L232.982 221.202H225.162L209.876 118.074L235.099 118.305Z" fill="white"/>
</mask>
<g mask="url(#mask4_1715_7992)">
<path d="M213.973 145.711C223.194 156.572 228.277 206.409 228.502 221.996H222.487L213.973 145.711Z" fill="#2A437D"/>
</g>
<path d="M206.736 61.4241C207.31 64.6225 204.343 65.0895 203.745 61.8944C203.172 58.6976 206.139 58.2305 206.736 61.4241Z" fill="#EDA19D"/>
<path d="M221.024 61.4241C220.45 64.6225 223.417 65.0895 224.015 61.8944C224.589 58.6976 221.62 58.2305 221.024 61.4241Z" fill="#EDA19D"/>
<path d="M222.371 61.8219C222.16 74.4215 205.598 74.4199 205.389 61.8219C203.883 48.9233 223.428 48.7972 222.371 61.8219Z" fill="#F4D2C6"/>
<mask id="mask5_1715_7992" style="mask-type:luminance" maskUnits="userSpaceOnUse" x="205" y="52" width="18" height="20">
<path d="M222.371 61.8219C222.16 74.4215 205.598 74.4199 205.389 61.8219C203.883 48.9233 223.428 48.7972 222.371 61.8219Z" fill="white"/>
</mask>
<g mask="url(#mask5_1715_7992)">
<path d="M206.123 57.2854C206.123 57.2854 212.541 58.5153 221.148 56.3011L220.217 53.4502L207.692 53.8623L206.123 56.7989" fill="#EDA19D"/>
</g>
<path d="M218.28 64.1367C216.068 64.1367 211.689 64.1367 209.479 64.1367C210.54 66.9472 208.223 81.0208 208.223 81.0208C211.061 81.0208 216.699 81.0208 219.535 81.0208C219.535 81.0208 217.218 66.9472 218.28 64.1367Z" fill="#F4D2C6"/>
<path d="M209.599 70.0947C209.599 70.0947 213.587 72.9456 218.16 70.0947L218.4 72.6467C218.4 72.6467 213.478 74.78 209.357 72.6725L209.599 70.0947Z" fill="#EDA19D"/>
<path d="M206.54 55.029C206.54 55.029 217.644 56.0536 220.508 54.4698C223.372 52.8859 222.769 47.5283 222.769 47.5283C221.141 47.7691 202.692 47.3522 206.54 55.029Z" fill="#59445A"/>
<path d="M206.75 51.5879C206.75 51.5879 203.649 52.4509 203.276 53.6291C202.903 54.8089 205.504 59.3665 205.504 59.3665C206.203 59.36 206.804 58.9124 206.963 58.2821L207.929 54.4356L206.75 51.5879Z" fill="#59445A"/>
<path d="M220.986 51.5879C220.986 51.5879 224.087 52.4509 224.46 53.6291C224.833 54.8089 222.232 59.3665 222.232 59.3665C221.529 59.3843 220.883 58.8332 220.773 58.2804C220.754 58.2045 219.807 54.4356 219.807 54.4356L220.986 51.5879Z" fill="#59445A"/>
<path d="M219.807 54.759C219.807 54.759 222.312 53.4144 222.371 52.0762C222.371 52.0762 223.316 55.302 219.807 54.759Z" fill="#34254B"/>
<path d="M196.314 221.201L195.491 223.876L186.594 227.41C185.534 227.832 184.847 228.797 184.847 229.867H203.22L202.523 221.201H196.314Z" fill="#152E60"/>
<path d="M231.372 221.201L232.194 223.876L241.092 227.41C242.152 227.832 242.839 228.797 242.839 229.867H224.465L225.162 221.201H231.372Z" fill="#152E60"/>
<path d="M231.462 90.4085C229.787 80.0618 221.266 74.8788 211.717 76.0246C204.092 75.7644 197.222 82.9548 196.274 90.4198C196.152 91.1665 190.052 128.529 190.052 128.529H237.687L231.462 90.4085Z" fill="#4292F3"/>
<mask id="mask6_1715_7992" style="mask-type:luminance" maskUnits="userSpaceOnUse" x="190" y="75" width="48" height="54">
<path d="M231.462 90.4085C229.787 80.0618 221.266 74.8788 211.717 76.0246C204.092 75.7644 197.222 82.9548 196.274 90.4198C196.152 91.1665 190.052 128.529 190.052 128.529H237.687L231.462 90.4085Z" fill="white"/>
</mask>
<g mask="url(#mask6_1715_7992)">
<path d="M208.916 129.479L217.687 120.768L199.314 93.1123L205.584 118.788L186.764 131.063L208.916 129.479Z" fill="#3C7ED7"/>
</g>
<path d="M199.315 93.1042L163.517 107.905L176.663 135.234L212.461 120.433L199.315 93.1042Z" fill="#F3AC4A"/>
<path d="M184.198 99.3556L178.633 101.656L180.61 105.766L186.174 103.465L184.198 99.3556Z" fill="#FDF1E6"/>
<path d="M173.593 131.063C175.486 131.448 179.134 131.335 179.488 133.73L173.593 134.007V131.063Z" fill="#F4D2C6"/>
<path d="M208.915 76.3041C210.634 81.0314 217.124 81.0298 218.843 76.3041C218.843 76.3041 214.597 74.174 208.915 76.3041Z" fill="#F4D2C6"/>
<path d="M193.125 128.537H234.89L193.307 136.03L193.125 128.537Z" fill="#2A437D"/>
<path d="M208.916 76.3037L213.652 79.8625L211.691 81.0116C208.563 82.5357 208.054 78.5211 207.294 76.7304C207.296 76.732 208.121 76.3974 208.916 76.3037Z" fill="#F3F5FB"/>
<path d="M214.839 79.7788L216.683 80.839C217.977 81.5841 219.675 80.8956 219.962 79.5089L220.534 76.763C220.534 76.763 219.242 76.3655 218.843 76.3057L214.839 79.7788Z" fill="#F3F5FB"/>
<path d="M158.908 169.638H105.136V229.867H158.908V169.638Z" fill="#F3AC4A"/>
<path d="M136.176 169.638H127.868V175.482H136.176V169.638Z" fill="#FDF1E6"/>
<path d="M186.994 169.638H158.908V229.867H186.994V169.638Z" fill="#F08F3C"/>
<path d="M178.017 169.638H170.899V175.482H178.017V169.638Z" fill="#FDF1E6"/>
<path d="M375.175 70.0955H311.809C310.082 70.0955 308.682 68.7977 308.682 67.1961V47.7617C308.682 46.1601 310.082 44.8623 311.809 44.8623H375.175C376.903 44.8623 378.303 46.1601 378.303 47.7617V67.1961C378.303 68.7977 376.903 70.0955 375.175 70.0955Z" fill="white"/>
<path d="M372.968 49.0547H314.016V52.2191H372.968V49.0547Z" fill="#DEEEFC"/>
<path d="M372.968 55.8955H314.016V59.06H372.968V55.8955Z" fill="#DEEEFC"/>
<path d="M353.151 62.7393H314.016V65.9037H353.151V62.7393Z" fill="#DEEEFC"/>
<path d="M156.652 74.262C151.903 111.6 129.064 111.566 124.324 74.262C124.687 54.5658 156.291 54.5642 156.652 74.262Z" fill="#324D90"/>
<path d="M149.14 73.4737C148.947 84.0176 132.029 84.016 131.835 73.4737C132.029 62.9298 148.947 62.9314 149.14 73.4737Z" fill="white"/>
<path d="M159.947 148.547H110.141C109.257 148.547 108.539 147.882 108.539 147.061V130.963C108.539 130.143 109.255 129.478 110.141 129.478H159.947C160.83 129.478 161.549 130.142 161.549 130.963V147.061C161.549 147.881 160.832 148.547 159.947 148.547Z" fill="#D4E8FC"/>
<path d="M157.471 146.622H108.605C107.273 146.622 106.194 145.621 106.194 144.387V129.398C106.194 128.163 107.273 127.163 108.605 127.163H157.471C158.803 127.163 159.882 128.163 159.882 129.398V144.387C159.882 145.621 158.803 146.622 157.471 146.622Z" fill="white"/>
<path d="M155.77 130.396H110.307V132.836H155.77V130.396Z" fill="#DEEEFC"/>
<path d="M155.77 135.672H110.307V138.112H155.77V135.672Z" fill="#DEEEFC"/>
<path d="M140.487 140.949H110.307V143.39H140.487V140.949Z" fill="#DEEEFC"/>
<path d="M299.457 178.029H272.618V195.46H299.457C300.649 195.46 301.617 194.563 301.617 193.457V180.032C301.617 178.926 300.651 178.029 299.457 178.029Z" fill="#F08F3C"/>
<path d="M296.891 192.886H253.118C251.926 192.886 250.958 191.989 250.958 190.884V177.458C250.958 176.353 251.926 175.456 253.118 175.456H296.891C298.083 175.456 299.051 176.353 299.051 177.458V190.884C299.051 191.991 298.085 192.886 296.891 192.886Z" fill="white"/>
<path d="M295.367 178.353H254.644V180.539H295.367V178.353Z" fill="#DEEEFC"/>
<path d="M295.367 183.08H254.644V185.267H295.367V183.08Z" fill="#DEEEFC"/>
<path d="M281.678 187.806H254.644V189.992H281.678V187.806Z" fill="#DEEEFC"/>
<path d="M422.608 64.1367L412.724 82.574C412.526 82.9441 411.952 82.9311 411.772 82.5529L409.229 77.1646L422.608 64.1367Z" fill="#324D90"/>
<path d="M409.227 77.1646L402.34 75.0426L422.608 64.1367L409.227 77.1646Z" fill="#4292F3"/>
<path d="M422.608 64.1367L413.476 78.6014L421.679 81.1501L422.608 64.1367Z" fill="#4292F3"/>
<path d="M410.744 87.1815L410.484 87.091C410.599 86.8098 410.713 86.5286 410.822 86.249L411.082 86.3379C410.972 86.6191 410.859 86.9003 410.744 87.1815Z" fill="#324D90"/>
<path d="M280.843 133.307L280.796 133.053C281.414 132.955 282.044 132.811 282.668 132.627L282.751 132.872C282.115 133.06 281.474 133.205 280.843 133.307ZM283.546 132.615L283.449 132.374C284.027 132.172 284.622 131.928 285.216 131.649L285.342 131.878C284.737 132.161 284.134 132.41 283.546 132.615ZM286.084 131.513L285.95 131.288C286.489 131.01 287.033 130.707 287.61 130.356L287.761 130.571C287.177 130.925 286.63 131.232 286.084 131.513ZM288.459 130.138L288.302 129.926C288.795 129.611 289.311 129.267 289.879 128.871L290.047 129.076C289.473 129.473 288.956 129.821 288.459 130.138ZM290.711 128.606L290.542 128.402C291.081 128.017 291.616 127.626 292.076 127.29L292.248 127.492C291.788 127.83 291.251 128.221 290.711 128.606ZM292.904 127.012L292.731 126.81C293.223 126.451 293.748 126.067 294.269 125.696L294.438 125.9C293.919 126.27 293.394 126.653 292.904 127.012ZM295.104 125.435L294.938 125.229C295.517 124.83 295.995 124.513 296.532 124.177L296.687 124.391C296.153 124.723 295.677 125.037 295.104 125.435ZM297.381 123.964L297.231 123.747C297.781 123.419 298.345 123.102 298.904 122.807L299.042 123.03C298.486 123.324 297.926 123.637 297.381 123.964ZM299.769 122.656L299.638 122.43C300.212 122.144 300.801 121.869 301.386 121.616L301.503 121.848C300.923 122.1 300.339 122.372 299.769 122.656ZM351.841 122.595C351.835 122.595 351.668 122.595 351.663 122.595L351.664 122.338C352.315 122.341 352.975 122.323 353.603 122.285L353.622 122.542C353.043 122.577 352.444 122.595 351.841 122.595ZM350.824 122.579C350.174 122.559 349.52 122.513 348.872 122.466L348.894 122.21C349.539 122.257 350.188 122.302 350.835 122.323L350.824 122.579ZM354.461 122.475L354.433 122.22C355.093 122.159 355.738 122.07 356.349 121.96L356.401 122.212C355.782 122.323 355.13 122.412 354.461 122.475ZM348.039 122.399C347.413 122.346 346.759 122.285 346.097 122.215L346.128 121.96C346.789 122.029 347.441 122.091 348.065 122.142L348.039 122.399ZM345.265 122.126C344.645 122.057 343.994 121.979 343.33 121.894L343.368 121.638C344.031 121.722 344.681 121.801 345.3 121.871L345.265 122.126ZM357.224 122.046L357.157 121.797C357.806 121.651 358.428 121.473 359.003 121.271L359.101 121.512C358.515 121.717 357.883 121.897 357.224 122.046ZM342.5 121.785C341.857 121.7 341.214 121.609 340.571 121.517L340.612 121.263C341.254 121.355 341.895 121.446 342.539 121.532L342.5 121.785ZM370.09 121.713L370.089 121.456C370.713 121.454 371.365 121.43 372.027 121.383L372.048 121.64C371.379 121.687 370.72 121.711 370.09 121.713ZM369.25 121.703C368.574 121.683 367.917 121.635 367.294 121.561L367.329 121.305C367.943 121.378 368.593 121.425 369.259 121.444L369.25 121.703ZM372.885 121.572L372.857 121.317C373.481 121.257 374.129 121.179 374.781 121.084L374.825 121.338C374.168 121.433 373.514 121.512 372.885 121.572ZM302.262 121.532L302.15 121.296C302.746 121.053 303.356 120.825 303.965 120.617L304.061 120.858C303.457 121.064 302.853 121.291 302.262 121.532ZM366.461 121.443C365.792 121.333 365.15 121.187 364.55 121.01L364.634 120.766C365.221 120.94 365.853 121.082 366.508 121.191L366.461 121.443ZM339.744 121.396C339.101 121.3 338.46 121.203 337.82 121.105L337.865 120.851C338.505 120.95 339.146 121.047 339.788 121.142L339.744 121.396ZM359.882 121.212L359.767 120.977C360.372 120.723 360.937 120.429 361.446 120.108L361.603 120.319C361.081 120.651 360.503 120.95 359.882 121.212ZM375.651 121.207L375.602 120.955C376.24 120.848 376.875 120.727 377.502 120.586L377.567 120.837C376.934 120.977 376.294 121.098 375.651 121.207ZM336.995 120.976C336.354 120.875 335.712 120.775 335.072 120.673L335.12 120.42C335.759 120.52 336.401 120.622 337.042 120.722L336.995 120.976ZM363.755 120.746C363.124 120.513 362.546 120.25 361.991 119.927L362.139 119.71C362.152 119.717 362.162 119.723 362.174 119.731L362.103 119.65C362.607 119.267 363.055 118.839 363.436 118.38L363.656 118.537C363.273 118.999 362.825 119.427 362.323 119.815C362.802 120.079 363.313 120.308 363.855 120.509L363.755 120.746ZM378.379 120.643L378.308 120.394C378.928 120.239 379.553 120.064 380.164 119.873L380.253 120.117C379.636 120.31 379.007 120.486 378.379 120.643ZM304.845 120.601L304.756 120.358C305.368 120.164 305.997 119.983 306.625 119.822L306.7 120.069C306.076 120.229 305.452 120.408 304.845 120.601ZM334.248 120.544C333.606 120.444 332.965 120.344 332.325 120.245L332.37 119.991C333.01 120.09 333.652 120.19 334.293 120.29L334.248 120.544ZM331.499 120.119C330.857 120.022 330.214 119.928 329.574 119.836L329.616 119.582C330.258 119.673 330.901 119.768 331.544 119.865L331.499 120.119ZM307.502 119.87L307.434 119.621C308.06 119.474 308.703 119.342 309.343 119.227L309.395 119.479C308.76 119.594 308.124 119.726 307.502 119.87ZM381.043 119.86L380.947 119.62C381.549 119.416 382.155 119.191 382.748 118.952L382.858 119.188C382.261 119.427 381.65 119.655 381.043 119.86ZM328.748 119.721C328.068 119.628 327.437 119.545 326.82 119.469L326.857 119.214C327.477 119.29 328.108 119.372 328.79 119.466L328.748 119.721ZM361.298 119.473C360.775 119.094 360.299 118.663 359.884 118.193L360.098 118.029C360.501 118.485 360.963 118.904 361.468 119.271L361.298 119.473ZM325.99 119.371C325.328 119.293 324.676 119.224 324.057 119.164L324.087 118.909C324.709 118.968 325.361 119.039 326.027 119.117L325.99 119.371ZM310.214 119.342L310.167 119.088C310.8 118.988 311.452 118.9 312.102 118.829L312.135 119.085C311.488 119.156 310.842 119.241 310.214 119.342ZM323.226 119.086C322.565 119.028 321.913 118.98 321.285 118.939L321.305 118.682C321.934 118.723 322.589 118.771 323.252 118.829L323.226 119.086ZM312.963 119.002L312.937 118.747C313.572 118.689 314.229 118.645 314.888 118.613L314.902 118.87C314.246 118.9 313.594 118.944 312.963 119.002ZM320.452 118.892C319.791 118.858 319.138 118.836 318.508 118.823L318.515 118.566C319.148 118.579 319.805 118.601 320.468 118.635L320.452 118.892ZM383.623 118.868L383.506 118.635C384.087 118.385 384.669 118.115 385.239 117.831L385.37 118.057C384.796 118.343 384.207 118.616 383.623 118.868ZM315.731 118.836L315.723 118.579C316.359 118.558 317.023 118.55 317.677 118.555L317.675 118.812C317.03 118.808 316.366 118.816 315.731 118.836ZM364.141 117.89L363.905 117.755C364.238 117.255 364.519 116.711 364.7 116.148L364.965 116.222C364.777 116.806 364.488 117.37 364.141 117.89ZM386.104 117.682L385.966 117.459C386.522 117.166 387.081 116.853 387.627 116.528L387.777 116.744C387.228 117.071 386.665 117.386 386.104 117.682ZM359.38 117.557C359 117.022 358.711 116.465 358.522 115.901L358.787 115.825C358.969 116.366 359.246 116.901 359.614 117.417L359.38 117.557ZM388.478 116.316L388.323 116.103C388.854 115.772 389.386 115.421 389.907 115.059L390.073 115.264C389.55 115.629 389.013 115.983 388.478 116.316ZM365.159 115.452L364.885 115.41C364.99 114.824 364.993 114.225 364.868 113.659L365.14 113.608C365.272 114.205 365.269 114.836 365.159 115.452ZM358.325 115.13C358.222 114.516 358.228 113.877 358.411 113.284L358.677 113.354C358.505 113.913 358.501 114.513 358.599 115.09L358.325 115.13ZM390.741 114.792L390.57 114.59C391.073 114.225 391.579 113.84 392.074 113.447L392.255 113.643C391.757 114.039 391.248 114.425 390.741 114.792ZM392.888 113.129L392.703 112.937C393.179 112.542 393.659 112.129 394.128 111.707L394.321 111.891C393.849 112.316 393.368 112.733 392.888 113.129ZM364.634 112.942C364.397 112.403 363.991 111.881 363.529 111.56L363.698 111.356C364.198 111.705 364.634 112.263 364.89 112.843L364.634 112.942ZM358.984 112.667L358.742 112.542C359.071 111.99 359.554 111.531 360.138 111.216L360.278 111.439C359.736 111.73 359.289 112.155 358.984 112.667ZM394.919 111.345L394.722 111.164C395.174 110.744 395.625 110.304 396.068 109.86L396.272 110.034C395.827 110.48 395.372 110.921 394.919 111.345ZM362.839 111.201C362.27 110.999 361.63 110.98 361.013 111.146L360.937 110.899C361.611 110.718 362.314 110.739 362.94 110.962L362.839 111.201ZM396.835 109.456L396.627 109.284C397.053 108.841 397.48 108.381 397.896 107.915L398.109 108.08C397.692 108.547 397.264 109.011 396.835 109.456ZM398.643 107.477L398.426 107.316C398.827 106.854 399.23 106.374 399.622 105.89L399.844 106.045C399.45 106.532 399.045 107.012 398.643 107.477ZM400.346 105.422L400.123 105.27C400.503 104.79 400.881 104.294 401.249 103.797L401.477 103.943C401.107 104.441 400.726 104.938 400.346 105.422ZM401.948 103.3L401.718 103.157C402.073 102.664 402.431 102.155 402.777 101.645L403.013 101.782C402.662 102.293 402.305 102.803 401.948 103.3ZM403.454 101.121L403.217 100.987C403.553 100.479 403.888 99.959 404.214 99.437L404.454 99.5662C404.127 100.088 403.79 100.612 403.454 101.121ZM404.869 98.8939L404.629 98.7679C404.944 98.2491 405.26 97.719 405.567 97.1872L405.811 97.3085C405.504 97.8402 405.187 98.3735 404.869 98.8939ZM406.201 96.6232L405.955 96.5036C406.252 95.9767 406.548 95.4353 406.836 94.8971L407.085 95.0103C406.796 95.5517 406.497 96.0947 406.201 96.6232ZM407.449 94.3137L407.2 94.2022C407.479 93.6656 407.758 93.1145 408.026 92.5682L408.279 92.6749C408.009 93.2228 407.73 93.7755 407.449 94.3137ZM408.622 91.967L408.37 91.862C408.631 91.3189 408.891 90.7614 409.144 90.2054L409.398 90.3056C409.145 90.8632 408.884 91.4224 408.622 91.967ZM409.721 89.588L409.464 89.4911C409.71 88.9367 409.953 88.3727 410.186 87.8135L410.444 87.9072C410.211 88.468 409.967 89.0337 409.721 89.588Z" fill="#324D90"/>
<path d="M279.024 133.48L279.016 133.223C279.335 133.213 279.657 133.192 279.974 133.161L280.004 133.416C279.68 133.447 279.352 133.47 279.024 133.48Z" fill="#324D90"/>
<path d="M277.074 133.368C276.439 133.232 275.813 133.032 275.215 132.772L275.334 132.539C275.914 132.793 276.521 132.987 277.136 133.118L277.074 133.368ZM274.468 132.408C273.901 132.101 273.368 131.739 272.881 131.332L273.068 131.141C273.538 131.537 274.056 131.888 274.607 132.187L274.468 132.408ZM272.283 130.781C271.835 130.331 271.447 129.842 271.114 129.315L271.352 129.186C271.675 129.696 272.051 130.171 272.486 130.606L272.283 130.781ZM270.723 128.622C270.446 128.072 270.23 127.492 270.08 126.899L270.35 126.84C270.495 127.416 270.706 127.978 270.974 128.512L270.723 128.622ZM269.925 126.131C269.832 125.527 269.808 124.916 269.855 124.31L270.132 124.327C270.087 124.916 270.11 125.507 270.198 126.095L269.925 126.131Z" fill="#324D90"/>
<path d="M53 230.066C201.456 229.525 356.544 229.52 505 230.066C356.542 230.611 201.455 230.606 53 230.066Z" fill="#152E60"/>
<path d="M297.121 54.6263C297.121 62.6348 290.068 69.3815 281.041 69.3815C272.015 69.3815 264.961 62.6348 264.961 54.6263C264.961 46.6178 272.015 39.8711 281.041 39.8711C290.068 39.8711 297.121 46.6178 297.121 54.6263Z" fill="white" stroke="#324D90" stroke-width="4"/>
<path d="M274.043 54.421L279.761 60.031L286.874 48.6807" stroke="#4292F3" stroke-width="4" stroke-linecap="round"/>
</g>
</g>
</g>
<defs>
<clipPath id="clip0_1715_7992">
<rect width="478" height="267" fill="white" transform="translate(23)"/>
</clipPath>
<clipPath id="clip1_1715_7992">
<rect width="443" height="228.482" fill="white" transform="translate(62 6.12793)"/>
</clipPath>
<clipPath id="clip2_1715_7992">
<rect width="452" height="204.846" fill="white" transform="translate(53 29.7637)"/>
</clipPath>
</defs>
</svg>
