<svg width="524" height="254" viewBox="0 0 524 254" fill="none" xmlns="http://www.w3.org/2000/svg">
<g clip-path="url(#clip0_1715_8003)">
<g clip-path="url(#clip1_1715_8003)">
<g clip-path="url(#clip2_1715_8003)">
<path d="M43.7578 237.281C43.7578 237.281 -5.41933 178.122 18.6143 117.22C34.2815 77.5211 93.0461 55.7684 126.21 77.5211C140.334 86.7862 185.651 77.8336 209.847 39.4769C256.866 -35.0594 420.964 10.207 391.089 124.646C376.631 180.026 435.088 182.04 405.303 237.398L43.7578 237.281Z" fill="#EBF3FA"/>
<path d="M80.1605 139.918C80.1605 139.918 75.2008 134.14 79.8549 130.469C79.8549 130.469 83.2544 128.414 86.0267 128.581C86.0267 128.581 82.0993 135.157 83.3699 135.812C84.6406 136.466 87.2169 128.167 87.2169 128.167C87.2169 128.167 94.9532 127.418 97.4418 128.613C97.4418 128.613 90.8285 134.017 92.2219 134.338C93.6154 134.66 100.758 129.356 100.758 129.356C100.758 129.356 107.958 130.58 107.573 134.966C107.189 139.353 104.709 140.706 103.618 140.591C102.527 140.474 96.1493 138.043 96.0104 138.935C95.8715 139.827 99.7111 142.743 102.4 142.879C102.4 142.879 97.3234 148.47 93.9502 146.857C90.577 145.243 90.2889 142.686 88.1863 141.727C86.0837 140.768 84.2882 140.771 85.1567 141.749C86.0252 142.727 89.8313 143.678 91.0332 145.802C92.2351 147.927 93.3141 149.359 89.8239 148.835C86.3337 148.311 80.6605 145.76 80.4105 142.84C80.1605 139.918 80.1605 139.918 80.1605 139.918Z" fill="#C8DBF4"/>
<path d="M104.033 135.086C104.033 135.086 84.4783 134.334 80.159 139.917C80.159 139.917 79.2042 142.774 76.2652 145.376L75.8076 146.623C75.8076 146.623 79.1969 143.054 80.409 142.839C80.409 142.839 78.5126 135.919 104.033 135.086Z" fill="#C8DBF4"/>
<path d="M76.2667 145.375C76.2667 145.375 72.0688 148.475 71.7779 154.014L72.5396 154.082C72.5396 154.082 73.8805 148.356 76.3033 146.116C78.7261 143.876 76.2667 145.375 76.2667 145.375Z" fill="#C8DBF4"/>
<path d="M62.8191 132.652C62.8191 132.652 70.709 128.239 67.0273 122.252C67.0273 122.252 64.0825 118.576 60.9256 117.631C60.9256 117.631 62.6086 126.56 60.9256 126.77C59.2427 126.98 59.7691 116.685 59.7691 116.685C59.7691 116.685 51.4581 112.692 48.1975 113.008C48.1975 113.008 53.3516 121.727 51.6686 121.516C49.9857 121.306 44.1999 112.482 44.1999 112.482C44.1999 112.482 35.6798 110.907 34.3112 115.949C32.9441 120.991 35.1534 123.512 36.4153 123.828C37.6772 124.143 45.7776 124.038 45.567 125.088C45.3565 126.138 39.8865 127.82 36.8364 126.874C36.8364 126.874 40.2023 135.172 44.621 134.753C49.0397 134.333 50.4068 131.602 53.141 131.392C55.8768 131.181 57.8741 131.917 56.507 132.652C55.1398 133.388 50.5106 132.893 48.3013 134.769C46.0919 136.644 44.3037 137.801 48.4065 138.64C52.5094 139.481 59.8729 138.956 61.3453 135.805C62.8191 132.652 62.8191 132.652 62.8191 132.652Z" fill="#C8DBF4"/>
<path d="M38.205 117.524C38.205 117.524 60.2955 124.668 62.8206 132.652C62.8206 132.652 62.7153 136.224 64.9247 140.321V141.897C64.9247 141.897 62.6101 136.539 61.3482 135.803C61.3468 135.803 66.2903 128.87 38.205 117.524Z" fill="#C8DBF4"/>
<path d="M64.9232 140.321C64.9232 140.321 68.3301 145.487 66.3883 151.776L65.5125 151.541C65.5125 151.541 66.3634 144.614 64.5811 141.13C62.7972 137.646 64.9232 140.321 64.9232 140.321Z" fill="#C8DBF4"/>
<path d="M75.3719 126.567C75.3719 126.567 64.9715 120.751 69.8259 112.857C69.8259 112.857 73.7079 108.01 77.8678 106.763C77.8678 106.763 75.6497 118.534 77.8678 118.812C80.0859 119.089 79.3928 105.518 79.3928 105.518C79.3928 105.518 90.3474 100.255 94.6462 100.671C94.6462 100.671 87.8515 112.165 90.0696 111.889C92.2877 111.611 99.9144 99.9793 99.9144 99.9793C99.9144 99.9793 111.147 97.9014 112.948 104.55C114.75 111.198 111.838 114.52 110.174 114.936C108.51 115.351 97.8337 115.214 98.1101 116.598C98.3879 117.982 105.598 120.199 109.619 118.952C109.619 118.952 105.181 129.892 99.3573 129.338C93.5335 128.785 91.7306 125.184 88.1249 124.907C84.5192 124.629 81.8844 125.599 83.6872 126.568C85.4901 127.538 91.5917 126.887 94.5029 129.359C97.4141 131.831 99.7726 133.354 94.364 134.462C88.9554 135.57 79.2495 134.877 77.3078 130.723C75.3719 126.567 75.3719 126.567 75.3719 126.567Z" fill="#D4E4F8"/>
<path d="M107.819 106.625C107.819 106.625 78.6998 116.042 75.3719 126.566C75.3719 126.566 75.5108 131.273 72.5981 136.675V138.752C72.5981 138.752 75.6482 131.689 77.3122 130.721C77.3122 130.721 70.7953 121.582 107.819 106.625Z" fill="#D4E4F8"/>
<path d="M72.5981 136.676C72.5981 136.676 68.1078 143.486 70.6681 151.776L71.8232 151.466C71.8232 151.466 70.7017 142.336 73.0514 137.743C75.3997 133.15 72.5981 136.676 72.5981 136.676Z" fill="#D4E4F8"/>
<path d="M75.0209 169.752C86.2723 169.752 95.3919 160.644 95.3919 149.407H54.6485C54.6485 160.644 63.7696 169.752 75.0209 169.752Z" fill="#D4E4F8"/>
<path d="M95.6741 170.787H54.3678C54.3678 169.402 55.4937 168.277 56.8813 168.277H93.1606C94.5482 168.277 95.6741 169.402 95.6741 170.787Z" fill="#D4E4F8"/>
<path d="M95.8554 149.407H53.9789V150.031H95.8554V149.407Z" fill="#9FC1F4"/>
<path d="M180.139 236.86L180.24 236.858C181.063 236.844 181.699 236.17 181.622 235.398L176.13 180.63L171.338 181.056L179.224 236.119C179.285 236.549 179.679 236.867 180.139 236.86Z" fill="#8CB4F4"/>
<path d="M127.263 236.86L127.162 236.858C126.339 236.844 125.703 236.17 125.78 235.398L131.272 180.63L136.064 181.056L128.178 236.119C128.118 236.549 127.723 236.867 127.263 236.86Z" fill="#8CB4F4"/>
<path d="M218.879 236.86L218.98 236.858C219.803 236.844 220.44 236.17 220.362 235.398L214.87 180.63L210.079 181.056L217.964 236.119C218.025 236.549 218.419 236.867 218.879 236.86Z" fill="#8CB4F4"/>
<path d="M128.899 172.663L119.151 124.592C117.899 118.083 123.3 112.132 130.311 112.292L149.111 112.722C155.595 112.869 161.233 117.204 163.036 123.426L177.297 172.663H128.899Z" fill="#8CB4F4"/>
<path d="M134.796 172.663L125.048 124.592C123.796 118.083 129.197 112.132 136.208 112.292L155.007 112.722C161.492 112.869 167.13 117.204 168.933 123.426L183.194 172.663H134.796Z" fill="#8CB4F4"/>
<path d="M131.616 181.43H205.99C207.485 181.43 208.707 180.209 208.707 178.717V175.376C208.707 173.884 207.485 172.663 205.99 172.663H128.899V178.717C128.899 180.209 130.121 181.43 131.616 181.43Z" fill="#8CB4F4"/>
<path d="M166.518 181.43H213.93C215.133 181.43 216.119 180.445 216.119 179.244V174.847C216.119 173.645 215.133 172.661 213.93 172.661H166.518C165.314 172.661 164.329 173.645 164.329 174.847V179.244C164.329 180.447 165.313 181.43 166.518 181.43Z" fill="#8CB4F4"/>
<path d="M106.708 172.036V173.676C106.708 174.249 106.522 174.718 106.294 174.718H46.3654C46.1387 174.718 45.9516 174.249 45.9516 173.676V172.036C45.9516 171.462 46.1373 170.993 46.3654 170.993H106.294C106.52 170.993 106.708 171.463 106.708 172.036Z" fill="#9ABFE2"/>
<path d="M106.708 172.036V173.676C106.708 174.249 106.537 174.718 106.329 174.718H58.7514C58.5423 174.718 58.3727 174.249 58.3727 173.676V172.036C58.3727 171.462 58.5438 170.993 58.7514 170.993H106.327C106.537 170.993 106.708 171.463 106.708 172.036Z" fill="#BAD4F4"/>
<path d="M91.5391 174.72H48.9943V236.649H91.5391V174.72Z" fill="#C8DBF4"/>
<path d="M103.462 174.72H60.9169V236.649H103.462V174.72Z" fill="#DFEBFD"/>
<path d="M101.176 233.228H63.2037V176.469H101.176V233.228ZM63.6131 232.82H100.765V176.879H63.6131V232.82Z" fill="#B7D3F3"/>
<path d="M100.972 195.245H63.4084V195.654H100.972V195.245Z" fill="#B7D3F3"/>
<path d="M100.972 214.388H63.4084V214.797H100.972V214.388Z" fill="#B7D3F3"/>
<path d="M86.0384 180.13H79.0682C78.7305 180.13 78.4527 179.854 78.4527 179.515C78.4527 179.178 78.729 178.9 79.0682 178.9H86.0384C86.3762 178.9 86.654 179.176 86.654 179.515C86.654 179.854 86.3776 180.13 86.0384 180.13Z" fill="#B7D3F3"/>
<path d="M86.0384 198.85H79.0682C78.7305 198.85 78.4527 198.574 78.4527 198.235C78.4527 197.898 78.729 197.62 79.0682 197.62H86.0384C86.3762 197.62 86.654 197.896 86.654 198.235C86.654 198.572 86.3776 198.85 86.0384 198.85Z" fill="#B7D3F3"/>
<path d="M86.0384 218.362H79.0682C78.7305 218.362 78.4527 218.086 78.4527 217.748C78.4527 217.41 78.729 217.133 79.0682 217.133H86.0384C86.3762 217.133 86.654 217.409 86.654 217.748C86.654 218.086 86.3776 218.362 86.0384 218.362Z" fill="#B7D3F3"/>
<path d="M273.727 63.3715H246.76C245.522 63.3715 244.51 62.3595 244.51 61.1242V35.131C244.51 33.8943 245.523 32.8838 246.76 32.8838H273.727C274.965 32.8838 275.977 33.8957 275.977 35.131V61.1242C275.977 62.3595 274.965 63.3715 273.727 63.3715Z" fill="#C0D8FB"/>
<path d="M272.559 62.0517H247.928C246.798 62.0517 245.872 61.1274 245.872 59.9987V36.2572C245.872 35.1284 246.798 34.2041 247.928 34.2041H272.559C273.689 34.2041 274.614 35.1284 274.614 36.2572V59.9987C274.614 61.1274 273.689 62.0517 272.559 62.0517Z" fill="#DFEBFD"/>
<path d="M260.243 37.6365C260.603 37.6365 260.895 37.3449 260.895 36.9852C260.895 36.6256 260.603 36.334 260.243 36.334C259.883 36.334 259.591 36.6256 259.591 36.9852C259.591 37.3449 259.883 37.6365 260.243 37.6365Z" fill="#B7D3F3"/>
<path d="M264.851 37.9062C265.027 37.5923 265.423 37.4784 265.737 37.6536C266.052 37.8288 266.166 38.2245 265.99 38.5385C265.815 38.8524 265.419 38.9663 265.104 38.7911C264.79 38.6159 264.676 38.2202 264.851 37.9062Z" fill="#B7D3F3"/>
<path d="M269.358 41.4817C269.66 41.2875 270.064 41.3736 270.259 41.6759C270.453 41.9781 270.367 42.3812 270.064 42.5754C269.761 42.7696 269.358 42.6834 269.163 42.3812C268.967 42.0804 269.055 41.6773 269.358 41.4817Z" fill="#B7D3F3"/>
<path d="M271.589 47.0156C271.949 47.0156 272.241 47.3077 272.241 47.6669C272.241 48.0261 271.949 48.3181 271.589 48.3181C271.229 48.3181 270.937 48.0261 270.937 47.6669C270.938 47.3077 271.229 47.0156 271.589 47.0156Z" fill="#B7D3F3"/>
<path d="M270.45 53.4376C270.704 53.6917 270.704 54.1035 270.45 54.3576C270.196 54.6116 269.783 54.6116 269.529 54.3576C269.274 54.1035 269.274 53.6917 269.529 53.4376C269.783 53.1836 270.196 53.1836 270.45 53.4376Z" fill="#B7D3F3"/>
<path d="M266.356 57.5363C266.61 57.7903 266.61 58.2021 266.356 58.4562C266.102 58.7103 265.689 58.7103 265.435 58.4562C265.18 58.2021 265.18 57.7903 265.435 57.5363C265.689 57.2822 266.102 57.2822 266.356 57.5363Z" fill="#B7D3F3"/>
<path d="M259.591 59.6493C259.591 59.2901 259.883 58.998 260.243 58.998C260.602 58.998 260.895 59.2901 260.895 59.6493C260.895 60.0085 260.602 60.3006 260.243 60.3006C259.883 60.3006 259.591 60.0085 259.591 59.6493Z" fill="#B7D3F3"/>
<path d="M255.613 37.9062C255.438 37.5923 255.042 37.4784 254.727 37.6536C254.413 37.8288 254.299 38.2245 254.474 38.5385C254.65 38.8524 255.046 38.9663 255.36 38.7911C255.676 38.6159 255.789 38.2202 255.613 37.9062Z" fill="#B7D3F3"/>
<path d="M251.109 41.4807C250.806 41.2865 250.402 41.3726 250.208 41.6749C250.013 41.9772 250.1 42.3802 250.402 42.5744C250.705 42.7686 251.108 42.6824 251.303 42.3802C251.497 42.0794 251.41 41.6764 251.109 41.4807Z" fill="#B7D3F3"/>
<path d="M248.876 47.0146C248.516 47.0146 248.224 47.3067 248.224 47.6659C248.224 48.0251 248.516 48.3172 248.876 48.3172C249.235 48.3172 249.528 48.0251 249.528 47.6659C249.528 47.3067 249.235 47.0146 248.876 47.0146Z" fill="#B7D3F3"/>
<path d="M250.015 53.4367C249.76 53.6907 249.76 54.1025 250.015 54.3566C250.269 54.6107 250.682 54.6107 250.936 54.3566C251.19 54.1025 251.19 53.6907 250.936 53.4367C250.683 53.1826 250.269 53.1826 250.015 53.4367Z" fill="#B7D3F3"/>
<path d="M254.569 58.6472C254.93 58.6472 255.222 58.3557 255.222 57.996C255.222 57.6363 254.93 57.3447 254.569 57.3447C254.209 57.3447 253.917 57.6363 253.917 57.996C253.917 58.3557 254.209 58.6472 254.569 58.6472Z" fill="#B7D3F3"/>
<path d="M260.067 47.6669C260.067 47.3077 260.36 47.0156 260.719 47.0156C261.079 47.0156 261.371 47.3077 261.371 47.6669C261.371 48.0261 261.079 48.3181 260.719 48.3181C260.36 48.3181 260.067 48.0261 260.067 47.6669Z" fill="#B7D3F3"/>
<path d="M260.809 39.5332H260.63V47.6666H260.809V39.5332Z" fill="#B7D3F3"/>
<path d="M264.792 44.0526L260.475 47.4375L260.804 47.8567L265.122 44.4718L264.792 44.0526Z" fill="#B7D3F3"/>
<path d="M193.691 162.603C189.667 169.596 184.606 172.296 184.606 172.296H163.552C163.552 172.296 196.76 157.267 193.691 162.603Z" fill="#233862"/>
<path d="M219.657 232.083C219.429 234.289 222.503 234.858 226.066 235.075C229.629 235.291 228.544 236.008 233.421 236.944C238.297 237.88 240.269 236.565 240.631 235.91C240.952 235.329 238.69 234.39 236.281 233.33C235.977 233.197 235.674 233.061 235.37 232.925C232.657 231.7 231.156 229.243 229.056 226.957C227.068 224.793 225.23 217.911 225.23 217.911L218.606 216.425C218.606 216.425 220.404 222.62 221.023 225.263C221.387 226.819 220.807 228.546 220.293 229.86C220.015 230.573 219.736 231.304 219.657 232.083Z" fill="#FFB27D"/>
<path d="M226.066 235.073C229.629 235.289 228.544 236.006 233.421 236.942C238.297 237.878 240.269 236.564 240.631 235.909C240.952 235.327 238.69 234.388 236.281 233.328L236.243 233.369C236.243 233.369 232.795 234.498 228.841 233.378C225.619 232.467 222.514 230.504 220.293 229.857C220.017 230.573 219.738 231.304 219.659 232.081C219.431 234.288 222.503 234.857 226.066 235.073Z" fill="#0F2549"/>
<path d="M209.621 155.439C206.056 152.939 182.477 148.484 170.445 147.195L157.145 135.665C157.145 135.665 145.825 152.409 145.734 165.22C145.692 171.193 148.447 171.786 148.448 171.788C148.448 171.788 191.084 172.103 192.952 172.296C196.011 172.611 200.047 180.222 201.054 187.153C202.063 194.085 219.841 222.277 219.841 222.277C219.841 222.277 223.55 223.464 225.263 223.364C227.107 223.256 227.961 222.639 227.961 222.639C227.961 222.639 217.66 161.076 209.621 155.439Z" fill="#233862"/>
<path d="M208.63 232.083C208.401 234.289 211.475 234.858 215.038 235.075C218.602 235.291 217.517 236.008 222.393 236.944C227.269 237.88 229.242 236.565 229.603 235.91C229.925 235.329 227.663 234.39 225.253 233.33C224.95 233.197 224.646 233.061 224.342 232.925C221.63 231.7 220.128 229.243 218.028 226.957C216.04 224.793 214.202 217.911 214.202 217.911L207.577 216.425C207.577 216.425 209.375 222.62 209.994 225.263C210.358 226.819 209.777 228.546 209.264 229.86C208.988 230.573 208.709 231.304 208.63 232.083Z" fill="#FFB27D"/>
<path d="M215.038 235.073C218.602 235.289 217.517 236.006 222.393 236.942C227.269 237.878 229.242 236.564 229.603 235.909C229.925 235.327 227.663 234.388 225.253 233.328L225.215 233.369C225.215 233.369 221.767 234.498 217.813 233.378C214.591 232.467 211.487 230.504 209.266 229.857C208.989 230.573 208.71 231.304 208.631 232.081C208.401 234.288 211.475 234.857 215.038 235.073Z" fill="#233862"/>
<path d="M198.495 155.439C195.398 153.268 186.084 151.584 175.804 150.334C172.961 149.988 170.628 147.925 169.933 145.151L146.019 135.665C146.019 135.665 134.699 152.409 134.609 165.22C134.566 171.193 137.321 171.786 137.323 171.788C137.323 171.788 179.958 172.103 181.827 172.296C184.885 172.611 188.921 180.222 189.928 187.153C190.937 194.085 208.716 222.277 208.716 222.277C208.716 222.277 212.424 223.464 214.138 223.364C215.981 223.256 216.835 222.639 216.835 222.639C216.835 222.639 206.534 161.076 198.495 155.439Z" fill="#2B478B"/>
<path d="M166.497 66.0938C163.212 64.3708 158.211 64.1372 157.398 64.0291C147.678 62.7251 141.827 76.8308 141.482 81.1048C140.848 88.9826 136.675 90.1843 130.801 95.1184C119.023 105.011 122.477 116.508 128.918 120.779C132.782 123.341 139.593 120.779 139.593 120.779C139.69 120.846 158.221 110.433 167.355 105.41C181.05 103.465 174.871 70.4847 166.497 66.0938Z" fill="#233862"/>
<path d="M164.469 100.556C164.512 100.578 160.15 102.56 157 101.52C154.038 100.546 151.43 96.0926 151.47 96.0853C152.756 95.8999 154.063 94.6324 154.428 87.127L154.997 87.2701L164.57 89.6867C164.57 89.6867 164.191 92.7152 164.035 95.5786C163.905 97.9836 163.931 100.272 164.469 100.556Z" fill="#FFB27D"/>
<path d="M164.571 89.6863C164.571 89.6863 164.571 90.3098 164.213 93.1265C158.799 91.7627 156.413 89.9696 154.728 87.918L164.571 89.6863Z" fill="#ED975D"/>
<path d="M166.614 90.0685C166.614 90.0685 153.956 92.1274 152.794 84.235C151.631 76.3426 149.216 71.2932 157.247 69.6446C165.281 67.9975 167.298 70.7777 168.328 73.317C169.357 75.8563 169.876 89.3297 166.614 90.0685Z" fill="#FFB27D"/>
<path d="M166.626 69.314C166.626 69.314 160.877 78.3761 155.746 80.5226C150.614 82.6691 148.093 81.5798 148.093 81.5798C148.093 81.5798 150.428 78.0446 151.036 73.2975C151.216 71.8986 152.128 70.6983 153.44 70.1741C157.122 68.7007 164.245 66.379 166.626 69.314Z" fill="#233862"/>
<path d="M161.575 70.1898C161.575 70.1898 164.944 71.9143 166.332 73.5322C167.671 75.0917 169.218 79.3263 169.107 81.2275C169.107 81.2275 170.77 72.1158 167.307 68.9836C163.637 65.6631 161.575 70.1898 161.575 70.1898Z" fill="#233862"/>
<path d="M174.596 119.837C174.212 145.533 174.491 140.163 171.676 142.601C170.998 143.188 169.091 143.539 166.582 143.704C158.692 144.226 144.823 142.928 144.296 141.472C142.475 136.435 143.76 134.869 142.243 127.155C142.085 126.335 141.889 125.447 141.659 124.48C140.393 119.182 139.162 117.379 143.652 108.869C147.726 101.159 152.514 94.8962 152.896 95.1211C163.642 101.492 164.01 96.152 164.01 96.152C164.01 96.152 174.785 107.304 174.596 119.837Z" fill="white"/>
<path d="M164.009 96.1523C164.009 96.1523 175.007 98.0141 176.305 102.769C177.604 107.523 185.245 135.473 185.245 135.473C185.245 135.473 179.625 136.482 177.028 133.888C174.431 131.295 167.991 109.829 167.991 109.829L164.009 96.1523Z" fill="white"/>
<path d="M166.582 143.705C158.692 144.228 144.823 142.93 144.296 141.474C142.475 136.437 143.76 134.871 142.243 127.157L146.049 116.455C146.049 116.455 145.42 128.372 148.938 131.507C152.453 134.641 163.346 137.558 165.057 140.176C165.882 141.432 166.424 142.692 166.582 143.705Z" fill="#EBF3FF"/>
<path d="M157.543 138.693C157.543 138.693 165.327 136.962 166.582 137.651C167.838 138.341 170.907 140.854 171.292 141.728C171.676 142.603 168.496 141.065 167.461 140.788C166.791 140.608 165.028 141.22 164.155 141.511C160.482 142.734 158.23 142.105 158.23 142.105L157.543 138.693Z" fill="#FFB27D"/>
<path d="M152.895 95.1211C152.895 95.1211 141.879 95.7636 138.26 100.804C133.167 107.898 123.063 138.132 128.854 142.163C135.375 146.704 158.531 143.352 158.531 143.352C158.531 143.352 159.302 139.755 158.23 138.015C157.158 136.274 139.734 133.463 138.929 132.66C138.125 131.857 148.982 116.999 148.982 114.59C148.982 112.181 152.895 95.1211 152.895 95.1211Z" fill="white"/>
<path d="M166.959 139.815C166.959 139.815 168.59 141.917 169.125 142.168C169.66 142.419 170.005 142.356 170.005 142.356L168.905 140.381L166.959 139.815Z" fill="#FFB27D"/>
<path d="M166.582 137.651L171.324 139.951C171.324 139.951 171.122 140.281 170.539 140.255C169.955 140.229 168.481 139.69 168.481 139.69L166.582 137.651Z" fill="#FFB27D"/>
<path d="M184.051 143.103H162.027C162.027 142.135 162.814 141.35 163.783 141.35H184.051V143.103Z" fill="#ED7D2B"/>
<path d="M183.986 119.15H218.036L209.868 143.104H175.599L183.986 119.15Z" fill="#ED7D2B"/>
<path d="M218.537 119.15L210.37 143.104H176.099L184.488 119.15H218.537Z" fill="#F99746"/>
<path d="M200.18 130.905C199.968 131.821 199.054 132.563 198.137 132.563C197.22 132.563 196.649 131.821 196.861 130.905C197.073 129.99 197.986 129.248 198.903 129.248C199.82 129.248 200.392 129.99 200.18 130.905Z" fill="white"/>
<path d="M154.415 148.492H303.628C304.255 148.492 304.764 147.984 304.764 147.357V144.238C304.764 143.612 304.255 143.104 303.628 143.104H154.415C153.788 143.104 153.279 143.612 153.279 144.238V147.357C153.279 147.984 153.788 148.492 154.415 148.492Z" fill="#182D4F"/>
<path d="M307.281 237.259L307.345 237.252C308.11 237.157 308.651 236.476 308.554 235.73L295.257 145.846L290.39 145.984L306.035 236.355C306.134 236.933 306.684 237.334 307.281 237.259Z" fill="#182D4F"/>
<path d="M149.418 237.259L149.353 237.252C148.589 237.157 148.048 236.476 148.144 235.73L161.441 145.846L166.309 145.984L150.663 236.355C150.565 236.933 150.016 237.334 149.418 237.259Z" fill="#182D4F"/>
<path d="M180.201 237.259L180.136 237.252C179.372 237.157 178.831 236.476 178.927 235.73L192.224 145.846L197.092 145.984L181.446 236.355C181.347 236.933 180.797 237.334 180.201 237.259Z" fill="#182D4F"/>
<path d="M425.814 238H12.5644C12.253 238 12 237.746 12 237.436V236.975C12 236.664 12.2544 236.411 12.5644 236.411H425.813C426.124 236.411 426.377 236.665 426.377 236.975V237.436C426.379 237.747 426.124 238 425.814 238Z" fill="#2E3552"/>
<path d="M258.646 237.187H285.031C286.3 235.64 285.832 229.934 285.641 228.069C285.601 227.694 285.573 227.475 285.573 227.475C285.573 227.475 276.563 220.277 275.325 225.788C275.287 225.961 275.242 226.13 275.192 226.296C273.633 231.451 266.638 233.793 262.6 234.446C259.975 234.874 259.004 236.236 258.646 237.187Z" fill="#233862"/>
<path d="M330.642 151.565C329.69 151.565 285.445 159.861 278.126 168.908C274.471 173.428 273.927 225.624 273.927 225.624C273.927 225.624 278.45 231.224 288.218 227.972C288.218 227.972 295.38 192.26 294.852 181.43C294.706 178.435 325.083 180.996 330.642 179.559C336.201 178.122 349.786 166.043 346.793 160.16C343.8 154.276 330.642 151.565 330.642 151.565Z" fill="#233862"/>
<path d="M278.317 138.785C278.317 138.785 269.391 138.905 267.282 139.809C265.172 140.713 260.889 142.786 262.035 143.104C263.182 143.423 268.649 142.973 269.83 143.154C271.012 143.335 272.468 143.104 273.192 143.104C273.915 143.104 277.29 143.104 277.29 143.104L278.317 138.785Z" fill="#FFB27D"/>
<path d="M267.882 117.396C267.882 117.396 264.84 115.224 261.885 114.802C260.199 114.561 258.561 114.262 257.571 113.913C254.844 112.954 249.389 108.055 249.803 107.481C251.126 105.64 257.495 109.537 258.606 109.118C259.718 108.699 256.47 106.393 257.599 105.581C258.19 105.158 259.57 107.281 260.697 107.494C262.224 107.783 263.417 109.935 263.878 110.048C264.772 110.267 268.691 113.177 268.691 113.177L267.882 117.396Z" fill="#FFB27D"/>
<path d="M326.235 92.0371C326.235 92.0371 319.442 94.1398 312.748 112.547C306.054 130.955 303.513 131.949 301.08 132.67C298.647 133.393 277.29 137.639 277.29 137.639V143.102H310.196C310.196 143.102 322.535 131.379 326.235 123.489C329.934 115.599 326.235 92.0371 326.235 92.0371Z" fill="#ED7D2B"/>
<path d="M246.985 237.187H273.37C274.639 235.64 274.171 229.934 273.98 228.069C273.94 227.694 273.912 227.475 273.912 227.475C273.912 227.475 264.903 220.277 263.664 225.788C263.626 225.961 263.581 226.13 263.531 226.296C261.972 231.451 254.977 233.793 250.939 234.446C248.314 234.874 247.343 236.236 246.985 237.187Z" fill="#1B3051"/>
<path d="M317.605 151.565C316.652 151.565 272.408 159.861 265.09 168.908C261.434 173.428 260.89 225.624 260.89 225.624C260.89 225.624 265.414 231.224 275.182 227.972C275.182 227.972 282.343 192.26 281.816 181.43C281.669 178.435 312.046 180.996 317.605 179.559C323.164 178.122 336.749 166.043 333.756 160.16C330.762 154.276 317.605 151.565 317.605 151.565Z" fill="#2B478B"/>
<path d="M320.373 97.8713C323.556 97.6084 326.893 96.7615 329.778 95.827C333.383 94.6588 336.289 92.9504 334.417 89.6605C332.692 86.6277 329.897 79.8523 330.086 74.2393L323.378 79.6391L318.82 83.3057C318.82 83.3057 318.839 85.4683 319.338 89.2575C319.428 89.9482 319.535 90.6943 319.661 91.4902C319.762 92.1341 319.466 92.7766 318.911 93.1197C318.876 93.1416 318.842 93.1621 318.808 93.184C316.542 94.6048 317.707 98.0918 320.373 97.8713Z" fill="#FFB27D"/>
<path d="M318.82 82.4135C318.82 82.4135 318.588 83.1991 318.988 86.0976C323.052 85.4362 326.849 82.1989 326.849 82.1989C324.78 81.6323 324.028 79.3997 322.487 79.6085L318.82 82.4135Z" fill="#ED975D"/>
<path d="M315.061 83.0747C315.061 83.0747 330.689 85.6681 332.157 75.9226C333.623 66.1787 336.629 59.9509 326.713 57.8832C316.796 55.8156 314.293 59.2427 313.012 62.3763C311.73 65.5084 311.034 82.149 315.061 83.0747Z" fill="#FFB27D"/>
<path d="M310.714 58.0629C310.043 60.4095 311.838 63.2671 314.853 64.209C319.329 65.6049 318.339 71.088 320.354 71.0135C322.367 70.9391 323.18 67.8624 324.979 70.3199C326.513 72.4168 323.702 74.9021 323.895 76.0527C324.227 78.0269 327.324 82.0658 330.114 81.8629C332.904 81.6599 338.125 68.4173 337.081 64.3199C336.037 60.2226 331.86 55.9018 327.906 55.3061C323.952 54.7103 318.462 56.4144 317.194 56.4144C315.926 56.4144 311.076 56.7955 310.714 58.0629Z" fill="#2B478B"/>
<path d="M347.002 105.562C344.743 96.482 338.499 86.9556 334.278 86.9629C327.084 86.976 316.744 88.8728 312.569 99.1586C309.494 106.734 305.393 150.311 310.028 153.41C320.624 160.495 345.187 174.956 349.55 160.208C353.55 146.694 350.922 121.32 347.002 105.562Z" fill="#F99746"/>
<path d="M329.53 96.5265C327.479 91.1953 320.86 89.3525 316.346 92.8599C313.904 94.7567 310.916 97.4581 307.304 101.298C293.88 115.575 291.151 115.486 288.631 115.191C286.11 114.896 264.809 110.381 264.809 110.381C264.809 110.381 263.718 111.184 263.076 112.484C262.22 114.218 262.651 115.401 262.651 115.401C261.816 114.862 270.201 120.635 274.375 122.936C279.887 125.974 288.192 128.825 291.499 129.907C292.437 130.213 293.449 130.199 294.377 129.864C299.287 128.098 315.774 121.657 329.197 110.483C332.733 107.538 331.433 101.469 329.53 96.5265Z" fill="#F99746"/>
<path d="M335.002 87.0514L333.373 83.3877C333.373 83.3877 318.795 84.5748 316.345 92.8601C316.346 92.8601 327.646 87.2295 335.002 87.0514Z" fill="white"/>
<path d="M370.395 236.859L370.496 236.857C371.319 236.843 371.955 236.169 371.878 235.397L366.386 180.629L361.594 181.055L369.48 236.118C369.54 236.548 369.935 236.866 370.395 236.859Z" fill="#8CB4F4"/>
<path d="M342.13 236.859L342.231 236.857C343.054 236.843 343.69 236.169 343.613 235.397L338.122 180.629L333.331 181.055L341.216 236.118C341.276 236.548 341.669 236.866 342.13 236.859Z" fill="#8CB4F4"/>
<path d="M289.068 236.859L288.967 236.857C288.144 236.843 287.508 236.169 287.585 235.397L293.077 180.629L297.869 181.055L289.983 236.118C289.922 236.548 289.528 236.866 289.068 236.859Z" fill="#73A2E5"/>
<path d="M368.842 172.87L374.053 127.127C374.736 120.536 372.528 114.08 363.002 113.581L346.245 112.561C336.312 112.153 331.829 120.407 330.572 126.762L320.623 177.044L368.842 172.87Z" fill="#8CB4F4"/>
<path d="M366.042 181.429H291.668C290.173 181.429 288.951 180.208 288.951 178.716V175.375C288.951 173.883 290.173 172.662 291.668 172.662H368.759V178.716C368.759 180.208 367.537 181.429 366.042 181.429Z" fill="#73A2E5"/>
<path d="M366.649 181.429H322.734C321.573 181.429 320.624 180.482 320.624 179.322V174.769C320.624 173.61 321.573 172.662 322.734 172.662H368.759V179.322C368.759 180.482 367.81 181.429 366.649 181.429Z" fill="#8CB4F4"/>
</g>
</g>
</g>
<defs>
<clipPath id="clip0_1715_8003">
<rect width="524" height="254" fill="white"/>
</clipPath>
<clipPath id="clip1_1715_8003">
<rect width="478" height="267" fill="white" transform="translate(-26 -16)"/>
</clipPath>
<clipPath id="clip2_1715_8003">
<rect width="414.379" height="235" fill="white" transform="translate(12 3)"/>
</clipPath>
</defs>
</svg>
