<svg width="584" height="579" viewBox="0 0 584 579" fill="none" xmlns="http://www.w3.org/2000/svg">
<path d="M511.856 493.089C407.23 603.356 246.517 570.735 222.761 565.493C192.833 558.889 121.63 543.177 68.4951 481.139C-12.8537 386.162 -4.63827 237.723 58.1861 137.648C76.4669 108.529 137.986 21.993 253.516 3.17728C260.268 2.07823 380.905 -15.5869 477.973 65.7485C491.061 76.7162 512.185 96.5753 530.699 125.495C588.13 215.206 615.31 384.057 511.856 493.089Z" fill="url(#paint0_linear_1715_5508)"/>
<path d="M552.031 577.475L336.68 577.475L336.68 171.47C336.68 165.93 341.179 161.437 346.727 161.437L545.635 161.437C551.183 161.437 555.682 165.93 555.682 171.47L555.682 573.827C555.684 575.844 554.048 577.475 552.031 577.475Z" fill="#F77D48"/>
<path d="M305.515 176.156L452.62 25.6101C454.809 23.3687 458.47 23.5522 460.425 25.9998L582.747 179.124C585.485 182.551 583.014 187.617 578.622 187.576L309.195 185C304.607 184.953 302.311 179.437 305.515 176.156Z" fill="url(#paint1_linear_1715_5508)"/>
<path d="M446.362 578.179L231.011 578.179L231.011 248.132C231.011 242.592 235.51 238.099 241.058 238.099L439.966 238.099C445.514 238.099 450.013 242.592 450.013 248.132L450.013 574.534C450.013 576.546 448.379 578.179 446.362 578.179Z" fill="#91B3FA"/>
<path d="M306.506 578.178L115.636 578.178L115.636 353.65C115.636 348.109 120.135 343.616 125.683 343.616L296.46 343.616C302.007 343.616 306.506 348.109 306.506 353.65L306.506 578.178Z" fill="url(#paint2_linear_1715_5508)"/>
<path d="M164.571 578.179L3.75681 578.179C1.73961 578.179 0.104371 576.546 0.104371 574.531L0.10437 422.54C0.10437 416.999 4.60333 412.506 10.1512 412.506L154.527 412.506C160.074 412.506 164.573 416.999 164.573 422.54L164.573 578.179L164.571 578.179Z" fill="#91B3FA"/>
<g opacity="0.3">
<path d="M84.8393 113.716C83.7946 113.852 82.7932 113.18 82.5454 112.132C82.0004 109.843 81.5461 107.499 81.1972 105.161C81.0279 104.022 81.8125 102.963 82.9501 102.793C82.9646 102.791 82.977 102.789 82.9914 102.787C84.1146 102.641 85.1531 103.42 85.3204 104.544C85.6528 106.765 86.0843 108.994 86.6005 111.167C86.8668 112.285 86.1752 113.409 85.054 113.675C84.9838 113.693 84.9116 113.706 84.8393 113.716ZM82.6322 95.7105C82.5516 95.7208 82.469 95.727 82.3844 95.727C81.2323 95.7394 80.2887 94.8177 80.2763 93.6692C80.2495 91.3082 80.3238 88.9204 80.4973 86.5759C80.5819 85.4294 81.5771 84.5716 82.7292 84.6521C83.8772 84.7366 84.7402 85.7346 84.6556 86.8811C84.4904 89.1101 84.4202 91.3762 84.447 93.6217C84.4594 94.6878 83.6666 95.5765 82.6322 95.7105ZM84.4512 77.666C84.222 77.6949 83.9825 77.6866 83.7409 77.6351C82.6156 77.3918 81.9013 76.2845 82.1428 75.1586C82.6425 72.8554 83.2474 70.5439 83.9432 68.2901C84.2839 67.1911 85.4505 66.5766 86.5509 66.9127C87.6514 67.2509 88.2688 68.418 87.9301 69.517C87.2694 71.6574 86.6955 73.8513 86.2206 76.0391C86.0286 76.9258 85.2997 77.5567 84.4512 77.666ZM90.2632 60.4793C89.8833 60.5288 89.4849 60.4731 89.1112 60.2999C88.0685 59.8112 87.6204 58.572 88.1077 57.5306C89.1111 55.3944 90.2178 53.2767 91.3988 51.2354C91.9749 50.2415 93.2508 49.9013 94.2481 50.4745C95.2453 51.0498 95.586 52.3241 95.01 53.32C93.8888 55.2583 92.8359 57.2708 91.884 59.2998C91.5702 59.9659 90.9467 60.3906 90.2632 60.4793ZM99.7691 45.0185C99.2364 45.0886 98.6769 44.9525 98.2185 44.5957C97.31 43.8885 97.149 42.5791 97.8572 41.6739C99.3066 39.8181 100.855 37.9994 102.461 36.2653C103.244 35.4199 104.563 35.3704 105.408 36.1519C106.252 36.9334 106.304 38.251 105.521 39.0943C103.993 40.7419 102.521 42.4698 101.146 44.2328C100.793 44.6844 100.294 44.9504 99.7691 45.0185ZM112.461 32.0423C111.769 32.131 111.051 31.8753 110.576 31.2959C109.847 30.4051 109.979 29.0937 110.869 28.3658C112.696 26.875 114.61 25.4419 116.557 24.1098C117.507 23.4603 118.806 23.7016 119.456 24.6521C120.106 25.6007 119.863 26.8956 118.913 27.5472C117.063 28.8132 115.244 30.1742 113.508 31.5907C113.198 31.8464 112.834 31.9949 112.461 32.0423ZM187.587 17.297C187.3 17.3341 187.002 17.3114 186.709 17.2228C184.568 16.5671 182.367 15.9959 180.172 15.5258C179.047 15.2845 178.328 14.1772 178.57 13.0534C178.812 11.9296 179.918 11.2121 181.046 11.4533C183.358 11.9482 185.675 12.5482 187.929 13.239C189.03 13.5751 189.649 14.7401 189.313 15.8392C189.065 16.6475 188.371 17.196 187.587 17.297ZM127.708 22.2066C126.852 22.318 125.978 21.8849 125.574 21.0684C125.062 20.0374 125.481 18.7878 126.513 18.2764C128.627 17.2269 130.812 16.2578 133.006 15.3938C134.08 14.9773 135.288 15.4969 135.711 16.5671C136.132 17.6372 135.606 18.8456 134.536 19.2683C132.451 20.0889 130.376 21.0086 128.369 22.0066C128.154 22.1097 127.931 22.1777 127.708 22.2066ZM169.731 13.9731C169.595 13.9916 169.454 13.9957 169.312 13.9854C167.076 13.8246 164.805 13.7607 162.558 13.7896C161.406 13.804 160.461 12.8843 160.446 11.7358C160.432 10.5852 161.351 9.63669 162.503 9.62638C164.865 9.59545 167.256 9.6635 169.609 9.83258C170.757 9.91506 171.622 10.911 171.54 12.0575C171.467 13.0617 170.693 13.8473 169.731 13.9731ZM144.771 16.0165C143.728 16.1526 142.729 15.4824 142.477 14.437C142.209 13.3194 142.898 12.1956 144.017 11.9255C146.309 11.377 148.657 10.9193 150.994 10.5667C151.008 10.5646 151.023 10.5625 151.037 10.5605C152.159 10.4141 153.197 11.1914 153.366 12.3132C153.538 13.4514 152.755 14.5112 151.618 14.6824C149.398 15.0185 147.168 15.4536 144.99 15.9753C144.918 15.9938 144.845 16.0083 144.771 16.0165Z" fill="#91B3FA"/>
<path d="M201.139 22.8285C200.732 22.8821 200.305 22.8161 199.913 22.612C198.959 22.1171 197.978 21.6346 196.999 21.1768C195.957 20.6902 195.507 19.4489 195.996 18.4076C196.483 17.3663 197.726 16.9147 198.769 17.4054C199.799 17.8859 200.829 18.3952 201.835 18.9148C202.857 19.4448 203.255 20.7005 202.727 21.7212C202.397 22.3501 201.792 22.7439 201.139 22.8285Z" fill="#91B3FA"/>
</g>
<g opacity="0.3">
<path d="M241.657 71.7415C240.659 71.8714 239.687 71.2631 239.392 70.2671C239.086 69.2382 238.754 68.1969 238.405 67.1762C238.033 66.0875 238.613 64.9039 239.703 64.5327C240.798 64.1595 241.979 64.7431 242.35 65.8297C242.718 66.9061 243.069 68.001 243.389 69.0856C243.715 70.1888 243.085 71.3476 241.983 71.6734C241.873 71.7064 241.766 71.7291 241.657 71.7415Z" fill="#91B3FA"/>
<path d="M174.358 175.251C173.406 175.375 172.45 175.482 171.488 175.575C170.342 175.684 169.324 174.845 169.213 173.7C169.103 172.556 169.948 171.533 171.09 171.428C173.311 171.216 175.518 170.913 177.676 170.525C178.812 170.323 179.893 171.073 180.098 172.206C180.302 173.338 179.549 174.42 178.415 174.624C177.081 174.863 175.714 175.074 174.358 175.251ZM160.483 175.872C160.368 175.886 160.25 175.892 160.128 175.888C157.803 175.795 155.458 175.602 153.154 175.315C152.012 175.173 151.2 174.131 151.343 172.991C151.485 171.849 152.53 171.036 153.67 171.183C155.856 171.455 158.086 171.638 160.295 171.727C161.445 171.772 162.341 172.742 162.294 173.89C162.255 174.919 161.472 175.744 160.483 175.872ZM189.052 171.937C188.078 172.063 187.12 171.486 186.804 170.519C186.447 169.426 187.045 168.251 188.14 167.894C190.233 167.211 192.327 166.432 194.363 165.572C195.424 165.127 196.646 165.62 197.094 166.679C197.542 167.739 197.047 168.96 195.986 169.409C193.842 170.315 191.637 171.137 189.432 171.855C189.306 171.892 189.178 171.921 189.052 171.937ZM142.807 173.195C142.545 173.23 142.273 173.214 142 173.142C139.756 172.542 137.509 171.838 135.323 171.051C134.239 170.661 133.679 169.467 134.07 168.387C134.46 167.304 135.653 166.743 136.737 167.135C138.812 167.882 140.945 168.55 143.078 169.121C144.191 169.418 144.851 170.56 144.552 171.671C144.329 172.507 143.621 173.09 142.807 173.195ZM205.318 164.562C204.519 164.665 203.697 164.298 203.257 163.562C202.669 162.574 202.993 161.296 203.982 160.708C205.873 159.584 207.744 158.361 209.54 157.077C210.476 156.407 211.778 156.623 212.449 157.557C213.118 158.491 212.904 159.792 211.968 160.462C210.077 161.815 208.107 163.102 206.117 164.285C205.863 164.436 205.591 164.527 205.318 164.562ZM219.568 153.8C218.928 153.883 218.262 153.67 217.785 153.167C216.994 152.332 217.031 151.014 217.867 150.223C219.471 148.707 221.03 147.107 222.5 145.466C223.266 144.608 224.586 144.534 225.445 145.303C226.304 146.07 226.376 147.385 225.608 148.243C224.059 149.971 222.42 151.654 220.731 153.25C220.398 153.561 219.99 153.744 219.568 153.8ZM231.131 140.191C230.646 140.255 230.136 140.148 229.696 139.851C228.742 139.207 228.49 137.912 229.134 136.96C230.371 135.131 231.544 133.23 232.621 131.308C233.183 130.306 234.453 129.945 235.458 130.508C236.464 131.071 236.821 132.339 236.259 133.341C235.126 135.362 233.891 137.364 232.59 139.288C232.244 139.807 231.703 140.117 231.131 140.191ZM239.445 124.39C239.109 124.433 238.756 124.396 238.417 124.264C237.345 123.846 236.817 122.637 237.236 121.567C238.041 119.513 238.77 117.402 239.398 115.29C239.726 114.187 240.888 113.56 241.989 113.886C243.094 114.214 243.721 115.373 243.393 116.476C242.732 118.699 241.966 120.924 241.118 123.085C240.833 123.817 240.176 124.295 239.445 124.39ZM244.087 107.143C243.897 107.168 243.701 107.166 243.502 107.137C242.365 106.964 241.582 105.902 241.756 104.766C242.088 102.591 242.33 100.372 242.478 98.1717C242.555 97.0231 243.552 96.1571 244.698 96.2334C245.846 96.3097 246.715 97.3036 246.639 98.45C246.484 100.766 246.228 103.102 245.877 105.393C245.734 106.329 244.985 107.026 244.087 107.143ZM244.82 89.3113C244.776 89.3174 244.735 89.3216 244.692 89.3236C243.544 89.402 242.548 88.536 242.47 87.3874C242.359 85.7688 242.197 84.1336 241.989 82.5252C241.913 81.9438 241.83 81.3643 241.743 80.787C241.57 79.6488 242.352 78.5868 243.492 78.4157C244.642 78.2177 245.693 79.024 245.866 80.1601C245.959 80.7684 246.046 81.3767 246.125 81.9891C246.343 83.6779 246.515 85.3997 246.63 87.1029C246.705 88.2102 245.904 89.171 244.82 89.3113Z" fill="#91B3FA"/>
<path d="M126.11 166.674C125.699 166.727 125.268 166.659 124.874 166.453C123.874 165.929 122.867 165.375 121.88 164.804C120.883 164.228 120.542 162.954 121.12 161.958C121.698 160.962 122.972 160.622 123.969 161.199C124.907 161.741 125.865 162.267 126.812 162.766C127.832 163.3 128.225 164.558 127.69 165.577C127.362 166.2 126.761 166.589 126.11 166.674Z" fill="#91B3FA"/>
</g>
<path d="M125.786 142.36C126.088 142.645 126.538 142.709 126.907 142.515L137.419 137.028C142.205 139.809 147.472 141.851 153.055 142.991L157.234 154.068C157.38 154.458 157.758 154.709 158.173 154.697L172.392 154.297C172.807 154.285 173.171 154.01 173.295 153.614L176.84 142.319C182.35 140.865 187.494 138.531 192.114 135.483L202.919 140.368C203.297 140.539 203.743 140.453 204.03 140.15L213.802 129.823C214.087 129.522 214.151 129.073 213.957 128.704L208.463 118.206C211.248 113.426 213.292 108.166 214.434 102.59L225.525 98.4169C225.913 98.2705 226.167 97.8932 226.155 97.4787L225.754 83.2757C225.742 82.8613 225.469 82.4984 225.071 82.3746L213.761 78.8342C212.305 73.3307 209.968 68.1943 206.916 63.5795L211.807 52.7891C211.979 52.4118 211.892 51.9664 211.589 51.6798L201.249 41.9204C200.947 41.6358 200.497 41.5719 200.127 41.7657L189.616 47.2527C184.83 44.469 179.563 42.4297 173.98 41.2894L169.801 30.2123C169.655 29.8247 169.277 29.5711 168.862 29.5834L154.64 29.9855C154.225 29.9979 153.862 30.2701 153.738 30.6681L150.193 41.9637C144.682 43.4174 139.539 45.7515 134.918 48.7992L124.12 43.9143C123.742 43.7432 123.296 43.8298 123.009 44.1329L113.237 54.4593C112.952 54.7604 112.888 55.2099 113.082 55.579L118.576 66.0766C115.791 70.8563 113.747 76.1165 112.605 81.6921L101.514 85.8656C101.126 86.012 100.872 86.3893 100.884 86.8038L101.285 101.005C101.297 101.419 101.569 101.782 101.968 101.906L113.278 105.446C114.734 110.95 117.071 116.084 120.123 120.701L115.232 131.491C115.06 131.869 115.147 132.314 115.45 132.601L125.786 142.36Z" fill="#91B3FA"/>
<path d="M165.354 106.308C158.441 107.205 151.712 102.922 149.761 96.0291C147.616 88.4513 152.045 80.5435 159.633 78.4011C163.308 77.3618 167.169 77.8175 170.501 79.6795C173.836 81.5415 176.243 84.5891 177.282 88.2595C179.427 95.8373 174.998 103.745 167.41 105.887C166.727 106.079 166.037 106.219 165.354 106.308ZM162.131 81.2796C161.596 81.3497 161.066 81.457 160.537 81.6054C154.719 83.2468 151.324 89.3111 152.97 95.1197C154.615 100.93 160.684 104.322 166.504 102.679C172.322 101.038 175.717 94.9733 174.071 89.1647C173.274 86.3501 171.428 84.0138 168.872 82.5869C166.793 81.426 164.45 80.9807 162.131 81.2796Z" fill="#BDD0FB"/>
<path d="M168.304 126.725C167.117 126.88 165.916 126.975 164.702 127.01C164.32 127.02 163.938 127.024 163.556 127.024C161.673 127.016 159.792 126.859 157.944 126.556C157.919 126.552 157.894 126.548 157.867 126.544C157.795 126.532 157.725 126.519 157.653 126.507C157.514 126.482 157.374 126.457 157.236 126.433C156.872 126.365 156.606 126.07 156.56 125.721C156.55 125.637 156.552 125.548 156.569 125.459C156.653 125.008 157.089 124.711 157.541 124.793C159.872 125.226 162.263 125.412 164.652 125.344C176.516 125.012 186.781 118.523 192.465 109.036C195.629 103.759 197.373 97.5543 197.185 90.9642C197.152 89.8095 197.061 88.663 196.915 87.533C195.924 79.9222 192.373 72.9424 186.711 67.5997C180.209 61.4632 171.703 58.2218 162.761 58.4733C144.292 58.995 129.705 74.4167 130.225 92.853C130.258 93.9891 130.347 95.1212 130.494 96.2408C131.126 101.095 132.814 105.759 135.455 109.889C135.523 109.996 135.565 110.112 135.579 110.229C135.62 110.539 135.482 110.86 135.201 111.038C134.813 111.285 134.297 111.174 134.049 110.784C131.276 106.448 129.503 101.553 128.84 96.4553C128.687 95.2799 128.592 94.0922 128.559 92.9004C128.012 73.5445 143.34 57.3537 162.713 56.8072C172.101 56.5433 181.031 59.9456 187.857 66.3873C193.799 71.9959 197.528 79.3242 198.569 87.3145C198.723 88.5022 198.818 89.7043 198.854 90.9168C199.118 100.293 195.711 109.211 189.261 116.028C183.647 121.962 176.305 125.686 168.304 126.725Z" fill="#BDD0FB"/>
<g opacity="0.3">
<path d="M21.3603 177.284C20.807 177.356 20.2516 177.061 20.0162 176.527C19.5765 175.527 19.1594 174.502 18.7795 173.477C18.5317 172.811 18.8724 172.073 19.5393 171.826C20.2062 171.576 20.9474 171.919 21.1931 172.585C21.5544 173.562 21.9529 174.539 22.372 175.492C22.659 176.142 22.3638 176.9 21.7134 177.187C21.5978 177.236 21.4801 177.267 21.3603 177.284Z" fill="#91B3FA"/>
<path d="M18.2179 167.902C17.5717 167.986 16.9523 167.568 16.7995 166.92C16.368 165.091 16.0273 163.217 15.7857 161.355C15.7341 160.963 15.6887 160.569 15.6453 160.173C15.5689 159.466 16.1202 158.854 16.7871 158.755C17.4932 158.678 18.1292 159.188 18.2076 159.895C18.2489 160.274 18.2923 160.65 18.3418 161.025C18.5731 162.802 18.8993 164.588 19.3081 166.335C19.4712 167.027 19.0418 167.718 18.3501 167.881C18.3047 167.887 18.2613 167.895 18.2179 167.902ZM16.7768 154.627C16.7169 154.635 16.655 154.639 16.591 154.639C15.8786 154.629 15.3109 154.045 15.3212 153.334C15.3522 151.055 15.5256 148.758 15.8353 146.508C15.9323 145.805 16.5848 145.315 17.2868 145.409C17.9908 145.506 18.4843 146.154 18.3872 146.859C18.092 149.006 17.9268 151.197 17.8979 153.371C17.8876 154.016 17.4024 154.544 16.7768 154.627ZM18.602 141.397C18.4409 141.417 18.2716 141.407 18.1044 141.364C17.4168 141.18 17.0101 140.475 17.1939 139.788C17.7823 137.59 18.5153 135.405 19.3742 133.293C19.6426 132.633 20.39 132.318 21.0528 132.586C21.7114 132.852 22.0294 133.602 21.761 134.26C20.9433 136.273 20.2434 138.357 19.6818 140.452C19.5414 140.972 19.1037 141.333 18.602 141.397ZM23.6274 129.023C23.3631 129.058 23.0865 129.01 22.8346 128.87C22.2131 128.524 21.9901 127.74 22.337 127.12C23.4499 125.13 24.6949 123.189 26.0411 121.356C26.4622 120.783 27.2675 120.661 27.8415 121.08C28.4155 121.499 28.5393 122.305 28.1181 122.878C26.836 124.625 25.6467 126.474 24.5875 128.373C24.381 128.742 24.0177 128.971 23.6274 129.023ZM31.5269 118.247C31.1574 118.294 30.7713 118.183 30.4781 117.909C29.9598 117.422 29.9351 116.61 30.4223 116.09C31.9853 114.432 33.6639 112.855 35.4148 111.401C35.9619 110.945 36.7733 111.022 37.2275 111.568C37.6818 112.114 37.6074 112.925 37.0603 113.378C35.39 114.766 33.7878 116.269 32.2991 117.853C32.0865 118.08 31.8119 118.212 31.5269 118.247ZM41.805 109.716C41.3259 109.778 40.8325 109.568 40.5538 109.135C40.1697 108.537 40.3452 107.743 40.9419 107.357C42.86 106.128 44.8752 105.007 46.9275 104.027C47.5716 103.722 48.3376 103.992 48.6453 104.633C48.9529 105.275 48.6804 106.042 48.0403 106.349C46.083 107.285 44.1628 108.353 42.3356 109.525C42.1683 109.63 41.9867 109.692 41.805 109.716ZM53.8545 103.955C53.2557 104.033 52.6673 103.681 52.4691 103.087C52.244 102.413 52.6074 101.685 53.2826 101.46C55.4381 100.74 57.6659 100.149 59.9061 99.6971C60.606 99.5672 61.2832 100.008 61.4236 100.705C61.564 101.402 61.1139 102.079 60.4161 102.221C58.2791 102.65 56.1525 103.217 54.0981 103.901C54.0176 103.926 53.9371 103.943 53.8545 103.955ZM73.6611 101.221C73.5867 101.231 73.5103 101.233 73.4339 101.229C71.5592 101.143 69.6452 101.155 67.7478 101.27C67.4608 101.287 67.1779 101.305 66.8971 101.328C66.1869 101.382 65.5695 100.854 65.5138 100.145C65.4581 99.4352 65.9908 98.796 66.6969 98.763C66.9963 98.7403 67.2977 98.7197 67.5991 98.7032C69.5812 98.5836 71.5881 98.5692 73.5537 98.662C74.264 98.6949 74.8132 99.2971 74.7801 100.006C74.7512 100.637 74.2681 101.14 73.6611 101.221Z" fill="#91B3FA"/>
</g>
<g opacity="0.3">
<path d="M78.8496 209.127C78.1518 209.218 77.5097 208.731 77.4085 208.034C77.3073 207.331 77.7967 206.68 78.5007 206.579C80.6212 206.275 82.7395 205.84 84.798 205.286C85.4814 205.108 86.1917 205.506 86.3775 206.193C86.5633 206.88 86.1545 207.585 85.469 207.77C83.3094 208.35 81.0878 208.808 78.8662 209.125C78.862 209.125 78.8558 209.127 78.8496 209.127ZM72.2839 209.665C72.2385 209.672 72.191 209.676 72.1435 209.676C69.9013 209.725 67.6343 209.641 65.4044 209.422C64.6962 209.352 64.18 208.723 64.2482 208.016C64.3163 207.308 64.9522 206.793 65.6542 206.861C67.7829 207.069 69.9446 207.152 72.0837 207.104C72.7939 207.088 73.3844 207.651 73.3989 208.36C73.4174 209.026 72.9281 209.583 72.2839 209.665ZM91.5434 205.706C90.9776 205.781 90.4098 205.469 90.1848 204.915C89.9164 204.257 90.2343 203.508 90.893 203.24C92.8771 202.434 94.8283 201.5 96.6927 200.465C97.3162 200.122 98.0987 200.343 98.4436 200.964C98.7884 201.584 98.5654 202.368 97.9439 202.712C95.9886 203.799 93.9425 204.776 91.8634 205.622C91.7581 205.665 91.6507 205.694 91.5434 205.706ZM59.1917 208.372C59.0472 208.391 58.8965 208.385 58.7437 208.352C56.5551 207.861 54.3748 207.232 52.2626 206.48C51.5916 206.24 51.2447 205.504 51.4822 204.836C51.7217 204.17 52.4588 203.82 53.1277 204.059C55.1408 204.776 57.2199 205.376 59.3073 205.844C60.0011 205.999 60.4388 206.688 60.2819 207.381C60.1601 207.921 59.712 208.306 59.1917 208.372ZM103.033 199.324C102.581 199.382 102.113 199.201 101.826 198.807C101.406 198.232 101.534 197.427 102.108 197.009C103.837 195.753 105.505 194.38 107.07 192.924C107.59 192.439 108.406 192.468 108.891 192.988C109.376 193.508 109.347 194.322 108.827 194.807C107.188 196.332 105.437 197.774 103.626 199.091C103.444 199.221 103.24 199.298 103.033 199.324ZM112.655 190.375C112.308 190.421 111.947 190.326 111.66 190.085C111.117 189.627 111.046 188.817 111.505 188.272C112.884 186.635 114.177 184.901 115.345 183.119C115.735 182.523 116.534 182.358 117.129 182.748C117.724 183.138 117.891 183.934 117.501 184.528C116.276 186.398 114.922 188.216 113.475 189.93C113.258 190.184 112.962 190.334 112.655 190.375ZM119.852 179.381C119.609 179.412 119.355 179.377 119.117 179.259C118.479 178.946 118.217 178.175 118.531 177.537C119.479 175.62 120.317 173.626 121.021 171.613C121.256 170.945 121.991 170.591 122.662 170.824C123.333 171.059 123.689 171.791 123.453 172.463C122.714 174.572 121.837 176.663 120.843 178.676C120.645 179.076 120.265 179.327 119.852 179.381Z" fill="#91B3FA"/>
<path d="M46.7478 203.933C46.5021 203.966 46.244 203.926 46.0045 203.807C45.0197 203.312 44.0451 202.786 43.1078 202.246C42.4925 201.889 42.2819 201.104 42.6391 200.489C42.9963 199.877 43.7829 199.666 44.3982 200.021C45.2922 200.539 46.2213 201.04 47.1628 201.512C47.7987 201.831 48.0548 202.605 47.7347 203.238C47.5324 203.63 47.1566 203.879 46.7478 203.933Z" fill="#91B3FA"/>
</g>
<path d="M45.666 187.319C45.8683 187.511 46.1698 187.552 46.4155 187.423L53.4499 183.752C56.6522 185.614 60.1766 186.979 63.9137 187.742L66.7093 195.155C66.8064 195.415 67.0603 195.584 67.337 195.576L76.8531 195.308C77.1319 195.299 77.3734 195.116 77.456 194.852L79.8284 187.295C83.5159 186.321 86.9577 184.761 90.0506 182.721L97.2812 185.989C97.5351 186.105 97.8325 186.045 98.0245 185.843L104.563 178.933C104.755 178.731 104.797 178.43 104.667 178.185L100.991 171.16C102.856 167.961 104.223 164.442 104.987 160.709L112.409 157.917C112.669 157.818 112.839 157.567 112.83 157.291L112.562 147.787C112.554 147.509 112.37 147.267 112.106 147.185L104.539 144.816C103.564 141.133 102.001 137.695 99.9591 134.609L103.232 127.388C103.347 127.134 103.287 126.837 103.085 126.645L96.1662 120.115C95.9639 119.923 95.6625 119.882 95.4168 120.012L88.3824 123.682C85.18 121.82 81.6556 120.455 77.9185 119.692L75.1229 112.279C75.0238 112.02 74.7719 111.85 74.4953 111.859L64.9791 112.127C64.7004 112.135 64.4588 112.319 64.3762 112.582L62.0039 120.14C58.3163 121.113 54.8745 122.674 51.7816 124.713L44.5511 121.445C44.2971 121.329 43.9998 121.389 43.8078 121.591L37.2689 128.501C37.0789 128.703 37.0356 129.004 37.1657 129.25L40.8408 136.275C38.9764 139.473 37.6096 142.993 36.8456 146.725L29.4231 149.517C29.1629 149.614 28.9936 149.867 29.0019 150.144L29.2703 159.647C29.2785 159.926 29.4623 160.167 29.7266 160.25L37.2937 162.619C38.2682 166.302 39.8312 169.737 41.8731 172.826L38.6006 180.047C38.485 180.3 38.5449 180.597 38.7472 180.789L45.666 187.319Z" fill="#91B3FA"/>
<path d="M72.1497 163.367C70.0891 163.635 68.0058 163.237 66.16 162.206C63.8888 160.938 62.2495 158.862 61.5413 156.362C60.0795 151.203 63.096 145.815 68.2639 144.355C73.4422 142.904 78.8269 145.91 80.2866 151.071C80.9948 153.573 80.6851 156.197 79.4153 158.466C78.1455 160.734 76.0664 162.373 73.5619 163.078C73.0974 163.208 72.6225 163.305 72.1497 163.367ZM69.9962 146.619C69.6535 146.665 69.3087 146.735 68.9659 146.83C65.1648 147.904 62.9453 151.865 64.021 155.663C64.5413 157.503 65.7471 159.031 67.4174 159.963C69.0877 160.897 71.0224 161.121 72.8641 160.604C74.7058 160.084 76.2357 158.878 77.1689 157.212C78.1042 155.544 78.3314 153.612 77.809 151.772C76.8324 148.316 73.4608 146.17 69.9962 146.619Z" fill="#BDD0FB"/>
<path d="M74.1856 177.583C73.3783 177.688 72.5586 177.752 71.7265 177.777C70.0768 177.824 68.4189 177.703 66.796 177.418C66.7238 177.406 66.6515 177.391 66.5772 177.379C66.0135 177.274 65.6068 176.82 65.5345 176.282C65.518 176.152 65.5201 176.016 65.5469 175.88C65.677 175.181 66.3501 174.725 67.0479 174.851C68.5593 175.131 70.1078 175.251 71.6501 175.208C71.7348 175.206 71.8194 175.202 71.9041 175.199C75.5545 175.061 79.0314 174.02 82.0913 172.205C83.7513 171.22 85.2895 170.005 86.6625 168.578C86.6728 168.566 86.6852 168.556 86.6955 168.543C86.7286 168.506 86.7637 168.473 86.7967 168.436C90.7754 164.232 92.8751 158.732 92.712 152.951C92.6914 152.202 92.6315 151.462 92.5365 150.73C91.8944 145.804 89.5943 141.284 85.9316 137.824C81.7217 133.85 76.2152 131.753 70.4278 131.918C64.6426 132.083 59.2599 134.487 55.2813 138.69C51.3026 142.894 49.2028 148.394 49.3659 154.175C49.3866 154.912 49.4444 155.644 49.5394 156.367C49.9482 159.51 51.0425 162.529 52.752 165.203C52.8573 165.368 52.9213 165.547 52.944 165.729C53.006 166.207 52.7954 166.702 52.3597 166.978C51.7589 167.36 50.964 167.187 50.58 166.587C48.6681 163.595 47.4437 160.217 46.9853 156.701C46.88 155.889 46.814 155.07 46.7913 154.248C46.6075 147.779 48.9592 141.626 53.4107 136.923C57.8621 132.221 63.8745 129.524 70.3556 129.347C76.8325 129.163 82.9935 131.51 87.7031 135.956C91.8036 139.824 94.3762 144.882 95.0926 150.394C95.2 151.212 95.2661 152.041 95.2888 152.878C95.6439 165.399 86.3672 176.002 74.1856 177.583Z" fill="#BDD0FB"/>
<path d="M186.719 163.476L170.978 187.661C178.301 201.909 186.434 209.774 194.571 213.514C196.025 204.637 201.215 197.27 205.027 192.892C190.51 184.646 186.719 163.476 186.719 163.476Z" fill="url(#paint3_linear_1715_5508)"/>
<path d="M240.804 188.549C224.687 198.075 213.17 197.516 205.027 192.891C201.215 197.269 196.025 204.637 194.571 213.513C220.44 225.401 246.343 195.481 246.343 195.481L240.804 188.549Z" fill="url(#paint4_linear_1715_5508)"/>
<path d="M241.681 192.692C241.681 192.692 237.331 185.117 243.587 179.3C243.587 179.3 245.604 177.001 247.82 180.378C247.82 180.378 254.551 174.275 256.392 176.735C258.234 179.193 263.113 185.28 258.348 192.222C253.526 199.243 243.806 196.115 241.681 192.692Z" fill="url(#paint5_linear_1715_5508)"/>
<path d="M248.297 188.476C247.654 188.476 246.967 188.357 246.356 187.998C245.761 187.648 245.014 186.914 244.822 185.414C244.766 184.983 245.072 184.59 245.503 184.534C245.933 184.482 246.329 184.783 246.385 185.214C246.476 185.92 246.727 186.388 247.155 186.641C247.752 186.996 248.639 186.924 249.298 186.784L247.774 181.954C247.644 181.54 247.873 181.099 248.288 180.969C248.703 180.837 249.145 181.068 249.275 181.482L251.041 187.076C251.164 187.47 250.962 187.893 250.578 188.046C250.417 188.107 249.428 188.476 248.297 188.476Z" fill="#F79E6D"/>
<path d="M12.7031 350.977C11.3032 351.818 10.5868 353.591 10.9212 355.329C12.2344 362.167 16.5537 380.232 27.0444 390.926C27.7381 391.631 28.7457 391.569 29.3548 390.932C26.6975 388.169 23.4043 383.443 19.5537 375.419C13.6342 363.087 12.5379 355.482 12.7031 350.977Z" fill="url(#paint6_linear_1715_5508)"/>
<path d="M26.2497 350.72C26.2497 350.72 19.4857 347.046 12.7507 350.943C12.7342 350.953 12.7197 350.966 12.7032 350.976C12.5401 355.482 13.6365 363.086 19.5539 375.419C23.4045 383.442 26.6977 388.168 29.3549 390.931C29.547 390.729 29.7018 390.474 29.7927 390.162C31.7624 383.327 35.9227 364.33 26.2497 350.72Z" fill="url(#paint7_linear_1715_5508)"/>
<path d="M36.0196 351.146L29.8896 357.02C28.8056 358.06 27.1435 358.227 25.8903 357.398C24.798 356.674 23.5819 355.486 22.7726 353.562C22.2874 352.408 22.5207 351.072 23.3631 350.146L29.4828 343.424C30.9426 341.819 33.542 342.085 34.6466 343.951L36.5606 347.185C37.3245 348.469 37.0995 350.111 36.0196 351.146Z" fill="url(#paint8_linear_1715_5508)"/>
<path d="M234.145 321.683C235.57 322.483 237.467 322.227 238.816 321.079C244.12 316.559 257.707 303.882 261.831 289.487C262.103 288.536 261.55 287.693 260.695 287.479C259.603 291.151 257.117 296.345 252.036 303.655C244.227 314.887 238.149 319.598 234.145 321.683Z" fill="url(#paint9_linear_1715_5508)"/>
<path d="M227.228 310.048C227.228 310.048 227.373 317.737 234.093 321.659C234.11 321.669 234.129 321.673 234.145 321.683C238.149 319.599 244.227 314.889 252.036 303.655C257.117 296.348 259.601 291.151 260.695 287.479C260.424 287.411 260.125 287.403 259.809 287.479C252.884 289.147 234.292 294.923 227.228 310.048Z" fill="url(#paint10_linear_1715_5508)"/>
<path d="M226.754 297.318L233.158 302.892C234.292 303.877 234.608 305.516 233.891 306.836C233.268 307.987 232.192 309.302 230.346 310.28C229.237 310.865 227.885 310.754 226.886 309.997L219.635 304.51C217.904 303.201 217.937 300.592 219.699 299.326L222.75 297.135C223.966 296.258 225.624 296.334 226.754 297.318Z" fill="url(#paint11_linear_1715_5508)"/>
<path d="M98.239 240.912C98.239 240.912 85.7393 283.437 77.6602 302.127C77.6602 302.127 63.5336 304.279 54.7917 309.381C46.0498 314.482 27.2178 342.758 27.2178 342.758C27.2178 342.758 32.1359 352.082 38.0698 353.513L91.6795 316.416L134.464 266.726L132.432 243.679L98.239 240.912Z" fill="url(#paint12_linear_1715_5508)"/>
<path d="M99.0091 237.445L95.3525 249.089C95.3525 249.089 98.6973 279.619 137.237 274.47C175.774 269.322 180.618 263.039 180.618 263.039C180.618 263.039 177.273 282.537 219.414 305.98C219.414 305.98 225.818 301.151 227.228 295.668L197.697 247.058C193.59 240.683 189.781 239.002 182.28 240.173C165.694 242.763 134.642 246.141 129.94 245.339L99.0091 237.445Z" fill="url(#paint13_linear_1715_5508)"/>
<path d="M129.108 150.853C117.876 151.424 100.124 156.755 88.6569 167.3C92.1813 171.185 97.6052 177.505 101.648 183.744C105.261 180.356 110.448 177.536 117.752 175.729C111.439 199.294 103.977 221.745 94.884 242.612C94.3141 243.917 94.9624 245.429 96.3107 245.897C103.347 248.346 124.097 254.178 140.741 244.785L177.639 192.019C181.607 186.344 184.215 179.835 185.264 172.993L186.721 163.475C186.719 163.475 153.581 149.61 129.108 150.853Z" fill="url(#paint14_linear_1715_5508)"/>
<path d="M108.986 230.701C107.381 227.165 101.891 223.859 99.2714 222.441C96.992 217.748 87.8929 196.641 101.65 183.743C97.6072 177.502 92.1833 171.184 88.6589 167.299C75.4283 179.465 70.5846 198.573 93.7855 225.332C92.5198 231.922 96.6513 239.596 98.8853 240.671C99.9135 241.166 111.116 235.402 108.986 230.701Z" fill="url(#paint15_linear_1715_5508)"/>
<path d="M154.033 136.838L144.393 155.682C143.805 156.831 143.98 158.221 144.843 159.182C147.178 161.778 152.691 165.994 162.28 162.974C163.337 162.64 164.099 161.712 164.258 160.617L166.768 143.502L154.033 136.838Z" fill="url(#paint16_linear_1715_5508)"/>
<path d="M170.103 114.956C170.103 114.956 175.756 127.928 176.136 134.737C176.516 141.545 177.984 145.962 170.103 147.333C162.22 148.705 155.58 144.783 151.983 138.001C151.983 138.001 146.346 127.551 147.61 123.272C148.876 118.991 170.103 114.956 170.103 114.956Z" fill="url(#paint17_linear_1715_5508)"/>
<path d="M154.677 133.125L155.125 132.927C155.697 132.675 155.941 131.997 155.654 131.442C154.543 129.298 152.375 124.382 155.175 123.235C158.782 121.757 173.074 118.847 176.156 113.783C179.119 108.917 176.495 102.634 172.547 100.846C172.283 100.727 171.971 100.821 171.837 101.077L171.509 101.698C171.284 102.123 170.654 102.059 170.52 101.597C170.392 101.153 169.801 101.067 169.555 101.459C168.608 102.974 166.05 105.43 159.207 106.692C149.483 108.484 143.053 112.414 142.894 119.126C142.884 119.553 142.43 119.79 142.064 119.567C141.346 119.13 140.198 118.926 138.661 120.214C135.992 122.458 137.084 128.275 142.937 133.061C143.216 133.288 143.214 133.723 142.913 133.918C141.851 134.609 140.27 136.251 144.368 138.438C148.609 140.702 151.774 140.517 152.995 140.315C153.298 140.265 153.494 139.973 153.428 139.671L152.127 133.772C152.053 133.438 152.309 133.123 152.65 133.123L154.677 133.123L154.677 133.125Z" fill="url(#paint18_linear_1715_5508)"/>
<path d="M154.921 134.37C154.921 134.37 152.763 126.085 149.045 128.407C145.324 130.73 150.975 137.69 153.965 138.001L154.921 134.37Z" fill="url(#paint19_linear_1715_5508)"/>
<defs>
<linearGradient id="paint0_linear_1715_5508" x1="583.126" y1="623.701" x2="64.3934" y2="31.9662" gradientUnits="userSpaceOnUse">
<stop stop-color="#DAE3FE"/>
<stop offset="1" stop-color="#E9EFFD"/>
</linearGradient>
<linearGradient id="paint1_linear_1715_5508" x1="435.852" y1="577.798" x2="447.117" y2="25.0857" gradientUnits="userSpaceOnUse">
<stop stop-color="#F77D48"/>
<stop offset="1" stop-color="#F77D48"/>
</linearGradient>
<linearGradient id="paint2_linear_1715_5508" x1="200.057" y1="701.514" x2="229.767" y2="64.0551" gradientUnits="userSpaceOnUse">
<stop stop-color="#F77D48"/>
<stop offset="1" stop-color="#F77D48"/>
</linearGradient>
<linearGradient id="paint3_linear_1715_5508" x1="56.2289" y1="353.714" x2="166.178" y2="218.215" gradientUnits="userSpaceOnUse">
<stop stop-color="#F99746"/>
<stop offset="1" stop-color="#ED7D2B"/>
</linearGradient>
<linearGradient id="paint4_linear_1715_5508" x1="252.586" y1="184.173" x2="134.378" y2="241.512" gradientUnits="userSpaceOnUse">
<stop stop-color="#FEBBBA"/>
<stop offset="1" stop-color="#FF928E"/>
</linearGradient>
<linearGradient id="paint5_linear_1715_5508" x1="253.15" y1="185.337" x2="134.942" y2="242.676" gradientUnits="userSpaceOnUse">
<stop stop-color="#FEBBBA"/>
<stop offset="1" stop-color="#FF928E"/>
</linearGradient>
<linearGradient id="paint6_linear_1715_5508" x1="10.8387" y1="371.204" x2="29.3539" y2="371.204" gradientUnits="userSpaceOnUse">
<stop stop-color="#09005D"/>
<stop offset="1" stop-color="#1A0F91"/>
</linearGradient>
<linearGradient id="paint7_linear_1715_5508" x1="12.6876" y1="370.041" x2="32.3904" y2="370.041" gradientUnits="userSpaceOnUse">
<stop stop-color="#09005D"/>
<stop offset="1" stop-color="#1A0F91"/>
</linearGradient>
<linearGradient id="paint8_linear_1715_5508" x1="22.5237" y1="350.145" x2="37.0123" y2="350.145" gradientUnits="userSpaceOnUse">
<stop stop-color="#FEBBBA"/>
<stop offset="1" stop-color="#FF928E"/>
</linearGradient>
<linearGradient id="paint9_linear_1715_5508" x1="234.146" y1="304.812" x2="261.902" y2="304.812" gradientUnits="userSpaceOnUse">
<stop stop-color="#09005D"/>
<stop offset="1" stop-color="#1A0F91"/>
</linearGradient>
<linearGradient id="paint10_linear_1715_5508" x1="227.228" y1="304.554" x2="260.696" y2="304.554" gradientUnits="userSpaceOnUse">
<stop stop-color="#09005D"/>
<stop offset="1" stop-color="#1A0F91"/>
</linearGradient>
<linearGradient id="paint11_linear_1715_5508" x1="218.356" y1="303.587" x2="234.274" y2="303.587" gradientUnits="userSpaceOnUse">
<stop stop-color="#FEBBBA"/>
<stop offset="1" stop-color="#FF928E"/>
</linearGradient>
<linearGradient id="paint12_linear_1715_5508" x1="27.2168" y1="297.212" x2="134.462" y2="297.212" gradientUnits="userSpaceOnUse">
<stop stop-color="#09005D"/>
<stop offset="1" stop-color="#1A0F91"/>
</linearGradient>
<linearGradient id="paint13_linear_1715_5508" x1="289.112" y1="300.02" x2="133.849" y2="250.554" gradientUnits="userSpaceOnUse">
<stop stop-color="#09005D"/>
<stop offset="1" stop-color="#1A0F91"/>
</linearGradient>
<linearGradient id="paint14_linear_1715_5508" x1="19.0815" y1="323.57" x2="129.031" y2="188.071" gradientUnits="userSpaceOnUse">
<stop stop-color="#F99746"/>
<stop offset="1" stop-color="#ED7D2B"/>
</linearGradient>
<linearGradient id="paint15_linear_1715_5508" x1="105.814" y1="222.797" x2="35.5659" y2="98.4755" gradientUnits="userSpaceOnUse">
<stop stop-color="#FEBBBA"/>
<stop offset="1" stop-color="#FF928E"/>
</linearGradient>
<linearGradient id="paint16_linear_1715_5508" x1="150.31" y1="169.625" x2="157.659" y2="148.64" gradientUnits="userSpaceOnUse">
<stop stop-color="#FEBBBA"/>
<stop offset="1" stop-color="#FF928E"/>
</linearGradient>
<linearGradient id="paint17_linear_1715_5508" x1="171.288" y1="126.374" x2="138.997" y2="151.114" gradientUnits="userSpaceOnUse">
<stop stop-color="#FEBBBA"/>
<stop offset="1" stop-color="#FF928E"/>
</linearGradient>
<linearGradient id="paint18_linear_1715_5508" x1="148.535" y1="106.817" x2="178.589" y2="145.563" gradientUnits="userSpaceOnUse">
<stop stop-color="#09005D"/>
<stop offset="1" stop-color="#1A0F91"/>
</linearGradient>
<linearGradient id="paint19_linear_1715_5508" x1="167.279" y1="121.141" x2="134.988" y2="145.881" gradientUnits="userSpaceOnUse">
<stop stop-color="#FEBBBA"/>
<stop offset="1" stop-color="#FF928E"/>
</linearGradient>
</defs>
</svg>
