<svg width="524" height="278" viewBox="0 0 524 278" fill="none" xmlns="http://www.w3.org/2000/svg">
<g clip-path="url(#clip0_1715_7985)">
<path d="M73.2907 232.473H478.745L479.373 180.299C482.914 93.7705 386.697 27.8635 306.809 62.092C306.811 62.0886 211.141 99.872 211.141 99.872L190.148 85.9912C138.801 49.6016 62.1999 93.724 68.3275 156.201C68.3259 156.199 73.2907 232.473 73.2907 232.473Z" fill="#DCECFD"/>
<mask id="mask0_1715_7985" style="mask-type:luminance" maskUnits="userSpaceOnUse" x="67" y="52" width="413" height="181">
<path d="M73.2907 232.473H478.745L479.373 180.299C482.914 93.7705 386.697 27.8635 306.809 62.092C306.811 62.0886 211.141 99.872 211.141 99.872L190.148 85.9912C138.801 49.6016 62.1999 93.724 68.3275 156.201C68.3259 156.199 73.2907 232.473 73.2907 232.473Z" fill="white"/>
</mask>
<g mask="url(#mask0_1715_7985)">
<path d="M57.2952 232.473V146.179H100.153V183.156H248.012V147.441H353.528V183.156H493V232.58L57.2952 232.473Z" fill="#F1F8FE"/>
</g>
<path d="M363.319 109L357.749 110.06C357.26 110.153 356.758 110.166 356.264 110.1L327.264 105.993L326.268 111.517L352.515 119.738C355.522 120.891 360.868 120.028 364.02 119.924L363.319 109Z" fill="#F4D2C6"/>
<mask id="mask1_1715_7985" style="mask-type:luminance" maskUnits="userSpaceOnUse" x="326" y="105" width="39" height="16">
<path d="M363.319 109L357.749 110.06C357.26 110.153 356.758 110.166 356.264 110.1L327.264 105.993L326.268 111.517L352.515 119.738C355.522 120.891 360.868 120.028 364.02 119.924L363.319 109Z" fill="white"/>
</mask>
<g mask="url(#mask1_1715_7985)">
<path d="M358.778 108.249L357.477 121.442L366.462 120.362L364.018 106.616L358.778 108.249Z" fill="#EDA19D"/>
</g>
<path d="M327.264 105.992C327.264 105.992 323.235 101.778 322.811 102.251C322.388 102.726 323.819 104.731 323.554 104.889C323.289 105.047 315.022 104.783 315.129 105.469C315.236 106.155 316.772 111.009 318.043 111.326C319.315 111.643 326.27 111.514 326.27 111.514L327.264 105.992Z" fill="#F4D2C6"/>
<path d="M380.576 103.838L361.574 108.463L362.405 121.443L379.71 119.634L380.576 103.838Z" fill="#3C7ED7"/>
<path d="M402.309 222.239L402.596 224.597L397.257 230.112C396.621 230.768 396.44 231.74 396.795 232.58L410.251 226.932L406.855 220.329L402.309 222.239Z" fill="#152E60"/>
<path d="M363.679 140.885L353.264 166.836C350.627 169.507 352.39 220.656 351.913 225.075H359.731L368.282 174.824L387.219 145.578L363.679 140.885Z" fill="#324D90"/>
<mask id="mask2_1715_7985" style="mask-type:luminance" maskUnits="userSpaceOnUse" x="351" y="140" width="37" height="86">
<path d="M363.679 140.885L353.264 166.836C350.627 169.507 352.39 220.656 351.913 225.075H359.731L368.282 174.824L387.219 145.578L363.679 140.885Z" fill="white"/>
</mask>
<g mask="url(#mask2_1715_7985)">
<path d="M374.692 164.923L373.596 151.603C373.596 151.603 361.366 172.339 361.164 175.759C360.962 179.178 356.316 226.447 356.316 226.447H361.971C363.614 218.51 369.675 170.664 374.692 164.923Z" fill="#2A437D"/>
</g>
<path d="M372.745 141.237L375.414 173.7C374.18 176.094 400.168 222.115 401.243 225.075L408.166 221.459L392.903 174.856L395.472 146.39L372.745 141.237Z" fill="#324D90"/>
<mask id="mask3_1715_7985" style="mask-type:luminance" maskUnits="userSpaceOnUse" x="372" y="141" width="37" height="85">
<path d="M372.745 141.237L375.414 173.7C374.18 176.094 400.168 222.115 401.243 225.075L408.166 221.459L392.903 174.856L395.472 146.39L372.745 141.237Z" fill="white"/>
</mask>
<g mask="url(#mask3_1715_7985)">
<path d="M373.549 147.822C373.549 147.822 380.604 157.919 397.159 160.916L398.004 149.194L374.3 146.116L373.549 147.822Z" fill="#2A437D"/>
</g>
<path d="M353.166 225.076L352.512 227.36L345.442 230.377C344.599 230.736 344.054 231.561 344.054 232.473H358.656L358.102 225.076H353.166Z" fill="#152E60"/>
<path d="M395.083 95.3471C389.978 105.256 378.093 100.002 383.537 89.4565C388.006 78.9696 399.561 86.0113 395.083 95.3471Z" fill="#F4D2C6"/>
<mask id="mask4_1715_7985" style="mask-type:luminance" maskUnits="userSpaceOnUse" x="382" y="84" width="15" height="17">
<path d="M395.083 95.3471C389.978 105.256 378.093 100.002 383.537 89.4565C388.006 78.9696 399.561 86.0113 395.083 95.3471Z" fill="white"/>
</mask>
<g mask="url(#mask4_1715_7985)">
<path d="M380.856 91.0445L393.34 91.6841V88.4282L383.69 85.2969L380.856 91.0445Z" fill="#EDA19D"/>
</g>
<path d="M395.307 94.834C395.307 94.834 389.096 106.412 388.697 110.515C388.697 110.515 384.186 109.863 380.856 106.854C380.856 106.854 388.083 97.8689 388.699 95.3207L395.307 94.834Z" fill="#F4D2C6"/>
<path d="M385.776 100.331C385.776 100.331 387.132 100.941 389.585 100.331C389.585 100.331 387.691 103.354 384.508 102.094L385.776 100.331Z" fill="#EDA19D"/>
<path d="M384.173 86.7941C384.173 86.7941 386.79 88.7311 391.658 90.4454C392.479 94.2644 387.936 95.9007 393.268 98.8177C396.268 95.7977 403.373 89.0832 394.658 84.0765C390.699 81.6362 386.807 82.3322 384.173 86.7941Z" fill="#59445A"/>
<path d="M393.041 94.9304C392.22 96.7394 389.386 95.4155 390.26 93.6314C391.079 91.8223 393.914 93.1463 393.041 94.9304Z" fill="#F4D2C6"/>
<path d="M386.707 82.8337L395.36 96.9155C406.558 91.5615 394.259 75.9183 386.707 82.8337Z" fill="#4292F3"/>
<path d="M391.136 90.0416C383.747 87.5898 381.266 88.4735 377.937 80.5547L386.707 82.8338L391.136 90.0416Z" fill="#324D90"/>
<path d="M398.52 86.4855C398.001 86.9241 396.376 84.7646 396.945 84.3925C397.464 83.9539 399.089 86.1134 398.52 86.4855Z" fill="#324D90"/>
<path d="M398.557 118.732C398.992 109.813 393.225 104.15 385.591 103.625C379.682 102.448 373.599 106.504 371.137 113.263L359.871 144.201L396.992 151.603L398.557 118.732Z" fill="#4292F3"/>
<path d="M384.725 103.49L385.808 105.889C387.082 108.148 389.837 106.846 391.718 105.268L390.292 104.407L384.725 103.49Z" fill="white"/>
<path d="M384.725 103.49L382.291 104.822C381.507 105.206 380.978 104.297 381.385 103.64C381.387 103.641 383.037 103.196 384.725 103.49Z" fill="white"/>
<path d="M386.72 128.734L388.222 130.345L396.835 118.802C396.835 118.802 390.539 134.274 388.615 134.756C386.692 135.237 379.224 134.196 379.224 134.196L386.72 128.734Z" fill="#3C7ED7"/>
<path d="M378.432 120.104L377.648 119.353L386.72 111.504L367.498 123.253L366.325 126.476L372.97 125.052L378.432 120.104Z" fill="#3C7ED7"/>
<path d="M378.432 120.104L372.97 125.052L341.316 131.828L342.464 137.034L375.087 135.373C379.124 135.393 383.637 130.866 386.72 128.732L378.432 120.104Z" fill="#F4D2C6"/>
<mask id="mask5_1715_7985" style="mask-type:luminance" maskUnits="userSpaceOnUse" x="341" y="120" width="46" height="18">
<path d="M378.432 120.104L372.97 125.052L341.316 131.828L342.464 137.034L375.087 135.373C379.124 135.393 383.637 130.866 386.72 128.732L378.432 120.104Z" fill="white"/>
</mask>
<g mask="url(#mask5_1715_7985)">
<path d="M375.468 120.362L381.7 133.771L388.957 127.512L379.224 117.772L375.468 120.362Z" fill="#EDA19D"/>
</g>
<path d="M341.623 131.917C341.623 131.917 336.129 129.932 335.963 130.545C335.796 131.158 337.975 132.318 337.808 132.578C337.641 132.838 330.124 136.27 330.524 136.838C330.926 137.404 334.474 141.069 335.754 140.788C337.034 140.507 343.542 136.836 343.542 136.836L341.623 131.917Z" fill="#F4D2C6"/>
<path d="M284.241 78.9841L249.494 100.33L233.613 58.5384L268.36 37.1924L284.241 78.9841Z" fill="#F3AC4A"/>
<path d="M309.32 77.7918L284.247 78.9828L268.369 37.1894L293.441 36L309.32 77.7918Z" fill="#F08F3C"/>
<path d="M254.812 50.6717L250.136 53.5472L248.541 49.3511L253.217 46.4756L254.812 50.6717Z" fill="#FDF1E6"/>
<path d="M286.851 40.5997L281.288 40.8223L279.693 36.6262L285.252 36.3887L286.851 40.5997Z" fill="#FDF1E6"/>
<path d="M249.494 100.331L275.44 98.0599L309.32 77.792L284.247 78.9831L249.494 100.331Z" fill="#152E60"/>
<path d="M203.432 127.59C203.432 127.59 218.956 106.704 254.712 83.1357L256.836 86.8551C256.836 86.8568 231.384 100.982 203.432 127.59Z" fill="white"/>
<path d="M263.984 110.124C263.984 110.124 295.35 96.4945 316.62 91.5077L315.636 85.0225C315.636 85.0225 291.471 93.3184 263.984 110.124Z" fill="white"/>
<path d="M198.561 144.06C198.561 144.06 216.718 125.418 241.347 108.554L243.301 112.433C243.301 112.433 227.551 120.587 198.561 144.06Z" fill="white"/>
<path d="M215.716 181.17H172.981V232.58H215.716V181.17Z" fill="#F3AC4A"/>
<path d="M197.65 181.17H191.047V186.158H197.65V181.17Z" fill="#FDF1E6"/>
<path d="M238.037 181.17H215.716V232.58H238.037V181.17Z" fill="#F08F3C"/>
<path d="M230.904 181.17H225.247V186.158H230.904V181.17Z" fill="#FDF1E6"/>
<path d="M98.4885 201.511H72.6617V232.58H98.4885V201.511Z" fill="#F3AC4A"/>
<path d="M87.5696 201.511H83.579V204.526H87.5696V201.511Z" fill="#FDF1E6"/>
<path d="M111.977 201.511H98.4868V232.58H111.977V201.511Z" fill="#F08F3C"/>
<path d="M107.666 201.511H104.247V204.526H107.666V201.511Z" fill="#FDF1E6"/>
<path d="M92.4676 170.548H66.6409V201.617H92.4676V170.548Z" fill="#F3AC4A"/>
<path d="M81.5487 170.548H77.5582V173.563H81.5487V170.548Z" fill="#FDF1E6"/>
<path d="M105.956 170.548H92.466V201.617H105.956V170.548Z" fill="#F08F3C"/>
<path d="M101.645 170.548H98.2266V173.563H101.645V170.548Z" fill="#FDF1E6"/>
<path d="M92.4676 201.262H72.6617V201.758H92.4676V201.262Z" fill="#F08F3C"/>
<path d="M171.007 132.947L173.531 140.74L200.728 150.489L197.77 154.307C196.619 153.838 165.434 150.313 165.697 148.901C162.694 147.007 162.803 143.145 162.879 140.034L164.614 134.206L171.007 132.947Z" fill="#EDA19D"/>
<path d="M151.977 225.076L152.631 227.36L159.701 230.377C160.544 230.736 161.089 231.561 161.089 232.473H146.487L147.041 225.076H151.977Z" fill="#152E60"/>
<path d="M113.627 217.913L113.091 220.227L117.817 226.27C118.379 226.99 118.458 227.975 118.016 228.774L105.232 221.749L109.306 215.539L113.627 217.913Z" fill="#152E60"/>
<path d="M172.742 87.5615C173.149 88.1479 174.339 92.4155 172.46 94.4222L171.007 88.6031L172.742 87.5615Z" fill="#1A1949"/>
<path d="M158.265 91.8156C156.346 103.16 170.19 105.7 172.46 94.422C174.379 83.0795 160.535 80.538 158.265 91.8156Z" fill="#F4D2C6"/>
<mask id="mask6_1715_7985" style="mask-type:luminance" maskUnits="userSpaceOnUse" x="158" y="84" width="15" height="18">
<path d="M158.265 91.8156C156.346 103.16 170.19 105.7 172.46 94.422C174.379 83.0795 160.535 80.538 158.265 91.8156Z" fill="white"/>
</mask>
<g mask="url(#mask6_1715_7985)">
<path d="M172.983 91.6047C167.182 96.9055 162.124 90.7907 160.764 86.1162L172.067 87.9668L172.983 91.6047Z" fill="#EDA19D"/>
</g>
<path d="M158.385 91.2529C158.385 91.2529 156.62 104.655 154.486 108.331C154.486 108.331 158.659 110.476 163.258 109.943C163.258 109.943 162.612 98.1053 163.63 95.6035L158.385 91.2529Z" fill="#F4D2C6"/>
<path d="M163.061 101.542C163.061 101.542 161.558 101.243 159.871 99.2695C159.871 99.2695 159.638 102.932 163.063 103.775L163.061 101.542Z" fill="#EDA19D"/>
<path d="M162.626 86.2324C162.953 91.97 161.291 93.0481 157.578 96.4951C156.323 92.0166 153.494 88.0331 159.474 84.415L162.626 86.2324Z" fill="#59445A"/>
<path d="M158.005 92.3452C157.579 94.704 161.178 95.3652 161.625 93.0096C162.05 90.6508 158.452 89.9896 158.005 92.3452Z" fill="#F4D2C6"/>
<path d="M161.51 87.0078C161.51 87.0078 166.243 90.1873 169.094 91.2754L166.973 88.5793C166.973 88.5793 171.122 91.2438 175.225 91.4199C175.225 91.4199 175.333 85.3217 170.569 83.016L173.413 83.4944C169.744 80.8183 161.161 76.6006 158.727 84.9529L161.51 87.0078Z" fill="#59445A"/>
<path d="M162.614 87.7253C162.614 87.7253 159.716 86.2934 158.729 84.9512C158.727 84.9512 157.211 86.5094 162.614 87.7253Z" fill="#1A1949"/>
<path d="M168.538 112.99L172.777 132.599L163.767 134.373L168.538 112.99Z" fill="#3C7ED7"/>
<path d="M168.33 121.721C170.887 113.163 166.645 106.294 159.356 103.972C153.901 101.424 147.021 103.919 143.01 109.901L126.152 137.968L158.936 153.274L168.33 121.721Z" fill="#4292F3"/>
<path d="M167.227 125.424C166.458 125.047 166.001 124.238 166.077 123.387L167.304 109.97C166.326 107.955 164.991 107.124 164.991 107.124L163.101 122.007C163.02 122.651 162.325 123.023 161.74 122.738C147.98 115.96 152.202 120.336 154.298 102.991C154.298 102.991 152.945 103.044 151.929 103.342C150.601 106.754 149.274 115.558 146.143 117.877C138.502 126.381 121.202 134.861 122.168 148.585L122.19 148.589C124.264 190.329 126.607 179.379 107.816 216.667L113.805 220.104L136.003 194.092C139.827 190.1 141.057 183.126 142.419 177.972C144.225 182.123 146.09 220.509 146.572 225.851L153.245 226.22C153.455 224.415 160.961 183.023 160.477 182.324C160.477 182.325 158.944 153.283 158.944 153.283L158.959 153.285L158.944 153.277C158.917 153.252 167.23 125.452 167.227 125.424Z" fill="#324D90"/>
<mask id="mask7_1715_7985" style="mask-type:luminance" maskUnits="userSpaceOnUse" x="107" y="102" width="61" height="125">
<path d="M167.227 125.424C166.458 125.047 166.001 124.238 166.077 123.387L167.304 109.97C166.326 107.955 164.991 107.124 164.991 107.124L163.101 122.007C163.02 122.651 162.325 123.023 161.74 122.738C147.98 115.96 152.202 120.336 154.298 102.991C154.298 102.991 152.945 103.044 151.929 103.342C150.601 106.754 149.274 115.558 146.143 117.877C138.502 126.381 121.202 134.861 122.168 148.585L122.19 148.589C124.264 190.329 126.607 179.379 107.816 216.667L113.805 220.104L136.003 194.092C139.827 190.1 141.057 183.126 142.419 177.972C144.225 182.123 146.09 220.509 146.572 225.851L153.245 226.22C153.455 224.415 160.961 183.023 160.477 182.324C160.477 182.325 158.944 153.283 158.944 153.283L158.959 153.285L158.944 153.277C158.917 153.252 167.23 125.452 167.227 125.424Z" fill="white"/>
</mask>
<g mask="url(#mask7_1715_7985)">
<path d="M142.419 177.971L143.777 159.966C157.965 181.325 148.54 207.628 146.572 225.851L142.419 177.971Z" fill="#2A437D"/>
</g>
<mask id="mask8_1715_7985" style="mask-type:luminance" maskUnits="userSpaceOnUse" x="107" y="102" width="61" height="125">
<path d="M167.227 125.424C166.458 125.047 166.001 124.238 166.077 123.387L167.304 109.97C166.326 107.955 164.991 107.124 164.991 107.124L163.101 122.007C163.02 122.651 162.325 123.023 161.74 122.738C147.98 115.96 152.202 120.336 154.298 102.991C154.298 102.991 152.945 103.044 151.929 103.342C150.601 106.754 149.274 115.558 146.143 117.877C138.502 126.381 121.202 134.861 122.168 148.585L122.19 148.589C124.264 190.329 126.607 179.379 107.816 216.667L113.805 220.104L136.003 194.092C139.827 190.1 141.057 183.126 142.419 177.972C144.225 182.123 146.09 220.509 146.572 225.851L153.245 226.22C153.455 224.415 160.961 183.023 160.477 182.324C160.477 182.325 158.944 153.283 158.944 153.283L158.959 153.285L158.944 153.277C158.917 153.252 167.23 125.452 167.227 125.424Z" fill="white"/>
</mask>
<g mask="url(#mask8_1715_7985)">
<path d="M124.1 135.951C123.268 152.096 159.194 146.502 162.309 146.072L134.612 139.045L131.888 129.085L124.1 135.951Z" fill="#2A437D"/>
</g>
<path d="M150.643 120.445C149.76 122.392 146.709 120.969 147.648 119.047C148.53 117.1 151.582 118.525 150.643 120.445Z" fill="#2A437D"/>
<path d="M164.841 127.075C163.959 129.022 160.907 127.598 161.847 125.676C162.729 123.729 165.781 125.153 164.841 127.075Z" fill="#2A437D"/>
<path d="M150.321 108.741L144.935 128.79L131.315 125.954C131.315 125.954 133.708 107.44 151.93 103.344L150.321 108.741Z" fill="#4292F3"/>
<path d="M156.261 103.049C156.261 103.049 159.434 108.413 163.098 105.747C163.098 105.747 158.697 102.581 156.261 103.049Z" fill="#F4D2C6"/>
<path d="M156.261 103.05L159.937 106.354C156.098 108.262 155.829 106.125 154.908 102.982C154.908 102.98 155.395 102.938 156.261 103.05Z" fill="white"/>
<path d="M159.937 106.353L161.239 107.963C162.756 109.357 163.547 107.583 164.054 106.347C164.054 106.347 163.638 106.044 163.098 105.747L159.937 106.353Z" fill="white"/>
<path d="M142.95 128.376L142.074 132.022L170.297 142.89L169.664 147.333L138.362 142.735C136.434 142.453 134.665 141.513 133.356 140.076C129.721 136.723 131.828 130.308 132.336 126.165L142.95 128.376Z" fill="#F4D2C6"/>
<mask id="mask9_1715_7985" style="mask-type:luminance" maskUnits="userSpaceOnUse" x="131" y="126" width="40" height="22">
<path d="M142.95 128.376L142.074 132.022L170.297 142.89L169.664 147.333L138.362 142.735C136.434 142.453 134.665 141.513 133.356 140.076C129.721 136.723 131.828 130.308 132.336 126.165L142.95 128.376Z" fill="white"/>
</mask>
<g mask="url(#mask9_1715_7985)">
<path d="M144.023 130.626L130.133 130.84L130.81 124.456L144.336 126.082L144.023 130.626Z" fill="#EDA19D"/>
</g>
<path d="M171.788 96.6474C171.788 96.6474 166.381 95.3434 165.484 95.9796C164.586 96.6142 165.777 101.314 167.04 101.905C168.305 102.495 169.456 101.92 169.948 101.461C170.44 101.003 171.788 96.6474 171.788 96.6474Z" fill="#59445A"/>
<path d="M170.574 97.8118L167.724 97.3467C167.724 97.3467 169.219 98.6125 170.574 97.8118Z" fill="white"/>
<path d="M199.39 150.009C199.39 150.009 207.374 148.478 207.261 149.67C207.219 150.112 204.316 151.003 204.316 151.003C204.316 151.003 210.294 152.69 210.294 153.134C210.294 153.577 206.056 157.265 204.049 156.554C202.042 155.843 197.77 154.305 197.77 154.305L199.39 150.009Z" fill="#EDA19D"/>
<path d="M170.295 142.89C170.295 142.89 176.453 141.823 176.723 142.459C176.991 143.096 173.591 143.767 173.66 144.102C173.727 144.438 180.158 146.549 179.888 147.119C179.619 147.689 174.669 150.102 173.793 149.868C172.917 149.634 168.675 147.189 168.675 147.189L170.295 142.89Z" fill="#F4D2C6"/>
<path d="M458.088 197.134H422.578V232.492H458.088V197.134Z" fill="#BEDBFA"/>
<path d="M443.203 197.134H437.463V200.998H443.203V197.134Z" fill="#CBE3FC"/>
<path d="M453.452 161.777H417.942V197.135H453.452V161.777Z" fill="#BEDBFA"/>
<path d="M438.567 161.777H432.827V165.641H438.567V161.777Z" fill="#CBE3FC"/>
<path opacity="0.25" d="M453.452 197.134L422.578 203.577V197.134H453.452Z" fill="#3C7ED7"/>
<path d="M467.027 161.777H453.452V197.135H467.027V161.777Z" fill="#D4E8FC"/>
<path d="M471.531 197.134H457.956V232.492H471.531V197.134Z" fill="#D4E8FC"/>
<path d="M52 232.579C196.165 232.023 346.77 232.018 490.933 232.579C346.768 233.141 196.163 233.136 52 232.579Z" fill="#152E60"/>
<path d="M364.575 64.8835C364.575 76.4508 355.157 85.8421 343.521 85.8421C331.885 85.8421 322.467 76.4508 322.467 64.8835C322.467 53.3161 331.885 43.9248 343.521 43.9248C355.157 43.9248 364.575 53.3161 364.575 64.8835Z" fill="white" stroke="#324D90" stroke-width="4"/>
<path d="M339.066 59.7354L349.764 70.4161" stroke="#ED7D2B" stroke-width="4" stroke-linecap="round"/>
<path d="M349.17 59.7344L339.066 70.4151" stroke="#ED7D2B" stroke-width="4" stroke-linecap="round"/>
</g>
<defs>
<clipPath id="clip0_1715_7985">
<rect width="524" height="278" fill="white"/>
</clipPath>
</defs>
</svg>
