<svg width="540" height="278" viewBox="0 0 540 278" fill="none" xmlns="http://www.w3.org/2000/svg">
<g clip-path="url(#clip0_1715_7955)">
<path d="M471.868 246.723C462.835 246.723 444.324 247.363 444.127 247.655H397.458L383.799 247.627H261.494L225.775 247.597H131.613L92.2844 247.568H21.1626C21.1626 247.568 21.0448 247.334 20.8091 246.866L20.7703 246.807C20.7703 246.807 20.7316 246.749 20.7316 246.72C20.5751 246.486 -38.4535 153.617 59.0048 107.835C97.1366 89.9218 77.0428 54.1536 133.48 32.4857C206.247 4.54913 226.081 45.1409 312.127 35.3273C386.858 26.8042 420.909 53.95 415.664 94.3214C413.201 113.284 430.115 127.82 446.799 130.428C492.829 137.62 491.179 179.751 487.416 210.706C485.096 229.79 472.188 246.725 471.868 246.725V246.723Z" fill="#EBF3FA"/>
<path d="M193.816 173.715C193.816 173.715 193.225 172.997 192.339 172.775C191.453 172.553 189.537 171.617 189.76 172.107C189.982 172.596 191.051 173.175 190.873 173.532C190.873 173.532 187.829 172.685 187.739 173.22C187.65 173.754 188.812 175.795 190.115 176.234C190.546 176.378 193.544 175.803 193.544 175.803L193.814 173.717L193.816 173.715Z" fill="#F2A16B"/>
<path d="M291.732 182.733C291.732 182.733 290.538 181.432 288.944 181.639C288.129 181.745 286.952 180.465 287.011 181.296C287.07 182.127 288.25 184.05 288.651 184.38C289.439 185.027 291.17 184.814 291.17 184.814L293.293 186.121L291.732 182.733Z" fill="#FFB27D"/>
<path d="M38.1984 147.368C38.1984 147.368 29.4066 156.478 28.9908 159.907C28.5749 163.336 33.2031 168.689 33.2031 168.689L38.2001 147.37L38.1984 147.368Z" fill="#ED7D2B"/>
<path d="M42.17 241.78C42.17 241.78 42.4798 246.612 43.4159 246.679C43.5405 246.688 48.1619 246.679 48.1619 246.679L54.0612 246.632C54.0612 246.632 54.0192 245.212 52.2952 244.914C50.5695 244.618 47.6821 243.414 46.6315 241.137C45.5271 238.743 42.17 241.78 42.17 241.78Z" fill="#2358A5"/>
<path d="M29.0313 241.809C29.0313 241.809 29.3411 246.641 30.2772 246.708C30.4018 246.716 35.0232 246.708 35.0232 246.708L40.9225 246.661C40.9225 246.661 40.8805 245.241 39.1565 244.945C37.4308 244.649 34.5434 243.444 33.4928 241.168C32.3884 238.774 29.0313 241.81 29.0313 241.81V241.809Z" fill="#2358A5"/>
<path d="M48.5916 189.826C48.5916 189.826 47.0696 199.69 41.3521 217.207C35.6346 234.725 34.8669 242.306 34.8669 242.306L28.6915 242.146C28.6915 242.146 28.5972 223.015 31.2303 214.207C33.8635 205.4 31.7337 182.474 31.7337 182.474L48.5899 189.826H48.5916Z" fill="#163560"/>
<path d="M51.5798 182.97C51.5798 182.97 51.8307 197.829 49.2969 216.08C46.7631 234.331 47.652 242.073 47.652 242.073L41.49 242.292C41.49 242.292 37.7676 224.048 38.803 214.914C39.8384 205.78 33.6916 183.589 33.6916 183.589L51.5765 182.971L51.5798 182.97Z" fill="#1C468A"/>
<path d="M39.5755 148.222L42.8636 150.365L47.6063 149.472C47.5406 149.09 47.2224 147.503 46.9345 146.067C46.9177 145.983 46.8991 145.897 46.884 145.814C46.6365 144.593 46.4244 143.543 46.4244 143.543L41.9881 141.598L40.3348 140.873C40.3399 140.898 40.4661 142.229 40.483 142.424C40.8012 145.875 39.5755 148.222 39.5755 148.222Z" fill="#FFB27D"/>
<path d="M46.386 147.122C46.2934 147.083 40.6685 145.438 40.059 145.641C39.4495 145.845 39.0893 147.026 39.0893 147.026L48.2884 149.084C48.2884 149.084 47.5611 147.615 46.386 147.124V147.122Z" fill="#ED7D2B"/>
<path d="M31.331 184.848C32.294 189.191 48.1534 189.672 52.2328 185.72C52.6975 185.269 52.7143 183.178 52.5342 180.36C52.1789 174.852 51.0593 166.569 51.0071 162.334C50.9819 160.29 50.6957 158.199 50.3169 156.301C49.5121 152.257 48.2898 149.084 48.2898 149.084C48.2898 149.084 40.5385 146.599 39.0906 147.026C32.1121 149.092 30.3696 180.506 31.331 184.848Z" fill="#F99746"/>
<path d="M52.5326 180.359C52.1774 174.851 51.0578 166.568 51.0056 162.333C50.9804 160.289 50.6942 158.198 50.3153 156.3L45.6535 155.489C45.6535 155.489 41.1381 174.093 52.531 180.359H52.5326Z" fill="#ED7D2B"/>
<path d="M49.9938 172.686C49.9938 172.686 49.6772 173.445 50.3456 173.953C51.014 174.461 51.4484 175.286 51.2969 175.888C51.1453 176.492 49.684 177.478 49.1772 177.322C48.6705 177.163 47.635 176.373 47.7462 176.053C47.8573 175.735 47.0458 173.264 48.2799 172.308C49.5139 171.352 49.9938 172.685 49.9938 172.685V172.686Z" fill="#FFB27D"/>
<path d="M44.7294 147.977C44.7294 147.977 49.2751 148.817 52.9083 154.142C56.5415 159.467 58.9322 163.425 58.2689 165.348C57.6055 167.271 51.5412 173.95 50.4923 173.952C49.4435 173.954 47.7514 173.197 47.6521 171.482C47.6521 171.482 51.6574 164.82 50.8122 163.861C50.4502 163.452 45.5072 159.488 44.7681 161.395C43.5475 164.547 44.7294 147.976 44.7294 147.976V147.977Z" fill="#F99746"/>
<path d="M40.8164 142.485C41.7929 144.13 45.4228 145.547 46.9363 146.067C46.9195 145.982 46.901 145.897 46.8858 145.814C46.6383 144.593 46.4262 143.543 46.4262 143.543L41.9899 141.598C41.0101 141.586 40.4141 141.807 40.8181 142.485H40.8164Z" fill="#FCA56B"/>
<path d="M48.0946 143.271C48.0946 143.271 40.9612 145.512 39.6329 141.05C38.3045 136.59 36.4896 133.875 40.9882 132.254C45.4867 130.636 46.8824 132.073 47.6872 133.454C48.4936 134.835 49.9146 142.571 48.0929 143.269L48.0946 143.271Z" fill="#FFB27D"/>
<path d="M47.4062 133.027C47.4062 133.027 46.9618 138.222 45.8876 137.999C44.8118 137.775 43.837 137.61 43.997 139.176C44.1586 140.741 45.6519 142.546 42.3403 142.83C39.0287 143.115 34.2473 134.587 35.153 132.968C37.7693 128.298 51.1893 127.329 47.4062 133.025V133.027Z" fill="#163560"/>
<path d="M420.388 165.61C420.388 165.61 419.781 164.607 419.409 164.052C419.036 163.497 418.296 162.806 418.105 162.984C417.915 163.162 418.674 163.896 418.641 164.141C418.607 164.387 417.334 163.563 417.198 163.378C416.922 163.006 416.195 162.605 416.105 163.073C416.016 163.541 416.557 165.01 416.802 165.432C417.048 165.854 418.073 166.522 418.641 166.722C419.208 166.922 420.18 167.39 420.18 167.39L420.388 165.61Z" fill="#FFB27D"/>
<path d="M446.186 132.65C444.016 131.524 442.277 132.233 442.277 132.233C435.637 131.454 433.699 139.193 433.788 141.856C433.877 144.519 434.182 147.379 431.215 150.839C422.649 160.832 440.59 161.273 440.59 161.273C440.741 153.288 450.319 156.202 449.9 157.011C462.177 159.956 451.121 135.211 446.184 132.652L446.186 132.65Z" fill="#163560"/>
<path d="M437.458 166.51C437.458 166.51 436.824 167.767 435.672 169.209C434.285 170.945 432.145 172.952 429.458 173.349C428.175 173.538 426.919 173.262 425.766 172.75C425.762 172.75 425.762 172.75 425.762 172.75C422.5 171.304 420.047 167.974 420.047 167.974C419.471 166.406 420.412 165.344 420.412 165.344C420.412 165.344 427 166.825 427.628 166.512C428.256 166.199 431.916 155.66 432.786 154.336C433.658 153.012 436.628 152.324 436.628 152.324L437.458 166.51Z" fill="#F99746"/>
<path d="M435.672 169.208C434.285 170.944 432.145 172.952 429.458 173.349C428.175 173.537 426.919 173.261 425.766 172.75C425.894 172.766 429.152 173.169 430.451 170.847C431.776 168.478 433.209 164.714 435.177 165.969C436.026 166.511 435.989 167.855 435.672 169.21V169.208Z" fill="#ED7D2B"/>
<path d="M462.039 237.581C462.039 237.581 464.049 239.415 463.657 240.717C463.264 242.019 461.449 242.889 461.205 244.481C460.959 246.072 459.98 246.942 459.097 246.942H454.89C454.89 246.942 454.24 245.822 455.809 245.483C457.378 245.145 457.971 243.274 457.872 241.538C457.774 239.802 458.018 237.485 458.018 237.485L461.352 236.713L462.039 237.581Z" fill="#2358A5"/>
<path d="M445.023 238.359C445.023 238.359 445.747 246.127 444.863 246.561L433.568 246.538C433.568 246.538 433.567 245.235 435.382 244.946C437.197 244.657 440.384 243.595 440.923 241.231C441.462 238.867 445.023 238.361 445.023 238.361V238.359Z" fill="#2358A5"/>
<path d="M453.072 182.636C450.747 177.427 449.326 175.932 449.597 174.315C449.799 173.112 448.981 151.878 448.981 151.878C448.705 151.792 448.153 151.717 447.85 151.649C446.897 151.437 446.107 150.768 445.779 149.849C445.383 148.742 445.068 147.107 445.077 145.058L444.779 145.116L439.772 146.107C439.772 146.107 439.886 147.682 439.89 149.164C439.89 149.176 439.89 149.19 439.89 149.201C439.896 150.49 439.05 151.627 437.812 151.984C437.179 152.166 436.63 152.322 436.63 152.322C436.63 152.322 434.792 157.566 434.44 162.955C434.09 168.344 437.784 170.684 434.411 181.452C430.97 192.448 454.355 185.515 453.072 182.636Z" fill="#FFB27D"/>
<path d="M439.773 146.107C439.773 146.107 439.888 147.682 439.891 149.164C442.693 149.085 444.174 146.531 444.78 145.116L439.773 146.107Z" fill="#E8945B"/>
<path d="M438.837 147.512C438.837 147.512 445.466 147.621 445.471 143.494C445.476 139.369 446.334 136.603 442.102 136.359C437.869 136.115 437.046 137.688 436.709 139.065C436.372 140.441 437.113 147.376 438.837 147.51V147.512Z" fill="#FFB27D"/>
<path d="M439.083 136.26C439.083 136.26 440.898 141.101 443.683 141.817C446.467 142.532 447.676 141.787 447.676 141.787C447.676 141.787 445.54 140.091 445.097 137.13C445.097 137.13 440.452 133.957 439.083 136.26Z" fill="#163560"/>
<path d="M439.533 136.652C439.533 136.652 438.187 137.155 437.633 138.136C437.091 139.095 436.63 140.365 436.738 141.925C436.738 141.925 435.371 138.634 436.906 136.773C438.536 134.8 439.533 136.654 439.533 136.654V136.652Z" fill="#163560"/>
<path d="M440.28 144.953C440.28 144.953 439.822 145.554 438.908 145.512C438.171 145.476 437.886 144.837 437.886 144.837C437.886 144.837 439.24 144.512 440.28 144.953Z" fill="#EBF3FA"/>
<path d="M453.712 161.271C453.712 161.271 453.88 163.643 453.712 166.488C453.599 168.374 451.69 170.901 451.419 171.527C450.739 173.095 449.973 173.349 449.973 173.349L444.041 174.801L441.955 175.311L435.379 173.349C435.379 173.349 432.384 164.994 433.586 160.292C434.788 155.589 436.627 152.324 436.627 152.324C436.627 152.324 441.992 157.575 448.979 151.878L453.71 161.271H453.712Z" fill="#F99746"/>
<path d="M451.976 167.259C451.863 169.145 451.69 170.902 451.42 171.527C450.74 173.095 449.974 173.35 449.974 173.35L444.043 174.801L441.467 174.044C441.467 174.044 450.065 172.742 449.112 165.35L451.976 167.257V167.259Z" fill="#F2CCAA"/>
<path d="M435.8 174.618C435.8 174.618 432.544 184.748 432.333 188.197C432.125 191.646 438.559 237.189 438.817 238.779C439.061 240.276 440.921 241.232 440.921 241.232C440.921 241.232 441.777 241.737 442.999 241.392C444.694 240.914 445.23 240.34 445.23 240.34C445.23 240.34 447.765 207.859 446.196 196.256C444.627 184.652 444.608 174.618 444.608 174.618H435.797H435.8Z" fill="#163560"/>
<path d="M449.597 174.315C449.597 174.315 454.565 180.976 455.028 185.478C455.491 189.98 455.756 205.797 456.742 210.186C457.729 214.576 461.354 223.023 461.354 236.713C461.354 236.713 460.977 237.497 459.813 237.916C459.441 238.049 458.943 238.18 458.458 238.289C457.498 238.51 456.513 238.04 456.076 237.161C453.624 232.229 445.817 216.325 445.418 213.025C445.136 210.688 442.671 195.226 437.293 186.153C436.002 183.974 438.085 175.313 438.085 175.313L449.595 174.317L449.597 174.315Z" fill="#1C468A"/>
<path d="M440.132 145.063C440.132 145.063 440.017 145.549 438.807 145.473C438.807 145.473 437.79 145.411 437.822 144.876C437.822 144.876 438.807 144.496 440.132 145.063Z" fill="white"/>
<path d="M435.28 173.053C435.28 173.053 436.588 174.086 439.184 174.139C442.287 174.201 449.972 173.348 449.972 173.348C449.972 173.348 450.314 174.302 450.301 175.308C450.301 175.308 440.913 177.675 435.473 175.653C435.473 175.653 434.771 174.334 435.28 173.052V173.053Z" fill="#233862"/>
<path d="M438.44 176.81C437.659 176.81 437.024 176.091 437.024 175.208C437.024 174.325 437.659 173.606 438.44 173.606C439.221 173.606 439.856 174.325 439.856 175.208C439.856 176.091 439.221 176.81 438.44 176.81ZM438.44 174.076C437.918 174.076 437.494 174.584 437.494 175.208C437.494 175.832 437.918 176.34 438.44 176.34C438.962 176.34 439.386 175.832 439.386 175.208C439.386 174.584 438.962 174.076 438.44 174.076Z" fill="white"/>
<path d="M448.608 161.714L438.99 170.083L450.456 183.24L460.074 174.871L448.608 161.714Z" fill="#AFCDFB"/>
<path d="M447.804 174.916C447.804 174.916 444.065 175.49 444.075 176.326C444.087 177.162 444.848 178.675 445.604 178.794C446.563 178.945 448.473 176.471 448.473 176.471L447.804 174.916Z" fill="#FFB27D"/>
<path d="M447.725 175.114C447.725 175.114 446.472 174.656 445.553 174.844C444.634 175.033 443.784 174.895 443.994 175.228C444.203 175.563 445.447 175.438 445.644 175.569C445.841 175.701 445.844 175.618 445.844 175.618L447.727 175.114H447.725Z" fill="#FFB27D"/>
<path d="M448.983 151.879C448.983 151.879 453.688 152.208 455.491 156.589C457.295 160.97 460.717 168.328 460.717 169.564C460.717 170.801 458.806 174.617 448.54 176.81C448.54 176.81 447.478 175.695 447.543 174.812C447.543 174.812 453.951 169.31 453.934 168.667C453.902 167.451 452.884 165.846 447.257 160.222C445.727 158.692 448.983 151.877 448.983 151.877V151.879Z" fill="#F99746"/>
<path d="M149.015 246.858C146.54 246.858 144.069 246.641 141.638 246.205C139.414 245.807 137.24 245.228 135.139 244.481C131.859 244.79 128.556 244.797 125.28 244.491C115.183 243.551 105.903 240.527 98.2058 235.818C96.3758 236.215 94.4884 236.363 92.5473 236.262C87.8281 236.018 83.3616 234.243 79.2704 230.99C75.3813 227.896 72.0226 223.626 69.2867 218.297C64.4902 208.957 62.118 197.218 62.6045 185.245C63.1433 171.982 67.1166 159.231 74.0967 148.373C79.592 139.824 85.6614 133.187 92.1382 128.645C97.7479 124.711 103.824 122.238 110.198 121.294C111.979 121.03 113.739 120.889 115.476 120.85C121.03 117.532 127.421 115.062 134.135 113.69C141.993 112.083 153.94 111.713 166.238 119.063C179.025 126.705 189.255 140.928 196.644 161.336C197.067 162.503 197.459 163.666 197.819 164.828C199.514 165.705 201.345 166.689 203.388 167.789L203.521 167.862C209.909 171.301 219.873 174.053 230.176 175.222C238.768 176.198 251.526 176.538 263.526 172.62C274.741 168.957 282.664 162.412 287.077 153.164L288.041 153.624C283.497 163.146 275.36 169.877 263.858 173.634C251.674 177.613 238.751 177.27 230.055 176.282C219.623 175.098 209.515 172.3 203.013 168.801L202.878 168.728C201.196 167.823 199.666 166.999 198.245 166.253C201.215 176.498 201.791 186.508 199.951 196.076C198.09 205.747 193.78 214.536 187.487 221.496C185.657 223.52 183.69 225.348 181.623 226.958C181.48 227.275 181.332 227.588 181.184 227.896C181.918 229.294 182.357 230.643 182.28 231.809C182.153 233.724 179.978 235.406 175.815 236.811C175.471 236.927 175.118 237.04 174.75 237.151C171.356 240.583 167.255 243.1 162.457 244.686C158.1 246.126 153.549 246.855 149.013 246.855L149.015 246.858ZM137.678 244.18C139.036 244.577 140.42 244.902 141.826 245.154C148.539 246.358 155.557 245.847 162.124 243.675C166.087 242.364 169.578 240.383 172.563 237.755C166.94 239.159 159.361 240.078 151.194 240.391C150.874 240.529 150.552 240.662 150.229 240.793C146.197 242.43 141.971 243.564 137.679 244.176L137.678 244.18ZM99.6638 235.446C107.041 239.763 115.836 242.539 125.379 243.428C127.852 243.658 130.346 243.707 132.829 243.579C130.11 242.418 127.536 240.966 125.165 239.249C121.318 238.717 117.778 238.027 114.663 237.196C110.584 236.108 107.237 234.788 104.651 233.256C103.046 234.211 101.381 234.942 99.6638 235.448V235.446ZM127.492 239.545C129.916 241.108 132.529 242.398 135.274 243.394C139.629 242.963 143.937 241.986 148.065 240.483C144.079 240.561 139.996 240.494 135.969 240.27C133.036 240.108 130.199 239.864 127.492 239.545ZM125.586 238.232C128.83 238.671 132.321 238.998 136.028 239.203C141.015 239.479 146.086 239.514 150.946 239.334C153.923 238.044 156.728 236.494 159.322 234.714C157.893 234.62 156.492 234.403 155.133 234.063C151.926 233.259 149.298 231.348 147.146 228.203C143.806 228.299 140.387 228.109 136.917 227.625C128.618 226.466 121.823 223.949 116.601 220.111C115.737 221.627 114.875 222.973 114.035 224.164C116.37 229.154 119.7 233.451 123.961 236.966C124.492 237.403 125.034 237.825 125.588 238.232H125.586ZM161.097 234.768C158.817 236.432 156.361 237.919 153.764 239.205C161.795 238.762 169.07 237.723 174.188 236.207C175.195 235.172 176.134 234.055 177.007 232.854C178.018 231.461 178.944 229.946 179.783 228.318C177.235 230.093 174.562 231.538 171.824 232.611C168.208 234.028 164.58 234.751 161.097 234.768ZM105.681 232.605C109.834 234.93 115.902 236.745 123.438 237.919C123.384 237.876 123.332 237.834 123.28 237.79C119.047 234.299 115.707 230.059 113.319 225.15C112.185 226.667 111.1 227.906 110.114 228.907C108.695 230.35 107.215 231.583 105.681 232.605ZM180.582 229.088C179.326 231.474 177.88 233.621 176.247 235.527C179.372 234.37 181.126 233.037 181.212 231.74C181.261 231.01 181.045 230.116 180.582 229.088ZM113.666 121.977C112.498 122.063 111.402 122.194 110.351 122.349C104.142 123.268 98.221 125.68 92.7493 129.518C86.387 133.98 80.4119 140.517 74.9941 148.948C68.1166 159.647 64.2022 172.211 63.6702 185.285C63.1904 197.077 65.5222 208.627 70.2363 217.808C72.9014 223 76.1659 227.154 79.9355 230.152C83.8498 233.264 88.111 234.962 92.6011 235.194C94.0574 235.27 95.4835 235.196 96.8758 234.977C92.0338 231.814 87.8702 227.961 84.5906 223.523C82.9306 221.277 81.5147 218.913 80.3429 216.447C76.7147 214.495 73.7331 211.667 71.4367 207.991C68.258 202.902 66.5829 196.401 66.5913 189.193C66.5946 186.161 66.9128 183.081 67.5072 180.103C67.1772 171.42 70.7565 161.369 77.6205 151.736C84.2017 142.499 92.7981 135.09 101.201 131.405C102.14 130.993 103.066 130.633 103.981 130.324C105.179 128.949 106.481 127.635 107.881 126.387C109.658 124.804 111.595 123.328 113.668 121.976L113.666 121.977ZM81.9204 217.222C82.9339 219.184 84.1108 221.075 85.4509 222.887C88.8636 227.504 93.2577 231.476 98.391 234.676C100.198 234.242 101.945 233.552 103.627 232.608C102.401 231.787 101.379 230.909 100.565 229.977C97.6688 226.661 95.1147 223.187 92.9985 219.697C91.2391 219.603 89.4781 219.389 87.7204 219.043C85.6479 218.632 83.7134 218.025 81.9204 217.224V217.222ZM148.427 228.151C150.352 230.744 152.65 232.337 155.394 233.027C157.117 233.459 158.91 233.683 160.746 233.698C163.829 231.414 166.58 228.794 168.917 225.897C170.153 224.366 171.257 222.778 172.23 221.139C165.167 225.327 157.073 227.707 148.426 228.15L148.427 228.151ZM173.887 220.399C172.72 222.537 171.34 224.6 169.75 226.57C167.661 229.159 165.25 231.533 162.571 233.649C165.467 233.466 168.452 232.785 171.435 231.617C174.227 230.524 176.953 229.03 179.54 227.184C178.528 225.584 177.076 223.762 175.219 221.778C174.791 221.322 174.348 220.863 173.888 220.399H173.887ZM94.2763 219.746C96.2596 222.936 98.6368 226.146 101.371 229.275C102.213 230.239 103.316 231.148 104.656 231.996C106.285 230.963 107.853 229.682 109.353 228.158C110.409 227.085 111.58 225.734 112.806 224.048C112.483 223.326 112.178 222.591 111.895 221.842C111.599 221.063 111.328 220.273 111.08 219.472C110.695 219.389 110.314 219.295 109.937 219.189C108.983 218.923 108.057 218.582 107.159 218.168C102.994 219.228 98.6553 219.842 94.2797 219.746H94.2763ZM118.022 219.808C122.995 223.227 129.362 225.491 137.067 226.566C140.254 227.012 143.397 227.204 146.473 227.15C145.097 224.864 143.932 222.016 142.946 218.568C142.821 218.131 142.698 217.687 142.58 217.236C141.159 217.041 139.74 216.793 138.323 216.494C136.484 216.107 134.735 215.622 133.082 215.044C129.778 216.649 126.406 218.008 123.074 218.878C121.31 219.339 119.63 219.648 118.022 219.807V219.808ZM143.727 217.384C143.808 217.685 143.89 217.981 143.974 218.276C145.013 221.905 146.246 224.834 147.712 227.115C156.952 226.752 165.558 224.142 172.936 219.457C171.486 218.047 169.902 216.612 168.211 215.177C166.659 215.648 165.1 216.055 163.536 216.4C156.997 217.841 150.355 218.17 143.727 217.384ZM174.626 219.628C175.101 220.106 175.557 220.58 175.998 221.05C177.515 222.67 179.17 224.618 180.401 226.555C180.522 226.464 180.641 226.373 180.761 226.28C182.209 223.03 183.345 219.374 184.153 215.345C184.483 213.698 184.761 211.985 184.987 210.203C183.364 212.178 181.576 214.036 179.636 215.75C178.042 217.16 176.37 218.452 174.626 219.63V219.628ZM186.248 208.602C185.992 211.036 185.643 213.356 185.202 215.555C184.525 218.923 183.63 222.026 182.517 224.855C183.973 223.609 185.371 222.248 186.696 220.782C192.762 214.073 196.947 205.624 198.816 196.32C197.09 198.107 193.645 201.416 188.783 204.895C187.997 206.167 187.15 207.404 186.249 208.602H186.248ZM112.269 219.692C112.463 220.289 112.671 220.88 112.894 221.465C113.094 221.994 113.304 222.515 113.525 223.03C114.166 222.093 114.818 221.063 115.473 219.934C114.372 219.931 113.306 219.85 112.269 219.692ZM111.915 218.551C112.909 218.728 113.937 218.829 115 218.854C114.129 218.122 113.309 217.349 112.54 216.534C112.185 216.659 111.828 216.782 111.469 216.901C111.607 217.456 111.755 218.006 111.915 218.551ZM119.85 213.508C119.025 215.449 118.18 217.206 117.33 218.792C119.067 218.662 120.891 218.346 122.803 217.847C125.751 217.078 128.74 215.912 131.689 214.527C129.202 213.543 126.943 212.33 124.921 210.893C123.32 211.783 121.625 212.665 119.85 213.506V213.508ZM93.6147 218.659C97.7075 218.821 101.778 218.334 105.711 217.426C103.033 215.893 100.64 213.659 98.5661 210.743C97.4381 209.158 96.433 207.498 95.5542 205.773C93.1466 205.334 90.7138 204.727 88.2608 203.955C88.0891 203.901 87.9191 203.845 87.7456 203.79C88.5167 208.374 90.5337 213.476 93.613 218.659H93.6147ZM169.413 214.8C170.903 216.082 172.309 217.36 173.609 218.622C174.639 216.551 175.471 214.411 176.101 212.215C173.894 213.206 171.663 214.068 169.413 214.8ZM81.1594 215.669C83.2067 216.731 85.4661 217.51 87.9292 217.996C89.3973 218.287 90.8687 218.481 92.3402 218.587C91.2728 216.745 90.33 214.902 89.5252 213.082C88.0251 209.687 87.0436 206.423 86.5991 203.396C83.4676 202.279 80.2015 200.725 77.2737 198.568C77.4084 204.65 78.7132 210.4 81.1594 215.669ZM113.643 216.135C114.461 216.973 115.338 217.766 116.271 218.511C116.985 217.192 117.695 215.754 118.394 214.182C116.86 214.874 115.272 215.532 113.643 216.137V216.135ZM108.834 217.717C109.452 217.946 110.085 218.139 110.733 218.299C110.634 217.944 110.542 217.589 110.452 217.231C109.917 217.399 109.378 217.562 108.834 217.717ZM177.374 211.628C176.804 213.809 176.043 215.937 175.092 218.003C176.417 217.056 177.697 216.038 178.929 214.948C181.256 212.89 183.357 210.626 185.216 208.193C185.248 207.878 185.278 207.56 185.307 207.242C184.573 207.71 183.812 208.174 183.03 208.634C181.168 209.727 179.281 210.725 177.375 211.628H177.374ZM96.8792 205.999C97.6418 207.422 98.4954 208.8 99.4382 210.124C101.698 213.299 104.294 215.602 107.257 217.044C108.25 216.785 109.233 216.499 110.205 216.191C109.961 215.094 109.757 213.982 109.595 212.853C109.533 212.762 109.472 212.67 109.412 212.577C108.211 210.75 107.2 208.765 106.378 206.62C103.263 206.712 100.095 206.505 96.8792 205.997V205.999ZM143.437 216.273C150.084 217.11 156.746 216.803 163.305 215.358C164.617 215.069 165.927 214.734 167.23 214.355C162.752 210.641 157.606 206.953 152.315 203.696C151.146 204.421 149.917 205.2 148.638 206.009C146.594 207.304 144.412 208.687 142.136 210.06C142.518 212.237 142.946 214.317 143.436 216.273H143.437ZM134.437 214.374C135.748 214.793 137.117 215.151 138.543 215.452C139.792 215.715 141.045 215.939 142.298 216.12C141.873 214.381 141.496 212.552 141.154 210.649C138.981 211.941 136.728 213.21 134.437 214.376V214.374ZM110.999 214.764C111.07 215.131 111.146 215.498 111.227 215.861C111.407 215.801 111.585 215.74 111.764 215.68C111.503 215.38 111.249 215.076 111.001 214.766L110.999 214.764ZM110.621 212.461C111.303 213.454 112.047 214.399 112.85 215.293C114.986 214.515 117.052 213.644 119.023 212.719C119.695 211.112 120.352 209.377 120.983 207.505C120.761 207.274 120.544 207.039 120.33 206.8C119.712 206.108 119.131 205.383 118.589 204.628C118.091 204.779 117.589 204.922 117.086 205.058C114.826 205.664 112.53 206.095 110.198 206.354C110.206 208.438 110.348 210.476 110.621 212.459V212.461ZM67.9584 184.121C67.7647 185.81 67.6637 187.511 67.6604 189.198C67.6519 196.206 69.2699 202.51 72.3424 207.429C74.2634 210.506 76.6878 212.959 79.5903 214.776C77.3579 209.492 76.2164 203.765 76.1911 197.731C72.2717 194.537 69.1116 190.147 67.9567 184.121H67.9584ZM153.335 203.07C158.719 206.414 163.938 210.193 168.454 213.985C171.149 213.141 173.821 212.103 176.458 210.88C177.432 206.934 177.766 202.819 177.444 198.616C175.813 199.952 174.091 201.021 172.308 201.786C167.521 203.844 163.171 203.918 159.376 202.008C158.674 201.655 157.999 201.241 157.349 200.77C156.127 201.406 154.781 202.188 153.335 203.07ZM125.955 210.313C128.054 211.748 130.411 212.942 133.018 213.891C135.731 212.554 138.4 211.051 140.959 209.522C140.491 206.761 140.09 203.856 139.727 200.846C137.777 202.424 135.765 203.945 133.73 205.371C131.573 206.884 128.943 208.603 125.953 210.314L125.955 210.313ZM121.827 208.346C121.382 209.638 120.926 210.864 120.46 212.029C121.673 211.431 122.85 210.816 123.978 210.197C123.226 209.613 122.507 208.995 121.827 208.346ZM107.506 206.576C108.031 207.902 108.632 209.164 109.309 210.36C109.198 209.079 109.137 207.779 109.129 206.462C108.59 206.509 108.048 206.547 107.506 206.576ZM178.444 197.753C178.853 202.042 178.599 206.246 177.697 210.287C179.308 209.5 180.906 208.642 182.487 207.713C183.505 207.116 184.482 206.509 185.416 205.901C185.812 200.642 185.797 194.871 185.371 188.613C183.433 192.267 181.074 195.366 178.444 197.753ZM122.204 207.222C123.071 208.082 124.002 208.884 124.997 209.628C128.13 207.856 130.879 206.063 133.115 204.495C135.381 202.905 137.543 201.256 139.577 199.592C139.467 198.664 139.363 197.726 139.259 196.779C138.072 196.263 136.913 195.793 135.785 195.373C131.903 198.494 127.807 200.982 123.534 202.819C123.108 204.362 122.662 205.829 122.204 207.224V207.222ZM140.707 200.04C141.074 203.125 141.473 206.103 141.942 208.926C144.08 207.631 146.134 206.329 148.065 205.106C149.18 204.399 150.258 203.716 151.293 203.071C151.008 202.9 150.722 202.73 150.438 202.56C147.771 200.982 145.178 199.579 142.686 198.361C142.037 198.926 141.377 199.486 140.708 200.04H140.707ZM186.441 206.505C186.441 206.505 186.441 206.51 186.441 206.512C186.443 206.509 186.446 206.504 186.45 206.5C186.448 206.5 186.445 206.504 186.441 206.505ZM119.663 204.288C120.123 204.91 120.613 205.513 121.128 206.088C121.205 206.176 121.285 206.263 121.364 206.349C121.675 205.38 121.98 204.377 122.278 203.337C121.413 203.681 120.542 203.997 119.663 204.288ZM96.2697 204.816C99.5628 205.385 102.807 205.632 105.991 205.563C104.05 199.961 103.341 193.337 103.866 185.726C103.336 185.243 102.824 184.736 102.332 184.205C102.031 183.878 101.736 183.544 101.45 183.2C99.0224 184.323 96.8825 185.404 95.1366 186.38C94.0659 186.979 93.1028 187.65 92.2526 188.396C92.256 188.514 92.2594 188.63 92.2644 188.747C92.4681 194.414 93.8386 199.873 96.2714 204.816H96.2697ZM104.88 186.597C104.457 193.867 105.201 200.188 107.11 205.524C107.787 205.493 108.462 205.447 109.134 205.387C109.164 203.346 109.316 201.261 109.59 199.14C109.607 198.743 109.791 195.194 111.217 190.379C108.902 189.412 106.78 188.148 104.88 186.597ZM112.225 190.778C110.809 195.622 110.658 199.15 110.656 199.205L110.653 199.254C110.388 201.302 110.238 203.31 110.205 205.279C112.441 205.025 114.643 204.608 116.81 204.027C117.193 203.924 117.574 203.817 117.956 203.704C115.584 200.085 114.057 195.835 113.488 191.212C113.062 191.076 112.643 190.931 112.227 190.776L112.225 190.778ZM186.303 186.739C186.834 193.413 186.913 199.562 186.541 205.154C187.034 204.82 187.516 204.486 187.982 204.153C192.753 196.362 195.279 187.23 195.122 177.761C195.051 173.456 193.78 170.559 191.236 168.9C190.962 168.722 190.672 168.558 190.371 168.41C190.425 174.465 188.977 181.005 186.302 186.737L186.303 186.739ZM87.5739 202.607C87.9056 202.72 88.2423 202.829 88.5824 202.937C90.729 203.613 92.8587 204.16 94.9683 204.576C92.7644 199.865 91.4883 194.72 91.2206 189.388C89.34 191.389 88.143 193.827 87.648 196.68C87.3315 198.502 87.313 200.494 87.5739 202.605V202.607ZM114.607 191.545C115.214 195.935 116.719 199.957 119.018 203.374C120.239 202.981 121.446 202.535 122.64 202.037C123.512 198.818 124.185 195.667 124.684 192.726C124.288 192.704 123.903 192.693 123.525 192.693C120.355 192.693 117.37 192.306 114.607 191.545ZM190.342 167.224C190.871 167.448 191.364 167.709 191.82 168.007C194.644 169.847 196.115 173.123 196.191 177.744C196.336 186.564 194.204 195.095 190.133 202.567C195.415 198.529 198.594 195.021 199.169 194.368C200.691 185.118 199.937 175.456 196.927 165.57C194.299 164.221 192.024 163.161 189.778 162.354C190.056 163.78 190.238 165.262 190.32 166.788C190.329 166.933 190.336 167.078 190.341 167.222L190.342 167.224ZM143.553 197.6C145.951 198.783 148.436 200.134 150.981 201.643C151.426 201.906 151.869 202.173 152.312 202.442C153.783 201.539 155.158 200.726 156.423 200.05C154.051 198.063 152.03 195.295 150.266 191.986C149.884 192.09 149.502 192.185 149.121 192.269C147.395 194.06 145.523 195.851 143.552 197.6H143.553ZM158.44 200.227C158.904 200.536 159.376 200.812 159.856 201.054C163.405 202.841 167.339 202.76 171.883 200.805C173.779 199.991 175.607 198.813 177.323 197.321C177.012 194.439 176.394 191.517 175.466 188.584C175.094 187.41 174.66 186.293 174.163 185.234C169.265 192.671 163.896 198.055 159.785 199.646C159.359 199.811 158.91 200.006 158.44 200.228V200.227ZM77.2619 197.234C79.7957 199.222 82.8666 200.886 86.4493 202.208C86.2422 200.176 86.2893 198.261 86.5958 196.498C87.1901 193.07 88.7255 190.199 91.1735 187.926C91.0691 181.508 92.3705 175.084 94.9615 169.228C94.2814 166.033 93.9379 162.571 93.943 158.871C92.82 158.814 91.7072 158.795 90.6044 158.817C84.6512 167.386 80.4388 177.031 78.4118 186.74C77.6643 190.322 77.2838 193.828 77.2636 197.234H77.2619ZM125.753 192.812C125.29 195.565 124.675 198.495 123.891 201.493C127.608 199.816 131.189 197.627 134.605 194.944C131.347 193.803 128.369 193.081 125.753 192.812ZM151.328 191.67C153.209 195.151 155.243 197.75 157.463 199.513C158.149 199.173 158.795 198.882 159.399 198.648C163.27 197.151 168.61 191.747 173.336 184.546C173.429 184.407 173.52 184.265 173.611 184.126C172.17 181.414 170.287 179.121 167.977 177.262C166.625 180.212 164.533 183.042 161.814 185.519C158.687 188.365 155.019 190.482 151.328 191.67ZM140.392 197.281C140.447 197.782 140.503 198.28 140.56 198.776C140.924 198.47 141.284 198.164 141.639 197.858C141.22 197.659 140.804 197.467 140.39 197.279L140.392 197.281ZM140.257 196.052C141.001 196.382 141.754 196.73 142.518 197.096C144.239 195.581 145.843 194.069 147.316 192.588C145.907 192.777 144.523 192.814 143.193 192.691C142.097 192.588 141.09 192.176 140.151 191.51C140.038 191.619 139.925 191.729 139.811 191.838C139.957 193.258 140.104 194.664 140.255 196.054L140.257 196.052ZM174.845 184.181C175.481 185.457 176.03 186.816 176.486 188.261C177.353 191 177.956 193.729 178.298 196.429C180.803 194.013 183.041 190.908 184.864 187.263C184.983 187.025 185.101 186.782 185.217 186.54C184.874 182.304 184.347 177.854 183.64 173.198C183.382 171.509 183.044 169.85 182.623 168.222C180.769 173.58 178.119 179.036 174.845 184.181ZM68.5813 180.187C68.5863 180.292 68.5914 180.396 68.5964 180.5C68.8709 185.581 70.5545 190.019 73.5984 193.689C74.3779 194.629 75.2483 195.519 76.2046 196.355C76.2804 193.154 76.6642 189.868 77.3646 186.52C79.3681 176.918 83.4777 167.382 89.2744 158.861C87.2759 158.96 85.3246 159.194 83.439 159.562C79.124 160.405 75.1153 164.028 72.1522 169.761C70.5578 172.849 69.3423 176.429 68.5796 180.186L68.5813 180.187ZM136.735 194.592C137.519 194.893 138.317 195.216 139.127 195.561C139.028 194.632 138.929 193.695 138.831 192.753C138.139 193.387 137.44 194 136.733 194.592H136.735ZM125.925 191.757C128.773 192.06 132.024 192.874 135.58 194.161C136.578 193.342 137.562 192.481 138.53 191.577C138.585 191.527 138.639 191.475 138.695 191.422C138.649 190.975 138.602 190.524 138.557 190.073C137.132 188.514 135.864 186.358 134.669 183.867C131.925 184.649 129.706 184.975 128.209 184.612C127.766 184.504 127.287 184.375 126.776 184.222C126.633 186.456 126.356 189.006 125.925 191.756V191.757ZM140.922 190.748C141.668 191.242 142.456 191.547 143.293 191.626C144.981 191.784 146.766 191.665 148.577 191.295C148.874 190.985 149.165 190.675 149.448 190.369C148.497 188.406 147.623 186.283 146.81 184.043C144.944 186.444 142.976 188.688 140.922 190.748ZM114.471 190.393C117.259 191.207 120.293 191.623 123.527 191.623C123.958 191.623 124.403 191.638 124.859 191.665C125.31 188.808 125.593 186.172 125.728 183.889C123.238 183.057 120.194 181.752 117.108 179.933C116.645 180.655 116.203 181.397 115.784 182.159C115.254 183.123 114.777 184.082 114.35 185.028C114.254 186.838 114.294 188.631 114.473 190.391L114.471 190.393ZM150.739 190.541C150.768 190.598 150.796 190.655 150.825 190.711C154.426 189.582 158.026 187.519 161.093 184.726C163.773 182.285 165.819 179.492 167.105 176.594C165.514 175.439 163.738 174.472 161.78 173.696C161.548 173.604 161.315 173.516 161.08 173.431C160.516 173.653 159.952 173.876 159.391 174.104C159.187 175.911 158.889 177.522 158.543 178.863C157.827 181.626 154.987 185.875 150.739 190.543V190.541ZM139.584 189.621C139.743 189.784 139.907 189.94 140.07 190.087C142.281 187.878 144.395 185.45 146.384 182.842C146.052 181.885 145.729 180.906 145.416 179.913C143.084 180.874 140.873 181.754 138.839 182.492C139.085 184.762 139.318 187.031 139.547 189.282C139.558 189.395 139.57 189.508 139.582 189.621H139.584ZM112.54 189.75C112.813 189.853 113.087 189.95 113.365 190.045C113.298 189.277 113.255 188.505 113.239 187.728C112.981 188.419 112.749 189.094 112.54 189.75ZM147.586 183.027C148.005 184.208 148.443 185.362 148.902 186.483C149.338 187.546 149.781 188.554 150.236 189.508C154.259 185.038 156.862 181.091 157.509 178.594C157.808 177.438 158.069 176.077 158.263 174.56C155.955 175.498 153.674 176.456 151.468 177.383C150.237 179.338 148.941 181.224 147.586 183.027ZM104.971 185.273C106.91 186.962 109.11 188.327 111.535 189.35C112.001 187.901 112.579 186.357 113.294 184.762C113.424 182.551 113.749 180.322 114.261 178.109C114.225 178.086 114.192 178.061 114.156 178.037C111.055 179.141 108.083 180.308 105.353 181.471C105.193 182.765 105.065 184.033 104.971 185.273ZM135.703 183.559C136.55 185.314 137.425 186.882 138.361 188.16C138.181 186.4 137.998 184.632 137.807 182.862C137.08 183.116 136.378 183.348 135.703 183.559ZM95.3791 170.993C93.3638 176.035 92.2728 181.592 92.2392 187.018C92.9665 186.451 93.7578 185.926 94.6164 185.446C96.3236 184.493 98.4062 183.436 100.763 182.341C98.3169 179.158 96.5138 175.345 95.3791 170.993ZM183.483 167.298C183.993 169.171 184.399 171.085 184.695 173.037C185.3 177.011 185.773 180.838 186.113 184.511C188.283 179.222 189.416 173.378 189.297 167.966C187.635 167.396 185.67 167.199 183.483 167.298ZM102.46 182.738C102.674 182.988 102.895 183.236 103.119 183.478C103.396 183.779 103.683 184.072 103.974 184.356C104.043 183.567 104.124 182.768 104.218 181.959C103.619 182.22 103.031 182.48 102.46 182.738ZM126.837 183.125C127.42 183.303 127.963 183.453 128.462 183.574C129.74 183.885 131.735 183.584 134.21 182.886C133.08 180.416 132.006 177.667 130.913 174.871C130.716 174.364 130.517 173.858 130.317 173.35C128.753 173.69 127.239 174.055 125.802 174.43C126.379 175.818 126.723 177.245 126.822 178.692C126.906 179.908 126.913 181.407 126.835 183.125H126.837ZM168.413 176.237C170.792 178.098 172.747 180.387 174.267 183.091C177.438 178.024 179.992 172.67 181.763 167.428C178.145 167.81 174.027 168.868 169.728 170.276C169.642 172.26 169.193 174.268 168.413 176.235V176.237ZM117.692 179.048C120.574 180.741 123.419 181.974 125.783 182.782C125.845 181.234 125.834 179.878 125.758 178.764C125.664 177.389 125.327 176.032 124.759 174.706C123.135 175.145 121.51 175.618 119.902 176.119C119.123 177.053 118.385 178.029 117.692 179.048ZM131.378 173.124C131.556 173.579 131.733 174.031 131.908 174.482C133.016 177.32 134.105 180.106 135.242 182.581C136.018 182.342 136.836 182.07 137.686 181.769C137.336 178.565 136.955 175.362 136.514 172.199C134.762 172.465 133.043 172.78 131.378 173.124ZM115.21 178.754C114.968 179.851 114.772 180.953 114.626 182.053C114.698 181.918 114.772 181.782 114.846 181.648C115.274 180.872 115.722 180.118 116.192 179.383C115.865 179.179 115.537 178.971 115.21 178.755V178.754ZM96.0794 169.342C97.1654 174.228 99.0678 178.448 101.76 181.883C102.6 181.501 103.472 181.116 104.371 180.729C104.795 177.489 105.422 174.09 106.248 170.533C105.208 169.149 104.282 167.658 103.513 166.058C102.645 164.255 102.019 162.401 101.635 160.498C99.6756 162.757 97.9011 165.493 96.4212 168.607C96.305 168.851 96.1922 169.095 96.0811 169.342H96.0794ZM146.407 179.506C146.651 180.28 146.902 181.049 147.161 181.809C148.044 180.613 148.899 179.381 149.727 178.116C148.599 178.591 147.491 179.055 146.407 179.506ZM137.572 172.046C138.003 175.14 138.376 178.269 138.72 181.399C140.708 180.67 142.86 179.812 145.097 178.89C144.363 176.488 143.678 173.998 143.027 171.469C141.195 171.595 139.37 171.794 137.572 172.044V172.046ZM107.097 171.612C106.423 174.605 105.895 177.484 105.513 180.244C107.897 179.242 110.452 178.239 113.109 177.28C110.954 175.665 108.888 173.781 107.097 171.614V171.612ZM115.469 177.654C115.904 177.945 116.338 178.226 116.774 178.496C117.188 177.884 117.619 177.287 118.064 176.705C117.198 176.986 116.34 177.275 115.49 177.569C115.483 177.598 115.476 177.627 115.468 177.654H115.469ZM144.111 171.402C144.719 173.757 145.373 176.141 146.089 178.48C147.503 177.892 148.946 177.285 150.404 176.671C150.517 176.624 150.628 176.577 150.742 176.53C151.726 174.953 152.663 173.333 153.556 171.674C150.488 171.291 147.301 171.233 144.112 171.403L144.111 171.402ZM107.403 170.288C109.402 172.855 111.806 175.034 114.314 176.848C114.41 176.814 114.505 176.78 114.601 176.747C115.357 173.927 116.417 171.149 117.769 168.489C118.002 168.032 118.241 167.583 118.486 167.138C118.486 167.138 118.483 167.137 118.481 167.135C116.015 165.244 113.001 163.587 109.663 162.263C109.291 163.281 108.954 164.334 108.654 165.421C108.196 167.074 107.78 168.698 107.403 170.288ZM119.335 167.815C119.126 168.195 118.922 168.582 118.724 168.972C117.517 171.346 116.549 173.816 115.828 176.323C116.968 175.934 118.123 175.556 119.284 175.192C120.404 173.875 121.606 172.645 122.891 171.504C121.933 170.222 120.744 168.987 119.335 167.816V167.815ZM154.682 171.829C153.961 173.185 153.209 174.516 152.428 175.82C154.376 175.002 156.377 174.168 158.398 173.35C158.421 173.108 158.443 172.86 158.463 172.611C157.234 172.285 155.97 172.027 154.682 171.831V171.829ZM162.553 172.855C164.364 173.602 166.021 174.509 167.525 175.574C168.144 173.94 168.523 172.28 168.637 170.639C166.632 171.319 164.592 172.068 162.553 172.855ZM102.619 131.971C102.292 132.102 101.962 132.242 101.63 132.386C93.5187 135.941 84.8684 143.406 78.4909 152.357C73.0462 159.997 69.7093 167.885 68.8052 175.093C69.4702 173.029 70.2733 171.069 71.2026 169.27C74.319 163.24 78.5919 159.419 83.2336 158.513C85.4273 158.084 87.712 157.838 90.032 157.766C91.3957 155.831 92.8251 153.98 94.31 152.224C94.8976 147.234 96.3253 142.538 98.5611 138.243C99.7042 136.047 101.06 133.953 102.619 131.971ZM123.509 172.386C122.726 173.086 121.975 173.821 121.254 174.59C122.264 174.289 123.28 173.999 124.295 173.725C124.059 173.274 123.798 172.827 123.509 172.386ZM124.323 171.679C124.709 172.26 125.052 172.847 125.352 173.444C126.901 173.039 128.425 172.67 129.921 172.34C129.437 171.114 128.943 169.891 128.435 168.69C127.92 169.013 127.413 169.346 126.918 169.691C126.021 170.316 125.155 170.979 124.323 171.679ZM159.591 171.815C160.091 171.964 160.581 172.12 161.061 172.288C163.614 171.287 166.174 170.333 168.676 169.494C168.661 166.445 167.806 163.432 166.274 160.737C164.193 160.892 161.927 161.083 159.437 161.31C159.361 161.509 159.287 161.708 159.209 161.906C159.701 165.431 159.777 168.821 159.591 171.817V171.815ZM129.359 168.131C129.915 169.44 130.452 170.774 130.98 172.113C132.817 171.728 134.614 171.4 136.363 171.132C136.077 169.154 135.765 167.194 135.42 165.261C133.275 166.067 131.253 167.024 129.357 168.133L129.359 168.131ZM155.207 170.828C156.361 171.016 157.47 171.249 158.539 171.526C158.672 169.206 158.645 166.65 158.381 163.979C157.415 166.316 156.354 168.604 155.207 170.828ZM136.442 164.892C136.802 166.896 137.125 168.928 137.422 170.978C139.254 170.72 141.033 170.528 142.757 170.404C142.249 168.393 141.759 166.359 141.281 164.329C141.22 164.07 141.163 163.811 141.111 163.548C139.499 163.923 137.942 164.372 136.444 164.892H136.442ZM119.87 166.874C121.387 168.118 122.668 169.435 123.702 170.808C124.537 170.108 125.406 169.443 126.307 168.817C126.862 168.43 127.43 168.057 128.011 167.699C126.908 165.158 125.733 162.744 124.43 160.646C122.749 162.486 121.217 164.576 119.872 166.876L119.87 166.874ZM147.382 170.232C149.744 170.232 151.983 170.375 154.091 170.661C155.581 167.798 156.93 164.827 158.113 161.778C158.096 161.664 158.08 161.553 158.063 161.438C155.051 161.719 151.726 162.046 148.034 162.414C146.003 162.618 144.042 162.917 142.154 163.316C142.207 163.573 142.262 163.829 142.323 164.083C142.798 166.1 143.301 168.202 143.84 170.333C143.996 170.325 144.153 170.316 144.309 170.308C145.355 170.256 146.38 170.231 147.384 170.231L147.382 170.232ZM102.647 160.092C103.011 161.978 103.62 163.814 104.477 165.597C105.083 166.857 105.79 168.047 106.575 169.169C106.898 167.847 107.248 166.504 107.626 165.14C107.935 164.019 108.282 162.932 108.666 161.882C106.745 161.171 104.725 160.569 102.647 160.092ZM167.445 160.654C168.858 163.289 169.666 166.196 169.74 169.144C171.047 168.72 172.333 168.328 173.591 167.981C176.781 167.1 179.608 166.546 182.091 166.322C181.48 164.297 180.737 162.32 179.867 160.395C176.52 160.193 172.57 160.299 167.447 160.656L167.445 160.654ZM95.0104 158.937C95.0104 161.994 95.2511 164.881 95.7293 167.583C97.2108 164.581 98.9668 161.935 100.9 159.724C98.9298 159.344 96.96 159.081 95.0104 158.937ZM125.185 159.842C126.561 162.014 127.787 164.512 128.933 167.143C130.901 166.001 133.001 165.019 135.226 164.192C134.868 162.268 134.476 160.373 134.039 158.518C133.684 157.007 133.307 155.553 132.908 154.159C130.139 155.509 127.531 157.438 125.185 159.842ZM184.519 166.206C186.31 166.206 187.884 166.415 189.253 166.831C189.16 165.145 188.942 163.514 188.606 161.957C187.319 161.544 186.02 161.215 184.652 160.961C184.288 162.693 183.827 164.457 183.273 166.237C183.699 166.215 184.113 166.205 184.519 166.205V166.206ZM110.05 161.253C113.373 162.571 116.429 164.236 119.023 166.206C120.439 163.807 122.056 161.63 123.83 159.719C120.993 155.501 117.907 153.438 114.419 153.432C112.665 155.737 111.207 158.346 110.05 161.253ZM181.076 160.484C181.663 161.824 182.189 163.186 182.655 164.574C183.019 163.297 183.333 162.032 183.598 160.784C182.79 160.659 181.953 160.56 181.077 160.484H181.076ZM189.516 161.137C191.751 161.896 193.981 162.894 196.477 164.149C196.211 163.334 195.932 162.52 195.635 161.702C188.332 141.532 178.256 127.497 165.686 119.984C153.682 112.81 142.018 113.171 134.346 114.741C128.379 115.961 122.675 118.061 117.608 120.858C121.902 120.969 126.059 121.684 130.081 122.726C135.277 121.287 140.639 120.754 145.547 121.244C152.332 121.92 157.574 124.417 160.696 128.32C166.629 126.918 172.693 128.757 178.222 133.742C183.179 138.211 185.687 144.57 185.63 152.379C185.79 152.601 185.945 152.824 186.096 153.055C187.647 155.392 188.798 158.129 189.514 161.139L189.516 161.137ZM133.89 153.704C134.311 155.165 134.708 156.689 135.082 158.274C135.509 160.092 135.895 161.948 136.247 163.831C137.75 163.316 139.307 162.87 140.919 162.497C140.343 158.896 140.489 155.047 141.331 151.201C138.91 151.739 136.42 152.574 133.89 153.704ZM142.481 150.967C141.579 154.815 141.397 158.671 141.964 162.266C143.88 161.864 145.868 161.559 147.926 161.354C151.603 160.987 154.904 160.664 157.888 160.387C157.59 158.708 157.191 157.007 156.674 155.311C156.322 154.159 155.896 152.949 155.377 151.716C151.493 150.355 147.126 150.106 142.481 150.965V150.967ZM102.972 159.061C105.056 159.541 107.095 160.146 109.052 160.87C110.121 158.174 111.444 155.727 113.015 153.529C109.557 153.989 106.078 155.945 102.972 159.061ZM184.862 159.914C186.052 160.136 187.194 160.415 188.32 160.754C187.691 158.353 186.768 156.149 185.574 154.214C185.475 155.979 185.249 157.813 184.901 159.71C184.889 159.779 184.876 159.847 184.862 159.916V159.914ZM161.501 155.124C161.014 156.8 160.462 158.499 159.846 160.207C161.938 160.018 163.868 159.857 165.654 159.721C164.538 158.01 163.137 156.45 161.502 155.124H161.501ZM156.748 152.251C157.113 153.189 157.426 154.111 157.697 155C158.184 156.595 158.568 158.195 158.862 159.778C159.512 157.978 160.088 156.188 160.59 154.429C160.287 154.211 159.975 154 159.659 153.797C158.728 153.201 157.756 152.686 156.748 152.251ZM180.574 159.374C181.285 159.426 181.968 159.492 182.633 159.573C183.03 159.621 183.421 159.675 183.807 159.734C183.82 159.662 183.833 159.588 183.847 159.515C184.232 157.426 184.514 155.112 184.552 152.71C181.939 149.205 178.348 146.736 173.863 145.364C172.616 144.983 171.255 144.589 169.801 144.199C174.412 148.82 178.008 153.891 180.574 159.374ZM161.814 154.01C163.849 155.59 165.556 157.508 166.858 159.631C172.06 159.26 176.013 159.138 179.352 159.3C176.608 153.617 172.72 148.388 167.71 143.657C166.491 143.352 165.216 143.055 163.9 142.774C163.614 146.199 162.906 150.023 161.814 154.01ZM115.242 152.397C118.714 152.688 121.785 154.838 124.584 158.93C127.019 156.47 129.728 154.498 132.602 153.12C131.482 149.399 130.196 146.106 128.728 143.214C126.999 143.828 125.322 144.569 123.717 145.45C120.421 147.259 117.591 149.581 115.24 152.397H115.242ZM95.0205 157.872C97.1384 158.021 99.2598 158.306 101.346 158.714C100.794 154.174 101.573 149.379 103.684 144.375C100.762 146.81 97.9617 149.591 95.3353 152.67C95.2848 153.122 95.2427 153.578 95.2073 154.034C95.1046 155.34 95.0424 156.618 95.0205 157.87V157.872ZM105.531 142.896C105.439 143.085 105.346 143.277 105.257 143.47C102.854 148.617 101.89 153.534 102.363 158.169C105.858 154.719 109.814 152.648 113.73 152.387C113.781 152.384 113.83 152.38 113.88 152.379C116.416 149.16 119.529 146.532 123.206 144.515C124.818 143.63 126.5 142.883 128.231 142.26C126.593 139.215 124.743 136.643 122.663 134.511C122.604 134.451 122.546 134.392 122.487 134.331C118.899 135.196 115.214 136.713 111.498 138.875C109.471 140.053 107.479 141.399 105.533 142.896H105.531ZM91.5219 157.747C92.3301 157.747 93.1399 157.767 93.9514 157.808C93.9733 156.603 94.0322 155.375 94.1282 154.123C93.1803 155.292 92.256 156.502 91.3603 157.747C91.4142 157.747 91.4681 157.747 91.5219 157.747ZM156.177 150.869C157.595 151.401 158.948 152.077 160.233 152.897C160.455 153.04 160.676 153.184 160.891 153.336C161.923 149.498 162.588 145.831 162.853 142.557C158.652 141.699 154.044 141.014 149.332 140.753C152.515 143.877 154.69 147.452 156.179 150.869H156.177ZM129.75 142.868C131.198 145.746 132.472 149.007 133.583 152.671C136.311 151.463 138.996 150.588 141.604 150.048C142.038 148.351 142.607 146.658 143.309 144.993C143.949 143.477 144.688 142.02 145.513 140.64C145.459 140.64 145.405 140.64 145.352 140.64C140.04 140.64 134.699 141.263 129.75 142.866V142.868ZM168.24 142.691C170.409 143.238 172.404 143.803 174.173 144.345C178.404 145.639 181.879 147.865 184.536 150.979C184.337 145.208 182.599 139.126 177.507 134.533C172.41 129.938 166.844 128.157 161.395 129.267C162.356 130.69 163.058 132.277 163.477 134.01C163.832 135.479 164.018 137.186 164.041 139.076C165.061 139.883 166.07 140.729 167.063 141.613C167.462 141.968 167.854 142.328 168.242 142.688L168.24 142.691ZM104.597 131.251C102.593 133.581 100.891 136.084 99.5089 138.739C97.5728 142.456 96.2613 146.483 95.5912 150.75C98.4516 147.54 101.502 144.67 104.683 142.2C106.477 138.63 109.54 134.232 114.713 130.263C114.192 130.171 113.658 130.103 113.114 130.061C110.476 129.859 107.62 130.26 104.597 131.251ZM147.747 149.396C150.21 149.396 152.571 149.73 154.791 150.4C153.224 147.06 150.958 143.622 147.685 140.679C147.375 140.669 147.067 140.66 146.756 140.654C145.826 142.146 144.998 143.739 144.296 145.407C143.681 146.864 143.171 148.344 142.767 149.828C144.466 149.539 146.129 149.394 147.747 149.394V149.396ZM163.975 141.7C164.688 141.852 165.386 142.008 166.072 142.166C165.398 141.572 164.716 140.997 164.029 140.438C164.018 140.851 164.001 141.271 163.975 141.699V141.7ZM123.711 134.06C125.778 136.241 127.62 138.845 129.251 141.907C134.619 140.144 140.427 139.515 146.17 139.582C146.193 139.545 146.219 139.508 146.242 139.471C143.729 137.503 140.691 135.825 137.023 134.646C132.866 133.31 128.379 133.123 123.711 134.06ZM148.119 139.632C153.28 139.829 158.339 140.554 162.923 141.483C162.959 140.839 162.977 140.213 162.979 139.604C159.788 137.112 156.497 134.987 153.301 133.187C151.236 134.822 149.327 136.888 147.678 139.256C147.828 139.38 147.975 139.506 148.119 139.634V139.632ZM116.089 130.576C112.712 133.042 109.324 136.337 106.737 140.676C108.124 139.691 109.531 138.781 110.957 137.953C114.527 135.877 118.074 134.38 121.542 133.468C119.924 132.1 118.101 131.133 116.091 130.578L116.089 130.576ZM129.415 132.408C132.154 132.408 134.809 132.814 137.349 133.63C141.124 134.843 144.252 136.564 146.845 138.581C148.451 136.286 150.296 134.266 152.293 132.627C147.862 130.206 143.661 128.411 140.223 127.13C136.4 125.705 133.031 124.635 130.033 123.846C127.504 124.566 125.019 125.507 122.652 126.651C120.961 127.469 119.094 128.503 117.195 129.795C119.268 130.494 121.143 131.617 122.805 133.159C125.049 132.657 127.258 132.407 129.415 132.407V132.408ZM154.233 132.487C157.115 134.133 160.068 136.039 162.954 138.236C162.893 136.772 162.721 135.44 162.437 134.266C162.016 132.526 161.285 130.944 160.272 129.541C158.756 129.962 157.255 130.608 155.776 131.481C155.254 131.789 154.739 132.126 154.231 132.487H154.233ZM132.159 123.298C135.043 124.131 137.856 125.11 140.597 126.131C144.176 127.465 148.577 129.351 153.207 131.912C153.869 131.419 154.544 130.966 155.233 130.561C156.655 129.72 158.1 129.077 159.554 128.629C156.574 125.157 151.702 122.933 145.439 122.307C141.222 121.886 136.656 122.241 132.159 123.296V123.298ZM115.828 121.886C113.202 123.471 110.771 125.248 108.589 127.193C107.669 128.012 106.796 128.86 105.964 129.735C108.498 129.072 110.915 128.825 113.192 128.998C114.112 129.069 115.003 129.207 115.862 129.413C117.712 128.098 119.808 126.841 122.184 125.692C124.066 124.782 126.022 123.998 128.017 123.347C123.035 122.181 119.13 121.827 115.826 121.885L115.828 121.886Z" fill="#2B478B"/>
<path d="M108.355 79.7048C111.345 68.0911 116.399 57.9932 130.081 57.9932C142.08 57.9932 152.965 68.5571 152.174 81.574C151.446 93.5427 141.045 103.681 128.312 102.256C116.387 100.922 104.93 93.001 108.353 79.7048H108.355Z" fill="#AFCDFB"/>
<g opacity="0.8">
<path d="M126.8 87.4695C126.8 86.5206 126.857 85.6946 126.97 84.9913C127.083 84.2898 127.271 83.6471 127.532 83.065C127.793 82.4828 128.132 81.931 128.546 81.4095C128.96 80.8879 129.47 80.3327 130.071 79.7439C130.526 79.3031 130.952 78.8841 131.346 78.4905C131.739 78.0968 132.088 77.6913 132.389 77.2774C132.691 76.8636 132.928 76.4211 133.102 75.9534C133.275 75.4857 133.362 74.9641 133.362 74.3887C133.362 73.1319 133.051 72.1713 132.43 71.5101C131.807 70.8472 130.894 70.5175 129.689 70.5175C129.207 70.5175 128.738 70.5848 128.283 70.7177C127.828 70.8523 127.419 71.0659 127.057 71.3604C126.695 71.6548 126.406 72.03 126.184 72.4842C125.963 72.9385 125.852 73.4869 125.852 74.1296H120.973C120.986 72.8729 121.217 71.7658 121.665 70.8085C122.113 69.8529 122.729 69.0504 123.512 68.401C124.295 67.7516 125.212 67.2637 126.263 66.9356C127.313 66.6075 128.455 66.4443 129.686 66.4443C131.037 66.4443 132.241 66.6176 133.3 66.9659C134.357 67.3141 135.255 67.8222 135.991 68.4902C136.726 69.1598 137.285 69.9757 137.667 70.9381C138.05 71.9021 138.24 72.9923 138.24 74.2087C138.24 75.092 138.1 75.9147 137.819 76.6768C137.538 77.439 137.162 78.1557 136.694 78.8236C136.225 79.4932 135.691 80.1342 135.088 80.7499C134.485 81.3657 133.863 81.9748 133.221 82.5754C132.485 83.245 131.992 83.9768 131.745 84.7726C131.497 85.5684 131.366 86.4685 131.352 87.4712H126.795L126.8 87.4695ZM126.458 93.7096C126.458 93.3345 126.519 92.9879 126.638 92.6665C126.758 92.3452 126.936 92.0642 127.17 91.8236C127.404 91.583 127.692 91.3963 128.034 91.2617C128.376 91.1288 128.766 91.0615 129.209 91.0615C129.652 91.0615 130.042 91.1288 130.384 91.2617C130.726 91.3963 131.014 91.583 131.248 91.8236C131.482 92.0642 131.662 92.3452 131.79 92.6665C131.916 92.9879 131.98 93.3361 131.98 93.7096C131.98 94.4448 131.739 95.0606 131.258 95.5552C130.776 96.0499 130.093 96.2972 129.209 96.2972C128.325 96.2972 127.647 96.0499 127.172 95.5552C126.697 95.0606 126.46 94.4448 126.46 93.7096H126.458Z" fill="white"/>
</g>
<path d="M189.627 52.5735L170.131 58.1743L182.079 47.3496L183.152 50.1374L188.11 50.341L189.627 52.5735Z" fill="#EABE96"/>
<path d="M170.131 58.1748L185.495 47.3468L201.605 44.2764L170.131 58.1748Z" fill="#F9DDBF"/>
<path d="M182.079 47.35L170.131 58.1747L178.394 42.7031L182.079 47.35Z" fill="#F9DDBF"/>
<path d="M360.811 132.801L381.131 135.693L367.645 126.512L366.96 129.456L362.019 130.351L360.811 132.801Z" fill="#EDCBAB"/>
<path d="M381.131 135.693L364.221 126.985L347.647 126.155L381.131 135.693Z" fill="#F9DDBF"/>
<path d="M367.645 126.512L381.131 135.693L370.689 121.342L367.645 126.512Z" fill="#F9DDBF"/>
<path d="M350.068 233.771C330.988 233.771 312.086 225.364 299.503 211.281C288.728 199.221 283.738 184.266 285.453 169.17C287.798 148.523 294.782 132.525 306.207 121.619C317.044 111.274 331.797 105.557 350.056 104.627C371.416 103.538 387.853 109.619 398.909 122.7C403.744 128.421 407.549 135.515 410.216 143.782C412.644 151.309 414.147 159.856 414.688 169.185C415.257 179.039 414.385 187.996 412.092 195.806C409.751 203.779 405.909 210.633 400.673 216.178C389.646 227.852 372.621 233.771 350.071 233.771H350.068ZM354.836 105.017C353.278 105.017 351.696 105.058 350.081 105.14C331.949 106.064 317.307 111.734 306.562 121.99C295.226 132.811 288.295 148.703 285.965 169.227C284.266 184.175 289.211 198.987 299.887 210.936C312.374 224.912 331.132 233.255 350.068 233.255C372.47 233.255 389.37 227.39 400.295 215.821C405.475 210.337 409.277 203.553 411.593 195.658C413.868 187.905 414.735 179.007 414.169 169.21C413.632 159.925 412.137 151.42 409.723 143.935C407.078 135.733 403.305 128.697 398.513 123.028C388.402 111.062 373.722 105.014 354.836 105.014V105.017Z" fill="#2B478B"/>
<path d="M350.068 234.126C330.888 234.126 311.886 225.673 299.237 211.516C288.477 199.473 283.45 184.56 285.059 169.482L285.14 168.774C287.534 148.213 294.54 132.264 305.961 121.36C316.862 110.954 331.691 105.205 350.038 104.27C371.517 103.176 388.05 109.299 399.18 122.469C404.046 128.226 407.872 135.359 410.553 143.67C412.989 151.225 414.499 159.802 415.041 169.162C415.614 179.058 414.735 188.056 412.432 195.905C410.076 203.933 406.206 210.836 400.929 216.42C389.833 228.168 372.721 234.126 350.068 234.126ZM354.836 105.372C353.294 105.372 351.699 105.414 350.1 105.495C332.057 106.413 317.49 112.049 306.81 122.247C295.536 133.009 288.642 148.829 286.32 169.267C284.633 184.112 289.546 198.827 300.154 210.698C312.574 224.598 331.235 232.898 350.07 232.898C372.37 232.898 389.181 227.07 400.039 215.577C405.18 210.134 408.955 203.398 411.255 195.558C413.519 187.844 414.381 178.986 413.817 169.231C413.282 159.975 411.792 151.502 409.386 144.046C406.755 135.888 403.005 128.894 398.244 123.259C388.213 111.39 373.61 105.372 354.837 105.372H354.836Z" fill="#2B478B"/>
<path d="M352.365 236.633C341.651 236.633 329.859 233.593 317.106 227.523C299.881 219.325 286.432 203.611 281.132 185.488C276.593 169.971 278.525 154.324 286.569 141.432C297.571 123.8 310.759 112.356 325.768 107.42C340.003 102.738 355.783 103.916 372.668 110.923C392.421 119.12 404.644 131.672 408.996 148.232C410.901 155.477 411.283 163.514 410.131 172.124C409.084 179.963 406.764 188.324 403.237 196.98C399.511 206.123 394.868 213.833 389.438 219.9C383.894 226.093 377.476 230.63 370.363 233.385C364.767 235.552 358.758 236.635 352.367 236.635L352.365 236.633ZM286.788 141.568L287.006 141.704C279.041 154.471 277.13 169.967 281.627 185.343C286.887 203.326 300.233 218.921 317.328 227.057C337.553 236.684 355.334 238.651 370.176 232.902C377.214 230.176 383.566 225.686 389.054 219.553C394.445 213.532 399.056 205.87 402.76 196.784C406.272 188.17 408.581 179.848 409.621 172.054C410.763 163.512 410.384 155.539 408.498 148.36C404.19 131.963 392.068 119.527 372.471 111.396C355.704 104.437 340.045 103.265 325.93 107.906C311.038 112.804 297.943 124.174 287.006 141.701L286.788 141.565V141.568Z" fill="#2B478B"/>
<path d="M352.365 236.99C341.617 236.99 329.702 233.913 316.953 227.844C299.637 219.602 286.119 203.806 280.791 185.589C276.223 169.972 278.168 154.223 286.267 141.245C297.315 123.541 310.568 112.047 325.657 107.083C339.976 102.374 355.839 103.555 372.804 110.595C392.666 118.837 404.959 131.468 409.34 148.143C411.256 155.433 411.64 163.517 410.483 172.173C409.432 180.04 407.104 188.432 403.565 197.115C399.822 206.294 395.159 214.04 389.702 220.137C384.121 226.372 377.656 230.942 370.489 233.718C364.879 235.89 358.782 236.992 352.364 236.992L352.365 236.99ZM287.308 141.894C279.397 154.573 277.501 169.969 281.969 185.245C287.2 203.133 300.475 218.645 317.481 226.737C337.615 236.32 355.3 238.284 370.048 232.572C377.033 229.866 383.338 225.408 388.79 219.318C394.154 213.327 398.743 205.7 402.432 196.65C405.932 188.063 408.232 179.772 409.269 172.008C410.404 163.512 410.03 155.588 408.155 148.453C403.877 132.17 391.824 119.813 372.336 111.727C355.65 104.802 340.075 103.633 326.044 108.248C311.235 113.118 298.202 124.439 287.311 141.893L287.308 141.894Z" fill="#2B478B"/>
<path d="M355.99 240.598C340.442 240.598 324.471 233.131 308.459 218.365C293.944 204.978 285.471 185.319 285.793 165.777C286.069 149.042 292.779 134.165 304.691 123.884C320.981 109.824 337.534 102.55 353.889 102.271C369.395 102.005 384.641 108.007 399.184 120.11C416.2 134.269 424.432 150.427 423.65 168.135C423.309 175.88 421.219 183.946 417.44 192.106C413.998 199.535 409.138 207.093 402.993 214.568C396.502 222.465 389.544 228.665 382.313 232.999C374.93 237.423 367.193 239.942 359.313 240.485C358.207 240.561 357.098 240.6 355.987 240.6L355.99 240.598ZM354.877 102.794C354.551 102.794 354.226 102.798 353.899 102.803C337.673 103.08 321.234 110.31 305.041 124.286C293.246 134.466 286.601 149.204 286.328 165.784C286.008 185.177 294.418 204.687 308.822 217.971C325.865 233.688 342.839 241.084 359.281 239.95C367.077 239.412 374.735 236.919 382.044 232.539C389.223 228.237 396.134 222.076 402.585 214.228C408.702 206.786 413.539 199.268 416.96 191.88C420.711 183.783 422.783 175.786 423.122 168.109C423.895 150.577 415.727 134.565 398.846 120.517C384.711 108.754 369.922 102.793 354.877 102.793V102.794Z" fill="#2B478B"/>
<path d="M355.99 240.953C340.356 240.953 324.283 233.441 308.218 218.625C293.629 205.171 285.114 185.413 285.437 165.771C285.712 149.059 292.368 134.186 304.191 123.848L304.729 123.382C320.998 109.418 337.534 102.195 353.884 101.916C369.479 101.645 384.801 107.677 399.413 119.837C416.518 134.072 424.793 150.326 424.007 168.151C423.664 175.944 421.562 184.053 417.764 192.255C414.311 199.712 409.434 207.294 403.27 214.795C396.753 222.722 389.766 228.95 382.5 233.305C375.068 237.758 367.277 240.293 359.34 240.84C358.231 240.917 357.104 240.956 355.99 240.956V240.953ZM354.877 103.149C354.552 103.149 354.23 103.153 353.906 103.158C337.765 103.435 321.402 110.633 305.273 124.555C293.557 134.668 286.954 149.311 286.683 165.791C286.365 185.085 294.731 204.493 309.063 217.71C324.904 232.32 340.674 239.708 355.992 239.708C357.083 239.708 358.17 239.671 359.256 239.595C366.994 239.062 374.6 236.585 381.86 232.233C389.003 227.951 395.883 221.817 402.309 214C408.407 206.583 413.227 199.089 416.636 191.729C420.367 183.675 422.43 175.722 422.766 168.092C423.534 150.678 415.409 134.762 398.618 120.789C384.552 109.083 369.836 103.147 354.879 103.147L354.877 103.149Z" fill="#2B478B"/>
<path d="M336.8 239.455C330.7 239.455 324.882 238.439 319.435 236.419C303.845 230.634 291.319 216.812 282.206 195.334C274.495 177.162 274.876 155.76 283.223 138.084C290.37 122.948 302.618 112.152 317.708 107.685C338.347 101.576 356.427 101.761 371.447 108.235C385.692 114.376 397.106 126.117 405.373 143.13C415.043 163.035 415.887 181.146 407.878 196.962C404.374 203.881 399.147 210.37 392.34 216.25C386.143 221.603 378.599 226.491 369.918 230.774C360.749 235.3 351.855 238.087 343.479 239.06C341.219 239.322 338.99 239.454 336.8 239.454V239.455ZM317.858 108.196C302.914 112.619 290.786 123.314 283.703 138.312C275.42 155.852 275.044 177.091 282.696 195.125C291.749 216.462 304.172 230.187 319.621 235.919C326.946 238.636 334.951 239.516 343.418 238.532C351.732 237.566 360.569 234.795 369.682 230.298C378.323 226.035 385.828 221.172 391.992 215.848C398.746 210.013 403.932 203.578 407.403 196.722C415.333 181.064 414.488 163.11 404.893 143.364C396.684 126.467 385.36 114.813 371.235 108.725C356.333 102.301 338.374 102.123 317.858 108.196Z" fill="#2B478B"/>
<path d="M336.8 239.812C330.665 239.812 324.781 238.782 319.311 236.753C303.625 230.934 291.03 217.044 281.876 195.473C274.127 177.209 274.509 155.699 282.898 137.933C290.089 122.704 302.414 111.84 317.604 107.345C338.325 101.211 356.488 101.401 371.585 107.91C385.911 114.086 397.386 125.885 405.691 142.977C415.414 162.987 416.256 181.205 408.195 197.125C404.671 204.086 399.415 210.612 392.573 216.522C386.352 221.896 378.782 226.8 370.076 231.095C360.87 235.638 351.936 238.437 343.521 239.416C341.26 239.679 338.999 239.812 336.8 239.812ZM317.959 108.538C303.115 112.932 291.064 123.56 284.026 138.464C275.787 155.914 275.411 177.046 283.024 194.987C292.038 216.229 304.393 229.889 319.745 235.585C327.017 238.284 334.968 239.156 343.378 238.178C351.651 237.217 360.448 234.458 369.526 229.978C378.139 225.728 385.619 220.883 391.759 215.578C398.479 209.774 403.636 203.376 407.085 196.562C414.961 181.008 414.116 163.162 404.573 143.52C396.403 126.703 385.14 115.106 371.095 109.052C356.271 102.663 338.394 102.489 317.961 108.538H317.959Z" fill="#2B478B"/>
<path d="M353.797 233.77C334.719 233.77 318.57 223.761 305.986 209.678C295.211 197.618 287.467 184.265 289.182 169.169C291.528 148.522 298.511 132.524 309.936 121.618C320.773 111.273 335.527 105.556 353.785 104.626C375.147 103.537 391.582 109.618 402.638 122.699C407.473 128.42 411.278 135.514 413.945 143.781C416.373 151.308 417.876 159.855 418.417 169.184C418.986 179.038 418.114 187.995 415.821 195.805C413.481 203.778 409.639 210.632 404.401 216.177C393.373 227.851 376.349 233.77 353.799 233.77H353.797ZM289.437 169.199L289.693 169.228C287.994 184.176 296.168 197.517 306.843 209.466C319.331 223.442 334.862 233.255 353.797 233.255C376.199 233.255 393.099 227.39 404.024 215.822C409.204 210.337 413.006 203.554 415.322 195.658C417.597 187.906 418.464 179.007 417.898 169.211C417.361 159.925 415.866 151.421 413.452 143.936C410.805 135.734 407.034 128.698 402.243 123.028C391.298 110.077 375.002 104.057 353.811 105.137C335.678 106.061 321.038 111.731 310.291 121.987C298.956 132.808 292.024 148.7 289.694 169.224L289.438 169.196L289.437 169.199Z" fill="#2B478B"/>
<path d="M353.797 234.125C344.679 234.125 335.759 231.835 327.287 227.318C319.662 223.253 312.406 217.396 305.72 209.913C299.688 203.163 295.388 196.881 292.575 190.708C289.235 183.381 288.009 176.322 288.827 169.128C291.182 148.397 298.201 132.325 309.689 121.361C320.59 110.955 335.419 105.206 353.765 104.271C375.244 103.179 391.777 109.299 402.908 122.469C407.773 128.227 411.6 135.36 414.28 143.671C416.716 151.227 418.227 159.802 418.769 169.163C419.341 179.059 418.462 188.057 416.159 195.905C413.804 203.934 409.933 210.837 404.657 216.421C393.56 228.169 376.448 234.126 353.795 234.126L353.797 234.125ZM290.048 169.266C288.613 181.896 294.034 194.593 307.111 209.227C321.145 224.934 336.853 232.897 353.799 232.897C376.1 232.897 392.91 227.069 403.768 215.576C408.91 210.133 412.684 203.397 414.984 195.557C417.248 187.843 418.11 178.985 417.546 169.23C417.011 159.974 415.521 151.501 413.115 144.045C410.484 135.887 406.734 128.893 401.973 123.258C391.104 110.396 374.908 104.419 353.831 105.494C335.788 106.412 321.221 112.048 310.54 122.246C299.267 133.008 292.373 148.826 290.051 169.266H290.048ZM293.565 191.142C296.351 197.016 300.508 203.008 306.254 209.439C308.704 212.179 311.229 214.7 313.82 216.993C311.36 214.782 308.946 212.351 306.581 209.703C300.769 203.198 296.454 197.066 293.566 191.144L293.565 191.142Z" fill="#2B478B"/>
<path d="M341.158 197.964C341.126 198.02 341.094 198.079 341.061 198.136C340.286 199.48 338.51 202.776 336.554 206.382C335.628 208.093 334.66 209.873 333.74 211.548C332.156 214.44 330.717 217.016 329.877 218.377C329.021 219.76 328.392 220.733 328.137 221.123H328.136C328.06 221.244 328.043 221.385 328.053 221.527C328.142 222.746 328.117 223.959 327.998 225.152C326.817 236.882 318.903 243.169 318.903 243.169L316.549 243.518C316.549 243.518 319.879 231.187 320.861 224.217C321.026 223.036 321.098 222.078 321.041 221.453C320.868 219.637 321.189 216.971 321.8 213.909C322.886 208.469 324.88 201.792 326.612 196.447C326.721 196.105 330.031 184.142 330.031 184.142C332.809 186.568 342.941 187.569 342.941 187.569C342.941 187.569 344.659 191.743 341.157 197.968L341.158 197.964Z" fill="#F99746"/>
<path d="M311.609 246.49H321.431C321.431 246.49 321.667 244.995 321.154 243.859C320.662 242.77 319.962 242.735 321.064 241.027C320.44 241.67 318.435 241.936 317.014 241.744C316.84 242.027 315.892 243.918 315.31 244.335C314.668 244.796 311.806 244.631 311.608 246.49H311.609Z" fill="#2358A5"/>
<path d="M341.158 197.964C341.126 198.02 341.094 198.078 341.061 198.136C340.286 199.48 336.099 207.207 334.143 210.813C336.409 201.494 334.833 192.175 334.833 192.175L341.157 197.962L341.158 197.964Z" fill="#ED7D2B"/>
<path d="M303.246 151.933C303.246 151.933 302.857 147.698 307.593 147.698C307.593 147.698 306.158 148.087 305.416 148.866C305.416 148.866 308.436 147.094 311.722 149.816C315.009 152.539 312.967 159.368 313.967 160.665C314.967 161.962 318.859 162.221 318.383 166.413C317.906 170.606 306.029 175.857 306.793 179.324C306.793 179.324 302.138 172.487 305.466 169.366C305.466 169.366 303.843 170.894 303.678 172.709C303.678 172.709 303.239 169.166 305.495 168.032C307.492 167.029 309.128 163.36 308.955 162.704C308.781 162.048 303.246 151.935 303.246 151.935V151.933Z" fill="#202D4F"/>
<path d="M309.929 169.718C309.929 169.718 303.192 186.707 301.74 186.078C300.289 185.448 291.731 182.733 291.731 182.733C291.731 182.733 292.036 185.156 292.174 185.265C293.427 186.258 299.727 191.111 303.5 191.359C307.69 191.633 313.364 179.297 313.364 179.297L309.928 169.718H309.929Z" fill="#FFB27D"/>
<path d="M304.586 151.337C304.522 151.08 310.195 153.9 310.483 154.219C313.145 157.169 312.386 161.018 310.864 161.055C309.887 161.079 310.076 162.702 310.076 162.702L299.196 158.102C299.196 158.102 300.506 150.469 304.586 151.337Z" fill="#202D4F"/>
<path d="M308.243 170.071C308.243 170.071 306.793 171.57 306.793 176.059C306.793 176.059 308.79 179.209 313.967 180.006C313.967 180.006 309.515 170.07 308.243 170.073V170.071Z" fill="#1C468A"/>
<path d="M333.501 188.295L333.468 186.46C337.128 186.921 346.088 182.089 346.088 182.089C346.088 182.089 349.918 184.634 350.442 191.902C350.698 195.451 352.315 210.454 352.496 214.933C352.561 216.557 352.583 217.716 352.59 218.178C352.59 218.18 352.59 218.182 352.59 218.184C352.592 218.325 352.659 218.449 352.745 218.562C353.502 219.524 354.159 220.544 354.728 221.6C360.313 231.984 357.393 246.095 357.393 246.095L356.097 245.765C356.097 245.765 351.374 231.138 348.288 224.811C347.765 223.737 347.288 222.903 346.891 222.42C345.731 221.012 344.507 218.619 343.3 215.741C341.02 210.298 333.503 188.297 333.503 188.297L333.501 188.295Z" fill="#F99746"/>
<path d="M349.581 246.491H359.403C359.403 246.491 359.639 244.995 359.126 243.859C358.634 242.771 357.865 242.274 358.048 240.957C357.423 241.6 356.407 242.318 354.987 242.128C354.814 242.411 353.864 243.918 353.284 244.335C352.642 244.796 349.78 244.631 349.581 246.491Z" fill="#2358A5"/>
<path d="M314.63 182.113C315.95 182.339 314.414 183.387 316.229 183.584C318.812 183.865 321.479 184.058 322.876 184.615C323.386 184.819 323.726 185.069 323.832 185.389C324.439 187.209 327.107 190.016 327.107 190.016C344.211 189.238 346.09 182.088 346.09 182.088C334.988 171.314 324.782 164.961 316.989 164.12C315.655 163.975 313.968 164.821 312.766 165.357C310.037 166.571 308.242 170.071 308.242 170.071C308.242 170.071 309.618 181.259 314.63 182.112V182.113Z" fill="#1C468A"/>
<path d="M316.229 183.582C318.812 183.863 321.479 184.056 322.876 184.613C323.447 176.088 319.421 169.677 319.421 169.677C319.421 169.677 316.795 180.357 316.229 183.582Z" fill="#163560"/>
<path d="M314 168.235C314 168.235 320.496 167.88 321.649 171.955C322.802 176.03 319.484 192.296 318.768 193.975C317.465 197.032 311.126 205.755 311.126 205.755L309.379 204.858C309.379 204.858 313.024 191.72 313.967 190.401C315.448 188.332 312.056 170.009 314 168.235Z" fill="#FFB27D"/>
<path d="M309.84 203.639C309.84 203.639 309.298 205.553 308.239 206.612C307.751 207.099 307.316 208.565 307.294 209.322C307.294 209.322 307.215 209.948 307.488 209.885C307.761 209.825 308.065 208.469 308.552 208.536C308.552 208.536 308.293 210.05 308.035 210.478C307.778 210.903 307.626 212.224 307.991 212.384C308.877 212.774 310.187 211.105 310.965 210.057C311.744 209.011 310.976 204.763 310.976 204.763L309.84 203.639Z" fill="#FFB27D"/>
<path d="M322.932 177.405C322.915 177.5 316.785 178.532 312.951 176.587C312.951 176.587 309.749 166.56 314.325 167.039C318.903 167.519 321.612 168.959 321.728 171.149C321.844 173.34 322.932 177.405 322.932 177.405Z" fill="#1C468A"/>
<path d="M312.766 165.357C312.766 165.357 310.96 172.09 308.242 170.071C308.318 169.747 307.845 168.801 307.286 167.842C306.572 166.616 305.722 165.362 305.722 165.362L309.399 162.144L309.618 161.952C310.744 163.917 311.849 164.688 312.768 165.359L312.766 165.357Z" fill="#FFB27D"/>
<path d="M305.72 165.362C305.72 165.362 306.571 166.612 307.285 167.84C309.569 166.432 309.573 163.605 309.396 162.142L305.72 165.362Z" fill="#ED985F"/>
<path d="M305.62 166.975C305.62 166.975 311.167 163.89 309.192 160.468C307.216 157.044 306.603 154.34 302.976 156.166C299.35 157.991 299.422 159.691 299.803 160.993C300.185 162.295 304.124 167.689 305.62 166.975Z" fill="#FFB27D"/>
<path d="M298.865 158.997C299.119 157.478 299.892 157.331 300.431 157.434C302.479 154.047 305.826 155.369 305.826 155.369C307.614 157.612 310.199 157.994 310.199 157.994C310.199 157.994 309.554 159.192 306.902 159.932C306.092 160.159 305.172 160.021 304.286 159.724C306.126 160.748 308.05 161.142 308.05 161.142C304.555 161.462 301.229 158.268 300.883 157.927C300.722 158.421 300.439 159.458 300.609 160.215C300.84 161.245 301.754 163.109 301.195 163.349C301.195 163.349 298.483 161.276 298.863 158.997H298.865Z" fill="#202D4F"/>
<path d="M292.929 183.505C292.929 183.505 291.937 183.944 290.929 182.918C290.414 182.393 289.491 182.108 289.967 181.827C290.444 181.546 291.715 182.123 292.015 182.226C292.313 182.327 292.929 183.506 292.929 183.506V183.505Z" fill="#FFB27D"/>
<path d="M330.079 70.9157C333.058 59.3423 338.096 49.2764 351.733 49.2764C363.692 49.2764 374.539 59.8033 373.751 72.7781C373.025 84.7065 362.659 94.8111 349.97 93.3911C338.086 92.0603 326.668 84.1681 330.079 70.9157Z" fill="#AFCDFB"/>
<g opacity="0.8">
<path d="M348.516 85.6402C348.516 85.2196 348.587 84.8293 348.73 84.4676C348.873 84.1076 349.075 83.7913 349.34 83.5204C349.602 83.2495 349.926 83.0392 350.309 82.8895C350.693 82.7398 351.133 82.664 351.628 82.664C352.123 82.664 352.564 82.7398 352.948 82.8895C353.331 83.0392 353.655 83.2495 353.917 83.5204C354.18 83.7913 354.384 84.1059 354.527 84.4676C354.67 84.8276 354.741 85.2196 354.741 85.6402C354.741 86.4663 354.47 87.1578 353.929 87.713C353.389 88.2682 352.621 88.5475 351.629 88.5475C350.638 88.5475 349.87 88.2699 349.33 87.713C348.789 87.1578 348.518 86.4663 348.518 85.6402H348.516ZM353.906 78.564H349.191L348.673 55.4189H354.446L353.904 78.564H353.906Z" fill="white"/>
</g>
<path d="M188.168 94.8093C194.859 68.8226 206.171 46.2227 236.789 46.2227C263.642 46.2227 287.997 69.8607 286.226 98.9918C284.598 125.776 261.324 148.463 232.831 145.275C206.146 142.289 180.506 124.566 188.168 94.8109V94.8093Z" fill="#AFCDFB"/>
<path d="M257.428 91.8189C257.458 96.8124 255.702 101.397 252.766 104.972C250.235 108.051 248.809 111.889 248.809 115.872V121.616C248.809 123.24 248.215 124.735 247.235 125.89C246.016 127.326 244.2 128.243 242.178 128.243H231.564C227.916 128.243 224.933 125.26 224.933 121.616V115.883C224.933 111.905 223.529 108.066 220.997 104.996C218.072 101.447 216.314 96.8998 216.314 91.9418C216.314 82.1349 223.192 73.9315 232.391 71.889C232.652 71.8301 232.916 71.778 233.181 71.7308C233.322 71.7056 233.464 71.6804 233.605 71.6585C234.669 71.4869 235.76 71.3994 236.871 71.3994C248.21 71.3994 257.362 80.4878 257.428 91.8189Z" fill="#F9DDBF"/>
<path d="M242.139 128.245L242.116 128.422L241.824 130.656L241.747 131.245V131.25L241.669 131.842L241.378 134.075L241.301 134.664V134.669L241.223 135.262L241.181 135.589C241.033 136.721 239.737 137.588 238.188 137.588H234.694C234.326 137.588 233.972 137.539 233.644 137.45C233.349 137.369 233.075 137.254 232.831 137.111L232.812 137.1C232.613 136.984 232.437 136.847 232.283 136.698C231.97 136.39 231.763 136.018 231.704 135.611L231.581 134.744L231.502 134.199V134.186L231.425 133.651L231.128 131.58L231.051 131.036V131.024L230.972 130.488L230.65 128.245H242.141H242.139Z" fill="#ED7D2B"/>
<path d="M240.752 128.245H238.779C235.593 129.165 232.433 130.076 230.97 130.488L231.048 131.024V131.036L231.127 131.58C232.312 131.252 235.159 130.437 242.116 128.422L242.139 128.245H240.754H240.752Z" fill="#F99746"/>
<path d="M231.499 134.182V134.196L231.578 134.743C232.948 134.357 235.777 133.546 241.668 131.84L241.745 131.248V131.243L241.822 130.654C238.1 131.731 233.595 133.032 231.421 133.649L231.499 134.182Z" fill="#F99746"/>
<path d="M232.81 137.098L232.829 137.11C233.073 137.253 233.347 137.367 233.642 137.448C235.258 136.986 237.656 136.294 241.223 135.261L241.3 134.667V134.662L241.378 134.073C238.193 134.995 234.537 136.05 232.28 136.694C232.433 136.844 232.61 136.98 232.808 137.097L232.81 137.098Z" fill="#F99746"/>
<path d="M229.181 101.908L228.265 102.063L232.718 128.346L233.634 128.191L229.181 101.908Z" fill="#ED7D2B"/>
<path d="M244.438 102.305L239.701 128.174L240.615 128.341L245.352 102.473L244.438 102.305Z" fill="#ED7D2B"/>
<path d="M239.323 106.731C239.203 106.731 239.07 106.715 238.922 106.682C238.673 106.625 238.516 106.453 238.466 106.184C238.36 105.603 238.816 104.538 239.456 103.635C239.121 103.051 238.676 102.57 238.208 102.429C237.518 102.22 236.459 102.856 235.721 103.67C235.856 103.862 235.977 104.061 236.083 104.261C236.46 104.974 236.733 105.886 236.361 106.307C236.223 106.463 235.942 106.604 235.385 106.394C234.688 106.132 234.438 105.541 234.698 104.776C234.826 104.4 235.06 104.01 235.358 103.648C234.787 102.903 234.023 102.338 233.27 102.432C232.868 102.482 232.524 102.624 232.236 102.822C232.718 103.717 232.829 104.853 232.494 105.462C232.267 105.878 231.869 106.009 231.376 105.832C231.021 105.706 230.836 105.218 230.905 104.589C230.974 103.945 231.297 103.24 231.869 102.75C231.719 102.518 231.541 102.311 231.334 102.151C230.038 101.145 228.967 102.225 228.921 102.271L228.719 102.075C228.733 102.062 230.014 100.771 231.507 101.929C231.733 102.104 231.93 102.328 232.093 102.58C232.411 102.365 232.792 102.21 233.235 102.154C234.078 102.048 234.92 102.642 235.545 103.435C236.348 102.563 237.491 101.919 238.289 102.159C238.792 102.313 239.269 102.797 239.632 103.396C239.971 102.957 240.348 102.575 240.715 102.333C241.302 101.944 241.685 102.033 241.902 102.176C242.126 102.323 242.314 102.52 242.473 102.747C242.649 102.607 242.835 102.488 243.018 102.395C243.698 102.057 244.323 102.082 244.777 102.466L244.596 102.681C244.106 102.267 243.476 102.482 243.144 102.647C242.963 102.738 242.786 102.854 242.621 102.986C243.074 103.802 243.161 104.865 242.902 105.381C242.739 105.706 242.447 105.819 242.106 105.693C241.491 105.467 241.341 105.045 241.323 104.729C241.289 104.126 241.708 103.438 242.254 102.933C242.112 102.723 241.944 102.541 241.747 102.412C241.481 102.237 241.124 102.4 240.87 102.568C240.504 102.811 240.121 103.209 239.782 103.66C240.205 104.463 240.424 105.398 240.264 106C240.186 106.293 239.964 106.731 239.324 106.731H239.323ZM239.602 103.911C239.045 104.722 238.653 105.64 238.743 106.133C238.772 106.29 238.849 106.377 238.984 106.408C239.535 106.532 239.875 106.372 239.991 105.93C240.127 105.418 239.949 104.621 239.602 103.911ZM235.533 103.891C235.275 104.212 235.073 104.55 234.965 104.868C234.752 105.497 234.927 105.921 235.486 106.133C235.711 106.217 236.009 106.285 236.152 106.123C236.373 105.873 236.243 105.161 235.838 104.394C235.747 104.224 235.646 104.056 235.534 103.892L235.533 103.891ZM232.014 102.999C231.522 103.436 231.246 104.056 231.186 104.619C231.134 105.099 231.251 105.489 231.472 105.566C231.829 105.693 232.092 105.612 232.25 105.326C232.536 104.804 232.432 103.8 232.014 102.997V102.999ZM242.399 103.179C241.91 103.648 241.577 104.249 241.604 104.713C241.622 105.05 241.824 105.29 242.202 105.428C242.409 105.504 242.552 105.449 242.649 105.253C242.867 104.821 242.774 103.897 242.399 103.179Z" fill="#ED7D2B"/>
<path d="M247.481 79.2997C249.172 80.8913 248.959 83.8187 246.786 84.4698C245.148 84.9611 242.703 84.3049 241.494 82.2153C240.287 80.1258 240.843 78.4063 242.326 77.5517C243.808 76.697 245.724 77.6459 247.481 79.2997Z" fill="#FFF0E3"/>
<path d="M236.42 58.1338H236.222C235.861 58.1338 235.569 58.426 235.569 58.7866V66.8824C235.569 67.2429 235.861 67.5351 236.222 67.5351H236.42C236.781 67.5351 237.074 67.2429 237.074 66.8824V58.7866C237.074 58.426 236.781 58.1338 236.42 58.1338Z" fill="#FFF0E3"/>
<path d="M265.984 74.018L265.876 73.8315C265.698 73.5233 265.303 73.4177 264.995 73.5956L261.025 75.8862C260.716 76.0642 260.611 76.4583 260.789 76.7665L260.897 76.953C261.075 77.2611 261.469 77.3668 261.777 77.1888L265.748 74.8982C266.056 74.7203 266.162 74.3262 265.984 74.018Z" fill="#FFF0E3"/>
<path d="M263.635 88.2696C263.635 87.8557 263.973 87.5176 264.388 87.5176H274.432C274.846 87.5176 275.185 87.8557 275.185 88.2696C275.185 88.6835 274.846 89.0217 274.432 89.0217H264.388C263.973 89.0217 263.635 88.6835 263.635 88.2696Z" fill="#FFF0E3"/>
<path d="M249.597 70.9299C249.217 70.7684 249.038 70.3242 249.2 69.944L254.532 57.4537C254.694 57.0735 255.138 56.8951 255.52 57.0566C255.901 57.2182 256.079 57.6623 255.918 58.0425L250.586 70.5328C250.424 70.913 249.979 71.0914 249.599 70.9299H249.597Z" fill="#FFF0E3"/>
<path d="M212.725 76.9495L212.833 76.7627C213.01 76.4565 212.904 76.0595 212.597 75.8828L208.626 73.5914C208.319 73.4147 207.922 73.5207 207.745 73.8269L207.638 74.0137C207.461 74.3199 207.567 74.7169 207.873 74.8936L211.845 77.185C212.151 77.3617 212.547 77.2557 212.725 76.9495Z" fill="#FFF0E3"/>
<path d="M210.011 88.2686C210.011 87.8548 209.673 87.5166 209.259 87.5166H199.215C198.8 87.5166 198.462 87.8548 198.462 88.2686C198.462 88.6825 198.8 89.0207 199.215 89.0207H209.259C209.673 89.0207 210.011 88.6825 210.011 88.2686Z" fill="#FFF0E3"/>
<path d="M224.049 70.9299C224.43 70.7684 224.608 70.3242 224.447 69.944L219.115 57.4537C218.953 57.0735 218.509 56.8951 218.128 57.0566C217.748 57.2182 217.569 57.6623 217.731 58.0425L223.063 70.5328C223.224 70.913 223.669 71.0914 224.049 70.9299Z" fill="#FFF0E3"/>
<path d="M216.997 130.421C217.007 130.137 217.228 127.075 221.896 126.915C221.896 126.915 219.601 127.189 219.204 128.197C219.204 128.197 220.766 126.95 222.039 127.352C223.312 127.753 224.06 129.982 224.068 130.714C224.075 131.447 223.368 133.81 222.561 134.011C222.255 134.087 221.903 134.067 221.583 134.011C221.799 134.346 222.009 134.716 222.209 135.13C224.071 138.951 222.15 142.686 220.575 142.272C219.563 142.008 219.277 143.733 219.277 143.733L209.451 135.783C209.451 135.783 213.061 128.32 216.999 130.421H216.997Z" fill="#2C3A64"/>
<path d="M213.576 242.989L215.664 243.766C215.664 243.766 224.728 231.202 225.844 220.148C226.043 218.175 225.977 216.262 225.546 214.497C225.546 214.497 225.636 213.991 225.791 213.097C225.863 212.68 225.951 212.179 226.052 211.601C226.346 209.914 226.752 207.606 227.215 204.976C228.282 198.926 229.663 191.192 230.737 185.507L230.175 185.327L224.09 183.365L222.833 179.375L218.302 178.184C218.302 178.184 217.29 180.162 216.384 189.508C216.218 190.734 216.066 192.085 215.952 193.552C215.6 198.028 215.573 203.578 216.383 209.924C216.59 211.549 216.852 213.225 217.179 214.949C217.418 216.213 217.453 217.934 217.352 219.911C216.896 228.947 213.576 242.99 213.576 242.99V242.989Z" fill="#1C468A"/>
<path d="M215.951 193.551L225.79 213.095C225.863 212.678 225.95 212.177 226.051 211.6C226.346 209.912 226.752 207.604 227.215 204.974C228.282 198.924 229.663 191.19 230.737 185.505L230.174 185.325L224.09 183.364L222.832 179.373L216.948 176.112C216.948 176.112 216.948 177.022 216.436 186.966C216.27 188.192 216.066 192.084 215.951 193.549V193.551Z" fill="#163560"/>
<path d="M220.279 180.69L220.506 178.739C224.321 179.752 234.96 175.016 234.96 175.016C234.96 175.016 238.214 179.156 237.729 186.939C237.492 190.738 237.059 206.881 236.608 211.659C236.444 213.39 236.301 214.621 236.242 215.114C236.242 215.116 236.242 215.118 236.242 215.119C236.224 215.269 236.278 215.412 236.354 215.542C237.019 216.671 237.569 217.845 238.022 219.048C242.458 230.86 237.338 245.406 237.338 245.406L236.01 244.871C236.01 244.871 233.097 228.683 230.73 221.531C230.328 220.318 229.944 219.364 229.591 218.796C228.562 217.135 227.606 214.423 226.74 211.198C225.102 205.099 223.784 197.166 222.905 191.042C222.157 185.855 220.28 180.69 220.28 180.69H220.279Z" fill="#1C468A"/>
<path d="M193.205 173.65L192.908 175.894C192.908 175.894 194.26 175.714 194.482 175.699C195.178 175.652 197.233 175.519 199.144 175.314C202.018 175.029 204.102 174.964 205.461 174.127C207.53 172.866 210.926 168.998 213.137 165.131C213.201 165.037 213.248 164.943 213.295 164.847C214.448 162.795 215.253 160.759 215.317 159.134C215.364 158.139 215.253 157.286 215.049 156.546C214.782 155.567 214.339 154.795 213.881 154.211C213.817 154.117 213.755 154.022 213.66 153.943C212.903 153.043 212.16 152.665 212.16 152.665C211.781 152.507 210.522 154.033 210.096 154.49L209.739 155.548C209.392 155.912 205.576 168.168 203.855 170.078C203.113 170.899 199.654 172.188 196.504 173.061C194.461 173.628 193.208 173.655 193.208 173.655L193.205 173.65Z" fill="#F2A16B"/>
<path d="M212.99 157.016C214.187 157.571 215.635 157.95 217.384 158.044C223.944 158.404 225.434 152.657 225.705 148.843C224.759 148.501 223.93 148.533 223.454 148.559C223.073 148.579 222.679 148.616 222.329 148.655C222.164 148.673 221.998 148.628 221.866 148.525C221.04 147.877 219.782 145.916 219.026 142.823L218.743 142.954L214.009 145.179C214.009 145.179 214.512 146.718 214.883 148.19C215.043 148.828 215.179 149.455 215.238 149.94C215.293 150.398 215.034 150.833 214.61 151.015C214.61 151.015 214.61 151.015 214.61 151.02C214.563 151.141 213.532 153.761 212.992 157.014L212.99 157.016Z" fill="#FFB27D"/>
<path d="M236.33 177.148C236.276 179.574 219.189 181.722 216.25 180.095C216.25 180.095 215.487 176.419 214.516 172.289C214.223 171.045 213.911 169.763 213.598 168.527C212.859 165.62 212.098 162.968 211.514 161.708C211.453 161.577 211.399 161.451 211.35 161.318C210.041 157.849 212.492 154.14 210.8 153.044C210.8 153.044 211.803 152.12 214.612 151.018C214.612 151.018 214.612 151.02 214.61 151.023C214.566 151.186 214.315 153.489 214.797 154.389C215.746 156.169 219.459 155.239 221.151 153.042C222.144 151.756 222.912 150.456 223.26 149.24C223.339 148.965 223.454 148.56 223.454 148.56C223.454 148.56 226.585 148.136 228.343 148.848C228.343 148.848 227.648 150.355 227.393 152.019C227.368 152.177 227.35 152.335 227.333 152.495C227.299 152.83 227.289 153.166 227.308 153.493C227.333 153.925 227.557 154.309 227.912 154.684C228.237 155.027 228.676 155.365 229.173 155.729C229.5 155.964 229.848 156.21 230.208 156.477C230.24 158.436 230.102 161.658 230.464 165.095C230.555 165.968 230.847 166.801 231.301 167.539C231.483 167.835 231.69 168.113 231.921 168.374C233.771 170.445 236.389 176.863 236.327 177.148H236.33Z" fill="#F99746"/>
<path d="M214.009 145.179C214.009 145.179 214.512 146.717 214.883 148.191C217.649 147.42 218.489 144.513 218.743 142.955L214.009 145.179Z" fill="#ED985F"/>
<path d="M213.426 146.808C213.426 146.808 220.046 145.277 219.028 141.172C218.011 137.067 218.179 134.106 213.909 134.908C209.64 135.712 209.21 137.48 209.216 138.934C209.222 140.386 211.677 147.101 213.425 146.808H213.426Z" fill="#FFB27D"/>
<path d="M208.845 136.604C209.557 135.116 210.394 135.195 210.918 135.46C214.027 132.584 217.08 134.933 217.08 134.933C218.253 137.768 220.799 138.925 220.799 138.925C220.799 138.925 219.782 139.965 216.834 139.943C215.933 139.937 215.029 139.523 214.204 138.954C215.793 140.552 217.656 141.526 217.656 141.526C213.967 140.821 211.492 136.553 211.238 136.099C210.924 136.56 210.327 137.542 210.276 138.372C210.207 139.499 210.596 141.686 209.95 141.769C209.95 141.769 207.774 138.835 208.842 136.604H208.845Z" fill="#2C3A64"/>
<path d="M210.798 153.041C210.798 153.041 210.21 153.379 209.136 156.658C209.136 156.658 210.367 158.186 211.867 158.043C211.867 158.043 212.067 153.415 210.798 153.041Z" fill="#F99746"/>
<path d="M229.614 246.49H240.126C240.126 246.49 240.379 244.888 239.83 243.675C239.305 242.509 238.48 241.979 238.677 240.569C238.008 241.257 236.921 242.026 235.4 241.823C235.214 242.124 234.198 243.739 233.577 244.185C232.89 244.678 229.828 244.503 229.616 246.49H229.614Z" fill="#2358A5"/>
<path d="M207.044 246.489H217.556C217.556 246.489 217.948 244.814 217.258 243.675C216.647 242.665 216.881 242.092 217.334 241.257C216.857 241.452 216.241 241.629 215.563 241.59C215.039 241.56 214.485 241.323 213.998 241.04C213.546 241.555 211.609 243.749 211.003 244.184C210.316 244.677 207.254 244.502 207.042 246.489H207.044Z" fill="#2358A5"/>
<path d="M197.55 166.27C197.55 166.27 196.627 165.028 196.052 164.768C195.476 164.507 194.93 162.905 194.612 163.395C194.419 163.692 194.908 164.803 194.784 165.054C194.658 165.304 193.386 164.774 193.164 164.419C193.014 164.18 191.705 162.601 191.674 163.329C191.644 164.058 192.789 166.854 193.353 167.209C193.917 167.565 196.052 168.045 196.052 168.045L197.55 166.27Z" fill="#FFB27D"/>
<path d="M226.199 159.458C223.822 165.269 214.674 172.466 214.674 172.466L214.515 172.288C214.222 171.045 213.911 169.763 213.598 168.526L223.342 159.46H226.199V159.458Z" fill="#ED7D2B"/>
<path d="M196.349 166.388L196.051 168.045C196.051 168.045 201.281 169.239 202.432 169.492L202.447 169.498C204.439 169.894 206.685 170.301 208.643 170.506C210.025 170.639 211.263 170.669 212.17 170.548C212.261 170.538 212.339 170.521 212.438 170.498C214.677 170.052 218.324 167.385 221.642 164.256C222.102 163.825 222.546 163.386 222.986 162.962C224.588 161.371 226.035 159.742 227.131 158.267C227.796 157.39 228.348 156.567 228.713 155.851C228.846 155.6 228.972 155.363 229.065 155.126C230.952 150.955 229.149 149.431 229.149 149.431C229.112 149.397 229.077 149.362 229.026 149.321C228.695 149.099 228.208 149.171 227.604 149.466C226.844 149.829 225.886 150.553 224.821 151.47C223.151 152.943 213.135 165.128 210.798 165.592C208.768 165.994 196.349 166.388 196.349 166.388Z" fill="#FFB27D"/>
<path d="M228.092 148.756C228.092 148.756 230.133 149.328 230.311 151.464C230.49 153.601 230.212 160.213 230.212 160.213C230.212 160.213 223.54 158.302 220.822 154.223C220.822 154.223 225.722 148.808 228.092 148.754V148.756Z" fill="#F99746"/>
<path d="M0.68859 246.489H486.726C487.106 246.489 487.414 246.797 487.414 247.177V247.812C487.414 248.192 487.106 248.5 486.726 248.5H0.68859C0.308097 248.5 0 248.192 0 247.812V247.177C0 246.797 0.308097 246.489 0.68859 246.489Z" fill="#2E3552"/>
</g>
<defs>
<clipPath id="clip0_1715_7955">
<rect width="491.348" height="226" fill="white" transform="translate(0 22.5)"/>
</clipPath>
</defs>
</svg>
