<svg width="524" height="278" viewBox="0 0 524 278" fill="none" xmlns="http://www.w3.org/2000/svg">
<g clip-path="url(#clip0_1715_7973)">
<g clip-path="url(#clip1_1715_7973)">
<g clip-path="url(#clip2_1715_7973)">
<path d="M69.6629 233.032L193.055 232.427L225.947 232.417L236.843 232.413L269.796 232.404L420.348 232.364C420.348 232.364 454.784 190.695 418.001 151.118C379.863 110.085 361.32 143.503 349.597 85.7436C320.088 -59.6438 28.3444 24.9762 104.867 148.696C132.42 193.244 50.6297 169.566 69.6629 233.032Z" fill="#EBF3FA"/>
<path d="M212.555 225.552C212.555 225.552 213.024 230.942 211.877 231.503L197.205 231.473C197.205 231.473 197.205 229.79 199.561 229.416C201.918 229.042 206.058 227.67 206.759 224.616C207.459 221.564 212.555 225.552 212.555 225.552Z" fill="#233862"/>
<path d="M254.655 223.467C254.655 223.467 255.097 230.944 253.95 231.503L239.276 231.473C239.276 231.473 239.276 229.791 241.633 229.417C243.989 229.042 248.13 227.671 248.831 224.617C249.533 221.564 254.655 223.467 254.655 223.467Z" fill="#233862"/>
<path d="M255.156 224.386C255.156 224.386 252.244 225.877 250.997 226.149C249.611 226.453 247.01 226.26 247.01 226.26C242.019 212.964 226.542 158.916 226.542 158.916C225.87 173.861 223.155 188.766 220.335 200.748C220.26 201.069 220.183 201.388 220.109 201.704V201.708C220.041 201.996 219.971 202.282 219.903 202.564C219.9 202.577 219.896 202.589 219.895 202.602C216.471 216.741 213.039 226.369 213.039 226.369C213.039 226.369 212.152 227.483 209.684 226.974C206.856 226.391 205.913 225.155 205.913 225.155C207.744 167.566 208.765 135.091 208.765 135.091C208.765 135.091 233.262 121.939 239.917 133.181C246.57 144.426 255.156 224.386 255.156 224.386Z" fill="#2A4E96"/>
<path d="M245.285 140.948C242.109 129.665 241.586 118.951 241.613 110.081C241.646 97.4556 242.787 88.5653 238.964 87.0656C238.964 87.0656 227.152 83.6532 219.021 82.1491C217.727 81.441 216.288 80.6984 215.198 80.258C212.632 79.2231 202.623 64.7644 200.926 61.3031C199.228 57.8417 196.42 42.7598 196.42 42.7598L192.52 43.9946C192.52 43.9946 191.348 60.9231 191.91 65.3358C192.472 69.7486 204.865 88.7222 205.893 90.3816C210.304 106.408 205.893 132.487 207.909 138.301C208.946 141.292 228.18 146.773 238.707 146.083C239.232 146.049 239.736 145.999 240.214 145.932C240.215 145.932 240.216 145.931 240.218 145.931C242.709 145.587 244.521 144.797 245.184 143.409C245.508 142.737 245.559 141.923 245.285 140.948Z" fill="#AEC3FF"/>
<path d="M196.42 42.7599C196.42 42.7599 198.624 36.397 197.012 36.2114C195.4 36.0271 191.355 36.0458 190.857 37.121C190.358 38.1961 192.521 43.9948 192.521 43.9948L196.42 42.7599Z" fill="#FFB27D"/>
<path d="M154.463 58.6144L141.453 50.7964C142.031 49.8479 142.941 49.2204 143.944 48.9758C144.949 48.7311 146.047 48.8649 147.003 49.4392C147.844 49.9444 148.939 49.6752 149.448 48.8405L152.968 43.0547L156.014 44.8854L152.493 50.6712C152.238 51.0886 152.179 51.5707 152.288 52.0111C152.396 52.4515 152.674 52.8502 153.096 53.1021C154.05 53.6749 154.68 54.5802 154.928 55.5776C155.175 56.5736 155.041 57.6659 154.463 58.6144Z" fill="#ED7D2B"/>
<path d="M154.463 58.6146L145.814 53.4175C143.811 51.7552 144.79 50.3332 145.795 50.0871C146.8 49.8424 147.898 49.9763 148.854 50.5505C149.695 51.0557 150.79 50.7866 151.298 49.9518L154.819 44.166L156.014 44.8842L152.493 50.67C152.238 51.0874 152.179 51.5695 152.288 52.0099C152.396 52.4503 152.674 52.849 153.096 53.1009C154.05 53.6737 154.68 54.579 154.928 55.5764C155.175 56.5738 155.041 57.6662 154.463 58.6146Z" fill="#F99746"/>
<path d="M192.518 20.9249L181.99 34.1142C178.33 40.1288 172.001 43.013 165.937 43.2548C165.936 43.2548 165.936 43.2548 165.934 43.2548C163.868 43.3369 161.834 43.1138 159.946 42.6014C158.386 42.1783 156.59 43.013 155.604 44.6322L155.398 44.9704C154.787 45.9721 154.275 46.8141 154.275 46.8141L152.057 45.4813C152.057 45.4813 152.574 44.6307 153.188 43.6204C154.27 41.8386 154.211 39.6639 153.025 38.3455C147.957 32.7123 146.057 23.3932 150.903 15.4298L158.033 0.198242L192.518 20.9249Z" fill="#F99746"/>
<path d="M148.479 26.1353C149.339 21.1929 146.933 18.5015 144.389 15.6504C142.353 13.3706 140.248 11.0145 139.795 7.50709C139.292 3.6168 141.116 -0.355531 144.331 -2.3748C146.776 -3.91048 149.477 -3.95941 151.746 -2.51441C154.967 -0.457718 156.165 3.52181 155.209 8.99383C154.524 12.9129 152.991 16.2232 152.926 16.3628L150.904 15.4316C150.961 15.3093 156.525 3.17063 150.541 -0.650578C148.477 -1.97037 146.509 -1.12409 145.521 -0.502335C143.064 1.04198 141.617 4.21984 142.005 7.22643C142.37 10.0574 144.16 12.0609 146.054 14.1823C148.709 17.1544 151.717 20.5222 150.674 26.5138L148.479 26.1353Z" fill="#ED7D2B"/>
<path d="M173.578 41.2197C177.583 38.167 181.099 39.0334 184.821 39.9502C187.797 40.6828 190.876 41.4413 194.211 40.2107C197.912 38.8449 200.604 35.3965 200.911 31.6299C201.144 28.7644 199.933 26.3652 197.592 25.0396C194.264 23.16 190.161 23.9544 185.728 27.3367C182.553 29.7589 180.315 32.6461 180.221 32.7669L181.99 34.1126C182.072 34.0061 190.305 23.4708 196.489 26.9625C198.624 28.1657 198.783 30.2914 198.689 31.45C198.455 34.33 196.294 37.0789 193.435 38.1339C190.743 39.127 188.126 38.4822 185.355 37.8C181.474 36.8443 177.076 35.7606 172.22 39.4609L173.578 41.2197Z" fill="#F99746"/>
<path d="M165.934 43.2534C163.868 43.3354 161.834 43.1123 159.946 42.6C158.386 42.1768 156.59 43.0116 155.604 44.6307L155.398 44.969C154.624 45.3662 154.038 45.8685 153.762 46.5046L152.059 45.4813C152.059 45.4813 152.576 44.6307 153.19 43.6204C154.272 41.8386 154.212 39.6639 153.026 38.3455C147.959 32.7123 146.059 23.3932 150.904 15.4298L158.034 0.198242L163.736 3.62509C163.733 3.62509 140.586 34.7949 165.934 43.2534Z" fill="#ED7D2B"/>
<path d="M155.674 48.1563L149.994 44.7424C149.223 44.2789 148.973 43.2729 149.439 42.5072C149.905 41.7415 150.918 41.4926 151.688 41.956L157.368 45.3699C158.138 45.8333 158.389 46.8394 157.923 47.605C157.458 48.3707 156.445 48.6197 155.674 48.1563Z" fill="#F99746"/>
<path d="M157.413 29.1864L158.023 28.1846C160.91 29.7362 161.283 29.5519 162.469 27.6032L168.433 17.8019C169.273 16.4217 168.848 16.0187 167.814 15.2113L167.08 14.5852L167.623 13.6914C169.869 14.709 172.541 15.5754 174.495 15.9726L166.092 29.7808C164.873 31.7842 164.889 32.1268 167.585 33.9316L166.976 34.9333L157.413 29.1864Z" fill="white"/>
<path d="M190.856 37.1211C190.856 37.1211 190.647 39.3117 191.355 39.7247C192.062 40.1378 192.313 37.1211 192.313 37.1211C192.313 37.1211 192.355 39.5966 192.895 39.7636C193.435 39.932 193.768 36.9139 193.768 36.9139C193.768 36.9139 193.826 39.3116 194.193 39.2282C194.559 39.1461 194.808 36.9139 194.808 36.9139C194.808 36.9139 194.975 38.6539 195.473 38.3416C195.972 38.0293 196.446 36.1611 196.446 36.1611L190.856 37.1211Z" fill="#FFB27D"/>
<path d="M196.42 42.7597C196.42 42.7597 197.926 41.5853 198.259 40.5102C198.592 39.435 199.57 37.6288 199.05 37.41C198.53 37.1913 197.012 39.5185 197.012 39.5185L196.42 42.7597Z" fill="#FFB27D"/>
<path d="M222.543 80.419L222.354 81.3977C222.354 81.3977 221.478 84.4043 225.178 85.596C228.878 86.7891 231.999 87.3404 232.365 84.9598C232.387 83.0658 232.341 80.1081 232.616 78.5912C232.719 78.027 232.875 77.4383 233.116 76.7864L225.801 75.1974L223.567 75.124L222.543 80.419Z" fill="#FFB27D"/>
<path d="M223.567 75.123L222.887 78.6924C229.837 80.5217 232.877 77.4388 233.116 76.7868L225.801 75.1979L223.567 75.123Z" fill="#E2915A"/>
<path d="M234.187 75.3043C232.032 79.6581 226.11 77.8446 223.615 76.8371C222.913 76.555 222.483 76.3348 222.483 76.3348C221.727 75.8901 221.631 74.4825 221.893 72.7468C222.409 69.3113 224.316 64.5891 225.231 63.4996C226.61 61.8617 228.781 60.28 234.374 63.4176C239.967 66.558 236.952 69.7273 234.187 75.3043Z" fill="#FFB27D"/>
<path d="M224.623 58.6152C224.623 58.6152 227.324 59.1506 230.822 58.6728C233.66 58.2856 236.513 60.3798 237.397 61.2116C237.415 61.0375 237.413 60.7928 237.318 60.5222C237.318 60.5222 237.691 60.9799 237.63 61.4578C237.667 61.5067 237.682 61.5369 237.667 61.5412C237.667 61.5412 238.222 61.593 238.518 61.8392C238.518 61.8392 238.29 61.7398 238.163 61.8665C238.15 61.8795 238.132 61.8895 238.114 61.8982C241.526 64.8947 240.14 71.1957 238.464 72.2766C236.448 73.5762 232.987 77.1542 232.987 77.1542C232.987 77.1542 233.11 75.8488 233.817 74.4067C234.523 72.966 233.204 72.5975 231.731 71.4418C230.258 70.2861 232.195 68.7404 231.066 67.1601C229.938 65.5798 224.394 64.7781 224.717 63.9002C222.936 62.625 224.567 58.8167 224.623 58.6152Z" fill="#233862"/>
<path d="M225.512 73.7011C225.512 73.7011 225.152 74.2394 223.709 73.6033C223.709 73.6033 222.497 73.0693 222.778 72.4346C222.777 72.4346 224.152 72.4173 225.512 73.7011Z" fill="white"/>
<path d="M223.887 88.417C223.887 88.417 220.551 110.419 195.596 125.698L193.267 132.421H202.274C202.274 132.421 224.625 113.794 226.123 89.0488L223.887 88.417Z" fill="#ED7D2B"/>
<path d="M223.887 88.4172V85.0811L228.002 86.2396L226.125 89.0491L223.887 88.4172Z" fill="#DB6516"/>
<path d="M222.543 80.4199L220.136 82.4651C220.136 82.4651 219.47 85.3206 221.092 88.4193L225.944 85.6631C225.944 85.6602 223.079 84.2857 222.543 80.4199Z" fill="#9DB0F4"/>
<path d="M225.944 85.6602C225.944 85.6602 226.425 88.2494 227.689 89.5303C227.689 89.5303 233.155 88.579 234.673 85.9754L232.383 82.4219C232.383 82.4233 231.837 84.8484 225.944 85.6602Z" fill="#9DB0F4"/>
<path d="M258.695 142.687C258.695 142.687 258.705 147.612 258.248 148.592C257.792 149.572 255.747 152.763 254.805 153.445C253.862 154.128 255.007 149.501 254.712 148.654C254.416 147.808 254.053 150.324 253.617 150.427C253.181 150.531 253.062 148.313 252.961 147.511C252.86 146.71 254.819 144.502 255.404 142.713C255.986 140.924 258.695 142.687 258.695 142.687Z" fill="#FFB27D"/>
<path d="M238.885 87.0654C238.885 87.0654 243.692 88.3665 246.949 95.4894C250.364 102.958 259.506 119.548 259.846 121.838C260.185 124.128 259.241 145.512 259.241 145.512C259.241 145.512 255.24 145.666 254.005 143.78C254.005 143.78 252.612 125.008 251.996 123.988C251.381 122.967 235.638 104.311 236.964 99.5768C238.289 94.8417 238.885 87.0654 238.885 87.0654Z" fill="#AEC3FF"/>
<path d="M245.184 143.412C243.993 144.427 242.384 145.312 240.218 145.934C240.216 145.934 240.215 145.935 240.213 145.935C239.681 146.088 239.181 146.134 238.707 146.086C229.911 145.185 231.262 111.22 235.524 108.71C240.017 106.065 241.611 110.082 241.611 110.082C241.586 118.952 242.109 129.666 245.284 140.95C245.559 141.922 245.508 142.737 245.184 143.412Z" fill="#9DB0F4"/>
<path d="M219.902 202.564C219.96 202.3 220.028 202.013 220.107 201.708C220.039 201.996 219.97 202.282 219.902 202.564Z" fill="#233862"/>
<path d="M220.335 200.747C223.027 188.086 220.125 154.159 221.421 153.514C222.752 152.854 226.542 158.916 226.542 158.916C225.869 173.861 223.155 188.766 220.335 200.747Z" fill="#233862"/>
<path d="M154.515 226.606L153.739 221.053L156.999 218.346L158.025 225.699L154.515 226.606Z" fill="#FFB27D"/>
<path d="M165.338 231.567H152.05C152.05 231.567 151.731 229.555 152.425 228.028C153.09 226.563 154.125 225.659 154.22 224.536C155.064 225.4 156.102 225.955 158.024 225.699C158.26 226.078 159.543 228.108 160.33 228.668C161.199 229.289 165.071 229.068 165.338 231.567Z" fill="#233862"/>
<path d="M162.669 151.617C161.8 158.564 161.089 165.112 160.511 171.216C157.419 203.738 158.025 223.616 158.025 223.616C158.025 223.616 157.802 224.205 155.885 224.214C154.802 224.219 153.74 223.985 153.74 223.985C153.74 223.985 146.816 202.747 147.35 190.662C147.414 189.208 147.587 187.887 147.891 186.75C149.552 180.567 141.744 156.92 150.231 148.115C158.716 139.31 163.068 148.429 162.669 151.617Z" fill="#F99746"/>
<path d="M162.669 151.617C161.8 158.564 161.089 165.112 160.511 171.216L147.35 190.662C147.414 189.208 147.587 187.887 147.891 186.75C149.552 180.567 141.744 156.92 150.231 148.115C158.716 139.31 163.068 148.429 162.669 151.617Z" fill="#ED7D2B"/>
<path d="M173.126 85.3564C173.126 85.3564 172.806 83.7689 172.446 82.5585C172.286 82.0231 173.399 78.5027 174.168 78.0694C174.937 77.6362 176.942 80.0067 176.375 81.8273C176.084 82.7628 175.604 85.8054 175.604 85.8054L173.126 85.3564Z" fill="#FFB27D"/>
<path d="M173.126 85.3563C173.126 85.3563 172.708 84.4366 172.33 84.2869C171.952 84.1372 171.546 82.6332 171.27 82.0359C171.27 82.0359 171.538 81.6459 172.007 82.1482C172.294 82.4548 172.931 83.3528 172.931 83.3528L173.126 85.3563Z" fill="#FFB27D"/>
<path d="M118.275 90.695C118.194 90.8619 118.081 91.1613 117.98 91.4419C117.979 91.3657 117.977 91.2894 117.976 91.2145C117.97 90.6561 115.87 87.6135 115.007 87.4221C114.144 87.2321 112.924 90.0819 114.003 91.6578C114.558 92.4667 115.91 95.2372 115.91 95.2372L118.148 94.0887C118.148 94.0887 118.277 93.087 118.594 92.8351C118.911 92.5833 118.856 91.026 118.945 90.3755C118.946 90.374 118.575 90.079 118.275 90.695Z" fill="#FFB27D"/>
<path d="M132.232 224.942C132.044 223.161 131.998 218.478 131.998 218.478C131.998 218.478 136.8 216.953 136.623 218C135.754 223.149 135.99 225.699 135.99 225.699L134.048 226.852L132.232 224.942Z" fill="#FFB27D"/>
<path d="M158.658 151.285C158.658 151.285 140.108 201.817 136.457 223.737C136.457 223.737 135.611 224.314 134.032 224.123C132.242 223.905 131.753 222.671 131.753 222.671C131.753 222.671 128.402 196.399 135.062 187.278C139.639 181.012 133.088 153.492 143.747 151.285C154.405 149.079 158.658 151.285 158.658 151.285Z" fill="#F99746"/>
<path d="M155.364 102.676C155.364 102.674 155.364 102.674 155.364 102.674C155.361 102.653 155.355 102.63 155.348 102.61C155.239 102.165 155.12 101.727 154.993 101.293C154.993 101.291 154.993 101.291 154.993 101.291C154.605 99.9629 154.143 98.6978 153.645 97.5809C153.358 96.9404 153.061 96.3475 152.757 95.8178C152.71 95.7358 152.666 95.6609 152.621 95.5818L152.619 95.5803C151.902 94.3829 151.165 93.5553 150.5 93.2991C149.287 92.8328 147.938 92.9623 147.01 93.1552C147.214 92.8731 147.676 92.7119 147.676 92.7119C147.083 92.7119 145.872 93.4747 145.872 93.4747C137.329 91.5764 137.827 103.587 138.409 106.309C138.988 109.032 136.238 110.354 132.358 113.139C124.955 118.454 125.079 124.088 125.079 124.088C125.146 124.115 125.218 124.148 125.295 124.185C125.593 123.457 126.225 122.077 126.887 121.785C126.868 121.85 126.329 123.637 126.176 124.637C127.304 125.255 128.864 126.212 130.558 127.29C130.558 127.29 130.558 127.29 130.56 127.291C132.827 128.733 135.33 130.393 137.334 131.74C137.239 131.192 137.145 130.41 137.285 129.968L137.924 131.936L138.008 132.192C139.288 133.054 140.298 133.743 140.81 134.098C140.862 134.134 140.909 134.165 140.951 134.194C141.1 134.296 141.181 134.352 141.181 134.352C141.01 133.657 141.757 131.845 143.012 129.56C143.097 129.4 143.188 129.239 143.281 129.075C143.686 128.352 144.138 127.592 144.623 126.806C144.799 126.523 144.975 126.239 145.159 125.95C145.159 125.948 145.161 125.949 145.161 125.949C145.307 125.715 145.456 125.485 145.611 125.25L145.613 125.249C145.976 124.691 146.351 124.129 146.735 123.567C147.728 122.109 148.78 120.661 149.818 119.334C151.327 117.401 152.807 115.721 154.047 114.622C154.088 114.538 154.127 114.453 154.16 114.368C154.354 113.921 154.503 113.423 154.618 112.916C154.654 112.764 154.686 112.611 154.713 112.458C155.022 110.842 155.028 109.239 155.025 108.857C155.125 110.419 155.084 111.596 154.98 112.487C154.957 112.683 154.931 112.863 154.9 113.031V113.033C154.834 113.413 154.758 113.726 154.676 113.987C154.878 113.736 155.057 113.462 155.214 113.162C155.317 112.966 155.411 112.761 155.495 112.545C156.499 110.009 156.23 106.225 155.364 102.676Z" fill="#163560"/>
<path d="M153.759 114.844C153.788 114.853 151.366 116.593 149.314 116.349C147.384 116.121 145.812 113.908 145.837 113.9C146.6 113.628 146.665 112.521 145.959 107.911L146.325 107.928L152.476 108.221C152.476 108.221 152.619 110.109 152.878 111.871C153.094 113.347 153.394 114.736 153.759 114.844Z" fill="#FFB27D"/>
<path d="M152.474 108.219C152.474 108.219 152.618 110.107 152.877 111.869C149.52 112.269 147.298 109.5 146.324 107.927L152.474 108.219Z" fill="#ED975D"/>
<path d="M145.61 107.373C145.61 107.373 143.446 104.88 142.673 102.59C142.121 100.955 142.05 94.6021 148.479 94.569C148.479 94.569 150.334 94.4783 152.225 95.3778C153.73 96.0931 155.998 97.7814 154.606 103.54L154.308 105.46L145.61 107.373Z" fill="#163560"/>
<path d="M163.443 150.316C163.443 150.316 155.44 155.042 145.391 152.613C145.272 152.584 137.117 151.29 137.117 151.29C137.258 150.909 138.312 144.648 138.45 144.298C140.232 139.726 143.491 114.913 146.212 113.69C146.907 114.443 148.894 114.956 150.595 114.807C152.553 114.635 153.207 113.795 153.045 112.89C155.212 113.907 156.876 114.854 156.876 114.854C158.857 117.802 163.443 150.316 163.443 150.316Z" fill="white"/>
<path d="M153.84 109.721C153.84 109.721 145.95 111.019 145.211 106.124C144.473 101.228 142.958 98.0992 147.965 97.063C152.971 96.0267 154.234 97.7481 154.88 99.3226C155.526 100.897 155.873 109.256 153.84 109.721Z" fill="#FFB27D"/>
<path d="M151.549 96.4095C151.549 96.4095 150.243 102.474 147.046 103.814C143.85 105.156 142.276 104.484 142.276 104.484C142.276 104.484 144.523 102.094 144.528 98.5021C144.526 98.5036 149.505 93.9181 151.549 96.4095Z" fill="#163560"/>
<path d="M151.081 96.9568C151.081 96.9568 152.89 98.0003 153.471 99.1891C154.052 100.378 154.613 102.918 155.353 102.72C155.353 102.72 156.401 98.5746 154.237 96.6359C151.941 94.5806 151.081 96.9568 151.081 96.9568Z" fill="#163560"/>
<path d="M175.658 85.4701C175.336 85.3578 174.864 85.0916 174.247 85.0369C173.698 84.9879 173.008 85.165 173.008 85.165C173.008 85.165 170.782 98.917 170.617 99.6467C170.451 100.375 161.068 110.88 158.538 110.838C156.254 110.801 153.548 112.552 153.045 112.889C153.045 112.889 158.364 124.069 158.631 126.169C158.919 128.455 161.674 163.643 161.674 163.643C161.674 163.643 161.51 165.279 164.588 164.4C167.665 163.519 168.435 162.791 168.435 162.791C168.435 162.791 165.609 135.088 165.015 126.473C164.935 125.316 164.745 124.246 164.475 123.259C164.214 122.306 164.42 121.289 165.005 120.491C168.896 115.183 175.041 106.582 175.383 104.755C175.885 102.068 175.658 85.4701 175.658 85.4701Z" fill="#2B478B"/>
<path d="M143.303 231.567H130.015C130.015 231.567 129.696 229.555 130.39 228.028C131.055 226.563 132.09 225.659 132.184 224.536C133.029 225.4 134.067 225.955 135.989 225.699C136.225 226.078 137.508 228.108 138.295 228.668C139.164 229.289 143.035 229.068 143.303 231.567Z" fill="#233862"/>
<path d="M152.429 127.255C151.982 124.516 146.264 113.52 146.264 113.52C146.264 113.52 142.649 112.446 140.271 113.303C137.892 114.159 125.585 107.253 125.189 106.617C124.795 105.981 118.203 93.7734 118.203 93.7734C118.203 93.7734 117.657 93.4582 116.781 93.913C115.915 94.362 115.91 95.2385 115.91 95.2385C115.91 95.2385 120.998 110.608 122.352 112.986C123.169 114.419 130.031 119.412 135.352 123.15C136.367 123.864 136.901 125.078 136.735 126.305C136.019 131.561 135.837 134.52 135.014 143.54C134.332 151.021 134.07 165.507 134.07 165.507C134.07 165.507 140.024 167.555 144.132 167.826C148.241 168.098 149.138 163.793 149.138 163.793C149.138 163.793 152.89 130.07 152.429 127.255Z" fill="#2B478B"/>
<path d="M151.253 107.301C151.253 107.301 152.212 107.861 153.343 107.691C154.118 107.576 154.295 106.662 154.295 106.662C154.295 106.662 153.756 106.493 152.896 106.665C152.037 106.837 151.253 107.301 151.253 107.301Z" fill="white"/>
<path d="M304.956 106.275C304.956 106.275 307.406 110.289 302.798 112.816C302.798 112.816 306.34 114.086 307.574 113.606C307.574 113.606 307.269 113.923 307.036 114.038C307.036 114.038 310.365 115.089 312.025 114.515C313.684 113.94 317.257 97.9214 307.431 97.0766C307.431 97.0766 299.68 94.319 298.042 102.914C296.403 111.511 293.418 110.676 293.418 110.676C293.418 110.676 294.142 111.283 294.543 111.396C294.543 111.396 295.187 111.354 295.386 111.091C295.386 111.091 295.138 111.525 294.946 111.632C294.946 111.632 298.088 112.812 300.013 112.147C301.938 111.482 304.924 108.134 304.956 106.275Z" fill="#163560"/>
<path d="M295.09 232.738H307.626C307.626 232.738 307.928 230.84 307.272 229.399C306.645 228.017 305.668 227.164 305.579 226.104C304.782 226.919 303.802 227.444 301.99 227.201C301.768 227.56 300.556 229.474 299.815 230.003C298.996 230.588 295.342 230.379 295.09 232.738Z" fill="#233862"/>
<path d="M305.45 227.978C305.45 227.978 304.38 228.322 303.264 228.422C301.289 228.596 301.002 228.013 301.002 228.013C301.002 228.013 299.04 210.654 292.688 177.471C291.771 172.678 291.41 170.026 291.079 165.765C290.98 164.49 290.883 163.071 290.778 161.407C290.489 156.936 291.173 149.408 294.55 147.431C296.085 146.53 298.177 146.777 300.991 148.978C301.211 149.151 301.44 149.338 301.67 149.536C309.9 156.612 306.526 176.933 306.859 186.486C306.915 188.069 307.072 189.358 307.401 190.241C307.825 191.383 308.737 192.964 308.944 194.455C310.669 206.844 305.45 227.978 305.45 227.978Z" fill="#2B478B"/>
<path d="M306.856 186.485L291.077 165.765C290.979 164.49 290.882 163.071 290.776 161.407C290.488 156.935 291.171 149.408 294.549 147.431L300.989 148.978C301.209 149.151 301.438 149.338 301.668 149.536C309.899 156.612 306.524 176.932 306.856 186.485Z" fill="#233862"/>
<path d="M351.455 206.518L346.237 195.189C346.237 195.189 344.374 195.708 343.329 196.899C342.325 198.042 341.598 197.839 339.313 196.262C340.173 197.583 340.29 198.362 340.822 200.1C341.242 200.152 343.631 202.45 346.08 203.084C347.056 203.337 349.193 207.272 351.455 206.518Z" fill="#233862"/>
<path d="M296.752 152.402C296.752 152.402 307.986 191.211 312.102 193.71C316.217 196.208 337.859 199.644 342.257 201.518C342.257 201.518 342.793 200.755 342.479 199.123C342.409 198.76 341.788 197.458 341.788 197.458C341.788 197.458 328.349 187.418 319.504 186.404C317.308 186.152 323.973 152.84 309.14 151.51C295.589 150.294 296.752 152.402 296.752 152.402Z" fill="#2B478B"/>
<path d="M280.724 88.7299C280.724 88.7299 281.027 87.2331 281.367 86.0903C281.517 85.5851 280.467 82.2634 279.742 81.8546C279.016 81.4459 277.123 83.6825 277.659 85.3995C277.935 86.2817 278.386 89.1516 278.386 89.1516L280.724 88.7299Z" fill="#FFB27D"/>
<path d="M280.724 88.7303C280.724 88.7303 281.119 87.8624 281.475 87.7214C281.832 87.5803 282.214 86.1612 282.476 85.5985C282.476 85.5985 282.223 85.23 281.781 85.7035C281.512 85.9928 280.909 86.8391 280.909 86.8391L280.724 88.7303Z" fill="#FFB27D"/>
<path d="M332.475 93.7671C332.552 93.9255 332.659 94.2061 332.754 94.4709C332.755 94.399 332.756 94.327 332.756 94.2565C332.761 93.7297 334.743 90.8584 335.557 90.6785C336.373 90.4986 337.523 93.1871 336.505 94.6739C335.982 95.4381 334.704 98.0503 334.704 98.0503L332.593 96.9666C332.593 96.9666 332.471 96.021 332.171 95.7835C331.872 95.5446 331.925 94.0766 331.84 93.462C331.843 93.4635 332.192 93.1857 332.475 93.7671Z" fill="#FFB27D"/>
<path d="M298.998 116.55C298.97 116.557 301.254 118.201 303.192 117.969C305.014 117.753 306.495 115.666 306.472 115.658C305.752 115.402 305.69 114.358 306.358 110.009L306.013 110.025L300.21 110.301C300.21 110.301 300.074 112.083 299.829 113.744C299.623 115.138 299.341 116.449 298.998 116.55Z" fill="#FFB27D"/>
<path d="M300.209 110.302C300.209 110.302 300.072 112.084 299.828 113.744C302.995 114.123 305.091 111.509 306.01 110.025L300.209 110.302Z" fill="#ED975D"/>
<path d="M306.685 109.501C306.685 109.501 308.727 107.149 309.456 104.989C309.976 103.446 310.044 97.4531 303.977 97.4214C303.977 97.4214 302.226 97.3351 300.442 98.1842C299.022 98.8592 296.882 100.452 298.195 105.886L298.476 107.696L306.685 109.501Z" fill="#163560"/>
<path d="M291.719 150.908C291.719 150.908 297.411 154.478 306.891 152.185C307.002 152.158 312.281 151.322 312.281 151.322C312.149 150.962 306.603 141.854 306.472 141.523C304.791 137.21 308.685 116.617 306.117 115.461C305.461 116.171 303.587 116.657 301.984 116.515C300.138 116.352 299.518 115.559 299.671 114.707C297.628 115.667 296.056 116.561 296.056 116.561C294.187 119.341 291.719 150.908 291.719 150.908Z" fill="#FFB27D"/>
<path d="M298.921 111.717C298.921 111.717 306.365 112.944 307.062 108.324C307.758 103.705 309.188 100.752 304.465 99.7745C299.741 98.7972 298.55 100.421 297.941 101.907C297.329 103.393 297.002 111.28 298.921 111.717Z" fill="#FFB27D"/>
<path d="M301.082 99.1601C301.082 99.1601 302.314 104.883 305.33 106.148C308.345 107.413 309.831 106.778 309.831 106.778C309.831 106.778 307.709 104.524 307.706 101.135C307.708 101.135 303.009 96.8084 301.082 99.1601Z" fill="#163560"/>
<path d="M301.524 99.6735C301.524 99.6735 299.816 100.658 299.269 101.779C298.72 102.9 298.191 105.298 297.493 105.11C297.493 105.11 296.505 101.198 298.547 99.3698C300.711 97.4326 301.524 99.6735 301.524 99.6735Z" fill="#163560"/>
<path d="M334.222 98.0522C334.222 98.0522 329.421 112.554 328.144 114.796C327.375 116.149 318.726 121.5 313.706 125.027C313.651 125.064 313.587 125.142 313.514 125.255C313.512 125.258 313.511 125.26 313.508 125.263C312.255 127.188 308.361 139.105 309.292 141.244C313.207 150.234 315.89 153.711 316.866 156.232C317.354 157.49 316.703 158.899 315.425 159.351C313.816 159.92 311.447 160.637 308.652 161.113C308.119 161.205 307.57 161.287 307.008 161.358C299.293 162.331 294.069 160.531 291.418 159.202C290.163 158.573 289.406 157.264 289.484 155.871C289.644 153.027 291.074 150.212 291.72 143.373C292.21 138.183 287.703 130.286 287.894 127.524C287.969 126.431 288.834 125.124 289.302 124.277C289.302 124.277 289.302 124.275 289.303 124.274C290.132 122.774 290.586 121.42 290.035 120.669C286.363 115.661 278.436 108.756 278.111 107.032C277.638 104.497 277.852 88.8367 277.852 88.8367C278.155 88.7316 278.601 88.4798 279.183 88.428C279.701 88.3819 280.352 88.5488 280.352 88.5488C280.352 88.5488 282.452 101.525 282.608 102.212C282.764 102.898 291.616 112.81 294.003 112.77C296.158 112.734 299.198 114.388 299.67 114.706C299.67 114.706 297.735 118.112 297.253 122.714C296.917 125.932 299.079 124.501 300.439 122.298C302.278 119.314 305.981 115.066 305.981 115.066C305.981 115.066 308.994 114.287 311.238 115.096C313.483 115.903 325.095 109.386 325.467 108.788C325.841 108.187 332.06 96.6705 332.06 96.6705C332.06 96.6705 332.575 96.3741 333.402 96.8015C334.218 97.2261 334.222 98.0522 334.222 98.0522Z" fill="#F99746"/>
<path d="M301.082 109.21C301.082 109.21 300.763 109.848 300.335 109.861C299.906 109.872 298.818 109.77 298.744 109.659C298.671 109.548 298.489 108.882 298.489 108.882C298.489 108.882 300.29 108.81 301.082 109.21Z" fill="white"/>
<path d="M315.425 159.352C313.816 159.921 311.447 160.638 308.652 161.114C305.99 157.467 301.484 152.877 302.645 144.437C303.842 135.713 312.474 126.53 313.509 125.264C312.257 127.189 308.362 139.106 309.293 141.245C313.208 150.235 315.892 153.712 316.868 156.233C317.353 157.491 316.703 158.9 315.425 159.352Z" fill="#ED7D2B"/>
<path d="M289.302 124.273C290.13 122.774 290.585 121.419 290.033 120.668C286.362 115.661 278.434 108.755 278.11 107.031C278.896 108.905 288.497 114.502 291.196 116.909C293.867 119.285 289.41 124.157 289.302 124.273Z" fill="#ED7D2B"/>
<path d="M128.15 55.215C128.15 55.215 129.948 57.6646 129.756 60.4581C129.612 62.5321 127.753 64.6291 127.627 64.7126L130.562 66.2684C130.562 66.2684 132.739 62.427 132.006 59.2175C131.782 58.2345 130.741 56.6614 129.976 55.9605C129.133 55.1876 128.15 55.215 128.15 55.215Z" fill="#6BB7BF"/>
<path d="M122.148 55.4742L120.289 51.3896C120.289 51.3896 128.965 51.6818 131.84 58.7068C131.84 58.7082 125.769 54.4049 122.148 55.4742Z" fill="#86D1CD"/>
<path d="M89.3757 159.383C89.3757 159.383 87.3076 157.831 86.7747 155.513C86.3779 153.791 87.3728 151.633 87.4539 151.535L84.6834 150.986C84.6834 150.986 83.8622 154.641 85.2526 157.07C85.6783 157.814 86.9137 158.84 87.7088 159.223C88.5821 159.645 89.3757 159.383 89.3757 159.383Z" fill="#6BB7BF"/>
<path d="M94.1897 157.706L96.7111 160.573C96.7111 160.573 89.5857 162.454 85.5118 157.444C85.5118 157.444 91.5119 159.461 94.1897 157.706Z" fill="#86D1CD"/>
<path d="M406.505 172.73C406.505 172.73 406.324 170.037 411.412 168.733C413.692 168.149 418.769 169.188 415.551 174.152C412.203 179.316 409.219 177.451 409.219 177.451C409.219 177.451 416.201 172.019 413.408 169.536C410.324 166.796 409.14 172.226 409.14 172.226C409.14 172.226 407.896 172.162 406.505 172.73Z" fill="#F1A34F"/>
<path d="M408.31 177.762C408.31 177.762 406.407 176.737 407.162 174.466L409.896 174.938C409.896 174.938 408.844 177.398 411.416 177.696C411.416 177.694 408.941 178.278 408.31 177.762Z" fill="#DB7714"/>
<path d="M229.898 33.3143C229.898 33.3143 232.741 29.2456 237.1 32.127L239.754 29.604C239.754 29.604 237.274 27.7329 231.553 31.0893C227.809 33.2841 229.898 33.3143 229.898 33.3143Z" fill="#5685D8"/>
<path d="M227.092 37.3022C227.092 37.3022 226.53 32.6318 234.396 29.7188C234.396 29.7188 231.553 31.0875 230.675 35.7434L227.092 37.3022Z" fill="#739AF0"/>
<path d="M258.695 12.534C258.695 12.534 261.019 11.0746 261.264 9.31152C261.264 9.31152 263.527 9.43242 264.017 10.1621C264.017 10.1621 262.977 13.0795 261.753 13.6278C261.753 13.6278 259 13.8106 258.695 12.534Z" fill="#F99746"/>
<path d="M183.89 179.003C183.89 179.003 181.41 177.448 181.148 175.566C181.148 175.566 178.734 175.696 178.211 176.475C178.211 176.475 179.321 179.588 180.625 180.171C180.627 180.171 183.562 180.365 183.89 179.003Z" fill="#F99746"/>
<path d="M285.678 58.5016C285.678 58.5016 288.169 56.9386 288.431 55.0488C288.431 55.0488 290.857 55.1798 291.381 55.9613C291.381 55.9613 290.268 59.0874 288.955 59.6746C288.955 59.6746 286.005 59.8703 285.678 58.5016Z" fill="#86D1CD"/>
<path d="M334.154 130.174C334.154 130.174 332.714 128.437 331.94 128.194C331.165 127.951 329.667 126.798 329.472 127.273C329.276 127.748 330.478 128.48 330.416 129.023C330.352 129.565 326.593 130.438 326.616 131.012C326.639 131.586 327.501 132.975 328.935 132.815C330.368 132.656 334.006 131.798 334.754 132.169C335.498 132.539 334.154 130.174 334.154 130.174Z" fill="#FFB27D"/>
<path d="M372.934 121.726C370.811 124.56 368.324 126.799 365.771 128.564C357.653 134.177 348.846 135.013 348.846 135.013C346.736 134.342 340.253 133.64 336.422 133.027H336.42C334.751 132.761 333.585 132.509 333.507 132.287L333.604 128.971C333.604 128.971 347.665 128.233 349.993 127.159C353.665 124.016 356.909 119.934 359.022 116.745C360.808 114.052 362.806 112.063 366.099 110.896C370.863 109.207 379.526 112.926 372.934 121.726Z" fill="#AEC3FF"/>
<path d="M366.488 126.478L365.771 128.565C357.653 134.178 348.846 135.014 348.846 135.014C347.151 135.014 340.253 133.641 336.422 133.028C336.574 133.041 346.852 133.838 349.125 133.605C351.413 133.37 362.068 124.192 362.068 124.192L366.488 126.478Z" fill="#9DB0F4"/>
<path d="M357.307 231.567H372.845C373.959 230.817 372.546 223.481 372.546 223.481C372.546 223.481 368.305 221.882 367.572 225.133C366.838 228.383 362.17 229.417 359.701 229.812C358.011 230.087 357.477 231.01 357.307 231.567Z" fill="#233862"/>
<path d="M380.353 231.567H395.893C397.006 230.817 395.593 223.481 395.593 223.481C395.593 223.481 391.352 221.882 390.62 225.133C389.885 228.383 385.218 229.417 382.748 229.812C381.057 230.087 380.523 231.01 380.353 231.567Z" fill="#233862"/>
<path d="M361.488 156.73C361.488 156.73 362.186 165.39 363.007 175.8C364.123 189.941 367.132 225.001 367.132 225.001C367.132 225.001 369.105 226.673 373.475 225.758C373.475 225.758 377.194 213.663 378.307 199.859C378.324 199.633 378.341 199.404 378.359 199.176C379.393 185.124 381.002 155.531 381.002 155.531L361.488 156.73Z" fill="#2B478B"/>
<path d="M361.251 153.737C361.251 153.737 362.188 165.389 363.009 175.8L378.308 199.858C378.326 199.632 378.343 199.403 378.36 199.176C379.394 185.123 381.003 155.531 381.003 155.531L361.251 153.737Z" fill="#233862"/>
<path d="M365.71 153.738C365.71 153.738 376.806 181.187 380.353 191.593C382.88 199.005 390.006 225.005 390.006 225.005C390.006 225.005 393.105 225.942 395.709 224.13C395.709 224.13 398.361 197.566 393.005 190.076C390.163 186.102 392.298 148.767 380.779 148.446C369.259 148.128 365.71 153.738 365.71 153.738Z" fill="#2B478B"/>
<path d="M370.666 113.272C372.36 114.158 374.013 114.214 375.446 113.911C376.757 113.637 377.884 113.062 378.685 112.552C379.507 112.03 379.991 111.573 379.991 111.573C379.991 111.573 379.933 111.491 379.837 111.329C379.336 110.478 377.82 107.42 378.495 102.506C378.504 102.441 378.014 102.533 377.274 102.706C375.073 103.224 370.645 104.472 370.45 104.527C370.446 104.527 370.443 104.527 370.443 104.527C370.443 104.527 370.389 105.56 370.207 107.413C370.192 107.575 370.175 107.746 370.157 107.923C370.134 108.141 370.113 108.371 370.085 108.609C369.879 110.537 370.666 113.272 370.666 113.272Z" fill="#FFB27D"/>
<path d="M370.207 107.415C373.494 108.163 378.399 103.34 378.399 103.34C378.04 103.075 377.664 102.865 377.276 102.707C375.074 103.225 370.647 104.473 370.451 104.528C370.447 104.528 370.444 104.528 370.444 104.528C370.444 104.528 370.389 105.563 370.207 107.415Z" fill="#ED975D"/>
<path d="M369.09 104.269C369.09 104.269 370.441 104.751 372.165 104.981C374.685 105.32 377.998 105.12 379.039 102.09C380.793 96.9907 383.032 93.9323 377.872 91.8497C375.11 90.7343 373.344 90.6753 372.143 91.1013C371.1 91.4683 370.486 92.2023 370.02 92.9277C369.018 94.4879 367.003 103.375 369.09 104.269Z" fill="#FFB27D"/>
<path d="M365.959 93.3293C368.947 95.4637 373.08 93.3653 374.365 93.9338C375.648 94.5009 375.878 96.6396 375.901 97.3189C375.924 97.9997 376.014 98.5725 377.756 98.1652C378.042 98.099 378.247 98.1177 378.389 98.2026C379.112 98.6286 378.188 100.695 377.91 101.142C377.91 101.142 377.509 102.621 378.399 103.342C378.507 103.429 380.255 104.187 384.468 97.7809C385.129 96.7749 385.762 94.5095 384.74 92.329C383.719 90.1471 379.449 88.0401 375.829 86.9218C374.472 86.5029 373.467 86.5188 372.679 86.8052C371.367 87.2816 370.666 88.515 369.972 89.7528C368.806 91.8325 365.959 93.3293 365.959 93.3293Z" fill="#A9453D"/>
<path d="M385.181 155.656C385.181 155.656 383.736 155.966 381.907 156.274C380.118 156.572 377.962 156.866 376.44 156.854C368.648 156.794 362.128 154.514 362.128 154.514C360.664 154.514 359.994 152.26 359.755 149.114C359.592 146.984 359.627 144.444 359.743 141.919C359.781 141.1 359.829 140.281 359.879 139.48C359.982 137.889 360.102 136.362 360.211 135.012C360.314 133.744 360.406 132.635 360.461 131.773C360.461 131.771 360.253 125.745 360.335 120.444C360.393 116.639 362.543 113.175 363.08 112.61C364.64 110.971 369.158 109.935 370.063 109.791C370.133 109.781 370.169 109.775 370.169 109.775C373.885 111.849 378.889 109.047 378.889 109.047C379.002 109.066 379.113 109.093 379.223 109.116C379.591 109.038 383.347 109.591 384.221 110.064C386.382 111.235 387.638 124.219 387.638 124.219C387.998 133.041 387.545 147.165 388.247 152.557C388.476 154.336 386.747 155.297 385.181 155.656Z" fill="#AEC3FF"/>
<path d="M379.197 109.124C379.197 109.124 373.661 114.799 369.703 113.636C369.703 113.636 369.175 112.87 370.958 112.624C372.74 112.378 374.664 112.479 379.197 109.124Z" fill="#9DB0F4"/>
<path d="M369.051 100.976C369.051 100.976 368.942 101.637 370.488 102.163C370.488 102.163 371.784 102.605 372.021 101.929C372.021 101.929 370.99 100.953 369.051 100.976Z" fill="white"/>
<path d="M382.233 130.593C382.233 130.593 374.192 143.958 369.63 146.311C366.545 147.901 362.227 148.739 359.753 149.116C359.591 146.986 359.626 144.446 359.742 141.921C363.009 141.527 367.986 140.899 367.986 140.899L382.233 130.593Z" fill="#9DB0F4"/>
<path d="M371.642 123.877L367.357 139.251C367.357 139.251 362.314 139.568 359.879 139.48C359.982 137.889 359.985 137.836 360.094 136.486C360.092 136.486 365.882 133.487 371.642 123.877Z" fill="#9DB0F4"/>
<path d="M345.834 140.39C345.834 140.39 344.395 138.653 343.62 138.41C342.845 138.166 341.346 137.014 341.152 137.489C340.956 137.964 342.158 138.696 342.096 139.239C342.032 139.781 338.273 140.653 338.296 141.228C338.319 141.802 339.181 143.191 340.615 143.031C342.048 142.871 345.686 142.014 346.434 142.385C347.18 142.755 345.834 140.39 345.834 140.39Z" fill="#FFB27D"/>
<path d="M388.082 119.06C388.082 119.06 388.336 127.204 369.659 143.54L365.908 136.864C365.217 136.464 377.974 109.199 381.639 109.417C388.744 109.839 388.082 119.06 388.082 119.06Z" fill="#AEC3FF"/>
<path d="M368.143 136.067C368.143 136.067 346.904 138.481 346.118 138.9C345.332 139.319 343.644 140.952 344.206 143C344.206 143 355.201 144.373 361.249 144.349C366.467 144.327 369.843 143.495 369.843 143.495L368.143 136.067Z" fill="#AEC3FF"/>
<path d="M444.532 232.738H45.491C45.2216 232.738 45 232.519 45 232.251V231.992C45 231.725 45.2201 231.506 45.491 231.506H444.534C444.803 231.506 445.023 231.725 445.023 231.992V232.251C445.023 232.518 444.803 232.738 444.532 232.738Z" fill="#2E3552"/>
<path d="M501.505 232.888H24.4951C24.2221 232.888 24 232.666 24 232.393C24 232.12 24.2221 231.898 24.4951 231.898H501.505C501.776 231.898 502 232.12 502 232.393C502 232.666 501.778 232.888 501.505 232.888Z" fill="#2E3552"/>
</g>
</g>
</g>
<defs>
<clipPath id="clip0_1715_7973">
<rect width="524" height="278" fill="white"/>
</clipPath>
<clipPath id="clip1_1715_7973">
<rect width="465" height="238" fill="white" transform="translate(45 -4)"/>
</clipPath>
<clipPath id="clip2_1715_7973">
<rect width="400.023" height="238" fill="white" transform="translate(45 -5)"/>
</clipPath>
</defs>
</svg>
