<svg width="540" height="281" viewBox="0 0 540 281" fill="none" xmlns="http://www.w3.org/2000/svg">
<g clip-path="url(#clip0_1715_7962)">
<path d="M30.0233 256.203C30.0233 256.203 -26.4477 190.891 20.4726 120.178C62.1037 57.4388 110.642 61.7269 146.253 87.1886C161.42 98.0332 206.01 109.413 243.229 45.5728C291.875 -20.9189 469.065 -9.57397 436.986 124.371C421.462 189.19 484.232 191.547 452.249 256.34L30.0249 256.203H30.0233Z" fill="#EBF3FA"/>
<path d="M281.859 228.805C281.859 228.767 282.037 224.55 280.269 223.579L280.394 223.44C281.204 223.766 282.1 224.775 282.46 226.196C282.728 227.254 282.525 227.486 282.525 227.525L281.859 228.803V228.805Z" fill="#A4C8FC"/>
<path d="M270.141 217.874C270.141 217.874 270.746 223.304 273.618 224.892C276.491 226.48 280.543 223.629 280.543 223.629C280.543 223.629 279.938 218.199 277.066 216.611C274.194 215.021 270.141 217.874 270.141 217.874Z" fill="#A4C8FC"/>
<path d="M281.558 236.716C281.524 236.503 280.887 231.536 282.517 226.002C284.085 220.684 283.216 216.174 283.209 216.129H284.362C284.391 216.321 284.472 220.748 283.243 226.813C282.138 232.271 284.201 236.716 283.762 236.716H281.556H281.558Z" fill="#A4C8FC"/>
<path d="M283.978 222.053C283.984 222.025 284.534 218.386 286.015 217.973C285.354 218.072 284.513 218.619 284.043 219.636C283.692 220.392 283.816 220.605 283.809 220.635L283.979 222.053H283.978Z" fill="#A4C8FC"/>
<path d="M288.731 222.43C286.516 221.914 285.281 218.306 285.281 218.306C285.281 218.306 287.635 215.533 289.847 216.047C292.062 216.563 293.297 220.171 293.297 220.171C293.297 220.171 290.943 222.943 288.731 222.43Z" fill="#A4C8FC"/>
<path d="M271.535 210.67C268.011 204.502 269.491 196.206 274.844 192.144C280.196 188.082 287.391 189.788 290.915 195.957C294.439 202.125 292.959 210.421 287.607 214.483C282.255 218.545 275.059 216.839 271.535 210.67Z" fill="#FFB93E"/>
<path d="M287.116 213.621C284.757 215.411 281.935 216.035 279.17 215.379C276.405 214.724 274.025 212.865 272.472 210.146C270.919 207.427 270.378 204.174 270.947 200.987C271.516 197.799 273.129 195.056 275.487 193.266C277.846 191.476 280.668 190.852 283.433 191.508C286.199 192.164 288.578 194.023 290.131 196.741C291.684 199.46 292.225 202.713 291.656 205.901C291.087 209.088 289.474 211.831 287.116 213.621ZM275.834 193.875C271.257 197.351 269.986 204.471 273.001 209.748C276.016 215.024 282.193 216.489 286.771 213.016C291.348 209.541 292.619 202.42 289.606 197.143C286.591 191.867 280.413 190.402 275.836 193.875H275.834Z" fill="#FFA412"/>
<path d="M284.205 205.478C284.103 205.24 283.983 205.05 283.846 204.902C283.71 204.755 283.545 204.646 283.349 204.575C283.153 204.504 282.926 204.467 282.663 204.463C282.402 204.459 282.096 204.486 281.744 204.54C281.138 204.629 280.575 204.68 280.055 204.695C279.535 204.71 279.06 204.654 278.63 204.529C278.201 204.403 277.817 204.189 277.476 203.884C277.137 203.579 276.847 203.152 276.607 202.598C276.4 202.12 276.283 201.64 276.259 201.162C276.234 200.683 276.296 200.218 276.442 199.766C276.588 199.316 276.813 198.888 277.115 198.484C277.416 198.08 277.794 197.716 278.244 197.393L277.458 195.584L278.721 194.855L279.519 196.688C280 196.494 280.472 196.397 280.93 196.391C281.389 196.388 281.82 196.477 282.222 196.66C282.624 196.844 282.994 197.122 283.329 197.496C283.667 197.869 283.957 198.336 284.201 198.901L281.921 200.218C281.627 199.542 281.277 199.112 280.87 198.927C280.465 198.742 280.042 198.776 279.606 199.028C279.369 199.164 279.181 199.321 279.044 199.495C278.906 199.671 278.81 199.856 278.757 200.052C278.703 200.248 278.69 200.452 278.716 200.663C278.742 200.874 278.8 201.083 278.891 201.292C278.982 201.502 279.091 201.674 279.215 201.814C279.342 201.952 279.501 202.057 279.692 202.126C279.883 202.195 280.113 202.232 280.381 202.236C280.648 202.24 280.971 202.219 281.345 202.171C281.952 202.096 282.514 202.053 283.033 202.042C283.551 202.032 284.026 202.09 284.458 202.219C284.889 202.348 285.273 202.563 285.613 202.867C285.952 203.172 286.241 203.598 286.479 204.144C286.694 204.639 286.813 205.128 286.834 205.609C286.855 206.091 286.792 206.552 286.643 206.999C286.494 207.443 286.263 207.866 285.954 208.264C285.642 208.662 285.262 209.022 284.811 209.347L285.542 211.029L284.287 211.754L283.561 210.082C283.102 210.283 282.632 210.416 282.151 210.483C281.67 210.551 281.203 210.515 280.749 210.379C280.295 210.242 279.869 209.986 279.468 209.613C279.068 209.237 278.721 208.712 278.428 208.036L280.708 206.718C280.882 207.118 281.076 207.425 281.289 207.636C281.503 207.847 281.725 207.987 281.958 208.052C282.191 208.12 282.425 208.125 282.662 208.069C282.898 208.013 283.124 207.924 283.339 207.8C283.587 207.658 283.788 207.496 283.942 207.314C284.098 207.133 284.21 206.941 284.279 206.739C284.349 206.537 284.377 206.328 284.364 206.115C284.349 205.902 284.297 205.691 284.206 205.481L284.205 205.478Z" fill="#FFA412"/>
<path d="M293.152 235.425L293.15 235.436L292.92 239.534L292.061 254.745H276.002L275.056 239.741L274.796 235.606L274.785 235.425H293.152Z" fill="#B4C9F7"/>
<path d="M293.151 235.436L292.919 239.533C291.71 239.047 288.348 237.88 283.966 237.88C278.436 237.88 275.054 239.74 275.054 239.74L274.793 235.606L293.149 235.436H293.151Z" fill="#9BB8EA"/>
<path d="M293.71 237.591H274.202L273.979 234.977H293.958L293.71 237.591Z" fill="#B4C9F7"/>
<path d="M292.308 255.555H275.657L275.466 254.646H292.52L292.308 255.555Z" fill="#B4C9F7"/>
<path d="M466.472 255.448H0.528434C0.236589 255.448 0 255.721 0 256.057V256.267C0 256.603 0.236589 256.876 0.528434 256.876H466.472C466.763 256.876 467 256.603 467 256.267V256.057C467 255.721 466.763 255.448 466.472 255.448Z" fill="#2E3552"/>
<path d="M392.86 157.609L391.301 159.069C391.301 159.069 387.036 157.305 386.073 163.147C386.073 163.147 385.817 165.638 387.185 165.642C388.554 165.646 387.989 165.369 389.926 165.434C391.864 165.5 393.47 164.323 393.754 162.51L394.681 160.974L392.86 157.607V157.609Z" fill="#EA8E50"/>
<path d="M393.037 160.743C391.794 159.246 391.893 158.138 391.893 158.138C391.893 158.138 406.297 144.545 407.757 143.437C408.752 142.682 419.36 131.841 424.318 125.234C426.777 121.957 429.825 123.228 433.31 124.381L436.181 125.33C439.646 126.475 440.547 132.064 437.704 134.779C429.695 142.426 416.371 151.029 413.876 152.836C407.687 157.324 395.572 162.656 395.572 162.656C395.572 162.656 394.102 162.027 393.034 160.741L393.037 160.743Z" fill="#1E3D70"/>
<path d="M376.599 244.258C376.599 244.258 373.103 247.277 367.747 245.682C367.747 245.682 363.429 244.547 362.481 247.031C362.481 247.031 369.104 250.909 370.78 251.969C372.043 252.769 373.362 254.03 374.293 255.005C375.03 255.777 376.179 255.672 376.808 254.781C377.1 254.368 377.432 253.877 377.799 253.305C378.82 251.709 381.199 246.556 381.199 246.556L376.599 244.256V244.258Z" fill="#233862"/>
<path d="M416.243 137.761C418.065 122.344 408.701 108.143 395.326 106.042C381.951 103.941 369.631 114.736 367.809 130.153C365.986 145.569 375.351 159.77 388.726 161.871C402.1 163.972 414.42 153.177 416.243 137.761Z" fill="#E2810E"/>
<path d="M411.454 153.888C420.998 142.886 420.998 125.048 411.454 114.046C401.909 103.043 386.434 103.043 376.889 114.046C367.344 125.048 367.344 142.886 376.889 153.888C386.434 164.89 401.909 164.89 411.454 153.888Z" fill="#FFB93E"/>
<path d="M378.428 152.449C374.221 147.601 371.905 141.156 371.905 134.299C371.905 127.442 374.221 120.997 378.428 116.149C382.634 111.3 388.225 108.63 394.174 108.63C400.123 108.63 405.713 111.3 409.92 116.149C414.126 120.997 416.443 127.442 416.443 134.299C416.443 141.156 414.126 147.601 409.92 152.449C405.713 157.298 400.123 159.968 394.174 159.968C388.225 159.968 382.634 157.298 378.428 152.449ZM373.234 134.299C373.234 147.608 382.628 158.436 394.174 158.436C405.72 158.436 415.113 147.608 415.113 134.299C415.113 120.99 405.72 110.162 394.174 110.162C382.628 110.162 373.234 120.99 373.234 134.299Z" fill="#FFA412"/>
<path d="M391.468 143.073C391.658 143.467 391.917 143.796 392.243 144.059C392.571 144.323 392.961 144.51 393.415 144.622C393.871 144.734 394.386 144.749 394.965 144.67C395.47 144.601 395.957 144.457 396.428 144.241C396.898 144.022 397.305 143.699 397.649 143.273C397.993 142.845 398.245 142.303 398.408 141.645C398.571 140.988 398.604 140.192 398.508 139.256L403.844 138.525C404.006 140.106 403.925 141.494 403.598 142.688C403.272 143.882 402.778 144.902 402.116 145.749C401.455 146.595 400.667 147.281 399.753 147.806C398.84 148.331 397.879 148.723 396.869 148.981L397.273 152.896L394.337 153.297L393.932 149.364C392.812 149.398 391.778 149.271 390.833 148.987C389.886 148.703 389.058 148.267 388.35 147.682C387.641 147.098 387.062 146.369 386.617 145.494C386.171 144.62 385.889 143.604 385.769 142.443C385.638 141.165 385.717 140.031 386.009 139.043C386.301 138.054 386.761 137.159 387.39 136.358C388.019 135.556 388.795 134.82 389.718 134.145C390.64 133.471 391.673 132.796 392.814 132.118C393.52 131.701 394.107 131.309 394.574 130.945C395.042 130.58 395.41 130.209 395.676 129.831C395.944 129.454 396.119 129.059 396.2 128.646C396.282 128.234 396.299 127.785 396.248 127.297C396.198 126.81 396.09 126.363 395.924 125.958C395.757 125.552 395.529 125.214 395.239 124.938C394.948 124.663 394.593 124.465 394.175 124.342C393.757 124.218 393.271 124.194 392.716 124.271C391.695 124.411 390.92 124.915 390.39 125.782C389.862 126.649 389.679 127.875 389.842 129.456L384.506 130.186C384.37 128.869 384.412 127.656 384.628 126.55C384.845 125.444 385.215 124.461 385.738 123.602C386.262 122.742 386.93 122.008 387.74 121.402C388.552 120.797 389.478 120.343 390.52 120.04L390.079 115.75L393.032 115.347L393.469 119.577C394.589 119.543 395.616 119.682 396.553 119.986C397.49 120.293 398.314 120.745 399.024 121.343C399.734 121.941 400.309 122.677 400.748 123.553C401.188 124.429 401.465 125.427 401.58 126.546C401.713 127.837 401.633 128.979 401.342 129.967C401.05 130.956 400.589 131.847 399.96 132.643C399.332 133.437 398.552 134.17 397.621 134.839C396.693 135.507 395.649 136.167 394.493 136.821C393.82 137.193 393.255 137.559 392.799 137.914C392.344 138.271 391.979 138.641 391.707 139.026C391.434 139.411 391.253 139.824 391.16 140.263C391.068 140.704 391.05 141.199 391.108 141.754C391.159 142.241 391.279 142.682 391.47 143.079L391.468 143.073Z" fill="#FFA412"/>
<path d="M374.547 242.724C374.547 242.724 376.675 248.381 381.588 247.341C381.588 247.341 391.614 237.797 398.492 227.882C400.725 224.661 402.627 221.403 403.745 218.42C408.305 206.249 420.615 188.097 428.441 178.897L408.861 170.731C408.861 170.731 402.589 185.274 394.245 203.136C388.231 216.006 381.143 230.601 374.548 242.724H374.547Z" fill="#2B478B"/>
<path d="M394.245 203.136L398.494 227.882C400.727 224.661 402.629 221.403 403.747 218.42C408.307 206.249 420.616 188.097 428.442 178.897L408.863 170.731C408.863 170.731 402.591 185.274 394.247 203.136H394.245Z" fill="#233862"/>
<path d="M410.249 247.541C410.249 247.541 410.463 252.055 405.715 252.657C405.715 252.657 403.001 252.674 402.995 255.546L416.794 255.596C416.794 255.596 417.195 254.438 417.292 251.954C417.366 250.049 415.689 245.065 415.689 245.065L410.25 247.539L410.249 247.541Z" fill="#233862"/>
<path d="M415.283 170.732C415.283 170.732 406.561 181.78 401.024 201.685C398.01 212.515 406.545 239.744 408.209 249.204C408.209 249.204 413.935 249.765 417.849 248.019C417.849 248.019 418.147 228.479 415.857 213.419C414.576 204.99 427.341 195.394 432.921 180.164C436.716 169.803 432.099 169.979 426.426 169.73L415.285 170.732H415.283Z" fill="#2B478B"/>
<path d="M425.353 121.44C430.206 124.599 440.141 121.685 440.141 121.685C440.141 121.685 436.106 116.367 437.94 107.804L434.129 110.035L430.036 112.43C430.036 112.43 429.772 113.942 429.587 116.658C429.54 117.357 429.498 118.14 429.468 118.994C426.977 119.865 425.351 121.438 425.351 121.438L425.353 121.44Z" fill="#FFB07B"/>
<path d="M407.556 170.162C407.556 171.144 408.538 171.615 408.748 171.664C410.706 172.077 416.17 174.526 421.094 175.089C425.241 175.589 429.089 175.115 433.318 174.136C433.879 174.005 435.192 173.598 435.286 172.979C435.403 172.303 451.596 134.926 439.008 118.868C438.713 118.491 436.228 119.171 433.955 119.791C431.856 120.365 429.932 120.045 428.212 119.249L426.08 120.542C423.463 122.224 418.511 128.196 417.932 132.882C417.637 135.266 416.455 137.03 416.113 139.126C415.987 139.902 415.857 140.66 415.724 141.398C415.466 142.846 415.201 144.223 414.927 145.535C414.186 149.08 413.405 152.131 412.638 154.767C411.821 157.566 411.02 159.894 410.304 161.841C409.375 164.367 408.592 166.255 408.101 167.699C407.754 168.717 407.556 169.515 407.556 170.162Z" fill="#D2E3FC"/>
<path d="M408.101 167.699C430.961 155.285 438.878 131.445 438.878 131.445C438.878 131.445 420.305 139.343 415.724 141.399C415.467 142.847 415.201 144.224 414.927 145.535C414.186 149.08 413.405 152.131 412.638 154.768C411.821 157.567 411.02 159.895 410.304 161.842C409.375 164.368 408.592 166.255 408.101 167.699Z" fill="#A4C8FC"/>
<path d="M394.727 160.504L392.751 161.339C392.751 161.339 388.795 158.114 386.332 163.359C386.332 163.359 385.44 165.65 386.85 166.147C388.26 166.644 387.748 166.177 389.729 166.937C391.712 167.698 393.663 167.15 394.412 165.517L395.754 164.381L394.723 160.504H394.727Z" fill="#FFB07B"/>
<path d="M393.101 163.723C392.37 161.526 392.037 160.532 392.037 160.532C392.037 160.532 406.963 146.507 408.485 145.304C409.521 144.484 419.84 135.593 424.87 128.665C427.364 125.229 431.3 123.658 435.105 124.577L438.238 125.334C442.021 126.247 443.25 131.769 440.316 134.669C432.051 142.837 418.109 152.311 415.509 154.282C409.056 159.174 394.782 166.029 394.782 166.029C394.782 166.029 393.674 165.446 393.101 163.721V163.723Z" fill="#D2E3FC"/>
<path d="M429.587 116.662C434.359 116.97 437.463 112.43 437.463 112.43C437.463 112.43 435.306 111.053 434.129 110.038L430.036 112.433C430.036 112.433 429.772 113.945 429.587 116.662Z" fill="#EA8E50"/>
<path d="M427.554 111.013C427.554 111.013 434.785 116.994 437.947 111.747C441.11 106.499 444.174 103.737 439.69 99.6958C435.206 95.6543 433.093 96.9324 431.668 98.3879C430.243 99.8435 425.755 109.324 427.554 111.015V111.013Z" fill="#FFB07B"/>
<path d="M430.905 93.6461C431.164 91.6281 431.747 90.21 431.747 90.21C431.747 90.21 432.201 92.3774 435.636 92.0784C439.071 91.7795 444.516 92.4671 446.331 96.9794C446.446 97.2672 446.55 97.5624 446.641 97.8651C446.97 96.8655 447.048 95.3651 447.048 95.3651C447.701 97.3083 447.048 99.7373 447.048 99.7373C447.057 99.8083 447.066 99.8793 447.075 99.9503C447.834 100.688 448.471 102.987 448.471 102.987C448.242 102.346 447.683 101.927 447.187 101.671C447.202 105.182 445.967 108.614 443.799 109.636C440.629 111.131 440.655 109.991 437.465 112.428C437.465 112.428 436.609 111.204 437.192 110.382C437.776 109.56 439.979 108.364 438.748 107.17C437.516 105.974 437.063 107.32 436.609 106.497C436.155 105.675 438.424 103.286 435.506 101.043C432.59 98.8012 430.645 95.664 430.905 93.6461Z" fill="#233862"/>
<path d="M119.557 250.951V254.206C119.557 254.466 119.476 254.707 119.334 254.906C119.187 255.118 118.975 255.284 118.727 255.375C118.65 255.405 118.571 255.426 118.49 255.439C118.415 255.452 118.339 255.46 118.261 255.46H64.6855C63.9949 255.46 63.426 254.929 63.3903 254.269C63.3903 254.249 63.3903 254.226 63.3903 254.206V250.951C63.3903 250.928 63.3903 250.908 63.3903 250.886C63.426 250.226 63.9949 249.695 64.6855 249.695H118.261C118.339 249.695 118.415 249.703 118.49 249.716C118.571 249.729 118.65 249.751 118.727 249.779C118.975 249.873 119.187 250.037 119.334 250.248C119.476 250.448 119.557 250.689 119.557 250.949V250.951Z" fill="#FFB93E"/>
<path d="M93.2466 255.461H64.5443C63.9283 255.461 63.4193 254.931 63.3885 254.271C63.3885 254.251 63.3885 254.228 63.3885 254.208V250.953C63.3885 250.93 63.3885 250.91 63.3885 250.887C63.4193 250.228 63.9283 249.697 64.5443 249.697H89.7226C90.1246 251.394 91.0615 253.743 93.2466 255.463V255.461Z" fill="#FFA412"/>
<path d="M113.037 249.697H112.428V255.463H113.037V249.697Z" fill="#FFA412"/>
<path d="M110.975 249.697H110.366V255.463H110.975V249.697Z" fill="#FFA412"/>
<path d="M108.505 249.697H107.896V255.463H108.505V249.697Z" fill="#FFA412"/>
<path d="M104.715 249.697H104.106V255.463H104.715V249.697Z" fill="#FFA412"/>
<path d="M100.71 249.697H100.1V255.463H100.71V249.697Z" fill="#FFA412"/>
<path d="M94.5679 249.697H93.9584V255.463H94.5679V249.697Z" fill="#FFA412"/>
<path d="M88.8168 249.697H88.2074V255.463H88.8168V249.697Z" fill="#FFA412"/>
<path d="M83.6816 249.697H83.0721V255.463H83.6816V249.697Z" fill="#FFA412"/>
<path d="M114.999 249.697H114.389V255.463H114.999V249.697Z" fill="#FFA412"/>
<path d="M116.295 249.697H115.686V255.463H116.295V249.697Z" fill="#FFA412"/>
<path d="M117.547 249.697H116.937V255.463H117.547V249.697Z" fill="#FFA412"/>
<path d="M118.489 249.716V255.441C118.414 255.454 118.338 255.461 118.26 255.461H117.879V249.695H118.26C118.338 249.695 118.414 249.703 118.489 249.716Z" fill="#FFA412"/>
<path d="M119.333 250.25V254.906C119.185 255.118 118.973 255.284 118.725 255.375V249.779C118.973 249.873 119.185 250.037 119.333 250.248V250.25Z" fill="#FFA412"/>
<path d="M113.828 245.186V248.441C113.828 248.701 113.747 248.942 113.606 249.142C113.459 249.353 113.246 249.519 112.998 249.611C112.922 249.641 112.843 249.661 112.762 249.674C112.687 249.687 112.611 249.695 112.533 249.695H58.9571C58.2665 249.695 57.6976 249.164 57.6619 248.505C57.6619 248.482 57.6619 248.462 57.6619 248.441V245.186C57.6619 245.164 57.6619 245.143 57.6619 245.121C57.6976 244.461 58.2665 243.931 58.9571 243.931H112.533C112.567 243.931 112.601 243.931 112.635 243.934C112.65 243.934 112.664 243.936 112.679 243.938C112.695 243.938 112.711 243.942 112.728 243.944C112.739 243.944 112.75 243.947 112.762 243.949C112.843 243.962 112.924 243.985 112.998 244.015C113.01 244.018 113.021 244.022 113.032 244.028C113.044 244.032 113.055 244.037 113.065 244.041C113.086 244.05 113.108 244.061 113.13 244.071C113.143 244.076 113.154 244.084 113.167 244.091C113.178 244.097 113.19 244.103 113.199 244.11C113.22 244.121 113.24 244.134 113.261 244.147C113.284 244.162 113.306 244.179 113.327 244.196C113.345 244.209 113.361 244.222 113.378 244.235C113.378 244.235 113.379 244.235 113.381 244.239C113.392 244.248 113.403 244.258 113.413 244.267C113.446 244.297 113.478 244.329 113.507 244.36C113.517 244.37 113.525 244.379 113.533 244.39C113.541 244.4 113.549 244.411 113.557 244.42C113.574 244.441 113.59 244.463 113.606 244.484C113.747 244.684 113.828 244.925 113.828 245.184V245.186Z" fill="#FFB93E"/>
<path d="M87.52 249.697H58.8177C58.2001 249.697 57.6927 249.166 57.6619 248.507C57.6619 248.484 57.6619 248.464 57.6619 248.443V245.188C57.6619 245.166 57.6619 245.145 57.6619 245.123C57.6927 244.463 58.2001 243.933 58.8177 243.933H83.9944C84.0058 243.979 84.0171 244.026 84.0301 244.075C84.4499 245.758 85.3949 248.025 87.52 249.697Z" fill="#FFA412"/>
<path d="M107.308 243.931H106.699V249.697H107.308V243.931Z" fill="#FFA412"/>
<path d="M105.248 243.931H104.638V249.697H105.248V243.931Z" fill="#FFA412"/>
<path d="M102.776 243.931H102.167V249.697H102.776V243.931Z" fill="#FFA412"/>
<path d="M98.988 243.931H98.3785V249.697H98.988V243.931Z" fill="#FFA412"/>
<path d="M94.9808 243.931H94.3713V249.697H94.9808V243.931Z" fill="#FFA412"/>
<path d="M88.8389 243.931H88.2294V249.697H88.8389V243.931Z" fill="#FFA412"/>
<path d="M83.0878 243.931H82.4784V249.697H83.0878V243.931Z" fill="#FFA412"/>
<path d="M77.9528 243.931H77.3433V249.697H77.9528V243.931Z" fill="#FFA412"/>
<path d="M109.271 243.931H108.662V249.697H109.271V243.931Z" fill="#FFA412"/>
<path d="M110.566 243.931H109.957V249.697H110.566V243.931Z" fill="#FFA412"/>
<path d="M111.818 243.931H111.208V249.697H111.818V243.931Z" fill="#FFA412"/>
<path d="M112.76 243.951V249.676C112.685 249.689 112.609 249.697 112.531 249.697H112.15V243.931H112.531C112.609 243.931 112.685 243.938 112.76 243.951Z" fill="#FFA412"/>
<path d="M113.606 244.486V249.142C113.458 249.353 113.246 249.519 112.998 249.611V244.015C113.246 244.108 113.458 244.272 113.606 244.484V244.486Z" fill="#FFA412"/>
<path d="M116.595 239.563V242.818C116.595 243.078 116.514 243.319 116.373 243.519C116.225 243.73 116.013 243.896 115.765 243.988C115.689 244.018 115.609 244.038 115.528 244.051C115.454 244.064 115.377 244.072 115.3 244.072H61.7237C61.5081 244.072 61.3055 244.021 61.1256 243.93C60.7463 243.737 60.4756 243.369 60.4334 242.938C60.4318 242.919 60.4302 242.9 60.4286 242.882C60.4286 242.861 60.4286 242.839 60.4286 242.818V239.563C60.4286 239.541 60.4286 239.52 60.4286 239.498C60.4642 238.838 61.0332 238.308 61.7237 238.308H115.3C115.377 238.308 115.454 238.315 115.528 238.328C115.609 238.341 115.689 238.364 115.765 238.394C116.013 238.487 116.225 238.651 116.373 238.863C116.514 239.062 116.595 239.304 116.595 239.563Z" fill="#FFB93E"/>
<path d="M90.2867 244.074H61.5843C61.3931 244.074 61.2115 244.023 61.051 243.932C60.7123 243.739 60.4707 243.371 60.4334 242.94C60.4318 242.921 60.4302 242.902 60.4286 242.884C60.4286 242.863 60.4286 242.841 60.4286 242.82V239.565C60.4286 239.543 60.4286 239.522 60.4286 239.5C60.4594 238.84 60.9684 238.31 61.5843 238.31H86.7627C87.1533 239.959 88.0514 242.226 90.1116 243.932C90.17 243.98 90.2283 244.027 90.2883 244.074H90.2867Z" fill="#FFA412"/>
<path d="M110.077 238.308H109.467V244.074H110.077V238.308Z" fill="#FFA412"/>
<path d="M108.015 238.308H107.405V244.074H108.015V238.308Z" fill="#FFA412"/>
<path d="M105.544 238.308H104.935V244.074H105.544V238.308Z" fill="#FFA412"/>
<path d="M101.755 238.308H101.145V244.074H101.755V238.308Z" fill="#FFA412"/>
<path d="M97.7492 238.308H97.1397V244.074H97.7492V238.308Z" fill="#FFA412"/>
<path d="M91.6076 238.308H90.9981V244.074H91.6076V238.308Z" fill="#FFA412"/>
<path d="M85.8562 238.308H85.2467V244.074H85.8562V238.308Z" fill="#FFA412"/>
<path d="M80.7213 238.308H80.1118V244.074H80.7213V238.308Z" fill="#FFA412"/>
<path d="M112.038 238.308H111.428V244.074H112.038V238.308Z" fill="#FFA412"/>
<path d="M113.335 238.308H112.725V244.074H113.335V238.308Z" fill="#FFA412"/>
<path d="M114.586 238.308H113.977V244.074H114.586V238.308Z" fill="#FFA412"/>
<path d="M115.528 238.328V244.053C115.453 244.066 115.377 244.074 115.299 244.074H114.918V238.308H115.299C115.377 238.308 115.453 238.315 115.528 238.328Z" fill="#FFA412"/>
<path d="M116.373 238.862V243.519C116.225 243.73 116.013 243.896 115.765 243.988V238.392C116.013 238.485 116.225 238.649 116.373 238.861V238.862Z" fill="#FFA412"/>
<path d="M117.879 233.797V237.054C117.879 237.313 117.798 237.554 117.657 237.754C117.509 237.965 117.297 238.132 117.049 238.223C116.973 238.253 116.893 238.274 116.812 238.289C116.738 238.302 116.662 238.309 116.584 238.309H63.0079C62.3174 238.309 61.7484 237.779 61.7128 237.119C61.7128 237.097 61.7128 237.076 61.7128 237.055V233.799C61.7128 233.776 61.7128 233.756 61.7128 233.735C61.7452 233.124 62.2347 232.625 62.8539 232.554C62.9042 232.549 62.9544 232.545 63.0079 232.545H116.584C116.662 232.545 116.738 232.552 116.812 232.565C116.893 232.579 116.973 232.601 117.049 232.631C117.297 232.724 117.509 232.889 117.657 233.1C117.798 233.3 117.879 233.541 117.879 233.801V233.797Z" fill="#FFB93E"/>
<path d="M91.5708 238.307H62.8685C62.2525 238.307 61.7435 237.777 61.7127 237.117C61.7127 237.095 61.7127 237.074 61.7127 237.053V233.797C61.7127 233.774 61.7127 233.754 61.7127 233.733C61.7419 233.122 62.1779 232.623 62.7323 232.552C62.7761 232.547 62.8231 232.543 62.8685 232.543H88.0468C88.0468 232.543 88.0468 232.549 88.0484 232.552C88.452 234.249 89.389 236.59 91.5708 238.309V238.307Z" fill="#FFA412"/>
<path d="M111.361 232.543H110.752V238.307H111.361V232.543Z" fill="#FFA412"/>
<path d="M109.299 232.543H108.69V238.307H109.299V232.543Z" fill="#FFA412"/>
<path d="M106.827 232.543H106.218V238.307H106.827V232.543Z" fill="#FFA412"/>
<path d="M103.039 232.543H102.43V238.307H103.039V232.543Z" fill="#FFA412"/>
<path d="M99.0323 232.543H98.4228V238.307H99.0323V232.543Z" fill="#FFA412"/>
<path d="M92.8904 232.543H92.2809V238.307H92.8904V232.543Z" fill="#FFA412"/>
<path d="M87.1409 232.543H86.5314V238.307H87.1409V232.543Z" fill="#FFA412"/>
<path d="M82.0055 232.543H81.3961V238.307H82.0055V232.543Z" fill="#FFA412"/>
<path d="M113.323 232.543H112.713V238.307H113.323V232.543Z" fill="#FFA412"/>
<path d="M114.619 232.543H114.01V238.307H114.619V232.543Z" fill="#FFA412"/>
<path d="M115.871 232.543H115.261V238.307H115.871V232.543Z" fill="#FFA412"/>
<path d="M116.811 232.564V238.289C116.736 238.302 116.66 238.309 116.582 238.309H116.201V232.543H116.582C116.66 232.543 116.736 232.55 116.811 232.564Z" fill="#FFA412"/>
<path d="M117.657 233.096V237.752C117.509 237.963 117.297 238.129 117.049 238.221V232.625C117.297 232.718 117.509 232.883 117.657 233.094V233.096Z" fill="#FFA412"/>
<path d="M113.939 228.042V231.297C113.939 231.556 113.858 231.797 113.717 231.997C113.57 232.208 113.358 232.375 113.11 232.466C113.033 232.496 112.954 232.517 112.873 232.53C112.849 232.533 112.823 232.537 112.798 232.541C112.785 232.541 112.771 232.543 112.756 232.545C112.743 232.545 112.729 232.547 112.714 232.547C112.691 232.547 112.669 232.548 112.646 232.548H59.07C58.3794 232.548 57.8105 232.018 57.7748 231.358C57.7748 231.336 57.7748 231.315 57.7748 231.295V228.04C57.7748 228.017 57.7748 227.997 57.7748 227.974C57.7748 227.956 57.7764 227.939 57.778 227.922C57.8299 227.391 58.2287 226.952 58.749 226.823C58.762 226.82 58.7749 226.818 58.7879 226.814C58.8787 226.795 58.9727 226.784 59.0683 226.784H112.644C112.683 226.784 112.722 226.786 112.761 226.79C112.779 226.792 112.795 226.794 112.813 226.795C112.832 226.797 112.853 226.801 112.873 226.805C112.954 226.818 113.033 226.84 113.11 226.87C113.358 226.964 113.57 227.128 113.717 227.339C113.858 227.539 113.939 227.78 113.939 228.04V228.042Z" fill="#FFB93E"/>
<path d="M87.6316 232.552H58.9292C58.3133 232.552 57.8043 232.022 57.7735 231.362C57.7735 231.34 57.7735 231.319 57.7735 231.299V228.044C57.7735 228.021 57.7735 228.001 57.7735 227.978C57.7735 227.96 57.7751 227.943 57.7767 227.926C57.8237 227.382 58.1933 226.938 58.6748 226.82C58.691 226.814 58.7072 226.811 58.725 226.809C58.7915 226.796 58.8595 226.788 58.9292 226.788H84.1076C84.1108 226.801 84.1141 226.814 84.1173 226.829C84.5242 228.52 85.4611 230.839 87.6202 232.545C87.6235 232.547 87.6283 232.55 87.6316 232.554V232.552Z" fill="#FFA412"/>
<path d="M107.422 226.786H106.812V232.552H107.422V226.786Z" fill="#FFA412"/>
<path d="M105.36 226.786H104.751V232.552H105.36V226.786Z" fill="#FFA412"/>
<path d="M102.888 226.786H102.279V232.552H102.888V226.786Z" fill="#FFA412"/>
<path d="M99.0998 226.786H98.4903V232.552H99.0998V226.786Z" fill="#FFA412"/>
<path d="M95.0929 226.786H94.4834V232.552H95.0929V226.786Z" fill="#FFA412"/>
<path d="M88.9513 226.786H88.3419V232.552H88.9513V226.786Z" fill="#FFA412"/>
<path d="M83.2015 226.786H82.592V232.552H83.2015V226.786Z" fill="#FFA412"/>
<path d="M78.0663 226.786H77.4568V232.552H78.0663V226.786Z" fill="#FFA412"/>
<path d="M109.383 226.786H108.774V232.552H109.383V226.786Z" fill="#FFA412"/>
<path d="M110.68 226.786H110.071V232.552H110.68V226.786Z" fill="#FFA412"/>
<path d="M111.931 226.786H111.322V232.552H111.931V226.786Z" fill="#FFA412"/>
<path d="M112.872 226.807V232.532C112.797 232.545 112.721 232.552 112.643 232.552H112.262V226.786H112.643C112.721 226.786 112.797 226.794 112.872 226.807Z" fill="#FFA412"/>
<path d="M113.718 227.342V231.998C113.57 232.209 113.358 232.376 113.11 232.467V226.871C113.358 226.965 113.57 227.129 113.718 227.34V227.342Z" fill="#FFA412"/>
<path d="M113.828 222.317V225.572C113.828 225.832 113.747 226.073 113.606 226.273C113.459 226.484 113.246 226.65 112.998 226.742C112.938 226.764 112.877 226.783 112.814 226.796C112.796 226.8 112.78 226.803 112.763 226.807C112.689 226.82 112.613 226.828 112.535 226.828H58.9588C58.9021 226.828 58.8453 226.824 58.7918 226.817C58.7707 226.815 58.7481 226.811 58.7286 226.807C58.1467 226.706 57.6961 226.222 57.6653 225.637C57.6653 225.615 57.6653 225.595 57.6653 225.574V222.319C57.6653 222.297 57.6653 222.276 57.6653 222.254C57.7009 221.594 58.2699 221.063 58.9604 221.063H112.536C112.57 221.063 112.604 221.063 112.638 221.067C112.653 221.067 112.668 221.069 112.682 221.071C112.698 221.071 112.715 221.075 112.731 221.077C112.742 221.077 112.754 221.08 112.765 221.082C112.846 221.095 112.927 221.118 113.002 221.148C113.013 221.151 113.024 221.155 113.036 221.161C113.047 221.164 113.058 221.17 113.068 221.174C113.091 221.183 113.112 221.194 113.133 221.204C113.157 221.217 113.18 221.228 113.203 221.243C113.224 221.254 113.243 221.267 113.264 221.28C113.287 221.295 113.31 221.312 113.331 221.329C113.348 221.342 113.365 221.355 113.381 221.368C113.381 221.368 113.382 221.368 113.384 221.372C113.395 221.381 113.407 221.39 113.417 221.4C113.449 221.43 113.481 221.461 113.511 221.493C113.52 221.503 113.528 221.512 113.536 221.523C113.545 221.534 113.553 221.544 113.561 221.553C113.577 221.574 113.593 221.596 113.609 221.617C113.75 221.816 113.831 222.057 113.831 222.317H113.828Z" fill="#FFB93E"/>
<path d="M87.5198 226.828H58.8175C58.7948 226.828 58.7721 226.828 58.7494 226.826C58.7251 226.826 58.6992 226.822 58.6749 226.818C58.1237 226.746 57.6893 226.247 57.6618 225.637C57.6618 225.615 57.6618 225.595 57.6618 225.574V222.319C57.6618 222.297 57.6618 222.276 57.6618 222.254C57.6926 221.594 58.1999 221.063 58.8175 221.063H83.9943C84.0056 221.11 84.0169 221.157 84.0299 221.205C84.4465 222.876 85.3786 225.118 87.468 226.788C87.4858 226.802 87.502 226.815 87.5198 226.83V226.828Z" fill="#FFA412"/>
<path d="M107.308 221.063H106.699V226.828H107.308V221.063Z" fill="#FFA412"/>
<path d="M105.248 221.063H104.638V226.828H105.248V221.063Z" fill="#FFA412"/>
<path d="M102.776 221.063H102.167V226.828H102.776V221.063Z" fill="#FFA412"/>
<path d="M98.988 221.063H98.3785V226.828H98.988V221.063Z" fill="#FFA412"/>
<path d="M94.9808 221.063H94.3713V226.828H94.9808V221.063Z" fill="#FFA412"/>
<path d="M88.8389 221.063H88.2294V226.828H88.8389V221.063Z" fill="#FFA412"/>
<path d="M83.0878 221.063H82.4784V226.828H83.0878V221.063Z" fill="#FFA412"/>
<path d="M77.9525 221.063H77.343V226.828H77.9525V221.063Z" fill="#FFA412"/>
<path d="M109.271 221.063H108.662V226.828H109.271V221.063Z" fill="#FFA412"/>
<path d="M110.566 221.063H109.957V226.828H110.566V221.063Z" fill="#FFA412"/>
<path d="M111.818 221.063H111.208V226.828H111.818V221.063Z" fill="#FFA412"/>
<path d="M112.76 221.082V226.807C112.685 226.82 112.609 226.828 112.531 226.828H112.15V221.062H112.531C112.609 221.062 112.685 221.069 112.76 221.082Z" fill="#FFA412"/>
<path d="M113.606 221.616V226.273C113.458 226.484 113.246 226.65 112.998 226.742V221.146C113.246 221.239 113.458 221.403 113.606 221.614V221.616Z" fill="#FFA412"/>
<path d="M116.595 216.695V219.95C116.595 220.21 116.514 220.451 116.373 220.651C116.225 220.862 116.013 221.028 115.765 221.12C115.689 221.149 115.609 221.17 115.528 221.183C115.454 221.196 115.377 221.204 115.3 221.204H61.7237C61.5081 221.204 61.3055 221.153 61.1256 221.062C60.7463 220.869 60.4756 220.501 60.4334 220.07C60.4318 220.051 60.4302 220.032 60.4286 220.013C60.4286 219.993 60.4286 219.97 60.4286 219.95V216.695C60.4286 216.673 60.4286 216.652 60.4286 216.63C60.4642 215.97 61.0332 215.439 61.7237 215.439H115.3C115.377 215.439 115.454 215.447 115.528 215.46C115.609 215.473 115.689 215.495 115.765 215.525C116.013 215.619 116.225 215.783 116.373 215.994C116.514 216.194 116.595 216.435 116.595 216.695Z" fill="#FFB93E"/>
<path d="M90.2867 221.206H61.5843C61.3931 221.206 61.2115 221.155 61.051 221.064C60.7123 220.871 60.4707 220.503 60.4334 220.071C60.4318 220.053 60.4302 220.034 60.4286 220.015C60.4286 219.995 60.4286 219.972 60.4286 219.952V216.697C60.4286 216.675 60.4286 216.654 60.4286 216.632C60.4594 215.972 60.9684 215.441 61.5843 215.441H86.7627C87.1533 217.091 88.0514 219.358 90.1116 221.064C90.17 221.112 90.2283 221.159 90.2883 221.206H90.2867Z" fill="#FFA412"/>
<path d="M110.077 215.439H109.467V221.206H110.077V215.439Z" fill="#FFA412"/>
<path d="M108.015 215.439H107.406V221.206H108.015V215.439Z" fill="#FFA412"/>
<path d="M105.545 215.439H104.935V221.206H105.545V215.439Z" fill="#FFA412"/>
<path d="M101.755 215.439H101.145V221.206H101.755V215.439Z" fill="#FFA412"/>
<path d="M97.7495 215.439H97.14V221.206H97.7495V215.439Z" fill="#FFA412"/>
<path d="M91.6076 215.439H90.9981V221.206H91.6076V215.439Z" fill="#FFA412"/>
<path d="M85.8565 215.439H85.247V221.206H85.8565V215.439Z" fill="#FFA412"/>
<path d="M80.7213 215.439H80.1118V221.206H80.7213V215.439Z" fill="#FFA412"/>
<path d="M112.038 215.439H111.429V221.206H112.038V215.439Z" fill="#FFA412"/>
<path d="M113.335 215.439H112.726V221.206H113.335V215.439Z" fill="#FFA412"/>
<path d="M114.586 215.439H113.977V221.206H114.586V215.439Z" fill="#FFA412"/>
<path d="M115.528 215.46V221.185C115.454 221.198 115.377 221.206 115.3 221.206H114.919V215.439H115.3C115.377 215.439 115.454 215.447 115.528 215.46Z" fill="#FFA412"/>
<path d="M116.373 215.994V220.651C116.225 220.862 116.013 221.028 115.765 221.12V215.523C116.013 215.617 116.225 215.781 116.373 215.992V215.994Z" fill="#FFA412"/>
<path d="M120.973 210.929V214.185C120.973 214.445 120.892 214.686 120.751 214.886C120.603 215.097 120.391 215.263 120.143 215.355C120.067 215.385 119.987 215.405 119.906 215.42C119.831 215.434 119.755 215.441 119.677 215.441H66.1015C65.411 215.441 64.8421 214.91 64.8064 214.251C64.8064 214.228 64.8064 214.208 64.8064 214.187V210.93C64.8064 210.91 64.8064 210.888 64.8064 210.867C64.8388 210.256 65.3283 209.757 65.9475 209.686C65.9978 209.68 66.0497 209.677 66.1015 209.677H119.677C119.755 209.677 119.831 209.684 119.906 209.697C119.987 209.71 120.067 209.733 120.143 209.763C120.391 209.856 120.603 210.021 120.751 210.232C120.892 210.432 120.973 210.673 120.973 210.932V210.929Z" fill="#FFB93E"/>
<path d="M94.6645 215.44H65.9622C65.3462 215.44 64.8373 214.909 64.8065 214.25C64.8065 214.227 64.8065 214.207 64.8065 214.186V210.93C64.8065 210.909 64.8065 210.887 64.8065 210.866C64.8356 210.255 65.2717 209.756 65.826 209.685C65.8698 209.68 65.9168 209.676 65.9622 209.676H91.1406C91.1406 209.676 91.1406 209.681 91.1422 209.685C91.5458 211.382 92.4827 213.723 94.6645 215.442V215.44Z" fill="#FFA412"/>
<path d="M114.455 209.676H113.845V215.442H114.455V209.676Z" fill="#FFA412"/>
<path d="M112.393 209.676H111.783V215.442H112.393V209.676Z" fill="#FFA412"/>
<path d="M109.922 209.676H109.313V215.442H109.922V209.676Z" fill="#FFA412"/>
<path d="M106.133 209.676H105.523V215.442H106.133V209.676Z" fill="#FFA412"/>
<path d="M102.127 209.676H101.518V215.442H102.127V209.676Z" fill="#FFA412"/>
<path d="M95.9852 209.676H95.3757V215.442H95.9852V209.676Z" fill="#FFA412"/>
<path d="M90.2342 209.676H89.6247V215.442H90.2342V209.676Z" fill="#FFA412"/>
<path d="M85.0987 209.676H84.4893V215.442H85.0987V209.676Z" fill="#FFA412"/>
<path d="M116.416 209.676H115.806V215.442H116.416V209.676Z" fill="#FFA412"/>
<path d="M117.713 209.676H117.103V215.442H117.713V209.676Z" fill="#FFA412"/>
<path d="M118.964 209.676H118.355V215.442H118.964V209.676Z" fill="#FFA412"/>
<path d="M119.906 209.694V215.419C119.831 215.432 119.755 215.44 119.677 215.44H119.296V209.674H119.677C119.755 209.674 119.831 209.681 119.906 209.694Z" fill="#FFA412"/>
<path d="M120.75 210.229V214.885C120.603 215.096 120.39 215.262 120.142 215.354V209.758C120.39 209.851 120.603 210.016 120.75 210.227V210.229Z" fill="#FFA412"/>
<path d="M113.94 205.172V208.426C113.94 208.686 113.859 208.927 113.718 209.127C113.57 209.338 113.358 209.505 113.11 209.596C113.034 209.626 112.954 209.647 112.873 209.66C112.849 209.663 112.823 209.667 112.799 209.671C112.779 209.673 112.758 209.675 112.739 209.676C112.729 209.676 112.719 209.676 112.708 209.678C112.687 209.678 112.666 209.678 112.645 209.678H59.0687C58.3781 209.678 57.8092 209.148 57.7735 208.488C57.7735 208.466 57.7735 208.445 57.7735 208.425V205.17C57.7735 205.147 57.7735 205.127 57.7735 205.104C57.8092 204.445 58.3781 203.914 59.0687 203.914H112.645C112.667 203.914 112.69 203.914 112.713 203.916C112.768 203.92 112.82 203.925 112.873 203.935C112.954 203.948 113.034 203.97 113.11 204C113.149 204.015 113.186 204.03 113.222 204.049C113.244 204.06 113.267 204.071 113.288 204.084C113.29 204.084 113.293 204.086 113.295 204.088C113.317 204.101 113.338 204.114 113.359 204.127C113.364 204.129 113.368 204.133 113.371 204.135C113.39 204.148 113.41 204.161 113.429 204.176C113.475 204.209 113.518 204.245 113.559 204.284C113.572 204.295 113.583 204.308 113.596 204.321C113.598 204.323 113.601 204.325 113.603 204.329C113.611 204.336 113.617 204.344 113.625 204.353C113.625 204.353 113.629 204.357 113.63 204.359C113.643 204.374 113.656 204.389 113.667 204.405C113.685 204.428 113.703 204.45 113.719 204.473C113.86 204.673 113.941 204.914 113.941 205.173L113.94 205.172Z" fill="#FFB93E"/>
<path d="M87.6316 209.682H58.9292C58.3133 209.682 57.8043 209.152 57.7735 208.492C57.7735 208.47 57.7735 208.449 57.7735 208.428V205.174C57.7735 205.151 57.7735 205.131 57.7735 205.108C57.8043 204.449 58.3133 203.918 58.9292 203.918H84.1076C84.1173 203.961 84.1287 204.006 84.14 204.051C84.5582 205.732 85.5 207.999 87.6202 209.673C87.6235 209.675 87.6283 209.678 87.6316 209.682Z" fill="#FFA412"/>
<path d="M107.422 203.917H106.812V209.683H107.422V203.917Z" fill="#FFA412"/>
<path d="M105.36 203.917H104.751V209.683H105.36V203.917Z" fill="#FFA412"/>
<path d="M102.888 203.917H102.279V209.683H102.888V203.917Z" fill="#FFA412"/>
<path d="M99.0999 203.917H98.4904V209.683H99.0999V203.917Z" fill="#FFA412"/>
<path d="M95.0931 203.917H94.4836V209.683H95.0931V203.917Z" fill="#FFA412"/>
<path d="M88.9511 203.917H88.3416V209.683H88.9511V203.917Z" fill="#FFA412"/>
<path d="M83.2016 203.917H82.5922V209.683H83.2016V203.917Z" fill="#FFA412"/>
<path d="M78.0664 203.917H77.4569V209.683H78.0664V203.917Z" fill="#FFA412"/>
<path d="M109.383 203.917H108.774V209.683H109.383V203.917Z" fill="#FFA412"/>
<path d="M110.68 203.917H110.071V209.683H110.68V203.917Z" fill="#FFA412"/>
<path d="M111.932 203.917H111.322V209.683H111.932V203.917Z" fill="#FFA412"/>
<path d="M112.871 203.936V209.661C112.797 209.674 112.721 209.681 112.643 209.681H112.262V203.915H112.643C112.721 203.915 112.797 203.923 112.871 203.936Z" fill="#FFA412"/>
<path d="M113.718 204.47V209.126C113.57 209.337 113.358 209.504 113.11 209.595V203.999C113.358 204.092 113.57 204.257 113.718 204.468V204.47Z" fill="#FFA412"/>
<path d="M117.879 199.54V202.797C117.879 203.057 117.798 203.298 117.657 203.497C117.509 203.709 117.297 203.875 117.049 203.966C116.973 203.996 116.893 204.017 116.812 204.032C116.738 204.045 116.662 204.052 116.584 204.052H63.0079C62.8005 204.052 62.6027 204.004 62.4293 203.92C62.0386 203.731 61.7598 203.354 61.7177 202.915C61.7177 202.898 61.7144 202.881 61.7144 202.864C61.7144 202.842 61.7144 202.821 61.7144 202.801V199.544C61.7144 199.521 61.7144 199.501 61.7144 199.48C61.7468 198.869 62.2364 198.37 62.8556 198.299C62.9058 198.294 62.9561 198.29 63.0096 198.29H116.586C116.663 198.29 116.74 198.298 116.814 198.311C116.895 198.324 116.975 198.346 117.051 198.374C117.299 198.468 117.511 198.632 117.659 198.843C117.8 199.043 117.881 199.284 117.881 199.544L117.879 199.54Z" fill="#FFB93E"/>
<path d="M91.5708 204.05H62.8685C62.6837 204.05 62.507 204.002 62.3514 203.918C62.0029 203.729 61.7533 203.352 61.716 202.913C61.716 202.896 61.7128 202.879 61.7128 202.862C61.7128 202.84 61.7128 202.819 61.7128 202.799V199.542C61.7128 199.519 61.7128 199.499 61.7128 199.478C61.7419 198.867 62.178 198.368 62.7323 198.297C62.7761 198.292 62.8231 198.288 62.8685 198.288H88.0469C88.0469 198.288 88.0469 198.294 88.0485 198.297C88.4408 199.951 89.342 202.216 91.4055 203.92C91.459 203.964 91.5141 204.009 91.5708 204.052V204.05Z" fill="#FFA412"/>
<path d="M111.361 198.284H110.752V204.05H111.361V198.284Z" fill="#FFA412"/>
<path d="M109.299 198.284H108.69V204.05H109.299V198.284Z" fill="#FFA412"/>
<path d="M106.827 198.284H106.218V204.05H106.827V198.284Z" fill="#FFA412"/>
<path d="M103.039 198.284H102.43V204.05H103.039V198.284Z" fill="#FFA412"/>
<path d="M99.0323 198.284H98.4228V204.05H99.0323V198.284Z" fill="#FFA412"/>
<path d="M92.8904 198.284H92.2809V204.05H92.8904V198.284Z" fill="#FFA412"/>
<path d="M87.1409 198.284H86.5314V204.05H87.1409V198.284Z" fill="#FFA412"/>
<path d="M82.0055 198.284H81.3961V204.05H82.0055V198.284Z" fill="#FFA412"/>
<path d="M113.323 198.284H112.713V204.05H113.323V198.284Z" fill="#FFA412"/>
<path d="M114.619 198.284H114.01V204.05H114.619V198.284Z" fill="#FFA412"/>
<path d="M115.871 198.284H115.261V204.05H115.871V198.284Z" fill="#FFA412"/>
<path d="M116.811 198.305V204.03C116.736 204.043 116.66 204.05 116.582 204.05H116.201V198.284H116.582C116.66 198.284 116.736 198.292 116.811 198.305Z" fill="#FFA412"/>
<path d="M117.657 198.839V203.495C117.509 203.706 117.297 203.873 117.049 203.964V198.368C117.297 198.462 117.509 198.626 117.657 198.837V198.839Z" fill="#FFA412"/>
<path d="M119.557 193.784V197.041C119.557 197.3 119.475 197.542 119.334 197.741C119.187 197.953 118.975 198.119 118.727 198.21C118.65 198.24 118.571 198.261 118.49 198.276C118.466 198.28 118.44 198.283 118.415 198.287C118.402 198.287 118.388 198.289 118.373 198.291C118.36 198.291 118.346 198.293 118.331 198.293C118.308 198.293 118.286 198.295 118.263 198.295H64.6871C63.9965 198.295 63.4276 197.764 63.3919 197.104C63.3919 197.082 63.3919 197.061 63.3919 197.041V193.784C63.3919 193.762 63.3919 193.741 63.3919 193.72C63.4276 193.061 63.9965 192.53 64.6871 192.53H118.263C118.341 192.53 118.417 192.538 118.492 192.551C118.573 192.564 118.652 192.586 118.728 192.616C118.976 192.71 119.189 192.874 119.336 193.085C119.477 193.285 119.558 193.526 119.558 193.786L119.557 193.784Z" fill="#FFB93E"/>
<path d="M93.2467 198.295H64.5443C63.9284 198.295 63.4194 197.764 63.3886 197.104C63.3886 197.082 63.3886 197.061 63.3886 197.041V193.784C63.3886 193.762 63.3886 193.741 63.3886 193.72C63.4194 193.061 63.9284 192.53 64.5443 192.53H89.7227C90.1247 194.225 91.0584 196.566 93.2353 198.287C93.2386 198.289 93.2434 198.293 93.2467 198.296V198.295Z" fill="#FFA412"/>
<path d="M113.037 192.53H112.428V198.296H113.037V192.53Z" fill="#FFA412"/>
<path d="M110.977 192.53H110.367V198.296H110.977V192.53Z" fill="#FFA412"/>
<path d="M108.505 192.53H107.896V198.296H108.505V192.53Z" fill="#FFA412"/>
<path d="M104.715 192.53H104.106V198.296H104.715V192.53Z" fill="#FFA412"/>
<path d="M100.71 192.53H100.1V198.296H100.71V192.53Z" fill="#FFA412"/>
<path d="M94.5679 192.53H93.9584V198.296H94.5679V192.53Z" fill="#FFA412"/>
<path d="M88.8168 192.53H88.2074V198.296H88.8168V192.53Z" fill="#FFA412"/>
<path d="M83.6816 192.53H83.0722V198.296H83.6816V192.53Z" fill="#FFA412"/>
<path d="M114.999 192.53H114.389V198.296H114.999V192.53Z" fill="#FFA412"/>
<path d="M116.295 192.53H115.686V198.296H116.295V192.53Z" fill="#FFA412"/>
<path d="M117.547 192.53H116.937V198.296H117.547V192.53Z" fill="#FFA412"/>
<path d="M118.489 192.549V198.274C118.414 198.287 118.338 198.294 118.26 198.294H117.879V192.528H118.26C118.338 192.528 118.414 192.536 118.489 192.549Z" fill="#FFA412"/>
<path d="M119.335 193.083V197.739C119.187 197.951 118.975 198.117 118.727 198.208V192.612C118.975 192.706 119.187 192.87 119.335 193.081V193.083Z" fill="#FFA412"/>
<path d="M78.2859 246.881C88.2295 235.419 88.2295 216.835 78.2859 205.373C68.3424 193.912 52.2207 193.912 42.2772 205.373C32.3336 216.835 32.3336 235.419 42.2772 246.881C52.2207 258.342 68.3424 258.342 78.2859 246.881Z" fill="#E2810E"/>
<path d="M76.0656 246.88C86.0091 235.418 86.0091 216.834 76.0656 205.372C66.122 193.911 50.0004 193.911 40.0568 205.372C30.1133 216.834 30.1133 235.418 40.0568 246.88C50.0004 258.341 66.122 258.341 76.0656 246.88Z" fill="#FFB93E"/>
<path d="M58.0604 253.214C51.8635 253.214 46.0377 250.431 41.6563 245.381C37.2748 240.331 34.8612 233.615 34.8612 226.472C34.8612 219.329 37.2748 212.614 41.6563 207.563C46.0377 202.513 51.8635 199.73 58.0604 199.73C64.2573 199.73 70.0831 202.513 74.4645 207.563C78.846 212.614 81.2596 219.329 81.2596 226.472C81.2596 233.615 78.846 240.331 74.4645 245.381C70.0831 250.431 64.2573 253.214 58.0604 253.214ZM58.0604 201.326C46.0313 201.326 36.2455 212.606 36.2455 226.472C36.2455 240.338 46.0313 251.618 58.0604 251.618C70.0895 251.618 79.8753 240.338 79.8753 226.472C79.8753 212.606 70.0895 201.326 58.0604 201.326Z" fill="#FFA412"/>
<path d="M61.2537 234.234C61.3137 233.657 61.2942 233.139 61.1986 232.681C61.1029 232.222 60.9133 231.792 60.6296 231.392C60.3459 230.99 59.9666 230.606 59.4901 230.234C59.0151 229.862 58.4267 229.483 57.7249 229.094C56.5205 228.414 55.4344 227.726 54.4651 227.029C53.4958 226.332 52.6837 225.57 52.0288 224.742C51.3723 223.915 50.8925 222.986 50.5894 221.956C50.2863 220.927 50.2036 219.739 50.3414 218.393C50.4613 217.225 50.7499 216.187 51.2086 215.275C51.6657 214.363 52.2655 213.595 53.0062 212.973C53.747 212.351 54.6045 211.88 55.5803 211.56C56.5561 211.241 57.6276 211.099 58.7947 211.132L59.2485 206.725L62.3267 207.145L61.8664 211.614C62.9524 211.93 63.9169 212.403 64.7631 213.034C65.6076 213.666 66.303 214.428 66.8492 215.325C67.3939 216.222 67.7797 217.246 68.005 218.397C68.2303 219.548 68.2724 220.811 68.1314 222.184L62.5731 221.424C62.7433 219.776 62.5521 218.5 62.0009 217.597C61.4498 216.695 60.6426 216.168 59.5776 216.024C59.0005 215.946 58.4932 215.97 58.0588 216.099C57.6227 216.226 57.2532 216.433 56.9517 216.719C56.6485 217.005 56.4102 217.358 56.2384 217.78C56.065 218.203 55.9515 218.668 55.8997 219.176C55.8478 219.684 55.864 220.153 55.9499 220.581C56.0358 221.011 56.2174 221.422 56.4962 221.816C56.7733 222.209 57.1575 222.595 57.6438 222.977C58.1317 223.356 58.7428 223.763 59.4787 224.199C60.6669 224.905 61.7432 225.607 62.7044 226.31C63.6657 227.012 64.4745 227.78 65.1294 228.616C65.7843 229.451 66.2641 230.383 66.5672 231.413C66.8703 232.442 66.9546 233.625 66.8168 234.955C66.692 236.164 66.3986 237.224 65.9334 238.134C65.4682 239.045 64.8668 239.806 64.1276 240.413C63.3885 241.022 62.5261 241.476 61.539 241.772C60.5534 242.069 59.4755 242.199 58.31 242.166L57.8886 246.265L54.8298 245.847L55.2496 241.768C54.1976 241.499 53.1959 241.09 52.2444 240.542C51.2929 239.995 50.4727 239.281 49.7821 238.399C49.0932 237.519 48.5778 236.456 48.2374 235.211C47.897 233.967 47.8127 232.521 47.9813 230.875L53.5395 231.635C53.439 232.61 53.4731 233.44 53.6449 234.124C53.8151 234.81 54.0777 235.374 54.4359 235.82C54.7925 236.267 55.2172 236.603 55.7068 236.829C56.1963 237.057 56.7053 237.205 57.2305 237.278C57.8335 237.36 58.3716 237.343 58.8449 237.227C59.3183 237.112 59.7251 236.915 60.0655 236.643C60.4059 236.37 60.675 236.026 60.8728 235.615C61.0705 235.204 61.1969 234.744 61.2488 234.236L61.2537 234.234Z" fill="#FFA412"/>
<path d="M104.879 185.826C102.273 191.056 98.9937 193.076 98.9937 193.076H85.3517C85.3517 193.076 106.87 181.835 104.881 185.826H104.879Z" fill="#233862"/>
<path d="M94.4015 226.297C94.0466 226.766 94.0012 227.291 94.1762 227.851C94.1762 227.853 94.1762 227.857 94.1795 227.859C94.5053 228.896 95.58 230.052 96.8281 231.209C96.987 231.357 97.1296 231.493 97.2528 231.618C97.2852 231.652 97.3177 231.684 97.3485 231.717C97.3744 231.743 97.3971 231.769 97.4214 231.794C98.5852 233.031 98.1476 233.315 100.24 235.826C102.626 238.687 104.268 238.739 104.735 238.477C105.131 238.255 104.327 236.738 103.438 235.032C103.395 234.95 103.352 234.866 103.309 234.783C103.19 234.557 103.072 234.326 102.955 234.098C101.913 232.046 102.181 231.082 102.427 228.027C102.628 225.546 105.777 214.161 105.777 214.161L101.206 213.253C101.206 213.253 99.8301 222.319 98.3129 223.715C97.5024 224.458 96.5947 224.467 95.815 225.019C95.7599 225.056 95.7064 225.097 95.6529 225.136C95.2104 225.475 94.7582 225.824 94.4015 226.295V226.297Z" fill="#FFB27D"/>
<path d="M94.4015 226.298C94.0466 226.767 94.0012 227.292 94.1762 227.852C94.1762 227.854 94.1762 227.858 94.1795 227.86C94.5782 228.895 95.6254 230.046 96.833 231.199C96.9902 231.35 97.1296 231.488 97.2544 231.617C97.2869 231.651 97.3193 231.682 97.3501 231.716C97.376 231.742 97.3987 231.768 97.423 231.793C98.5869 233.03 98.1492 233.314 100.242 235.825C102.628 238.686 104.27 238.738 104.737 238.476C105.132 238.254 104.328 236.737 103.44 235.031C102.975 234.835 100.819 233.824 99.1882 231.419C97.7521 229.306 96.7941 226.593 95.8167 225.02C95.7615 225.057 95.708 225.098 95.6546 225.137C95.212 225.475 94.7598 225.825 94.4032 226.296L94.4015 226.298Z" fill="#233862"/>
<path d="M131.26 223.005C131.542 224.631 133.554 224.36 135.801 223.728C138.047 223.095 137.514 223.848 140.712 223.44C143.91 223.033 144.88 221.658 144.977 221.11C145.064 220.625 143.484 220.453 141.788 220.227C141.576 220.199 141.361 220.169 141.147 220.139C139.232 219.862 137.832 218.439 136.094 217.269C134.447 216.161 131.99 211.65 131.99 211.65L127.603 212.05C127.603 212.05 129.905 216.081 130.795 217.831C131.319 218.861 131.291 220.225 131.226 221.277C131.192 221.849 131.16 222.433 131.26 223.007V223.005Z" fill="#FFB27D"/>
<path d="M135.801 223.728C138.047 223.095 137.514 223.848 140.712 223.44C143.91 223.033 144.88 221.658 144.977 221.11C145.064 220.625 143.484 220.453 141.788 220.227L141.772 220.264C141.772 220.264 139.855 221.832 137.193 221.904C135.024 221.966 132.726 221.249 131.226 221.277C131.192 221.848 131.16 222.433 131.26 223.007C131.542 224.632 133.554 224.361 135.801 223.73V223.728Z" fill="#233862"/>
<path d="M114.453 190.681L110.353 203.397L105.001 220.003C105.001 220.003 103.548 220.165 102.158 219.704C100.877 219.278 99.4069 218.16 99.4069 218.16C99.4069 218.16 100.893 200.331 103.665 190.098C104.375 187.471 105.173 185.346 106.051 184.15C110.35 178.294 114.453 190.682 114.453 190.682V190.681Z" fill="#233862"/>
<path d="M110.284 170.484C107.598 169.486 99.9371 170.767 92.2408 172.503L90.6296 169.439L74.0082 167.942C74.0082 167.942 68.5229 181.963 71.5266 190.897C71.9675 192.21 73.06 192.763 74.5545 192.791C74.5545 192.791 74.5545 192.791 74.5561 192.793C74.5561 192.793 84.4748 193.071 87.6875 193.071C95.9544 193.071 105.183 186.521 106.376 186.246C108.329 185.796 109.112 190.301 111.065 195.03C113.018 199.759 129.432 215.977 129.432 215.977C129.432 215.977 131.954 216.005 132.997 215.555C134.117 215.071 134.527 214.441 134.527 214.441C134.527 214.441 116.34 172.731 110.282 170.48L110.284 170.484Z" fill="#2B478B"/>
<path d="M88.8642 113.176C87.6176 112.32 86.4035 112.197 85.6676 112.225C85.1376 112.246 84.6059 112.186 84.0807 112.105C77.7817 111.13 73.9902 121.679 73.7682 124.876C73.3564 130.77 70.6527 131.666 66.8467 135.357C59.2152 142.756 61.4521 151.355 65.6261 154.548C68.1305 156.465 72.5443 154.548 72.5443 154.548C72.6059 154.598 84.614 146.81 90.5337 143.053C99.4069 141.599 92.4303 115.622 88.8658 113.176H88.8642Z" fill="#233862"/>
<path d="M85.572 139.856C85.5979 139.874 82.6591 141.031 80.6945 140.028C78.8466 139.086 77.4461 135.581 77.4737 135.579C78.315 135.534 79.2373 134.688 79.9489 129.127L80.3071 129.275L86.3274 131.771C86.3274 131.771 85.8913 133.998 85.6093 136.117C85.371 137.898 85.2446 139.602 85.5736 139.854L85.572 139.856Z" fill="#FFB27D"/>
<path d="M86.3257 131.773C86.3257 131.773 85.8896 134 85.6076 136.119C82.1501 135.401 80.7933 131.431 80.3054 129.276L86.3257 131.773Z" fill="#ED975D"/>
<path d="M87.2224 133.984C87.2224 133.984 78.9863 132.709 79.753 126.809C80.5197 120.908 79.9735 116.769 85.2659 117.334C90.5567 117.898 91.2829 120.325 91.4434 122.367C91.6038 124.41 89.3847 134.163 87.2224 133.984Z" fill="#FFB27D"/>
<path d="M91.1432 119.133C91.1432 119.133 85.8702 124.37 82.2847 124.792C78.6991 125.214 77.3408 123.888 77.3408 123.888C77.3408 123.888 79.4545 121.864 80.7269 118.6C81.1014 117.638 81.894 116.976 82.8066 116.887C85.3678 116.633 90.2225 116.515 91.1449 119.133H91.1432Z" fill="#233862"/>
<path d="M87.8479 118.663C87.8479 118.663 89.6115 120.629 90.1675 122.088C90.7041 123.495 90.8645 126.86 90.4366 128.198C90.4366 128.198 93.1841 122.038 91.6296 119.046C89.9795 115.874 87.8479 118.665 87.8479 118.665V118.663Z" fill="#233862"/>
<path d="M92.5065 153.841C92.2569 173.06 92.4384 169.043 90.6149 170.867C90.1756 171.306 88.9404 171.567 87.3146 171.691C82.2021 172.081 73.2155 171.111 72.8735 170.022C71.695 166.253 72.5266 165.084 71.5427 159.314C71.4405 158.701 71.3125 158.036 71.165 157.313C70.3448 153.35 69.5456 152.002 72.4569 145.637C75.0958 139.87 77.8385 135.19 78.0849 135.36C85.0485 140.125 85.6093 136.12 85.6093 136.12C85.6093 136.12 92.6313 144.467 92.5081 153.841H92.5065Z" fill="white"/>
<path d="M110.353 203.397L105.001 220.003C105.001 220.003 103.548 220.165 102.158 219.704C100.877 219.278 99.4069 218.16 99.4069 218.16C99.4069 218.16 100.893 200.331 103.665 190.098L110.353 203.399V203.397Z" fill="#2B478B"/>
<path d="M85.6078 136.119C85.6078 136.119 92.7725 137.519 93.6137 141.076C94.455 144.632 99.4054 165.536 99.4054 165.536C99.4054 165.536 95.7631 166.291 94.0806 164.352C92.398 162.412 88.2257 146.357 88.2257 146.357L85.6078 136.121V136.119Z" fill="white"/>
<path d="M87.3147 171.693C82.2022 172.083 73.2156 171.114 72.8736 170.024C71.6951 166.256 72.5267 165.086 71.5428 159.316L74.0082 151.312C74.0082 151.312 73.5997 160.224 75.8804 162.569C78.1579 164.914 85.2172 167.094 86.3243 169.053C86.8592 169.992 87.2109 170.936 87.3131 171.693H87.3147Z" fill="#EBF3FF"/>
<path d="M81.4567 167.944C81.4567 167.944 86.5011 166.65 87.3148 167.165C88.1285 167.681 90.1174 169.561 90.3671 170.215C90.6167 170.869 88.5548 169.718 87.8854 169.51C87.451 169.376 86.3082 169.833 85.7425 170.05C83.3613 170.964 81.9041 170.495 81.9041 170.495L81.4583 167.943L81.4567 167.944Z" fill="#FFB27D"/>
<path d="M78.0784 135.356C78.0784 135.356 71.306 135.837 68.9621 139.607C65.6619 144.914 59.1148 167.524 62.8673 170.54C67.0932 173.937 82.0984 171.427 82.0984 171.427C82.0984 171.427 82.5976 168.737 81.9022 167.436C81.2069 166.136 69.9169 164.032 69.3965 163.432C68.8762 162.832 75.9096 151.719 75.9096 149.917C75.9096 148.116 78.0784 135.356 78.0784 135.356Z" fill="white"/>
<path d="M87.5594 168.784C87.5594 168.784 88.6162 170.355 88.9631 170.542C89.31 170.729 89.5337 170.682 89.5337 170.682L88.8221 169.205L87.561 168.782L87.5594 168.784Z" fill="#FFB27D"/>
<path d="M87.3146 167.166L90.388 168.887C90.388 168.887 90.2567 169.134 89.879 169.113C89.5013 169.092 88.5466 168.691 88.5466 168.691L87.3163 167.166H87.3146Z" fill="#FFB27D"/>
<path d="M88.9619 172.951H113.267L120.579 151.992H96.3113L88.9619 172.951Z" fill="#F99746"/>
<path d="M113.552 172.135H81.4568V172.951H113.266L113.552 172.135Z" fill="#ED7D2B"/>
<path d="M107.131 162.471C107.314 161.735 106.945 161.137 106.306 161.137C105.667 161.137 104.999 161.735 104.816 162.471C104.633 163.207 105.003 163.805 105.641 163.805C106.28 163.805 106.948 163.207 107.131 162.471Z" fill="white"/>
<path d="M228.429 174.956C228.426 174.844 228.965 162.137 223.639 159.213L224.015 158.796C226.454 159.779 229.158 162.813 230.241 167.099C231.045 170.285 230.434 170.984 230.437 171.105L228.429 174.956Z" fill="#A4C8FC"/>
<path d="M214.521 149.787C214.521 149.787 213.913 156.323 216.883 159.103C219.854 161.883 225.278 159.854 225.278 159.854C225.278 159.854 225.885 153.318 222.916 150.538C219.945 147.758 214.521 149.787 214.521 149.787Z" fill="#A4C8FC"/>
<path d="M227.519 198.793C227.419 198.154 225.498 183.188 230.411 166.51C235.131 150.486 232.518 136.9 232.497 136.766H235.971C236.06 137.347 236.302 150.682 232.603 168.956C229.273 185.4 235.491 198.791 234.167 198.791H227.519V198.793Z" fill="#A4C8FC"/>
<path d="M234.815 154.615C234.833 154.529 236.491 143.565 240.952 142.316C238.959 142.615 236.425 144.261 235.008 147.326C233.955 149.603 234.324 150.25 234.305 150.34L234.817 154.613L234.815 154.615Z" fill="#A4C8FC"/>
<path d="M216.962 125.53C216.962 125.53 212.151 117.699 206.685 115.399C206.685 115.399 208.729 133.768 205.74 133.994C202.751 134.222 204.743 113.336 204.743 113.336C204.743 113.336 190.508 104.226 184.726 104.478C184.726 104.478 192.91 122.832 189.965 122.204C187.02 121.576 177.733 102.933 177.733 102.933C177.733 102.933 162.877 98.7119 159.945 108.809C157.012 118.906 160.647 124.299 162.838 125.091C165.031 125.883 179.32 126.633 178.84 128.746C178.36 130.859 168.544 133.626 163.264 131.339C163.264 131.339 168.34 148.626 176.172 148.296C184.003 147.967 186.697 142.572 191.539 142.47C196.382 142.367 199.828 144.103 197.342 145.435C194.855 146.769 186.747 145.211 182.659 148.765C178.571 152.318 175.3 154.456 182.444 156.653C189.589 158.852 200.373 156.369 205.49 152.438C205.505 152.427 209.681 152.044 212.968 174.323C214.236 182.913 213.261 195.654 213.261 195.654L215.913 195.189C217.385 170.215 209.566 149.454 209.566 149.454C209.566 149.454 222.832 138.148 216.962 125.526V125.53Z" fill="#A4C8FC"/>
<path d="M260.349 158.49C260.349 158.49 244.364 150.749 250.086 136.664C250.086 136.664 254.904 127.847 260.712 124.982C260.712 124.982 259.433 145.037 262.686 145.082C265.938 145.125 262.712 122.615 262.712 122.615C262.712 122.615 277.683 111.77 283.964 111.653C283.964 111.653 276.027 132.109 279.189 131.229C282.35 130.349 291.468 109.504 291.468 109.504C291.468 109.504 307.361 103.921 311.055 114.67C314.75 125.42 311.086 131.513 308.749 132.52C306.411 133.527 290.957 135.309 291.584 137.567C292.212 139.824 302.998 142.161 308.605 139.323C308.605 139.323 303.983 158.411 295.475 158.585C286.966 158.759 283.771 153.094 278.515 153.31C273.258 153.529 269.609 155.642 272.373 156.92C275.137 158.198 283.849 155.96 288.463 159.534C293.076 163.109 296.733 165.207 289.098 168.075C281.463 170.943 267.32 171.618 263.834 165.054L260.347 158.49H260.349Z" fill="#D2E3FC"/>
<path d="M303.98 119.104C303.98 119.104 263.435 140.306 260.349 158.49C260.349 158.49 261.321 166.319 257.997 175.878L258.337 179.344C258.337 179.344 261.589 166.986 263.835 165.056C263.835 165.056 252.918 151.037 303.98 119.104Z" fill="#A4C8FC"/>
<path d="M257.997 175.878C257.997 175.878 252.622 188.087 257.681 201.433L259.3 200.699C259.3 200.699 256.183 185.678 258.827 177.573C261.47 169.469 257.997 175.878 257.997 175.878Z" fill="#A4C8FC"/>
<path d="M199.406 74.6304C205.956 82.6667 202.549 98.6253 202.549 98.6253C202.549 98.6253 188.519 101.555 181.967 93.5188C175.417 85.4825 178.824 69.5239 178.824 69.5239C178.824 69.5239 192.854 66.5941 199.406 74.6304Z" fill="#A4C8FC"/>
<path d="M199.405 74.6305C205.956 82.6668 202.548 98.6254 202.548 98.6254L178.824 69.5258C178.824 69.5258 192.853 66.5961 199.405 74.6324V74.6305Z" fill="#D2E3FC"/>
<path d="M283.893 105.238C280.475 109.803 272.749 108.575 272.749 108.575C272.749 108.575 270.567 99.9445 273.986 95.3798C277.404 90.8152 285.13 92.0427 285.13 92.0427C285.13 92.0427 287.312 100.673 283.893 105.238Z" fill="#A4C8FC"/>
<path d="M243.489 145.396C241.197 146.128 238.545 143.419 238.545 143.419C238.545 143.419 239.609 139.521 241.901 138.789C244.193 138.056 246.845 140.766 246.845 140.766C246.845 140.766 245.781 144.663 243.491 145.396H243.489Z" fill="#A4C8FC"/>
<path d="M203.019 59.7279C204.589 64.0217 201.205 69.7672 201.205 69.7672C201.205 69.7672 195.272 68.5508 193.701 64.2571C192.131 59.9633 195.517 54.2178 195.517 54.2178C195.517 54.2178 201.449 55.4342 203.02 59.7279H203.019Z" fill="#A4C8FC"/>
<path d="M259.284 124.52C272.936 108.783 272.936 83.2695 259.284 67.5332C245.633 51.7968 223.499 51.7968 209.847 67.5332C196.195 83.2695 196.195 108.783 209.847 124.52C223.499 140.256 245.633 140.256 259.284 124.52Z" fill="#E2810E"/>
<path d="M256.258 124.959C269.91 109.223 269.91 83.709 256.258 67.9726C242.606 52.2363 220.472 52.2362 206.82 67.9726C193.169 83.709 193.169 109.223 206.82 124.959C220.472 140.695 242.606 140.695 256.258 124.959Z" fill="#FFB93E"/>
<path d="M235.569 133.365C227.128 134.591 218.779 131.953 212.058 125.94C205.338 119.925 201.052 111.255 199.989 101.526C198.925 91.7972 201.214 82.1727 206.43 74.426C211.648 66.6793 219.169 61.739 227.61 60.5133C236.05 59.2876 244.4 61.9259 251.12 67.9386C257.841 73.9533 262.126 82.623 263.19 92.3521C264.253 102.081 261.964 111.708 256.748 119.452C251.53 127.199 244.009 132.139 235.569 133.365ZM227.848 62.6845C211.463 65.0631 199.81 82.3632 201.874 101.252C203.937 120.138 218.946 133.571 235.332 131.192C251.717 128.813 263.37 111.513 261.306 92.6249C259.243 73.7384 244.234 60.3059 227.85 62.6845H227.848Z" fill="#FFA412"/>
<path d="M237.096 106.879C237.091 106.081 236.989 105.381 236.789 104.775C236.59 104.17 236.267 103.621 235.822 103.131C235.376 102.641 234.8 102.189 234.099 101.778C233.395 101.367 232.538 100.965 231.524 100.575C229.782 99.8874 228.2 99.1643 226.777 98.4075C225.353 97.6508 224.133 96.7726 223.117 95.7748C222.1 94.7771 221.308 93.6074 220.742 92.264C220.174 90.9206 219.886 89.3193 219.875 87.4583C219.865 85.8458 220.103 84.3716 220.591 83.0375C221.079 81.7053 221.781 80.5412 222.697 79.5453C223.613 78.5513 224.712 77.7403 225.992 77.1125C227.274 76.4847 228.712 76.0793 230.307 75.8962L230.27 69.8031L234.525 69.7676L234.564 75.9466C236.089 76.1615 237.475 76.6155 238.721 77.3069C239.966 77.9982 241.026 78.9025 241.903 80.0143C242.779 81.1279 243.456 82.447 243.936 83.9698C244.416 85.4945 244.661 87.206 244.672 89.1044L236.987 89.1679C236.972 86.8903 236.523 85.1899 235.638 84.067C234.753 82.9459 233.575 82.3891 232.105 82.4022C231.307 82.4097 230.62 82.5423 230.046 82.8039C229.471 83.0636 228.999 83.4205 228.629 83.8689C228.26 84.3192 227.987 84.848 227.814 85.4571C227.641 86.0663 227.556 86.7221 227.561 87.4246C227.566 88.1272 227.658 88.7625 227.838 89.3305C228.018 89.8985 228.328 90.4235 228.766 90.9037C229.203 91.3839 229.782 91.8342 230.503 92.2565C231.225 92.6788 232.118 93.1123 233.184 93.5588C234.907 94.2857 236.478 95.0312 237.892 95.7973C239.305 96.5652 240.521 97.4509 241.539 98.458C242.555 99.4651 243.348 100.64 243.915 101.984C244.482 103.327 244.771 104.919 244.782 106.761C244.792 108.432 244.549 109.934 244.053 111.266C243.555 112.6 242.848 113.753 241.933 114.729C241.017 115.704 239.91 116.492 238.61 117.092C237.31 117.692 235.864 118.083 234.269 118.268L234.304 123.935L230.075 123.97L230.04 118.333C228.566 118.174 227.141 117.815 225.765 117.259C224.387 116.7 223.164 115.889 222.094 114.826C221.024 113.763 220.165 112.417 219.516 110.79C218.868 109.162 218.537 107.21 218.523 104.932L226.208 104.869C226.216 106.216 226.386 107.341 226.72 108.239C227.054 109.138 227.496 109.856 228.049 110.394C228.602 110.93 229.229 111.306 229.931 111.517C230.633 111.73 231.346 111.832 232.074 111.827C232.907 111.819 233.638 111.691 234.265 111.438C234.893 111.186 235.418 110.84 235.841 110.399C236.264 109.96 236.58 109.439 236.789 108.839C236.998 108.239 237.101 107.589 237.096 106.887V106.879Z" fill="#FFA412"/>
<path d="M262.456 194.902L262.453 194.934L261.757 207.277L259.169 253.109H210.785L207.935 207.905L207.15 195.448L207.116 194.902H262.456Z" fill="#739AF0"/>
<path d="M262.453 194.934L261.756 207.278C258.11 205.813 247.981 202.298 234.785 202.298C218.119 202.298 207.933 207.905 207.933 207.905L207.149 195.446L262.451 194.933L262.453 194.934Z" fill="#618DD8"/>
<path d="M264.137 201.427H205.361L204.688 193.55H264.882L264.137 201.427Z" fill="#739AF0"/>
<path d="M259.913 255.554H209.745L209.172 252.812H260.55L259.913 255.554Z" fill="#618DD8"/>
<path d="M173.13 230.024C173.085 229.736 172.221 223.004 174.432 215.502C176.555 208.294 175.38 202.184 175.371 202.122H176.933C176.974 202.384 177.082 208.381 175.418 216.601C173.92 223.998 176.716 230.022 176.121 230.022H173.13V230.024Z" fill="#A4C8FC"/>
<path d="M176.413 210.151C176.421 210.113 177.167 205.181 179.173 204.62C178.277 204.755 177.137 205.495 176.5 206.874C176.027 207.897 176.192 208.189 176.184 208.23L176.414 210.153L176.413 210.151Z" fill="#A4C8FC"/>
<path d="M172.705 208.998C172.705 208.998 170.742 205.323 168.347 204.109C168.347 204.109 168.802 212.421 167.455 212.423C166.108 212.425 167.526 203.118 167.526 203.118C167.526 203.118 161.365 198.554 158.763 198.473C158.763 198.473 161.976 206.986 160.67 206.605C159.363 206.224 155.664 197.546 155.664 197.546C155.664 197.546 149.101 195.157 147.532 199.591C145.963 204.024 147.457 206.567 148.422 206.995C149.386 207.423 155.781 208.238 155.513 209.17C155.244 210.103 150.769 211.018 148.457 209.815C148.457 209.815 150.302 217.743 153.824 217.857C157.348 217.971 158.692 215.639 160.869 215.755C163.046 215.871 164.549 216.764 163.399 217.279C162.25 217.795 158.65 216.825 156.726 218.285C154.802 219.742 153.28 220.594 156.431 221.818C159.582 223.044 164.485 222.289 166.881 220.695C166.888 220.689 168.771 220.658 169.687 230.768C170.04 234.666 169.282 240.351 169.282 240.351L170.485 240.23C171.773 229.069 168.784 219.49 168.784 219.49C168.784 219.49 175.023 214.858 172.705 208.996V208.998Z" fill="#A4C8FC"/>
<path d="M180.314 206.005C179.283 206.334 178.09 205.115 178.09 205.115C178.09 205.115 178.568 203.363 179.599 203.032C180.63 202.703 181.823 203.921 181.823 203.921C181.823 203.921 181.345 205.674 180.314 206.005Z" fill="#A4C8FC"/>
<path d="M192.172 179.212C188.572 181.928 188.602 189.322 188.602 189.322C188.602 189.322 194.469 192.31 198.069 189.591C201.669 186.874 201.638 179.481 201.638 179.481C201.638 179.481 195.772 176.493 192.172 179.212Z" fill="#A4C8FC"/>
<path d="M192.172 179.212C188.572 181.928 188.602 189.322 188.602 189.322L201.638 179.481C201.638 179.481 195.772 176.493 192.172 179.212Z" fill="#D2E3FC"/>
<path d="M191.956 172.255C190.876 173.942 191.831 176.864 191.831 176.864C191.831 176.864 194.537 177.053 195.616 175.368C196.696 173.68 195.741 170.756 195.741 170.756C195.741 170.756 193.036 170.568 191.956 172.253V172.255Z" fill="#A4C8FC"/>
<path d="M160.698 186.062C159.614 176.13 165.719 167.066 174.336 165.814C182.953 164.564 190.816 171.6 191.902 181.533C192.986 191.466 186.882 200.53 178.265 201.782C169.648 203.032 161.785 195.995 160.698 186.062Z" fill="#E2810E"/>
<path d="M159.337 186.261C158.252 176.328 164.357 167.264 172.974 166.012C181.591 164.762 189.454 171.799 190.54 181.731C191.625 191.664 185.52 200.728 176.903 201.98C168.286 203.23 160.423 196.193 159.337 186.261Z" fill="#FFB93E"/>
<path d="M176.751 200.594C172.955 201.145 169.199 199.958 166.176 197.253C163.153 194.547 161.225 190.648 160.747 186.272C160.269 181.896 161.298 177.567 163.646 174.082C165.993 170.597 169.376 168.376 173.172 167.824C176.968 167.273 180.724 168.46 183.747 171.165C186.77 173.871 188.697 177.77 189.176 182.146C189.654 186.522 188.625 190.851 186.277 194.336C183.93 197.821 180.547 200.042 176.751 200.594ZM173.279 168.802C165.908 169.872 160.668 177.653 161.595 186.149C162.522 194.644 169.274 200.685 176.644 199.616C184.015 198.548 189.255 190.765 188.328 182.27C187.399 173.774 180.649 167.733 173.279 168.802Z" fill="#FFA412"/>
<path d="M177.438 188.68C177.437 188.321 177.39 188.006 177.3 187.733C177.211 187.46 177.065 187.213 176.864 186.993C176.663 186.772 176.406 186.571 176.09 186.384C175.773 186.199 175.388 186.018 174.932 185.842C174.149 185.532 173.438 185.207 172.797 184.867C172.157 184.527 171.608 184.132 171.15 183.682C170.693 183.234 170.337 182.707 170.082 182.103C169.828 181.5 169.696 180.778 169.692 179.941C169.687 179.216 169.795 178.553 170.014 177.953C170.233 177.353 170.549 176.83 170.961 176.384C171.373 175.937 171.867 175.571 172.444 175.289C173.021 175.007 173.668 174.824 174.384 174.741L174.366 172L176.281 171.985L176.299 174.766C176.984 174.863 177.608 175.066 178.169 175.379C178.728 175.691 179.207 176.096 179.601 176.597C179.994 177.098 180.299 177.692 180.515 178.376C180.73 179.061 180.841 179.831 180.845 180.685L177.388 180.713C177.381 179.689 177.179 178.923 176.782 178.419C176.383 177.914 175.854 177.664 175.192 177.669C174.833 177.673 174.524 177.733 174.266 177.85C174.008 177.968 173.796 178.127 173.629 178.329C173.462 178.531 173.34 178.77 173.263 179.043C173.185 179.317 173.146 179.611 173.149 179.928C173.151 180.244 173.193 180.53 173.274 180.786C173.355 181.042 173.494 181.277 173.69 181.494C173.887 181.711 174.148 181.913 174.472 182.101C174.796 182.29 175.198 182.486 175.678 182.686C176.453 183.013 177.159 183.349 177.795 183.693C178.43 184.039 178.978 184.437 179.435 184.891C179.892 185.343 180.249 185.872 180.503 186.477C180.758 187.083 180.888 187.798 180.894 188.626C180.899 189.377 180.789 190.053 180.565 190.651C180.341 191.251 180.024 191.771 179.612 192.21C179.2 192.649 178.701 193.004 178.117 193.273C177.532 193.542 176.882 193.718 176.164 193.802L176.18 196.35L174.279 196.365L174.263 193.83C173.6 193.759 172.959 193.598 172.34 193.346C171.721 193.095 171.17 192.731 170.688 192.251C170.207 191.772 169.821 191.167 169.529 190.435C169.238 189.702 169.089 188.824 169.082 187.8L172.54 187.772C172.543 188.379 172.621 188.884 172.77 189.287C172.919 189.691 173.118 190.014 173.368 190.255C173.616 190.496 173.898 190.664 174.214 190.76C174.53 190.855 174.851 190.902 175.179 190.9C175.553 190.896 175.882 190.838 176.164 190.726C176.446 190.612 176.683 190.457 176.872 190.259C177.062 190.061 177.205 189.827 177.299 189.556C177.393 189.287 177.438 188.994 177.437 188.678L177.438 188.68Z" fill="#FFA412"/>
<path d="M188.845 228.273L188.844 228.288L188.531 233.84L187.367 254.454H165.602L164.322 234.122L163.968 228.518L163.952 228.273H188.845Z" fill="#B4C9F7"/>
<path d="M188.844 228.288L188.531 233.841C186.89 233.183 182.335 231.601 176.399 231.601C168.902 231.601 164.322 234.123 164.322 234.123L163.968 228.52L188.844 228.288Z" fill="#9BB8EA"/>
<path d="M189.601 231.209H163.164L162.861 227.664H189.936L189.601 231.209Z" fill="#B4C9F7"/>
<path d="M187.701 255.554H165.136L164.878 254.321H187.988L187.701 255.554Z" fill="#B4C9F7"/>
<path d="M278.521 149.588C278.521 149.588 276.036 149.029 275.467 149.588C274.898 150.147 272.204 153.305 272.781 154.34C273.359 155.377 276.126 153.482 276.701 153.303C277.276 153.123 278.884 152.4 278.884 152.4L278.521 149.588Z" fill="#FFB27D"/>
<path d="M304.932 250.874L307.596 252.017C307.596 252.017 319.168 233.518 320.593 217.24C320.848 214.334 320.763 211.518 320.212 208.917C320.212 208.917 320.326 208.172 320.524 206.856C320.614 206.242 320.728 205.502 320.856 204.655C321.232 202.17 321.749 198.772 322.342 194.9C323.704 185.991 325.467 174.603 326.839 166.232L326.121 165.967L318.353 163.078L316.748 157.202L310.965 155.447C310.965 155.447 309.673 158.36 308.517 172.123C308.305 173.928 308.11 175.92 307.964 178.078C307.514 184.666 307.481 192.841 308.515 202.185C308.781 204.577 309.115 207.047 309.532 209.584C309.837 211.445 309.882 213.979 309.754 216.89C309.17 230.196 304.933 250.876 304.933 250.876L304.932 250.874Z" fill="#2B478B"/>
<path d="M307.963 178.076L320.522 206.858C320.613 206.244 320.726 205.504 320.854 204.657C321.23 202.172 321.747 198.773 322.341 194.902C323.702 185.993 325.466 174.605 326.837 166.234L326.119 165.969L318.351 163.08L316.747 157.204L310.963 155.449C310.963 155.449 309.671 158.362 308.515 172.125C308.303 173.93 308.109 175.922 307.963 178.08V178.076Z" fill="#233862"/>
<path d="M313.489 159.14L313.779 156.266C318.65 157.757 331.665 152.1 331.665 152.1C331.665 152.1 336.383 156.881 335.764 168.342C335.461 173.936 334.91 197.707 334.333 204.742C334.124 207.291 333.942 209.105 333.867 209.83C333.867 209.834 333.867 209.835 333.867 209.837C333.845 210.058 333.911 210.267 334.009 210.459C334.858 212.121 335.561 213.851 336.138 215.622C341.8 233.016 335.266 254.436 335.266 254.436L333.571 253.647C333.571 253.647 329.852 229.809 326.831 219.279C326.319 217.492 325.826 216.089 325.375 215.25C324.062 212.806 322.842 208.813 321.736 204.064C319.645 195.084 317.961 183.402 316.841 174.385C316.687 174.392 313.492 159.142 313.492 159.142L313.489 159.14Z" fill="#2B478B"/>
<path d="M278.521 149.588L278.884 152.4C278.884 152.4 279.045 152.4 279.329 152.378C280.215 152.309 282.373 152.168 284.812 151.866C288.482 151.447 292.836 150.704 294.57 149.472C297.211 147.613 301.547 141.92 304.369 136.225C304.45 136.085 304.51 135.946 304.57 135.806C306.042 132.785 307.07 129.786 307.151 127.393C307.211 125.928 307.07 124.674 306.809 123.581C306.467 122.14 305.901 121 305.316 120.141C305.235 120.001 305.154 119.863 305.034 119.745C304.066 118.42 303.118 117.863 303.118 117.863C302.633 117.63 302.11 117.91 301.565 118.583V118.605C301.121 119.14 300.638 119.952 300.174 120.976C300.155 120.999 300.134 121.023 300.134 121.045C300.033 121.255 299.933 121.486 299.811 121.742C299.77 121.789 299.751 121.858 299.73 121.905C299.508 122.439 299.286 122.998 299.064 123.579C296.584 129.807 293.943 139.244 291.745 142.056C290.797 143.265 286.462 145.636 283.015 147.402C280.535 148.658 278.518 149.586 278.518 149.586L278.521 149.588Z" fill="#FFB27D"/>
<path d="M304.183 124.28C305.711 125.098 307.559 125.653 309.793 125.795C318.167 126.324 320.068 117.862 320.413 112.245C319.206 111.74 318.149 111.789 317.539 111.826C316.946 111.864 316.325 111.935 315.815 112.008C314.79 111.391 312.95 108.394 311.887 103.383L311.526 103.575L305.483 106.849C305.483 106.849 306.125 109.115 306.598 111.285C306.967 112.981 307.233 114.622 307.011 115.081C306.535 115.304 306.249 115.446 306.249 115.446C306.249 115.446 306.249 115.448 306.248 115.453C306.186 115.631 304.873 119.489 304.181 124.282L304.183 124.28Z" fill="#FFB27D"/>
<path d="M302.088 130.614C302.152 130.807 302.221 130.996 302.298 131.188C304.418 136.453 308.344 158.264 308.344 158.264C307.785 162.186 333.91 157.494 333.978 153.924C334.898 150.138 330.713 144.054 328.353 141.003C328.058 140.62 327.792 140.209 327.562 139.774C326.978 138.686 326.609 137.457 326.492 136.173C326.028 131.111 326.205 126.369 326.166 123.484C325.706 123.09 325.258 122.728 324.844 122.382C324.208 121.848 323.647 121.349 323.234 120.842C322.78 120.291 322.495 119.727 322.462 119.09C322.438 118.608 322.451 118.114 322.495 117.621C322.514 117.388 322.54 117.154 322.571 116.922C322.897 114.473 323.785 112.251 323.785 112.251C321.538 111.203 317.543 111.827 317.543 111.827C317.543 111.827 317.548 112.083 317.549 112.501C317.562 114.183 317.549 118.503 317.081 119.321C316.496 120.34 305.792 124.8 305.227 123.419C304.669 122.061 306.194 115.695 306.251 115.454C306.253 115.448 306.253 115.446 306.253 115.446C302.669 117.068 301.387 118.43 301.387 118.43C303.547 120.044 300.419 125.508 302.088 130.616V130.614Z" fill="#F99746"/>
<path d="M309.298 85.1186C309.311 84.7 309.592 80.1895 315.552 79.9541C315.552 79.9541 312.621 80.3577 312.116 81.8413C312.116 81.8413 314.111 80.0064 315.735 80.5969C317.359 81.1873 318.314 84.4683 318.324 85.5483C318.334 86.6283 317.431 90.1074 316.4 90.4026C316.009 90.5147 315.56 90.4848 315.15 90.4026C315.424 90.8959 315.693 91.4415 315.951 92.0487C318.329 97.6747 315.876 103.174 313.863 102.566C312.573 102.176 312.206 104.717 312.206 104.717L299.663 93.0128C299.663 93.0128 304.27 82.0244 309.298 85.1167V85.1186Z" fill="#2C3A64"/>
<path d="M305.482 106.851C305.482 106.851 306.124 109.115 306.598 111.286C310.13 110.15 311.203 105.872 311.525 103.577L305.482 106.851Z" fill="#ED985F"/>
<path d="M304.738 109.248C304.738 109.248 313.188 106.995 311.89 100.95C310.592 94.9057 310.807 90.5447 305.358 91.7274C299.908 92.912 299.358 95.5148 299.367 97.6542C299.375 99.7936 302.508 109.678 304.74 109.248H304.738Z" fill="#FFB27D"/>
<path d="M298.892 94.2232C299.8 92.0334 300.869 92.1492 301.539 92.5378C305.51 88.3039 309.404 91.7624 309.404 91.7624C310.903 95.9366 314.152 97.6425 314.152 97.6425C314.152 97.6425 312.853 99.1747 309.091 99.141C307.942 99.1298 306.786 98.5226 305.734 97.6836C307.762 100.038 310.14 101.471 310.14 101.471C305.429 100.432 302.272 94.1466 301.947 93.4795C301.549 94.1597 300.785 95.604 300.72 96.826C300.633 98.4852 301.129 101.706 300.304 101.83C300.304 101.83 297.527 97.5099 298.89 94.2232H298.892Z" fill="#2C3A64"/>
<path d="M301.385 118.428C301.385 118.428 299.351 122.52 299.046 123.572C299.046 123.572 301.685 123.454 302.75 125.793C302.75 125.793 303.006 118.979 301.385 118.428Z" fill="#F99746"/>
<path d="M315.379 150.936C320.532 150.872 324.895 144.704 327.562 139.775C326.978 138.688 326.609 137.458 326.492 136.175C326.028 131.113 326.205 126.371 326.166 123.486C325.706 123.092 325.258 122.729 324.844 122.383C324.208 121.849 323.647 121.35 323.234 120.844C319.015 129.065 308.392 151.021 315.379 150.936Z" fill="#ED7D2B"/>
<path d="M295.901 154.166L296.606 157.14C296.606 157.14 297.493 156.955 298.905 156.652C299.328 156.559 299.569 156.49 299.569 156.49C300.698 156.234 302.049 155.886 303.521 155.515H303.541C306.061 154.818 308.883 153.981 311.263 153.05C312.936 152.376 314.388 151.656 315.375 150.935C315.476 150.866 315.557 150.795 315.657 150.701C318.016 148.726 320.819 142.915 322.997 136.688C323.3 135.828 323.582 134.969 323.864 134.132C324.873 131.017 325.678 127.949 326.163 125.299C326.466 123.719 326.667 122.278 326.707 121.094C326.727 120.675 326.748 120.281 326.727 119.909C326.686 113.169 323.783 112.239 323.783 112.239C323.723 112.216 323.662 112.192 323.582 112.17C323.078 112.076 322.555 112.472 322.01 113.238C321.324 114.191 320.598 115.748 319.852 117.631C318.703 120.63 317.494 124.511 316.364 128.369C315.738 130.485 315.134 132.6 314.529 134.55C314.187 135.735 313.844 136.85 313.521 137.874C312.895 139.827 312.331 141.408 311.827 142.405C311.504 143.056 310.577 143.962 309.347 144.986C307.211 146.776 304.085 148.938 301.362 150.703C300.232 151.447 299.164 152.121 298.277 152.678C296.846 153.584 295.898 154.166 295.898 154.166H295.901Z" fill="#FFB27D"/>
<path d="M319.861 117.641C323.743 116.408 326.737 119.9 326.737 119.9C326.688 113.172 323.782 112.25 323.782 112.25C322.613 111.692 321.258 114.025 319.861 117.641Z" fill="#F99746"/>
<path d="M325.404 256.029H338.823C338.823 256.029 339.144 253.671 338.443 251.883C337.772 250.166 336.72 249.386 336.971 247.311C336.119 248.323 334.73 249.456 332.789 249.155C332.551 249.599 331.254 251.976 330.462 252.634C329.585 253.361 325.675 253.101 325.404 256.029Z" fill="#233862"/>
<path d="M296.593 256.03H310.012C310.012 256.03 310.513 253.564 309.632 251.884C308.853 250.398 309.151 249.552 309.73 248.323C309.122 248.61 308.336 248.87 307.47 248.814C306.802 248.769 306.094 248.42 305.475 248.005C304.898 248.763 302.424 251.994 301.651 252.635C300.774 253.362 296.864 253.102 296.593 256.03Z" fill="#233862"/>
<path d="M295.102 167.949L291.914 158.982C291.499 157.813 290.385 157.205 289.351 157.534C288.296 155.245 286.84 153.384 285.19 152.078C283.452 150.699 281.501 149.939 279.575 149.948C278.559 149.954 277.546 150.174 276.578 150.632C272.044 152.773 270.011 159.377 271.676 165.862L271.428 165.978C271.428 165.978 270.653 165.916 269.353 165.916C265.247 165.916 255.912 166.546 249.362 171.789C249.362 171.789 248.95 172.293 248.934 173.065C248.926 173.319 248.963 173.605 249.072 173.911C249.072 173.911 259.585 166.064 269.308 174.128C269.906 174.622 270.483 175.079 271.049 175.503L271.921 177.957C273.367 182.026 277.437 183.988 280.966 182.321L289.871 178.114L291.727 177.237C294.87 175.754 296.389 171.572 295.101 167.949H295.102ZM277.837 160.681L274.21 162.396C273.224 162.861 272.705 164.096 272.96 165.257L272.571 165.44C271.096 159.532 272.895 153.573 276.944 151.662C277.513 151.393 278.097 151.217 278.688 151.131C280.552 150.847 282.494 151.426 284.242 152.682C285.902 153.874 287.382 155.677 288.448 157.94L287.913 158.192C287.388 157.162 286.268 156.701 285.282 157.164L281.653 158.88C281.369 158.082 280.697 157.598 279.99 157.598C279.766 157.598 279.538 157.648 279.319 157.751L278.816 157.988C277.905 158.42 277.465 159.631 277.839 160.681H277.837Z" fill="#C94C43"/>
<path d="M271.05 175.502C270.486 175.078 269.908 174.62 269.309 174.127C259.585 166.063 249.073 173.91 249.073 173.91C248.965 173.606 248.926 173.32 248.936 173.064C250.407 171.946 255.924 168.23 262.758 169.501C270.767 170.99 272.214 172.273 271.05 175.502Z" fill="#B23B38"/>
<path d="M291.73 177.237L289.874 178.114C292.656 176.363 289.211 168.966 287.196 164.083C285.182 159.199 282.133 161.432 282.133 161.432C281.434 159.795 279.938 159.883 279.938 159.883C279.86 158.306 278.816 157.988 278.816 157.988L279.319 157.751C279.537 157.648 279.768 157.598 279.99 157.598C280.696 157.598 281.371 158.082 281.653 158.88L285.282 157.164C286.268 156.699 287.388 157.163 287.913 158.192L288.448 157.94C287.381 155.677 285.901 153.874 284.241 152.682C282.496 151.426 280.552 150.847 278.688 151.131C278.98 150.86 279.294 150.481 279.575 149.95C281.5 149.941 283.452 150.701 285.19 152.08C286.838 153.386 288.294 155.246 289.351 157.536C290.385 157.207 291.498 157.815 291.913 158.984L295.102 167.951C296.392 171.574 294.872 175.756 291.729 177.239L291.73 177.237Z" fill="#B23B38"/>
<path d="M287.553 157.049C288.844 157.677 290.657 159.861 293.562 158.536C295.639 157.606 297.837 156.955 298.905 156.653C299.328 156.559 299.569 156.49 299.569 156.49L298.42 152.632C298.42 152.632 298.38 152.654 298.279 152.679C297.534 152.864 293.742 153.794 291.969 153.329C289.973 152.794 286.626 155.56 286.626 155.56C286.626 155.56 286.263 156.444 287.553 157.047V157.049Z" fill="#FFB27D"/>
<path d="M251.127 180.388C251.127 178.992 248.934 174.684 248.934 174.684C248.934 174.684 246.741 178.992 246.741 180.388C246.741 181.784 247.723 182.916 248.934 182.916C250.145 182.916 251.127 181.784 251.127 180.388Z" fill="#AFCDFB"/>
<path d="M310.668 13.0015L307.451 13.8105L307.374 13.8311C306.984 13.932 306.719 14.3524 306.763 14.8083L307.053 17.9604C307.058 18.0127 307.06 18.0631 307.057 18.1136C307.034 18.463 306.838 18.7788 306.544 18.8927C304.823 19.6009 303.242 20.6902 301.892 22.1103C301.836 22.1682 301.774 22.2149 301.709 22.2523C301.463 22.3905 301.161 22.37 300.926 22.1906L299.023 20.7126C298.772 20.5202 298.448 20.5164 298.195 20.679C298.119 20.7313 298.044 20.7986 297.983 20.8827L295.815 23.8479C295.548 24.2123 295.567 24.7579 295.864 25.0979L298.025 27.5849C298.237 27.8315 298.308 28.194 298.205 28.521C298.062 28.9937 297.935 29.472 297.83 29.9653C297.631 30.8902 297.509 31.8132 297.457 32.7288V32.7325C297.435 33.1156 297.216 33.4369 296.9 33.5509L293.938 34.6085L293.789 34.6627C293.408 34.7934 293.173 35.2512 293.259 35.7053L293.974 39.4983C294.063 39.9598 294.437 40.2737 294.846 40.2232L297.89 39.8514C298.229 39.8084 298.551 40.0214 298.689 40.3764C299.289 41.8619 300.083 43.2371 301.048 44.4441C301.291 44.7543 301.32 45.2121 301.117 45.5615L299.602 48.1661C299.372 48.5641 299.44 49.0873 299.753 49.39L302.333 51.8993C302.639 52.1945 303.09 52.1702 303.369 51.847L305.909 48.9247C306.123 48.6762 306.442 48.5903 306.732 48.7005C307.089 48.8388 307.452 48.9621 307.822 49.0667C308.522 49.2666 309.221 49.4012 309.911 49.474C310.226 49.5039 310.495 49.7468 310.584 50.0962L311.681 54.2013C311.804 54.6534 312.202 54.9188 312.6 54.8197L315.902 53.9939C316.251 53.9042 316.504 53.5492 316.518 53.1475C316.518 53.1063 316.521 53.0596 316.513 53.0167L316.157 49.1228C316.123 48.7603 316.273 48.4109 316.549 48.2352C316.573 48.2184 316.596 48.2016 316.622 48.1923C316.698 48.153 316.771 48.1194 316.846 48.0708C317.734 47.6018 318.578 47.0189 319.361 46.3406C319.621 46.1089 319.984 46.1014 320.258 46.3182L322.645 48.1624C322.983 48.4258 323.441 48.3473 323.704 47.9867L324.187 47.329L325.866 45.0271C326.132 44.6683 326.111 44.1339 325.821 43.7976L323.693 41.3481C323.464 41.0883 323.407 40.6922 323.54 40.3559C323.89 39.474 324.177 38.5323 324.388 37.5513C324.544 36.8226 324.654 36.0864 324.719 35.3596L325.341 35.1391L327.891 34.2273C328.207 34.1189 328.422 33.7863 328.434 33.4201C328.439 33.3435 328.431 33.2669 328.416 33.1884L327.703 29.3693C327.615 28.919 327.246 28.6181 326.85 28.663L324.77 28.9208C324.42 28.9638 324.078 28.7228 323.955 28.3416C323.448 26.7572 322.73 25.2792 321.827 23.9656C321.613 23.6536 321.595 23.2276 321.788 22.9137L323.704 19.6233C323.916 19.2534 323.858 18.7601 323.561 18.4723L320.948 15.9406C320.639 15.6397 320.185 15.6622 319.906 15.991L317.264 19.0329C317.038 19.2963 316.696 19.3711 316.4 19.2253C315.764 18.9133 315.095 18.6629 314.398 18.4649C314.024 18.3584 313.649 18.2687 313.275 18.1995C312.981 18.1435 312.74 17.9043 312.649 17.5773L311.595 13.6423C311.472 13.1864 311.073 12.9136 310.667 13.0108L310.668 13.0015ZM304.199 30.7781C304.515 29.7934 304.995 28.8293 305.658 27.9119C305.797 27.7157 305.972 27.5157 306.163 27.3158C307 26.4675 308.222 25.6996 309.172 25.466C316.44 23.6929 321.259 32.7213 316.74 39.3656C316.666 39.474 316.59 39.5823 316.51 39.6889C315.776 40.6922 314.254 41.7442 313.143 42.0282C312.561 42.1776 311.994 42.2561 311.448 42.2748C305.982 42.4411 302.404 36.3835 304.199 30.7762V30.7781Z" fill="#DFEDFB"/>
<path d="M359.806 25.8602L354.742 26.3871L354.622 26.4002C354.006 26.4693 353.533 27.0541 353.521 27.7642L353.442 32.6577C353.442 32.738 353.434 32.8184 353.421 32.8931C353.327 33.4238 352.975 33.8629 352.505 33.9731C349.749 34.6756 347.148 35.9985 344.844 37.8763C344.749 37.9529 344.645 38.0109 344.54 38.0538C344.139 38.2108 343.682 38.1118 343.352 37.7866L340.682 35.1016C340.328 34.7522 339.832 34.6719 339.419 34.8681C339.294 34.9316 339.169 35.0176 339.059 35.1334L335.247 39.1955C334.777 39.6944 334.715 40.5352 335.114 41.1219L338.01 45.41C338.294 45.8342 338.343 46.404 338.132 46.8842C337.835 47.5774 337.563 48.2819 337.318 49.0143C336.86 50.3876 336.519 51.774 336.287 53.166V53.1716C336.189 53.7527 335.801 54.1993 335.295 54.3021L330.582 55.2662L330.345 55.3167C329.739 55.4344 329.303 56.0809 329.361 56.7983L329.826 62.7663C329.888 63.4912 330.408 64.0574 331.042 64.0705L335.767 64.1732C336.292 64.1826 336.753 64.5805 336.903 65.1523C337.576 67.5626 338.563 69.8422 339.841 71.9031C340.162 72.4319 340.131 73.14 339.761 73.6296L337.007 77.2843C336.589 77.843 336.607 78.6595 337.035 79.192L340.572 83.6072C340.991 84.1285 341.687 84.1902 342.167 83.7567L346.543 79.8404C346.913 79.5059 347.415 79.448 347.842 79.6797C348.364 79.9711 348.9 80.2383 349.45 80.4831C350.489 80.9446 351.536 81.3034 352.583 81.5668C353.061 81.6827 353.432 82.1143 353.512 82.6692L354.512 89.2014C354.627 89.9208 355.189 90.4159 355.817 90.3524L361.012 89.8161C361.561 89.7545 362.007 89.2687 362.096 88.6539C362.104 88.5904 362.116 88.5213 362.113 88.4521L362.213 82.4095C362.22 81.8471 362.51 81.3445 362.96 81.1352C362.999 81.1147 363.038 81.096 363.08 81.0848C363.203 81.0437 363.32 81.0044 363.442 80.9484C364.88 80.4271 366.27 79.7189 367.585 78.8538C368.019 78.5567 368.577 78.624 368.961 79.0182L372.312 82.3703C372.785 82.8467 373.5 82.8299 373.962 82.3366L374.811 81.4342L377.768 78.2783C378.235 77.7869 378.29 76.9629 377.904 76.3837L375.051 72.1609C374.743 71.7125 374.724 71.094 374.983 70.6064C375.665 69.3339 376.262 67.955 376.748 66.4976C377.11 65.4158 377.4 64.3115 377.619 63.2109L378.607 63.011L382.665 62.1777C383.167 62.0805 383.553 61.6209 383.631 61.0603C383.65 60.9426 383.652 60.8249 383.64 60.7016L383.182 54.6926C383.122 53.9826 382.606 53.4407 381.994 53.422L378.765 53.3585C378.22 53.3473 377.737 52.9026 377.612 52.2897C377.098 49.7505 376.244 47.3271 375.08 45.1148C374.803 44.5916 374.848 43.9339 375.195 43.493L378.677 38.8741C379.063 38.3547 379.056 37.5849 378.651 37.0785L375.07 32.6203C374.647 32.0915 373.947 32.0261 373.464 32.4652L368.911 36.5422C368.522 36.8973 367.987 36.9346 367.554 36.6469C366.632 36.0303 365.648 35.4978 364.615 35.0381C364.059 34.7915 363.5 34.5729 362.938 34.3842C362.498 34.2328 362.168 33.8124 362.083 33.2911L361.122 27.0298C361.01 26.303 360.443 25.7985 359.804 25.8583L359.806 25.8602ZM346.939 51.6657C347.586 50.2288 348.482 48.8555 349.651 47.598C349.895 47.3271 350.198 47.0599 350.524 46.7964C351.947 45.6809 353.946 44.7747 355.441 44.6271C366.87 43.5173 372.753 58.4146 364.724 67.5944C364.591 67.7439 364.456 67.8915 364.317 68.0391C363.027 69.4143 360.518 70.6886 358.772 70.8792C357.856 70.9782 356.972 70.9745 356.133 70.8829C347.731 69.93 343.258 59.8589 346.94 51.6638L346.939 51.6657Z" fill="#CDE3FD"/>
</g>
<defs>
<clipPath id="clip0_1715_7962">
<rect width="467" height="257" fill="white"/>
</clipPath>
</defs>
</svg>
