<svg width="524" height="254" viewBox="0 0 524 254" fill="none" xmlns="http://www.w3.org/2000/svg">
<g clip-path="url(#clip0_1715_7996)">
<g clip-path="url(#clip1_1715_7996)">
<path d="M39.2097 233.865C39.2097 233.865 -1.51806 174.697 23.1866 113.785C39.2899 74.0813 85.9977 39.4175 139.442 47.3239C162.253 50.6975 195.598 59.6544 227.557 26.9798C284.463 -31.2032 436.772 6.75862 406.063 121.214C391.202 176.603 451.292 178.616 420.675 233.983L39.2097 233.865Z" fill="#DFEBFA"/>
<path d="M302.38 61.5611H271.67C270.26 61.5611 269.107 60.4051 269.107 58.9939V29.3055C269.107 27.8927 270.261 26.7383 271.67 26.7383H302.38C303.79 26.7383 304.943 27.8943 304.943 29.3055V58.9939C304.943 60.4067 303.789 61.5611 302.38 61.5611Z" fill="#C0D8FB"/>
<path d="M301.049 60.0538H273C271.712 60.0538 270.659 58.9986 270.659 57.7087V30.5922C270.659 29.3023 271.712 28.2471 273 28.2471H301.049C302.337 28.2471 303.391 29.3023 303.391 30.5922V57.7087C303.391 58.9986 302.337 60.0538 301.049 60.0538Z" fill="#DFEBFD"/>
<path d="M286.283 31.425C286.283 31.014 286.614 30.6816 287.025 30.6816C287.435 30.6816 287.767 31.014 287.767 31.425C287.767 31.8361 287.435 32.1684 287.025 32.1684C286.614 32.1684 286.283 31.8361 286.283 31.425Z" fill="#B7D3F3"/>
<path d="M292.272 32.4751C292.472 32.1161 292.923 31.9869 293.282 32.1869C293.64 32.3869 293.769 32.839 293.569 33.1981C293.37 33.5572 292.918 33.6863 292.56 33.4863C292.201 33.2878 292.072 32.8342 292.272 32.4751Z" fill="#B7D3F3"/>
<path d="M297.405 36.5599C297.749 36.3378 298.208 36.437 298.431 36.7819C298.653 37.1268 298.554 37.5867 298.21 37.8104C297.865 38.0325 297.406 37.9332 297.183 37.5883C296.96 37.2434 297.059 36.7819 297.405 36.5599Z" fill="#B7D3F3"/>
<path d="M299.946 42.8799C300.356 42.8799 300.688 43.2122 300.688 43.6233C300.688 44.0343 300.356 44.3667 299.946 44.3667C299.535 44.3667 299.203 44.0343 299.203 43.6233C299.203 43.2138 299.535 42.8799 299.946 42.8799Z" fill="#B7D3F3"/>
<path d="M298.648 50.2166C298.938 50.5064 298.938 50.9773 298.648 51.2687C298.359 51.5585 297.889 51.5585 297.598 51.2687C297.309 50.9789 297.309 50.5079 297.598 50.2166C297.887 49.9252 298.357 49.9252 298.648 50.2166Z" fill="#B7D3F3"/>
<path d="M293.461 56.1665C293.871 56.1665 294.203 55.8336 294.203 55.4231C294.203 55.0125 293.871 54.6797 293.461 54.6797C293.051 54.6797 292.719 55.0125 292.719 55.4231C292.719 55.8336 293.051 56.1665 293.461 56.1665Z" fill="#B7D3F3"/>
<path d="M286.283 57.3098C286.283 56.8987 286.614 56.5664 287.025 56.5664C287.435 56.5664 287.767 56.8987 287.767 57.3098C287.767 57.7209 287.435 58.0532 287.025 58.0532C286.614 58.0532 286.283 57.7209 286.283 57.3098Z" fill="#B7D3F3"/>
<path d="M281.752 32.4751C281.553 32.1161 281.102 31.9869 280.743 32.1869C280.384 32.3869 280.256 32.839 280.455 33.1981C280.655 33.5572 281.106 33.6863 281.465 33.4863C281.823 33.2878 281.952 32.8342 281.752 32.4751Z" fill="#B7D3F3"/>
<path d="M276.622 36.5589C276.277 36.3368 275.818 36.436 275.595 36.7809C275.373 37.1259 275.472 37.5858 275.817 37.8094C276.161 38.0315 276.62 37.9323 276.843 37.5873C277.065 37.2424 276.966 36.7809 276.622 36.5589Z" fill="#B7D3F3"/>
<path d="M274.079 42.8799C273.669 42.8799 273.337 43.2122 273.337 43.6233C273.337 44.0343 273.669 44.3667 274.079 44.3667C274.489 44.3667 274.821 44.0343 274.821 43.6233C274.821 43.2138 274.489 42.8799 274.079 42.8799Z" fill="#B7D3F3"/>
<path d="M275.378 50.2156C275.088 50.5054 275.088 50.9763 275.378 51.2677C275.667 51.5575 276.137 51.5575 276.428 51.2677C276.718 50.9779 276.718 50.507 276.428 50.2156C276.137 49.9242 275.667 49.9242 275.378 50.2156Z" fill="#B7D3F3"/>
<path d="M280.039 54.8963C279.749 55.1861 279.749 55.657 280.039 55.9484C280.328 56.2381 280.798 56.2381 281.089 55.9484C281.378 55.6586 281.378 55.1876 281.089 54.8963C280.798 54.6049 280.329 54.6049 280.039 54.8963Z" fill="#B7D3F3"/>
<path d="M286.824 43.6233C286.824 43.2122 287.155 42.8799 287.566 42.8799C287.976 42.8799 288.308 43.2122 288.308 43.6233C288.308 44.0343 287.976 44.3667 287.566 44.3667C287.157 44.3667 286.824 44.0343 286.824 43.6233Z" fill="#B7D3F3"/>
<path d="M287.668 34.3359H287.465V43.6252H287.668V34.3359Z" fill="#B7D3F3"/>
<path d="M292.209 39.5042L287.292 43.3701L287.668 43.8496L292.584 39.9837L292.209 39.5042Z" fill="#B7D3F3"/>
<g opacity="0.5">
<path d="M328.132 147.974C328.132 147.974 322.49 132.422 334.737 128.515C334.737 128.515 343.205 126.934 348.701 129.394C348.701 129.394 335.703 139.771 337.78 142.074C339.857 144.377 351.431 129.465 351.431 129.465C351.431 129.465 367.696 133.859 371.83 138.193C371.83 138.193 354.281 144.131 356.86 145.851C359.439 147.571 377.986 142.242 377.986 142.242C377.986 142.242 391.655 150.24 387.523 158.87C383.389 167.5 377.321 168.357 375.198 167.286C373.075 166.215 361.996 156.389 361.032 158.098C360.068 159.807 365.627 168.677 370.976 171.011C370.976 171.011 356.404 178.502 350.794 172.64C345.185 166.776 346.556 161.352 343.024 157.792C339.493 154.231 335.849 152.864 336.862 155.518C337.875 158.172 344.869 163.018 345.683 168.261C346.498 173.504 347.591 177.243 340.912 173.507C334.233 169.77 324.675 160.241 326.404 154.108C328.132 147.974 328.132 147.974 328.132 147.974Z" fill="#AEC3FF"/>
<path d="M380.258 156.404C380.258 156.404 341.164 139.914 328.133 147.973C328.133 147.973 324.012 153.054 316.06 156.099L314.178 158.285C314.178 158.285 323.781 153.618 326.405 154.106C326.404 154.106 327.849 138.577 380.258 156.404Z" fill="#AEC3FF"/>
<path d="M316.058 156.099C316.058 156.099 305.172 159.195 300.345 170.242L301.839 170.963C301.839 170.963 308.938 160.335 315.566 157.633C322.194 154.928 316.058 156.099 316.058 156.099Z" fill="#AEC3FF"/>
</g>
<path d="M298.873 140.012C298.873 140.012 313.137 132.012 306.481 121.154C306.481 121.154 301.155 114.487 295.45 112.772C295.45 112.772 298.493 128.964 295.45 129.345C292.407 129.726 293.359 111.058 293.359 111.058C293.359 111.058 278.334 103.819 272.437 104.391C272.437 104.391 281.757 120.202 278.713 119.821C275.67 119.44 265.209 103.438 265.209 103.438C265.209 103.438 249.804 100.581 247.332 109.724C244.86 118.868 248.854 123.441 251.135 124.011C253.417 124.582 268.063 124.392 267.682 126.296C267.302 128.202 257.413 131.249 251.897 129.534C251.897 129.534 257.983 144.583 265.97 143.821C273.956 143.059 276.43 138.105 281.375 137.726C286.32 137.344 289.934 138.678 287.46 140.011C284.987 141.343 276.62 140.447 272.626 143.849C268.632 147.25 265.399 149.346 272.816 150.87C280.234 152.395 293.547 151.442 296.21 145.727C298.873 140.012 298.873 140.012 298.873 140.012Z" fill="#C8DBF4"/>
<path d="M254.368 112.581C254.368 112.581 294.308 125.535 298.873 140.013C298.873 140.013 298.683 146.489 302.677 153.918V156.775C302.677 156.775 298.493 147.059 296.211 145.727C296.211 145.727 305.15 133.153 254.368 112.581Z" fill="#C8DBF4"/>
<path d="M302.677 153.918C302.677 153.918 308.836 163.286 305.325 174.69L303.74 174.264C303.74 174.264 305.278 161.703 302.056 155.386C298.834 149.069 302.677 153.918 302.677 153.918Z" fill="#C8DBF4"/>
<path d="M315.385 119.57C315.385 119.57 294.59 107.906 304.295 92.0758C304.295 92.0758 312.058 82.3551 320.376 79.8556C320.376 79.8556 315.94 103.461 320.376 104.017C324.812 104.573 323.427 77.3561 323.427 77.3561C323.427 77.3561 345.331 66.8021 353.928 67.6353C353.928 67.6353 340.342 90.6867 344.777 90.1307C349.213 89.5748 364.464 66.2461 364.464 66.2461C364.464 66.2461 386.924 62.0803 390.528 75.411C394.132 88.7416 388.309 95.4069 384.982 96.2401C381.654 97.0733 360.304 96.7961 360.859 99.5728C361.414 102.349 375.832 106.794 383.873 104.295C383.873 104.295 375 126.234 363.354 125.124C351.709 124.013 348.105 116.792 340.895 116.236C333.685 115.68 328.418 117.625 332.022 119.569C335.626 121.512 347.826 120.205 353.649 125.165C359.472 130.123 364.186 133.178 353.372 135.399C342.559 137.621 323.15 136.232 319.268 127.9C315.385 119.57 315.385 119.57 315.385 119.57Z" fill="#D4E4F8"/>
<path d="M380.266 79.5801C380.266 79.5801 322.038 98.4657 315.384 119.572C315.384 119.572 315.661 129.014 309.838 139.845V144.011C309.838 144.011 315.937 129.847 319.265 127.904C319.266 127.904 306.235 109.574 380.266 79.5801Z" fill="#D4E4F8"/>
<path d="M309.839 139.845C309.839 139.845 300.859 153.503 305.979 170.129L308.289 169.507C308.289 169.507 306.047 151.194 310.745 141.984C315.442 132.775 309.839 139.845 309.839 139.845Z" fill="#D4E4F8"/>
<path d="M300.743 166.204C299.972 168.036 292.572 169.735 281.591 171.238C279.655 171.504 277.611 171.762 275.467 172.016C238.091 176.424 135.72 178.886 129.41 177.586C120.69 175.789 103.34 87.9651 103.34 87.9651C103.34 87.9651 154.427 87.0784 194.998 86.6453C208.878 86.4988 257.156 86.1318 266.108 86.1318C279.974 86.1318 301.987 163.238 300.743 166.204Z" fill="#AEC3FF"/>
<path d="M286.602 154.932C286.602 154.932 270.918 94.7552 269.786 89.698C269.283 87.4442 267.728 86.6299 266.162 86.4189C268.918 86.1527 270.925 86.1338 270.925 86.1338C276.351 86.1338 281.174 89.7909 282.916 95.2277C286.715 107.086 294.261 129.866 301.347 152.138C300.988 152.13 286.602 154.932 286.602 154.932Z" fill="#A4BAFF"/>
<path d="M381.667 208.212C379.165 223.306 362.809 232.92 346.032 232.92H312.803L315.379 145.708C315.379 145.708 347.106 135.351 355.069 144.469C362.046 152.456 380.964 184.07 381.959 202.783C382.058 204.662 381.956 206.474 381.667 208.212Z" fill="#A4BAFF"/>
<path d="M381.667 208.219C379.165 223.507 362.809 233.244 346.032 233.244H329.732C340.603 226.216 350.43 204.56 381.667 208.219Z" fill="#8C9DF4"/>
<path d="M293.458 154.297C293.458 154.297 338.283 132.672 346.775 146.798C351.283 154.299 363.689 184.22 364.604 202.999C365.494 221.245 348.768 233.241 331.563 233.241H301.005L293.458 154.297Z" fill="#6D83E2"/>
<path d="M317.892 143.781C317.892 143.781 335.376 142.787 348.149 147.742C348.149 147.742 348.075 157.978 345.818 169.692C345.818 169.692 311.316 167.495 311.445 166.218C311.572 164.939 311.954 152.361 317.892 143.781Z" fill="#F99746"/>
<path d="M354.542 219.708C353.896 220.193 353.221 220.666 352.52 221.129C352.025 221.458 351.515 221.779 350.995 222.099C344.518 226.052 336.076 229.194 326.416 231.142C319.115 232.612 311.124 233.404 302.763 233.343L288.233 233.346H288.036L219.256 233.361L179.832 233.371H179.247L179.245 233.355L179.03 232.426L177.875 227.433L165.393 167.694C165.393 167.694 183.973 166.707 210.109 166.203C216.12 166.086 223.055 166.299 229.659 166.211C246.036 165.992 263.783 165.888 280.647 166.053C313.132 166.373 342.348 167.691 352.203 171.112C359.054 173.489 362.428 186.959 364.48 201.029C365.48 207.899 361.673 214.381 354.542 219.708Z" fill="#8C9DF4"/>
<path d="M360.636 218.426C359.967 218.95 359.066 219.607 358.343 220.11C357.832 220.466 357.305 220.804 356.767 221.151C350.075 225.431 341.35 228.741 331.369 230.853C323.825 232.445 315.566 233.278 306.927 233.213L291.912 233.217H291.709L220.636 233.234L179.898 233.243H179.294L179.292 233.229L179.071 232.221L177.879 226.184C203.187 221.45 238.208 216.638 274.739 217.012C309.442 217.366 338.728 217.305 360.636 218.426Z" fill="#6D83E2"/>
<path d="M213.35 209.003C210.655 223.644 195.869 232.92 180.712 232.92H150.153L152.543 144.937C152.543 144.937 181.7 135.353 189.022 144.471C195.438 152.458 212.837 184.072 213.752 202.785C213.858 204.949 213.716 207.026 213.35 209.003Z" fill="#BDD5FF"/>
<path d="M213.35 209.003C210.655 223.644 195.869 232.921 180.712 232.921H156.258C167.705 225.614 183.116 205.426 213.35 209.003Z" fill="#8C9DF4"/>
<path d="M195.863 209.911C194.647 215.706 191.542 220.635 187.291 224.455L187.29 224.456C184.753 226.734 181.808 228.616 178.61 230.049C174.682 231.812 170.373 232.898 165.975 233.21C165.747 233.224 165.519 233.239 165.291 233.251C165.11 233.261 164.926 233.267 164.746 233.273C164.442 233.286 164.139 233.295 163.835 233.298C163.675 233.3 163.514 233.302 163.351 233.302H132.794L132.792 233.287C132.212 233.295 131.622 233.301 131.028 233.309C127.883 233.346 124.596 233.38 121.547 233.405C121.036 233.41 120.533 233.415 120.038 233.418C119.852 233.42 119.668 233.42 119.489 233.42C116.476 233.44 113.813 233.448 111.915 233.435C109.243 233.42 106.726 233.24 104.358 232.886C101.302 232.429 98.5002 231.682 95.9355 230.611C95.478 230.421 95.0267 230.221 94.5864 230.008C94.1351 229.792 93.6917 229.567 93.2577 229.329C92.0988 228.698 90.9918 227.986 89.9445 227.195C87.2337 225.151 84.8891 222.565 82.8953 219.38C81.5084 217.166 80.2866 214.66 79.2315 211.846C77.9374 208.403 76.8917 204.495 76.0803 200.091C76.0583 199.98 76.0379 199.868 76.0174 199.754C75.6511 197.731 75.3334 195.601 75.0645 193.366C74.9419 192.347 74.8287 191.308 74.7265 190.245C74.3617 186.49 74.1211 182.455 73.9984 178.124C73.9874 177.747 73.978 177.366 73.9701 176.985C73.9685 176.9 73.967 176.815 73.9654 176.731C73.8899 173.29 73.8868 169.669 73.9528 165.856C73.9811 164.185 74.0252 162.481 74.0802 160.736C74.1053 159.942 74.1337 159.142 74.1651 158.335C74.3208 154.28 74.5472 150.034 74.8381 145.588C74.9686 143.591 75.1133 141.554 75.2705 139.477C75.9199 130.913 76.8005 121.657 77.8918 111.666C79.1293 100.324 80.5555 92.3957 82.6311 90.5892C85.6911 87.9259 92.0768 86.8533 96.5205 86.4234H96.5236C99.2786 86.1572 101.283 86.1367 101.283 86.1367C101.382 86.1367 101.482 86.1383 101.579 86.1399C101.648 86.1414 101.719 86.143 101.79 86.1477C101.958 86.1556 102.128 86.1651 102.295 86.1808C102.387 86.1887 102.483 86.1966 102.576 86.2076C102.639 86.2123 102.7 86.2202 102.762 86.2296C102.854 86.2407 102.949 86.2533 103.04 86.2674C103.205 86.2911 103.368 86.3194 103.532 86.3509C103.644 86.373 103.757 86.3966 103.867 86.4218C103.876 86.4218 103.887 86.4249 103.895 86.4265C103.975 86.4438 104.057 86.4627 104.137 86.4848C104.292 86.521 104.444 86.562 104.595 86.6061C104.699 86.636 104.801 86.6675 104.903 86.7006C104.976 86.7242 105.045 86.7478 105.117 86.7714C105.966 87.0597 106.779 87.4408 107.548 87.9054C110.182 89.5009 112.254 92.0854 113.275 95.2842C116.822 106.413 123.153 126.311 129.743 147.122C129.776 147.226 129.809 147.331 129.842 147.435C130.221 148.63 130.6 149.831 130.981 151.031C131.018 151.152 131.056 151.273 131.095 151.395C131.116 151.456 131.135 151.517 131.155 151.579C131.526 151.421 131.911 151.258 132.309 151.094C132.322 151.086 132.334 151.081 132.35 151.076C133.93 150.415 135.718 149.69 137.648 148.953H137.649C138.649 148.571 139.686 148.182 140.755 147.796C143.771 146.706 147.026 145.625 150.325 144.698C151.787 144.283 153.264 143.898 154.728 143.557C156.608 143.118 158.476 142.745 160.296 142.469C160.358 142.458 160.409 142.45 160.453 142.444C160.668 142.411 160.882 142.382 161.096 142.353C162.379 142.176 163.634 142.045 164.849 141.976H164.851C171.065 141.617 176.212 142.789 178.567 146.712C179.446 148.178 180.629 150.503 181.967 153.431C184.733 159.487 188.17 168.137 191.002 177.161C193.815 186.128 196.031 195.467 196.399 203.011C196.512 205.421 196.322 207.727 195.863 209.911Z" fill="#6D83E2"/>
<path d="M116.959 154.932C116.959 154.932 101.276 94.7552 100.143 89.698C99.6402 87.4442 98.0851 86.6299 96.5189 86.4189C99.2754 86.1527 101.282 86.1338 101.282 86.1338C106.708 86.1338 111.531 89.7909 113.273 95.2277C117.072 107.086 124.067 129.299 131.152 151.571C130.216 151.979 116.959 154.932 116.959 154.932Z" fill="#A4BAFF"/>
<path d="M242.542 233.241H268.39C268.39 232.101 267.467 231.178 266.33 231.178H242.544V233.241H242.542Z" fill="#ED7D2B"/>
<path d="M242.616 205.048H202.656L212.24 233.242H252.459L242.616 205.048Z" fill="#ED7D2B"/>
<path d="M202.066 205.046L211.651 233.241H251.871L242.028 205.046H202.066Z" fill="#F99746"/>
<path d="M223.611 218.883C223.86 219.961 224.932 220.833 226.008 220.833C227.083 220.833 227.755 219.959 227.506 218.883C227.258 217.806 226.186 216.934 225.11 216.934C224.033 216.932 223.363 217.806 223.611 218.883Z" fill="white"/>
<path d="M129.663 151.732V153.801C129.663 154.526 129.429 155.116 129.142 155.116H53.7627C53.4765 155.116 53.2422 154.526 53.2422 153.801V151.732C53.2422 151.009 53.4765 150.415 53.7627 150.415H129.142C129.429 150.415 129.663 151.009 129.663 151.732Z" fill="#6D83E2"/>
<path d="M129.663 151.732V153.801C129.663 154.526 129.447 155.116 129.186 155.116H69.3424C69.0798 155.116 68.866 154.526 68.866 153.801V151.732C68.866 151.009 69.0814 150.415 69.3424 150.415H129.185C129.447 150.415 129.663 151.009 129.663 151.732Z" fill="#BBCEFF"/>
<path d="M110.584 155.116H57.0695V233.242H110.584V155.116Z" fill="#8C9DF4"/>
<path d="M125.581 155.116H72.0659V233.242H125.581V155.116Z" fill="#D7E4FF"/>
<path d="M122.705 228.93H74.9419V157.323H122.705V228.93ZM75.4577 228.413H122.189V157.841H75.4577V228.413Z" fill="#8C9DF4"/>
<path d="M122.447 181.011H75.1998V181.527H122.447V181.011Z" fill="#8C9DF4"/>
<path d="M122.447 205.16H75.1998V205.677H122.447V205.16Z" fill="#8C9DF4"/>
<path d="M103.666 161.942H94.8977C94.4716 161.942 94.1241 161.594 94.1241 161.167C94.1241 160.741 94.4716 160.393 94.8977 160.393H103.666C104.092 160.393 104.439 160.741 104.439 161.167C104.439 161.593 104.09 161.942 103.666 161.942Z" fill="#8C9DF4"/>
<path d="M103.666 185.558H94.8977C94.4716 185.558 94.1241 185.21 94.1241 184.783C94.1241 184.356 94.4716 184.008 94.8977 184.008H103.666C104.092 184.008 104.439 184.356 104.439 184.783C104.439 185.208 104.09 185.558 103.666 185.558Z" fill="#8C9DF4"/>
<path d="M103.666 210.175H94.8977C94.4716 210.175 94.1241 209.827 94.1241 209.4C94.1241 208.973 94.4716 208.625 94.8977 208.625H103.666C104.092 208.625 104.439 208.973 104.439 209.4C104.439 209.827 104.09 210.175 103.666 210.175Z" fill="#8C9DF4"/>
<path d="M102.59 150.415H86.9742V144.892H102.64C103.859 144.892 104.845 145.881 104.845 147.1V148.157C104.847 149.404 103.837 150.415 102.59 150.415Z" fill="#FCECDB"/>
<path d="M118.175 147.165V147.996C118.175 148.44 118.055 148.856 117.848 149.214C117.429 149.933 116.651 150.417 115.759 150.417H86.4962C86.3028 150.417 86.1455 150.259 86.1455 150.066V149.94C86.1455 149.746 86.3028 149.588 86.4962 149.588H104.334C104.43 149.472 104.513 149.346 104.584 149.212C104.751 148.897 104.845 148.538 104.845 148.155V147.098C104.845 146.905 104.82 146.716 104.773 146.536C104.692 146.232 104.549 145.953 104.359 145.716H86.4962C86.3028 145.716 86.1455 145.558 86.1455 145.364V145.24C86.1455 145.046 86.3028 144.889 86.4962 144.889H115.904C116.94 144.889 117.814 145.585 118.085 146.535C118.145 146.738 118.175 146.947 118.175 147.165Z" fill="#699DEE"/>
<path d="M118.087 146.538H104.773C104.692 146.234 104.549 145.955 104.359 145.717H86.4962C86.3028 145.717 86.1455 145.56 86.1455 145.366V145.242C86.1455 145.048 86.3028 144.891 86.4962 144.891H115.904C116.942 144.892 117.816 145.588 118.087 146.538Z" fill="#548EE2"/>
<path d="M86.9758 147.652L89.1426 147.745L86.9758 147.802V147.652Z" fill="#F4D2B8"/>
<path d="M86.9758 148.521L92.1302 148.613L86.9758 148.669V148.521Z" fill="#F4D2B8"/>
<path d="M104.433 144.902H121.417V138.59H104.378C103.018 138.59 101.916 139.694 101.916 141.056V142.379C101.916 143.773 103.043 144.902 104.433 144.902Z" fill="#FCECDB"/>
<path d="M102.315 141.039V142.398C102.32 142.978 102.64 143.482 103.111 143.751C103.343 143.883 103.611 143.959 103.895 143.959H122.34C122.555 143.959 122.732 144.134 122.732 144.351V144.512C122.732 144.728 122.557 144.904 122.34 144.904H90.4776C89.5624 144.904 88.7558 144.449 88.2668 143.753C87.9586 143.313 87.7777 142.779 87.7777 142.201V141.129C87.7777 140.733 87.8674 140.359 88.0293 140.025C88.4397 139.176 89.3061 138.59 90.3109 138.59H122.338C122.554 138.59 122.73 138.765 122.73 138.982V139.143C122.73 139.358 122.555 139.535 122.338 139.535H103.839C103.397 139.535 102.996 139.724 102.717 140.025C102.471 140.291 102.317 140.647 102.315 141.039Z" fill="#2A4E96"/>
<path d="M121.417 141.746L119.054 141.852L121.417 141.916V141.746Z" fill="#F4D2B8"/>
<path d="M121.417 140.294L115.792 140.399L121.417 140.464V140.294Z" fill="#F4D2B8"/>
<path d="M115.851 140.379C115.851 140.379 116.222 140.579 116.344 140.908C116.366 140.966 116.38 141.028 116.384 141.092C116.404 141.53 116.384 142.519 116.384 142.519L117.48 142.025L118.572 142.519V141.179C118.572 140.925 118.478 140.678 118.305 140.518C118.22 140.439 118.118 140.38 118.002 140.38H115.851V140.379Z" fill="#F99746"/>
<path d="M115.851 140.379C115.851 140.379 116.222 140.579 116.344 140.908L118.541 140.927C118.541 140.927 118.454 140.456 118.002 140.379H115.851Z" fill="#ED7D2B"/>
<path d="M164.786 223.39C164.786 223.39 153.103 226.929 152.532 233.437H189.007C189.007 233.437 188.722 231.763 187.676 231.763C186.632 231.763 172.029 231.573 172.029 231.573C172.029 231.573 169.06 223.294 164.786 223.39Z" fill="#F9DDBF"/>
<path d="M72.6508 139.133C72.6508 139.133 68.6694 140.752 65.839 136.686C65.8406 136.684 70.4337 135.903 72.6508 139.133Z" fill="#6BB7BF"/>
<path d="M72.9323 137.463C72.9323 137.463 73.2106 136.038 74.8806 135.989C74.8806 135.989 74.2516 137.432 72.9323 137.463Z" fill="#6BB7BF"/>
<path d="M72.0926 129.122C72.0926 129.122 70.1632 129.328 69.4383 127.21C69.4383 127.21 71.5297 127.443 72.0926 129.122Z" fill="#6BB7BF"/>
<path d="M67.5105 101.109C71.4055 100.273 71.4715 97.082 71.4715 97.082C66.8847 98.5342 67.5105 101.109 67.5105 101.109Z" fill="#6BB7BF"/>
<path d="M67.2432 100.382C67.2432 100.382 64.8122 101.37 63.0857 98.8873C63.0857 98.8873 65.8893 98.4117 67.2432 100.382Z" fill="#6BB7BF"/>
<path d="M72.5754 148.491L73.0786 149.07C73.1556 149.159 73.3003 149.104 73.3003 148.987C73.272 132.56 71.19 117.966 69.4399 109.356C67.531 99.9578 65.5953 94.4028 65.5764 94.3477C65.5953 94.4028 67.3423 100.048 69.2449 109.417C70.9966 118.042 72.9999 129.315 72.4936 148.267C72.4905 148.351 72.5219 148.429 72.5754 148.491Z" fill="#6BB7BF"/>
<path d="M65.6094 92.1099C66.2306 92.6107 68.6097 94.7417 66.3013 96.3844C66.3013 96.3844 64.5323 96.9451 63.9474 95.5811C63.5008 94.5401 63.3797 93.3777 63.3467 92.8863C63.3388 92.7588 63.4348 92.6501 63.5621 92.6375C63.6989 92.6249 63.8798 92.595 64.0622 92.5241C64.2807 92.439 64.3924 92.1083 64.688 92.0358C64.8735 91.9902 65.0622 91.9508 65.2777 91.9697C65.4003 91.9807 65.5151 92.0327 65.6094 92.1099Z" fill="#F99746"/>
<path d="M66.9303 95.791C66.9303 95.791 66.2258 96.3564 66.4869 97.2605L66.4947 97.5944C66.4947 97.5944 66.3076 96.7581 65.4428 96.4998C65.4428 96.4998 66.2211 96.5864 66.9303 95.791Z" fill="#6BB7BF"/>
<path d="M67.5105 101.109C71.4055 100.273 71.4715 97.082 71.4715 97.082C71.4715 97.082 68.3864 98.7783 67.5105 101.109Z" fill="#8AD8DB"/>
<path d="M71.2529 98.9233C71.2529 98.9233 73.7028 99.862 75.3806 97.3452C75.3806 97.3452 72.5675 96.9262 71.2529 98.9233Z" fill="#6BB7BF"/>
<path d="M66.8847 147.131L66.3925 147.721C66.3186 147.811 66.1724 147.759 66.1692 147.643C65.8689 131.219 67.6599 116.586 69.2355 107.942C70.9558 98.5079 72.7798 92.9151 72.7987 92.8584C72.7798 92.9135 71.1476 98.5929 69.4336 107.999C67.8549 116.658 66.0765 127.968 66.9633 146.907C66.9665 146.989 66.9366 147.069 66.8847 147.131Z" fill="#6BB7BF"/>
<path d="M72.7216 90.62C72.1099 91.1318 69.7748 93.31 72.1146 94.9071C72.1146 94.9071 73.8946 95.4331 74.4529 94.0566C74.879 93.0061 74.9765 91.8422 74.9985 91.3508C75.0048 91.2232 74.9057 91.1161 74.7784 91.1066C74.6416 91.0972 74.4591 91.0704 74.2767 91.0027C74.0566 90.9224 73.9387 90.5932 73.6415 90.527C73.4559 90.4845 73.2657 90.4499 73.0502 90.4735C72.9292 90.4877 72.8159 90.5412 72.7216 90.62Z" fill="#F99746"/>
<path d="M71.4747 94.3262C71.4747 94.3262 72.1901 94.8774 71.948 95.7862V96.1201C71.948 96.1201 72.1194 95.2806 72.9779 95.005C72.9763 95.005 72.1996 95.1074 71.4747 94.3262Z" fill="#6BB7BF"/>
<path d="M70.2151 96.0479C70.2151 96.0479 67.6285 96.481 66.4821 93.6807C66.4821 93.6807 69.3235 93.8287 70.2151 96.0479Z" fill="#6BB7BF"/>
<path d="M64.9443 144.163L65.3091 144.839C65.3641 144.941 65.5182 144.919 65.5434 144.806C69.0924 128.768 70.2371 114.072 70.4054 105.286C70.5894 95.698 69.9085 89.8532 69.9022 89.7949C69.9085 89.8532 70.3834 95.7436 70.201 105.304C70.0327 114.103 69.5343 125.542 64.9129 143.929C64.8924 144.007 64.905 144.092 64.9443 144.163Z" fill="#6BB7BF"/>
<path d="M70.4211 87.6167C70.918 88.2404 72.7766 90.8391 70.1664 91.94C70.1664 91.94 68.3188 92.1007 68.0436 90.6423C67.8344 89.5287 67.9681 88.368 68.0452 87.8813C68.0656 87.7537 68.182 87.6703 68.3093 87.686C68.4446 87.7033 68.6285 87.7144 68.8219 87.6844C69.0547 87.6498 69.2355 87.3505 69.539 87.3442C69.7292 87.3395 69.9227 87.3427 70.1286 87.4088C70.245 87.445 70.3456 87.5222 70.4211 87.6167Z" fill="#F99746"/>
<path d="M70.9086 91.4971C70.9086 91.4971 70.0988 91.8955 70.1554 92.8342L70.0893 93.1618C70.0893 93.1618 70.0877 92.305 69.3015 91.864C69.3031 91.864 70.0437 92.1192 70.9086 91.4971Z" fill="#6BB7BF"/>
<path d="M68.0813 93.1626C68.0813 93.1626 68.0813 91.1104 66.317 90.4678C66.3155 90.4662 65.9271 92.1782 68.0813 93.1626Z" fill="#6BB7BF"/>
<path d="M72.2263 89.8642C72.2263 89.8642 72.1744 88.2987 73.6195 87.8467C73.6195 87.8483 73.967 89.3051 72.2263 89.8642Z" fill="#ED9F4A"/>
<path d="M67.4822 99.283C67.4303 99.3287 66.729 97.76 68.1552 96.5C68.1552 96.5 68.7528 98.1774 67.4822 99.283Z" fill="#ED9F4A"/>
<path d="M66.4822 99.1596C66.5215 99.1706 66.4932 98.3784 65.7525 98.2666C65.7525 98.2666 65.6267 98.925 66.4822 99.1596Z" fill="#6BB7BF"/>
<path d="M73.8758 96.4992C73.8758 96.4992 74.5016 95.2014 76.5049 95.4266C76.5049 95.4266 76.2046 96.8189 73.8758 96.4992Z" fill="#6BB7BF"/>
<path d="M62.8042 150.414H75.6448C76.508 150.414 77.17 149.647 77.0458 148.792L71.069 107.53C71.0139 107.146 70.6837 106.859 70.2953 106.859H68.3879C67.9744 106.859 67.6237 107.163 67.5624 107.573L61.444 148.831C61.3198 149.666 61.9645 150.414 62.8042 150.414Z" fill="#2A4E96"/>
<path d="M72.8002 149.167L69.627 106.871C69.9682 106.917 70.2466 107.183 70.2969 107.533L76.2737 148.794C76.398 149.649 75.736 150.416 74.8727 150.416H72.3065C72.6383 150.117 72.838 149.663 72.8002 149.167Z" fill="#3967B2"/>
<path d="M286.14 184.981C281.969 187.263 266.545 184.817 259.506 177.966C252.466 171.115 229.398 168.336 229.398 168.336C229.398 168.336 229.503 168.284 229.708 168.187C249.066 167.872 263.871 165.041 283.805 165.278C292.962 172.57 288.811 183.521 286.14 184.981Z" fill="#6D83E2"/>
<path d="M121.868 87.6595C121.868 87.6595 126.376 93.4963 127.348 96.1707C128.318 98.845 126.353 101.033 125.334 104.8C124.315 108.567 121.524 109.783 120.675 108.811C119.826 107.84 119.826 103.22 120.675 99.8183C121.524 96.4148 113.21 87.8012 113.21 87.8012C113.21 87.8012 117.398 86.872 121.868 87.6595Z" fill="#739AF0"/>
<path d="M298.565 140.528C290.722 138.051 270.113 148.565 270.113 148.565L277.059 155.721C277.059 155.721 294.485 146.505 295.178 147.499C296.571 149.495 303.528 162.408 303.528 162.408L305.855 162.8C304.606 150.452 300.414 141.113 298.565 140.528Z" fill="#FFB27D"/>
<path d="M279.82 156.616C279.82 156.616 280.04 153.738 283.805 152.308C283.805 152.308 281.581 147.476 272.912 147.213C272.912 147.213 269.901 147.654 264.067 146.873C258.138 146.079 266.613 150.991 266.613 150.991L279.82 156.616Z" fill="#F99746"/>
<path d="M307.915 167.787C307.915 167.787 309.011 165.499 308.498 164.239C307.986 162.977 305.116 159.354 305.116 159.354L304.342 162.881L307.915 167.787Z" fill="#FFB27D"/>
<path d="M270.132 125.001C270.132 125.001 273.805 122.944 274.854 122.661C275.901 122.377 279.867 124.041 279.633 125.121C279.485 125.803 276.823 126.167 275.771 126.74C274.719 127.315 272.804 130.323 269.244 128.214C268.84 127.98 270.132 125.001 270.132 125.001Z" fill="#FFB27D"/>
<path d="M273.054 127.102L281.569 120.514C281.976 120.199 282.485 120.046 282.998 120.085L288.259 120.488C288.533 120.509 288.64 120.855 288.426 121.027L280.531 127.355C280.202 127.618 279.798 127.766 279.378 127.776L273.342 127.914C272.904 127.925 272.708 127.371 273.054 127.102Z" fill="#476EB2"/>
<path d="M288.494 120.63L289.072 121.312L273.514 128.363L272.967 127.735L281.94 120.874L282.987 120.611L288.494 120.63Z" fill="#476EB2"/>
<path d="M273.621 127.765L282.136 121.177C282.543 120.862 283.053 120.709 283.566 120.748L288.827 121.151C289.101 121.172 289.207 121.518 288.994 121.69L281.098 128.018C280.77 128.281 280.366 128.429 279.946 128.439L273.909 128.578C273.47 128.587 273.275 128.033 273.621 127.765Z" fill="#739AF0"/>
<path d="M274.004 127.833L282.135 121.542C282.498 121.26 282.954 121.125 283.413 121.16L288.511 121.55C288.615 121.558 288.654 121.689 288.574 121.753L281.208 127.658C280.916 127.893 280.553 128.025 280.178 128.033L274.126 128.171C273.941 128.176 273.859 127.945 274.004 127.833Z" fill="#8CB9F9"/>
<path d="M156.687 79.0875C156.687 79.0875 149.276 77.9094 147.28 76.1376C145.285 74.3657 140.442 72.6569 139.002 70.6109C137.56 68.565 135.638 65.2844 134.014 66.4687C133.397 66.9176 134.874 77.0495 136.255 78.3646C137.635 79.6797 142.206 82.6832 144.022 85.4914C145.839 88.2996 148.554 88.3468 150.603 86.9356C152.65 85.5245 159.374 85.7497 159.374 85.7497L156.687 79.0875Z" fill="#739AF0"/>
<path d="M232.346 139.125C232.346 139.125 220.915 87.2642 215.927 81.9345C210.939 76.6047 151.68 77.4174 151.68 77.4174C151.68 77.4174 150.619 87.0689 153.897 87.417C153.897 87.417 180.305 91.7514 185.324 93.7358C193.93 97.1378 200.704 95.2793 200.704 95.2793C200.704 95.2793 205.423 139.788 208.519 146.756C211.615 153.722 232.346 139.125 232.346 139.125Z" fill="#233862"/>
<path d="M148.699 82.8229C148.699 82.8229 142.433 78.6886 141.345 76.2505C140.256 73.8124 136.549 70.2546 136.077 67.796C135.605 65.3375 134.997 63.5467 132.962 64.4476C131.025 65.3044 129.664 71.9555 130.381 73.7242C131.098 75.4929 134.025 80.1171 134.523 83.4261C135.022 86.7352 137.476 87.9007 139.923 87.4612C142.37 87.0218 148.402 90.0048 148.402 90.0048L148.699 82.8229Z" fill="#FFB27D"/>
<path d="M236.351 168.767C236.351 168.767 216.642 105.955 211.074 102.709C205.508 99.4628 143.739 78.9707 143.739 78.9707C143.739 78.9707 139.645 84.2138 142.956 88.1166C142.956 88.1166 163.964 101.183 171.634 105.46C179.305 109.738 197.904 113.433 198.184 115.26C198.652 118.315 200.435 157.49 210.109 166.206L236.351 168.767Z" fill="#2A4E96"/>
<path d="M265.291 174.884C269.288 174.459 284.1 160.422 278.589 152.489C273.994 145.877 246.763 145.378 243.503 144.45C237.112 142.631 235.189 138.579 232.348 139.125C211.763 143.082 207.261 162.563 212.675 166.455C212.675 166.455 226.226 168.055 231.631 169.228C248.989 172.997 257.472 175.715 265.291 174.884Z" fill="#F99746"/>
<path d="M262.619 166.519C260.158 170.187 254.721 170.036 252.469 166.236C247.55 157.932 240.838 145.652 241.64 141.726C242.88 135.646 270.131 125.001 270.131 125.001L268.791 129.338C268.791 129.338 254.096 141.54 253.013 142.595C251.455 144.112 265.58 162.106 265.58 162.106L262.619 166.519Z" fill="#FFB27D"/>
<path d="M268.792 129.34C268.792 129.34 271.547 129.56 272.763 129.838C273.978 130.115 279.073 128.118 278.81 127.634C278.548 127.151 275.411 128.001 274.846 127.681C274.282 127.363 271.508 126.291 270.06 127.08C268.61 127.87 268.792 129.34 268.792 129.34Z" fill="#FFB27D"/>
<path d="M282.333 166.549C282.333 166.549 280.693 167.867 282.641 171.055C284.591 174.244 284.757 178.722 282.127 180.722C279.496 182.722 275.873 190.281 279.38 196.921C283.539 204.797 277.688 208.459 277.688 208.459C277.688 208.459 294.499 220.308 303.013 205.717C308.942 195.559 300.704 194.829 305.748 187.701C310.792 180.574 311.866 159.589 299.858 158.975C290.668 158.506 282.333 166.549 282.333 166.549Z" fill="#2A4E96"/>
<path d="M277.057 155.721C275.612 155.556 274.101 155.783 273.253 158.52C272.39 161.309 272.697 166.795 275.247 166.94C276.46 167.009 280.018 165.724 286.893 167.209L286.901 166.66L287.023 157.416C287.023 157.416 284.193 157.027 281.565 156.476C279.361 156.013 277.872 155.814 277.057 155.721Z" fill="#FFB27D"/>
<path d="M287.025 157.416C287.025 157.416 285.47 157.279 282.844 156.729C281.157 162.936 282.572 165.146 284.85 166.754L287.025 157.416Z" fill="#F4A269"/>
<path d="M286.41 154.486C286.41 154.486 279.353 164.195 285.457 168.502C291.56 172.811 294.76 176.965 299.524 170.95C304.287 164.933 302.815 162.072 301.128 160.137C299.439 158.203 288.404 152.072 286.41 154.486Z" fill="#FFB27D"/>
<path d="M302.484 160.957C302.484 160.957 298.724 158.498 298.151 164.009C297.667 168.677 291.954 169.796 290.764 168.291C289.574 166.787 287.795 169.441 286.893 167.209C285.99 164.978 282.66 165.849 284.089 169.022C285.518 172.196 296.577 179.836 296.577 179.836L302.369 176.744L303.542 167.742L303.646 163.137L302.484 160.957Z" fill="#2A4E96"/>
<path d="M275.175 206.086C280.039 202.246 278.411 194.506 278.392 194.436L280.16 194.796C281.396 195.318 280.782 205.579 275.175 206.086Z" fill="#2A4E96"/>
<path d="M301.171 208.337L301.634 207.342C303.773 205.923 305.562 202.735 306.195 199.221C306.61 196.911 306.086 195.117 305.341 194.088C303.26 191.223 304.732 188.152 304.812 188.012L305.951 187.402C305.933 187.434 304.238 190.99 306.11 193.567C306.954 194.731 307.182 196.827 306.734 199.319C306.232 202.092 303.911 206.516 301.171 208.337Z" fill="#2A4E96"/>
<path d="M267.3 162.099L260.089 154.829C260.089 154.829 252.117 157.36 253.073 167.246L254.09 173.141L259.318 174.425L267.3 162.099Z" fill="#F99746"/>
<path d="M362.876 233.244H348.449L349.364 193.934H362.876V233.244Z" fill="#EAC7A7"/>
<path d="M375.434 233.244H353.174L351.869 193.934H373.545L375.434 233.244Z" fill="#F9DDBF"/>
<path d="M363.433 202.736C360.386 202.736 358.774 200.916 357.951 199.358C357.041 197.63 356.895 195.899 356.888 195.827C356.879 195.712 356.966 195.611 357.079 195.603C357.194 195.595 357.294 195.679 357.302 195.794C357.304 195.811 357.45 197.523 358.324 199.175C359.48 201.36 361.302 202.415 363.741 202.314C365.397 202.245 366.638 201.699 367.427 200.689C368.905 198.799 368.334 195.881 368.33 195.852C368.306 195.739 368.38 195.63 368.491 195.606C368.605 195.584 368.713 195.657 368.737 195.769C368.762 195.896 369.352 198.901 367.756 200.944C366.888 202.056 365.543 202.656 363.758 202.73C363.648 202.733 363.54 202.736 363.433 202.736Z" fill="#E5B88F"/>
<path d="M350.858 193.971V233.244H353.174L351.869 193.934L350.858 193.971Z" fill="#E5B88F"/>
<path d="M387.965 219.736H370.647C370.603 220.095 370.575 220.458 370.575 220.828V222.504C369.424 222.261 367.826 222.064 367.009 222.568C365.636 223.42 366.057 225.909 367.35 227.446C368.642 228.988 372.762 230.002 372.762 230.002C374.072 231.489 375.873 232.53 377.904 232.859C378.36 232.935 378.827 232.976 379.305 232.976C384.109 232.976 388.034 229.041 388.034 224.233V220.828C388.034 220.459 388.009 220.095 387.965 219.736ZM367.925 225.717C367.372 224.285 367.745 223.754 368.364 223.642C369.056 223.519 370.001 223.998 370.599 224.817C370.668 225.833 370.91 226.8 371.297 227.693C370.325 227.457 368.363 226.849 367.925 225.717Z" fill="#F99746"/>
<path d="M375.113 233.284H383.041L382.582 232.214L375.459 231.948L375.113 233.284Z" fill="#F99746"/>
<path d="M378.013 232.045C372.775 225.972 373.907 223.026 374.844 219.736H370.647C370.603 220.095 370.575 220.458 370.575 220.828V222.504C369.424 222.261 367.826 222.064 367.009 222.568C365.636 223.42 366.057 225.909 367.35 227.446C368.642 228.988 372.762 230.002 372.762 230.002C373.509 230.849 374.416 231.544 375.432 232.053L375.113 233.283H377.799L378.013 232.045ZM367.925 225.717C367.372 224.285 367.745 223.754 368.364 223.642C369.056 223.519 370.001 223.998 370.599 224.817C370.668 225.833 370.91 226.8 371.297 227.693C370.325 227.457 368.363 226.849 367.925 225.717Z" fill="#ED7D2B"/>
<path d="M454.38 235.001H9.61482C9.27675 235.001 9 234.724 9 234.385V233.859C9 233.52 9.27675 233.243 9.61482 233.243H454.378C454.716 233.243 454.995 233.52 454.995 233.859V234.385C454.995 234.724 454.718 235.001 454.38 235.001Z" fill="#2E3552"/>
</g>
</g>
<defs>
<clipPath id="clip0_1715_7996">
<rect width="524" height="254" fill="white"/>
</clipPath>
<clipPath id="clip1_1715_7996">
<rect width="445.995" height="235" fill="white" transform="translate(9)"/>
</clipPath>
</defs>
</svg>
