<svg width="632" height="455" viewBox="0 0 632 455" fill="none" xmlns="http://www.w3.org/2000/svg">
<path d="M604.352 453.273C564.538 453.273 26.2726 452.113 26.2726 452.049C26.0496 451.528 -42.0574 368.102 43.7037 280.88C86.1987 237.662 4.67984 181.672 43.7037 133.597C110.551 51.2478 176.691 97.6258 231.789 74.465C241.526 70.3757 251.294 63.7975 261.074 53.6992C266.579 48.0204 272.61 43.0559 279.069 38.7679C280.06 38.1074 281.06 37.463 282.07 36.8374C285.936 34.4397 289.947 32.2729 294.077 30.3236C296.852 29.016 299.676 27.8078 302.556 26.6962H302.559C307.126 24.9321 311.82 23.4097 316.613 22.1236C323.418 20.2951 330.427 18.9338 337.574 18.0129C340.691 17.6074 343.834 17.2906 346.999 17.0516C408.566 12.4254 477.85 38.443 513.607 76.4707C520.805 84.1283 553.539 123.748 527.736 178.208C511.444 212.592 579.696 245.43 603.949 284.695C665.611 384.521 604.911 451.971 604.352 453.273Z" fill="#EBF3FA"/>
<g opacity="0.8">
<path d="M465.046 221.179C463.402 225.695 461.387 229.975 459.041 233.986C453.412 243.614 445.906 251.71 437.174 257.968C416.887 272.516 389.996 277.131 364.758 267.962C334.734 257.056 315.449 229.701 313.397 199.776C313.123 195.832 313.15 191.845 313.496 187.844C314.066 181.126 315.527 174.371 317.94 167.736C319.893 162.369 322.373 157.343 325.299 152.7C325.331 152.647 325.366 152.596 325.398 152.542C333.523 139.718 345.062 129.819 358.334 123.614C362.098 121.852 366.004 120.389 370.013 119.243C371.923 118.695 373.863 118.22 375.813 117.822C389.507 115.006 404.126 115.825 418.233 120.95C420.103 121.629 421.933 122.373 423.717 123.179C426.237 124.309 428.668 125.563 431.008 126.927C440.866 132.67 449.114 140.379 455.438 149.352H455.441C459.382 154.94 462.571 161.013 464.933 167.414C466.174 170.776 467.187 174.223 467.958 177.738C468.439 179.926 468.826 182.133 469.119 184.367C469.823 189.729 469.968 195.199 469.527 200.697C468.976 207.533 467.507 214.418 465.046 221.179Z" fill="#D7E5FF"/>
<path d="M378.473 152.475C373.85 156.054 375.075 165.631 367.068 160.235C359.062 154.835 354.038 151.9 351.771 156.612C349.5 161.325 356.596 163.902 354.729 169.036C352.861 174.17 349.062 174.712 345.059 170.497C341.051 166.281 340.935 162.224 334.45 162.358C327.961 162.493 325.194 159.826 325.511 154.958C325.565 154.102 325.476 153.361 325.299 152.7C325.331 152.647 325.366 152.596 325.398 152.542C333.523 139.718 345.062 129.819 358.334 123.614C362.098 121.852 366.005 120.389 370.013 119.243C371.923 118.695 373.863 118.22 375.814 117.822C378.076 118.741 380.502 120.604 381.786 124.341C384.61 132.566 389.19 130.63 385.3 137.519C381.407 144.406 383.011 146.098 387.256 147.363C391.504 148.627 396.396 150.405 395.73 153.761C395.061 157.12 383.1 148.896 378.473 152.475Z" fill="#AEC3FF"/>
<path d="M465.046 221.179C463.402 225.695 461.387 229.975 459.041 233.986C453.413 243.614 445.906 251.71 437.174 257.968C434.998 257.901 433.018 257.163 431.35 255.675C423.51 248.676 433.899 241.243 439.369 237.624C444.839 234.007 434.684 232.807 429.563 225.759C424.442 218.711 436.433 209.158 428.727 208.642C421.022 208.127 411.651 207.627 410.082 199.379C408.513 191.131 416.619 192.828 415.2 185.879C413.781 178.93 420.485 177.628 427.655 179.612C434.826 181.594 435.71 176.312 444.598 178.71C453.485 181.108 449.302 192.041 459.108 194.774C468.915 197.508 467.684 199.551 467.684 199.551C468.377 199.782 468.992 200.168 469.524 200.692C468.976 207.533 467.507 214.418 465.046 221.179Z" fill="#AEC3FF"/>
<path d="M469.121 184.364C459.785 185.339 460.417 173.691 452.491 174.384C444.498 175.08 447.918 169.401 443.964 163.537C440.003 157.673 426.664 160.852 429.375 154.915C432.086 148.984 439.536 153.624 443.026 149.36C446.516 145.094 453.899 149.159 453.899 149.159C454.404 149.151 454.92 149.215 455.441 149.352C455.441 149.352 455.441 149.349 455.444 149.352C459.385 154.939 462.574 161.013 464.936 167.414C466.177 170.776 467.19 174.223 467.961 177.738C468.439 179.923 468.829 182.13 469.121 184.364Z" fill="#AEC3FF"/>
<path d="M409.958 139.004C409.958 139.004 416.296 134.52 410.337 130.351C404.375 126.184 403.655 128.544 398.72 126.13C393.782 123.716 390.319 126.957 392.594 132.695C394.867 138.433 394.959 147.892 400.058 144.721C405.157 141.55 405.705 137.944 409.958 139.004Z" fill="#AEC3FF"/>
</g>
<path d="M44.0475 452.272H71.3441C72.8056 451.031 70.3312 448.215 67.7466 448.027C66.6236 447.941 65.2023 448.177 63.5796 448.518C63.2034 443.532 61.0595 421.117 52.9753 422.02C43.8863 423.029 52.9753 431.89 55.5438 437.136C57.4486 441.021 59.4556 446.595 60.3717 449.227C59.6329 449.385 58.8699 449.544 58.088 449.686C56.8844 445.989 52.4004 433.554 46.6993 434.279C40.0068 435.128 42.6961 440.114 47.4408 443.073C50.92 445.25 55.1945 448.343 57.2256 449.836C55.5062 450.118 53.7088 450.306 51.8872 450.263C47.2151 450.153 44.9341 451.53 44.0475 452.272Z" fill="#A8D29F"/>
<path d="M478.455 452.272H453.101C451.741 451.12 454.041 448.505 456.443 448.328C457.485 448.25 458.804 448.468 460.312 448.784C460.661 444.153 462.652 423.333 470.161 424.171C478.605 425.108 470.161 433.34 467.775 438.214C466.007 441.822 464.143 446.999 463.289 449.442C463.974 449.59 464.683 449.735 465.408 449.869C466.529 446.435 470.69 434.884 475.986 435.558C482.203 436.348 479.704 440.977 475.298 443.726C472.066 445.748 468.095 448.621 466.209 450.009C467.808 450.269 469.476 450.446 471.169 450.406C475.516 450.304 477.635 451.585 478.455 452.272Z" fill="#A8D29F"/>
<path d="M496.563 286.184C496.563 286.184 497.167 280.185 494.029 280.392C490.891 280.596 490.058 282.035 490.41 283.19C490.76 284.342 493.814 288.157 493.814 288.157L496.563 286.184Z" fill="#FFB27D"/>
<path d="M545.468 298.202C545.468 298.202 541.994 302.283 534.523 306.99C533.816 307.438 533.075 307.886 532.296 308.34C529.394 310.029 525.99 311.761 522.059 313.375C521.627 313.552 521.119 313.748 520.547 313.955C516.068 315.571 507.831 317.861 502.726 318.068C502.283 318.087 501.861 318.087 501.469 318.071C493.699 317.757 492.75 287.617 492.75 287.617C492.75 287.617 493.616 284.602 497.608 285.362C497.608 285.362 503.672 302.385 505.843 303.773C507.772 305.005 518.865 288.203 528.413 287.027C534.84 286.229 545.468 298.202 545.468 298.202Z" fill="#739AF0"/>
<path d="M524.59 445.184C524.59 445.184 525.165 451.818 523.76 452.508L505.8 452.471C505.8 452.471 505.8 450.398 508.685 449.939C511.571 449.48 516.638 447.791 517.495 444.032C518.354 440.273 524.59 445.184 524.59 445.184Z" fill="#1C3154"/>
<path d="M511.407 364.881C511.495 369.22 511.705 373.696 512.113 377.718C514.053 396.803 514.736 419.862 515.015 424.308C515.499 432.025 517.025 444.354 517.025 444.354C517.025 444.354 520.05 447.224 525.947 445.855C525.947 445.855 530.834 428.099 531.925 409.401C531.941 409.095 531.96 408.786 531.973 408.477C532.099 406.004 532.231 403.18 532.368 400.132C533.265 379.718 534.243 349.391 534.243 349.391L511.705 344.102C511.702 344.096 511.184 354.066 511.407 364.881Z" fill="#2A4E96"/>
<path d="M511.407 364.88C517.119 374.729 528.005 392.874 532.368 400.126C533.265 379.712 534.243 349.385 534.243 349.385L511.705 344.096C511.702 344.096 511.184 354.065 511.407 364.88Z" fill="#233862"/>
<path d="M520.544 313.952C516.065 315.568 507.828 317.859 502.723 318.065C503.505 317.92 509.19 316.793 511.291 314.258C513.548 311.53 517.35 304.125 520.375 307.148C521.799 308.569 521.382 311.38 520.544 313.952Z" fill="#6385DB"/>
<path d="M558.415 361.672C558.415 361.672 559.815 367.155 559.584 368.374C559.356 369.593 557.988 373.717 557.137 374.743C556.285 375.768 556.25 370.293 555.683 369.432C555.116 368.572 555.422 371.475 554.968 371.714C554.514 371.953 553.757 369.515 553.421 368.65C553.085 367.786 554.63 364.778 554.775 362.622C554.92 360.466 558.415 361.672 558.415 361.672Z" fill="#FFB27D"/>
<path d="M569.331 437.644C569.331 437.644 572.528 440.559 571.905 442.63C571.282 444.702 568.396 446.082 568.007 448.614C567.617 451.146 566.059 452.526 564.654 452.526C563.249 452.526 557.964 452.526 557.964 452.526C557.964 452.526 556.93 450.744 559.425 450.207C561.921 449.67 562.862 446.695 562.706 443.932C562.55 441.169 562.94 437.488 562.94 437.488L568.24 436.261L569.331 437.644Z" fill="#1C3154"/>
<path d="M515.254 349.847C515.254 349.847 536.352 394.96 547.58 414.754C558.807 434.548 562.316 440.074 562.316 440.074C562.316 440.074 568.748 437.542 569.334 435.815C569.334 435.815 565.041 397.6 557.521 388.285C553.273 383.023 548.281 367.224 548.047 361.701C547.814 356.178 542.884 342.992 542.884 342.992L515.254 349.847Z" fill="#2A4E96"/>
<path d="M511.323 347.501C511.323 347.501 518.193 354.89 529.867 357.121C534.99 358.101 545.39 359.049 547.969 355.403C548.574 354.546 548.579 353.279 548.445 351.3C548.098 346.158 546.804 336.216 552.647 316.237C553.192 314.379 553.558 312.596 553.77 310.896C555.046 300.674 554.906 292.96 546.035 288.839C532.739 282.663 527.282 287.743 527.282 287.743C527.282 287.743 520.211 291.046 516.979 300.669C510.52 319.92 511.323 347.501 511.323 347.501Z" fill="#739AF0"/>
<path d="M538.053 287.142C535.815 288.732 531.876 289.669 528.123 287.792C527.833 287.647 527.871 285.663 527.943 283.713C528.016 281.799 528.196 279.922 528.196 279.922L532.927 276.818L537.441 273.859C536.898 284.038 539.063 286.42 538.053 287.142Z" fill="#FFB27D"/>
<path d="M536.645 278.061C536.645 278.061 533.574 282.666 527.943 283.713C528.016 281.798 528.22 279.693 528.22 279.693L532.927 276.82L536.645 278.061Z" fill="#ED985F"/>
<path d="M523.956 278.728C523.956 278.728 535.401 282.997 537.948 275.949C540.495 268.9 543.687 264.706 536.487 261.683C529.287 258.66 526.887 260.84 525.455 262.985C524.026 265.131 521.047 277.436 523.956 278.728Z" fill="#FFB27D"/>
<path d="M545.079 262.475C545.21 262.373 545.476 262.322 546.035 262.403C546.035 262.403 545.648 262.04 545.063 261.909C545.098 261.119 544.958 259.683 543.706 259.095C543.706 259.095 544.34 259.613 544.273 260.445C543.056 258.577 540.006 256.788 530.802 255.714C518.669 254.299 521.095 262.72 522.462 263.936C523.83 265.152 528.215 263.423 531.052 264.22C533.889 265.018 533.615 269.287 534.477 270.05C535.342 270.815 535.157 269.727 536.597 269.392C538.037 269.056 537.731 271.271 537.067 272.619C536.404 273.967 537.849 276.206 537.849 276.206C537.849 276.206 537.849 276.206 540.076 274.593C542.303 272.979 545.689 264.948 545.208 262.999C545.165 262.824 545.122 262.65 545.079 262.475Z" fill="#2C3A64"/>
<path d="M548.445 351.299C548.099 346.158 546.804 336.215 552.647 316.236C553.193 314.378 553.558 312.595 553.77 310.895C549.428 309.464 541.519 312.646 541.519 312.646C541.519 312.646 539.657 339.058 548.445 351.299Z" fill="#6385DB"/>
<path d="M548.429 290.176C548.429 290.176 553.77 292.117 557.18 306.254C559.431 315.592 563.577 329.32 564.044 333.635C564.512 337.95 559.305 363.205 559.305 363.205C559.305 363.205 558.571 363.739 556.771 363.38C555.049 363.036 554.248 361.871 554.248 361.871C554.248 361.871 553.005 345.038 553.324 337.091C553.459 333.788 538.029 312.907 529.7 310.217C526.431 309.159 548.429 290.176 548.429 290.176Z" fill="#739AF0"/>
<path d="M473.705 271.878C473.705 271.878 489.145 271.44 506.963 274.719L508.825 270.031L510.867 264.894C510.867 264.894 492.979 257.199 482.227 246.48L473.705 271.878Z" fill="#AEC3FF"/>
<path d="M482.471 246.228L473.605 272.38C472.308 271.996 471.601 270.605 472.052 269.332L479.855 247.358C480.233 246.295 481.437 245.774 482.471 246.228Z" fill="#F99746"/>
<path d="M490.934 291.341C492.659 291.685 494.349 290.557 494.696 288.836L497.748 273.572C498.092 271.848 496.963 270.159 495.241 269.813C493.516 269.469 491.826 270.597 491.48 272.318L488.428 287.582C488.081 289.306 489.21 290.997 490.934 291.341Z" fill="#F99746"/>
<path d="M473.705 271.878C473.705 271.878 489.145 271.44 506.963 274.719L508.825 270.031C492.084 266.613 473.705 271.878 473.705 271.878Z" fill="#739AF0"/>
<path d="M502.038 273.773L506.864 274.622C506.791 274.624 511.345 275.508 512.839 271.472C512.976 271.195 513.064 270.924 513.126 270.602C514.287 265.573 511.525 264.647 511.525 264.647L505.316 262.228L503.344 269.206C503.344 269.206 503.344 269.206 503.344 269.23L502.038 273.773Z" fill="#F99746"/>
<path d="M502.038 273.773L506.864 274.621C506.791 274.624 511.345 275.508 512.839 271.472C510.109 269.488 503.341 269.203 503.341 269.203C503.341 269.203 503.341 269.203 503.341 269.227L502.038 273.773Z" fill="#ED7D2B"/>
<path d="M491.345 276.563C491.345 276.563 493.707 277.503 493.272 278.542C492.839 279.581 489.838 281.009 489.365 280.19C488.892 279.369 489.86 275.685 491.345 276.563Z" fill="#FFB27D"/>
<path d="M496.608 285.239C496.608 285.239 497.054 282.825 497.081 281.716C497.108 280.607 497.24 279.703 496.979 279.67C496.719 279.638 496.528 279.842 496.423 280.199C496.316 280.556 495.907 282.766 495.907 282.766L496.114 284.901L496.608 285.239Z" fill="#FFB27D"/>
<path d="M263.156 283.662L249.784 442.56C249.784 442.56 248.385 452.191 255.553 452.21C267.339 452.237 314.224 452.21 314.224 452.21C314.224 452.21 305.353 450.204 305.46 445.694C305.587 440.377 321.089 282.158 321.089 282.158L263.156 283.662Z" fill="#7599EA"/>
<path d="M318.636 449.39C316.317 449.398 270.929 449.474 259.448 449.326C254.446 449.264 253.567 444.88 253.527 442.044C253.505 440.686 253.68 439.679 253.68 439.679L254.027 435.549L254.913 425.024L255.695 415.723L256.703 403.772L257.549 393.685L267.052 280.775L324.984 279.271C324.984 279.271 318.456 345.486 313.837 393.682C313.321 399.052 312.832 404.202 312.378 409.008C312.231 410.544 312.091 412.042 311.951 413.503C311.524 418.062 311.132 422.25 310.791 425.948C310.611 427.897 310.444 429.707 310.296 431.366C309.708 437.866 309.361 442.017 309.356 442.807C309.353 443.266 309.394 443.696 309.469 444.093C310.42 449.162 317.765 449.39 318.636 449.39Z" fill="#90AFF4"/>
<path d="M122.466 197.194L155.039 327.951L159.499 345.857L174.668 406.759H456.513L400.598 197.194H122.466Z" fill="#AEC3FF"/>
<path d="M122.466 197.194L117.952 198.698L168.669 411.307L174.671 406.759L122.466 197.194Z" fill="#90AFF4"/>
<path d="M168.668 411.306H448.778L456.513 406.758H174.67L168.668 411.306Z" fill="#7599EA"/>
<path d="M267.034 452.272H327.683V449.391H267.034V452.272Z" fill="#AEC3FF"/>
<path d="M312.266 411.307L311.951 413.508L254.916 425.024L255.698 415.723L256.071 411.307H312.266Z" fill="#5888DD"/>
<path opacity="0.4" d="M318.636 449.391C316.317 449.399 270.928 449.474 259.448 449.327C254.446 449.265 253.567 444.88 253.527 442.045L310.293 431.372C309.705 437.872 309.358 442.023 309.353 442.813C309.35 443.272 309.391 443.702 309.466 444.099C310.42 449.163 317.765 449.391 318.636 449.391Z" fill="#5888DD"/>
<path d="M122.466 197.194H400.598L445.723 365.619H164.421L122.466 197.194Z" fill="#AEC3FF"/>
<path d="M432.607 358.319H172.191L162.884 321.271L159.284 306.936L157.817 301.091L148.253 263.017L147.755 261.036L142.702 240.909L140.44 231.906L138.511 224.224L133.986 206.219H390.646L395.614 224.224L397.734 231.906L400.216 240.909L416.581 300.234V300.237L417.967 305.263L418.612 307.596L429.912 348.551L432.607 358.319Z" fill="#739AF0"/>
<path d="M395.614 224.224H138.511L133.986 206.216H390.649L395.614 224.224Z" fill="#607CF4"/>
<path d="M144.604 214.354C144.295 213.11 145.05 212.104 146.294 212.104C147.538 212.104 148.798 213.11 149.107 214.354C149.416 215.597 148.661 216.604 147.417 216.604C146.176 216.606 144.916 215.597 144.604 214.354Z" fill="#E9F3FE"/>
<path d="M152.089 214.354C151.78 213.11 152.535 212.104 153.779 212.104C155.023 212.104 156.283 213.11 156.592 214.354C156.901 215.597 156.146 216.604 154.902 216.604C153.661 216.606 152.401 215.597 152.089 214.354Z" fill="#E9F3FE"/>
<path d="M160.149 214.354C159.84 213.11 160.595 212.104 161.839 212.104C163.083 212.104 164.343 213.11 164.652 214.354C164.961 215.597 164.206 216.604 162.962 216.604C161.718 216.606 160.458 215.597 160.149 214.354Z" fill="#E9F3FE"/>
<path d="M339.592 101.527C350.118 89.1765 366.348 64.3671 377.275 51.6643C379.524 49.0491 377.654 45.0136 374.204 45.0136H354.32L373.076 2.62817C373.876 0.818477 371.41 -0.62337 370.222 0.96078L324.871 61.6203C323.55 63.3897 324.995 65.8814 327.19 65.6102L349.702 62.8393L336.309 99.6077C335.572 101.632 338.195 103.165 339.592 101.527Z" fill="#F77D48"/>
<path d="M245.975 176.75C248.342 164.611 249.838 142.068 252.339 129.545C252.855 126.968 250.101 124.986 247.81 126.275L234.602 133.707L231.195 98.5444C231.05 97.0435 228.871 97.0086 228.678 98.5041L221.26 155.746C221.045 157.416 222.936 158.53 224.293 157.528L238.207 147.274L243.073 176.702C243.344 178.324 245.66 178.361 245.975 176.75Z" fill="#AEC3FF"/>
<path d="M443.982 361.906L217.703 380.959C200.522 382.406 188.088 364.9 195.122 349.168L290.987 134.752C298.26 118.486 320.616 116.604 330.508 131.426L460.922 326.789C470.491 341.121 461.163 360.459 443.982 361.906Z" fill="#E6EFFF"/>
<path d="M444.702 370.458L218.423 389.51C207.295 390.447 196.79 385.574 190.326 376.472C183.862 367.37 182.723 355.854 187.279 345.664L283.145 131.248C287.855 120.712 297.537 113.844 309.044 112.875C320.551 111.905 331.247 117.058 337.655 126.66L468.068 322.023C474.266 331.308 475.072 342.853 470.223 352.906C465.371 362.958 455.83 369.52 444.702 370.458ZM310.487 129.981C305.307 130.416 300.949 133.509 298.83 138.251L202.964 352.667C200.914 357.253 201.427 362.437 204.337 366.532C207.246 370.629 211.975 372.823 216.983 372.401L443.262 353.349C448.27 352.927 452.566 349.974 454.748 345.449C456.929 340.925 456.569 335.727 453.778 331.549L323.364 136.186C320.479 131.866 315.664 129.546 310.487 129.981Z" fill="#F77D48"/>
<path d="M305.184 329.1C304.939 326.187 305.229 323.448 306.065 320.887C306.898 318.328 308.187 316.062 309.936 314.091C311.685 312.123 313.851 310.515 316.438 309.274C319.023 308.036 321.991 307.271 325.342 306.989C328.689 306.707 331.768 306.962 334.568 307.746C337.37 308.533 339.799 309.755 341.851 311.403C343.906 313.055 345.556 315.074 346.805 317.455C348.055 319.842 348.802 322.49 349.049 325.406C349.293 328.319 348.998 331.036 348.162 333.552C347.327 336.071 346.034 338.313 344.285 340.283C342.536 342.254 340.347 343.862 337.716 345.106C335.086 346.349 332.096 347.114 328.746 347.396C325.395 347.678 322.341 347.423 319.587 346.633C316.83 345.844 314.426 344.622 312.37 342.971C310.318 341.322 308.665 339.327 307.422 336.983C306.175 334.642 305.431 332.014 305.184 329.1ZM340.169 288.189L307.575 290.933L293.574 180.024L335.403 176.501L340.169 288.189Z" fill="#F77D48"/>
<path d="M164.673 294.99C164.673 294.99 165.383 293.395 165.842 292.641C166.301 291.886 168.265 289.674 168.599 290.173C168.932 290.675 170.27 294.045 169.56 294.99C168.851 295.935 169.606 297.576 166.076 298.572L164.673 294.99Z" fill="#FFB27D"/>
<path d="M125.429 284.921C125.429 284.921 143.508 300.003 150.555 298.606C156.068 297.514 164.781 294.753 164.781 294.753C164.781 294.753 167.081 296.939 166.431 299.56C166.431 299.56 155.329 309.999 147.42 310.066C135.056 310.171 129.226 303.944 129.226 303.944L125.429 284.921Z" fill="#ED7D2B"/>
<path d="M93.7241 443.994C93.7241 443.994 94.248 452.454 95.8869 452.575C96.1045 452.591 104.194 452.591 104.194 452.591L114.522 452.532C114.522 452.532 114.454 450.046 111.435 449.519C108.418 448.993 103.364 446.875 101.534 442.888C99.6106 438.691 93.7241 443.994 93.7241 443.994Z" fill="#113C68"/>
<path d="M93.1276 444.579C93.1276 444.579 96.2656 445.629 98.7185 445.629C101.454 445.629 103.936 444.885 103.936 444.885C103.936 444.885 104.527 439.174 107.778 426.59C109.484 419.993 111.918 411.511 115.381 400.972C124.959 371.845 127.872 354.806 128.138 353.193C128.151 353.107 128.156 353.066 128.156 353.066L128.124 353.053L98.6755 340.133C98.6755 340.133 102.316 380.276 97.6707 395.685C97.0205 397.839 96.4644 400.349 95.9862 403.067C93.0604 419.799 93.1276 444.579 93.1276 444.579Z" fill="#2A4E96"/>
<path d="M107.781 426.59C109.487 419.993 111.921 411.511 115.384 400.972C124.962 371.845 127.874 354.806 128.14 353.192C128.137 353.144 128.135 353.098 128.129 353.05L98.6809 340.13C98.6809 340.13 102.321 380.273 97.6761 395.683C97.0286 397.836 107.781 426.59 107.781 426.59Z" fill="#233862"/>
<path d="M116.725 443.994C116.725 443.994 117.249 452.454 118.887 452.575C119.105 452.591 127.195 452.591 127.195 452.591L137.522 452.532C137.522 452.532 137.455 450.046 134.435 449.519C131.418 448.993 126.364 446.875 124.535 442.888C122.611 438.691 116.725 443.994 116.725 443.994Z" fill="#15447C"/>
<path d="M133.42 341.075C133.42 341.075 133.801 367.087 129.298 399.028C124.795 430.969 126.321 444.526 126.321 444.526C126.321 444.526 123.226 445.527 121.98 445.629C118.799 445.887 115.537 444.883 115.537 444.883C115.537 444.883 109.092 412.931 110.94 396.945C112.789 380.958 102.115 342.087 102.115 342.087L133.42 341.075Z" fill="#2A4E96"/>
<path d="M112.539 280.203L118.288 283.97L123.524 282.491C124.481 281.127 124.736 278.496 124.749 276.219C124.763 273.958 124.543 272.041 124.543 272.041L116.786 268.62L113.893 267.345C113.901 267.39 114.118 269.718 114.148 270.059C114.688 276.098 112.539 280.203 112.539 280.203Z" fill="#FFB27D"/>
<path d="M133.551 348.309C126.397 355.212 99.3204 354.052 97.6493 346.445C95.9836 338.839 99.4682 281.696 111.69 278.107C114.226 277.363 127.786 281.742 127.786 281.742C127.786 281.742 129.913 287.305 131.308 294.386C131.579 295.763 132.369 310.367 132.96 324.028C133.237 330.418 133.471 336.602 133.589 341.132C133.699 345.371 133.704 348.158 133.551 348.309Z" fill="#F99746"/>
<path d="M114.728 270.164C116.303 272.822 121.821 275.15 124.747 276.216C124.76 273.955 124.54 272.038 124.54 272.038L116.784 268.617C115.072 268.593 114.027 268.977 114.728 270.164Z" fill="#FCA56B"/>
<path d="M127.466 271.565C127.466 271.565 114.97 275.461 112.662 267.648C110.355 259.834 107.187 255.074 115.07 252.257C122.95 249.441 125.389 251.962 126.794 254.384C128.197 256.803 130.658 270.352 127.466 271.565Z" fill="#FFB27D"/>
<path d="M126.303 253.63C126.303 253.63 125.505 262.724 123.624 262.329C121.743 261.935 119.672 261.089 119.946 263.83C120.223 266.572 118.116 271.27 115.403 271.26C109.583 271.235 103.262 256.312 104.855 253.482C109.452 245.317 132.947 243.669 126.303 253.63Z" fill="#163560"/>
<path d="M124.465 278.303C124.304 278.236 115.164 274.138 114.094 274.49C113.025 274.842 111.692 278.107 111.692 278.107L127.788 281.742C127.786 281.742 126.52 279.167 124.465 278.303Z" fill="#ED7D2B"/>
<path d="M181.371 322.557L130.131 370.771C129.126 371.716 127.861 372.017 127.315 371.44L125.585 369.603C125.042 369.026 125.419 367.78 126.423 366.835L177.663 318.62C178.668 317.675 179.934 317.374 180.479 317.952L182.209 319.788C182.752 320.366 182.376 321.611 181.371 322.557Z" fill="#1F4D84"/>
<path d="M152.616 349.613L130.131 370.771C129.126 371.716 127.861 372.017 127.315 371.439L125.585 369.603C125.042 369.026 125.419 367.78 126.423 366.835L148.908 345.677L152.616 349.613Z" fill="#739AF0"/>
<path d="M169.595 304.352C171.562 310.831 175.205 316.899 180.495 321.872C196.65 337.061 222.069 336.285 237.267 320.143C252.264 304.21 251.708 279.266 236.163 264.015C235.956 263.811 235.747 263.607 235.532 263.409C219.379 248.22 193.963 248.99 178.765 265.135C168.542 275.996 165.544 291.045 169.595 304.352ZM181.073 267.31C189.917 257.915 202.521 254.169 214.355 256.218C221.252 257.41 227.883 260.568 233.361 265.718C248.24 279.707 248.951 303.101 234.954 317.973C229.801 323.448 223.374 327 216.566 328.614C204.877 331.379 192.067 328.412 182.666 319.571C167.787 305.577 167.073 282.182 181.073 267.31Z" fill="#1F4D84"/>
<g opacity="0.5">
<path d="M234.957 317.974C229.804 323.449 223.375 327.001 216.569 328.615C204.88 331.377 192.072 328.41 182.669 319.569C167.79 305.58 167.075 282.183 181.076 267.311C189.92 257.916 202.523 254.17 214.358 256.219C221.255 257.411 227.888 260.569 233.364 265.718C248.24 279.707 248.954 303.102 234.957 317.974Z" fill="#B3CFF9"/>
</g>
<path d="M133.591 341.129C105.357 321.024 107.705 294.192 107.705 294.192C118.025 300.008 128.264 312.869 132.963 324.025C133.237 330.416 133.471 336.599 133.591 341.129Z" fill="#ED7D2B"/>
<path d="M161.457 331.972C163.448 331.513 164.786 330.009 165.063 329.746C165.063 329.746 165.912 329.805 164.923 331.615C164.84 331.765 164.657 332.155 164.518 332.431C164.461 332.544 164.539 332.675 164.665 332.683C165.815 332.772 166.971 332.316 169.182 332.777C169.488 332.842 169.577 333.572 169.563 333.884C169.544 334.41 169.582 335.003 168.969 335.811C168.612 336.281 167.618 336.786 165.401 337.678C164.558 338.016 162.143 337.761 159.88 336.985L158.072 336.147L158.634 332.791L159.088 332.885C159.811 333.035 160.705 332.155 161.457 331.972Z" fill="#FFB27D"/>
<path d="M116.467 281.741C116.467 281.741 91.0992 286.569 123.93 323.284C129.18 329.156 157.551 336.8 157.551 336.8C157.551 336.8 160.429 334.354 158.978 332.372C158.978 332.372 139.443 318.195 135.147 315.943C133.213 314.928 127.643 293.316 124.492 288.113C121.34 282.906 116.467 281.741 116.467 281.741Z" fill="#F99746"/>
<path d="M165.361 295.435C165.361 295.435 166.192 293.851 166.353 293.013C166.514 292.178 167.559 289.74 167.989 289.311C168.161 289.139 168.73 289.362 168.798 290.1C168.827 290.422 168.669 291.008 168.389 291.703C167.935 292.839 168.01 294.377 167.852 294.89C167.46 296.168 165.361 295.435 165.361 295.435Z" fill="#FFB27D"/>
<path d="M175.458 232.531C175.025 233.025 174.971 233.576 175.184 234.167C175.184 234.169 175.186 234.172 175.189 234.175C175.584 235.265 176.887 236.484 178.402 237.7C178.596 237.856 178.768 237.998 178.918 238.13C178.958 238.165 178.996 238.199 179.034 238.234C179.063 238.261 179.093 238.288 179.122 238.315C180.535 239.617 180.004 239.915 182.54 242.557C185.433 245.567 187.424 245.623 187.991 245.347C188.472 245.113 187.497 243.518 186.417 241.722C186.366 241.636 186.312 241.548 186.261 241.462C186.116 241.223 185.973 240.981 185.831 240.742C184.565 238.583 184.891 237.571 185.191 234.357C185.436 231.747 189.262 219.772 189.262 219.772L183.716 218.816C183.716 218.816 182.043 228.351 180.202 229.82C179.219 230.601 178.117 230.612 177.172 231.192C177.105 231.232 177.04 231.272 176.976 231.315C176.438 231.67 175.89 232.037 175.458 232.531Z" fill="#FFB27D"/>
<path d="M175.458 232.532C175.025 233.026 174.971 233.577 175.184 234.167C175.184 234.17 175.186 234.173 175.189 234.175C175.673 235.266 176.943 236.476 178.408 237.69C178.598 237.849 178.768 237.994 178.918 238.13C178.958 238.165 178.996 238.2 179.034 238.235C179.063 238.262 179.093 238.289 179.122 238.316C180.535 239.618 180.004 239.916 182.54 242.558C185.433 245.568 187.424 245.624 187.991 245.348C188.472 245.114 187.497 243.519 186.417 241.723C185.852 241.516 183.236 240.453 181.258 237.921C179.579 235.778 178.44 233.05 177.298 231.372C177.172 231.348 177.097 231.335 176.973 231.311C176.438 231.67 175.89 232.038 175.458 232.532Z" fill="#233862"/>
<path d="M220.177 229.086C220.519 230.797 222.961 230.512 225.685 229.849C228.412 229.183 227.765 229.975 231.644 229.548C235.524 229.121 236.7 227.674 236.819 227.1C236.926 226.587 235.008 226.407 232.952 226.171C232.695 226.141 232.434 226.109 232.173 226.077C229.852 225.784 228.151 224.286 226.042 223.056C224.046 221.891 221.067 217.144 221.067 217.144L215.744 217.562C215.744 217.562 218.536 221.802 219.616 223.644C220.25 224.729 220.218 226.162 220.137 227.269C220.097 227.867 220.056 228.482 220.177 229.086Z" fill="#FFB27D"/>
<path d="M225.685 229.849C228.412 229.183 227.764 229.976 231.644 229.549C235.524 229.122 236.7 227.675 236.819 227.1C236.926 226.587 235.008 226.407 232.952 226.171L232.934 226.211C232.934 226.211 230.607 227.86 227.378 227.935C224.745 227.999 221.959 227.242 220.14 227.272C220.099 227.873 220.059 228.488 220.18 229.092C220.518 230.797 222.961 230.513 225.685 229.849Z" fill="#233862"/>
<path d="M199.796 195.076L194.818 208.45L188.319 225.913C188.319 225.913 186.556 226.082 184.869 225.596C183.316 225.148 181.532 223.972 181.532 223.972C181.532 223.972 183.343 205.217 186.709 194.453C187.572 191.69 188.539 189.456 189.606 188.197C194.823 182.043 199.796 195.076 199.796 195.076Z" fill="#233862"/>
<path d="M194.748 173.829C191.916 172.916 184.528 173.81 176.514 175.258C174.3 175.658 172.067 174.646 170.901 172.723L150.735 171.142C150.735 171.142 144.075 185.888 147.715 195.288C148.25 196.668 149.424 197.532 151.24 197.562C151.24 197.562 163.427 197.583 167.325 197.583C177.354 197.586 188.552 190.702 190.001 190.412C192.37 189.939 193.319 194.678 195.688 199.654C198.058 204.629 217.966 221.695 217.966 221.695C217.966 221.695 221.026 221.727 222.292 221.252C223.651 220.742 224.148 220.081 224.148 220.081C224.148 220.081 202.096 176.2 194.748 173.829Z" fill="#2A4E96"/>
<path d="M168.779 113.538C167.282 112.646 165.821 112.509 164.926 112.534C164.303 112.552 163.682 112.509 163.067 112.421C155.37 111.29 150.732 122.463 150.458 125.838C149.959 132.035 146.675 132.98 142.057 136.86C132.793 144.641 135.507 153.684 140.569 157.048C143.607 159.065 148.962 157.051 148.962 157.051C149.037 157.105 163.61 148.915 170.791 144.968C181.559 143.443 173.104 116.113 168.779 113.538Z" fill="#233862"/>
<path d="M164.776 141.601C164.808 141.623 161.243 142.837 158.859 141.781C156.616 140.791 154.921 137.101 154.953 137.101C155.974 137.056 157.094 136.164 157.957 130.316L158.392 130.472L165.694 133.101C165.694 133.101 165.165 135.442 164.821 137.673C164.531 139.545 164.375 141.338 164.776 141.601Z" fill="#FFB27D"/>
<path d="M165.694 133.1C165.694 133.1 165.402 134.365 164.977 136.725C160.783 135.968 158.983 132.738 158.392 130.472L165.694 133.1Z" fill="#ED975D"/>
<path d="M166.78 135.426C166.78 135.426 156.788 134.081 157.72 127.876C158.653 121.671 157.992 117.316 164.413 117.912C170.831 118.508 171.712 121.061 171.906 123.209C172.099 125.355 169.405 135.614 166.78 135.426Z" fill="#FFB27D"/>
<path d="M171.543 119.804C171.543 119.804 165.143 125.311 160.794 125.754C156.441 126.197 154.794 124.801 154.794 124.801C154.794 124.801 157.36 122.674 158.905 119.24C159.359 118.228 160.321 117.533 161.428 117.439C164.534 117.173 170.423 117.052 171.543 119.804Z" fill="#233862"/>
<path d="M167.543 119.31C167.543 119.31 169.682 121.378 170.356 122.913C171.006 124.393 171.2 127.934 170.681 129.339C170.681 129.339 174.018 122.86 172.132 119.713C170.13 116.373 167.543 119.31 167.543 119.31Z" fill="#233862"/>
<path d="M173.185 156.318C172.876 176.533 173.096 172.309 170.882 174.227C170.348 174.688 168.851 174.962 166.877 175.094C160.673 175.502 149.771 174.479 149.357 173.332C147.928 169.367 148.938 168.137 147.748 162.069C147.624 161.424 147.471 160.724 147.288 159.964C146.294 155.797 145.327 154.376 148.86 147.683C152.065 141.617 155.391 136.696 155.692 136.873C164.139 141.888 164.821 137.676 164.821 137.676C164.821 137.676 173.335 146.456 173.185 156.318Z" fill="#F99746"/>
<path d="M194.818 208.45L188.319 225.913C188.319 225.913 186.556 226.082 184.869 225.596C183.316 225.148 181.532 223.972 181.532 223.972C181.532 223.972 183.343 205.217 186.709 194.453L194.818 208.45Z" fill="#2A4E96"/>
<path d="M164.821 137.671C164.821 137.671 173.513 139.148 174.534 142.888C175.552 146.628 178.905 169.332 178.905 169.332C178.905 169.332 176.452 171.725 174.413 169.684C172.371 167.644 167.994 148.44 167.994 148.44L164.821 137.671Z" fill="#F99746"/>
<path d="M166.879 175.092C160.676 175.5 149.773 174.477 149.359 173.33C147.93 169.365 148.94 168.135 147.75 162.067L150.746 153.649C150.746 153.649 150.249 163.025 153.013 165.49C155.775 167.958 164.337 170.253 165.684 172.316C166.328 173.304 166.753 174.297 166.879 175.092Z" fill="#ED7D2B"/>
<path d="M159.773 171.147C159.773 171.147 165.893 169.789 166.879 170.331C167.865 170.873 170.278 172.852 170.581 173.54C170.882 174.227 168.384 173.016 167.57 172.799C167.043 172.656 165.657 173.137 164.969 173.368C162.081 174.329 160.31 173.832 160.31 173.832L159.773 171.147Z" fill="#FFB27D"/>
<path d="M155.687 136.865C155.687 136.865 147.471 137.367 144.623 141.333C140.617 146.913 132.665 170.696 137.216 173.87C142.342 177.444 160.547 174.812 160.547 174.812C160.547 174.812 161.154 171.982 160.31 170.613C159.467 169.244 145.77 167.029 145.139 166.395C144.507 165.764 153.046 154.076 153.046 152.18C153.051 150.288 155.687 136.865 155.687 136.865Z" fill="#F99746"/>
<path d="M167.175 172.033C167.175 172.033 168.456 173.687 168.875 173.883C169.295 174.082 169.569 174.031 169.569 174.031L168.706 172.476L167.175 172.033Z" fill="#FFB27D"/>
<path d="M166.879 170.331L170.606 172.141C170.606 172.141 170.447 172.401 169.988 172.38C169.528 172.358 168.37 171.934 168.37 171.934L166.879 170.331Z" fill="#FFB27D"/>
<path d="M198.711 174.594L159.77 174.581V175.44L198.364 175.454L198.711 174.594Z" fill="#233862"/>
<path d="M168.875 175.443L198.364 175.454L207.244 153.41L177.801 153.399L168.875 175.443Z" fill="#233862"/>
<path d="M190.925 164.427C191.148 163.651 190.699 163.022 189.923 163.022C189.146 163.022 188.338 163.651 188.115 164.424C187.892 165.2 188.34 165.828 189.117 165.828C189.893 165.831 190.702 165.203 190.925 164.427Z" fill="white"/>
<path d="M390.493 258.575C386.52 257.257 383.771 258.922 383.771 258.922C372.334 259.392 371.91 271.109 373.25 275.469C375.136 281.594 368.463 286.421 375.864 288.9C384.451 291.775 391.657 288.363 391.165 289.845C418.319 291.982 399.529 261.572 390.493 258.575Z" fill="#163560"/>
<path d="M378.632 315.562C378.632 315.562 377.546 317.712 375.574 320.183C373.199 323.158 360.728 316.099 361.803 315.562C362.877 315.025 369.143 296.981 370.636 294.715C372.13 292.449 377.213 291.271 377.213 291.271L378.632 315.562Z" fill="#F99746"/>
<path d="M420.716 437.246C420.716 437.246 424.157 440.384 423.486 442.616C422.814 444.847 419.708 446.334 419.289 449.06C418.87 451.785 417.191 453.272 415.678 453.272C414.166 453.272 408.473 453.272 408.473 453.272C408.473 453.272 407.36 451.353 410.047 450.775C412.734 450.198 413.747 446.995 413.577 444.02C413.408 441.045 413.83 437.082 413.83 437.082L419.539 435.761L420.716 437.246Z" fill="#1F447F"/>
<path d="M391.582 438.58C391.582 438.58 392.82 451.879 391.31 452.623L371.972 452.582C371.972 452.582 371.972 450.351 375.077 449.857C378.183 449.36 383.64 447.543 384.564 443.496C385.488 439.45 391.582 438.58 391.582 438.58Z" fill="#1C3154"/>
<path d="M406.458 306.591C406.458 306.591 406.745 310.651 406.458 315.524C406.267 318.754 402.997 323.08 402.532 324.151C401.369 326.836 400.055 327.271 400.055 327.271L389.902 329.757L386.332 330.63L375.072 327.268C375.072 327.268 369.943 312.965 372.004 304.913C374.062 296.861 377.208 291.268 377.208 291.268C377.208 291.268 384.86 289.549 398.357 290.505L406.458 306.591Z" fill="#F99746"/>
<path d="M407.425 315.637C407.234 318.867 402.997 323.08 402.532 324.151C401.369 326.836 400.055 327.271 400.055 327.271L389.902 329.758L388.07 324.506C388.07 324.506 402.906 320.61 400.52 306.887L407.425 315.637Z" fill="#ED7D2B"/>
<path d="M375.792 329.44C375.792 329.44 370.217 346.783 369.857 352.69C369.5 358.594 380.515 436.575 380.958 439.295C381.375 441.859 384.564 443.494 384.564 443.494C384.564 443.494 386.031 444.358 388.121 443.768C391.023 442.949 391.942 441.969 391.942 441.969C391.942 441.969 396.281 386.354 393.597 366.488C390.91 346.622 390.88 329.44 390.88 329.44H375.792Z" fill="#233862"/>
<path d="M399.413 328.925C399.413 328.925 407.919 340.328 408.712 348.039C409.504 355.748 409.956 382.826 411.646 390.341C413.335 397.857 419.542 412.321 419.542 435.761C419.542 435.761 418.897 437.103 416.906 437.82C416.269 438.049 415.415 438.271 414.587 438.462C412.946 438.838 411.259 438.035 410.509 436.529C406.313 428.087 392.949 400.856 392.261 395.204C391.778 391.203 387.557 364.729 378.35 349.197C376.139 345.467 379.706 330.635 379.706 330.635L399.413 328.925Z" fill="#2A4E96"/>
<path d="M374.9 326.764C374.9 326.764 377.138 328.533 381.584 328.622C386.896 328.729 400.055 327.268 400.055 327.268C400.055 327.268 400.641 328.901 400.617 330.625C400.617 330.625 384.542 334.676 375.23 331.215C375.23 331.218 374.03 328.96 374.9 326.764Z" fill="#233862"/>
<path d="M380.311 333.197C378.976 333.197 377.888 331.967 377.888 330.455C377.888 328.944 378.976 327.714 380.311 327.714C381.646 327.714 382.734 328.944 382.734 330.455C382.734 331.967 381.649 333.197 380.311 333.197ZM380.311 328.517C379.416 328.517 378.691 329.387 378.691 330.455C378.691 331.524 379.419 332.394 380.311 332.394C381.203 332.394 381.931 331.524 381.931 330.455C381.931 329.387 381.206 328.517 380.311 328.517Z" fill="white"/>
<path d="M391.923 338.183L367.764 338.409L355.878 310.49L380.037 310.265L391.923 338.183Z" fill="#B5453C"/>
<path d="M388.763 325.566L386.993 323.391C386.993 323.391 385.794 322.322 384.924 322.142C384.053 321.96 382.218 320.902 382.041 321.2C381.864 321.498 383.452 323.625 383.452 323.625L383.532 323.635C381.708 325.007 377.103 323.796 376.536 324.355C375.848 325.032 377.484 326.498 378.363 327.322C379.242 328.146 381.754 329.515 383.712 328.909C385.144 328.463 387.396 328.009 387.396 328.009L388.763 325.566Z" fill="#FFB27D"/>
<path d="M357.694 315.401C357.694 315.401 359.212 313.677 360.18 314.504C361.147 315.331 359.927 319.401 359.006 318.988C358.084 318.574 357.165 315.905 357.694 315.401Z" fill="#FFB27D"/>
<path d="M398.36 290.508C398.36 290.508 405.275 291.27 410.238 300.281C414.152 307.388 420.842 320.489 418.316 324.188C417.207 325.813 406.584 331.594 386.093 328.291C386.093 328.291 386.415 325.705 388.067 324.505C388.067 324.505 405.313 318.971 405.283 317.871C405.227 315.79 402.954 313.988 393.32 304.36C390.703 301.742 398.36 290.508 398.36 290.508Z" fill="#F99746"/>
<path d="M393.038 290.873C393.274 290.553 392.97 289.538 392.589 287.648C392.245 285.935 391.662 283.285 391.673 280.305L391.162 280.391L382.592 281.832C382.592 281.832 382.788 284.123 382.793 286.282C382.793 286.3 382.793 286.316 382.793 286.335C382.804 288.209 382.288 291.042 382.92 291.41C386.168 293.311 392.124 292.1 393.038 290.873Z" fill="#FFB27D"/>
<path d="M382.595 281.832C382.595 281.832 382.764 285.063 382.772 287.219C387.568 287.103 390.128 282.45 391.168 280.391L382.595 281.832Z" fill="#E8945B"/>
<path d="M382.076 285.683C382.076 285.683 393.312 284.083 392.208 277.105C391.103 270.126 391.81 265.221 384.588 265.948C377.366 266.673 376.399 269.557 376.2 271.976C376.004 274.395 379.126 285.919 382.076 285.683Z" fill="#FFB27D"/>
<path d="M379.459 266.59C379.459 266.59 383.833 274.286 388.734 274.747C393.637 275.206 395.477 273.622 395.477 273.622C395.477 273.622 391.407 271.329 389.859 266.443C389.859 266.443 381.152 262.327 379.459 266.59Z" fill="#163560"/>
<path d="M380.324 267.135C380.324 267.135 378.186 268.349 377.511 270.156C376.853 271.922 376.415 274.197 377.017 276.801C377.017 276.801 373.817 271.606 375.916 268.045C378.14 264.267 380.324 267.135 380.324 267.135Z" fill="#163560"/>
<path d="M627.885 454.277H5.02376C4.59658 454.277 4.24463 453.928 4.24463 453.499V453.05C4.24463 452.623 4.59389 452.271 5.02376 452.271H627.887C628.314 452.271 628.666 452.621 628.666 453.05V453.499C628.664 453.925 628.314 454.277 627.885 454.277Z" fill="#233862"/>
</svg>
