<svg width="524" height="280" viewBox="0 0 524 280" fill="none" xmlns="http://www.w3.org/2000/svg">
<g clip-path="url(#clip0_1715_8022)">
<path d="M408.439 265.797C400.532 265.797 364.885 265.806 319.657 265.797C307.168 265.796 293.948 265.791 280.382 265.785C270.089 265.781 259.591 265.776 249.062 265.77C243.117 265.766 237.161 265.765 231.225 265.76C151.622 265.697 138.936 266.588 126.302 265.797C102.8 265.797 42.6041 174.461 114.264 114.49C142.091 91.2028 106.377 60.2644 152.596 37.0295C182.99 21.7495 205.066 48.5931 241.757 38.9222C268.863 31.7777 274.378 15.0176 327.967 19.6625C379.503 24.128 380.54 66.4431 364.191 101.385C353.869 123.446 404.48 116.634 427.884 149.557C467.829 205.75 408.793 264.962 408.439 265.797Z" fill="#EBF3FA"/>
<path d="M364.941 206.816C364.941 206.816 368.011 206.703 370.263 206.056C372.584 205.388 374.338 203.023 376.184 203.16C380.055 203.447 387.413 202.245 386.683 203.609C385.954 204.972 381.512 204.621 380.989 205.43C380.466 206.238 387.316 208.303 389.298 208.669C391.28 209.036 398.68 209.865 398.426 210.849C398.172 211.833 388.305 216.431 382.48 215.204C376.654 213.976 366.186 211.877 366.186 211.877L364.941 206.816Z" fill="#FFB27D"/>
<path d="M284.004 59.2099C275.437 54.7639 268.571 57.558 268.571 57.558C242.352 54.4784 234.706 85.055 235.06 95.5766C235.41 106.095 238.021 114.488 225.63 125.385C210.861 138.372 214.297 155.534 221.955 161.614C225.272 164.251 229.615 166.238 234.215 167.734C239.905 169.588 245.982 170.69 250.99 171.345C253.753 171.706 256.186 171.932 258.052 172.07C258.052 172.07 258.052 172.07 258.055 172.07C258.359 172.092 258.643 172.112 258.915 172.13H258.916C260.801 172.257 261.917 172.284 261.917 172.284C262.13 160.988 267.118 155.214 273.356 152.604C273.357 152.604 273.36 152.604 273.362 152.602C274.809 151.995 276.322 151.559 277.862 151.264C277.862 151.264 277.862 151.264 277.863 151.264C282.124 150.446 286.559 150.711 290.241 151.427C295.498 152.453 299.213 154.399 298.668 155.449C301.721 156.181 304.406 156.48 306.756 156.393C310.189 156.271 312.903 155.325 314.99 153.714C334.2 138.901 300.474 67.7537 284.004 59.2099Z" fill="#163560"/>
<path d="M285.842 129.201C285.842 129.201 305.618 132.024 312.466 141.279C321.117 152.971 329.626 185.935 335.819 191.836C342.011 197.737 367.894 206.539 367.894 206.539C367.894 206.539 368.849 212.217 365.88 213.951C360.853 216.887 335.467 215.61 320.739 207.699C306.606 200.108 296.596 183.506 296.596 183.506L285.842 129.201Z" fill="#8C9DF4"/>
<path d="M179.507 176.232C179.507 176.232 175.375 168.504 171.526 168.011C167.676 167.519 160.707 164.87 161.149 166.352C161.592 167.833 166.014 168.377 166.365 169.274C166.717 170.171 159.592 170.824 157.576 170.787C155.561 170.75 150.854 170.179 150.906 171.194C150.958 172.207 158.947 177.112 164.902 177.073C170.855 177.035 177.944 179.983 177.944 179.983L179.507 176.232Z" fill="#FFB27D"/>
<path d="M248.594 184.859C248.594 184.859 245.523 189.782 240.262 195.281C233.924 201.898 224.398 209.343 213.228 209.972C207.892 210.272 202.845 208.674 198.302 206.143C198.29 206.137 198.286 206.137 198.286 206.137C185.435 198.984 176.604 184.406 176.604 184.406C174.827 177.757 178.077 173.882 178.077 173.882C178.077 173.882 205.497 182.065 208.258 181.212C219.375 177.775 227.146 148.681 233.719 139.385C239.232 131.589 258.472 129.203 258.472 129.203L248.594 184.859Z" fill="#8C9DF4"/>
<path d="M240.262 195.28C233.923 201.897 224.398 209.342 213.227 209.971C207.892 210.272 202.845 208.673 198.302 206.143C198.819 206.259 212.04 209.12 218.232 200.067C224.548 190.831 231.824 175.914 239.435 181.794C242.718 184.331 242.065 189.84 240.262 195.28Z" fill="#6F84DD"/>
<path d="M308.711 190.993C308.182 195.2 307.385 199.676 306.27 204.425C304.518 211.897 301.489 214.835 300.172 215.799C299.77 216.093 299.526 216.206 299.526 216.206L276.111 221.943L267.878 223.96L241.917 216.206C241.917 216.206 230.092 183.2 234.841 164.62C239.587 146.041 242.975 137.196 242.975 137.196C242.975 137.196 259.857 130.324 296.224 136.418C296.225 136.418 313.55 152.598 308.711 190.993Z" fill="#8C9DF4"/>
<path d="M280.382 265.785C270.089 265.781 259.592 265.776 249.063 265.77C243.117 265.766 237.161 265.764 231.225 265.76C233.884 252.644 239.689 233.433 242.28 225.104C243.077 222.536 243.57 221.002 243.57 221.002H278.358C278.358 221.002 278.358 221.137 278.359 221.395V221.516C278.367 222.418 278.388 224.488 278.455 227.538C278.63 235.137 279.101 248.835 280.382 265.785Z" fill="#2B478B"/>
<path d="M319.657 265.797C307.168 265.795 293.948 265.791 280.382 265.785C270.089 265.78 259.591 265.776 249.063 265.77C245.899 258.473 249.46 238.518 251.446 228.97C251.558 228.435 251.662 227.929 251.762 227.463C251.795 227.309 251.83 227.156 251.861 227.01C252.304 224.966 252.598 223.745 252.598 223.745L257.732 223.301L259.578 223.139L263.883 222.767L277.607 221.579H277.613L278.361 221.514L298.043 219.809C298.043 219.809 299.133 221.269 300.821 223.736C306.298 231.737 318.084 250.313 319.482 263.909C319.542 264.492 319.6 265.123 319.657 265.797Z" fill="#2B478B"/>
<path d="M300.822 188.786C303.976 194.497 307.748 197.302 307.748 197.302C306.833 210.007 301.491 214.836 300.174 215.801L299.527 215.99L279.152 217.962C279.152 217.962 288.189 214.799 289.974 209.015C291.761 203.232 288.873 195.864 291.239 186.858C293.325 178.93 295.296 178.785 300.822 188.786Z" fill="#6F84DD"/>
<path d="M241.517 214.824C241.517 214.824 246.679 218.907 256.931 219.113C269.178 219.36 299.525 215.99 299.525 215.99C299.525 215.99 300.874 219.758 300.819 223.736C300.819 223.736 263.754 233.085 242.279 225.101C242.279 225.102 239.509 219.891 241.517 214.824Z" fill="#233862"/>
<path d="M259.577 223.139C259.562 222.533 259.47 221.953 259.311 221.402V221.4C259.274 221.264 259.23 221.133 259.181 221.001C258.94 220.309 258.589 219.675 258.154 219.128C257.132 217.833 255.644 217.019 253.992 217.019C252.668 217.019 251.451 217.543 250.494 218.418C250.398 218.503 250.307 218.593 250.217 218.685C249.603 219.322 249.117 220.112 248.805 221.001C248.546 221.726 248.406 222.517 248.406 223.344C248.406 224.737 248.805 226.026 249.483 227.072C249.995 227.865 250.669 228.519 251.446 228.971C252.21 229.418 253.076 229.667 253.994 229.667C255.4 229.667 256.685 229.08 257.667 228.107C258.842 226.948 259.582 225.242 259.582 223.344C259.582 223.276 259.582 223.206 259.577 223.139ZM257.731 223.342C257.731 225.68 256.221 227.607 254.308 227.797H254.299C254.195 227.811 254.095 227.815 253.992 227.815C253.62 227.815 253.26 227.751 252.92 227.628H252.916C252.532 227.489 252.179 227.28 251.86 227.009C250.892 226.201 250.258 224.86 250.258 223.344C250.258 222.484 250.461 221.683 250.814 221.001C251.182 220.282 251.718 219.698 252.355 219.324C252.727 219.103 253.139 218.956 253.571 218.898C253.71 218.878 253.852 218.869 253.995 218.869C254.328 218.869 254.654 218.923 254.962 219.023C254.965 219.026 254.965 219.026 254.967 219.026C254.97 219.026 254.97 219.026 254.971 219.026C255.804 219.294 256.523 219.901 257.019 220.717V220.72C257.075 220.811 257.129 220.905 257.178 221.004C257.523 221.674 257.727 222.46 257.734 223.303V223.342H257.731Z" fill="#6F84DD"/>
<path d="M284.944 130.897C283.562 128.3 279.601 115.094 279.631 108.236L278.456 108.432L258.692 111.748C258.692 111.748 259.142 117.018 259.155 121.983C259.155 122.024 259.155 122.065 259.155 122.107C259.179 126.418 259.098 128.541 259.962 133.884C260.353 136.294 259.529 153.595 267.805 152.353C270.754 151.907 285.856 132.61 284.944 130.897Z" fill="#FFB27D"/>
<path d="M258.689 111.747C258.689 111.747 259.139 117.016 259.153 121.981C270.212 121.716 276.059 113.17 278.456 108.431L258.689 111.747Z" fill="#E8945B"/>
<path d="M254.996 117.929C254.996 117.929 281.165 118.361 281.183 102.06C281.201 85.7586 284.59 74.8364 267.884 73.8721C251.176 72.9079 247.923 79.124 246.594 84.5627C245.264 90.0014 248.19 117.397 254.996 117.929Z" fill="#FFB27D"/>
<path d="M255.964 73.4719C255.964 73.4719 263.129 92.5956 274.125 95.4241C285.12 98.251 289.891 95.3059 289.891 95.3059C289.891 95.3059 281.456 88.6055 279.705 76.9103C279.705 76.9088 261.368 64.3705 255.964 73.4719Z" fill="#163560"/>
<path d="M257.74 75.0252C257.74 75.0252 252.427 77.012 250.24 80.887C248.102 84.6767 246.28 89.6953 246.703 95.8516C246.703 95.8516 241.305 82.8529 247.371 75.5006C253.804 67.7028 257.74 75.0252 257.74 75.0252Z" fill="#163560"/>
<path d="M265.532 152.682C265.532 152.682 282.579 133.964 283.267 126.425C283.267 126.425 286.81 126.492 293.307 129.865C293.793 130.117 294.02 130.708 293.806 131.213C292.533 134.223 288.16 144.009 283.968 146.877C283.968 146.877 280.362 146.351 277.526 145.167C277.526 145.167 279.314 148.169 280.735 149.963C280.733 149.962 272.88 154.361 265.532 152.682Z" fill="#6F84DD"/>
<path d="M259.185 126.112C259.185 126.112 259.578 138.154 265.531 152.682C265.531 152.682 257.463 151.096 253.342 145.379C253.342 145.379 254.645 142.329 255.742 141.626C255.742 141.626 253.322 140.649 251.793 142.057C251.793 142.057 250.174 131.441 251.412 129.581C251.924 128.809 257.927 125.777 259.185 126.112Z" fill="#6F84DD"/>
<path d="M266.818 152.689C266.821 151.979 266.248 151.399 265.538 151.396C264.828 151.393 264.248 151.965 264.245 152.675C264.242 153.385 264.815 153.965 265.525 153.968C266.235 153.973 266.815 153.4 266.818 152.689Z" fill="#233862"/>
<path d="M259.859 170.898C259.862 170.188 259.289 169.607 258.579 169.605C257.869 169.602 257.289 170.174 257.286 170.884C257.283 171.594 257.855 172.174 258.566 172.177C259.276 172.18 259.856 171.609 259.859 170.898Z" fill="#233862"/>
<path d="M258.461 192.287C258.464 191.576 257.891 190.997 257.181 190.994C256.471 190.99 255.891 191.564 255.888 192.274C255.885 192.984 256.457 193.564 257.167 193.567C257.878 193.571 258.456 192.999 258.461 192.287Z" fill="#233862"/>
<path d="M362.293 180.671V186.484C362.293 187.596 361.382 188.506 360.27 188.506H356.105C354.993 188.506 354.082 187.596 354.082 186.484V180.671C354.082 179.559 354.993 178.648 356.105 178.648H360.27C361.382 178.648 362.293 179.559 362.293 180.671Z" fill="#ED7D2B"/>
<path d="M362.293 180.671V183.909C362.293 185.022 361.382 185.932 360.27 185.932H356.105C354.993 185.932 354.082 185.022 354.082 183.909V180.671C354.082 179.559 354.993 178.648 356.105 178.648H360.27C361.382 178.648 362.293 179.559 362.293 180.671Z" fill="#F99746"/>
<path d="M408.442 183.577C408.442 186.552 407.834 189.391 406.735 191.976C403.44 199.733 395.733 205.208 386.812 205.208H380.627C372.732 205.208 365.79 200.922 362.013 194.561C360.098 191.336 358.997 187.579 358.997 183.577C358.997 180.602 359.605 177.765 360.704 175.178C363.999 167.422 371.705 161.946 380.627 161.946H386.812C394.926 161.946 402.033 166.475 405.733 173.127C407.458 176.231 408.442 179.795 408.442 183.577Z" fill="#ED7D2B"/>
<path d="M390.471 196.026L388.453 209.128C388.185 210.143 388.951 211.135 390 211.135H395.303C396.439 211.135 397.481 210.5 398.001 209.489L406.243 193.051L390.471 196.026Z" fill="#ED7D2B"/>
<path d="M378.398 196.249L380.017 209.126C380.284 210.141 379.519 211.133 378.47 211.133H373.167C372.031 211.133 370.989 210.498 370.469 209.487L362.013 194.559L378.398 196.249Z" fill="#ED7D2B"/>
<path d="M413.594 189.456C413.472 189.456 413.351 189.441 413.23 189.408C412.289 189.16 411.751 188.039 411.826 186.478C411.898 184.949 412.539 183.334 413.581 182.049C414.043 181.479 414.575 180.981 415.17 180.56C414.889 180.096 414.511 179.652 414.001 179.271C413.134 178.621 412.238 178.434 411.264 178.698C408.642 179.41 406.42 183.156 406.241 183.578C406.159 183.804 405.912 183.923 405.683 183.847C405.451 183.769 405.326 183.518 405.402 183.286C405.48 183.053 406.129 181.935 407.035 180.827C408.613 178.897 409.989 178.165 410.865 177.891C412.164 177.486 413.397 177.71 414.532 178.561C415.094 178.982 415.56 179.495 415.921 180.086C416.82 179.585 417.834 179.236 418.936 179.056C419.178 179.017 419.405 179.18 419.446 179.422C419.486 179.664 419.322 179.891 419.079 179.932C418.069 180.098 417.142 180.418 416.323 180.878C416.574 181.483 416.734 182.153 416.797 182.874C416.925 184.358 416.628 185.979 415.979 187.32C415.32 188.688 414.449 189.456 413.594 189.456ZM415.563 181.373C415.082 181.729 414.648 182.143 414.269 182.609C413.342 183.751 412.774 185.177 412.709 186.521C412.659 187.587 412.965 188.423 413.454 188.552C413.947 188.682 414.659 188.018 415.181 186.937C415.753 185.753 416.027 184.264 415.913 182.953C415.873 182.482 415.774 181.932 415.563 181.373ZM406.245 183.569C406.244 183.572 406.244 183.575 406.242 183.576C406.244 183.573 406.244 183.57 406.245 183.569Z" fill="#ED7D2B"/>
<path d="M405.731 173.129C406.244 175.624 405.84 179.19 405.184 181.078C400.819 193.633 390.557 195.901 380.069 196.854C372.61 197.533 362.011 194.563 362.011 194.563C360.096 191.338 358.994 187.581 358.994 183.579C358.994 180.604 359.603 177.767 360.702 175.18C363.996 167.424 371.703 161.948 380.625 161.948H386.809C394.924 161.947 402.032 166.475 405.731 173.129Z" fill="#F99746"/>
<path d="M378.077 167.365H369.569C368.711 167.365 368.016 166.845 368.016 166.202V154.586C368.016 154.387 368.078 154.208 368.186 154.051C368.602 153.447 369.696 153.199 370.509 153.659C373.74 155.49 379.032 159.47 379.627 166.123C379.687 166.794 378.975 167.365 378.077 167.365Z" fill="#F99746"/>
<path d="M369.915 167.365H369.57C368.712 167.365 368.017 166.845 368.017 166.202V154.586C368.017 154.387 368.08 154.208 368.187 154.051C368.223 154.082 368.259 154.117 368.292 154.154C370.14 156.211 372.804 160.253 372.053 165.915C371.943 166.737 371.019 167.365 369.915 167.365Z" fill="#ED7D2B"/>
<path d="M365.43 175.13C365.43 174.43 365.998 173.862 366.698 173.862C367.398 173.862 367.966 174.43 367.966 175.13C367.966 175.83 367.398 176.398 366.698 176.398C365.998 176.398 365.43 175.831 365.43 175.13Z" fill="#2B478B"/>
<path opacity="0.5" d="M338.205 235.828C338.205 235.828 341.101 239.906 343.757 239.962C346.412 240.018 350.453 238.072 350.453 238.072C350.453 238.072 352.891 232.638 351.238 230.512C351.238 230.512 349.58 229.784 347.846 231.07C347.548 231.292 347.246 231.57 346.949 231.929C346.529 232.435 346.056 232.723 345.556 232.874C343.662 233.451 341.412 232.095 340.572 233.403C340.08 234.164 339.546 234.735 339.106 235.137C338.583 235.601 338.205 235.828 338.205 235.828Z" fill="#AEC3FF"/>
<path opacity="0.5" d="M375.964 265.24C375.964 265.24 365.727 240.434 347.3 239.962C347.3 239.962 330.29 241.852 329.346 265.24H375.964Z" fill="#AEC3FF"/>
<path d="M352.348 240.72C352.348 240.72 344.962 242.363 342.683 241.397C342.683 241.397 342.339 238.309 345.449 238.742C347.578 239.038 348.965 238.016 349.78 237.6C350.934 237.013 352.655 239.429 352.348 240.72Z" fill="#8C9DF4"/>
<path opacity="0.5" d="M345.92 236.064C346.393 236.418 347.843 231.069 347.843 231.069C347.545 231.292 347.243 231.57 346.946 231.929C346.526 232.434 346.053 232.723 345.552 232.874C345.548 233.031 345.463 235.719 345.92 236.064Z" fill="#AEC3FF"/>
<path opacity="0.5" d="M339.103 235.137C339.208 235.199 342.624 237.245 343.086 237.245C343.558 237.245 340.567 233.403 340.567 233.403C340.077 234.164 339.543 234.737 339.103 235.137Z" fill="#AEC3FF"/>
<path opacity="0.5" d="M365.963 258.311C366.153 258.15 358.719 247.365 356.671 247.286C354.623 247.207 350.023 249.648 346.693 249.964C343.363 250.279 340.135 249.334 339.504 251.303C338.875 253.272 337.142 260.252 338.205 261.369C339.268 262.484 361.876 261.802 365.963 258.311Z" fill="#AEC3FF"/>
<path d="M201.167 196.747C201.167 196.747 198.777 200.113 196.584 200.16C194.392 200.206 191.057 198.599 191.057 198.599C191.057 198.599 189.045 194.114 190.41 192.359C190.41 192.359 191.779 191.758 193.21 192.819C193.455 193.003 193.705 193.233 193.951 193.529C194.298 193.947 194.688 194.184 195.102 194.31C196.666 194.785 198.523 193.667 199.216 194.746C199.622 195.374 200.063 195.847 200.426 196.179C200.856 196.56 201.167 196.747 201.167 196.747Z" fill="#FFEDDC"/>
<path d="M169.998 221.027C169.998 221.027 178.449 200.55 193.66 200.16C193.66 200.16 207.7 201.721 208.481 221.027H169.998Z" fill="#FFEDDC"/>
<path d="M189.493 200.784C189.493 200.784 195.589 202.14 197.472 201.343C197.472 201.343 197.756 198.794 195.189 199.152C193.431 199.397 192.287 198.552 191.613 198.21C190.659 197.724 189.239 199.718 189.493 200.784Z" fill="#DB6A1D"/>
<path d="M194.8 196.941C194.41 197.234 193.212 192.818 193.212 192.818C193.458 193.002 193.707 193.232 193.954 193.528C194.301 193.946 194.691 194.183 195.105 194.309C195.108 194.437 195.178 196.657 194.8 196.941Z" fill="#E5C1A1"/>
<path d="M200.428 196.177C200.343 196.228 197.522 197.917 197.141 197.917C196.751 197.917 199.22 194.746 199.22 194.746C199.624 195.374 200.065 195.845 200.428 196.177Z" fill="#E5C1A1"/>
<path d="M178.254 215.305C178.097 215.172 184.234 206.27 185.925 206.204C187.616 206.138 191.413 208.153 194.162 208.413C196.911 208.673 199.577 207.893 200.097 209.518C200.617 211.143 202.046 216.905 201.169 217.827C200.29 218.751 181.628 218.189 178.254 215.305Z" fill="#F9DDBF"/>
<path d="M212.6 261.906V264.188C212.6 264.369 212.534 264.538 212.42 264.678C212.301 264.826 212.13 264.941 211.93 265.007C211.867 265.028 211.805 265.043 211.739 265.053C211.678 265.062 211.618 265.067 211.553 265.067H168.278C167.754 265.067 167.318 264.741 167.24 264.319C167.236 264.291 167.233 264.262 167.231 264.233C167.231 264.218 167.23 264.203 167.23 264.188V261.906C167.23 261.891 167.231 261.876 167.231 261.862C167.233 261.832 167.237 261.803 167.24 261.775C167.318 261.353 167.754 261.027 168.278 261.027H211.552C211.615 261.027 211.676 261.032 211.737 261.041C211.803 261.05 211.867 261.066 211.929 261.087C212.129 261.151 212.301 261.268 212.419 261.416C212.534 261.557 212.6 261.725 212.6 261.906Z" fill="#FFB93E"/>
<path d="M191.351 265.067H168.166C167.736 265.067 167.375 264.789 167.266 264.416C167.255 264.385 167.246 264.352 167.24 264.319C167.236 264.291 167.233 264.262 167.231 264.233C167.231 264.218 167.23 264.203 167.23 264.188V261.906C167.23 261.891 167.231 261.876 167.231 261.862C167.233 261.832 167.237 261.803 167.24 261.775C167.246 261.742 167.255 261.709 167.266 261.678C167.373 261.304 167.735 261.027 168.166 261.027H188.503C188.829 262.217 189.585 263.86 191.351 265.067Z" fill="#FFA412"/>
<path d="M207.335 261.027H206.843V265.067H207.335V261.027Z" fill="#FFA412"/>
<path d="M205.67 261.027H205.178V265.067H205.67V261.027Z" fill="#FFA412"/>
<path d="M203.674 261.027H203.182V265.067H203.674V261.027Z" fill="#FFA412"/>
<path d="M200.614 261.027H200.122V265.067H200.614V261.027Z" fill="#FFA412"/>
<path d="M197.378 261.027H196.886V265.067H197.378V261.027Z" fill="#FFA412"/>
<path d="M192.418 261.027H191.926V265.067H192.418V261.027Z" fill="#FFA412"/>
<path d="M187.77 261.027H187.278V265.067H187.77V261.027Z" fill="#FFA412"/>
<path d="M183.624 261.027H183.132V265.067H183.624V261.027Z" fill="#FFA412"/>
<path d="M208.92 261.027H208.428V265.067H208.92V261.027Z" fill="#FFA412"/>
<path d="M209.965 261.027H209.474V265.067H209.965V261.027Z" fill="#FFA412"/>
<path d="M210.978 261.027H210.486V265.067H210.978V261.027Z" fill="#FFA412"/>
<path d="M211.738 261.041V265.053C211.678 265.062 211.616 265.067 211.554 265.067H211.246V261.027H211.554C211.616 261.027 211.678 261.032 211.738 261.041Z" fill="#FFA412"/>
<path d="M212.421 261.417V264.68C212.302 264.828 212.131 264.943 211.93 265.009V261.088C212.131 261.152 212.303 261.269 212.421 261.417Z" fill="#FFA412"/>
<path d="M207.974 257.866V260.146C207.974 260.328 207.909 260.497 207.797 260.638C207.767 260.673 207.734 260.709 207.698 260.742C207.59 260.839 207.456 260.919 207.305 260.966C207.243 260.987 207.179 261.002 207.113 261.011C207.054 261.02 206.992 261.026 206.93 261.026H163.652C163.131 261.026 162.694 260.699 162.616 260.277C162.612 260.249 162.609 260.22 162.607 260.192C162.606 260.177 162.606 260.162 162.606 260.146V257.866C162.606 257.851 162.606 257.835 162.607 257.82C162.609 257.791 162.613 257.763 162.616 257.734C162.694 257.313 163.131 256.985 163.652 256.985H206.928C206.955 256.985 206.983 256.987 207.01 256.99C207.021 256.99 207.031 256.991 207.04 256.993C207.042 256.991 207.045 256.991 207.046 256.993C207.058 256.993 207.072 256.994 207.085 256.997C207.094 256.999 207.103 257 207.112 257.002C207.178 257.011 207.243 257.026 207.303 257.047C207.339 257.059 207.375 257.072 207.409 257.087H207.411C207.433 257.097 207.457 257.108 207.478 257.12C207.49 257.126 207.504 257.135 207.516 257.141C207.527 257.148 207.539 257.154 207.551 257.162C207.598 257.189 207.64 257.22 207.678 257.254C207.692 257.265 207.702 257.277 207.714 257.289C207.722 257.295 207.729 257.302 207.735 257.31C207.74 257.314 207.743 257.317 207.746 257.322L207.755 257.331C207.768 257.344 207.782 257.359 207.794 257.376C207.909 257.516 207.974 257.684 207.974 257.866Z" fill="#FFB93E"/>
<path d="M186.725 261.026H163.54C163.111 261.026 162.749 260.747 162.642 260.373C162.631 260.342 162.622 260.309 162.616 260.277C162.612 260.249 162.609 260.22 162.607 260.192C162.606 260.177 162.606 260.162 162.606 260.146V257.866C162.606 257.851 162.606 257.835 162.607 257.82C162.609 257.791 162.613 257.763 162.616 257.734C162.622 257.701 162.631 257.67 162.642 257.637C162.749 257.263 163.11 256.985 163.54 256.985H183.877C183.885 257.02 183.895 257.051 183.906 257.086C184.245 258.267 185.008 259.854 186.725 261.026Z" fill="#FFA412"/>
<path d="M202.709 256.986H202.217V261.026H202.709V256.986Z" fill="#FFA412"/>
<path d="M201.044 256.986H200.552V261.026H201.044V256.986Z" fill="#FFA412"/>
<path d="M199.048 256.986H198.556V261.026H199.048V256.986Z" fill="#FFA412"/>
<path d="M195.989 256.986H195.497V261.026H195.989V256.986Z" fill="#FFA412"/>
<path d="M192.752 256.986H192.26V261.026H192.752V256.986Z" fill="#FFA412"/>
<path d="M187.79 256.986H187.298V261.026H187.79V256.986Z" fill="#FFA412"/>
<path d="M183.144 256.986H182.653V261.026H183.144V256.986Z" fill="#FFA412"/>
<path d="M178.998 256.986H178.506V261.026H178.998V256.986Z" fill="#FFA412"/>
<path d="M204.294 256.986H203.803V261.026H204.294V256.986Z" fill="#FFA412"/>
<path d="M205.34 256.986H204.848V261.026H205.34V256.986Z" fill="#FFA412"/>
<path d="M206.352 256.986H205.86V261.026H206.352V256.986Z" fill="#FFA412"/>
<path d="M207.112 257V261.011C207.052 261.02 206.991 261.025 206.927 261.025H206.619V256.985H206.927C206.991 256.985 207.052 256.991 207.112 257Z" fill="#FFA412"/>
<path d="M207.796 257.374V260.637C207.676 260.785 207.506 260.902 207.304 260.966V257.045C207.506 257.111 207.676 257.226 207.796 257.374Z" fill="#FFA412"/>
<path d="M210.211 253.925V256.206C210.211 256.387 210.146 256.556 210.032 256.697C209.912 256.845 209.744 256.96 209.542 257.026C209.48 257.045 209.416 257.06 209.35 257.072C209.291 257.079 209.229 257.085 209.167 257.085H165.889C165.716 257.085 165.551 257.049 165.406 256.985C165.119 256.86 164.909 256.623 164.855 256.347C164.85 256.327 164.849 256.309 164.847 256.29C164.846 256.278 164.844 256.265 164.844 256.251C164.843 256.236 164.843 256.221 164.843 256.206V253.925C164.843 253.91 164.843 253.895 164.844 253.88C164.846 253.852 164.849 253.822 164.853 253.795C164.931 253.372 165.368 253.046 165.889 253.046H209.165C209.228 253.046 209.289 253.05 209.349 253.059C209.415 253.068 209.48 253.083 209.54 253.104C209.742 253.17 209.912 253.287 210.031 253.435C210.144 253.575 210.211 253.744 210.211 253.925Z" fill="#FFB93E"/>
<path d="M188.961 257.085H165.777C165.622 257.085 165.475 257.049 165.347 256.985C165.089 256.86 164.901 256.623 164.855 256.347C164.85 256.327 164.849 256.309 164.847 256.29C164.846 256.278 164.844 256.265 164.844 256.251C164.843 256.236 164.843 256.221 164.843 256.206V253.925C164.843 253.91 164.843 253.895 164.844 253.88C164.846 253.852 164.849 253.822 164.853 253.795C164.859 253.763 164.868 253.732 164.877 253.701C164.983 253.325 165.345 253.046 165.776 253.046H186.113C186.43 254.202 187.153 255.791 188.817 256.985C188.865 257.02 188.913 257.052 188.961 257.085Z" fill="#FFA412"/>
<path d="M204.947 253.046H204.455V257.085H204.947V253.046Z" fill="#FFA412"/>
<path d="M203.281 253.046H202.789V257.085H203.281V253.046Z" fill="#FFA412"/>
<path d="M201.284 253.046H200.792V257.085H201.284V253.046Z" fill="#FFA412"/>
<path d="M198.224 253.046H197.732V257.085H198.224V253.046Z" fill="#FFA412"/>
<path d="M194.989 253.046H194.497V257.085H194.989V253.046Z" fill="#FFA412"/>
<path d="M190.028 253.046H189.536V257.085H190.028V253.046Z" fill="#FFA412"/>
<path d="M185.382 253.046H184.891V257.085H185.382V253.046Z" fill="#FFA412"/>
<path d="M181.234 253.046H180.742V257.085H181.234V253.046Z" fill="#FFA412"/>
<path d="M206.531 253.046H206.039V257.085H206.531V253.046Z" fill="#FFA412"/>
<path d="M207.577 253.046H207.086V257.085H207.577V253.046Z" fill="#FFA412"/>
<path d="M208.588 253.046H208.096V257.085H208.588V253.046Z" fill="#FFA412"/>
<path d="M209.349 253.06V257.071C209.289 257.08 209.228 257.084 209.163 257.084H208.855V253.045H209.163C209.228 253.046 209.289 253.051 209.349 253.06Z" fill="#FFA412"/>
<path d="M210.031 253.433V256.697C209.912 256.845 209.741 256.962 209.539 257.026V253.104C209.741 253.17 209.912 253.287 210.031 253.433Z" fill="#FFA412"/>
<path d="M211.246 249.886V252.166C211.246 252.349 211.18 252.516 211.067 252.657C211.052 252.676 211.035 252.694 211.019 252.71C210.937 252.799 210.835 252.872 210.72 252.929C210.673 252.95 210.626 252.971 210.575 252.987C210.512 253.008 210.449 253.023 210.383 253.032C210.354 253.036 210.324 253.039 210.292 253.042C210.261 253.045 210.229 253.047 210.198 253.047H166.924C166.401 253.047 165.964 252.719 165.886 252.298C165.882 252.269 165.879 252.241 165.877 252.213V249.84C165.904 249.411 166.299 249.063 166.8 249.013C166.84 249.009 166.882 249.006 166.924 249.006H210.198C210.229 249.006 210.261 249.007 210.292 249.01C210.324 249.013 210.354 249.016 210.383 249.021C210.449 249.03 210.514 249.045 210.575 249.066C210.775 249.13 210.947 249.247 211.065 249.395C211.18 249.535 211.246 249.704 211.246 249.886Z" fill="#FFB93E"/>
<path d="M189.997 253.047H166.812C166.383 253.047 166.021 252.769 165.912 252.395C165.901 252.364 165.892 252.331 165.886 252.298C165.882 252.269 165.879 252.241 165.877 252.213V249.84C165.901 249.413 166.254 249.063 166.701 249.013C166.737 249.009 166.774 249.006 166.812 249.006H187.149C187.149 249.009 187.15 249.01 187.15 249.013C187.476 250.202 188.234 251.842 189.997 253.047Z" fill="#FFA412"/>
<path d="M205.98 249.006H205.488V253.045H205.98V249.006Z" fill="#FFA412"/>
<path d="M204.315 249.006H203.823V253.045H204.315V249.006Z" fill="#FFA412"/>
<path d="M202.32 249.006H201.828V253.045H202.32V249.006Z" fill="#FFA412"/>
<path d="M199.26 249.006H198.768V253.045H199.26V249.006Z" fill="#FFA412"/>
<path d="M196.023 249.006H195.531V253.045H196.023V249.006Z" fill="#FFA412"/>
<path d="M191.061 249.006H190.569V253.045H191.061V249.006Z" fill="#FFA412"/>
<path d="M186.416 249.006H185.924V253.045H186.416V249.006Z" fill="#FFA412"/>
<path d="M182.269 249.006H181.777V253.045H182.269V249.006Z" fill="#FFA412"/>
<path d="M207.566 249.006H207.074V253.045H207.566V249.006Z" fill="#FFA412"/>
<path d="M208.611 249.006H208.119V253.045H208.611V249.006Z" fill="#FFA412"/>
<path d="M209.623 249.006H209.132V253.045H209.623V249.006Z" fill="#FFA412"/>
<path d="M210.383 249.021V253.033C210.324 253.042 210.262 253.047 210.198 253.047H209.89V249.007H210.198C210.262 249.006 210.324 249.01 210.383 249.021Z" fill="#FFA412"/>
<path d="M211.067 249.395V252.659C210.947 252.807 210.777 252.923 210.575 252.988V249.066C210.777 249.131 210.949 249.247 211.067 249.395Z" fill="#FFA412"/>
<path d="M208.067 245.852V248.132C208.067 248.314 208.002 248.481 207.889 248.622C207.769 248.77 207.599 248.886 207.397 248.952C207.335 248.973 207.271 248.988 207.205 248.997C207.185 249.002 207.165 249.003 207.144 249.005H207.137C207.126 249.006 207.116 249.008 207.104 249.008C207.095 249.009 207.086 249.009 207.075 249.011C207.056 249.011 207.039 249.012 207.02 249.012H163.746C163.188 249.012 162.728 248.64 162.699 248.178C162.698 248.163 162.698 248.148 162.698 248.132V245.852C162.698 245.837 162.698 245.82 162.699 245.805C162.699 245.793 162.701 245.781 162.702 245.769C162.744 245.397 163.066 245.089 163.487 245C163.496 244.997 163.508 244.994 163.519 244.994C163.592 244.98 163.667 244.973 163.746 244.973H207.02C207.053 244.973 207.083 244.974 207.113 244.977C207.126 244.979 207.14 244.98 207.152 244.982C207.153 244.982 207.153 244.982 207.155 244.982H207.156C207.173 244.983 207.189 244.986 207.205 244.989C207.27 244.998 207.335 245.013 207.397 245.034C207.599 245.098 207.771 245.215 207.889 245.364C208.001 245.5 208.067 245.668 208.067 245.852Z" fill="#FFB93E"/>
<path d="M186.816 249.012H163.634C163.134 249.012 162.725 248.64 162.699 248.178C162.698 248.163 162.698 248.148 162.698 248.132V245.852C162.698 245.837 162.698 245.82 162.699 245.805C162.699 245.793 162.701 245.781 162.702 245.769C162.74 245.388 163.039 245.077 163.429 244.995C163.441 244.991 163.454 244.989 163.468 244.988C163.522 244.979 163.577 244.973 163.634 244.973H183.969C183.972 244.983 183.975 244.992 183.977 245.003C184.306 246.187 185.062 247.812 186.807 249.006C186.81 249.008 186.813 249.009 186.816 249.012Z" fill="#FFA412"/>
<path d="M202.801 244.972H202.309V249.011H202.801V244.972Z" fill="#FFA412"/>
<path d="M201.136 244.972H200.644V249.011H201.136V244.972Z" fill="#FFA412"/>
<path d="M199.14 244.972H198.648V249.011H199.14V244.972Z" fill="#FFA412"/>
<path d="M196.078 244.972H195.586V249.011H196.078V244.972Z" fill="#FFA412"/>
<path d="M192.844 244.972H192.352V249.011H192.844V244.972Z" fill="#FFA412"/>
<path d="M187.882 244.972H187.39V249.011H187.882V244.972Z" fill="#FFA412"/>
<path d="M183.236 244.972H182.745V249.011H183.236V244.972Z" fill="#FFA412"/>
<path d="M179.09 244.972H178.598V249.011H179.09V244.972Z" fill="#FFA412"/>
<path d="M204.386 244.972H203.895V249.011H204.386V244.972Z" fill="#FFA412"/>
<path d="M205.432 244.972H204.94V249.011H205.432V244.972Z" fill="#FFA412"/>
<path d="M206.443 244.972H205.951V249.011H206.443V244.972Z" fill="#FFA412"/>
<path d="M207.204 244.985V248.998C207.144 249.007 207.083 249.011 207.019 249.011H206.711V244.972H207.019C207.083 244.972 207.144 244.976 207.204 244.985Z" fill="#FFA412"/>
<path d="M207.888 245.36V248.624C207.768 248.772 207.598 248.888 207.396 248.953V245.031C207.598 245.096 207.768 245.212 207.888 245.36Z" fill="#FFA412"/>
<path d="M207.974 241.84V244.12C207.974 244.302 207.908 244.47 207.796 244.61C207.766 244.646 207.733 244.682 207.697 244.716C207.59 244.813 207.455 244.893 207.304 244.941C207.255 244.957 207.206 244.969 207.156 244.978H207.155C207.153 244.978 207.153 244.978 207.152 244.978C207.138 244.981 207.126 244.984 207.113 244.985C207.053 244.994 206.992 245 206.929 245H163.652C163.607 245 163.561 244.997 163.517 244.993C163.499 244.991 163.483 244.988 163.466 244.987C163.025 244.92 162.679 244.618 162.616 244.244C162.611 244.218 162.61 244.195 162.608 244.168C162.607 244.151 162.607 244.136 162.607 244.121V241.841C162.607 241.825 162.607 241.81 162.608 241.795C162.61 241.767 162.614 241.738 162.617 241.71C162.695 241.288 163.132 240.961 163.653 240.961H206.929C206.956 240.961 206.984 240.962 207.011 240.964C207.016 240.964 207.019 240.965 207.022 240.965C207.029 240.967 207.038 240.967 207.046 240.967C207.058 240.968 207.071 240.97 207.085 240.973C207.093 240.973 207.102 240.974 207.111 240.977C207.177 240.986 207.243 241.001 207.303 241.022C207.339 241.034 207.375 241.048 207.409 241.063H207.41C207.545 241.122 207.663 241.206 207.757 241.306C207.771 241.321 207.784 241.336 207.796 241.351C207.908 241.489 207.974 241.658 207.974 241.84Z" fill="#FFB93E"/>
<path d="M186.725 245.002H163.54C163.522 245.002 163.504 245.001 163.486 245.001C163.465 244.999 163.446 244.996 163.427 244.995C163.008 244.946 162.672 244.635 162.615 244.243C162.61 244.217 162.609 244.194 162.607 244.167C162.606 244.15 162.606 244.135 162.606 244.12V241.841C162.606 241.824 162.606 241.809 162.607 241.794C162.609 241.766 162.613 241.737 162.616 241.709C162.622 241.676 162.631 241.645 162.642 241.613C162.749 241.24 163.11 240.96 163.54 240.96H183.877C183.885 240.994 183.895 241.026 183.906 241.06C184.242 242.231 184.996 243.802 186.682 244.971C186.697 244.983 186.712 244.992 186.725 245.002Z" fill="#FFA412"/>
<path d="M202.709 240.962H202.217V245.001H202.709V240.962Z" fill="#FFA412"/>
<path d="M201.044 240.962H200.552V245.001H201.044V240.962Z" fill="#FFA412"/>
<path d="M199.048 240.962H198.556V245.001H199.048V240.962Z" fill="#FFA412"/>
<path d="M195.989 240.962H195.497V245.001H195.989V240.962Z" fill="#FFA412"/>
<path d="M192.752 240.962H192.26V245.001H192.752V240.962Z" fill="#FFA412"/>
<path d="M187.79 240.962H187.298V245.001H187.79V240.962Z" fill="#FFA412"/>
<path d="M183.144 240.962H182.653V245.001H183.144V240.962Z" fill="#FFA412"/>
<path d="M178.998 240.961H178.506V245H178.998V240.961Z" fill="#FFA412"/>
<path d="M204.294 240.962H203.803V245.001H204.294V240.962Z" fill="#FFA412"/>
<path d="M205.34 240.962H204.848V245.001H205.34V240.962Z" fill="#FFA412"/>
<path d="M206.352 240.962H205.86V245.001H206.352V240.962Z" fill="#FFA412"/>
<path d="M207.112 240.975V244.986C207.052 244.995 206.991 244.999 206.927 244.999H206.619V240.96H206.927C206.991 240.961 207.052 240.966 207.112 240.975Z" fill="#FFA412"/>
<path d="M207.796 241.349V244.613C207.676 244.761 207.506 244.878 207.304 244.942V241.021C207.506 241.085 207.676 241.201 207.796 241.349Z" fill="#FFA412"/>
<path d="M210.211 237.9V240.181C210.211 240.364 210.146 240.533 210.032 240.673C209.912 240.821 209.744 240.936 209.542 241.002C209.48 241.023 209.416 241.037 209.35 241.047C209.291 241.056 209.229 241.062 209.167 241.062H165.889C165.716 241.062 165.551 241.026 165.406 240.962C165.119 240.836 164.909 240.6 164.855 240.323C164.85 240.304 164.849 240.286 164.847 240.267C164.846 240.253 164.844 240.241 164.844 240.228C164.843 240.213 164.843 240.198 164.843 240.181V237.9C164.843 237.885 164.843 237.869 164.844 237.854C164.846 237.825 164.849 237.797 164.853 237.769C164.931 237.347 165.368 237.02 165.889 237.02H209.165C209.228 237.02 209.289 237.026 209.349 237.034C209.415 237.043 209.48 237.058 209.54 237.079C209.742 237.144 209.912 237.26 210.031 237.41C210.144 237.55 210.211 237.718 210.211 237.9Z" fill="#FFB93E"/>
<path d="M188.961 241.062H165.777C165.622 241.062 165.475 241.026 165.347 240.962C165.089 240.836 164.901 240.6 164.855 240.323C164.85 240.304 164.849 240.286 164.847 240.267C164.846 240.253 164.844 240.241 164.844 240.228C164.843 240.213 164.843 240.198 164.843 240.181V237.9C164.843 237.885 164.843 237.869 164.844 237.854C164.846 237.825 164.849 237.797 164.853 237.769C164.859 237.737 164.868 237.706 164.877 237.674C164.983 237.299 165.345 237.02 165.776 237.02H186.113C186.43 238.177 187.153 239.766 188.817 240.96C188.865 240.995 188.913 241.028 188.961 241.062Z" fill="#FFA412"/>
<path d="M204.947 237.021H204.455V241.06H204.947V237.021Z" fill="#FFA412"/>
<path d="M203.281 237.021H202.789V241.06H203.281V237.021Z" fill="#FFA412"/>
<path d="M201.284 237.021H200.792V241.06H201.284V237.021Z" fill="#FFA412"/>
<path d="M198.224 237.021H197.732V241.06H198.224V237.021Z" fill="#FFA412"/>
<path d="M194.989 237.021H194.497V241.06H194.989V237.021Z" fill="#FFA412"/>
<path d="M190.028 237.021H189.536V241.06H190.028V237.021Z" fill="#FFA412"/>
<path d="M185.382 237.021H184.891V241.06H185.382V237.021Z" fill="#FFA412"/>
<path d="M181.234 237.021H180.742V241.06H181.234V237.021Z" fill="#FFA412"/>
<path d="M206.531 237.021H206.039V241.06H206.531V237.021Z" fill="#FFA412"/>
<path d="M207.577 237.021H207.086V241.06H207.577V237.021Z" fill="#FFA412"/>
<path d="M208.588 237.021H208.096V241.06H208.588V237.021Z" fill="#FFA412"/>
<path d="M209.349 237.035V241.046C209.289 241.055 209.228 241.06 209.163 241.06H208.855V237.021H209.163C209.228 237.021 209.289 237.025 209.349 237.035Z" fill="#FFA412"/>
<path d="M210.031 237.409V240.672C209.912 240.82 209.741 240.937 209.539 241.001V237.08C209.741 237.144 209.912 237.261 210.031 237.409Z" fill="#FFA412"/>
<path d="M213.746 233.86V236.141C213.746 236.322 213.681 236.489 213.568 236.63L213.567 236.631C213.552 236.651 213.536 236.667 213.519 236.685C213.453 236.755 213.376 236.817 213.287 236.866C213.244 236.89 213.198 236.914 213.15 236.932C213.148 236.932 213.148 236.933 213.148 236.933C213.126 236.942 213.101 236.953 213.075 236.96C213.014 236.981 212.95 236.996 212.884 237.005C212.824 237.014 212.763 237.018 212.7 237.018H169.424C168.902 237.018 168.466 236.692 168.388 236.271C168.382 236.242 168.381 236.214 168.379 236.184C168.378 236.169 168.378 236.154 168.378 236.139V233.858C168.378 233.843 168.378 233.828 168.379 233.813C168.405 233.386 168.799 233.036 169.302 232.986C169.342 232.98 169.382 232.98 169.424 232.98H212.7C212.763 232.98 212.824 232.986 212.884 232.994C212.95 233.004 213.015 233.019 213.075 233.04C213.252 233.097 213.403 233.193 213.519 233.315C213.536 233.333 213.552 233.351 213.567 233.369L213.568 233.371C213.681 233.51 213.746 233.677 213.746 233.86Z" fill="#FFB93E"/>
<path d="M192.497 237.019H169.312C168.881 237.019 168.518 236.74 168.413 236.366C168.403 236.335 168.395 236.305 168.389 236.272C168.383 236.243 168.382 236.215 168.38 236.185C168.379 236.17 168.379 236.155 168.379 236.14V233.859C168.379 233.844 168.379 233.829 168.38 233.814C168.403 233.387 168.755 233.037 169.202 232.987C169.238 232.981 169.276 232.981 169.313 232.981H189.65C189.65 232.983 189.652 232.986 189.652 232.987C189.976 234.174 190.734 235.816 192.497 237.019Z" fill="#FFA412"/>
<path d="M208.48 232.98H207.989V237.02H208.48V232.98Z" fill="#FFA412"/>
<path d="M206.817 232.98H206.325V237.02H206.817V232.98Z" fill="#FFA412"/>
<path d="M204.82 232.98H204.328V237.02H204.82V232.98Z" fill="#FFA412"/>
<path d="M201.76 232.98H201.268V237.02H201.76V232.98Z" fill="#FFA412"/>
<path d="M198.524 232.98H198.032V237.02H198.524V232.98Z" fill="#FFA412"/>
<path d="M193.563 232.98H193.071V237.02H193.563V232.98Z" fill="#FFA412"/>
<path d="M188.919 232.98H188.427V237.02H188.919V232.98Z" fill="#FFA412"/>
<path d="M184.77 232.98H184.278V237.02H184.77V232.98Z" fill="#FFA412"/>
<path d="M210.066 232.98H209.574V237.02H210.066V232.98Z" fill="#FFA412"/>
<path d="M211.114 232.98H210.622V237.02H211.114V232.98Z" fill="#FFA412"/>
<path d="M212.124 232.98H211.632V237.02H212.124V232.98Z" fill="#FFA412"/>
<path d="M212.886 232.994V237.006C212.826 237.015 212.765 237.02 212.702 237.02H212.394V232.98H212.702C212.763 232.98 212.824 232.985 212.886 232.994Z" fill="#FFA412"/>
<path d="M213.567 233.369V236.632C213.448 236.78 213.277 236.897 213.075 236.961V233.04C213.276 233.104 213.448 233.221 213.567 233.369Z" fill="#FFA412"/>
<path d="M208.067 229.826V232.107C208.067 232.29 208.002 232.457 207.889 232.598C207.769 232.747 207.599 232.862 207.397 232.928C207.335 232.949 207.271 232.964 207.205 232.973C207.185 232.976 207.165 232.979 207.144 232.98H207.137C207.123 232.983 207.11 232.983 207.096 232.985C207.089 232.985 207.08 232.986 207.072 232.986C207.054 232.986 207.038 232.988 207.022 232.988H163.746C163.371 232.988 163.039 232.82 162.855 232.569C162.764 232.448 162.708 232.306 162.699 232.154C162.698 232.137 162.698 232.122 162.698 232.107V229.826C162.698 229.809 162.698 229.794 162.699 229.779C162.722 229.406 163.03 229.09 163.441 228.984C163.537 228.959 163.64 228.945 163.746 228.945H207.02C207.039 228.945 207.056 228.947 207.075 228.947C207.084 228.947 207.095 228.948 207.102 228.95C207.137 228.951 207.171 228.956 207.205 228.96C207.27 228.969 207.335 228.984 207.397 229.005C207.428 229.014 207.458 229.026 207.486 229.039H207.488C207.603 229.087 207.706 229.152 207.791 229.231C207.793 229.232 207.794 229.234 207.796 229.237C207.8 229.241 207.803 229.243 207.808 229.247C207.838 229.274 207.865 229.304 207.89 229.335C208.001 229.475 208.067 229.643 208.067 229.826Z" fill="#FFB93E"/>
<path d="M186.816 232.987H163.634C163.308 232.987 163.019 232.827 162.852 232.588C162.762 232.461 162.707 232.312 162.699 232.153C162.698 232.136 162.698 232.121 162.698 232.106V229.825C162.698 229.808 162.698 229.793 162.699 229.779C162.722 229.376 163.034 229.043 163.444 228.964C163.505 228.952 163.568 228.944 163.634 228.944H183.969C183.977 228.976 183.987 229.007 183.996 229.037C184.333 230.217 185.094 231.803 186.807 232.978C186.81 232.982 186.813 232.984 186.816 232.987Z" fill="#FFA412"/>
<path d="M202.801 228.947H202.309V232.987H202.801V228.947Z" fill="#FFA412"/>
<path d="M201.136 228.947H200.644V232.987H201.136V228.947Z" fill="#FFA412"/>
<path d="M199.14 228.947H198.648V232.987H199.14V228.947Z" fill="#FFA412"/>
<path d="M196.078 228.947H195.586V232.987H196.078V228.947Z" fill="#FFA412"/>
<path d="M192.844 228.947H192.352V232.987H192.844V228.947Z" fill="#FFA412"/>
<path d="M187.882 228.947H187.39V232.987H187.882V228.947Z" fill="#FFA412"/>
<path d="M183.236 228.947H182.745V232.987H183.236V228.947Z" fill="#FFA412"/>
<path d="M179.09 228.947H178.598V232.987H179.09V228.947Z" fill="#FFA412"/>
<path d="M204.386 228.947H203.895V232.987H204.386V228.947Z" fill="#FFA412"/>
<path d="M205.432 228.947H204.94V232.987H205.432V228.947Z" fill="#FFA412"/>
<path d="M206.443 228.947H205.951V232.987H206.443V228.947Z" fill="#FFA412"/>
<path d="M207.204 228.961V232.973C207.144 232.982 207.083 232.987 207.019 232.987H206.711V228.947H207.019C207.083 228.946 207.144 228.952 207.204 228.961Z" fill="#FFA412"/>
<path d="M207.888 229.334V232.597C207.768 232.745 207.598 232.862 207.396 232.926V229.005C207.598 229.071 207.768 229.186 207.888 229.334Z" fill="#FFA412"/>
<path d="M211.248 225.88V228.161C211.248 228.343 211.182 228.511 211.068 228.651C210.949 228.799 210.778 228.916 210.576 228.98C210.515 229.001 210.451 229.016 210.385 229.025C210.325 229.034 210.264 229.038 210.2 229.038H166.925C166.758 229.038 166.598 229.006 166.457 228.944C166.142 228.811 165.916 228.548 165.882 228.24C165.88 228.228 165.879 228.216 165.879 228.204C165.879 228.189 165.877 228.174 165.877 228.159V225.878C165.877 225.863 165.877 225.848 165.879 225.833C165.904 225.406 166.3 225.056 166.801 225.005C166.842 225.001 166.883 224.999 166.925 224.999H210.2C210.262 224.999 210.324 225.004 210.385 225.012C210.451 225.023 210.515 225.038 210.576 225.057C210.777 225.123 210.949 225.238 211.068 225.386C211.182 225.528 211.248 225.697 211.248 225.88Z" fill="#FFB93E"/>
<path d="M189.998 229.039H166.813C166.663 229.039 166.521 229.007 166.396 228.945C166.113 228.812 165.913 228.549 165.883 228.241C165.881 228.229 165.88 228.217 165.88 228.205C165.88 228.19 165.878 228.175 165.878 228.16V225.879C165.878 225.864 165.878 225.849 165.88 225.834C165.902 225.407 166.257 225.057 166.704 225.006C166.74 225.001 166.777 225 166.814 225H187.152C187.152 225.001 187.153 225.004 187.153 225.006C187.47 226.165 188.198 227.752 189.865 228.947C189.908 228.978 189.952 229.008 189.998 229.039Z" fill="#FFA412"/>
<path d="M205.983 225H205.491V229.039H205.983V225Z" fill="#FFA412"/>
<path d="M204.318 225H203.826V229.039H204.318V225Z" fill="#FFA412"/>
<path d="M202.322 225H201.83V229.039H202.322V225Z" fill="#FFA412"/>
<path d="M199.262 225H198.771V229.039H199.262V225Z" fill="#FFA412"/>
<path d="M196.026 225H195.534V229.039H196.026V225Z" fill="#FFA412"/>
<path d="M191.064 225H190.572V229.039H191.064V225Z" fill="#FFA412"/>
<path d="M186.418 225H185.927V229.039H186.418V225Z" fill="#FFA412"/>
<path d="M182.272 225H181.78V229.039H182.272V225Z" fill="#FFA412"/>
<path d="M207.568 225H207.077V229.039H207.568V225Z" fill="#FFA412"/>
<path d="M208.614 225H208.122V229.039H208.614V225Z" fill="#FFA412"/>
<path d="M209.626 225H209.134V229.039H209.626V225Z" fill="#FFA412"/>
<path d="M210.386 225.014V229.025C210.326 229.034 210.265 229.038 210.201 229.038H209.893V224.999H210.201C210.265 224.999 210.326 225.005 210.386 225.014Z" fill="#FFA412"/>
<path d="M211.07 225.387V228.651C210.95 228.799 210.78 228.916 210.578 228.98V225.059C210.78 225.124 210.951 225.239 211.07 225.387Z" fill="#FFA412"/>
<path d="M212.6 221.845V224.127C212.6 224.309 212.534 224.477 212.42 224.617C212.301 224.765 212.13 224.882 211.929 224.946C211.867 224.967 211.803 224.982 211.737 224.991C211.716 224.994 211.697 224.997 211.676 224.998C211.666 225 211.654 225 211.642 225.001C211.631 225.003 211.619 225.003 211.607 225.003C211.589 225.004 211.57 225.004 211.552 225.004H168.278C167.72 225.004 167.26 224.633 167.231 224.17C167.231 224.155 167.23 224.14 167.23 224.125V221.844C167.23 221.829 167.23 221.814 167.231 221.799C167.26 221.337 167.719 220.965 168.278 220.965H211.552C211.615 220.965 211.676 220.969 211.737 220.978C211.803 220.989 211.867 221.004 211.929 221.023C212.129 221.089 212.301 221.204 212.42 221.352C212.534 221.496 212.6 221.664 212.6 221.845Z" fill="#FFB93E"/>
<path d="M191.351 225.007H168.166C167.668 225.007 167.258 224.636 167.231 224.173C167.231 224.158 167.23 224.143 167.23 224.128V221.847C167.23 221.832 167.23 221.817 167.231 221.802C167.257 221.34 167.668 220.968 168.166 220.968H188.503C188.827 222.155 189.582 223.796 191.34 225.001C191.343 225.003 191.348 225.004 191.351 225.007Z" fill="#FFA412"/>
<path d="M207.335 220.966H206.843V225.005H207.335V220.966Z" fill="#FFA412"/>
<path d="M205.67 220.966H205.178V225.005H205.67V220.966Z" fill="#FFA412"/>
<path d="M203.674 220.966H203.182V225.005H203.674V220.966Z" fill="#FFA412"/>
<path d="M200.614 220.966H200.122V225.005H200.614V220.966Z" fill="#FFA412"/>
<path d="M197.378 220.966H196.886V225.005H197.378V220.966Z" fill="#FFA412"/>
<path d="M192.418 220.966H191.926V225.005H192.418V220.966Z" fill="#FFA412"/>
<path d="M187.77 220.966H187.278V225.005H187.77V220.966Z" fill="#FFA412"/>
<path d="M183.624 220.966H183.132V225.005H183.624V220.966Z" fill="#FFA412"/>
<path d="M208.92 220.966H208.428V225.005H208.92V220.966Z" fill="#FFA412"/>
<path d="M209.965 220.966H209.474V225.005H209.965V220.966Z" fill="#FFA412"/>
<path d="M210.978 220.966H210.486V225.005H210.978V220.966Z" fill="#FFA412"/>
<path d="M211.738 220.98V224.993C211.678 225.002 211.616 225.006 211.554 225.006H211.246V220.967H211.554C211.616 220.966 211.678 220.972 211.738 220.98Z" fill="#FFA412"/>
<path d="M212.421 221.355V224.619C212.302 224.767 212.131 224.883 211.93 224.948V221.026C212.131 221.092 212.303 221.207 212.421 221.355Z" fill="#FFA412"/>
<path opacity="0.5" d="M182.595 244.972C182.593 244.983 182.593 244.993 182.592 245.002C182.516 246.358 182.299 247.699 181.943 249.006C181.943 249.007 181.941 249.01 181.941 249.013C181.891 249.203 181.835 249.392 181.779 249.58C181.417 250.773 180.938 251.933 180.352 253.047C179.615 254.446 178.708 255.771 177.633 256.986C177.605 257.02 177.575 257.053 177.545 257.086C176.204 258.589 174.613 259.922 172.791 261.027C172.407 261.26 172.014 261.484 171.61 261.697C171.336 261.84 171.063 261.975 170.786 262.106C170.523 262.259 170.243 262.39 169.982 262.552C169.219 263.018 168.267 263.389 167.233 263.684V261.907C167.233 261.893 167.234 261.878 167.234 261.863C167.236 261.833 167.24 261.804 167.243 261.776C167.249 261.743 167.258 261.71 167.269 261.679C167.376 261.305 167.738 261.028 168.169 261.028H163.542C163.113 261.028 162.751 260.749 162.643 260.375C162.633 260.344 162.624 260.311 162.618 260.279C162.613 260.251 162.61 260.223 162.609 260.194C162.607 260.179 162.607 260.164 162.607 260.148V257.868C162.607 257.853 162.607 257.837 162.609 257.822C162.61 257.793 162.615 257.765 162.618 257.737C162.624 257.704 162.633 257.672 162.643 257.639C162.751 257.266 163.111 256.988 163.542 256.988H165.348C165.09 256.862 164.902 256.626 164.856 256.349C164.851 256.33 164.85 256.312 164.848 256.292C164.847 256.28 164.845 256.267 164.845 256.253C164.844 256.239 164.844 256.224 164.844 256.209V253.927C164.844 253.912 164.844 253.897 164.845 253.882C164.847 253.854 164.85 253.824 164.854 253.797C164.86 253.766 164.869 253.734 164.878 253.703C164.984 253.328 165.346 253.048 165.777 253.048H166.814C166.385 253.048 166.023 252.77 165.914 252.396C165.904 252.365 165.895 252.332 165.889 252.299C165.884 252.271 165.881 252.243 165.88 252.214V249.842C165.904 249.414 166.256 249.064 166.703 249.015H163.633C163.134 249.015 162.724 248.643 162.698 248.181C162.697 248.166 162.697 248.151 162.697 248.134V245.854C162.697 245.84 162.697 245.823 162.698 245.808C162.698 245.796 162.7 245.784 162.701 245.772C162.739 245.391 163.038 245.08 163.428 244.998C163.009 244.949 162.673 244.638 162.616 244.246C162.612 244.22 162.61 244.197 162.609 244.17C162.607 244.153 162.607 244.138 162.607 244.123V241.843C162.607 241.827 162.607 241.812 162.609 241.797C162.61 241.769 162.615 241.74 162.618 241.712C162.624 241.679 162.633 241.648 162.643 241.616C162.751 241.243 163.111 240.963 163.542 240.963H165.348C165.09 240.837 164.902 240.601 164.856 240.325C164.851 240.305 164.85 240.287 164.848 240.268C164.847 240.254 164.845 240.242 164.845 240.229C164.844 240.214 164.844 240.199 164.844 240.183V237.901C164.844 237.886 164.844 237.87 164.845 237.855C164.847 237.826 164.85 237.798 164.854 237.77C164.86 237.738 164.869 237.707 164.878 237.676C164.984 237.3 165.346 237.021 165.777 237.021H169.314C168.883 237.021 168.52 236.741 168.415 236.367C168.405 236.336 168.397 236.306 168.391 236.273C168.385 236.245 168.384 236.216 168.382 236.187C168.381 236.172 168.381 236.157 168.381 236.142V233.86C168.381 233.845 168.381 233.83 168.382 233.815C168.405 233.388 168.758 233.038 169.205 232.989H163.634C163.308 232.989 163.02 232.829 162.852 232.59L162.855 232.569L163.441 228.987L163.444 228.966L164.28 223.854C165.249 223.985 166.207 224.177 167.147 224.432C167.203 224.446 167.257 224.461 167.312 224.476C167.315 224.478 167.318 224.479 167.322 224.481C167.87 224.633 168.411 224.807 168.943 225.001C168.949 225.003 168.952 225.004 168.958 225.007C171.41 225.901 173.695 227.227 175.676 228.948C175.712 228.978 175.746 229.009 175.781 229.041C176.811 229.945 177.757 230.959 178.599 232.075C178.768 232.297 178.931 232.522 179.089 232.753C179.141 232.829 179.195 232.904 179.245 232.981C179.248 232.983 179.249 232.986 179.249 232.987C179.505 233.364 179.747 233.751 179.977 234.149C180.52 235.086 180.974 236.046 181.346 237.021C181.843 238.314 182.19 239.634 182.396 240.961C182.403 240.996 182.406 241.027 182.412 241.062C182.605 242.365 182.665 243.676 182.595 244.972Z" fill="#E2810E"/>
<path d="M158.227 264.093C169.945 263.16 178.688 252.903 177.755 241.184C176.821 229.465 166.565 220.722 154.846 221.656C143.128 222.589 134.385 232.846 135.318 244.564C136.251 256.283 146.508 265.027 158.227 264.093Z" fill="#E2810E"/>
<path d="M165.985 261.961C165.723 262.121 165.455 262.276 165.185 262.426C165.094 262.477 165.001 262.526 164.91 262.574C164.701 262.686 164.49 262.794 164.279 262.898C154.143 267.877 141.778 264.055 136.268 254.06C131.012 244.525 133.837 232.716 142.462 226.515C143.149 226.02 143.873 225.561 144.634 225.143C144.906 224.992 145.182 224.848 145.458 224.712C145.725 224.579 145.997 224.451 146.269 224.33C147.102 223.959 147.95 223.645 148.805 223.389C150.075 223.007 151.366 222.748 152.659 222.612C156.668 222.187 160.703 222.92 164.279 224.669C168.075 226.524 171.356 229.526 173.551 233.507C179.076 243.532 175.67 256.069 165.985 261.961Z" fill="#FFB93E"/>
<path d="M155.056 263.085C153.276 263.085 151.486 262.834 149.73 262.326C144.835 260.91 140.787 257.673 138.326 253.212C135.867 248.751 135.292 243.598 136.707 238.705C138.123 233.811 141.36 229.762 145.821 227.303C155.031 222.226 166.654 225.588 171.731 234.799C176.808 244.009 173.446 255.633 164.235 260.71C161.378 262.282 158.235 263.085 155.056 263.085ZM154.998 225.448C151.971 225.448 148.903 226.189 146.07 227.75C141.729 230.144 138.581 234.083 137.202 238.846C135.825 243.607 136.384 248.621 138.776 252.961C141.17 257.303 145.11 260.453 149.872 261.829C154.633 263.206 159.647 262.647 163.989 260.255C172.949 255.316 176.222 244.005 171.282 235.044C167.904 228.916 161.546 225.448 154.998 225.448Z" fill="#FFA412"/>
<path d="M164.41 245.856C164.368 245.751 164.324 245.65 164.279 245.55C163.933 244.79 163.503 244.176 162.987 243.705C162.404 243.173 161.727 242.775 160.956 242.509C160.184 242.243 159.323 242.081 158.374 242.023C157.423 241.965 156.39 241.951 155.272 241.983C154.581 242.004 153.991 241.992 153.5 241.947C153.011 241.902 152.594 241.811 152.253 241.675C151.911 241.537 151.635 241.349 151.421 241.111C151.207 240.873 151.032 240.582 150.892 240.239C150.751 239.896 150.672 239.555 150.651 239.217C150.63 238.879 150.681 238.559 150.802 238.254C150.923 237.951 151.12 237.67 151.395 237.412C151.669 237.155 152.031 236.934 152.481 236.752C153.31 236.414 154.086 236.423 154.805 236.774C155.524 237.127 156.11 237.859 156.563 238.975L160.9 237.214C160.522 236.285 160.05 235.5 159.48 234.859C158.912 234.219 158.271 233.724 157.558 233.375C156.844 233.026 156.069 232.821 155.228 232.762C154.39 232.702 153.517 232.792 152.611 233.029L151.382 230.005L148.981 230.98L150.192 233.962C149.326 234.412 148.591 234.934 147.988 235.53C147.386 236.127 146.922 236.773 146.6 237.466C146.275 238.161 146.106 238.891 146.09 239.655C146.073 240.419 146.226 241.196 146.547 241.986C146.916 242.896 147.393 243.618 147.976 244.149C148.559 244.68 149.237 245.077 150.007 245.337C150.776 245.599 151.638 245.754 152.59 245.805C153.542 245.856 154.58 245.856 155.699 245.802C156.348 245.765 156.913 245.769 157.39 245.814C157.868 245.858 158.281 245.95 158.629 246.089C158.978 246.23 159.266 246.426 159.498 246.678C159.728 246.931 159.924 247.252 160.082 247.643C160.223 247.986 160.292 248.329 160.29 248.671C160.289 249.013 160.213 249.339 160.059 249.65C159.906 249.961 159.676 250.25 159.369 250.514C159.063 250.779 158.676 251.006 158.205 251.198C157.795 251.364 157.371 251.474 156.933 251.528C156.493 251.582 156.066 251.538 155.648 251.399C155.231 251.26 154.84 251.008 154.476 250.641C154.112 250.277 153.796 249.762 153.529 249.103L149.193 250.864C149.645 251.979 150.214 252.863 150.899 253.516C151.584 254.17 152.333 254.638 153.146 254.917C153.959 255.198 154.81 255.322 155.698 255.285C156.586 255.249 157.463 255.104 158.327 254.85L159.447 257.61L161.833 256.641L160.707 253.868C161.573 253.418 162.316 252.9 162.933 252.313C163.506 251.77 163.953 251.186 164.277 250.558C164.304 250.507 164.33 250.456 164.354 250.405C164.681 249.721 164.856 248.995 164.877 248.229C164.898 247.466 164.742 246.674 164.41 245.856Z" fill="#FFA412"/>
<path d="M198.908 168.418H124.495V169.493H198.908V168.418Z" fill="#CCD8FF"/>
<path d="M199.67 169.493H123.732V170.568H199.67V169.493Z" fill="#A9BAFF"/>
<path d="M200.717 170.569H122.685V171.644H200.717V170.569Z" fill="#8C9DF4"/>
<path d="M195.821 127.304H126.229V168.418H195.821V127.304Z" fill="#8C9DF4"/>
<path d="M200.547 128.088H122.103L162.037 107.845L200.547 128.088Z" fill="#CCD8FF"/>
<path d="M134.01 125.385L188.64 125.27L162.01 111.424L134.01 125.385Z" fill="#6F84DD"/>
<path d="M198.881 128.088H124.15V129.821H198.881V128.088Z" fill="#8C9DF4"/>
<path d="M137.061 127.304H129.699V129.96H137.061V127.304Z" fill="#CCD8FF"/>
<path d="M135.409 129.96H131.352V168.418H135.409V129.96Z" fill="#CCD8FF"/>
<path d="M152.966 127.304H145.605V129.96H152.966V127.304Z" fill="#CCD8FF"/>
<path d="M151.314 129.961H147.257V168.419H151.314V129.961Z" fill="#CCD8FF"/>
<path d="M177.969 127.304H170.608V129.96H177.969V127.304Z" fill="#CCD8FF"/>
<path d="M176.318 129.96H172.26V168.418H176.318V129.96Z" fill="#CCD8FF"/>
<path d="M192.946 127.304H185.585V129.96H192.946V127.304Z" fill="#CCD8FF"/>
<path d="M191.294 129.96H187.237V168.418H191.294V129.96Z" fill="#CCD8FF"/>
<path d="M162.9 120.205C162.901 120.081 162.886 119.972 162.852 119.877C162.819 119.783 162.762 119.697 162.685 119.619C162.607 119.541 162.505 119.469 162.381 119.402C162.257 119.335 162.105 119.27 161.925 119.205C161.616 119.091 161.336 118.973 161.084 118.85C160.831 118.728 160.617 118.587 160.438 118.427C160.26 118.269 160.122 118.083 160.025 117.874C159.928 117.663 159.882 117.414 159.886 117.125C159.889 116.876 159.937 116.647 160.03 116.442C160.121 116.237 160.251 116.059 160.418 115.908C160.586 115.757 160.785 115.636 161.016 115.543C161.248 115.451 161.507 115.394 161.792 115.372L161.806 114.427L162.567 114.437L162.553 115.395C162.825 115.434 163.072 115.511 163.292 115.623C163.511 115.735 163.698 115.878 163.851 116.055C164.003 116.231 164.12 116.437 164.2 116.677C164.281 116.914 164.319 117.182 164.316 117.476L162.942 117.457C162.946 117.104 162.873 116.838 162.718 116.66C162.564 116.482 162.354 116.393 162.091 116.388C161.949 116.387 161.825 116.405 161.722 116.442C161.619 116.481 161.532 116.533 161.465 116.602C161.397 116.671 161.347 116.751 161.314 116.846C161.281 116.94 161.263 117.041 161.261 117.149C161.26 117.258 161.275 117.357 161.305 117.445C161.335 117.533 161.389 117.617 161.465 117.693C161.541 117.77 161.643 117.841 161.771 117.91C161.898 117.979 162.057 118.049 162.247 118.122C162.552 118.242 162.831 118.363 163.081 118.487C163.33 118.611 163.546 118.753 163.724 118.915C163.902 119.075 164.039 119.26 164.136 119.471C164.233 119.682 164.28 119.93 164.275 120.215C164.271 120.474 164.223 120.707 164.13 120.91C164.038 121.115 163.906 121.292 163.74 121.44C163.573 121.588 163.372 121.706 163.138 121.794C162.903 121.882 162.643 121.937 162.357 121.96L162.344 122.839L161.587 122.828L161.601 121.954C161.338 121.924 161.085 121.863 160.84 121.77C160.596 121.679 160.379 121.547 160.191 121.378C160.003 121.209 159.855 120.997 159.744 120.743C159.633 120.489 159.581 120.184 159.586 119.831L160.959 119.851C160.956 120.06 160.983 120.235 161.04 120.375C161.097 120.516 161.173 120.629 161.27 120.715C161.368 120.8 161.478 120.861 161.604 120.895C161.728 120.931 161.856 120.949 161.986 120.952C162.136 120.954 162.266 120.937 162.38 120.9C162.493 120.863 162.587 120.812 162.665 120.745C162.743 120.677 162.8 120.598 162.84 120.507C162.877 120.414 162.898 120.314 162.9 120.205Z" fill="#CCD8FF"/>
<path d="M166.056 168.417H155.956V157.383C155.956 154.767 158.078 152.646 160.694 152.646H161.592C164.057 152.646 166.056 154.644 166.056 157.109V168.417Z" fill="#6F84DD"/>
<path d="M157.678 144.547H152.911V139.339C152.911 138.104 153.912 137.103 155.147 137.103H155.572C156.735 137.103 157.678 138.046 157.678 139.209V144.547Z" fill="#6F84DD"/>
<path d="M143.716 144.547H138.948V139.339C138.948 138.104 139.95 137.103 141.185 137.103H141.609C142.772 137.103 143.716 138.046 143.716 139.209V144.547Z" fill="#6F84DD"/>
<path d="M143.716 160.532H138.948V155.323C138.948 154.089 139.95 153.087 141.185 153.087H141.609C142.772 153.087 143.716 154.03 143.716 155.193V160.532Z" fill="#6F84DD"/>
<path d="M184.16 144.547H179.392V139.339C179.392 138.104 180.394 137.103 181.629 137.103H182.053C183.216 137.103 184.16 138.046 184.16 139.209V144.547Z" fill="#6F84DD"/>
<path d="M184.16 160.532H179.392V155.323C179.392 154.089 180.394 153.087 181.629 153.087H182.053C183.216 153.087 184.16 154.03 184.16 155.193V160.532Z" fill="#6F84DD"/>
<path d="M169.733 144.547H164.966V139.339C164.966 138.104 165.968 137.103 167.202 137.103H167.627C168.79 137.103 169.733 138.046 169.733 139.209V144.547Z" fill="#6F84DD"/>
<path d="M435.108 266.519H101.914C101.647 266.519 101.431 266.301 101.431 266.036V265.558C101.431 265.292 101.649 265.075 101.914 265.075H435.108C435.374 265.075 435.59 265.293 435.59 265.558V266.036C435.59 266.303 435.374 266.519 435.108 266.519Z" fill="#233862"/>
</g>
<defs>
<clipPath id="clip0_1715_8022">
<rect width="478" height="267" fill="white" transform="translate(7 12.5)"/>
</clipPath>
</defs>
</svg>
