<svg width="475" height="247" viewBox="0 0 475 247" fill="none" xmlns="http://www.w3.org/2000/svg">
<path d="M40.3285 246.35C40.3498 246.366 452.117 246.296 452.117 246.296C452.117 246.296 463.115 226.893 467.193 182.23C476.179 83.8266 406.711 68.6505 386.498 64.5453C324.605 51.9729 352.773 -10.2166 191.492 1.45126C176.711 2.5209 141.858 11.1549 129.845 16.7484C121.422 20.6672 89.6808 38.2083 80.3668 67.8801C77.4255 77.2452 76.7206 87.8173 79.6848 99.5522C90.1809 141.077 62.8159 138.691 42.8206 158.479C16.1327 184.889 18.9232 228.081 40.3285 246.35Z" fill="#EBF3FA"/>
<path d="M224.245 112.733L193.41 149.276L144.575 108.269V108.268L123.997 90.99L154.83 54.4473L193.251 86.7082L224.245 112.733Z" fill="#DCEAFF"/>
<path d="M216.828 113.487L192.889 141.857L130.5 89.4676L154.438 61.0977L216.828 113.487ZM194.961 137.649L213.014 116.254C214.239 114.802 214.053 112.633 212.598 111.412L157.258 64.9428C155.776 63.6982 153.564 63.8879 152.316 65.3664L134.336 86.6774C133.098 88.1429 133.288 90.3328 134.757 91.566L190.13 138.063C191.579 139.279 193.742 139.093 194.961 137.649Z" fill="#C0D8FB"/>
<path d="M183.564 102.955C184.382 97.5059 180.617 92.4267 175.155 91.6107C169.692 90.7947 164.601 94.5508 163.783 100C162.965 105.45 166.73 110.529 172.192 111.345C177.655 112.161 182.746 108.405 183.564 102.955Z" fill="#C0D8FB"/>
<path d="M253.039 86.793L214.819 108.429L185.907 57.5971L173.723 36.1798L211.943 14.5449L234.69 54.5354L253.039 86.793Z" fill="#DCEAFF"/>
<path d="M246.417 85.0824L216.746 101.879L179.808 36.9405L209.479 20.1436L246.417 85.0824ZM219.872 98.9158L242.25 86.2486C243.768 85.3883 244.301 83.4633 243.44 81.9488L210.676 24.3501C209.799 22.8078 207.833 22.2665 206.287 23.1415L184 35.758C182.467 36.6265 181.929 38.5695 182.798 40.0987L215.582 97.7349C216.441 99.2429 218.361 99.7712 219.872 98.9158Z" fill="#C0D8FB"/>
<path d="M222.127 62.7654C223.098 57.8015 219.851 52.9923 214.875 52.0238C209.899 51.0553 205.078 54.2942 204.107 59.2581C203.136 64.2221 206.383 69.0312 211.359 69.9997C216.335 70.9682 221.156 67.7293 222.127 62.7654Z" fill="#C0D8FB"/>
<path d="M434.034 142.293C430.178 126.025 402.734 130.185 402.734 130.185C402.734 130.185 383.296 157.811 377.886 158.31C372.475 158.809 389.882 131.453 389.882 131.453C379.474 130.109 352.454 142.019 352.454 142.019C352.454 142.019 353.072 174.999 347.704 174.154C342.336 173.308 348.65 144.923 348.65 144.923C338.447 147.622 328.637 159.077 328.637 159.077C316.229 177.848 341.031 192.774 341.031 192.774C341.031 192.774 340.999 204.208 333.501 217.083C333.501 217.083 331.827 219.451 330.071 223.511L332.826 223.599C333.075 222.87 333.345 222.165 333.642 221.491C333.642 221.486 333.644 221.483 333.649 221.479C333.654 221.47 333.657 221.46 333.662 221.45C333.863 221.031 334.155 220.436 334.516 219.711C334.516 219.71 334.518 219.71 334.518 219.708C334.518 219.706 334.519 219.706 334.519 219.705C335.414 218.089 336.023 216.893 336.41 216.028C336.411 216.025 336.411 216.023 336.413 216.02C339.102 210.942 342.951 204.337 345.42 203.006C345.42 203.006 345.128 202.568 344.871 201.727C345.046 202.134 345.228 202.56 345.42 203.006C349.809 213.238 373.331 215.676 386.552 213.413C399.775 211.148 394.168 207.268 387.29 201.042C380.412 194.815 365.54 195.919 361.238 193.427C356.936 190.934 363.411 188.788 372.146 189.742C380.881 190.695 384.977 199.573 399.078 201.372C413.179 203.173 424.816 176.976 424.816 176.976C414.952 179.685 397.612 173.746 397.047 170.364C396.481 166.983 422.405 168.154 426.479 167.276C430.556 166.398 437.892 158.562 434.034 142.293Z" fill="#DFEBFD"/>
<path opacity="0.5" d="M305.621 105.968C311.706 97.4977 326.543 106.377 326.543 106.377C326.543 106.377 331.196 126.896 334.198 128.462C337.2 130.027 333.654 110.144 333.654 110.144C339.974 111.827 352.729 125.074 352.729 125.074C352.729 125.074 344.546 143.945 347.842 144.725C351.137 145.506 354.233 127.647 354.233 127.647C359.476 131.612 362.414 140.533 362.414 140.533C365.114 154.287 347.271 157.036 347.271 157.036C347.271 157.036 344.578 163.637 345.845 172.832C345.845 172.832 346.248 174.593 346.297 177.348L344.687 176.749C344.717 176.27 344.728 175.799 344.717 175.341C344.719 175.338 344.717 175.336 344.717 175.333C344.717 175.326 344.717 175.32 344.717 175.313C344.699 175.024 344.673 174.611 344.637 174.108V174.106C344.637 174.104 344.637 174.104 344.637 174.103C344.504 172.96 344.438 172.127 344.419 171.537C344.419 171.535 344.419 171.533 344.419 171.532C344.073 167.97 343.42 163.251 342.313 161.9C342.313 161.9 342.586 161.717 342.933 161.292C342.735 161.486 342.53 161.688 342.313 161.9C337.356 166.764 323.213 162.616 316.127 158.187C309.04 153.76 313.194 152.846 318.637 150.88C324.081 148.914 332.394 153.062 335.465 152.64C338.538 152.218 335.313 149.452 330.05 147.939C324.787 146.426 320.32 150.577 311.76 148.286C303.201 145.993 302.706 128.141 302.706 128.141C307.753 132.032 319.16 132.703 320.288 130.885C321.416 129.068 306.19 123.624 304.051 122.155C301.906 120.688 299.537 114.439 305.621 105.968Z" fill="#AFCDFB"/>
<path d="M277.224 107.785C268.008 97.365 249.521 111.138 249.521 111.138C249.521 111.138 246.117 138.988 242.346 141.467C238.576 143.947 240.595 117.09 240.595 117.09C232.437 120.171 217.303 139.46 217.303 139.46C217.303 139.46 230.706 163.4 226.438 164.877C222.171 166.353 215.655 143.077 215.655 143.077C209.235 149.041 206.54 161.274 206.54 161.274C204.813 179.884 228.858 181.135 228.858 181.135C228.858 181.135 233.324 189.532 232.883 201.9C232.883 201.9 232.585 204.29 232.891 207.953L234.946 206.943C234.842 206.31 234.764 205.688 234.716 205.076C234.714 205.073 234.714 205.07 234.716 205.065C234.716 205.057 234.714 205.047 234.714 205.039C234.698 204.653 234.678 204.103 234.659 203.429C234.659 203.428 234.659 203.428 234.659 203.426C234.659 203.425 234.659 203.424 234.659 203.423C234.68 201.889 234.655 200.773 234.601 199.988C234.601 199.985 234.601 199.983 234.6 199.982C234.577 195.208 234.806 188.862 236.093 186.92C236.093 186.92 235.708 186.713 235.188 186.197C235.477 186.428 235.777 186.668 236.093 186.92C243.328 192.707 261.532 185.304 270.336 178.478C279.14 171.651 273.507 170.997 266.019 169.119C258.532 167.242 248.062 173.862 243.928 173.715C239.795 173.568 243.701 169.466 250.48 166.751C257.259 164.038 263.747 168.944 274.792 164.754C285.837 160.564 284.085 136.811 284.085 136.811C277.915 142.651 262.871 145.072 261.129 142.813C259.387 140.555 278.852 131.284 281.494 129.049C284.137 126.816 286.438 118.205 277.224 107.785Z" fill="#DFEBFD"/>
<path d="M424.079 117.921C424.079 117.921 435.46 129.693 435.998 134.124C436.536 138.555 430.547 145.471 430.547 145.471L424.079 117.921Z" fill="#ED7D2B"/>
<path d="M418.936 239.922C418.936 239.922 418.534 246.166 417.322 246.253C417.162 246.264 411.179 246.251 411.179 246.251L403.544 246.191C403.544 246.191 403.598 244.356 405.831 243.973C408.064 243.59 411.804 242.033 413.161 239.093C414.591 236 418.936 239.922 418.936 239.922Z" fill="#163560"/>
<path d="M435.944 239.96C435.944 239.96 435.542 246.204 434.331 246.291C434.17 246.302 428.187 246.289 428.187 246.289L420.552 246.229C420.552 246.229 420.606 244.394 422.839 244.011C425.072 243.628 428.812 242.071 430.17 239.13C431.598 236.036 435.944 239.96 435.944 239.96Z" fill="#163560"/>
<path d="M410.625 172.787C410.625 172.787 412.594 185.533 419.995 208.168C427.395 230.804 428.389 240.601 428.389 240.601L436.382 240.395C436.382 240.395 436.503 215.676 433.094 204.294C429.686 192.912 432.443 163.286 432.443 163.286L410.625 172.787Z" fill="#163560"/>
<path d="M406.754 163.929C406.754 163.929 406.429 183.13 409.708 206.713C412.987 230.295 411.837 240.302 411.837 240.302L419.813 240.583C419.813 240.583 424.631 217.008 423.29 205.205C421.949 193.401 429.906 164.727 429.906 164.727L406.754 163.929Z" fill="#1C468A"/>
<path d="M422.293 119.028L418.037 121.799L411.897 120.644C411.982 120.15 412.394 118.101 412.766 116.245C412.789 116.135 412.812 116.026 412.832 115.919C413.151 114.339 413.427 112.984 413.427 112.984L419.168 110.471L421.31 109.534C421.305 109.567 421.141 111.287 421.118 111.538C420.708 115.995 422.293 119.028 422.293 119.028Z" fill="#FFB27D"/>
<path d="M413.478 117.605C413.597 117.556 420.878 115.428 421.669 115.692C422.459 115.953 422.923 117.481 422.923 117.481L411.015 120.14C411.015 120.139 411.956 118.241 413.478 117.605Z" fill="#ED7D2B"/>
<path d="M432.967 166.355C431.721 171.965 411.192 172.587 405.911 167.481C405.311 166.898 405.287 164.196 405.521 160.554C405.98 153.436 407.43 142.733 407.497 137.262C407.53 134.621 407.9 131.919 408.39 129.467C409.433 124.24 411.014 120.14 411.014 120.14C411.014 120.14 421.047 116.928 422.921 117.482C431.957 120.15 434.213 160.744 432.967 166.355Z" fill="#F99746"/>
<path d="M405.521 160.553C405.98 153.435 407.43 142.732 407.497 137.261C407.53 134.62 407.9 131.918 408.39 129.466L414.424 128.418C414.424 128.418 420.269 152.459 405.521 160.553Z" fill="#ED7D2B"/>
<path d="M408.81 150.638C408.81 150.638 409.218 151.62 408.354 152.275C407.49 152.931 406.928 153.998 407.123 154.776C407.32 155.556 409.21 156.83 409.868 156.628C410.525 156.423 411.863 155.401 411.72 154.989C411.578 154.578 412.627 151.384 411.028 150.149C409.43 148.918 408.81 150.638 408.81 150.638Z" fill="#FFB27D"/>
<path d="M415.624 118.709C415.624 118.709 409.74 119.795 405.038 126.674C400.335 133.553 397.24 138.671 398.099 141.155C398.957 143.641 406.808 152.27 408.166 152.273C409.523 152.277 411.714 151.297 411.842 149.082C411.842 149.082 406.318 140.785 407.413 139.547C407.88 139.017 414.62 133.584 415.575 136.047C417.154 140.123 415.624 118.709 415.624 118.709Z" fill="#F99746"/>
<path d="M420.688 111.614C419.424 113.74 414.725 115.571 412.766 116.243C412.789 116.133 412.812 116.024 412.832 115.917C413.151 114.337 413.427 112.981 413.427 112.981L419.168 110.469C420.439 110.455 421.211 110.739 420.688 111.614Z" fill="#FCA56B"/>
<path d="M411.268 112.629C411.268 112.629 420.501 115.524 422.221 109.76C423.941 103.996 426.29 100.488 420.467 98.3946C414.643 96.3027 412.837 98.1607 411.794 99.9451C410.751 101.731 408.91 111.727 411.268 112.629Z" fill="#FFB27D"/>
<path d="M412.158 99.3904C412.158 99.3904 412.733 106.104 414.125 105.815C415.517 105.527 416.78 105.313 416.571 107.336C416.363 109.359 414.429 111.691 418.716 112.058C423.003 112.426 429.192 101.405 428.018 99.3152C424.633 93.2817 407.261 92.0272 412.158 99.3904Z" fill="#163560"/>
<path d="M144.529 147.594C144.529 147.594 148.042 153.531 151.262 153.614C154.482 153.696 159.383 150.862 159.383 150.862C159.383 150.862 162.34 142.951 160.333 139.855C160.333 139.855 158.322 138.795 156.218 140.666C155.858 140.99 155.49 141.395 155.13 141.919C154.62 142.655 154.046 143.075 153.439 143.294C151.141 144.133 148.414 142.159 147.393 144.065C146.798 145.172 146.15 146.004 145.616 146.59C144.986 147.264 144.529 147.594 144.529 147.594Z" fill="#F9DDBF"/>
<path d="M194.917 234.404C194.917 234.404 203.543 158.915 155.559 153.612C155.559 153.612 118.326 162.457 127.611 234.404H194.917Z" fill="#F9DDBF"/>
<path d="M161.683 154.716C161.683 154.716 152.724 157.107 149.96 155.703C149.96 155.703 149.542 151.205 153.315 151.836C155.897 152.268 157.579 150.778 158.568 150.173C159.968 149.317 162.055 152.835 161.683 154.716Z" fill="#F99746"/>
<path d="M153.887 147.938C154.461 148.453 156.22 140.666 156.22 140.666C155.859 140.99 155.492 141.395 155.131 141.919C154.621 142.655 154.048 143.075 153.441 143.294C153.433 143.522 153.331 147.435 153.887 147.938Z" fill="#E5C1A1"/>
<path d="M145.617 146.59C145.744 146.68 149.887 149.658 150.449 149.658C151.023 149.658 147.395 144.064 147.395 144.064C146.798 145.172 146.15 146.004 145.617 146.59Z" fill="#E5C1A1"/>
<path d="M310.527 85.0128C317.127 78.429 317.127 67.7546 310.527 61.1707C303.927 54.5869 293.227 54.5869 286.627 61.1707C280.027 67.7545 280.027 78.429 286.627 85.0129C293.227 91.5967 303.927 91.5967 310.527 85.0128Z" fill="#E2810E"/>
<path d="M281.18 78.9843C278.179 70.1671 282.911 60.5927 291.75 57.5997C300.588 54.6066 310.186 59.3268 313.186 68.1439C316.186 76.9611 311.455 86.5355 302.616 89.5286C293.778 92.5216 284.18 87.7998 281.18 78.9843Z" fill="#FFB93E"/>
<path d="M302.198 88.2962C298.304 89.6144 294.127 89.3429 290.438 87.5275C286.749 85.7137 283.99 82.5735 282.667 78.6891C281.345 74.8047 281.617 70.6373 283.437 66.9574C285.255 63.2774 288.403 60.5248 292.297 59.205C296.191 57.8867 300.368 58.1582 304.057 59.9737C307.746 61.7875 310.505 64.9277 311.829 68.8121C313.15 72.6965 312.878 76.8638 311.058 80.5438C309.238 84.2254 306.092 86.978 302.198 88.2962ZM292.592 60.0734C285.032 62.633 280.97 70.8532 283.536 78.3947C286.101 85.9361 294.342 89.989 301.901 87.4294C309.461 84.8698 313.524 76.6496 310.958 69.1081C308.392 61.5667 300.152 57.5138 292.592 60.0734Z" fill="#FFA412"/>
<path d="M300.691 77.2949C300.622 76.9678 300.514 76.6914 300.37 76.4624C300.224 76.2334 300.026 76.0404 299.773 75.8818C299.521 75.7248 299.211 75.5956 298.844 75.4942C298.476 75.3927 298.035 75.3126 297.524 75.2505C296.64 75.1376 295.83 74.9937 295.092 74.8219C294.355 74.6486 293.704 74.4082 293.138 74.0974C292.573 73.7867 292.099 73.3843 291.718 72.8887C291.336 72.3932 291.064 71.7651 290.903 71.003C290.762 70.3422 290.753 69.7158 290.871 69.1221C290.99 68.5284 291.225 67.9838 291.574 67.4866C291.923 66.991 292.376 66.5511 292.93 66.17C293.484 65.7889 294.132 65.483 294.871 65.2541L294.34 62.7599L296.352 62.333L296.889 64.8615C297.63 64.8027 298.324 64.855 298.973 65.0169C299.621 65.1805 300.199 65.4471 300.708 65.8183C301.216 66.1896 301.647 66.6655 302.003 67.2429C302.359 67.8219 302.618 68.499 302.783 69.2759L299.149 70.0462C298.95 69.1139 298.594 68.4597 298.081 68.0852C297.568 67.7106 296.963 67.5978 296.268 67.745C295.891 67.8251 295.576 67.9462 295.327 68.1081C295.076 68.27 294.883 68.4614 294.747 68.6822C294.609 68.9029 294.525 69.145 294.494 69.4116C294.463 69.6782 294.478 69.9546 294.54 70.2425C294.601 70.5303 294.699 70.7805 294.832 70.9964C294.965 71.2123 295.156 71.3971 295.404 71.5509C295.652 71.7046 295.963 71.8338 296.34 71.9369C296.717 72.0399 297.176 72.1315 297.719 72.2116C298.596 72.3425 299.403 72.4962 300.137 72.6745C300.872 72.8528 301.523 73.0981 302.088 73.4121C302.654 73.7261 303.128 74.1318 303.51 74.6273C303.892 75.1229 304.162 75.7477 304.323 76.5016C304.469 77.1853 304.48 77.8248 304.356 78.4185C304.233 79.0138 303.995 79.5552 303.644 80.0426C303.292 80.5316 302.834 80.9617 302.269 81.333C301.703 81.7043 301.052 82.0052 300.311 82.2342L300.804 84.5534L298.804 84.977L298.312 82.6692C297.601 82.7461 296.896 82.7379 296.197 82.6431C295.497 82.5482 294.85 82.334 294.253 82.0019C293.656 81.6699 293.137 81.2005 292.692 80.597C292.248 79.9935 291.927 79.2248 291.728 78.2926L295.363 77.5222C295.481 78.0734 295.656 78.5183 295.889 78.8535C296.122 79.1905 296.393 79.4407 296.701 79.6075C297.007 79.7743 297.337 79.8676 297.686 79.8856C298.037 79.9052 298.383 79.8774 298.727 79.8054C299.121 79.722 299.457 79.5977 299.732 79.4342C300.008 79.2706 300.227 79.0776 300.391 78.8552C300.555 78.6344 300.66 78.3907 300.709 78.1241C300.759 77.8591 300.752 77.5827 300.691 77.2949Z" fill="#FFA412"/>
<path d="M345.704 54.292C350.903 49.1057 350.903 40.697 345.704 35.5107C340.505 30.3244 332.076 30.3244 326.877 35.5107C321.678 40.697 321.678 49.1057 326.877 54.292C332.076 59.4784 340.505 59.4784 345.704 54.292Z" fill="#E2810E"/>
<path d="M322.587 49.5411C320.223 42.595 323.951 35.0536 330.914 32.6951C337.877 30.3367 345.437 34.0559 347.801 41.002C350.165 47.9481 346.437 55.4896 339.474 57.848C332.511 60.2064 324.951 56.4872 322.587 49.5411Z" fill="#FFB93E"/>
<path d="M339.144 56.8783C336.077 57.9169 332.786 57.7026 329.879 56.2732C326.974 54.8437 324.8 52.3708 323.758 49.3107C322.716 46.2506 322.931 42.9681 324.364 40.07C325.797 37.1718 328.276 35.0031 331.344 33.9629C334.411 32.9243 337.702 33.1386 340.607 34.568C343.512 35.9975 345.686 38.4704 346.729 41.5305C347.77 44.5906 347.555 47.8731 346.122 50.7713C344.691 53.6711 342.212 55.8398 339.144 56.8783ZM331.578 34.6465C325.622 36.6631 322.421 43.1382 324.444 49.0785C326.466 55.0204 332.957 58.2129 338.911 56.1947C344.868 54.1781 348.068 47.703 346.045 41.7627C344.023 35.8225 337.533 32.6299 331.578 34.6465Z" fill="#FFA412"/>
<path d="M337.957 48.2108C337.903 47.954 337.818 47.7348 337.703 47.5549C337.588 47.375 337.433 47.2229 337.233 47.0986C337.034 46.9743 336.79 46.8729 336.5 46.7928C336.209 46.7143 335.864 46.6488 335.46 46.5998C334.765 46.5098 334.126 46.397 333.545 46.2612C332.963 46.1255 332.45 45.9341 332.006 45.6904C331.56 45.4451 331.188 45.1278 330.886 44.7385C330.586 44.3477 330.371 43.8521 330.243 43.2535C330.132 42.7334 330.124 42.2394 330.217 41.7717C330.311 41.3039 330.496 40.8754 330.771 40.4845C331.047 40.0936 331.402 39.7485 331.84 39.4476C332.276 39.1467 332.786 38.9062 333.37 38.7263L332.952 36.762L334.537 36.4268L334.962 38.4188C335.545 38.3714 336.093 38.4123 336.603 38.5415C337.113 38.6707 337.569 38.8801 337.97 39.1728C338.37 39.4656 338.711 39.8401 338.99 40.2948C339.27 40.7511 339.475 41.2843 339.605 41.896L336.742 42.5028C336.587 41.7684 336.306 41.2532 335.901 40.9588C335.496 40.6644 335.021 40.5745 334.472 40.6906C334.175 40.7527 333.927 40.8492 333.731 40.9768C333.534 41.1044 333.381 41.2549 333.273 41.4282C333.165 41.6016 333.099 41.7929 333.075 42.0023C333.05 42.2116 333.062 42.4308 333.111 42.6565C333.158 42.8822 333.235 43.0817 333.34 43.2502C333.445 43.4203 333.596 43.5659 333.791 43.6869C333.986 43.8079 334.232 43.9093 334.529 43.9911C334.826 44.0729 335.188 44.1448 335.616 44.207C336.308 44.31 336.942 44.4311 337.521 44.5717C338.1 44.7124 338.611 44.9054 339.057 45.1523C339.503 45.4009 339.877 45.7199 340.177 46.1091C340.477 46.5 340.69 46.9923 340.818 47.586C340.933 48.1241 340.941 48.6278 340.844 49.0956C340.748 49.5634 340.561 49.9902 340.284 50.3746C340.007 50.7589 339.646 51.0991 339.2 51.3903C338.756 51.683 338.241 51.9202 337.659 52.1001L338.047 53.927L336.472 54.2606L336.085 52.4435C335.524 52.5041 334.97 52.4975 334.419 52.4223C333.868 52.347 333.358 52.1786 332.888 51.9169C332.417 51.6552 332.007 51.2856 331.658 50.8096C331.309 50.3337 331.055 49.7286 330.899 48.9942L333.762 48.3874C333.854 48.8225 333.993 49.1725 334.177 49.4358C334.36 49.7008 334.573 49.8987 334.816 50.0295C335.059 50.1603 335.316 50.2339 335.593 50.2487C335.868 50.2634 336.142 50.2421 336.413 50.1849C336.723 50.1194 336.987 50.0213 337.205 49.8921C337.423 49.7629 337.595 49.6108 337.724 49.4374C337.852 49.2624 337.936 49.0711 337.975 48.8617C338.01 48.654 338.005 48.4365 337.957 48.2108Z" fill="#FFA412"/>
<path d="M183.233 164.172C183.233 164.172 181.08 167.196 179.104 167.239C177.13 167.281 174.127 165.837 174.127 165.837C174.127 165.837 172.313 161.807 173.543 160.23C173.543 160.23 174.776 159.691 176.065 160.644C176.286 160.809 176.511 161.015 176.732 161.282C177.045 161.656 177.396 161.871 177.768 161.984C179.176 162.41 180.849 161.405 181.473 162.376C181.839 162.94 182.236 163.364 182.562 163.662C182.952 164.003 183.233 164.172 183.233 164.172Z" fill="#FFEDDC"/>
<path d="M155.159 185.986C155.159 185.986 162.77 167.588 176.471 167.238C176.471 167.238 189.118 168.64 189.82 185.986H155.159Z" fill="#FFEDDC"/>
<path d="M172.717 167.802C172.717 167.802 178.207 169.02 179.903 168.304C179.903 168.304 180.158 166.012 177.847 166.335C176.265 166.554 175.233 165.795 174.627 165.487C173.768 165.051 172.489 166.843 172.717 167.802Z" fill="#DB6A1D"/>
<path d="M177.496 164.347C177.145 164.61 176.066 160.643 176.066 160.643C176.288 160.808 176.512 161.014 176.734 161.28C177.047 161.655 177.398 161.869 177.77 161.982C177.773 162.098 177.837 164.092 177.496 164.347Z" fill="#E5C1A1"/>
<path d="M182.565 163.66C182.488 163.705 179.949 165.223 179.604 165.223C179.253 165.223 181.477 162.374 181.477 162.374C181.841 162.938 182.239 163.362 182.565 163.66Z" fill="#E5C1A1"/>
<path d="M162.594 180.848C162.453 180.729 167.98 172.729 169.503 172.67C171.025 172.611 174.446 174.422 176.922 174.656C179.398 174.89 181.798 174.188 182.267 175.649C182.736 177.109 184.023 182.286 183.233 183.113C182.442 183.942 165.634 183.437 162.594 180.848Z" fill="#F9DDBF"/>
<path d="M371.208 141.672L355.51 188.259C351.891 198.998 346.243 208.728 338.725 217.175C331.486 225.309 322.843 231.896 313.03 236.759C303.218 241.623 292.732 244.515 281.865 245.355C270.572 246.23 259.389 244.843 248.624 241.232C237.859 237.622 228.106 231.988 219.636 224.486C211.484 217.267 204.879 208.642 200.005 198.854C195.129 189.067 192.23 178.606 191.387 167.764C190.512 156.502 191.902 145.342 195.52 134.605L211.219 88.0186L250.621 101.232L234.923 147.819C231.301 158.567 232.121 170.14 237.233 180.405C242.345 190.668 251.093 198.311 261.87 201.925C272.646 205.538 284.245 204.719 294.535 199.621C304.824 194.521 312.486 185.792 316.108 175.044L331.806 128.457L371.208 141.672Z" fill="#699DEE"/>
<path d="M265.658 56.714L226.227 43.4932L211.227 88.0153L250.657 101.236L265.658 56.714Z" fill="white"/>
<path d="M386.222 97.1398L346.792 83.9189L331.792 128.441L371.222 141.662L386.222 97.1398Z" fill="white"/>
<path d="M261.87 201.926L248.624 241.233C237.859 237.623 228.106 231.989 219.636 224.487C211.484 217.268 204.879 208.643 200.005 198.855C195.129 189.068 192.23 178.607 191.387 167.765C190.512 156.503 191.902 145.343 195.52 134.606L211.219 88.0195L250.621 101.233L234.923 147.82C231.301 158.568 232.121 170.141 237.233 180.406C242.346 190.669 251.095 198.312 261.87 201.926Z" fill="#F99746"/>
<path d="M301.277 234.474C300.904 234.899 300.857 235.375 301.041 235.884C301.041 235.885 301.042 235.888 301.044 235.89C301.385 236.831 302.511 237.879 303.82 238.927C303.987 239.061 304.136 239.184 304.265 239.297C304.3 239.326 304.334 239.356 304.365 239.387C304.392 239.41 304.418 239.434 304.443 239.456C305.662 240.578 305.203 240.834 307.395 243.111C309.896 245.705 311.615 245.752 312.106 245.515C312.52 245.314 311.678 243.939 310.746 242.391C310.7 242.316 310.656 242.241 310.61 242.166C310.486 241.96 310.363 241.752 310.24 241.544C309.146 239.683 309.428 238.81 309.687 236.039C309.897 233.788 313.197 223.463 313.197 223.463L308.407 222.641C308.407 222.641 306.964 230.862 305.375 232.128C304.526 232.804 303.574 232.812 302.757 233.312C302.7 233.347 302.642 233.383 302.587 233.419C302.124 233.731 301.65 234.047 301.277 234.474Z" fill="#FFB27D"/>
<path d="M301.277 234.474C300.904 234.899 300.857 235.375 301.041 235.884C301.041 235.886 301.042 235.889 301.044 235.89C301.462 236.829 302.559 237.874 303.824 238.918C303.99 239.055 304.136 239.181 304.265 239.297C304.3 239.327 304.334 239.356 304.365 239.387C304.392 239.41 304.418 239.435 304.443 239.456C305.662 240.578 305.203 240.835 307.395 243.111C309.896 245.705 311.615 245.753 312.106 245.516C312.52 245.314 311.678 243.939 310.746 242.392C310.259 242.213 308 241.297 306.29 239.117C304.785 237.202 303.782 234.739 302.757 233.314C302.7 233.349 302.642 233.385 302.587 233.421C302.124 233.732 301.65 234.047 301.277 234.474Z" fill="#233862"/>
<path d="M339.9 231.49C340.195 232.966 342.304 232.719 344.658 232.145C347.012 231.571 346.453 232.253 349.804 231.883C353.156 231.513 354.17 230.267 354.272 229.77C354.364 229.328 352.708 229.173 350.932 228.968C350.709 228.944 350.485 228.916 350.26 228.888C348.255 228.638 346.786 227.346 344.965 226.286C343.24 225.282 340.664 221.191 340.664 221.191L336.069 221.554C336.069 221.554 338.48 225.208 339.413 226.798C339.962 227.732 339.933 228.968 339.864 229.922C339.83 230.44 339.795 230.97 339.9 231.49Z" fill="#FFB27D"/>
<path d="M344.658 232.145C347.012 231.571 346.453 232.253 349.804 231.883C353.155 231.514 354.17 230.267 354.272 229.77C354.364 229.329 352.708 229.173 350.932 228.969L350.916 229.003C350.916 229.003 348.906 230.424 346.117 230.491C343.843 230.547 341.436 229.896 339.866 229.922C339.83 230.441 339.797 230.971 339.9 231.491C340.197 232.966 342.304 232.719 344.658 232.145Z" fill="#233862"/>
<path d="M322.289 202.176L317.993 213.708L312.384 228.766C312.384 228.766 310.861 228.914 309.405 228.495C308.063 228.107 306.523 227.095 306.523 227.095C306.523 227.095 308.081 210.926 310.986 201.646C311.73 199.263 312.565 197.336 313.486 196.252C317.988 190.941 322.289 202.176 322.289 202.176Z" fill="#233862"/>
<path d="M317.921 183.859C315.106 182.953 307.079 184.116 299.014 185.691L297.326 182.912L279.907 181.555C279.907 181.555 274.159 194.269 277.306 202.372C277.768 203.562 278.688 204.326 280.253 204.351H280.507C280.507 204.351 290.874 204.344 294.24 204.344C302.901 204.344 312.573 198.404 313.824 198.155C315.872 197.746 316.69 201.832 318.737 206.122C320.785 210.412 337.984 225.117 337.984 225.117C337.984 225.117 340.626 225.143 341.718 224.734C342.892 224.294 343.322 223.724 343.322 223.724C343.322 223.724 324.267 185.902 317.921 183.859Z" fill="#2B478B"/>
<path d="M296.64 132.319C294.409 131.149 291.013 130.992 290.463 130.917C283.862 130.032 279.889 139.6 279.657 142.498C279.225 147.841 276.392 148.656 272.403 152.004C264.406 158.714 266.752 166.511 271.125 169.409C273.748 171.148 278.373 169.409 278.373 169.409C278.438 169.455 291.022 162.393 297.224 158.986C306.521 157.666 302.326 135.297 296.64 132.319Z" fill="#233862"/>
<path d="M292.025 156.084C292.053 156.102 288.974 157.151 286.915 156.241C284.978 155.388 283.511 152.208 283.539 152.206C284.419 152.166 285.387 151.397 286.133 146.354L286.508 146.489L292.817 148.752C292.817 148.752 292.359 150.772 292.064 152.694C291.813 154.31 291.679 155.857 292.025 156.084Z" fill="#FFB27D"/>
<path d="M292.815 148.754C292.815 148.754 292.358 150.774 292.063 152.696C288.439 152.045 287.018 148.444 286.508 146.489L292.815 148.754Z" fill="#ED975D"/>
<path d="M293.755 150.76C293.755 150.76 285.124 149.603 285.928 144.253C286.733 138.902 286.159 135.15 291.704 135.662C297.248 136.174 298.009 138.375 298.176 140.227C298.344 142.076 296.02 150.921 293.755 150.76Z" fill="#FFB27D"/>
<path d="M297.863 137.291C297.863 137.291 292.338 142.04 288.58 142.423C284.823 142.806 283.4 141.602 283.4 141.602C283.4 141.602 285.615 139.767 286.947 136.806C287.341 135.933 288.17 135.334 289.126 135.253C291.809 135.022 296.896 134.917 297.863 137.291Z" fill="#233862"/>
<path d="M294.409 136.866C294.409 136.866 296.257 138.648 296.839 139.971C297.401 141.247 297.568 144.299 297.121 145.511C297.121 145.511 300.001 139.926 298.37 137.211C296.643 134.334 294.409 136.866 294.409 136.866Z" fill="#233862"/>
<path d="M299.293 168.768C299.032 186.196 299.221 182.556 297.311 184.209C296.85 184.607 295.555 184.845 293.851 184.957C288.495 185.312 279.078 184.432 278.719 183.444C277.483 180.027 278.355 178.964 277.325 173.732C277.217 173.176 277.084 172.574 276.928 171.918C276.069 168.325 275.231 167.102 278.281 161.33C281.047 156.101 283.919 151.857 284.178 152.009C291.474 156.33 292.063 152.697 292.063 152.697C292.063 152.697 299.419 160.267 299.293 168.768Z" fill="white"/>
<path d="M317.991 213.708L312.383 228.766C312.383 228.766 310.86 228.913 309.404 228.494C308.061 228.107 306.521 227.094 306.521 227.094C306.521 227.094 308.079 210.926 310.984 201.646L317.991 213.708Z" fill="#2B478B"/>
<path d="M292.063 152.695C292.063 152.695 299.57 153.964 300.452 157.19C301.334 160.415 306.521 179.371 306.521 179.371C306.521 179.371 302.705 180.055 300.942 178.296C299.18 176.538 294.807 161.977 294.807 161.977L292.063 152.695Z" fill="white"/>
<path d="M293.85 184.957C288.493 185.312 279.076 184.432 278.717 183.444C277.481 180.027 278.353 178.964 277.323 173.732L279.907 166.474C279.907 166.474 279.479 174.556 281.87 176.683C284.257 178.809 291.653 180.786 292.815 182.562C293.374 183.414 293.743 184.27 293.85 184.957Z" fill="#EBF3FF"/>
<path d="M287.713 181.556C287.713 181.556 292.999 180.382 293.851 180.849C294.704 181.317 296.788 183.021 297.05 183.615C297.311 184.209 295.151 183.165 294.45 182.977C293.996 182.856 292.797 183.27 292.205 183.468C289.712 184.297 288.182 183.87 288.182 183.87L287.713 181.556Z" fill="#FFB27D"/>
<path d="M284.173 152.004C284.173 152.004 277.078 152.441 274.62 155.859C271.162 160.671 264.301 181.177 268.233 183.912C272.661 186.991 288.384 184.718 288.384 184.718C288.384 184.718 288.907 182.278 288.179 181.098C287.451 179.918 275.62 178.012 275.074 177.468C274.528 176.923 281.899 166.846 281.899 165.211C281.899 163.575 284.173 152.004 284.173 152.004Z" fill="white"/>
<path d="M294.105 182.318C294.105 182.318 295.212 183.743 295.576 183.913C295.938 184.083 296.173 184.041 296.173 184.041L295.427 182.701L294.105 182.318Z" fill="#FFB27D"/>
<path d="M293.85 180.85L297.07 182.41C297.07 182.41 296.932 182.634 296.537 182.616C296.14 182.598 295.14 182.233 295.14 182.233L293.85 180.85Z" fill="#FFB27D"/>
<path d="M295.576 186.096H321.046L328.707 167.09H303.277L295.576 186.096Z" fill="#F99746"/>
<path d="M321.344 185.355H287.713V186.096H321.046L321.344 185.355Z" fill="#ED7D2B"/>
<path d="M314.616 176.592C314.807 175.925 314.42 175.382 313.75 175.382C313.081 175.382 312.381 175.923 312.189 176.592C311.997 177.261 312.384 177.802 313.055 177.802C313.725 177.802 314.424 177.261 314.616 176.592Z" fill="white"/>
<path d="M474.462 247H0.537757C0.241007 247 0 246.758 0 246.464V246.281C0 245.985 0.242646 245.744 0.537757 245.744H474.462C474.759 245.744 475 245.986 475 246.281V246.464C475 246.76 474.757 247 474.462 247Z" fill="#2E3552"/>
<path d="M214.721 242.421V245.566C214.721 245.816 214.629 246.049 214.473 246.243C214.308 246.446 214.072 246.606 213.794 246.696C213.709 246.724 213.621 246.745 213.529 246.758C213.445 246.771 213.362 246.778 213.273 246.778H153.476C152.705 246.778 152.069 246.266 152.029 245.628C152.029 245.607 152.028 245.587 152.028 245.566V242.421C152.028 242.4 152.028 242.38 152.029 242.359C152.069 241.721 152.703 241.209 153.476 241.209H213.275C213.362 241.209 213.447 241.216 213.53 241.229C213.622 241.242 213.711 241.263 213.796 241.291C214.073 241.381 214.311 241.541 214.475 241.744C214.629 241.938 214.721 242.171 214.721 242.421Z" fill="#FFB93E"/>
<path d="M185.358 246.778H153.322C152.633 246.778 152.067 246.266 152.031 245.628C152.031 245.607 152.03 245.587 152.03 245.566V242.421C152.03 242.4 152.03 242.38 152.031 242.359C152.066 241.721 152.633 241.209 153.322 241.209H181.424C181.872 242.848 182.918 245.116 185.358 246.778Z" fill="#FFA412"/>
<path d="M207.445 241.209H206.764V246.778H207.445V241.209Z" fill="#FFA412"/>
<path d="M205.144 241.209H204.464V246.778H205.144V241.209Z" fill="#FFA412"/>
<path d="M202.385 241.209H201.705V246.778H202.385V241.209Z" fill="#FFA412"/>
<path d="M198.157 241.209H197.476V246.778H198.157V241.209Z" fill="#FFA412"/>
<path d="M193.686 241.209H193.005V246.778H193.686V241.209Z" fill="#FFA412"/>
<path d="M186.83 241.209H186.149V246.778H186.83V241.209Z" fill="#FFA412"/>
<path d="M180.411 241.209H179.73V246.778H180.411V241.209Z" fill="#FFA412"/>
<path d="M174.679 241.209H173.999V246.778H174.679V241.209Z" fill="#FFA412"/>
<path d="M209.633 241.209H208.955V246.778H209.633V241.209Z" fill="#FFA412"/>
<path d="M211.081 241.209H210.401V246.778H211.081V241.209Z" fill="#FFA412"/>
<path d="M212.48 241.209H211.799V246.778H212.48V241.209Z" fill="#FFA412"/>
<path d="M213.529 241.229V246.758C213.445 246.771 213.362 246.778 213.273 246.778H212.848V241.209H213.273C213.362 241.209 213.445 241.216 213.529 241.229Z" fill="#FFA412"/>
<path d="M214.473 241.744V246.243C214.308 246.446 214.072 246.606 213.794 246.696V241.291C214.072 241.381 214.308 241.541 214.473 241.744Z" fill="#FFA412"/>
<path d="M208.327 236.852V239.997C208.327 240.247 208.235 240.479 208.079 240.674C207.915 240.878 207.677 241.037 207.4 241.127C207.315 241.155 207.227 241.176 207.136 241.189C207.053 241.202 206.969 241.209 206.881 241.209H147.081C146.311 241.209 145.675 240.697 145.637 240.059C145.637 240.038 145.635 240.018 145.635 239.997V236.852C145.635 236.83 145.637 236.811 145.637 236.789C145.676 236.152 146.311 235.64 147.081 235.64H206.881C206.918 235.64 206.958 235.641 206.995 235.643C207.012 235.643 207.028 235.645 207.045 235.646C207.063 235.648 207.081 235.649 207.099 235.653C207.112 235.654 207.125 235.656 207.136 235.658C207.228 235.671 207.317 235.692 207.4 235.72C207.413 235.723 207.425 235.728 207.438 235.733C207.45 235.738 207.463 235.741 207.474 235.746C207.499 235.756 207.523 235.766 207.546 235.775C207.559 235.782 207.574 235.788 207.587 235.795C207.6 235.802 207.612 235.806 207.623 235.813C207.646 235.824 207.669 235.836 207.691 235.849C207.717 235.864 207.741 235.878 207.764 235.895C207.784 235.906 207.802 235.919 207.82 235.932C207.822 235.932 207.822 235.934 207.823 235.936C207.835 235.944 207.848 235.954 207.859 235.963C207.895 235.991 207.932 236.022 207.964 236.053C207.974 236.063 207.984 236.073 207.994 236.081C208.004 236.091 208.012 236.101 208.022 236.111C208.04 236.13 208.058 236.152 208.076 236.173C208.237 236.367 208.327 236.601 208.327 236.852Z" fill="#FFB93E"/>
<path d="M178.963 241.209H146.927C146.239 241.209 145.673 240.697 145.637 240.059C145.637 240.038 145.635 240.018 145.635 239.997V236.852C145.635 236.83 145.637 236.811 145.637 236.789C145.671 236.152 146.239 235.64 146.927 235.64H175.028C175.041 235.685 175.055 235.731 175.068 235.777C175.537 237.403 176.591 239.593 178.963 241.209Z" fill="#FFA412"/>
<path d="M201.052 235.64H200.372V241.209H201.052V235.64Z" fill="#FFA412"/>
<path d="M198.75 235.64H198.07V241.209H198.75V235.64Z" fill="#FFA412"/>
<path d="M195.993 235.64H195.312V241.209H195.993V235.64Z" fill="#FFA412"/>
<path d="M191.763 235.64H191.082V241.209H191.763V235.64Z" fill="#FFA412"/>
<path d="M187.292 235.64H186.611V241.209H187.292V235.64Z" fill="#FFA412"/>
<path d="M180.437 235.64H179.757V241.209H180.437V235.64Z" fill="#FFA412"/>
<path d="M174.017 235.64H173.338V241.209H174.017V235.64Z" fill="#FFA412"/>
<path d="M168.287 235.64H167.606V241.209H168.287V235.64Z" fill="#FFA412"/>
<path d="M203.239 235.64H202.561V241.209H203.239V235.64Z" fill="#FFA412"/>
<path d="M204.687 235.64H204.008V241.209H204.687V235.64Z" fill="#FFA412"/>
<path d="M206.084 235.64H205.405V241.209H206.084V235.64Z" fill="#FFA412"/>
<path d="M207.135 235.659V241.189C207.051 241.202 206.968 241.209 206.879 241.209H206.454V235.64H206.879C206.968 235.64 207.053 235.646 207.135 235.659Z" fill="#FFA412"/>
<path d="M208.079 236.174V240.672C207.915 240.877 207.677 241.035 207.4 241.125V235.72C207.677 235.811 207.915 235.972 208.079 236.174Z" fill="#FFA412"/>
<path d="M211.417 231.42V234.565C211.417 234.815 211.325 235.048 211.17 235.242C211.004 235.447 210.768 235.605 210.491 235.695C210.406 235.723 210.317 235.744 210.227 235.757C210.143 235.77 210.06 235.777 209.971 235.777H150.172C149.933 235.777 149.705 235.728 149.505 235.64C149.082 235.455 148.78 235.098 148.731 234.681C148.729 234.663 148.728 234.645 148.726 234.627C148.726 234.606 148.724 234.586 148.724 234.565V231.42C148.724 231.399 148.724 231.379 148.726 231.358C148.765 230.72 149.4 230.208 150.17 230.208H209.969C210.056 230.208 210.142 230.215 210.225 230.228C210.317 230.241 210.406 230.262 210.489 230.29C210.766 230.38 211.004 230.54 211.168 230.743C211.325 230.936 211.417 231.17 211.417 231.42Z" fill="#FFB93E"/>
<path d="M182.052 235.777H150.016C149.801 235.777 149.6 235.728 149.421 235.64C149.042 235.455 148.773 235.098 148.731 234.681C148.729 234.663 148.728 234.645 148.726 234.627C148.726 234.606 148.724 234.586 148.724 234.565V231.42C148.724 231.399 148.724 231.379 148.726 231.358C148.76 230.72 149.328 230.208 150.016 230.208H178.119C178.555 231.803 179.557 233.991 181.857 235.64C181.921 235.685 181.986 235.731 182.052 235.777Z" fill="#FFA412"/>
<path d="M204.139 230.208H203.461V235.777H204.139V230.208Z" fill="#FFA412"/>
<path d="M201.841 230.208H201.16V235.777H201.841V230.208Z" fill="#FFA412"/>
<path d="M199.08 230.208H198.401V235.777H199.08V230.208Z" fill="#FFA412"/>
<path d="M194.853 230.208H194.173V235.777H194.853V230.208Z" fill="#FFA412"/>
<path d="M190.379 230.208H189.7V235.777H190.379V230.208Z" fill="#FFA412"/>
<path d="M183.526 230.208H182.846V235.777H183.526V230.208Z" fill="#FFA412"/>
<path d="M177.107 230.208H176.427V235.777H177.107V230.208Z" fill="#FFA412"/>
<path d="M171.376 230.208H170.695V235.777H171.376V230.208Z" fill="#FFA412"/>
<path d="M206.33 230.208H205.651V235.777H206.33V230.208Z" fill="#FFA412"/>
<path d="M207.776 230.208H207.097V235.777H207.776V230.208Z" fill="#FFA412"/>
<path d="M209.173 230.208H208.494V235.777H209.173V230.208Z" fill="#FFA412"/>
<path d="M210.225 230.228V235.757C210.142 235.77 210.058 235.777 209.969 235.777H209.545V230.208H209.969C210.058 230.208 210.142 230.215 210.225 230.228Z" fill="#FFA412"/>
<path d="M211.17 230.743V235.24C211.006 235.445 210.768 235.604 210.491 235.694V230.288C210.768 230.378 211.004 230.538 211.17 230.743Z" fill="#FFA412"/>
<path d="M212.85 225.852V228.997C212.85 229.247 212.758 229.479 212.603 229.674C212.439 229.878 212.201 230.037 211.924 230.127C211.839 230.155 211.75 230.176 211.66 230.189C211.576 230.202 211.493 230.209 211.404 230.209H151.603C150.833 230.209 150.197 229.697 150.157 229.059C150.157 229.038 150.156 229.018 150.156 228.997V225.852C150.156 225.83 150.156 225.811 150.157 225.789C150.193 225.199 150.739 224.718 151.431 224.648C151.487 224.641 151.544 224.64 151.602 224.64H211.401C211.488 224.64 211.573 224.646 211.657 224.659C211.748 224.672 211.837 224.694 211.92 224.721C212.198 224.811 212.435 224.972 212.599 225.174C212.758 225.367 212.85 225.6 212.85 225.852Z" fill="#FFB93E"/>
<path d="M183.485 230.209H151.45C150.761 230.209 150.195 229.697 150.159 229.059C150.159 229.038 150.158 229.018 150.158 228.997V225.852C150.158 225.83 150.158 225.811 150.159 225.789C150.192 225.201 150.679 224.718 151.297 224.648C151.346 224.641 151.397 224.64 151.45 224.64H179.552C179.552 224.643 179.554 224.646 179.554 224.648C180.005 226.287 181.051 228.549 183.485 230.209Z" fill="#FFA412"/>
<path d="M205.574 224.64H204.894V230.209H205.574V224.64Z" fill="#FFA412"/>
<path d="M203.274 224.64H202.593V230.209H203.274V224.64Z" fill="#FFA412"/>
<path d="M200.515 224.64H199.834V230.209H200.515V224.64Z" fill="#FFA412"/>
<path d="M196.286 224.64H195.606V230.209H196.286V224.64Z" fill="#FFA412"/>
<path d="M191.814 224.64H191.133V230.209H191.814V224.64Z" fill="#FFA412"/>
<path d="M184.959 224.64H184.279V230.209H184.959V224.64Z" fill="#FFA412"/>
<path d="M178.54 224.64H177.86V230.209H178.54V224.64Z" fill="#FFA412"/>
<path d="M172.809 224.64H172.128V230.209H172.809V224.64Z" fill="#FFA412"/>
<path d="M207.763 224.64H207.084V230.209H207.763V224.64Z" fill="#FFA412"/>
<path d="M209.21 224.64H208.53V230.209H209.21V224.64Z" fill="#FFA412"/>
<path d="M210.607 224.64H209.927V230.209H210.607V224.64Z" fill="#FFA412"/>
<path d="M211.658 224.657V230.187C211.575 230.2 211.491 230.207 211.402 230.207H210.978V224.638H211.402C211.489 224.639 211.575 224.646 211.658 224.657Z" fill="#FFA412"/>
<path d="M212.601 225.174V229.672C212.437 229.877 212.199 230.035 211.922 230.125V224.72C212.199 224.81 212.437 224.97 212.601 225.174Z" fill="#FFA412"/>
<path d="M208.453 220.29V223.435C208.453 223.685 208.361 223.918 208.206 224.112C208.042 224.315 207.804 224.475 207.527 224.565C207.442 224.593 207.353 224.614 207.263 224.628C207.235 224.631 207.207 224.636 207.179 224.639C207.165 224.641 207.148 224.642 207.132 224.642C207.117 224.644 207.101 224.644 207.084 224.645C207.058 224.647 207.033 224.647 207.007 224.647H147.208C146.437 224.647 145.801 224.135 145.764 223.497C145.764 223.476 145.762 223.456 145.762 223.435V220.29C145.762 220.269 145.762 220.249 145.764 220.228C145.764 220.21 145.765 220.194 145.767 220.177C145.824 219.664 146.269 219.24 146.851 219.116C146.865 219.112 146.88 219.109 146.895 219.108C146.995 219.09 147.1 219.078 147.208 219.078H207.007C207.051 219.078 207.094 219.08 207.137 219.083C207.156 219.085 207.174 219.086 207.194 219.088C207.217 219.091 207.238 219.094 207.261 219.098C207.353 219.111 207.442 219.132 207.525 219.16C207.802 219.25 208.04 219.41 208.204 219.613C208.361 219.808 208.453 220.04 208.453 220.29Z" fill="#FFB93E"/>
<path d="M179.088 224.647H147.052C146.363 224.647 145.798 224.135 145.762 223.497C145.762 223.476 145.76 223.456 145.76 223.435V220.29C145.76 220.269 145.76 220.249 145.762 220.228C145.762 220.21 145.763 220.194 145.765 220.177C145.817 219.652 146.231 219.222 146.767 219.109C146.785 219.104 146.803 219.101 146.822 219.098C146.896 219.085 146.973 219.078 147.05 219.078H175.153C175.156 219.091 175.16 219.104 175.164 219.117C175.619 220.751 176.665 222.99 179.075 224.639C179.08 224.641 179.085 224.644 179.088 224.647Z" fill="#FFA412"/>
<path d="M201.177 219.078H200.496V224.647H201.177V219.078Z" fill="#FFA412"/>
<path d="M198.877 219.078H198.196V224.647H198.877V219.078Z" fill="#FFA412"/>
<path d="M196.117 219.078H195.437V224.647H196.117V219.078Z" fill="#FFA412"/>
<path d="M191.889 219.078H191.209V224.647H191.889V219.078Z" fill="#FFA412"/>
<path d="M187.418 219.078H186.738V224.647H187.418V219.078Z" fill="#FFA412"/>
<path d="M180.562 219.078H179.881V224.647H180.562V219.078Z" fill="#FFA412"/>
<path d="M174.143 219.078H173.463V224.647H174.143V219.078Z" fill="#FFA412"/>
<path d="M168.411 219.078H167.731V224.647H168.411V219.078Z" fill="#FFA412"/>
<path d="M203.367 219.078H202.687V224.647H203.367V219.078Z" fill="#FFA412"/>
<path d="M204.813 219.078H204.133V224.647H204.813V219.078Z" fill="#FFA412"/>
<path d="M206.208 219.078H205.53V224.647H206.208V219.078Z" fill="#FFA412"/>
<path d="M207.261 219.098V224.628C207.177 224.641 207.094 224.647 207.005 224.647H206.581V219.078H207.005C207.094 219.078 207.177 219.085 207.261 219.098Z" fill="#FFA412"/>
<path d="M208.205 219.613V224.111C208.041 224.315 207.804 224.474 207.527 224.564V219.158C207.804 219.25 208.04 219.41 208.205 219.613Z" fill="#FFA412"/>
<path d="M208.327 214.76V217.906C208.327 218.156 208.235 218.388 208.079 218.583C207.915 218.787 207.677 218.946 207.4 219.036C207.335 219.059 207.264 219.075 207.194 219.088H207.192C207.172 219.091 207.154 219.095 207.135 219.098C207.051 219.111 206.968 219.117 206.879 219.117H147.081C147.017 219.117 146.955 219.114 146.895 219.106C146.87 219.104 146.847 219.101 146.824 219.096C146.173 218.998 145.671 218.532 145.637 217.966C145.637 217.945 145.635 217.925 145.635 217.904V214.759C145.635 214.738 145.637 214.718 145.637 214.697C145.676 214.059 146.311 213.547 147.081 213.547H206.881C206.918 213.547 206.958 213.548 206.995 213.552C207.012 213.553 207.028 213.555 207.045 213.555C207.063 213.557 207.081 213.558 207.099 213.562C207.112 213.563 207.125 213.565 207.136 213.567C207.228 213.58 207.317 213.601 207.4 213.629C207.413 213.634 207.425 213.637 207.438 213.642C207.45 213.645 207.463 213.65 207.474 213.655C207.499 213.665 207.523 213.674 207.546 213.684C207.573 213.696 207.599 213.709 207.625 213.722C207.648 213.733 207.671 213.745 207.692 213.758C207.718 213.773 207.743 213.787 207.766 213.804C207.786 213.815 207.804 213.828 207.822 213.841C207.823 213.841 207.823 213.843 207.825 213.845C207.836 213.853 207.85 213.863 207.861 213.872C207.897 213.9 207.933 213.931 207.966 213.962C207.976 213.972 207.986 213.98 207.996 213.99C208.005 214 208.014 214.01 208.023 214.02C208.041 214.039 208.059 214.06 208.077 214.082C208.237 214.278 208.327 214.51 208.327 214.76Z" fill="#FFB93E"/>
<path d="M178.964 219.118H146.928C146.902 219.118 146.877 219.118 146.852 219.116C146.824 219.115 146.797 219.111 146.77 219.108C146.154 219.038 145.67 218.555 145.639 217.968C145.639 217.947 145.637 217.927 145.637 217.906V214.761C145.637 214.739 145.639 214.72 145.639 214.699C145.674 214.061 146.241 213.549 146.929 213.549H175.03C175.044 213.595 175.057 213.64 175.07 213.686C175.535 215.3 176.577 217.466 178.908 219.079C178.924 219.092 178.944 219.105 178.964 219.118Z" fill="#FFA412"/>
<path d="M201.052 213.549H200.372V219.118H201.052V213.549Z" fill="#FFA412"/>
<path d="M198.75 213.549H198.07V219.118H198.75V213.549Z" fill="#FFA412"/>
<path d="M195.993 213.549H195.312V219.118H195.993V213.549Z" fill="#FFA412"/>
<path d="M191.763 213.549H191.082V219.118H191.763V213.549Z" fill="#FFA412"/>
<path d="M187.292 213.549H186.611V219.118H187.292V213.549Z" fill="#FFA412"/>
<path d="M180.437 213.549H179.757V219.118H180.437V213.549Z" fill="#FFA412"/>
<path d="M174.017 213.549H173.338V219.118H174.017V213.549Z" fill="#FFA412"/>
<path d="M168.287 213.549H167.606V219.118H168.287V213.549Z" fill="#FFA412"/>
<path d="M203.239 213.549H202.561V219.118H203.239V213.549Z" fill="#FFA412"/>
<path d="M204.687 213.549H204.008V219.118H204.687V213.549Z" fill="#FFA412"/>
<path d="M206.084 213.549H205.405V219.118H206.084V213.549Z" fill="#FFA412"/>
<path d="M207.135 213.568V219.098C207.051 219.111 206.968 219.118 206.879 219.118H206.454V213.549H206.879C206.968 213.549 207.053 213.555 207.135 213.568Z" fill="#FFA412"/>
<path d="M208.079 214.084V218.581C207.915 218.786 207.677 218.944 207.4 219.034V213.629C207.677 213.72 207.915 213.881 208.079 214.084Z" fill="#FFA412"/>
<path d="M211.417 209.329V212.474C211.417 212.724 211.325 212.957 211.17 213.151C211.004 213.356 210.768 213.514 210.491 213.604C210.406 213.632 210.317 213.653 210.227 213.667C210.143 213.68 210.06 213.686 209.971 213.686H150.172C149.933 213.686 149.705 213.637 149.505 213.549C149.082 213.364 148.78 213.007 148.731 212.59C148.729 212.572 148.728 212.554 148.726 212.536C148.726 212.515 148.724 212.496 148.724 212.474V209.329C148.724 209.308 148.724 209.288 148.726 209.267C148.765 208.629 149.4 208.117 150.17 208.117H209.969C210.056 208.117 210.142 208.124 210.225 208.137C210.317 208.15 210.406 208.171 210.489 208.199C210.766 208.289 211.004 208.449 211.168 208.652C211.325 208.847 211.417 209.079 211.417 209.329Z" fill="#FFB93E"/>
<path d="M182.052 213.686H150.016C149.801 213.686 149.6 213.637 149.421 213.549C149.042 213.364 148.773 213.007 148.731 212.59C148.729 212.572 148.728 212.554 148.726 212.536C148.726 212.515 148.724 212.496 148.724 212.474V209.329C148.724 209.308 148.724 209.288 148.726 209.267C148.76 208.629 149.328 208.117 150.016 208.117H178.119C178.555 209.712 179.557 211.9 181.857 213.549C181.921 213.595 181.986 213.64 182.052 213.686Z" fill="#FFA412"/>
<path d="M204.139 208.117H203.461V213.686H204.139V208.117Z" fill="#FFA412"/>
<path d="M201.841 208.117H201.16V213.686H201.841V208.117Z" fill="#FFA412"/>
<path d="M199.08 208.117H198.401V213.686H199.08V208.117Z" fill="#FFA412"/>
<path d="M194.853 208.117H194.173V213.686H194.853V208.117Z" fill="#FFA412"/>
<path d="M190.379 208.117H189.7V213.686H190.379V208.117Z" fill="#FFA412"/>
<path d="M183.526 208.117H182.846V213.686H183.526V208.117Z" fill="#FFA412"/>
<path d="M177.107 208.117H176.427V213.686H177.107V208.117Z" fill="#FFA412"/>
<path d="M171.376 208.117H170.695V213.686H171.376V208.117Z" fill="#FFA412"/>
<path d="M206.33 208.117H205.651V213.686H206.33V208.117Z" fill="#FFA412"/>
<path d="M207.776 208.117H207.097V213.686H207.776V208.117Z" fill="#FFA412"/>
<path d="M209.173 208.117H208.494V213.686H209.173V208.117Z" fill="#FFA412"/>
<path d="M210.225 208.137V213.667C210.142 213.68 210.058 213.686 209.969 213.686H209.545V208.117H209.969C210.058 208.117 210.142 208.124 210.225 208.137Z" fill="#FFA412"/>
<path d="M211.17 208.652V213.15C211.006 213.354 210.768 213.513 210.491 213.603V208.197C210.768 208.289 211.004 208.449 211.17 208.652Z" fill="#FFA412"/>
<path d="M216.303 203.76V206.905C216.303 207.155 216.211 207.387 216.055 207.582C215.891 207.785 215.654 207.945 215.377 208.035C215.291 208.063 215.203 208.084 215.113 208.097C215.029 208.11 214.945 208.117 214.857 208.117H155.058C154.287 208.117 153.651 207.605 153.612 206.967C153.612 206.946 153.61 206.926 153.61 206.905V203.76C153.61 203.739 153.61 203.719 153.612 203.698C153.648 203.107 154.194 202.626 154.886 202.556C154.941 202.549 154.999 202.548 155.056 202.548H214.855C214.942 202.548 215.027 202.554 215.111 202.567C215.203 202.581 215.291 202.602 215.375 202.63C215.652 202.72 215.89 202.88 216.054 203.083C216.213 203.277 216.303 203.51 216.303 203.76Z" fill="#FFB93E"/>
<path d="M186.94 208.117H154.904C154.215 208.117 153.65 207.605 153.614 206.967C153.614 206.946 153.612 206.926 153.612 206.905V203.76C153.612 203.739 153.612 203.719 153.614 203.698C153.646 203.107 154.133 202.626 154.751 202.556C154.801 202.549 154.851 202.548 154.904 202.548H183.007C183.007 202.551 183.008 202.554 183.008 202.556C183.457 204.195 184.505 206.457 186.94 208.117Z" fill="#FFA412"/>
<path d="M209.027 202.548H208.348V208.117H209.027V202.548Z" fill="#FFA412"/>
<path d="M206.727 202.548H206.048V208.117H206.727V202.548Z" fill="#FFA412"/>
<path d="M203.967 202.548H203.289V208.117H203.967V202.548Z" fill="#FFA412"/>
<path d="M199.741 202.548H199.06V208.117H199.741V202.548Z" fill="#FFA412"/>
<path d="M195.267 202.548H194.588V208.117H195.267V202.548Z" fill="#FFA412"/>
<path d="M188.412 202.548H187.733V208.117H188.412V202.548Z" fill="#FFA412"/>
<path d="M181.995 202.548H181.314V208.117H181.995V202.548Z" fill="#FFA412"/>
<path d="M176.263 202.548H175.583V208.117H176.263V202.548Z" fill="#FFA412"/>
<path d="M211.217 202.548H210.538V208.117H211.217V202.548Z" fill="#FFA412"/>
<path d="M212.665 202.548H211.984V208.117H212.665V202.548Z" fill="#FFA412"/>
<path d="M214.062 202.548H213.381V208.117H214.062V202.548Z" fill="#FFA412"/>
<path d="M215.113 202.567V208.097C215.029 208.11 214.946 208.117 214.857 208.117H214.432V202.548H214.857C214.944 202.548 215.029 202.554 215.113 202.567Z" fill="#FFA412"/>
<path d="M216.055 203.083V207.58C215.892 207.783 215.654 207.943 215.377 208.033V202.628C215.655 202.72 215.892 202.88 216.055 203.083Z" fill="#FFA412"/>
<path d="M208.453 198.199V201.344C208.453 201.595 208.361 201.827 208.206 202.021C208.042 202.226 207.804 202.385 207.527 202.475C207.442 202.502 207.353 202.524 207.263 202.537C207.235 202.54 207.207 202.545 207.179 202.548C207.156 202.551 207.135 202.551 207.112 202.553C207.101 202.553 207.089 202.555 207.079 202.555C207.056 202.555 207.033 202.556 207.009 202.556H147.208C146.437 202.556 145.801 202.044 145.764 201.407C145.764 201.385 145.762 201.366 145.762 201.344V198.199C145.762 198.178 145.762 198.158 145.764 198.137C145.803 197.499 146.437 196.987 147.208 196.987H207.007C207.033 196.987 207.058 196.987 207.084 196.989C207.145 196.992 207.204 196.997 207.263 197.007C207.355 197.02 207.443 197.041 207.527 197.069C207.57 197.084 207.612 197.099 207.653 197.116C207.679 197.128 207.704 197.138 207.727 197.149C207.729 197.149 207.732 197.151 207.735 197.152C207.76 197.164 207.784 197.177 207.807 197.19C207.812 197.192 207.815 197.195 207.819 197.197C207.842 197.208 207.863 197.223 207.884 197.236C207.935 197.269 207.983 197.303 208.029 197.341C208.043 197.352 208.057 197.363 208.07 197.377C208.071 197.378 208.075 197.38 208.076 197.383C208.084 197.39 208.093 197.398 208.101 197.406C208.102 197.408 208.104 197.409 208.106 197.411C208.12 197.426 208.135 197.44 208.148 197.455C208.168 197.476 208.188 197.498 208.206 197.52C208.361 197.717 208.453 197.949 208.453 198.199Z" fill="#FFB93E"/>
<path d="M179.088 202.556H147.052C146.363 202.556 145.798 202.044 145.762 201.407C145.762 201.385 145.76 201.366 145.76 201.344V198.199C145.76 198.178 145.76 198.158 145.762 198.137C145.796 197.499 146.363 196.987 147.052 196.987H175.155C175.166 197.03 175.178 197.072 175.191 197.116C175.656 198.741 176.707 200.929 179.075 202.548C179.08 202.551 179.085 202.555 179.088 202.556Z" fill="#FFA412"/>
<path d="M201.177 196.987H200.496V202.556H201.177V196.987Z" fill="#FFA412"/>
<path d="M198.877 196.987H198.196V202.556H198.877V196.987Z" fill="#FFA412"/>
<path d="M196.117 196.987H195.437V202.556H196.117V196.987Z" fill="#FFA412"/>
<path d="M191.889 196.987H191.209V202.556H191.889V196.987Z" fill="#FFA412"/>
<path d="M187.418 196.987H186.738V202.556H187.418V196.987Z" fill="#FFA412"/>
<path d="M180.562 196.987H179.881V202.556H180.562V196.987Z" fill="#FFA412"/>
<path d="M174.143 196.987H173.463V202.556H174.143V196.987Z" fill="#FFA412"/>
<path d="M168.411 196.987H167.731V202.556H168.411V196.987Z" fill="#FFA412"/>
<path d="M203.367 196.987H202.687V202.556H203.367V196.987Z" fill="#FFA412"/>
<path d="M204.813 196.987H204.133V202.556H204.813V196.987Z" fill="#FFA412"/>
<path d="M206.208 196.987H205.53V202.556H206.208V196.987Z" fill="#FFA412"/>
<path d="M207.261 197.007V202.537C207.177 202.55 207.094 202.556 207.005 202.556H206.581V196.987H207.005C207.094 196.987 207.177 196.994 207.261 197.007Z" fill="#FFA412"/>
<path d="M208.205 197.524V202.022C208.041 202.226 207.804 202.385 207.527 202.475V197.069C207.804 197.159 208.04 197.32 208.205 197.524Z" fill="#FFA412"/>
<path d="M212.85 192.759V195.904C212.85 196.154 212.758 196.386 212.602 196.581C212.439 196.785 212.201 196.944 211.924 197.034C211.838 197.062 211.75 197.083 211.66 197.096C211.576 197.109 211.493 197.116 211.404 197.116H151.603C151.372 197.116 151.151 197.07 150.957 196.987C150.521 196.803 150.21 196.44 150.162 196.015C150.16 195.999 150.159 195.982 150.159 195.966C150.159 195.945 150.157 195.925 150.157 195.904V192.759C150.157 192.738 150.157 192.718 150.159 192.697C150.195 192.106 150.741 191.625 151.433 191.555C151.488 191.548 151.546 191.547 151.603 191.547H211.402C211.489 191.547 211.575 191.553 211.658 191.567C211.75 191.58 211.838 191.601 211.922 191.629C212.199 191.719 212.437 191.879 212.601 192.082C212.758 192.276 212.85 192.509 212.85 192.759Z" fill="#FFB93E"/>
<path d="M183.485 197.116H151.449C151.242 197.116 151.046 197.07 150.872 196.987C150.482 196.803 150.205 196.44 150.162 196.015C150.16 195.999 150.159 195.982 150.159 195.966C150.159 195.945 150.157 195.925 150.157 195.904V192.759C150.157 192.738 150.157 192.718 150.159 192.697C150.192 192.108 150.678 191.625 151.297 191.555C151.346 191.548 151.397 191.547 151.449 191.547H179.552C179.552 191.55 179.553 191.553 179.553 191.555C179.991 193.151 180.998 195.341 183.301 196.987C183.36 197.031 183.423 197.073 183.485 197.116Z" fill="#FFA412"/>
<path d="M205.574 191.547H204.894V197.116H205.574V191.547Z" fill="#FFA412"/>
<path d="M203.274 191.547H202.593V197.116H203.274V191.547Z" fill="#FFA412"/>
<path d="M200.514 191.547H199.834V197.116H200.514V191.547Z" fill="#FFA412"/>
<path d="M196.286 191.547H195.606V197.116H196.286V191.547Z" fill="#FFA412"/>
<path d="M191.814 191.547H191.133V197.116H191.814V191.547Z" fill="#FFA412"/>
<path d="M184.959 191.547H184.278V197.116H184.959V191.547Z" fill="#FFA412"/>
<path d="M178.54 191.547H177.86V197.116H178.54V191.547Z" fill="#FFA412"/>
<path d="M172.808 191.547H172.128V197.116H172.808V191.547Z" fill="#FFA412"/>
<path d="M207.763 191.547H207.084V197.116H207.763V191.547Z" fill="#FFA412"/>
<path d="M209.21 191.547H208.53V197.116H209.21V191.547Z" fill="#FFA412"/>
<path d="M210.607 191.547H209.927V197.116H210.607V191.547Z" fill="#FFA412"/>
<path d="M211.658 191.567V197.096C211.574 197.109 211.491 197.116 211.402 197.116H210.978V191.547H211.402C211.489 191.547 211.574 191.553 211.658 191.567Z" fill="#FFA412"/>
<path d="M212.601 192.082V196.579C212.437 196.784 212.199 196.942 211.922 197.032V191.627C212.199 191.719 212.437 191.879 212.601 192.082Z" fill="#FFA412"/>
<path d="M214.721 187.198V190.343C214.721 190.594 214.629 190.826 214.473 191.02C214.309 191.225 214.072 191.384 213.794 191.474C213.709 191.501 213.621 191.523 213.529 191.536C213.501 191.539 213.473 191.544 213.445 191.547C213.43 191.549 213.414 191.55 213.398 191.55C213.383 191.552 213.367 191.552 213.35 191.554C213.324 191.555 213.299 191.555 213.273 191.555H153.476C152.705 191.555 152.069 191.043 152.029 190.406C152.029 190.384 152.028 190.365 152.028 190.343V187.198C152.028 187.177 152.028 187.157 152.029 187.136C152.069 186.498 152.703 185.986 153.476 185.986H213.275C213.362 185.986 213.447 185.993 213.53 186.006C213.622 186.019 213.711 186.04 213.796 186.068C214.073 186.158 214.311 186.318 214.475 186.521C214.629 186.716 214.721 186.948 214.721 187.198Z" fill="#FFB93E"/>
<path d="M185.358 191.555H153.322C152.633 191.555 152.067 191.043 152.031 190.406C152.031 190.384 152.03 190.365 152.03 190.343V187.198C152.03 187.177 152.03 187.157 152.031 187.136C152.066 186.498 152.633 185.986 153.322 185.986H181.424C181.872 187.623 182.915 189.885 185.346 191.547C185.348 191.55 185.353 191.554 185.358 191.555Z" fill="#FFA412"/>
<path d="M207.443 185.986H206.764V191.555H207.443V185.986Z" fill="#FFA412"/>
<path d="M205.143 185.986H204.464V191.555H205.143V185.986Z" fill="#FFA412"/>
<path d="M202.385 185.986H201.705V191.555H202.385V185.986Z" fill="#FFA412"/>
<path d="M198.155 185.986H197.476V191.555H198.155V185.986Z" fill="#FFA412"/>
<path d="M193.684 185.986H193.005V191.555H193.684V185.986Z" fill="#FFA412"/>
<path d="M186.828 185.986H186.149V191.555H186.828V185.986Z" fill="#FFA412"/>
<path d="M180.409 185.986H179.73V191.555H180.409V185.986Z" fill="#FFA412"/>
<path d="M174.679 185.986H173.999V191.555H174.679V185.986Z" fill="#FFA412"/>
<path d="M209.635 185.986H208.955V191.555H209.635V185.986Z" fill="#FFA412"/>
<path d="M211.079 185.986H210.401V191.555H211.079V185.986Z" fill="#FFA412"/>
<path d="M212.48 185.986H211.799V191.555H212.48V185.986Z" fill="#FFA412"/>
<path d="M213.529 186.006V191.536C213.445 191.549 213.362 191.555 213.273 191.555H212.848V185.986H213.273C213.362 185.986 213.447 185.993 213.529 186.006Z" fill="#FFA412"/>
<path d="M214.473 186.521V191.019C214.309 191.222 214.072 191.382 213.794 191.472V186.066C214.072 186.158 214.308 186.318 214.473 186.521Z" fill="#FFA412"/>
<path d="M176.671 222.576C178.958 207.086 168.224 192.68 152.695 190.398C137.167 188.117 122.725 198.824 120.438 214.314C118.151 229.804 128.886 244.211 144.414 246.492C159.942 248.774 174.385 238.066 176.671 222.576Z" fill="#E2810E"/>
<path d="M166.175 238.488C177.274 227.416 177.274 209.465 166.175 198.393C155.077 187.321 137.082 187.321 125.983 198.393C114.884 209.465 114.884 227.416 125.983 238.488C137.082 249.56 155.077 249.56 166.175 238.488Z" fill="#FFB93E"/>
<path d="M146.081 244.606C139.164 244.606 132.662 241.918 127.771 237.04C122.881 232.161 120.187 225.674 120.187 218.774C120.187 211.874 122.881 205.387 127.771 200.508C132.662 195.63 139.164 192.942 146.081 192.942C152.998 192.942 159.501 195.63 164.391 200.508C169.282 205.387 171.976 211.874 171.976 218.774C171.976 225.674 169.282 232.161 164.391 237.04C159.501 241.92 152.998 244.606 146.081 244.606ZM146.081 194.485C132.655 194.485 121.733 205.381 121.733 218.774C121.733 232.167 132.655 243.063 146.081 243.063C159.507 243.063 170.43 232.167 170.43 218.774C170.431 205.382 159.507 194.485 146.081 194.485Z" fill="#FFA412"/>
<path d="M149.646 226.273C149.711 225.715 149.692 225.216 149.585 224.773C149.478 224.33 149.265 223.914 148.949 223.527C148.632 223.139 148.208 222.766 147.678 222.408C147.147 222.05 146.491 221.682 145.708 221.307C144.363 220.65 143.15 219.986 142.069 219.314C140.987 218.641 140.081 217.905 139.35 217.106C138.617 216.306 138.082 215.408 137.743 214.413C137.403 213.419 137.312 212.271 137.466 210.971C137.6 209.844 137.923 208.84 138.433 207.958C138.945 207.078 139.613 206.336 140.44 205.734C141.266 205.132 142.224 204.677 143.312 204.37C144.401 204.062 145.598 203.923 146.899 203.957L147.406 199.7L150.841 200.107L150.328 204.425C151.539 204.729 152.616 205.187 153.561 205.796C154.503 206.406 155.281 207.144 155.889 208.009C156.497 208.874 156.927 209.863 157.179 210.976C157.432 212.088 157.479 213.308 157.32 214.634L151.116 213.9C151.305 212.309 151.093 211.075 150.478 210.204C149.864 209.332 148.962 208.823 147.775 208.683C147.131 208.606 146.565 208.63 146.08 208.755C145.593 208.879 145.181 209.078 144.844 209.355C144.506 209.631 144.24 209.973 144.047 210.38C143.853 210.787 143.727 211.237 143.668 211.728C143.609 212.219 143.629 212.672 143.724 213.085C143.819 213.501 144.022 213.897 144.334 214.278C144.643 214.657 145.071 215.03 145.616 215.398C146.16 215.766 146.842 216.159 147.663 216.579C148.99 217.261 150.19 217.941 151.264 218.618C152.336 219.297 153.239 220.04 153.971 220.846C154.702 221.652 155.238 222.554 155.576 223.548C155.915 224.544 156.007 225.684 155.854 226.971C155.715 228.137 155.387 229.163 154.869 230.041C154.351 230.921 153.679 231.655 152.854 232.244C152.029 232.833 151.067 233.271 149.965 233.557C148.865 233.844 147.663 233.971 146.36 233.937L145.89 237.896L142.476 237.492L142.945 233.552C141.771 233.292 140.653 232.898 139.591 232.368C138.528 231.838 137.613 231.15 136.843 230.298C136.074 229.447 135.498 228.42 135.12 227.218C134.739 226.016 134.644 224.619 134.834 223.028L141.04 223.762C140.928 224.704 140.966 225.506 141.156 226.166C141.346 226.827 141.64 227.373 142.038 227.804C142.437 228.234 142.911 228.559 143.456 228.778C144.004 228.998 144.57 229.141 145.158 229.212C145.83 229.292 146.432 229.276 146.96 229.163C147.488 229.05 147.942 228.862 148.323 228.597C148.703 228.332 149.003 228.001 149.224 227.604C149.449 227.207 149.588 226.763 149.646 226.273Z" fill="#FFA412"/>
<path d="M123.015 120.502C123.1 120.162 115.59 123.888 115.21 124.31C111.688 128.207 112.691 133.294 114.706 133.341C115.998 133.372 115.749 135.516 115.749 135.516L130.149 129.44C130.149 129.44 128.414 119.354 123.015 120.502Z" fill="#2C3A64"/>
<path d="M124.789 121.289C124.789 121.289 125.304 115.693 119.036 115.693C119.036 115.693 120.935 116.207 121.918 117.236C121.918 117.236 117.921 114.895 113.572 118.492C109.222 122.088 111.924 131.11 110.601 132.824C109.278 134.536 104.126 134.88 104.756 140.418C105.386 145.957 121.105 152.894 120.095 157.476C120.095 157.476 126.255 148.443 121.851 144.32C121.851 144.32 123.999 146.338 124.217 148.736C124.217 148.736 124.799 144.054 121.813 142.557C119.17 141.232 117.005 136.385 117.234 135.518C117.462 134.649 124.789 121.289 124.789 121.289Z" fill="#2C3A64"/>
<path d="M119.098 147.614C118.133 142.971 112.098 141.531 109.243 145.323C108.73 146.005 108.368 146.809 108.251 147.761C107.599 153.031 116.046 174.496 117.256 176.439C119.457 179.976 132.424 192.105 132.424 192.105L134.815 190.661C134.815 190.661 125.617 175.129 124.192 173.675C122.545 171.995 120.933 156.43 119.098 147.614Z" fill="#ED985F"/>
<path d="M131.514 190.67C131.514 190.67 135.002 188.385 136.323 188.532C137.643 188.679 141.464 189.777 141.512 190.336C141.56 190.896 137.254 191.246 136.966 191.553C136.677 191.859 133.754 193.807 132.695 193.195C131.632 192.585 131.514 190.67 131.514 190.67Z" fill="#ED985F"/>
<path d="M107.184 242.282L104.067 241.826C104.067 241.826 93.591 233.521 92.0302 218.022C91.8711 216.446 91.8384 214.845 91.9564 213.23C91.9695 213.044 91.9498 212.857 91.8482 212.702C91.8482 212.7 91.8465 212.7 91.8449 212.697C91.5088 212.185 90.6743 210.9 89.5447 209.073C88.4315 207.274 86.5247 203.87 84.4278 200.051C80.6504 193.174 76.2516 184.95 74.7433 182.33C69.9362 173.981 72.2529 168.368 72.2529 168.368C72.2529 168.368 85.6623 167.045 89.3365 163.839L90.6595 165.873C90.6595 165.873 93.5647 178.704 93.427 178.765C93.5697 179.201 93.7156 179.645 93.8631 180.098C96.1568 187.157 98.7931 195.982 100.231 203.169C101.039 207.212 101.467 210.735 101.238 213.136C101.159 213.958 101.254 215.224 101.475 216.786C102.775 225.992 107.184 242.282 107.184 242.282Z" fill="#2B478B"/>
<path d="M113.721 246.216H100.721C100.721 246.216 100.41 244.24 101.088 242.74C101.739 241.301 102.666 241.255 101.207 239C102.033 239.849 104.687 240.199 106.568 239.947C106.797 240.32 108.053 242.817 108.822 243.369C109.671 243.979 113.459 243.761 113.721 246.216Z" fill="#233862"/>
<path d="M93.8648 180.096C92.7286 186.344 90.0464 196.743 84.4278 200.051C80.6504 193.174 76.2516 184.95 74.7433 182.33C69.9362 173.981 72.2529 168.368 72.2529 168.368C72.2529 168.368 85.6623 167.045 89.3365 163.839L90.6595 165.873C90.6595 165.873 93.5647 178.704 93.427 178.765C93.5713 179.2 93.7172 179.643 93.8648 180.096Z" fill="#233862"/>
<path d="M117.706 144.734C117.706 144.734 119.544 146.641 120.384 148.925C120.384 148.925 117.452 157.325 110.599 158.378C110.599 158.378 116.021 144.731 117.706 144.734Z" fill="#ED7D2B"/>
<path d="M84.7475 169.33L84.7918 166.905C79.9471 167.515 68.0885 161.13 68.0885 161.13C68.0885 161.13 63.0208 164.493 62.3273 174.095C61.9879 178.782 59.8468 198.605 59.609 204.524C59.5221 206.67 59.4943 208.201 59.4844 208.812C59.4861 208.816 59.4861 208.817 59.4844 208.819C59.4812 209.005 59.3943 209.17 59.2779 209.318C58.2761 210.588 57.4055 211.934 56.653 213.331C49.2605 227.052 53.1264 245.694 53.1264 245.694L54.843 245.259C54.843 245.259 61.0928 225.933 65.1784 217.574C65.8719 216.156 66.5015 215.053 67.0278 214.414C68.564 212.553 70.1838 209.393 71.7791 205.589C74.7974 198.397 77.7255 188.909 79.8159 181.563C79.9651 181.589 84.7475 169.33 84.7475 169.33Z" fill="#2B478B"/>
<path d="M113.096 153.142C105.177 151.329 110.237 140.228 110.696 140.423C111.793 140.2 114.203 138.279 116.359 134.523L116.651 134.775L121.515 139.029C121.515 139.029 120.39 140.684 119.444 142.305C118.705 143.574 118.077 144.824 118.177 145.253C118.567 145.562 115.208 153.626 113.096 153.142Z" fill="#FFB27D"/>
<path d="M121.513 139.032C121.513 139.032 120.389 140.684 119.443 142.306C116.419 140.447 116.416 136.711 116.649 134.776L121.513 139.032Z" fill="#ED985F"/>
<path d="M121.648 141.164C121.648 141.164 114.304 137.088 116.919 132.566C119.534 128.044 120.348 124.472 125.146 126.883C129.945 129.293 129.85 131.539 129.345 133.259C128.84 134.98 123.625 142.108 121.648 141.164Z" fill="#FFB27D"/>
<path d="M130.586 130.621C130.25 128.613 129.227 128.421 128.514 128.555C125.802 124.082 121.372 125.827 121.372 125.827C119.007 128.789 115.585 129.295 115.585 129.295C115.585 129.295 116.437 130.876 119.948 131.856C121.02 132.155 122.236 131.974 123.41 131.58C120.974 132.934 118.428 133.454 118.428 133.454C123.055 133.876 127.457 129.656 127.912 129.206C128.126 129.861 128.501 131.23 128.276 132.231C127.971 133.591 126.761 136.054 127.501 136.373C127.501 136.372 131.09 133.632 130.586 130.621Z" fill="#2C3A64"/>
<path d="M63.4651 246.215H50.4655C50.4655 246.215 50.154 244.24 50.8328 242.74C51.4836 241.301 52.5018 240.646 52.2591 238.906C53.0854 239.755 54.4315 240.705 56.3103 240.453C56.5399 240.826 57.7974 242.818 58.5663 243.37C59.4156 243.978 63.2045 243.761 63.4651 246.215Z" fill="#233862"/>
<path d="M114.027 161.943C112.355 162.525 110.007 162.844 107.605 163.104C104.187 163.477 100.657 163.73 98.8095 164.466C98.1357 164.735 97.6848 165.067 97.5438 165.49C96.7421 167.894 93.2106 171.604 93.2106 171.604C70.574 170.577 68.0885 161.13 68.0885 161.13C83.3178 143.463 109.106 138.35 109.106 138.35C109.106 138.35 110.947 137.572 115.587 141.248C118.682 143.703 118.274 144.645 118.274 144.645C118.274 144.645 118.951 160.23 114.027 161.943Z" fill="#F99746"/>
<path d="M107.605 163.104C104.187 163.477 100.657 163.731 98.8095 164.467C98.0537 153.204 103.382 144.732 103.382 144.732C103.382 144.732 106.856 158.842 107.605 163.104Z" fill="#ED7D2B"/>
<path d="M111.124 142.556C111.124 142.556 102.557 143.4 101.871 148.954C101.184 154.507 110.084 177.126 111.358 179.174C113.678 182.903 127.343 195.683 127.343 195.683L129.862 194.16C129.862 194.16 120.169 177.792 118.669 176.259C116.313 173.855 114.024 144.479 111.124 142.556Z" fill="#FFB27D"/>
<path d="M102.116 152.293C102.139 152.419 110.024 154.863 115.096 152.293C115.096 152.293 116.182 140.616 110.125 141.248C104.067 141.883 100.48 143.785 100.328 146.678C100.177 149.572 102.116 152.293 102.116 152.293Z" fill="#F99746"/>
<path d="M126.565 194.058C126.565 194.058 129.639 191.243 130.965 191.176C132.291 191.109 136.241 191.577 136.377 192.123C136.513 192.67 132.321 193.707 132.087 194.055C131.85 194.403 129.28 196.794 128.135 196.363C126.991 195.931 126.565 194.058 126.565 194.058Z" fill="#FFB27D"/>
</svg>
