<svg width="524" height="278" viewBox="0 0 524 278" fill="none" xmlns="http://www.w3.org/2000/svg">
<g clip-path="url(#clip0_1715_7966)">
<g clip-path="url(#clip1_1715_7966)">
<path d="M61.634 232.748C61.634 232.748 29.4334 157.132 67.3355 121.045C88.4851 100.91 117.36 136.66 138.804 82.6136C151.282 51.162 194.955 41.6157 216.792 84.5543C238.631 127.495 257.404 127.277 272.473 119.334C289.754 110.225 297.346 82.8059 324.394 88.6048C355.657 95.305 351.471 135.932 374.509 128.857C418.933 115.215 451.848 193.153 421.139 233.282L61.634 232.748Z" fill="#E9F3FE"/>
<path d="M191.609 206.45C128.208 192.648 125.695 231.983 125.695 231.983H356.305C276.247 232.064 255.009 220.253 191.609 206.45Z" fill="#ACD29A"/>
<path d="M401.988 212.125C387.677 217.867 361.331 232.616 331.073 222.599C300.813 212.581 264.198 215.159 219.188 225.987C174.177 236.816 118.496 222.644 83.31 222.599C48.1238 222.553 26.4609 232.618 26.4609 232.618L455.541 233.56C436.334 207.934 423.998 203.293 401.988 212.125Z" fill="#88B374"/>
<path d="M451.639 215.439C447.113 215.439 443.062 214.308 439.519 212.047C435.169 209.273 432.465 205.283 430.963 202.423C429.413 199.476 428.795 197.133 428.718 196.821C424.77 184.442 419.418 174.173 412.812 166.301C407.535 160.011 401.447 155.226 394.717 152.077C383.267 146.717 373.838 147.974 373.744 147.988L373.591 146.49C373.691 146.477 376.086 146.146 379.959 146.496C383.52 146.817 389.052 147.803 395.186 150.675C402.08 153.901 408.316 158.803 413.719 165.241C420.456 173.272 425.908 183.727 429.92 196.317L429.936 196.376C429.941 196.399 430.524 198.746 432.075 201.681C433.498 204.372 436.051 208.129 440.145 210.734C446.225 214.604 453.841 214.087 462.978 210.872C463.479 210.695 464.006 211.051 464.128 211.653C464.271 212.364 463.919 213.087 463.325 213.289C459.142 214.722 455.24 215.439 451.639 215.439Z" fill="#233862"/>
<path d="M37.8393 211.853C37.1353 209.014 22.4291 196.923 31.8516 180.162C37.1994 170.649 43.7004 155.57 51.1275 150.111C60.4184 143.283 70.0087 147.988 81.8147 147.774L81.818 149.282C70.2505 149.491 61.2573 144.332 52.1704 151.012C44.8947 156.359 37.8196 171.247 32.9718 180.881C24.1974 198.314 39.7705 208.156 39.685 211.484C39.6455 213.012 37.9775 212.414 37.8393 211.853Z" fill="#233862"/>
<path d="M304.949 123.266C304.949 123.266 291.815 139.557 288.228 140.971C282.516 143.223 278.183 144.676 275.782 145.64C275.782 145.64 272.821 145.234 271.847 146.131C270.875 147.029 270.6 147.541 270.996 147.932C271.391 148.32 275.096 148.045 275.782 147.932C276.468 147.819 278.535 147.606 278.535 147.606L278.458 147.549C282.452 147.32 287.829 146.423 290.072 145.737C293.765 144.606 305.34 133.774 306.836 131.414C310.95 124.917 307.587 121.724 304.949 123.266Z" fill="#ED975D"/>
<path d="M318.67 121.56C318.005 121.403 316.854 118.539 316.875 113.904L316.574 113.974L311.521 115.146C311.521 115.146 311.632 117.024 311.634 118.792C311.634 119.695 311.606 120.57 311.517 121.152C310.542 121.195 309.884 121.248 309.884 121.248C309.884 121.248 305.937 125.385 305.618 127.594C305.299 129.801 312.822 129.749 315.376 129.479C317.929 129.207 318.67 121.56 318.67 121.56Z" fill="#FFB27D"/>
<path d="M311.521 115.143C311.521 115.143 311.632 117.022 311.634 118.789C314.462 118.702 315.96 115.66 316.576 113.972L311.521 115.143Z" fill="#ED975D"/>
<path d="M323.465 97.2923C322.345 96.4802 320.553 97.4438 320.553 97.4438C321.173 96.4181 323.432 96.758 323.432 96.758C318.923 95.6138 317.987 99.029 317.913 99.3301C315.075 96.2937 310.734 101.521 309.665 102.918C308.609 104.002 307.579 106.126 309.183 110.846L309.665 112.692L315.76 113.21L316.898 115C316.898 115 317.584 113.135 318.487 113.719C319.894 114.63 322.624 110.961 321.761 106.12C321.667 105.597 321.555 105.119 321.43 104.68C321.723 104.832 322.053 104.954 322.364 104.956C323.184 104.958 324.425 102.491 324.595 101.661C324.764 100.832 324.585 98.1043 323.465 97.2923Z" fill="#2C3A64"/>
<path d="M310.575 116.816C310.575 116.816 317.263 116.962 317.276 112.041C317.288 107.12 318.16 103.825 313.889 103.524C309.619 103.223 308.785 105.098 308.443 106.739C308.099 108.381 308.834 116.653 310.575 116.816Z" fill="#FFB27D"/>
<path d="M315.475 110.034C318.285 110.893 319.505 110.007 319.505 110.007C319.505 110.007 317.352 107.981 316.911 104.449C316.911 104.449 312.618 101.434 310.899 103.299C310.461 102.854 309.681 102.532 308.647 104.006C307.092 106.223 308.466 110.149 308.466 110.149C309.102 110.238 309.255 107.659 309.591 106.407C309.838 105.487 310.644 104.546 311.053 104.115C311.183 104.684 312.521 110.213 315.881 112.057C315.881 112.057 314.335 110.431 313.202 108.177C313.851 109.049 314.616 109.772 315.475 110.034Z" fill="#2C3A64"/>
<path d="M310.57 168.31C308.665 173.421 306.245 180.075 304.123 185.95C303.685 187.156 303.263 188.331 302.858 189.452C300.724 195.368 299.139 199.807 299.139 199.807C299.272 213.766 282.71 230.769 282.71 230.769L280.833 229.22C280.833 229.22 289.789 214.736 291.011 198.12C291.945 185.427 294.482 174.243 296.617 166.641C297.787 162.482 298.834 159.393 299.435 157.719C299.89 157.538 300.377 157.424 300.891 157.365L310.07 167.959L310.57 168.31Z" fill="#2B478B"/>
<path d="M310.57 168.31C308.665 173.421 306.245 180.075 304.123 185.95L296.619 166.639C297.788 162.48 298.836 159.391 299.436 157.717C299.892 157.536 300.379 157.422 300.892 157.363L310.071 167.957L310.57 168.31Z" fill="#233862"/>
<path d="M329.05 228.645L327.026 229.494C327.026 229.494 319.497 204.001 316.378 200.077C310.353 192.494 301.484 159.428 301.484 159.428L315.148 154.834C316.926 156.87 320.392 161.355 320.728 170.449C321.099 180.462 321.927 192.086 322.08 194.346C322.08 194.348 322.08 194.35 322.08 194.352C322.091 194.526 322.17 194.678 322.269 194.808C331.601 207.072 329.05 228.645 329.05 228.645Z" fill="#2B478B"/>
<path d="M323.662 130.277C322.897 132.825 321.872 135.005 321.872 135.005C321.872 135.005 315.202 147.712 315.426 148.932C315.648 150.152 319.035 159.042 318.296 159.603C314.373 162.591 298.591 161.33 298.882 159.008C299.173 156.687 301.361 152.234 301.484 147.209C301.55 144.481 301.261 141.054 301.336 137.839C301.338 137.725 301.341 137.608 301.346 137.494C300.599 136.67 300.05 135.854 299.647 135.085C298.341 132.594 298.563 130.617 298.563 130.617C298.563 130.617 302.947 124.235 304.635 122.809C306.324 121.383 309.885 121.247 309.885 121.247C309.885 121.247 307.14 125.385 307.079 126.821C307.018 128.258 314.292 128.759 315.429 127.827C316.564 126.892 318.673 121.562 318.673 121.562C318.673 121.562 323.221 121.772 324.133 123.771C324.84 125.327 324.36 127.953 323.662 130.277Z" fill="#699DEE"/>
<path d="M301.332 135.651C301.392 137.158 301.335 137.84 301.335 137.84C301.336 137.725 301.34 137.609 301.345 137.494C300.598 136.67 300.048 135.855 299.645 135.085C299.565 134.322 299.79 133.455 300.634 132.564C303.248 129.799 303.949 129.333 303.949 129.333C303.949 129.333 301.271 134.143 301.332 135.651Z" fill="#4A75CB"/>
<path d="M321.872 135.005C321.872 135.005 315.202 147.712 315.426 148.932C309.037 134.513 319.81 131.042 323.661 130.274C322.897 132.823 321.872 135.005 321.872 135.005Z" fill="#4A75CB"/>
<path d="M286.36 232.128C286.36 232.128 286.242 231.784 286.102 231.3C285.87 230.5 285.581 229.319 285.67 228.682C285.734 228.231 285.651 227.864 285.54 227.598C285.4 227.26 284.229 228.474 283.648 227.899C282.524 226.782 282.266 226.69 282.212 226.688L282.199 226.692C282.199 226.692 279.734 228.54 279.091 229.229C277.948 230.457 276.698 230.653 276.065 230.873C275.808 230.96 275.601 231.184 275.505 231.479C275.364 231.912 275.221 232.501 275.372 232.753L281.355 232.738C281.355 232.738 281.358 232.732 281.368 232.722C281.435 232.641 281.773 232.283 282.508 232.396C282.992 232.47 283.34 232.629 283.812 232.717L285.22 232.713C286.43 232.526 286.36 232.128 286.36 232.128Z" fill="#233862"/>
<path d="M330.323 232.155C330.323 232.155 330.206 231.811 330.066 231.326C329.836 230.525 329.548 229.342 329.637 228.705C329.701 228.254 329.62 227.887 329.508 227.621C329.37 227.283 329.184 227.102 329.184 227.102C329.184 227.102 328.196 228.495 327.615 227.918C326.493 226.799 326.235 226.706 326.181 226.704L326.167 226.708C326.167 226.708 323.7 228.55 323.055 229.235C321.91 230.459 320.66 230.654 320.025 230.869C319.769 230.957 319.56 231.18 319.464 231.473C319.323 231.907 319.178 232.493 319.329 232.748H325.312C325.312 232.748 325.315 232.742 325.325 232.73C325.393 232.649 325.73 232.293 326.465 232.406C326.949 232.48 327.298 232.641 327.77 232.73H329.178C330.39 232.555 330.323 232.155 330.323 232.155Z" fill="#233862"/>
<path d="M145.921 148.928L145.094 149.402C145.059 149.342 145.036 149.301 145.028 149.281C145.028 149.27 145.869 148.947 145.921 148.928Z" fill="#EE9849"/>
<path d="M125.955 94.7571C125.955 94.7571 123.436 92.2763 120.51 92.6765C117.583 93.0767 114.28 94.5317 113.861 101.465C113.441 108.398 115.552 111.373 112.278 114.088C109.003 116.802 109.651 119.509 110.395 122.172C110.395 122.172 111.809 117.985 113.602 118.393C113.602 118.393 111.244 121.917 111.487 124.4C111.73 126.885 113.973 129.158 115.152 129.995C115.152 129.995 116.192 128.519 118.098 129.008C121.944 129.995 127.037 122.838 126.53 119.864C126.02 116.888 125.955 94.7571 125.955 94.7571Z" fill="#9B3D38"/>
<path d="M160.841 228.523L158.308 228.708C158.308 228.708 155.531 220.879 153.533 212.228C152.534 207.906 151.73 203.375 151.564 199.521C151.426 196.281 151.33 193.796 151.329 193.794C151.228 193.65 150.643 192.974 149.741 191.809C149.44 191.418 149.103 190.973 148.736 190.474C146.66 187.649 143.65 183.115 140.861 177.167C140.858 177.161 140.857 177.155 140.852 177.147C139.494 174.247 138.188 171.011 137.071 167.471C137.065 167.454 137.058 167.442 137.055 167.43C137.048 167.421 134.597 160.775 134.076 157.089C134.076 157.088 134.074 157.084 134.074 157.082C134.04 156.839 134.015 156.61 133.999 156.394C133.982 156.174 133.976 155.969 133.981 155.786L134.078 155.73L145.091 149.4C145.541 150.164 148.071 154.107 150.223 159.733C150.386 160.161 150.552 160.598 150.72 161.039C150.845 161.365 150.97 161.695 151.095 162.03C151.126 162.111 151.156 162.193 151.187 162.274C155.068 172.668 159.042 187.772 159.907 194.031C160.241 196.448 160.46 203.202 160.601 210.101C160.79 219.189 160.841 228.523 160.841 228.523Z" fill="#EE9849"/>
<path d="M151.19 162.276L149.743 191.806C149.442 191.416 149.105 190.971 148.738 190.471C146.662 187.647 143.651 183.113 140.863 177.164C140.86 177.158 140.858 177.153 140.853 177.145C139.496 174.12 138.197 170.779 137.073 167.15C137.066 167.128 137.06 167.117 137.055 167.103C137.05 167.092 134.933 161.238 134.078 157.089C134.078 157.087 134.076 157.083 134.076 157.081C134.041 156.838 134.017 156.609 134 156.393C133.984 156.174 133.977 155.968 133.982 155.785L134.079 155.729C134.079 155.729 144.962 149.485 145.518 149.279C145.632 149.551 147.904 153.662 150.225 159.733C150.388 160.16 150.554 160.597 150.722 161.038C150.847 161.365 150.972 161.695 151.097 162.029C151.128 162.113 151.159 162.194 151.19 162.276Z" fill="#E58638"/>
<path d="M146.265 196.506C145.43 199.181 142.497 207.085 139.789 214.287C137.108 221.413 134.643 227.849 134.643 227.849L132.14 228.15C132.14 228.15 131.832 220.927 132.342 213.119C132.785 206.369 133.834 199.181 136.224 195.841C136.326 195.701 136.298 195.482 136.251 195.307L136.249 195.301C135.915 194.114 134.571 189.246 133.212 183.094C132.883 181.602 132.551 180.034 132.234 178.423C131.773 176.09 131.339 173.67 130.978 171.265C130.972 171.224 130.965 171.185 130.96 171.148C130.788 170.608 130.513 169.699 130.205 168.491C129.784 166.839 129.304 164.631 128.934 162.039C128.924 161.963 128.912 161.886 128.902 161.808C128.108 156.071 128.697 152.687 128.697 152.687C128.697 152.687 137.784 151.279 140.69 150.097C143.599 148.914 145.375 149.148 145.375 149.148C145.375 149.148 148.139 190.507 146.265 196.506Z" fill="#EE9849"/>
<path d="M164.561 146.055C164.37 145.68 162.802 143.836 159.302 143.015C159.302 143.015 159.086 142.98 158.027 142.08C158.027 142.08 158.027 142.08 158.027 142.082C154.788 139.221 151.388 136.058 147.446 133.06C145.352 131.467 142.215 127.813 138.953 124.161C137.302 122.314 135.619 120.462 134.023 118.881C133.165 118.03 126.372 123.159 126.978 124.101C130.182 129.092 138.359 134.766 142.944 138.296C146.966 141.394 152.942 143.904 155.796 145.006C155.795 145.008 155.793 145.01 155.79 145.01C155.79 145.01 157.31 145.569 157.415 145.664C157.52 145.76 159.294 147.595 160.254 148.205C161.215 148.815 162.643 148.6 164.201 148.033C165.229 147.654 164.877 146.673 164.561 146.055Z" fill="#ED975D"/>
<path d="M138.953 124.159C138.59 125.905 137.522 129.097 134.535 129.375C130.707 129.73 128.573 119.073 132.658 117.522C133.193 118.055 133.165 118.026 134.023 118.878C135.619 120.462 137.303 122.311 138.953 124.159Z" fill="#233862"/>
<path d="M129.337 95.2833C127.934 93.9274 121.967 88.62 119.71 94.1119C119.71 94.1119 117.407 95.7574 117.156 100.857C116.899 106.061 120.786 109.834 122.132 108.624C122.995 107.847 124.104 109.758 124.104 109.758L125.216 106.906L130.633 105.467L130.89 103.454C131.936 98.2401 130.582 96.2158 129.337 95.2833Z" fill="#A9453D"/>
<path d="M128.401 160.71C125.978 153.895 116.665 127.65 123.566 115.724C123.625 115.689 123.683 115.658 123.742 115.628C126.33 114.284 130.784 115.042 131.998 116.236C137.984 122.134 138.966 125.872 139.592 130.812C140.238 135.929 141.049 141.209 144.467 146.796C144.898 147.504 145.382 148.215 145.925 148.928C150.271 154.653 129.7 164.362 128.401 160.71Z" fill="#2B478B"/>
<path d="M130.704 115.654C130.939 116.037 132.564 117.197 128.677 117.197C125.644 117.197 123.446 115.94 123.568 115.724C123.964 115.023 124.41 113.206 123.708 108.393L124.03 108.402L129.455 108.585C129.455 108.585 129.615 110.561 129.873 112.398C130.09 113.943 130.506 115.334 130.704 115.654Z" fill="#FFB27D"/>
<path d="M129.455 108.585C129.455 108.585 129.615 110.561 129.873 112.398C126.922 112.886 124.917 110.03 124.03 108.402L129.455 108.585Z" fill="#ED975D"/>
<path d="M130.472 110.254C130.472 110.254 123.52 111.643 122.854 106.516C122.188 101.389 120.842 98.1178 125.252 97.0144C129.662 95.911 130.781 97.7099 131.355 99.3572C131.932 101.005 132.263 109.76 130.472 110.254Z" fill="#FFB27D"/>
<path d="M130.783 96.5439C129.508 95.1977 128.738 95.6775 128.341 96.2234C124.028 94.5585 122.229 98.5351 122.229 98.5351C122.237 102.298 120.263 104.808 120.263 104.808C120.263 104.808 121.653 105.507 124.466 104.091C125.325 103.66 126.027 102.766 126.588 101.735C125.705 104.291 124.311 106.271 124.311 106.271C127.563 103.732 128.226 97.7348 128.289 97.1015C128.772 97.4764 129.738 98.3059 130.116 99.2209C130.633 100.464 131.135 103.124 131.786 102.912C131.786 102.912 132.697 98.5662 130.783 96.5439Z" fill="#A9453D"/>
<path d="M144.467 146.795C127.994 141.855 122.964 124.917 122.964 124.917C122.964 124.917 138.371 129.855 140.304 131.664C140.95 136.781 141.146 141.208 144.467 146.795Z" fill="#233862"/>
<path d="M139.789 214.287C137.108 221.412 134.643 227.848 134.643 227.848L132.14 228.149C132.14 228.149 131.832 220.927 132.342 213.119C133.678 213.929 136.043 214.772 139.789 214.287Z" fill="#FFB27D"/>
<path d="M160.841 228.523L158.308 228.707C158.308 228.707 155.531 220.878 153.533 212.228C155.258 212.327 158.736 212.226 160.603 210.103C160.79 219.188 160.841 228.523 160.841 228.523Z" fill="#FFB27D"/>
<path d="M167.867 231.499C167.769 231.188 167.551 230.951 167.282 230.856C166.615 230.621 165.298 230.403 164.1 229.102C163.426 228.369 160.84 226.403 160.84 226.403L160.827 226.399C160.769 226.399 160.496 226.497 159.307 227.664C158.691 228.266 157.66 226.788 157.66 226.788C157.66 226.788 157.463 226.976 157.315 227.332C157.195 227.612 157.107 227.996 157.172 228.474C157.26 229.146 156.948 230.39 156.699 231.231C156.548 231.74 156.423 232.101 156.423 232.101C156.423 232.101 156.349 232.521 157.624 232.723L159.108 232.738C159.606 232.651 159.975 232.484 160.485 232.412C161.259 232.299 161.613 232.678 161.684 232.766C161.694 232.777 161.697 232.783 161.697 232.783L168 232.845C168.162 232.577 168.014 231.957 167.867 231.499Z" fill="#2B478B"/>
<path d="M141.774 230.69C141.105 230.467 139.786 230.273 138.572 228.991C137.889 228.27 135.28 226.349 135.28 226.349L135.267 226.345C135.209 226.347 134.938 226.448 133.762 227.635C133.153 228.247 132.104 226.786 132.104 226.786C132.104 226.786 131.909 226.978 131.765 227.335C131.648 227.617 131.564 228.004 131.635 228.48C131.732 229.15 131.436 230.399 131.197 231.244C131.052 231.757 130.931 232.118 130.931 232.118C130.931 232.118 130.862 232.54 132.14 232.721L133.624 232.711C134.12 232.616 134.487 232.443 134.995 232.359C135.769 232.235 136.127 232.606 136.2 232.691C136.209 232.703 136.213 232.709 136.213 232.709L142.516 232.664C142.674 232.396 142.518 231.778 142.367 231.322C142.266 231.015 142.046 230.782 141.774 230.69Z" fill="#2B478B"/>
<path d="M59.6288 149.282L59.6255 147.774L384.987 146.486L384.991 147.994L85.2527 148.899L59.6288 149.282Z" fill="#233862"/>
<path d="M344.614 144.508C344.614 144.508 340.128 143.381 338.273 144.823C336.419 146.264 335.042 148.659 336.205 149.201C337.368 149.743 340.916 148.593 341.535 148.149C342.155 147.706 344.006 147.088 344.22 146.814C344.432 146.542 344.614 144.508 344.614 144.508Z" fill="#FFB27D"/>
<path d="M389.96 110.329C389.96 110.329 408.724 126.261 408.724 133.4C408.724 136.994 404.16 146.744 393.559 148.141L391.98 144.708C391.98 144.708 400.926 136.339 400.404 135.469C399.884 134.599 388.16 125.882 388.16 120.357C388.16 114.834 389.96 110.329 389.96 110.329Z" fill="#E58638"/>
<path d="M344.019 225.253C344.019 225.253 340.846 229.243 336.585 229.89C336.585 229.89 333.738 229.917 333.738 233.008H348.811C348.811 233.008 349.064 231.52 349.159 228.849C349.233 226.799 351.65 224.689 351.65 224.689L344.019 225.253Z" fill="#233862"/>
<path d="M386.379 226.926C386.379 226.926 385.51 229.908 382.034 230.434C382.034 230.434 379.71 230.458 379.71 232.979H392.008C392.008 232.979 392.047 231.283 391.399 229.242C390.861 227.542 389.884 225.504 389.884 225.504L386.379 226.926Z" fill="#233862"/>
<path d="M397.014 167.494C397.014 167.494 384.923 194.454 386.874 198.693C391.014 207.688 392.232 226.096 391.766 227.375C391.766 227.375 388.636 230.229 384.319 228.88C384.319 228.88 373.022 200.997 373.28 191.9C373.634 179.389 385.979 160.075 385.979 160.075L397.014 167.494Z" fill="#233862"/>
<path d="M391.98 111.983C391.98 111.983 390.537 118.391 385.604 118.794C385.604 118.794 383.684 116.732 382.919 114.85C382.826 114.619 382.734 114.395 382.645 114.182C381.775 112.068 381.237 110.908 381.237 110.908C381.237 110.908 381.237 110.906 381.24 110.904C381.393 110.704 386.377 104.266 386.473 104.517C388.66 110.329 391.98 111.983 391.98 111.983Z" fill="#FFB27D"/>
<path d="M386.397 106.236C386.321 107.874 385.295 111.565 382.641 114.182C381.771 112.068 381.233 110.908 381.233 110.908C381.233 110.908 381.233 110.906 381.237 110.904C381.388 110.757 386.422 105.752 386.397 106.236Z" fill="#ED975D"/>
<path d="M379.852 111.411C379.852 111.411 387.575 109.471 386.478 103.81C385.38 98.1489 385.637 94.0849 380.661 95.0853C375.683 96.0858 375.147 98.5044 375.124 100.498C375.101 102.491 377.813 111.769 379.852 111.411Z" fill="#FFB27D"/>
<path d="M374.461 164.121C374.461 164.121 353.58 208.42 341.966 225.674C341.966 225.674 345.322 228.99 350.676 227.081C350.676 227.081 368.074 210.442 373.025 200.997C377.975 191.553 388.97 175.447 396.254 168.927L374.461 164.121Z" fill="#2B478B"/>
<path d="M401.69 145.474C401.69 145.474 400.582 166.392 397.014 168.964C392.913 171.921 372.018 167.855 373.341 165.019C373.966 163.68 375.126 161.052 376.058 157.083C377.101 152.648 377.861 146.538 377.276 138.682C377.068 135.906 377.063 133.083 377.248 130.422C377.603 125.307 378.662 120.788 380.353 118.352C382.924 114.65 389.958 110.327 389.958 110.327C389.958 110.327 402.521 116.468 401.69 145.474Z" fill="#EE9849"/>
<path d="M376.058 157.085C377.101 152.649 377.861 146.54 377.276 138.684C377.068 135.908 377.063 133.085 377.248 130.423C378.723 127.778 380.83 126.115 383.816 126.272C383.816 126.272 389.198 144.904 376.058 157.085Z" fill="#E58638"/>
<path d="M382.467 116.302C382.467 116.302 370.534 129.542 364.106 134.952C364.106 134.952 343.958 143.028 343.415 143.863C343.415 143.863 343.298 145.916 344.201 147.222C344.201 147.222 364.048 145.336 367.521 143.812C370.992 142.289 384.798 133.39 385.959 131.531C387.122 129.672 388.248 115.016 382.467 116.302Z" fill="#EE9849"/>
<path d="M387.966 92.3594C388.026 92.2487 388.182 92.1419 388.547 92.0564C388.547 92.0564 388.226 91.8854 387.833 91.9398C387.683 91.3395 387.28 90.3002 386.369 90.1837C386.369 90.1837 386.877 90.4071 387.019 91.0481C385.849 89.9641 383.556 89.4163 377.582 91.0015C369.705 93.0899 373.066 98.7683 374.185 99.3239C375.303 99.8795 377.659 97.4453 379.603 97.3074C381.546 97.1675 382.312 100.437 383.018 100.785C383.726 101.132 383.372 100.367 384.196 99.7415C385.02 99.116 385.315 100.855 385.196 102.036C385.079 103.219 386.471 104.519 386.471 104.519C386.471 104.519 386.471 104.519 387.506 102.731C388.54 100.944 388.889 94.0515 388.16 92.7169C388.096 92.6003 388.032 92.4799 387.966 92.3594Z" fill="#2B478B"/>
<path d="M112.054 222.227C112.054 222.227 115.231 225.038 120.097 223.551C120.097 223.551 124.02 222.495 124.88 224.806C124.88 224.806 118.863 228.416 117.34 229.405C116.192 230.149 114.994 231.324 114.149 232.231C113.477 232.95 112.434 232.853 111.864 232.023C111.599 231.639 111.296 231.18 110.964 230.65C110.036 229.166 107.875 224.369 107.875 224.369L112.054 222.227Z" fill="#233862"/>
<path d="M113.918 220.799C113.918 220.799 111.984 226.066 107.519 225.098C107.519 225.098 98.4093 216.214 92.1617 206.985C90.1318 203.987 88.4045 200.953 87.3896 198.177C83.2459 186.847 72.0616 169.95 64.952 161.385L82.7425 153.785C82.7425 153.785 88.4407 167.322 96.0225 183.951C101.487 195.929 107.927 209.514 113.918 220.799Z" fill="#2B478B"/>
<path d="M96.0225 183.949L92.1617 206.983C90.1318 203.985 88.4045 200.951 87.3896 198.175C83.2459 186.845 72.0616 169.948 64.952 161.383L82.7425 153.783C82.7425 153.783 88.4407 167.32 96.0225 183.949Z" fill="#233862"/>
<path d="M97.2792 141.567L98.6956 142.925C98.6956 142.925 102.571 141.284 103.445 146.723C103.445 146.723 103.678 149.041 102.435 149.045C101.191 149.049 101.704 148.792 99.9441 148.852C98.184 148.913 96.7249 147.817 96.4666 146.131L95.6244 144.701L97.2792 141.567Z" fill="#9C5F33"/>
<path d="M97.1197 144.483C98.2498 143.09 98.1593 142.059 98.1593 142.059C98.1593 142.059 85.0718 129.404 83.7443 128.375C82.8395 127.671 73.2016 117.581 68.696 111.429C66.4604 108.377 63.6935 109.562 60.5253 110.634L57.918 111.518C54.7679 112.585 53.9503 117.787 56.5329 120.314C63.8103 127.432 75.9174 135.44 78.1826 137.122C83.8051 141.299 94.8134 146.265 94.8134 146.265C94.8134 146.265 96.1491 145.68 97.1197 144.483Z" fill="#4A75CB"/>
<path d="M81.4808 225.283C81.4808 225.283 81.2867 229.484 85.5998 230.046C85.5998 230.046 88.0657 230.061 88.0722 232.736L75.5358 232.783C75.5358 232.783 75.1723 231.705 75.0834 229.393C75.016 227.62 76.5392 222.98 76.5392 222.98L81.4808 225.283Z" fill="#233862"/>
<path d="M76.9077 153.783C76.9077 153.783 84.8333 164.067 89.8636 182.597C92.6009 192.677 84.8464 218.023 83.3347 226.829C83.3347 226.829 78.1332 227.35 74.5768 225.726C74.5768 225.726 74.307 207.536 76.3863 193.518C77.5509 185.672 65.9521 176.738 60.8823 162.562C57.4344 152.917 61.6291 153.082 66.7845 152.849L76.9077 153.783Z" fill="#2B478B"/>
<path d="M64.0176 105.625C63.8844 101.741 63.5027 99.5149 63.5027 99.5149L56.3224 95.208C57.9871 103.181 54.3221 108.129 54.3221 108.129C54.3221 108.129 63.3481 110.841 67.7583 107.901C67.7583 107.899 66.2811 106.435 64.0176 105.625Z" fill="#9C5F33"/>
<path d="M65.758 98.1938C65.758 98.1938 59.1879 103.761 56.3141 98.8776C53.4404 93.9918 50.6587 91.4198 54.7317 87.6588C58.8047 83.8978 60.7244 85.0847 62.0206 86.4407C63.3152 87.7947 67.3931 96.6183 65.758 98.1938Z" fill="#AB7041"/>
<path d="M83.9269 153.252C83.9269 154.167 83.0336 154.606 82.8445 154.651C81.0662 155.036 76.1 157.316 71.6273 157.839C67.8603 158.305 64.3631 157.862 60.522 156.951C60.0137 156.831 58.8178 156.45 58.7339 155.875C58.6286 155.246 43.9142 120.452 55.3518 105.506C55.6199 105.156 57.8785 105.787 59.943 106.364C61.8495 106.899 63.5998 106.601 65.1609 105.861L67.097 107.064C69.4757 108.629 73.9747 114.187 74.5011 118.551C74.7676 120.769 75.8418 122.413 76.1543 124.363C76.2695 125.086 76.3879 125.791 76.508 126.477C76.7432 127.825 76.9834 129.107 77.2318 130.327C77.9046 133.626 78.6152 136.468 79.3127 138.921C80.0546 141.526 80.7817 143.694 81.4331 145.507C82.2769 147.858 82.9892 149.614 83.435 150.96C83.7476 151.906 83.9269 152.648 83.9269 153.252Z" fill="#739AF0"/>
<path d="M83.4334 150.958C62.6621 139.403 55.4686 117.212 55.4686 117.212C55.4686 117.212 72.3429 124.563 76.5063 126.476C76.7416 127.825 76.9817 129.107 77.2301 130.327C77.9029 133.625 78.6136 136.468 79.311 138.921C80.0529 141.526 80.78 143.694 81.4314 145.507C82.2753 147.857 82.9876 149.614 83.4334 150.958Z" fill="#4A75CB"/>
<path d="M95.5849 144.262L97.3796 145.039C97.3796 145.039 100.974 142.037 103.211 146.919C103.211 146.919 104.02 149.05 102.739 149.515C101.457 149.977 101.923 149.542 100.123 150.251C98.3221 150.96 96.5488 150.449 95.8678 148.93L94.6489 147.873L95.5849 144.262Z" fill="#AB7041"/>
<path d="M97.0621 147.259C97.725 145.215 98.0277 144.289 98.0277 144.289C98.0277 144.289 84.4664 131.234 83.0846 130.115C82.1437 129.352 72.7689 121.076 68.1975 114.626C65.9307 111.427 62.3562 109.966 58.8984 110.82L56.0509 111.526C52.6129 112.377 51.496 117.515 54.1625 120.215C61.6735 127.819 74.3399 136.638 76.7021 138.472C82.5648 143.026 95.5339 149.408 95.5339 149.408C95.5339 149.408 96.5406 148.866 97.0621 147.259Z" fill="#739AF0"/>
<path d="M62.7148 82.0267C62.4795 80.1482 61.9482 78.8271 61.9482 78.8271C61.9482 78.8271 61.5353 80.8436 58.4148 80.5658C55.2942 80.288 50.3461 80.9291 48.6979 85.1291C48.5926 85.3972 48.4988 85.6711 48.4166 85.9528C48.1188 85.0223 48.0464 83.6255 48.0464 83.6255C47.4526 85.4341 48.0464 87.6954 48.0464 87.6954C48.0366 87.7614 48.03 87.8275 48.0218 87.8935C47.3325 88.5812 46.7535 90.7201 46.7535 90.7201C46.9607 90.1237 47.469 89.7352 47.9198 89.4943C47.905 92.7618 49.0285 95.9575 50.9975 96.9094C53.8779 98.3004 53.8549 97.2397 56.7517 99.5087C56.7517 99.5087 57.5298 98.3703 56.9985 97.6049C56.4688 96.8395 54.4668 95.7263 55.5854 94.6151C56.704 93.502 57.1169 94.755 57.5298 93.9896C57.9427 93.2242 55.8799 90.9999 58.5299 88.9134C61.1833 86.8251 62.95 83.9053 62.7148 82.0267Z" fill="#233862"/>
<path d="M161.911 145.317C161.554 145.2 160.011 145.267 156.487 144.596C156.487 144.596 156.272 144.571 155.184 143.718V143.72C151.86 141 148.364 137.983 144.332 135.159C141.508 133.177 136.756 127.687 132.334 123.334C131.707 122.716 131.089 122.122 130.482 121.564C129.814 120.95 129.223 120.406 128.738 119.958C127.703 119.002 126.262 118.967 125.19 119.862C124.051 120.814 122.837 122.349 122.676 124.63C122.625 125.333 122.969 126.164 123.602 127.081C124.41 128.249 125.507 129.446 126.774 130.631C130.765 134.376 136.432 138.051 139.993 140.581C144.109 143.505 150.157 145.756 153.043 146.735C153.041 146.737 153.039 146.737 153.038 146.739C153.038 146.739 154.574 147.233 154.683 147.322C154.791 147.413 157.124 148.398 158.103 148.965C159.081 149.533 162.588 150.014 163.727 148.13C164.867 146.251 162.641 145.558 161.911 145.317Z" fill="#FFB27D"/>
<path d="M132.482 123.292C132.482 123.292 131.1 128.114 126.756 130.81C125.451 129.589 124.321 128.357 123.489 127.154C122.836 126.21 122.482 125.354 122.535 124.629C122.716 122.069 124.185 120.421 125.436 119.469C126.414 118.727 127.679 118.797 128.593 119.642C129.126 120.136 129.801 120.757 130.575 121.468C131.2 122.045 131.837 122.657 132.482 123.292Z" fill="#2B478B"/>
<path d="M290.052 144.745C289.925 144.788 287.744 145.361 286.24 145.091C284.735 144.821 282.411 146.929 282.274 147.517C282.138 148.106 282.73 149.452 283.551 149.452C284.372 149.452 284.974 149.001 285.242 148.527C285.512 148.053 286.833 148.45 287.563 147.89C288.293 147.333 290.052 144.745 290.052 144.745Z" fill="#FFB27D"/>
<path d="M322.874 132.008C322.246 133.001 319.459 135.569 316.168 138.298H316.166C311.624 142.063 306.12 146.131 303.98 146.786C300.287 147.916 285.24 148.526 285.24 147.098C285.24 145.772 299.056 141.939 302.749 140.969C304.437 140.526 308.004 136.699 311.384 132.672C315.403 127.882 319.155 122.807 319.155 122.807C321.793 121.265 326.992 125.512 322.874 132.008Z" fill="#FFB27D"/>
<path d="M322.874 132.008C322.246 133.001 319.459 135.569 316.168 138.298H316.166C312.674 136.969 311.67 134.187 311.382 132.672C315.401 127.882 319.153 122.807 319.153 122.807C321.793 121.265 326.992 125.512 322.874 132.008Z" fill="#699DEE"/>
<path d="M219.814 162.348C214.086 163.973 208.931 162.333 204.911 157.606C201.663 153.789 199.885 148.824 199.114 146.201C198.809 145.166 198.89 144.019 199.336 143.056C199.783 142.09 200.558 141.389 201.464 141.133L211.153 138.384L211.948 142.287L202.361 145.006C203.892 150.145 208.518 161.422 219.021 158.444L219.814 162.348Z" fill="#EE9849"/>
<path d="M235.938 157.776L235.144 153.873C245.645 150.895 245.43 138.363 244.818 132.966L235.231 135.686L234.437 131.783L244.125 129.034C245.032 128.778 245.993 128.986 246.761 129.605C247.529 130.223 248.041 131.202 248.169 132.288C248.49 135.037 248.817 140.416 247.391 145.558C245.629 151.924 241.668 156.15 235.938 157.776Z" fill="#EE9849"/>
<path d="M221.938 120.649C222.198 121.931 221.53 123.219 220.446 123.526C219.36 123.833 218.27 123.044 218.01 121.764C217.75 120.484 218.418 119.194 219.502 118.887C220.587 118.578 221.678 119.369 221.938 120.649Z" fill="#EE9849"/>
<path d="M219.502 118.887C219.401 118.916 219.306 118.955 219.214 119C219.567 119.192 219.847 119.565 219.946 120.047C220.115 120.878 219.681 121.716 218.977 121.916C218.633 122.013 218.289 121.941 218.006 121.745C218.008 121.753 218.008 121.758 218.01 121.766C218.27 123.048 219.36 123.837 220.446 123.528C221.532 123.221 222.199 121.933 221.938 120.651C221.678 119.369 220.587 118.578 219.502 118.887Z" fill="#E58638"/>
<path d="M247.261 178.302C247.068 177.641 246.453 177.29 245.879 177.453C244.453 177.857 242.962 177.843 241.548 177.389C237.592 176.118 230.712 172.355 235.183 162.048C244.323 140.981 233.538 126.464 233.538 126.464L221.921 129.759L210.305 133.053C210.305 133.053 206.279 151.773 222.525 165.638C230.474 172.421 225.792 179.465 222.755 182.717C221.67 183.881 220.347 184.693 218.921 185.097C218.345 185.26 217.932 185.903 218.016 186.595C218.112 187.39 218.76 187.895 219.403 187.712L232.93 183.875L246.456 180.039C247.1 179.858 247.481 179.059 247.261 178.302Z" fill="#EE9849"/>
<path d="M233.989 126.336L209.461 133.294C208.669 133.518 207.875 132.943 207.684 132.01C207.495 131.076 207.982 130.137 208.771 129.912L233.3 122.953C234.091 122.73 234.886 123.305 235.076 124.238C235.267 125.172 234.78 126.112 233.989 126.336Z" fill="#EE9849"/>
<path d="M233.415 122.928C233.477 123.062 233.527 123.206 233.558 123.361C233.747 124.296 233.26 125.234 232.471 125.459L207.942 132.418C207.905 132.43 207.867 132.435 207.829 132.443C208.141 133.111 208.803 133.481 209.461 133.294L233.989 126.335C234.78 126.112 235.267 125.172 235.076 124.237C234.895 123.35 234.167 122.786 233.415 122.928Z" fill="#E58638"/>
<path d="M230.303 123.804L212.163 128.95C211.372 129.174 210.578 128.599 210.387 127.666C210.196 126.732 210.685 125.794 211.474 125.568L229.613 120.422C230.405 120.199 231.199 120.774 231.39 121.706C231.581 122.641 231.094 123.579 230.303 123.804Z" fill="#EE9849"/>
<path d="M229.648 120.414C229.681 120.505 229.709 120.598 229.73 120.698C229.919 121.632 229.432 122.57 228.643 122.796L210.502 127.942C210.49 127.946 210.481 127.946 210.469 127.95C210.747 128.711 211.456 129.15 212.163 128.95L230.303 123.804C231.094 123.58 231.581 122.64 231.39 121.706C231.204 120.785 230.428 120.214 229.648 120.414Z" fill="#E58638"/>
<path d="M247.261 178.302C247.068 177.641 246.453 177.29 245.879 177.453C244.453 177.857 242.962 177.843 241.548 177.389C237.592 176.118 230.712 172.355 235.183 162.048C244.323 140.981 233.538 126.464 233.538 126.464L221.921 129.759L221.711 129.819C226.432 134.25 230.219 141.211 231.928 149.613C235.132 165.37 229.885 180.526 220.12 184.647C219.73 184.829 219.332 184.983 218.923 185.097C218.347 185.26 217.934 185.903 218.018 186.595C218.113 187.39 218.761 187.895 219.405 187.712L232.931 183.875L246.458 180.039C247.1 179.858 247.481 179.059 247.261 178.302Z" fill="#E58638"/>
<path d="M241 148.429L210.239 148.522L210.722 147.176L239.116 147.063L241 148.429Z" fill="#233862"/>
<path d="M238.761 145.152L212.422 151.846C212.167 151.911 211.907 151.763 211.792 151.487C211.627 151.095 211.82 150.624 212.182 150.531L238.516 143.812C238.85 143.726 239.174 144 239.215 144.4C239.251 144.752 239.054 145.076 238.761 145.152Z" fill="#233862"/>
<path d="M238.197 151.248L210.476 145.119C210.204 145.059 210.007 144.779 210.007 144.452C210.007 144.027 210.333 143.708 210.686 143.786L238.409 149.902C238.732 149.972 238.94 150.343 238.87 150.721C238.802 151.081 238.505 151.316 238.197 151.248Z" fill="#233862"/>
<path d="M479.505 233.867H2.49514C2.22207 233.867 2 233.604 2 233.282C2 232.96 2.22207 232.697 2.49514 232.697H479.505C479.776 232.697 480 232.96 480 233.282C480 233.604 479.778 233.867 479.505 233.867Z" fill="#2E3552"/>
</g>
</g>
<defs>
<clipPath id="clip0_1715_7966">
<rect width="465" height="228" fill="white" transform="translate(15 6)"/>
</clipPath>
<clipPath id="clip1_1715_7966">
<rect width="478" height="178.251" fill="white" transform="translate(2 55.6162)"/>
</clipPath>
</defs>
</svg>
