<svg width="793" height="483" viewBox="0 0 793 483" fill="none" xmlns="http://www.w3.org/2000/svg">
<g clip-path="url(#clip0_1715_4999)">
<path d="M746.366 481.92C703.48 481.92 122.4 482.846 97.113 481.702C97.113 481.702 52.8786 482.274 40.3005 481.702C40.0609 481.146 -54.3933 290.606 131.284 214.362C198.192 186.887 127.628 143.529 174.074 96.029C227.451 41.4461 285.699 101.827 345.052 77.0782C355.54 72.7089 366.063 65.6771 376.596 54.8864C382.524 48.8167 389.024 43.5109 395.981 38.9274C397.048 38.221 398.125 37.5338 399.215 36.8658C403.382 34.3056 407.699 31.9883 412.148 29.9043C415.136 28.5075 418.181 27.213 421.281 26.0272H421.284C426.205 24.1414 431.261 22.5145 436.422 21.1401C443.753 19.1839 451.304 17.7328 459.002 16.7484C462.361 16.3169 465.745 15.9781 469.155 15.7224C535.471 10.7777 583.854 27.9929 623.905 67.1186C646.831 89.5118 666.244 130.523 652.589 196.415C643.922 238.238 719.807 259.797 745.931 301.758C812.353 408.443 746.97 480.529 746.366 481.92Z" fill="#EBF3FA"/>
<path d="M388.081 286.006L372.636 469.671C372.636 469.671 371.019 480.804 379.299 480.823C392.913 480.855 447.06 480.823 447.06 480.823C447.06 480.823 436.815 478.506 436.939 473.293C437.086 467.146 454.989 284.268 454.989 284.268L388.081 286.006Z" fill="#798EE8"/>
<path d="M452.154 477.488C449.476 477.497 397.058 477.584 383.799 477.414C378.021 477.344 377.008 472.278 376.96 468.998C376.935 467.426 377.136 466.265 377.136 466.265L377.539 461.49L378.561 449.322L379.466 438.573L380.626 424.759L381.604 413.099L392.577 282.591L459.485 280.855C459.485 280.855 451.943 357.387 446.61 413.099C446.015 419.306 445.446 425.257 444.922 430.812C444.753 432.586 444.59 434.319 444.43 436.009C443.935 441.28 443.484 446.119 443.091 450.393C442.884 452.646 442.692 454.74 442.519 456.654C441.839 464.166 441.439 468.966 441.436 469.877C441.433 470.408 441.477 470.903 441.567 471.364C442.666 477.222 451.151 477.488 452.154 477.488Z" fill="#AEC3FF"/>
<path d="M225.594 185.986L263.214 337.119L268.365 357.815L285.884 428.21H611.391L546.813 185.986H225.594Z" fill="#AEC3FF"/>
<path d="M225.594 185.982L220.382 187.721L278.956 433.467L285.887 428.21L225.594 185.982Z" fill="#798EE8"/>
<path d="M278.956 433.467H602.456L611.391 428.209H285.887L278.956 433.467Z" fill="#849DEF"/>
<path d="M392.559 480.816H462.602V477.486H392.559V480.816Z" fill="#AEC3FF"/>
<path d="M444.798 433.467L444.433 436.011L378.561 449.32L379.465 438.571L379.897 433.467H444.798Z" fill="#8C9DF4"/>
<path opacity="0.5" d="M452.154 477.487C449.476 477.497 397.057 477.583 383.799 477.414C378.021 477.343 377.008 472.277 376.96 468.998L442.522 456.66C441.841 464.171 441.442 468.972 441.439 469.883C441.436 470.414 441.48 470.909 441.57 471.369C442.666 477.222 451.15 477.487 452.154 477.487Z" fill="#8C9DF4"/>
<path d="M225.594 185.982H546.813L598.931 380.655H274.05L225.594 185.982Z" fill="#8C9DF4"/>
<path d="M583.78 372.221H283.024L272.277 329.397L268.116 312.83L266.422 306.073L255.375 262.064L254.806 259.772L248.964 236.513L246.35 226.102L244.123 217.223L242.305 209.984L238.898 196.412H535.324L539.063 209.984L541.057 217.223L543.505 226.102L546.372 236.513L565.274 305.083V305.086L566.872 310.893L567.62 313.591L580.667 360.931L583.78 372.221Z" fill="#505ABA"/>
<path d="M436.597 313.836C436.383 313.379 436.118 312.961 435.808 312.584L435.805 312.58C435.575 312.299 435.319 312.04 435.038 311.804L433.881 310.631L433.578 310.854C427.653 307.952 415.413 311.027 403.037 319.114C388.075 328.881 378.472 342.335 381.242 349.485L380.82 349.795L382.485 351.454C382.565 351.537 382.648 351.62 382.731 351.7L382.779 351.748L382.792 351.757C383.214 352.144 383.696 352.476 384.23 352.758L384.24 352.764C390.091 355.829 402.458 352.777 414.972 344.607C430.209 334.651 439.895 320.878 436.597 313.836Z" fill="#FFA412"/>
<path d="M401.257 317.333C416.497 307.38 431.523 305.018 434.821 312.059C438.115 319.097 428.433 332.873 413.192 342.823C397.952 352.777 382.923 355.135 379.628 348.097C376.33 341.059 386.013 327.283 401.257 317.333Z" fill="#FFB93E"/>
<path d="M390.311 349.152C389.075 349.152 387.95 349.015 386.956 348.727C385.055 348.181 383.738 347.126 383.035 345.601C381.661 342.603 382.933 338.154 386.62 333.072C390.222 328.105 395.719 323.071 402.097 318.89C411.895 312.472 421.859 309.374 427.483 310.992C429.385 311.538 430.701 312.593 431.404 314.118C432.779 317.116 431.507 321.565 427.819 326.647C424.217 331.614 418.721 336.648 412.342 340.829C404.276 346.116 396.089 349.152 390.311 349.152ZM424.169 311.689C418.644 311.689 410.527 314.706 402.714 319.823C396.444 323.93 391.053 328.865 387.528 333.727C384.141 338.4 382.872 342.558 384.054 345.135C384.614 346.352 385.694 347.199 387.266 347.653C388.148 347.906 389.158 348.03 390.276 348.03C395.802 348.03 403.919 345.013 411.732 339.896C418.002 335.789 423.393 330.853 426.918 325.992C430.305 321.319 431.574 317.161 430.391 314.584C429.832 313.367 428.752 312.52 427.18 312.066C426.298 311.813 425.285 311.689 424.169 311.689Z" fill="#FFA412"/>
<path d="M401.081 333.704C401.551 333.496 401.969 333.269 402.337 333.023C402.704 332.777 403.043 332.489 403.353 332.16C403.663 331.831 403.957 331.45 404.235 331.025C404.513 330.597 404.791 330.105 405.069 329.539C405.561 328.567 406.063 327.656 406.581 326.812C407.098 325.969 407.674 325.185 408.313 324.463C408.952 323.741 409.68 323.079 410.499 322.475C411.32 321.871 412.279 321.328 413.375 320.845C414.327 320.426 415.183 320.158 415.947 320.039C416.708 319.921 417.36 319.944 417.903 320.107C418.446 320.27 418.868 320.564 419.178 320.989C419.485 321.414 419.654 321.967 419.686 322.648L423.281 321.069L423.093 323.006L419.446 324.607C419.245 325.361 418.91 326.109 418.44 326.857C417.97 327.605 417.385 328.321 416.689 329.005C415.989 329.692 415.177 330.338 414.257 330.948C413.333 331.559 412.314 332.109 411.192 332.601L411.531 329.104C412.876 328.513 413.899 327.874 414.605 327.18C415.308 326.486 415.695 325.806 415.759 325.138C415.794 324.773 415.749 324.495 415.621 324.3C415.497 324.105 415.308 323.98 415.062 323.926C414.816 323.872 414.515 323.885 414.167 323.961C413.816 324.038 413.435 324.166 413.02 324.348C412.604 324.53 412.227 324.735 411.882 324.965C411.537 325.192 411.214 325.47 410.911 325.793C410.607 326.116 410.313 326.496 410.029 326.934C409.744 327.372 409.444 327.893 409.131 328.494C408.619 329.468 408.102 330.376 407.581 331.22C407.06 332.064 406.475 332.847 405.833 333.569C405.191 334.292 404.456 334.956 403.637 335.561C402.816 336.165 401.864 336.705 400.777 337.181C399.793 337.613 398.917 337.887 398.157 338.003C397.396 338.118 396.748 338.089 396.217 337.923C395.687 337.756 395.274 337.45 394.987 337.009C394.696 336.567 394.536 336.008 394.507 335.324L391.165 336.794L391.35 334.87L394.677 333.409C394.843 332.697 395.124 331.952 395.52 331.178C395.917 330.405 396.457 329.638 397.134 328.877C397.815 328.116 398.649 327.378 399.64 326.662C400.63 325.949 401.8 325.297 403.142 324.706L402.803 328.203C402.008 328.551 401.337 328.919 400.79 329.302C400.244 329.686 399.799 330.073 399.454 330.463C399.112 330.852 398.86 331.236 398.7 331.61C398.54 331.984 398.444 332.339 398.413 332.668C398.377 333.048 398.416 333.349 398.534 333.569C398.652 333.793 398.831 333.943 399.068 334.023C399.304 334.103 399.598 334.116 399.94 334.055C400.288 334.007 400.669 333.886 401.081 333.704Z" fill="#FFA412"/>
<path d="M543.224 444.917C543.048 444.456 542.821 444.031 542.547 443.641L542.543 443.638C542.339 443.347 542.109 443.079 541.853 442.826L540.815 441.599L540.501 441.794C534.951 438.54 522.823 440.633 510.191 447.592C494.925 456.001 484.6 468.384 486.773 475.54L486.338 475.812L487.834 477.547C487.904 477.634 487.978 477.72 488.054 477.803L488.096 477.851L488.109 477.861C488.489 478.267 488.933 478.628 489.435 478.941L489.441 478.947C494.906 482.358 507.161 480.293 519.931 473.258C535.491 464.692 545.915 452.003 543.224 444.917Z" fill="#FFA412"/>
<path d="M508.593 445.732C524.143 437.166 538.932 435.968 541.623 443.054C544.314 450.143 533.89 462.832 518.34 471.395C502.789 479.961 488 481.16 485.309 474.074C482.615 466.987 493.043 454.298 508.593 445.732Z" fill="#FFB93E"/>
<path d="M495.625 475.88C494.423 475.79 493.337 475.573 492.394 475.221C490.585 474.55 489.38 473.431 488.812 471.894C487.693 468.88 489.256 464.645 493.212 459.969C497.079 455.401 502.793 450.904 509.302 447.308C519.301 441.782 529.221 439.497 534.57 441.485C536.379 442.156 537.584 443.278 538.156 444.812C539.274 447.826 537.712 452.064 533.752 456.737C529.889 461.305 524.172 465.802 517.662 469.398C509.427 473.949 501.243 476.302 495.625 475.88ZM531.292 441.919C525.916 441.517 517.799 443.856 509.826 448.264C503.429 451.799 497.823 456.207 494.043 460.675C490.406 464.974 488.869 468.925 489.831 471.517C490.285 472.741 491.275 473.646 492.771 474.202C493.608 474.512 494.583 474.707 495.669 474.787C501.045 475.193 509.162 472.85 517.135 468.445C523.532 464.91 529.138 460.502 532.921 456.034C536.558 451.735 538.095 447.784 537.133 445.192C536.679 443.968 535.689 443.064 534.193 442.507C533.353 442.194 532.378 441.999 531.292 441.919Z" fill="#FFA412"/>
<path d="M507.228 461.644C507.701 461.478 508.123 461.286 508.5 461.075C508.874 460.861 509.225 460.608 509.551 460.308C509.877 460.011 510.19 459.662 510.494 459.269C510.794 458.873 511.101 458.413 511.414 457.885C511.964 456.974 512.52 456.127 513.083 455.344C513.645 454.561 514.265 453.842 514.939 453.187C515.614 452.531 516.371 451.94 517.211 451.416C518.052 450.888 519.026 450.431 520.129 450.041C521.084 449.706 521.938 449.504 522.689 449.447C523.44 449.386 524.072 449.457 524.587 449.655C525.101 449.853 525.495 450.169 525.76 450.607C526.028 451.042 526.153 451.595 526.13 452.26L529.742 450.988L529.419 452.857L525.757 454.149C525.504 454.868 525.124 455.571 524.613 456.265C524.101 456.958 523.481 457.61 522.749 458.227C522.018 458.844 521.184 459.413 520.241 459.94C519.298 460.465 518.266 460.928 517.141 461.324L517.726 457.946C519.078 457.47 520.119 456.92 520.858 456.3C521.593 455.676 522.018 455.044 522.129 454.398C522.19 454.046 522.168 453.772 522.059 453.573C521.951 453.372 521.778 453.238 521.545 453.167C521.308 453.097 521.017 453.087 520.669 453.135C520.324 453.183 519.94 453.282 519.525 453.429C519.11 453.577 518.726 453.749 518.375 453.944C518.023 454.142 517.688 454.385 517.368 454.679C517.048 454.97 516.735 455.319 516.425 455.724C516.118 456.13 515.789 456.613 515.438 457.176C514.869 458.086 514.3 458.933 513.731 459.713C513.162 460.496 512.539 461.216 511.859 461.871C511.178 462.526 510.417 463.117 509.577 463.645C508.736 464.172 507.768 464.629 506.675 465.013C505.685 465.361 504.815 465.566 504.068 465.62C503.317 465.674 502.69 465.601 502.189 465.4C501.684 465.198 501.307 464.872 501.057 464.422C500.808 463.971 500.693 463.415 500.712 462.75L497.354 463.936L497.676 462.079L501.019 460.899C501.233 460.218 501.559 459.515 502.003 458.793C502.444 458.07 503.026 457.364 503.742 456.671C504.457 455.98 505.323 455.322 506.34 454.702C507.356 454.082 508.538 453.532 509.89 453.056L509.305 456.434C508.506 456.715 507.826 457.022 507.266 457.355C506.707 457.687 506.247 458.032 505.883 458.387C505.522 458.742 505.247 459.096 505.065 459.448C504.882 459.803 504.764 460.138 504.707 460.458C504.643 460.826 504.662 461.12 504.758 461.343C504.857 461.567 505.02 461.73 505.247 461.823C505.474 461.919 505.755 461.951 506.094 461.919C506.432 461.88 506.813 461.791 507.228 461.644Z" fill="#FFA412"/>
<path d="M428.231 356.99C428.449 356.53 428.714 356.108 429.027 355.725L429.03 355.721C429.263 355.437 429.522 355.175 429.803 354.935L430.973 353.749L431.28 353.976C437.262 351.045 449.62 354.152 462.118 362.312C477.224 372.176 486.923 385.76 484.123 392.977L484.548 393.29L482.867 394.965C482.788 395.048 482.704 395.132 482.618 395.211L482.57 395.259L482.554 395.269C482.129 395.659 481.644 395.995 481.1 396.279L481.091 396.285C475.185 399.383 462.696 396.298 450.061 388.049C434.68 378.006 424.901 364.099 428.231 356.99Z" fill="#FFA412"/>
<path d="M463.917 360.518C448.527 350.469 433.357 348.085 430.027 355.193C426.7 362.302 436.476 376.209 451.866 386.258C467.253 396.307 482.426 398.692 485.756 391.583C489.083 384.475 479.304 370.568 463.917 360.518Z" fill="#FFB93E"/>
<path d="M452.72 384.245C446.277 380.026 440.729 374.94 437.093 369.925C433.37 364.792 432.085 360.298 433.472 357.274C434.178 355.734 435.511 354.669 437.428 354.116C443.107 352.48 453.167 355.609 463.061 362.088C469.503 366.307 475.051 371.392 478.688 376.407C482.411 381.541 483.695 386.035 482.308 389.058C481.602 390.599 480.269 391.663 478.352 392.216C477.352 392.504 476.214 392.644 474.965 392.644C469.133 392.648 460.869 389.582 452.72 384.245ZM437.742 355.203C436.153 355.66 435.06 356.517 434.498 357.747C433.306 360.349 434.584 364.546 438.004 369.267C441.56 374.173 447.006 379.159 453.336 383.305C461.226 388.47 469.42 391.519 475 391.519C476.128 391.519 477.147 391.395 478.039 391.139C479.627 390.682 480.72 389.825 481.282 388.595C482.474 385.993 481.196 381.796 477.777 377.075C474.22 372.169 468.775 367.183 462.444 363.037C454.554 357.872 446.36 354.823 440.781 354.823C439.653 354.823 438.63 354.947 437.742 355.203Z" fill="#FFA412"/>
<path d="M465.237 377.414C465.582 377.472 465.876 377.462 466.119 377.382C466.362 377.302 466.541 377.149 466.659 376.922C466.777 376.698 466.819 376.395 466.78 376.011C466.748 375.679 466.653 375.321 466.49 374.94C466.33 374.563 466.074 374.177 465.729 373.78C465.384 373.387 464.933 372.994 464.381 372.61C463.828 372.224 463.15 371.853 462.348 371.501L462.006 367.969C463.364 368.567 464.543 369.226 465.544 369.945C466.544 370.664 467.388 371.412 468.075 372.179C468.762 372.949 469.305 373.723 469.704 374.506C470.104 375.286 470.388 376.037 470.558 376.756L473.916 378.233L474.105 380.176L470.73 378.693C470.698 379.38 470.539 379.949 470.245 380.393C469.951 380.838 469.538 381.144 469.001 381.314C468.465 381.483 467.813 381.512 467.042 381.397C466.272 381.282 465.39 381.004 464.396 380.569C463.3 380.086 462.335 379.54 461.508 378.933C460.68 378.322 459.942 377.654 459.29 376.922C458.641 376.19 458.053 375.401 457.526 374.55C456.999 373.7 456.478 372.78 455.96 371.798C455.64 371.191 455.34 370.667 455.052 370.223C454.765 369.782 454.468 369.398 454.161 369.072C453.854 368.746 453.525 368.468 453.176 368.238C452.831 368.008 452.448 367.8 452.029 367.618C451.611 367.432 451.224 367.305 450.869 367.225C450.515 367.148 450.214 367.135 449.965 367.189C449.716 367.244 449.527 367.368 449.402 367.567C449.275 367.765 449.23 368.046 449.265 368.414C449.332 369.091 449.719 369.778 450.431 370.475C451.144 371.175 452.179 371.821 453.534 372.419L453.876 375.95C452.745 375.455 451.716 374.899 450.783 374.282C449.853 373.665 449.035 373.013 448.329 372.319C447.622 371.626 447.034 370.904 446.558 370.149C446.085 369.395 445.747 368.637 445.542 367.877L441.861 366.259L441.672 364.303L445.302 365.898C445.331 365.211 445.504 364.652 445.814 364.223C446.124 363.795 446.552 363.498 447.102 363.332C447.651 363.165 448.306 363.143 449.076 363.264C449.847 363.383 450.713 363.654 451.675 364.076C452.783 364.562 453.752 365.112 454.579 365.722C455.407 366.333 456.142 367.001 456.788 367.73C457.433 368.458 458.015 369.248 458.536 370.101C459.057 370.955 459.565 371.872 460.06 372.853C460.341 373.422 460.622 373.921 460.904 374.352C461.185 374.784 461.482 375.164 461.795 375.5C462.108 375.832 462.45 376.123 462.821 376.372C463.192 376.622 463.614 376.849 464.09 377.06C464.508 377.235 464.892 377.357 465.237 377.414Z" fill="#FFA412"/>
<path d="M394.306 474.768V479.138C394.306 479.483 394.178 479.809 393.961 480.077C393.734 480.359 393.405 480.582 393.021 480.707C392.903 480.749 392.781 480.777 392.654 480.797C392.539 480.816 392.42 480.822 392.299 480.822H309.426C308.426 480.822 307.588 480.199 307.441 479.39C307.435 479.336 307.425 479.282 307.422 479.224C307.422 479.195 307.419 479.167 307.419 479.138V474.768C307.419 474.74 307.422 474.711 307.422 474.682C307.425 474.625 307.432 474.57 307.441 474.516C307.588 473.707 308.426 473.084 309.426 473.084H392.302C392.424 473.084 392.542 473.09 392.657 473.11C392.785 473.129 392.906 473.161 393.024 473.199C393.408 473.324 393.737 473.547 393.964 473.829C394.181 474.097 394.306 474.423 394.306 474.768Z" fill="#FFB93E"/>
<path d="M353.613 480.822H309.209C308.388 480.822 307.694 480.292 307.486 479.576C307.467 479.515 307.448 479.454 307.438 479.39C307.432 479.336 307.422 479.282 307.419 479.224C307.419 479.195 307.416 479.167 307.416 479.138V474.768C307.416 474.74 307.419 474.711 307.419 474.682C307.422 474.625 307.429 474.57 307.438 474.516C307.451 474.452 307.467 474.391 307.486 474.331C307.694 473.615 308.388 473.084 309.209 473.084H348.157C348.781 475.366 350.228 478.514 353.613 480.822Z" fill="#FFA412"/>
<path d="M384.223 473.088H383.281V480.826H384.223V473.088Z" fill="#FFA412"/>
<path d="M381.035 473.088H380.092V480.826H381.035V473.088Z" fill="#FFA412"/>
<path d="M377.209 473.088H376.267V480.826H377.209V473.088Z" fill="#FFA412"/>
<path d="M371.349 473.088H370.406V480.826H371.349V473.088Z" fill="#FFA412"/>
<path d="M365.152 473.088H364.209V480.826H365.152V473.088Z" fill="#FFA412"/>
<path d="M355.651 473.088H354.708V480.826H355.651V473.088Z" fill="#FFA412"/>
<path d="M346.754 473.088H345.812V480.826H346.754V473.088Z" fill="#FFA412"/>
<path d="M338.813 473.088H337.871V480.826H338.813V473.088Z" fill="#FFA412"/>
<path d="M387.256 473.088H386.313V480.826H387.256V473.088Z" fill="#FFA412"/>
<path d="M389.263 473.088H388.321V480.826H389.263V473.088Z" fill="#FFA412"/>
<path d="M391.2 473.088H390.257V480.826H391.2V473.088Z" fill="#FFA412"/>
<path d="M392.654 473.113V480.797C392.539 480.816 392.421 480.822 392.299 480.822H391.711V473.084H392.299C392.421 473.087 392.539 473.094 392.654 473.113Z" fill="#FFA412"/>
<path d="M393.964 473.829V480.081C393.737 480.365 393.408 480.586 393.021 480.71V473.199C393.405 473.324 393.734 473.548 393.964 473.829Z" fill="#FFA412"/>
<path d="M385.444 467.033V471.403C385.444 471.751 385.317 472.077 385.102 472.346C385.045 472.416 384.981 472.483 384.914 472.544C384.706 472.729 384.451 472.879 384.16 472.972C384.045 473.01 383.92 473.039 383.792 473.058C383.677 473.078 383.559 473.087 383.441 473.087H300.564C299.564 473.087 298.73 472.461 298.58 471.652C298.574 471.598 298.564 471.543 298.561 471.489C298.558 471.46 298.558 471.431 298.558 471.399V467.03C298.558 467.001 298.558 466.969 298.561 466.944C298.564 466.89 298.57 466.835 298.58 466.781C298.727 465.972 299.564 465.346 300.564 465.346H383.444C383.495 465.346 383.549 465.349 383.601 465.352C383.62 465.352 383.639 465.355 383.658 465.358C383.661 465.355 383.664 465.355 383.668 465.358C383.69 465.358 383.716 465.362 383.744 465.365C383.764 465.368 383.779 465.371 383.795 465.371C383.923 465.39 384.048 465.419 384.163 465.458C384.233 465.48 384.3 465.506 384.364 465.534H384.368C384.412 465.553 384.457 465.576 384.498 465.595C384.521 465.608 384.546 465.624 384.572 465.637C384.594 465.649 384.62 465.662 384.639 465.678C384.729 465.729 384.809 465.79 384.882 465.857C384.908 465.876 384.93 465.902 384.952 465.921C384.968 465.934 384.981 465.947 384.994 465.959C385 465.966 385.01 465.975 385.016 465.982L385.035 466.001C385.061 466.026 385.087 466.055 385.109 466.087C385.317 466.362 385.444 466.682 385.444 467.033Z" fill="#FFB93E"/>
<path d="M344.748 473.087H300.347C299.526 473.087 298.832 472.553 298.628 471.837C298.609 471.777 298.593 471.716 298.58 471.652C298.574 471.598 298.564 471.543 298.561 471.489C298.558 471.46 298.558 471.431 298.558 471.399V467.03C298.558 467.001 298.558 466.969 298.561 466.944C298.564 466.89 298.57 466.835 298.58 466.781C298.593 466.717 298.609 466.656 298.628 466.595C298.832 465.879 299.526 465.346 300.347 465.346H339.296C339.312 465.41 339.331 465.474 339.35 465.537C340.002 467.797 341.459 470.84 344.748 473.087Z" fill="#FFA412"/>
<path d="M375.362 465.346H374.419V473.084H375.362V465.346Z" fill="#FFA412"/>
<path d="M372.173 465.346H371.23V473.084H372.173V465.346Z" fill="#FFA412"/>
<path d="M368.351 465.346H367.408V473.084H368.351V465.346Z" fill="#FFA412"/>
<path d="M362.49 465.346H361.547V473.084H362.49V465.346Z" fill="#FFA412"/>
<path d="M356.29 465.346H355.348V473.084H356.29V465.346Z" fill="#FFA412"/>
<path d="M346.79 465.346H345.847V473.084H346.79V465.346Z" fill="#FFA412"/>
<path d="M337.896 465.346H336.953V473.084H337.896V465.346Z" fill="#FFA412"/>
<path d="M329.952 465.346H329.009V473.084H329.952V465.346Z" fill="#FFA412"/>
<path d="M378.398 465.346H377.455V473.084H378.398V465.346Z" fill="#FFA412"/>
<path d="M380.402 465.346H379.459V473.084H380.402V465.346Z" fill="#FFA412"/>
<path d="M382.338 465.346H381.396V473.084H382.338V465.346Z" fill="#FFA412"/>
<path d="M383.792 465.374V473.058C383.677 473.078 383.559 473.084 383.438 473.084H382.85V465.346H383.438C383.562 465.346 383.677 465.355 383.792 465.374Z" fill="#FFA412"/>
<path d="M385.102 466.091V472.343C384.875 472.624 384.546 472.848 384.163 472.972V465.461C384.546 465.586 384.872 465.809 385.102 466.091Z" fill="#FFA412"/>
<path d="M389.727 459.485V463.857C389.727 464.205 389.599 464.528 389.382 464.797C389.155 465.078 388.829 465.302 388.442 465.426C388.324 465.465 388.202 465.494 388.075 465.516C387.959 465.532 387.841 465.541 387.723 465.541H304.844C304.511 465.541 304.198 465.471 303.92 465.35C303.37 465.11 302.968 464.659 302.862 464.125C302.856 464.09 302.853 464.052 302.846 464.017C302.843 463.994 302.84 463.969 302.84 463.94C302.837 463.911 302.837 463.883 302.837 463.854V459.481C302.837 459.453 302.837 459.424 302.84 459.395C302.843 459.341 302.846 459.283 302.859 459.232C303.006 458.42 303.843 457.797 304.844 457.797H387.723C387.841 457.797 387.963 457.803 388.075 457.822C388.202 457.842 388.327 457.87 388.442 457.909C388.829 458.037 389.155 458.257 389.382 458.542C389.599 458.813 389.727 459.136 389.727 459.485Z" fill="#FFB93E"/>
<path d="M349.03 465.538H304.629C304.332 465.538 304.051 465.468 303.805 465.346C303.313 465.107 302.952 464.656 302.862 464.122C302.856 464.087 302.853 464.049 302.846 464.014C302.843 463.991 302.84 463.966 302.84 463.937C302.837 463.908 302.837 463.879 302.837 463.851V459.478C302.837 459.449 302.837 459.421 302.84 459.392C302.843 459.337 302.846 459.28 302.859 459.229C302.872 459.168 302.888 459.107 302.907 459.05C303.108 458.331 303.805 457.797 304.629 457.797H343.578C344.185 460.012 345.572 463.055 348.758 465.343C348.848 465.41 348.937 465.478 349.03 465.538Z" fill="#FFA412"/>
<path d="M379.644 457.801H378.702V465.539H379.644V457.801Z" fill="#FFA412"/>
<path d="M376.455 457.801H375.512V465.539H376.455V457.801Z" fill="#FFA412"/>
<path d="M372.633 457.801H371.69V465.539H372.633V457.801Z" fill="#FFA412"/>
<path d="M366.772 457.801H365.83V465.539H366.772V457.801Z" fill="#FFA412"/>
<path d="M360.573 457.801H359.63V465.539H360.573V457.801Z" fill="#FFA412"/>
<path d="M351.072 457.801H350.129V465.539H351.072V457.801Z" fill="#FFA412"/>
<path d="M342.178 457.801H341.236V465.539H342.178V457.801Z" fill="#FFA412"/>
<path d="M334.234 457.801H333.291V465.539H334.234V457.801Z" fill="#FFA412"/>
<path d="M382.677 457.801H381.734V465.539H382.677V457.801Z" fill="#FFA412"/>
<path d="M384.684 457.801H383.741V465.539H384.684V457.801Z" fill="#FFA412"/>
<path d="M386.62 457.801H385.678V465.539H386.62V457.801Z" fill="#FFA412"/>
<path d="M388.075 457.83V465.513C387.959 465.529 387.841 465.539 387.72 465.539H387.132V457.801H387.72C387.844 457.801 387.959 457.81 388.075 457.83Z" fill="#FFA412"/>
<path d="M389.385 458.546V464.798C389.155 465.082 388.829 465.303 388.442 465.427V457.916C388.829 458.041 389.155 458.261 389.385 458.546Z" fill="#FFA412"/>
<path d="M391.711 451.745V456.115C391.711 456.463 391.583 456.786 391.366 457.055C391.337 457.09 391.305 457.125 391.277 457.157C391.12 457.326 390.925 457.467 390.705 457.572C390.615 457.614 390.522 457.652 390.427 457.684C390.308 457.723 390.187 457.751 390.059 457.77C390.002 457.777 389.944 457.786 389.887 457.79C389.829 457.793 389.765 457.796 389.704 457.796H306.831C305.828 457.796 304.994 457.17 304.847 456.361C304.84 456.307 304.831 456.252 304.828 456.198V451.653C304.879 450.831 305.636 450.163 306.595 450.067C306.672 450.061 306.751 450.055 306.835 450.055H389.711C389.771 450.055 389.832 450.058 389.893 450.064C389.954 450.071 390.011 450.074 390.065 450.083C390.193 450.103 390.315 450.131 390.433 450.17C390.816 450.294 391.146 450.518 391.373 450.799C391.587 451.074 391.711 451.397 391.711 451.745Z" fill="#FFB93E"/>
<path d="M351.018 457.8H306.617C305.796 457.8 305.099 457.266 304.895 456.55C304.876 456.49 304.856 456.429 304.847 456.365C304.84 456.311 304.831 456.256 304.828 456.202V451.657C304.876 450.838 305.55 450.167 306.403 450.071C306.473 450.065 306.544 450.059 306.614 450.059H345.563C345.563 450.065 345.566 450.068 345.566 450.071C346.192 452.35 347.64 455.496 351.018 457.8Z" fill="#FFA412"/>
<path d="M381.629 450.062H380.686V457.801H381.629V450.062Z" fill="#FFA412"/>
<path d="M378.44 450.062H377.497V457.801H378.44V450.062Z" fill="#FFA412"/>
<path d="M374.618 450.062H373.675V457.801H374.618V450.062Z" fill="#FFA412"/>
<path d="M368.757 450.062H367.814V457.801H368.757V450.062Z" fill="#FFA412"/>
<path d="M362.557 450.062H361.615V457.801H362.557V450.062Z" fill="#FFA412"/>
<path d="M353.057 450.062H352.114V457.801H353.057V450.062Z" fill="#FFA412"/>
<path d="M344.163 450.062H343.22V457.801H344.163V450.062Z" fill="#FFA412"/>
<path d="M336.219 450.062H335.276V457.801H336.219V450.062Z" fill="#FFA412"/>
<path d="M384.665 450.062H383.722V457.801H384.665V450.062Z" fill="#FFA412"/>
<path d="M386.669 450.062H385.726V457.801H386.669V450.062Z" fill="#FFA412"/>
<path d="M388.605 450.062H387.662V457.801H388.605V450.062Z" fill="#FFA412"/>
<path d="M390.062 450.087V457.771C389.947 457.79 389.829 457.797 389.708 457.797H389.12V450.059H389.708C389.829 450.062 389.947 450.071 390.062 450.087Z" fill="#FFA412"/>
<path d="M391.369 450.807V457.059C391.143 457.344 390.813 457.564 390.427 457.689V450.178C390.813 450.299 391.139 450.523 391.369 450.807Z" fill="#FFA412"/>
<path d="M385.617 444.02V448.39C385.617 448.738 385.492 449.061 385.275 449.329C385.048 449.614 384.719 449.838 384.332 449.962C384.214 450.001 384.093 450.029 383.968 450.049C383.93 450.055 383.891 450.061 383.853 450.065H383.837C383.818 450.068 383.796 450.071 383.776 450.071C383.757 450.074 383.741 450.074 383.722 450.077C383.687 450.077 383.652 450.081 383.617 450.081H300.74C299.67 450.081 298.791 449.368 298.737 448.482C298.733 448.454 298.733 448.425 298.733 448.393V444.024C298.733 443.995 298.733 443.963 298.737 443.934C298.737 443.912 298.74 443.886 298.743 443.864C298.823 443.151 299.44 442.56 300.248 442.39C300.267 442.384 300.286 442.381 300.309 442.377C300.449 442.352 300.593 442.336 300.743 442.336H383.62C383.684 442.336 383.738 442.339 383.799 442.342C383.824 442.346 383.85 442.349 383.875 442.349C383.879 442.349 383.879 442.349 383.879 442.349H383.882C383.914 442.352 383.943 442.355 383.974 442.361C384.099 442.381 384.224 442.409 384.339 442.448C384.725 442.572 385.055 442.793 385.281 443.081C385.496 443.349 385.617 443.669 385.617 444.02Z" fill="#FFB93E"/>
<path d="M344.923 450.075H300.523C299.567 450.075 298.785 449.362 298.733 448.477C298.73 448.448 298.73 448.419 298.73 448.387V444.018C298.73 443.989 298.73 443.957 298.733 443.928C298.733 443.906 298.737 443.88 298.74 443.858C298.813 443.129 299.385 442.531 300.13 442.375C300.152 442.368 300.178 442.362 300.207 442.359C300.309 442.34 300.418 442.33 300.526 442.33H339.472C339.478 442.349 339.481 442.365 339.488 442.388C340.117 444.657 341.568 447.767 344.908 450.059C344.911 450.065 344.917 450.068 344.923 450.075Z" fill="#FFA412"/>
<path d="M375.535 442.338H374.592V450.076H375.535V442.338Z" fill="#FFA412"/>
<path d="M372.349 442.338H371.406V450.076H372.349V442.338Z" fill="#FFA412"/>
<path d="M368.523 442.338H367.581V450.076H368.523V442.338Z" fill="#FFA412"/>
<path d="M362.662 442.338H361.72V450.076H362.662V442.338Z" fill="#FFA412"/>
<path d="M356.466 442.338H355.523V450.076H356.466V442.338Z" fill="#FFA412"/>
<path d="M346.966 442.338H346.023V450.076H346.966V442.338Z" fill="#FFA412"/>
<path d="M338.069 442.338H337.126V450.076H338.069V442.338Z" fill="#FFA412"/>
<path d="M330.124 442.338H329.182V450.076H330.124V442.338Z" fill="#FFA412"/>
<path d="M378.571 442.338H377.628V450.076H378.571V442.338Z" fill="#FFA412"/>
<path d="M380.574 442.338H379.632V450.076H380.574V442.338Z" fill="#FFA412"/>
<path d="M382.511 442.338H381.568V450.076H382.511V442.338Z" fill="#FFA412"/>
<path d="M383.968 442.363V450.047C383.853 450.063 383.735 450.072 383.613 450.072H383.025V442.334H383.613C383.735 442.337 383.853 442.347 383.968 442.363Z" fill="#FFA412"/>
<path d="M385.275 443.079V449.331C385.048 449.615 384.719 449.836 384.336 449.96V442.449C384.719 442.574 385.048 442.798 385.275 443.079Z" fill="#FFA412"/>
<path d="M385.444 436.337V440.707C385.444 441.055 385.317 441.378 385.102 441.646C385.045 441.717 384.981 441.784 384.914 441.848C384.706 442.033 384.451 442.183 384.16 442.276C384.067 442.308 383.971 442.33 383.875 442.35H383.872C383.869 442.35 383.869 442.35 383.869 442.35C383.843 442.356 383.818 442.359 383.792 442.362C383.677 442.381 383.559 442.391 383.441 442.391H300.564C300.478 442.391 300.392 442.385 300.306 442.375C300.274 442.372 300.239 442.369 300.207 442.362C299.363 442.231 298.698 441.656 298.577 440.937C298.57 440.889 298.564 440.841 298.561 440.793C298.558 440.761 298.558 440.732 298.558 440.703V436.334C298.558 436.302 298.558 436.273 298.561 436.245C298.564 436.19 298.57 436.136 298.58 436.082C298.727 435.273 299.564 434.646 300.564 434.646H383.444C383.495 434.646 383.549 434.65 383.601 434.653C383.607 434.653 383.616 434.656 383.62 434.656C383.636 434.659 383.652 434.659 383.668 434.659C383.69 434.662 383.716 434.666 383.744 434.669C383.764 434.669 383.779 434.672 383.795 434.678C383.923 434.698 384.048 434.726 384.163 434.765C384.233 434.787 384.3 434.813 384.364 434.841H384.368C384.626 434.957 384.85 435.116 385.029 435.308C385.055 435.337 385.08 435.366 385.102 435.394C385.317 435.663 385.444 435.989 385.444 436.337Z" fill="#FFB93E"/>
<path d="M344.748 442.392H300.347C300.315 442.392 300.277 442.389 300.245 442.389C300.207 442.385 300.168 442.382 300.13 442.379C299.328 442.283 298.685 441.689 298.577 440.941C298.57 440.893 298.564 440.845 298.561 440.797C298.558 440.765 298.558 440.736 298.558 440.707V436.338C298.558 436.306 298.558 436.277 298.561 436.249C298.564 436.194 298.57 436.14 298.58 436.086C298.593 436.022 298.609 435.961 298.628 435.9C298.832 435.184 299.526 434.65 300.347 434.65H339.296C339.312 434.714 339.331 434.778 339.35 434.842C339.996 437.086 341.437 440.094 344.668 442.334C344.693 442.357 344.722 442.373 344.748 442.392Z" fill="#FFA412"/>
<path d="M375.362 434.652H374.419V442.391H375.362V434.652Z" fill="#FFA412"/>
<path d="M372.173 434.652H371.23V442.391H372.173V434.652Z" fill="#FFA412"/>
<path d="M368.351 434.652H367.408V442.391H368.351V434.652Z" fill="#FFA412"/>
<path d="M362.49 434.652H361.547V442.391H362.49V434.652Z" fill="#FFA412"/>
<path d="M356.29 434.652H355.348V442.391H356.29V434.652Z" fill="#FFA412"/>
<path d="M346.79 434.652H345.847V442.391H346.79V434.652Z" fill="#FFA412"/>
<path d="M337.896 434.652H336.953V442.391H337.896V434.652Z" fill="#FFA412"/>
<path d="M329.952 434.652H329.009V442.391H329.952V434.652Z" fill="#FFA412"/>
<path d="M378.398 434.652H377.455V442.391H378.398V434.652Z" fill="#FFA412"/>
<path d="M380.402 434.652H379.459V442.391H380.402V434.652Z" fill="#FFA412"/>
<path d="M382.338 434.652H381.396V442.391H382.338V434.652Z" fill="#FFA412"/>
<path d="M383.792 434.678V442.365C383.677 442.381 383.559 442.391 383.438 442.391H382.85V434.652H383.438C383.562 434.652 383.677 434.662 383.792 434.678Z" fill="#FFA412"/>
<path d="M385.102 435.397V441.649C384.875 441.934 384.546 442.154 384.163 442.279V434.768C384.546 434.889 384.872 435.113 385.102 435.397Z" fill="#FFA412"/>
<path d="M389.727 428.788V433.157C389.727 433.506 389.599 433.832 389.382 434.1C389.155 434.381 388.829 434.605 388.442 434.73C388.324 434.768 388.202 434.797 388.075 434.816C387.959 434.835 387.841 434.845 387.723 434.845H304.844C304.511 434.845 304.198 434.775 303.92 434.653C303.37 434.413 302.968 433.963 302.862 433.432C302.856 433.397 302.853 433.359 302.846 433.323C302.843 433.298 302.84 433.276 302.84 433.25C302.837 433.221 302.837 433.192 302.837 433.16V428.791C302.837 428.762 302.837 428.73 302.84 428.702C302.843 428.647 302.846 428.593 302.859 428.539C303.006 427.73 303.843 427.104 304.844 427.104H387.723C387.841 427.104 387.963 427.113 388.075 427.132C388.202 427.151 388.327 427.18 388.442 427.219C388.829 427.343 389.155 427.564 389.382 427.851C389.599 428.12 389.727 428.44 389.727 428.788Z" fill="#FFB93E"/>
<path d="M349.03 434.845H304.629C304.332 434.845 304.051 434.775 303.805 434.653C303.313 434.413 302.952 433.963 302.862 433.432C302.856 433.397 302.853 433.359 302.846 433.323C302.843 433.298 302.84 433.276 302.84 433.25C302.837 433.221 302.837 433.192 302.837 433.16V428.791C302.837 428.762 302.837 428.73 302.84 428.702C302.843 428.647 302.846 428.593 302.859 428.539C302.872 428.478 302.888 428.417 302.907 428.36C303.108 427.641 303.805 427.104 304.629 427.104H343.578C344.185 429.319 345.572 432.361 348.758 434.653C348.848 434.717 348.937 434.778 349.03 434.845Z" fill="#FFA412"/>
<path d="M379.644 427.104H378.702V434.842H379.644V427.104Z" fill="#FFA412"/>
<path d="M376.455 427.104H375.512V434.842H376.455V427.104Z" fill="#FFA412"/>
<path d="M372.633 427.104H371.69V434.842H372.633V427.104Z" fill="#FFA412"/>
<path d="M366.772 427.104H365.83V434.842H366.772V427.104Z" fill="#FFA412"/>
<path d="M360.573 427.104H359.63V434.842H360.573V427.104Z" fill="#FFA412"/>
<path d="M351.072 427.104H350.129V434.842H351.072V427.104Z" fill="#FFA412"/>
<path d="M342.178 427.104H341.236V434.842H342.178V427.104Z" fill="#FFA412"/>
<path d="M334.234 427.104H333.291V434.842H334.234V427.104Z" fill="#FFA412"/>
<path d="M382.677 427.104H381.734V434.842H382.677V427.104Z" fill="#FFA412"/>
<path d="M384.684 427.104H383.741V434.842H384.684V427.104Z" fill="#FFA412"/>
<path d="M386.62 427.104H385.678V434.842H386.62V427.104Z" fill="#FFA412"/>
<path d="M388.075 427.132V434.816C387.959 434.832 387.841 434.842 387.72 434.842H387.132V427.104H387.72C387.844 427.104 387.959 427.113 388.075 427.132Z" fill="#FFA412"/>
<path d="M389.385 427.848V434.1C389.155 434.385 388.829 434.605 388.442 434.73V427.219C388.829 427.343 389.155 427.567 389.385 427.848Z" fill="#FFA412"/>
<path d="M396.498 421.049V425.421C396.498 425.767 396.37 426.09 396.156 426.358L396.153 426.361C396.124 426.396 396.092 426.431 396.064 426.463C395.936 426.598 395.789 426.716 395.619 426.809C395.536 426.857 395.45 426.898 395.354 426.937C395.351 426.937 395.351 426.94 395.351 426.94C395.306 426.959 395.261 426.975 395.21 426.991C395.092 427.029 394.971 427.058 394.843 427.077C394.728 427.096 394.61 427.103 394.491 427.103H311.618C310.618 427.103 309.784 426.479 309.634 425.671C309.624 425.616 309.618 425.562 309.615 425.505C309.611 425.476 309.611 425.447 309.611 425.418V421.046C309.611 421.017 309.611 420.988 309.615 420.959C309.662 420.141 310.42 419.47 311.382 419.374C311.458 419.364 311.538 419.361 311.618 419.361H394.498C394.616 419.361 394.737 419.371 394.849 419.387C394.977 419.409 395.102 419.435 395.217 419.476C395.552 419.585 395.843 419.77 396.067 420.001C396.099 420.036 396.131 420.068 396.156 420.103L396.159 420.106C396.374 420.381 396.498 420.701 396.498 421.049Z" fill="#FFB93E"/>
<path d="M355.805 427.103H311.404C310.58 427.103 309.886 426.569 309.682 425.85C309.662 425.792 309.646 425.732 309.634 425.671C309.624 425.616 309.618 425.562 309.615 425.505C309.611 425.476 309.611 425.447 309.611 425.418V421.046C309.611 421.017 309.611 420.988 309.615 420.959C309.659 420.141 310.334 419.47 311.187 419.374C311.257 419.364 311.327 419.361 311.401 419.361H350.35C350.35 419.365 350.353 419.368 350.353 419.374C350.976 421.656 352.427 424.798 355.805 427.103Z" fill="#FFA412"/>
<path d="M386.416 419.365H385.473V427.103H386.416V419.365Z" fill="#FFA412"/>
<path d="M383.226 419.365H382.284V427.103H383.226V419.365Z" fill="#FFA412"/>
<path d="M379.405 419.365H378.462V427.103H379.405V419.365Z" fill="#FFA412"/>
<path d="M373.544 419.365H372.601V427.103H373.544V419.365Z" fill="#FFA412"/>
<path d="M367.347 419.365H366.405V427.103H367.347V419.365Z" fill="#FFA412"/>
<path d="M357.847 419.365H356.904V427.103H357.847V419.365Z" fill="#FFA412"/>
<path d="M348.95 419.365H348.007V427.103H348.95V419.365Z" fill="#FFA412"/>
<path d="M341.005 419.365H340.063V427.103H341.005V419.365Z" fill="#FFA412"/>
<path d="M389.452 419.365H388.509V427.103H389.452V419.365Z" fill="#FFA412"/>
<path d="M391.455 419.365H390.513V427.103H391.455V419.365Z" fill="#FFA412"/>
<path d="M393.392 419.365H392.449V427.103H393.392V419.365Z" fill="#FFA412"/>
<path d="M394.849 419.394V427.078C394.734 427.097 394.616 427.103 394.494 427.103H393.906V419.365H394.494C394.616 419.365 394.734 419.375 394.849 419.394Z" fill="#FFA412"/>
<path d="M396.156 420.11V426.362C395.929 426.643 395.6 426.867 395.217 426.992V419.48C395.6 419.605 395.929 419.826 396.156 420.11Z" fill="#FFA412"/>
<path d="M385.617 413.324V417.694C385.617 418.042 385.492 418.365 385.275 418.633C385.048 418.918 384.719 419.142 384.332 419.266C384.214 419.305 384.092 419.333 383.968 419.353C383.929 419.359 383.891 419.362 383.853 419.369H383.837C383.811 419.375 383.786 419.375 383.76 419.375C383.744 419.375 383.728 419.378 383.712 419.378C383.677 419.378 383.648 419.381 383.613 419.381H300.74C300.021 419.381 299.385 419.062 299.034 418.579C298.861 418.346 298.756 418.074 298.736 417.783C298.733 417.751 298.733 417.722 298.733 417.694V413.324C298.733 413.292 298.733 413.264 298.736 413.235C298.781 412.519 299.369 411.915 300.158 411.713C300.344 411.665 300.539 411.637 300.74 411.637H383.616C383.651 411.637 383.687 411.64 383.722 411.64C383.741 411.64 383.757 411.643 383.773 411.646C383.84 411.65 383.904 411.656 383.971 411.669C384.096 411.688 384.22 411.717 384.335 411.755C384.396 411.774 384.45 411.793 384.505 411.819H384.508C384.728 411.908 384.923 412.033 385.09 412.183C385.093 412.186 385.096 412.19 385.096 412.193C385.102 412.199 385.112 412.206 385.118 412.212C385.176 412.263 385.227 412.321 385.275 412.381C385.495 412.653 385.617 412.976 385.617 413.324Z" fill="#FFB93E"/>
<path d="M344.923 419.378H300.523C299.9 419.378 299.344 419.071 299.027 418.614C298.858 418.371 298.749 418.087 298.733 417.78C298.73 417.748 298.73 417.719 298.73 417.691V413.321C298.73 413.289 298.73 413.26 298.733 413.232C298.778 412.461 299.376 411.822 300.159 411.672C300.274 411.649 300.398 411.637 300.52 411.637H339.465C339.481 411.697 339.5 411.755 339.516 411.816C340.162 414.072 341.619 417.115 344.898 419.365C344.911 419.369 344.917 419.375 344.923 419.378Z" fill="#FFA412"/>
<path d="M375.535 411.641H374.592V419.379H375.535V411.641Z" fill="#FFA412"/>
<path d="M372.349 411.641H371.406V419.379H372.349V411.641Z" fill="#FFA412"/>
<path d="M368.524 411.641H367.581V419.379H368.524V411.641Z" fill="#FFA412"/>
<path d="M362.663 411.641H361.72V419.379H362.663V411.641Z" fill="#FFA412"/>
<path d="M356.466 411.641H355.523V419.379H356.466V411.641Z" fill="#FFA412"/>
<path d="M346.965 411.641H346.023V419.379H346.965V411.641Z" fill="#FFA412"/>
<path d="M338.069 411.641H337.126V419.379H338.069V411.641Z" fill="#FFA412"/>
<path d="M330.124 411.641H329.182V419.379H330.124V411.641Z" fill="#FFA412"/>
<path d="M378.571 411.641H377.628V419.379H378.571V411.641Z" fill="#FFA412"/>
<path d="M380.574 411.641H379.632V419.379H380.574V411.641Z" fill="#FFA412"/>
<path d="M382.511 411.641H381.568V419.379H382.511V411.641Z" fill="#FFA412"/>
<path d="M383.968 411.666V419.353C383.853 419.369 383.735 419.379 383.613 419.379H383.025V411.641H383.613C383.735 411.641 383.853 411.65 383.968 411.666Z" fill="#FFA412"/>
<path d="M385.275 412.386V418.637C385.048 418.922 384.719 419.142 384.336 419.267V411.756C384.719 411.881 385.048 412.101 385.275 412.386Z" fill="#FFA412"/>
<path d="M391.711 405.764V410.133C391.711 410.482 391.583 410.804 391.366 411.073C391.139 411.357 390.81 411.578 390.423 411.702C390.305 411.741 390.184 411.77 390.056 411.789C389.941 411.808 389.822 411.814 389.701 411.814H306.831C306.508 411.814 306.205 411.75 305.936 411.635C305.332 411.383 304.901 410.875 304.834 410.287C304.831 410.264 304.831 410.242 304.827 410.216C304.827 410.187 304.824 410.159 304.824 410.13V405.761C304.824 405.732 304.824 405.703 304.827 405.674C304.879 404.853 305.633 404.185 306.595 404.089C306.671 404.079 306.751 404.076 306.831 404.076H389.707C389.829 404.076 389.947 404.086 390.062 404.102C390.19 404.121 390.311 404.15 390.43 404.188C390.813 404.313 391.142 404.536 391.372 404.818C391.586 405.093 391.711 405.415 391.711 405.764Z" fill="#FFB93E"/>
<path d="M351.018 411.818H306.617C306.329 411.818 306.058 411.754 305.818 411.639C305.278 411.387 304.895 410.879 304.834 410.29C304.831 410.268 304.831 410.246 304.827 410.22C304.827 410.191 304.824 410.163 304.824 410.134V405.765C304.824 405.736 304.824 405.707 304.827 405.678C304.872 404.86 305.546 404.189 306.403 404.093C306.47 404.083 306.543 404.08 306.614 404.08H345.562C345.562 404.083 345.566 404.09 345.566 404.093C346.173 406.311 347.566 409.354 350.759 411.639C350.845 411.7 350.928 411.761 351.018 411.818Z" fill="#FFA412"/>
<path d="M381.629 404.08H380.686V411.818H381.629V404.08Z" fill="#FFA412"/>
<path d="M378.439 404.08H377.497V411.818H378.439V404.08Z" fill="#FFA412"/>
<path d="M374.618 404.08H373.675V411.818H374.618V404.08Z" fill="#FFA412"/>
<path d="M368.757 404.08H367.814V411.818H368.757V404.08Z" fill="#FFA412"/>
<path d="M362.557 404.08H361.614V411.818H362.557V404.08Z" fill="#FFA412"/>
<path d="M353.056 404.08H352.114V411.818H353.056V404.08Z" fill="#FFA412"/>
<path d="M344.163 404.08H343.22V411.818H344.163V404.08Z" fill="#FFA412"/>
<path d="M336.218 404.08H335.276V411.818H336.218V404.08Z" fill="#FFA412"/>
<path d="M384.664 404.08H383.722V411.818H384.664V404.08Z" fill="#FFA412"/>
<path d="M386.668 404.08H385.726V411.818H386.668V404.08Z" fill="#FFA412"/>
<path d="M388.605 404.08H387.662V411.818H388.605V404.08Z" fill="#FFA412"/>
<path d="M390.062 404.105V411.789C389.947 411.808 389.829 411.814 389.707 411.814H389.119V404.076H389.707C389.829 404.079 389.947 404.089 390.062 404.105Z" fill="#FFA412"/>
<path d="M391.369 404.821V411.073C391.142 411.357 390.813 411.578 390.426 411.703V404.191C390.813 404.316 391.139 404.54 391.369 404.821Z" fill="#FFA412"/>
<path d="M394.306 398.036V402.405C394.306 402.754 394.178 403.077 393.961 403.345C393.734 403.63 393.405 403.85 393.018 403.975C392.9 404.013 392.778 404.042 392.651 404.061C392.612 404.067 392.574 404.071 392.536 404.077C392.513 404.077 392.491 404.08 392.469 404.083C392.446 404.087 392.427 404.087 392.401 404.087C392.366 404.09 392.331 404.09 392.296 404.09H309.426C308.359 404.09 307.477 403.377 307.422 402.492C307.422 402.463 307.419 402.434 307.419 402.405V398.036C307.419 398.007 307.419 397.978 307.422 397.95C307.477 397.064 308.356 396.352 309.426 396.352H392.302C392.424 396.352 392.539 396.361 392.657 396.377C392.785 396.396 392.906 396.425 393.025 396.463C393.408 396.588 393.737 396.812 393.967 397.093C394.181 397.365 394.306 397.688 394.306 398.036Z" fill="#FFB93E"/>
<path d="M353.609 404.094H309.209C308.256 404.094 307.47 403.381 307.422 402.496C307.422 402.467 307.419 402.438 307.419 402.409V398.04C307.419 398.011 307.419 397.982 307.422 397.954C307.47 397.068 308.256 396.355 309.209 396.355H348.157C348.777 398.631 350.225 401.773 353.593 404.081C353.596 404.084 353.603 404.09 353.609 404.094Z" fill="#FFA412"/>
<path d="M384.224 396.352H383.281V404.09H384.224V396.352Z" fill="#FFA412"/>
<path d="M381.034 396.352H380.092V404.09H381.034V396.352Z" fill="#FFA412"/>
<path d="M377.209 396.352H376.266V404.09H377.209V396.352Z" fill="#FFA412"/>
<path d="M371.348 396.352H370.406V404.09H371.348V396.352Z" fill="#FFA412"/>
<path d="M365.152 396.352H364.209V404.09H365.152V396.352Z" fill="#FFA412"/>
<path d="M355.651 396.352H354.708V404.09H355.651V396.352Z" fill="#FFA412"/>
<path d="M346.754 396.352H345.812V404.09H346.754V396.352Z" fill="#FFA412"/>
<path d="M338.813 396.352H337.871V404.09H338.813V396.352Z" fill="#FFA412"/>
<path d="M387.256 396.352H386.314V404.09H387.256V396.352Z" fill="#FFA412"/>
<path d="M389.263 396.352H388.321V404.09H389.263V396.352Z" fill="#FFA412"/>
<path d="M391.2 396.352H390.257V404.09H391.2V396.352Z" fill="#FFA412"/>
<path d="M392.654 396.38V404.064C392.539 404.083 392.421 404.09 392.299 404.09H391.711V396.352H392.299C392.421 396.352 392.539 396.361 392.654 396.38Z" fill="#FFA412"/>
<path d="M393.964 397.096V403.348C393.737 403.63 393.408 403.853 393.021 403.978V396.467C393.405 396.591 393.734 396.815 393.964 397.096Z" fill="#FFA412"/>
<path d="M368.034 352.252C368.034 352.252 363.682 358.383 359.691 358.466C355.699 358.552 349.627 355.624 349.627 355.624C349.627 355.624 345.962 347.458 348.448 344.261C348.448 344.261 350.941 343.168 353.549 345.099C353.996 345.431 354.45 345.853 354.897 346.39C355.53 347.151 356.239 347.582 356.993 347.809C359.841 348.676 363.222 346.636 364.484 348.605C365.222 349.749 366.024 350.609 366.686 351.213C367.469 351.913 368.034 352.252 368.034 352.252Z" fill="#FFEDDC"/>
<path d="M311.286 396.466C311.286 396.466 326.67 359.178 354.367 358.469C354.367 358.469 379.932 361.31 381.351 396.466H311.286Z" fill="#FFEDDC"/>
<path d="M346.78 359.607C346.78 359.607 357.882 362.074 361.304 360.627C361.304 360.627 361.822 355.982 357.147 356.634C353.948 357.079 351.864 355.541 350.637 354.918C348.905 354.033 346.32 357.664 346.78 359.607Z" fill="#DB6A1D"/>
<path d="M356.441 352.61C355.731 353.143 353.552 345.102 353.552 345.102C353.999 345.434 354.453 345.856 354.9 346.393C355.533 347.154 356.243 347.585 356.997 347.812C357 348.049 357.128 352.089 356.441 352.61Z" fill="#E5C1A1"/>
<path d="M366.686 351.216C366.529 351.308 361.397 354.383 360.7 354.383C359.991 354.383 364.484 348.607 364.484 348.607C365.226 349.752 366.028 350.611 366.686 351.216Z" fill="#E5C1A1"/>
<path d="M326.318 386.05C326.034 385.807 337.206 369.596 340.283 369.477C343.361 369.359 350.273 373.029 355.281 373.502C360.285 373.975 365.139 372.555 366.085 375.515C367.031 378.475 369.636 388.965 368.038 390.646C366.44 392.324 332.46 391.298 326.318 386.05Z" fill="#F9DDBF"/>
<path opacity="0.5" d="M336.838 442.333C336.835 442.352 336.835 442.371 336.832 442.39C336.688 444.989 336.27 447.556 335.589 450.061C335.589 450.065 335.586 450.071 335.586 450.074C335.487 450.435 335.384 450.8 335.273 451.158C334.579 453.443 333.665 455.665 332.54 457.8C331.131 460.478 329.389 463.016 327.335 465.346C327.28 465.41 327.223 465.474 327.165 465.538C324.596 468.415 321.55 470.972 318.061 473.087C317.326 473.535 316.572 473.963 315.798 474.369C315.274 474.644 314.75 474.903 314.223 475.155C313.718 475.45 313.184 475.699 312.682 476.009C311.222 476.904 309.401 477.613 307.416 478.176V474.775C307.416 474.746 307.419 474.718 307.419 474.689C307.422 474.631 307.429 474.577 307.438 474.523C307.451 474.459 307.467 474.398 307.486 474.337C307.694 473.621 308.387 473.091 309.209 473.091H300.347C299.526 473.091 298.832 472.557 298.628 471.841C298.609 471.78 298.593 471.719 298.58 471.656C298.574 471.601 298.564 471.547 298.561 471.493C298.558 471.464 298.558 471.435 298.558 471.403V467.034C298.558 467.005 298.558 466.973 298.561 466.947C298.564 466.893 298.57 466.839 298.58 466.784C298.593 466.72 298.609 466.66 298.628 466.599C298.832 465.883 299.526 465.349 300.347 465.349H303.805C303.313 465.11 302.952 464.659 302.862 464.125C302.856 464.09 302.853 464.052 302.846 464.016C302.843 463.994 302.84 463.968 302.84 463.94C302.837 463.911 302.837 463.882 302.837 463.853V459.481C302.837 459.452 302.837 459.423 302.84 459.395C302.843 459.34 302.846 459.283 302.859 459.232C302.872 459.171 302.888 459.11 302.907 459.053C303.108 458.333 303.805 457.8 304.629 457.8H306.614C305.793 457.8 305.096 457.266 304.891 456.55C304.872 456.489 304.853 456.428 304.844 456.365C304.837 456.31 304.828 456.256 304.824 456.202V451.656C304.872 450.838 305.547 450.167 306.4 450.071H300.52C299.564 450.071 298.781 449.358 298.73 448.473C298.727 448.444 298.727 448.415 298.727 448.383V444.014C298.727 443.985 298.727 443.953 298.73 443.925C298.73 443.902 298.733 443.877 298.737 443.854C298.81 443.126 299.382 442.528 300.127 442.371C299.325 442.275 298.682 441.681 298.574 440.933C298.567 440.885 298.561 440.837 298.558 440.789C298.554 440.757 298.554 440.728 298.554 440.7V436.33C298.554 436.298 298.554 436.269 298.558 436.241C298.561 436.186 298.567 436.132 298.577 436.078C298.59 436.014 298.606 435.953 298.625 435.892C298.829 435.176 299.523 434.643 300.344 434.643H303.802C303.31 434.403 302.948 433.952 302.859 433.422C302.853 433.386 302.849 433.348 302.843 433.313C302.84 433.287 302.837 433.265 302.837 433.239C302.833 433.211 302.833 433.182 302.833 433.15V428.781C302.833 428.752 302.833 428.72 302.837 428.691C302.84 428.637 302.843 428.582 302.856 428.528C302.869 428.467 302.885 428.407 302.904 428.349C303.105 427.63 303.802 427.093 304.626 427.093H311.398C310.573 427.093 309.88 426.559 309.675 425.84C309.656 425.782 309.64 425.722 309.627 425.661C309.618 425.607 309.611 425.552 309.608 425.495C309.605 425.466 309.605 425.437 309.605 425.408V421.036C309.605 421.007 309.605 420.978 309.608 420.95C309.653 420.131 310.327 419.46 311.181 419.364H300.513C299.89 419.364 299.334 419.057 299.018 418.6L299.024 418.562L300.149 411.7L300.155 411.661L301.757 401.871C303.613 402.12 305.447 402.491 307.247 402.977C307.352 403.006 307.458 403.035 307.563 403.063C307.569 403.066 307.576 403.07 307.585 403.07C308.634 403.364 309.669 403.693 310.688 404.067C310.698 404.07 310.708 404.073 310.717 404.076C315.415 405.787 319.79 408.328 323.583 411.626C323.65 411.684 323.717 411.744 323.781 411.805C325.753 413.538 327.565 415.481 329.175 417.619C329.498 418.044 329.811 418.476 330.115 418.917C330.217 419.061 330.316 419.208 330.412 419.355C330.418 419.358 330.418 419.361 330.418 419.368C330.907 420.09 331.371 420.831 331.812 421.592C332.85 423.385 333.723 425.226 334.435 427.093C335.384 429.57 336.052 432.098 336.445 434.643C336.458 434.706 336.465 434.77 336.477 434.834C336.861 437.34 336.973 439.849 336.838 442.333Z" fill="#E2810E"/>
<path d="M315.751 467.17C331.67 451.247 331.67 425.432 315.751 409.51C299.832 393.588 274.022 393.588 258.103 409.51C242.184 425.432 242.184 451.247 258.103 467.17C274.022 483.092 299.832 483.092 315.751 467.17Z" fill="#E2810E"/>
<path d="M305.029 474.874C304.527 475.181 304.016 475.479 303.498 475.763C303.322 475.859 303.147 475.955 302.971 476.048C302.568 476.262 302.166 476.466 301.763 476.668C282.349 486.202 258.673 478.886 248.117 459.737C238.051 441.473 243.461 418.853 259.98 406.976C261.296 406.03 262.683 405.151 264.14 404.349C264.661 404.061 265.192 403.786 265.719 403.524C266.234 403.268 266.751 403.022 267.272 402.792C268.867 402.079 270.49 401.481 272.126 400.989C274.561 400.257 277.032 399.762 279.508 399.5C287.188 398.685 294.915 400.088 301.763 403.441C309.033 406.995 315.316 412.745 319.518 420.371C330.099 439.575 323.58 463.592 305.029 474.874Z" fill="#FFB93E"/>
<path d="M284.101 477.028C280.691 477.028 277.265 476.546 273.9 475.574C264.527 472.864 256.771 466.663 252.064 458.116C247.354 449.569 246.254 439.702 248.964 430.327C251.674 420.953 257.874 413.195 266.419 408.487C284.056 398.761 306.317 405.201 316.041 422.845C325.762 440.485 319.323 462.751 301.686 472.477C296.206 475.491 290.185 477.028 284.101 477.028ZM283.989 404.936C278.192 404.936 272.318 406.355 266.892 409.347C258.58 413.93 252.547 421.477 249.91 430.599C247.271 439.721 248.344 449.323 252.927 457.64C257.509 465.956 265.058 471.988 274.175 474.625C283.295 477.262 292.895 476.191 301.21 471.607C318.371 462.143 324.637 440.482 315.178 423.315C308.704 411.581 296.528 404.936 283.989 404.936Z" fill="#FFA412"/>
<path d="M302.012 444.026C301.932 443.825 301.846 443.63 301.76 443.441C301.098 441.987 300.274 440.808 299.286 439.909C298.168 438.893 296.873 438.129 295.394 437.618C293.914 437.11 292.265 436.799 290.45 436.688C288.632 436.576 286.651 436.55 284.509 436.611C283.186 436.652 282.058 436.627 281.119 436.544C280.183 436.457 279.384 436.285 278.732 436.023C278.077 435.761 277.546 435.4 277.137 434.942C276.728 434.489 276.392 433.929 276.124 433.271C275.856 432.612 275.705 431.96 275.664 431.311C275.622 430.666 275.721 430.052 275.955 429.467C276.188 428.885 276.565 428.349 277.092 427.856C277.616 427.361 278.31 426.939 279.17 426.591C280.761 425.945 282.244 425.961 283.624 426.632C285.002 427.307 286.123 428.71 286.992 430.848L295.298 427.476C294.576 425.699 293.668 424.193 292.578 422.966C291.489 421.742 290.262 420.793 288.897 420.124C287.533 419.456 286.047 419.063 284.436 418.951C282.829 418.836 281.157 419.009 279.425 419.463L277.073 413.668L272.475 415.535L274.795 421.246C273.136 422.106 271.73 423.11 270.573 424.251C269.42 425.395 268.534 426.629 267.914 427.959C267.294 429.288 266.968 430.685 266.937 432.149C266.908 433.613 267.199 435.102 267.812 436.614C268.522 438.359 269.432 439.74 270.548 440.756C271.663 441.776 272.96 442.534 274.434 443.035C275.91 443.537 277.559 443.835 279.384 443.934C281.208 444.033 283.193 444.029 285.337 443.927C286.58 443.857 287.66 443.863 288.578 443.95C289.495 444.033 290.284 444.208 290.952 444.477C291.617 444.745 292.173 445.123 292.614 445.605C293.055 446.088 293.429 446.705 293.732 447.453C294.001 448.111 294.132 448.766 294.128 449.422C294.128 450.077 293.978 450.7 293.684 451.298C293.39 451.896 292.952 452.445 292.364 452.954C291.776 453.462 291.035 453.896 290.134 454.264C289.348 454.584 288.536 454.795 287.696 454.897C286.855 454.999 286.037 454.916 285.235 454.651C284.433 454.385 283.685 453.9 282.992 453.2C282.295 452.5 281.688 451.518 281.176 450.253L272.874 453.625C273.74 455.76 274.83 457.454 276.14 458.704C277.45 459.953 278.885 460.852 280.441 461.388C282.001 461.929 283.627 462.165 285.331 462.095C287.031 462.028 288.712 461.75 290.367 461.264L292.511 466.551L297.081 464.697L294.924 459.384C296.583 458.525 298.005 457.531 299.187 456.409C300.283 455.37 301.14 454.251 301.76 453.049C301.811 452.954 301.859 452.854 301.907 452.755C302.533 451.445 302.869 450.054 302.907 448.587C302.948 447.111 302.648 445.592 302.012 444.026Z" fill="#FFA412"/>
<path d="M148.934 290.98C148.934 290.98 148.243 284.117 151.832 284.354C155.421 284.587 156.37 286.233 155.97 287.553C155.571 288.873 152.081 293.233 152.081 293.233L148.934 290.98Z" fill="#FFB27D"/>
<path d="M93.0322 304.731C93.0322 304.731 97.0044 309.397 105.543 314.786C106.352 315.298 107.199 315.812 108.09 316.33C111.407 318.264 115.296 320.242 119.789 322.086C120.285 322.291 120.866 322.515 121.518 322.748C126.638 324.599 136.052 327.22 141.891 327.453C142.399 327.472 142.881 327.472 143.329 327.456C152.209 327.098 153.293 292.617 153.293 292.617C153.293 292.617 152.302 289.168 147.739 290.034C147.739 290.034 140.807 309.506 138.324 311.094C136.119 312.504 123.439 293.282 112.526 291.936C105.182 291.031 93.0322 304.731 93.0322 304.731Z" fill="#739AF0"/>
<path d="M116.894 472.647C116.894 472.647 116.239 480.238 117.843 481.028L138.372 480.986C138.372 480.986 138.372 478.618 135.074 478.09C131.776 477.563 125.983 475.632 125.005 471.333C124.024 467.031 116.894 472.647 116.894 472.647Z" fill="#132642"/>
<path d="M131.968 381.008C131.866 385.971 131.629 391.092 131.163 395.691C128.945 417.525 128.165 443.904 127.849 448.989C127.296 457.817 125.551 471.923 125.551 471.923C125.551 471.923 122.093 475.205 115.35 473.639C115.35 473.639 109.764 453.327 108.518 431.934C108.499 431.582 108.48 431.231 108.461 430.876C108.317 428.047 108.163 424.816 108.01 421.329C106.984 397.974 105.866 363.281 105.866 363.281L131.626 357.23C131.626 357.234 132.22 368.635 131.968 381.008Z" fill="#2A4E96"/>
<path d="M131.968 381.008C125.439 392.275 112.995 413.031 108.01 421.329C106.984 397.974 105.866 363.281 105.866 363.281L131.626 357.23C131.626 357.234 132.22 368.635 131.968 381.008Z" fill="#233862"/>
<path d="M121.521 322.748C126.641 324.598 136.055 327.219 141.894 327.453C141.002 327.286 134.502 325.998 132.099 323.096C129.517 319.976 125.174 311.503 121.716 314.962C120.087 316.588 120.566 319.804 121.521 322.748Z" fill="#6385DB"/>
<path d="M78.233 377.337C78.233 377.337 76.6352 383.608 76.8972 385.002C77.1592 386.395 78.7219 391.116 79.6934 392.286C80.6649 393.456 80.7064 387.194 81.3551 386.213C82.0039 385.229 81.6523 388.55 82.17 388.821C82.6877 389.093 83.5538 386.306 83.9404 385.318C84.3271 384.33 82.5567 380.891 82.3937 378.424C82.2276 375.959 78.233 377.337 78.233 377.337Z" fill="#FFB27D"/>
<path d="M65.7539 464.022C65.7539 464.022 62.1012 467.355 62.8139 469.727C63.5265 472.095 66.8244 473.678 67.2686 476.573C67.7128 479.469 69.496 481.048 71.1002 481.048C72.7044 481.048 78.7474 481.048 78.7474 481.048C78.7474 481.048 79.9266 479.009 77.0761 478.395C74.2256 477.782 73.1486 474.378 73.3276 471.216C73.5066 468.055 73.0592 463.843 73.0592 463.843L67.0002 462.439L65.7539 464.022Z" fill="#132642"/>
<path d="M127.568 363.811C127.568 363.811 103.453 415.418 90.6193 438.064C77.7856 460.71 73.775 467.029 73.775 467.029C73.775 467.029 66.4218 464.133 65.7539 462.158C65.7539 462.158 70.6624 418.442 79.2556 407.786C84.113 401.764 89.8172 383.692 90.0825 377.373C90.3509 371.054 95.9849 355.971 95.9849 355.971L127.568 363.811Z" fill="#2A4E96"/>
<path d="M132.061 361.126C132.061 361.126 124.209 369.58 110.864 372.131C105.006 373.253 93.1215 374.337 90.1719 370.165C89.4785 369.187 89.4721 367.736 89.6255 365.473C90.0217 359.592 91.5013 348.217 84.8224 325.363C84.1992 323.238 83.7806 321.198 83.5377 319.255C82.0805 307.563 82.2371 298.735 92.3801 294.02C107.575 286.957 113.813 292.767 113.813 292.767C113.813 292.767 121.895 296.545 125.589 307.553C132.981 329.576 132.061 361.126 132.061 361.126Z" fill="#739AF0"/>
<path d="M101.507 292.077C104.067 293.892 108.566 294.966 112.858 292.821C113.187 292.658 113.146 290.386 113.066 288.155C112.983 285.965 112.778 283.821 112.778 283.821L107.371 280.27L102.21 276.885C102.83 288.529 100.353 291.252 101.507 292.077Z" fill="#FFB27D"/>
<path d="M103.117 281.693C103.117 281.693 106.626 286.96 113.065 288.159C112.982 285.969 112.749 283.559 112.749 283.559L107.367 280.273L103.117 281.693Z" fill="#ED985F"/>
<path d="M117.619 282.453C117.619 282.453 104.536 287.337 101.625 279.272C98.7137 271.211 95.0643 266.411 103.296 262.952C111.525 259.494 114.267 261.99 115.906 264.442C117.543 266.896 120.949 280.973 117.619 282.453Z" fill="#FFB27D"/>
<path d="M93.4762 263.856C93.326 263.741 93.0192 263.684 92.3833 263.773C92.3833 263.773 92.8243 263.358 93.4954 263.211C93.4539 262.309 93.6136 260.666 95.0453 259.992C95.0453 259.992 94.3199 260.583 94.3998 261.536C95.7931 259.397 99.2763 257.352 109.8 256.124C123.666 254.504 120.895 264.138 119.332 265.528C117.77 266.918 112.756 264.94 109.515 265.854C106.275 266.765 106.588 271.649 105.601 272.525C104.613 273.397 104.824 272.157 103.178 271.77C101.532 271.387 101.881 273.918 102.641 275.462C103.399 277.006 101.747 279.563 101.747 279.563C101.747 279.563 101.747 279.563 99.1997 277.715C96.6559 275.868 92.786 266.682 93.3356 264.454C93.3804 264.259 93.4283 264.058 93.4762 263.856Z" fill="#2C3A64"/>
<path d="M89.6287 365.473C90.025 359.592 91.5046 348.216 84.8257 325.363C84.2025 323.238 83.7839 321.198 83.541 319.255C88.5039 317.618 97.5444 321.259 97.5444 321.259C97.5444 321.259 99.6727 351.47 89.6287 365.473Z" fill="#6385DB"/>
<path d="M89.6477 295.547C89.6477 295.547 83.5408 297.768 79.6453 313.938C77.0728 324.623 72.3337 340.327 71.8 345.262C71.2663 350.197 77.2166 379.088 77.2166 379.088C77.2166 379.088 78.0571 379.699 80.1119 379.29C82.0804 378.896 82.9944 377.564 82.9944 377.564C82.9944 377.564 84.4165 358.306 84.049 349.213C83.8956 345.434 101.532 321.545 111.052 318.471C114.794 317.262 89.6477 295.547 89.6477 295.547Z" fill="#739AF0"/>
<path d="M175.062 274.615C175.062 274.615 157.412 274.113 137.046 277.862L134.918 272.499L132.585 266.624C132.585 266.624 153.031 257.821 165.321 245.561L175.062 274.615Z" fill="#AEC3FF"/>
<path d="M165.04 245.273L175.173 275.191C176.656 274.753 177.465 273.161 176.95 271.704L168.031 246.565C167.6 245.35 166.222 244.756 165.04 245.273Z" fill="#F99746"/>
<path d="M155.366 296.884C153.395 297.277 151.461 295.989 151.068 294.016L147.578 276.555C147.185 274.586 148.473 272.649 150.445 272.256C152.417 271.863 154.35 273.151 154.743 275.123L158.233 292.585C158.626 294.553 157.338 296.487 155.366 296.884Z" fill="#F99746"/>
<path d="M175.061 274.615C175.061 274.615 157.412 274.113 137.046 277.862L134.917 272.499C154.053 268.59 175.061 274.615 175.061 274.615Z" fill="#739AF0"/>
<path d="M142.673 276.785L137.158 277.757C137.241 277.76 132.035 278.77 130.329 274.155C130.172 273.838 130.073 273.528 130.003 273.157C128.676 267.404 131.834 266.343 131.834 266.343L138.931 263.578L141.187 271.559C141.187 271.559 141.187 271.559 141.187 271.588L142.673 276.785Z" fill="#F99746"/>
<path d="M142.673 276.786L137.158 277.758C137.241 277.761 132.035 278.771 130.329 274.156C133.448 271.887 141.187 271.561 141.187 271.561C141.187 271.561 141.187 271.561 141.187 271.589L142.673 276.786Z" fill="#ED7D2B"/>
<path d="M154.897 279.976C154.897 279.976 152.2 281.05 152.692 282.239C153.187 283.428 156.616 285.061 157.159 284.124C157.703 283.185 156.594 278.972 154.897 279.976Z" fill="#FFB27D"/>
<path d="M148.883 289.899C148.883 289.899 148.375 287.137 148.343 285.869C148.311 284.6 148.16 283.564 148.461 283.529C148.758 283.494 148.975 283.727 149.097 284.133C149.218 284.542 149.685 287.07 149.685 287.07L149.448 289.512L148.883 289.899Z" fill="#FFB27D"/>
<path d="M424.681 123.758C424.681 111.266 434.805 101.141 447.293 101.141C459.782 101.141 469.906 111.266 469.906 123.758C469.906 136.249 459.782 146.374 447.293 146.374C434.805 146.374 424.681 136.249 424.681 123.758Z" fill="#AEC3FF"/>
<path d="M440.036 114.683C440.036 110.674 443.286 107.424 447.293 107.424C451.301 107.424 454.551 110.674 454.551 114.683C454.551 118.691 451.301 121.941 447.293 121.941C443.286 121.945 440.036 118.694 440.036 114.683Z" fill="#739AF0"/>
<path d="M447.293 121.945C440.279 121.945 434.594 127.632 434.594 134.647H459.996C459.993 127.632 454.308 121.945 447.293 121.945Z" fill="#739AF0"/>
<path d="M477.108 66.8671C492.4 51.5714 492.4 26.7723 477.108 11.4767C461.815 -3.8189 437.021 -3.81889 421.728 11.4767C406.435 26.7723 406.435 51.5714 421.728 66.867C437.021 82.1627 461.815 82.1627 477.108 66.8671Z" fill="#AEC3FF"/>
<path d="M436.853 23.4538C436.853 16.5115 442.481 10.8828 449.422 10.8828C456.363 10.8828 461.99 16.5115 461.99 23.4538C461.99 30.3961 456.363 36.0248 449.422 36.0248C442.481 36.0248 436.853 30.3961 436.853 23.4538Z" fill="#739AF0"/>
<path d="M449.422 36.0254C437.275 36.0254 427.426 45.8763 427.426 58.0254H471.417C471.417 45.8763 461.572 36.0254 449.422 36.0254Z" fill="#739AF0"/>
<path d="M507.075 115.226C520.558 115.226 531.489 104.293 531.489 90.8063C531.489 77.3198 520.558 66.3867 507.075 66.3867C493.591 66.3867 482.66 77.3198 482.66 90.8063C482.66 104.293 493.591 115.226 507.075 115.226Z" fill="#AEC3FF"/>
<path d="M497.657 79.7787C497.657 75.4509 501.166 71.9414 505.493 71.9414C509.82 71.9414 513.328 75.4509 513.328 79.7787C513.328 84.1065 509.82 87.616 505.493 87.616C501.163 87.616 497.657 84.1065 497.657 79.7787Z" fill="#739AF0"/>
<path d="M505.493 87.6152C497.919 87.6152 491.78 93.7553 491.78 101.33H519.209C519.205 93.7553 513.067 87.6152 505.493 87.6152Z" fill="#739AF0"/>
<path d="M584.569 475.639C585.042 475.926 585.522 476.204 586.008 476.473C586.174 476.566 586.337 476.655 586.503 476.741C586.88 476.943 587.257 477.135 587.637 477.323C605.862 486.276 628.088 479.404 637.995 461.431C647.444 444.286 642.363 423.053 626.861 411.902C625.624 411.013 624.324 410.185 622.956 409.434C622.464 409.162 621.972 408.903 621.473 408.661C620.99 408.421 620.505 408.191 620.016 407.973C618.517 407.305 616.996 406.743 615.459 406.283C613.174 405.595 610.854 405.129 608.531 404.886C601.321 404.122 594.07 405.439 587.637 408.587C580.815 411.924 574.915 417.322 570.969 424.479C561.037 442.503 567.156 465.046 584.569 475.639Z" fill="#FFB93E"/>
<path d="M587.471 473.821C570.675 464.558 564.542 443.357 573.8 426.554C583.061 409.754 604.258 403.621 621.057 412.88C637.854 422.143 643.986 443.344 634.728 460.147C628.395 471.638 616.481 478.136 604.207 478.136C598.531 478.136 592.782 476.749 587.471 473.821ZM575.481 427.481C566.731 443.354 572.525 463.388 588.398 472.14C604.267 480.891 624.298 475.093 633.048 459.22C641.797 443.347 636.004 423.313 620.131 414.562C615.113 411.794 609.681 410.483 604.319 410.483C592.725 410.483 581.463 416.626 575.481 427.481Z" fill="#FFA412"/>
<path d="M586.564 450.951C586.602 452.329 586.915 453.633 587.503 454.867C587.548 454.959 587.593 455.052 587.64 455.142C588.222 456.27 589.027 457.321 590.056 458.296C591.169 459.351 592.501 460.284 594.057 461.09L592.035 466.076L596.323 467.818L598.336 462.857C599.889 463.314 601.468 463.573 603.063 463.637C604.661 463.704 606.188 463.481 607.652 462.976C609.112 462.471 610.461 461.63 611.691 460.457C612.921 459.284 613.944 457.692 614.756 455.688L606.961 452.521C606.482 453.706 605.91 454.63 605.255 455.289C604.603 455.947 603.9 456.401 603.149 456.65C602.398 456.899 601.628 456.976 600.842 456.88C600.052 456.784 599.292 456.586 598.554 456.286C597.707 455.941 597.01 455.531 596.46 455.055C595.911 454.579 595.499 454.061 595.221 453.502C594.943 452.942 594.805 452.358 594.805 451.741C594.802 451.127 594.927 450.513 595.179 449.893C595.463 449.193 595.815 448.615 596.23 448.161C596.646 447.707 597.167 447.355 597.79 447.1C598.416 446.847 599.158 446.684 600.017 446.604C600.877 446.524 601.89 446.518 603.06 446.585C605.073 446.681 606.936 446.684 608.649 446.591C610.362 446.502 611.908 446.217 613.295 445.748C614.679 445.278 615.896 444.565 616.945 443.609C617.993 442.654 618.849 441.356 619.514 439.719C620.092 438.3 620.364 436.904 620.335 435.529C620.307 434.155 620 432.844 619.418 431.595C618.837 430.345 618.002 429.188 616.922 428.114C615.839 427.043 614.519 426.103 612.96 425.295L615.136 419.931L610.822 418.18L608.614 423.617C606.987 423.188 605.418 423.028 603.91 423.137C602.398 423.243 601.005 423.61 599.723 424.24C598.442 424.87 597.288 425.758 596.269 426.909C595.246 428.059 594.396 429.472 593.715 431.141L601.513 434.305C602.328 432.301 603.379 430.981 604.673 430.348C605.968 429.715 607.361 429.702 608.853 430.31C609.662 430.639 610.314 431.035 610.806 431.499C611.298 431.962 611.656 432.464 611.873 433.01C612.09 433.557 612.183 434.136 612.145 434.74C612.106 435.347 611.963 435.961 611.713 436.578C611.464 437.194 611.145 437.719 610.764 438.147C610.381 438.575 609.882 438.914 609.269 439.16C608.655 439.406 607.907 439.569 607.029 439.649C606.147 439.729 605.086 439.751 603.846 439.713C601.836 439.656 599.979 439.681 598.269 439.787C596.563 439.889 595.016 440.18 593.626 440.659C592.239 441.139 591.022 441.855 589.973 442.81C589.047 443.657 588.273 444.763 587.653 446.128C587.573 446.307 587.49 446.489 587.417 446.678C586.803 448.151 586.525 449.577 586.564 450.951Z" fill="#FFA412"/>
<path d="M632.917 308.207C632.802 307.737 643.111 312.867 643.632 313.446C648.467 318.809 647.089 325.809 644.322 325.876C642.548 325.918 642.89 328.871 642.89 328.871L623.125 320.506C623.125 320.51 625.503 306.628 632.917 308.207Z" fill="#2C3A64"/>
<path d="M630.482 309.291C630.482 309.291 629.775 301.588 638.378 301.588C638.378 301.588 635.77 302.294 634.422 303.71C634.422 303.71 639.909 300.488 645.881 305.439C651.854 310.39 648.144 322.808 649.959 325.164C651.774 327.523 658.846 327.992 657.983 335.616C657.117 343.239 635.54 352.786 636.924 359.095C636.924 359.095 628.468 346.662 634.514 340.988C634.514 340.988 631.568 343.766 631.268 347.068C631.268 347.068 630.469 340.624 634.569 338.562C638.196 336.737 641.168 330.067 640.855 328.875C640.538 327.679 630.482 309.291 630.482 309.291Z" fill="#2C3A64"/>
<path d="M638.295 345.524C639.621 339.134 647.904 337.153 651.826 342.369C652.532 343.309 653.027 344.418 653.187 345.725C654.082 352.977 642.488 382.521 640.826 385.196C637.803 390.067 620.003 406.758 620.003 406.758L616.721 404.77C616.721 404.77 629.347 383.39 631.303 381.389C633.562 379.078 635.774 357.657 638.295 345.524Z" fill="#ED985F"/>
<path d="M621.249 404.782C621.249 404.782 616.462 401.637 614.647 401.842C612.832 402.046 607.588 403.555 607.524 404.325C607.46 405.095 613.369 405.578 613.765 406C614.161 406.422 618.175 409.1 619.629 408.26C621.083 407.419 621.249 404.782 621.249 404.782Z" fill="#ED985F"/>
<path d="M654.647 475.82L658.926 475.19C658.926 475.19 673.31 463.757 675.451 442.428C675.668 440.258 675.716 438.053 675.553 435.835C675.534 435.579 675.563 435.323 675.703 435.106C675.703 435.106 675.703 435.103 675.707 435.099C676.167 434.393 677.314 432.626 678.864 430.11C680.391 427.633 683.009 422.95 685.888 417.692C691.075 408.228 697.111 396.907 699.182 393.302C705.781 381.811 702.601 374.082 702.601 374.082C702.601 374.082 684.194 372.26 679.148 367.85L677.33 370.65C677.33 370.65 673.342 388.309 673.53 388.392C673.335 388.993 673.134 389.604 672.933 390.227C669.785 399.943 666.164 412.089 664.189 421.979C663.081 427.543 662.493 432.392 662.809 435.697C662.918 436.832 662.787 438.571 662.483 440.722C660.703 453.401 654.647 475.82 654.647 475.82Z" fill="#2B478B"/>
<path d="M645.677 481.235H663.522C663.522 481.235 663.95 478.515 663.017 476.45C662.125 474.468 660.85 474.408 662.854 471.301C661.719 472.467 658.073 472.953 655.494 472.605C655.178 473.116 653.455 476.555 652.401 477.316C651.234 478.157 646.035 477.856 645.677 481.235Z" fill="#1A2D4C"/>
<path d="M672.933 390.231C674.492 398.829 678.174 413.142 685.888 417.696C691.074 408.232 697.111 396.911 699.182 393.306C705.781 381.815 702.601 374.086 702.601 374.086C702.601 374.086 684.194 372.264 679.148 367.854L677.33 370.653C677.33 370.653 673.342 388.313 673.53 388.396C673.335 388.997 673.134 389.607 672.933 390.231Z" fill="#233862"/>
<path d="M640.203 341.561C640.203 341.561 637.678 344.185 636.528 347.33C636.528 347.33 640.554 358.891 649.959 360.342C649.959 360.339 642.516 341.554 640.203 341.561Z" fill="#ED7D2B"/>
<path d="M685.45 375.412L685.389 372.072C692.04 372.91 708.318 364.123 708.318 364.123C708.318 364.123 715.275 368.751 716.228 381.968C716.694 388.418 719.634 415.701 719.96 423.849C720.078 426.802 720.117 428.909 720.133 429.752C720.133 429.756 720.133 429.759 720.133 429.762C720.136 430.018 720.257 430.245 720.414 430.449C721.791 432.197 722.983 434.051 724.019 435.972C734.165 454.856 728.86 480.516 728.86 480.516L726.502 479.915C726.502 479.915 717.921 453.315 712.313 441.809C711.361 439.856 710.498 438.341 709.772 437.462C707.663 434.902 705.439 430.551 703.25 425.316C699.108 415.417 695.085 402.357 692.219 392.247C692.014 392.285 685.45 375.412 685.45 375.412Z" fill="#2B478B"/>
<path d="M646.533 353.134C657.405 350.638 650.461 335.36 649.828 335.628C648.323 335.321 645.012 332.675 642.053 327.51L641.654 327.858L634.978 333.714C634.978 333.714 636.521 335.993 637.819 338.221C638.832 339.966 639.695 341.688 639.557 342.277C639.023 342.698 643.632 353.799 646.533 353.134Z" fill="#FFB27D"/>
<path d="M634.978 333.711C634.978 333.711 636.522 335.987 637.819 338.218C641.97 335.658 641.977 330.518 641.654 327.855L634.978 333.711Z" fill="#ED985F"/>
<path d="M634.793 336.644C634.793 336.644 644.872 331.035 641.283 324.809C637.694 318.585 636.576 313.666 629.989 316.987C623.403 320.305 623.531 323.396 624.224 325.764C624.918 328.133 632.079 337.942 634.793 336.644Z" fill="#FFB27D"/>
<path d="M622.524 322.134C622.985 319.369 624.391 319.107 625.369 319.293C629.091 313.137 635.173 315.537 635.173 315.537C638.423 319.612 643.117 320.309 643.117 320.309C643.117 320.309 641.948 322.486 637.129 323.835C635.655 324.247 633.987 323.998 632.373 323.454C635.716 325.318 639.212 326.034 639.212 326.034C632.862 326.615 626.819 320.808 626.193 320.188C625.899 321.089 625.384 322.972 625.694 324.349C626.113 326.222 627.775 329.61 626.759 330.051C626.759 330.048 621.831 326.28 622.524 322.134Z" fill="#2C3A64"/>
<path d="M714.665 481.236H732.51C732.51 481.236 732.938 478.516 732.005 476.451C731.113 474.469 729.713 473.571 730.049 471.174C728.914 472.34 727.067 473.651 724.485 473.303C724.169 473.814 722.443 476.56 721.389 477.317C720.222 478.158 715.023 477.857 714.665 481.236Z" fill="#1A2D4C"/>
<path d="M645.255 365.245C647.549 366.047 650.774 366.485 654.072 366.843C658.763 367.354 663.608 367.706 666.148 368.719C667.075 369.09 667.692 369.544 667.887 370.129C668.986 373.437 673.834 378.541 673.834 378.541C704.908 377.125 708.321 364.126 708.321 364.126C687.415 339.812 652.014 332.77 652.014 332.77C652.014 332.77 649.486 331.7 643.117 336.759C638.867 340.138 639.426 341.436 639.426 341.436C639.426 341.436 638.496 362.889 645.255 365.245Z" fill="#F99746"/>
<path d="M654.069 366.842C658.76 367.354 663.605 367.705 666.145 368.719C667.181 353.217 659.869 341.557 659.869 341.557C659.869 341.557 655.098 360.977 654.069 366.842Z" fill="#ED7D2B"/>
<path d="M649.24 338.559C649.24 338.559 661 339.722 661.943 347.364C662.886 355.007 650.669 386.138 648.917 388.958C645.731 394.091 626.973 411.68 626.973 411.68L623.515 409.583C623.515 409.583 636.822 387.056 638.88 384.946C642.117 381.638 645.258 341.205 649.24 338.559Z" fill="#FFB27D"/>
<path d="M661.604 351.964C661.572 352.137 650.752 355.499 643.785 351.964C643.785 351.964 642.293 335.89 650.611 336.763C658.926 337.635 663.851 340.253 664.062 344.236C664.269 348.218 661.604 351.964 661.604 351.964Z" fill="#F99746"/>
<path d="M628.043 409.45C628.043 409.45 623.825 405.576 622.004 405.484C620.182 405.391 614.762 406.036 614.574 406.788C614.385 407.539 620.14 408.967 620.463 409.447C620.786 409.926 624.314 413.218 625.886 412.624C627.459 412.026 628.043 409.45 628.043 409.45Z" fill="#FFB27D"/>
<path d="M216.63 482.104C218.036 482.113 219.51 481.087 219.925 479.812L304.594 219.641C305.006 218.369 304.204 217.33 302.798 217.32C301.392 217.311 299.919 218.337 299.503 219.612L214.834 479.783C214.419 481.055 215.224 482.094 216.63 482.104Z" fill="#233862"/>
<path d="M148.394 481.703C149.8 481.713 151.273 480.687 151.688 479.412L236.357 219.24C236.773 217.968 235.967 216.93 234.561 216.92C233.155 216.91 231.682 217.936 231.267 219.212L146.598 479.383C146.182 480.658 146.987 481.697 148.394 481.703Z" fill="#233862"/>
<path d="M221.865 255.493L290.386 255.892C291.706 255.899 293.106 254.927 293.496 253.732C293.886 252.533 293.122 251.549 291.802 251.542L223.281 251.143C221.961 251.136 220.561 252.108 220.171 253.303C219.781 254.502 220.545 255.486 221.865 255.493Z" fill="#233862"/>
<path d="M207.082 300.919L275.603 301.318C276.923 301.324 278.323 300.353 278.712 299.157C279.102 297.959 278.339 296.974 277.019 296.968L208.497 296.568C207.178 296.562 205.778 297.534 205.388 298.729C204.998 299.928 205.762 300.912 207.082 300.919Z" fill="#233862"/>
<path d="M192.845 344.669L261.367 345.068C262.686 345.074 264.086 344.103 264.476 342.907C264.866 341.712 264.102 340.724 262.782 340.718L194.261 340.318C192.941 340.312 191.541 341.284 191.151 342.479C190.762 343.674 191.522 344.662 192.845 344.669Z" fill="#233862"/>
<path d="M176.816 393.924L245.337 394.324C246.657 394.33 248.056 393.359 248.446 392.163C248.836 390.968 248.072 389.98 246.753 389.974L178.231 389.574C176.911 389.568 175.512 390.54 175.122 391.735C174.732 392.93 175.496 393.915 176.816 393.924Z" fill="#233862"/>
<path d="M160.039 445.473L228.56 445.873C229.88 445.879 231.279 444.907 231.669 443.712C232.059 442.517 231.295 441.529 229.976 441.523L161.454 441.123C160.134 441.117 158.735 442.088 158.345 443.284C157.955 444.479 158.719 445.467 160.039 445.473Z" fill="#233862"/>
<path d="M792.064 483H0.936329C0.421827 483 0 482.578 0 482.064V481.651C0 481.137 0.421827 480.715 0.936329 480.715H792.064C792.578 480.715 793 481.137 793 481.651V482.064C793 482.578 792.578 483 792.064 483Z" fill="#233862"/>
<path d="M327.076 138.609C322.611 120.179 333.924 101.622 352.35 97.1534C370.776 92.6882 389.331 104.003 393.798 122.433C398.266 140.863 386.95 159.42 368.524 163.889C350.097 168.354 331.54 157.036 327.076 138.609Z" fill="#AEC3FF"/>
<path d="M346.483 119.729C345.048 113.816 348.682 107.858 354.594 106.423C360.506 104.987 366.463 108.622 367.897 114.535C369.332 120.448 365.699 126.406 359.787 127.841C353.872 129.276 347.918 125.642 346.483 119.729Z" fill="#739AF0"/>
<path d="M359.787 127.841C349.439 130.35 343.083 140.776 345.592 151.126L383.067 142.042C380.558 131.689 370.134 125.335 359.787 127.841Z" fill="#739AF0"/>
<path d="M223.652 168.46C223.652 168.46 222.364 171.877 222.06 173.942C221.878 175.176 222.281 178.257 220.565 178.605C218.727 178.979 217.868 173.104 218.072 172.133C218.299 171.065 218.957 167.373 220.149 167.108C221.344 166.84 223.652 168.46 223.652 168.46Z" fill="#FFB27D"/>
<path d="M223.095 168.865C223.095 168.865 223.811 171.333 223.811 172.247C223.811 173.161 224.354 175.859 223.811 176.025C223.095 176.242 221.862 172.94 221.862 172.94L223.095 168.865Z" fill="#FFB27D"/>
<path d="M336.046 141.918C334.11 143.123 334.672 142.404 331.978 144.155C329.284 145.91 325.986 146.361 324.014 145.127L322.813 144.929L321.372 144.686L321.042 140.336C321.042 140.336 321.928 140.23 323.03 140.067C323.366 140.019 323.724 139.962 324.082 139.901C324.769 139.412 325.977 138.248 326.865 137.74L327.153 138.968C328.734 138.376 330.815 137.996 334.611 138.725C335.372 138.869 336.059 139.303 336.478 139.952C336.874 140.563 337.018 141.317 336.046 141.918Z" fill="#FFB27D"/>
<path d="M254.816 103.428C254.816 103.428 261.047 110.824 268.982 107.73C268.982 107.73 270.689 103.601 270.714 100.555C270.717 100.181 270.72 99.8164 270.727 99.4712C270.768 96.0416 270.883 94.1206 270.883 94.1206C270.883 94.1206 270.88 94.1206 270.874 94.1206C270.513 93.9704 258.743 89.1376 258.753 89.5371C258.957 98.8064 254.816 103.428 254.816 103.428Z" fill="#FFB27D"/>
<path d="M259.938 91.7449C261.073 93.8481 264.968 97.9649 270.727 99.4703C270.768 96.0407 270.884 94.1198 270.884 94.1198C270.884 94.1198 270.88 94.1198 270.874 94.1198C270.551 94.0303 259.6 91.1248 259.938 91.7449Z" fill="#ED975D"/>
<path d="M273.351 93.7636C273.351 93.7636 260.114 96.8768 258.302 88.6016C256.49 80.3264 253.563 75.1548 261.939 72.8184C270.315 70.4819 272.654 73.2786 273.929 75.8932C275.204 78.5077 276.748 92.7408 273.351 93.7636Z" fill="#FFB27D"/>
<path d="M258.756 90.854C258.574 90.9691 255.726 91.8449 250.332 81.0958C249.485 79.4081 248.907 75.758 250.882 72.5329C252.857 69.3079 259.855 66.7732 265.668 65.6673C271.484 64.5646 272.877 67.8376 274.248 71.1266C275.686 74.5785 279.837 77.4232 279.837 77.4232C274.823 80.2264 268.784 76.2182 266.691 76.8767C264.597 77.5351 263.859 80.8337 263.703 81.8916C263.546 82.9496 263.303 83.8286 260.673 82.8825C258.043 81.9396 259.484 86.6125 259.906 87.5043C259.906 87.5075 260.264 89.8887 258.756 90.854Z" fill="#A9453D"/>
<path d="M224.409 296.659H216.394C214.713 296.659 212.847 294.978 212.38 291.897C211.914 288.812 208.459 287.134 207.712 284.612C206.964 282.09 210.795 278.539 210.795 278.539L211.434 277.718L212.099 276.861L218.449 278.354C218.449 278.354 218.606 279.866 218.705 281.793C218.772 283.184 218.81 284.791 218.73 286.201C218.542 289.563 219.673 293.185 222.658 293.84C225.646 294.489 224.409 296.659 224.409 296.659Z" fill="#A9453D"/>
<path d="M276.226 296.883H258.689C258.484 296.841 258.331 296.799 258.238 296.751C256.819 296.042 257.263 290.608 257.433 288.93C257.465 288.62 257.49 288.438 257.49 288.438C257.49 288.438 264.962 282.461 265.991 287.038C266.023 287.182 266.061 287.319 266.099 287.46V287.463C267.397 291.746 273.27 291.82 276.62 292.363C276.699 292.376 276.776 292.392 276.853 292.411C279.422 293.034 278.872 296.883 276.226 296.883Z" fill="#A9453D"/>
<path d="M276.172 174.666C276.172 174.666 275.038 188.826 273.705 205.846C271.893 228.968 269.714 257.367 269.496 262.746C269.123 272.089 267.627 287.032 267.627 287.032C267.627 287.032 264.08 290.583 256.982 289.087C256.982 289.087 250.658 267.755 248.849 245.183C248.821 244.812 248.795 244.441 248.766 244.067C247.082 221.092 244.468 172.707 244.468 172.707L276.172 174.666Z" fill="#F99746"/>
<path d="M276.172 174.666C276.172 174.666 275.038 188.826 273.705 205.846L248.849 245.183C248.821 244.812 248.795 244.441 248.766 244.067C247.082 221.092 244.468 172.707 244.468 172.707L276.172 174.666Z" fill="#ED7D2B"/>
<path d="M270.992 176.352C270.992 176.352 250.54 227.63 237.092 251.73C223.645 275.826 219.443 282.551 219.443 282.551C219.443 282.551 211.738 279.47 211.038 277.367C211.038 277.367 216.18 230.845 225.185 219.501C230.273 213.093 236.252 193.861 236.53 187.136C236.811 180.411 238.351 167.102 238.351 167.102L270.992 176.352Z" fill="#F99746"/>
<path d="M221.971 169.434C224.233 170.16 224.597 169.997 224.597 169.997C224.597 169.997 235.616 149.934 236.731 148.096C237.847 146.258 260.124 125.597 260.124 125.597L254.4 104.246C254.4 104.246 229.062 137.062 226.326 141.77C221.804 149.553 219.155 167.625 219.155 167.625C219.155 167.625 220.194 168.862 221.971 169.434Z" fill="#4662BC"/>
<path d="M280.49 133.981C280.41 138.367 280.157 143.295 279.812 148.301C279.79 148.598 279.771 148.895 279.748 149.192C279.528 152.293 279.291 155.403 279.016 158.436C278.908 159.651 278.79 160.853 278.668 162.032L278.649 162.192C278.639 162.633 278.585 163.112 278.537 163.55C277.419 174.903 276.249 183.875 276.032 184.013C275.773 184.185 275.479 184.272 275.159 184.233C272.181 183.859 263.3 184.534 256.027 182.952C249.891 181.657 244.606 179.202 239.007 175.894C238.262 175.453 236.568 174.29 236.706 173.42C236.84 172.465 237.093 171.084 237.409 169.345C238.511 163.304 240.416 152.916 241.065 140.757C241.189 138.491 241.375 136.257 241.614 134.055C242.238 128.327 243.238 122.884 244.58 118.051C247.073 109.073 250.738 102.194 255.333 99.5031C255.934 99.1675 259.165 101.223 262.134 103.128C264.876 104.886 267.761 105.371 270.567 105.125L273.037 107.858C276.028 111.336 279.215 115.967 280.084 122.548C280.151 123.034 280.205 123.552 280.253 124.102C280.499 126.787 280.557 130.181 280.49 133.981Z" fill="#6980E2"/>
<path d="M280.489 133.982C280.41 138.367 280.157 143.295 279.812 148.301C279.79 148.598 279.77 148.895 279.748 149.193C262.744 138.546 260.124 119.064 260.124 119.064C268.49 119.432 275.137 121.356 280.259 124.105C280.499 126.787 280.557 130.181 280.489 133.982Z" fill="#4662BC"/>
<path d="M323.455 142.368C323.631 139.846 322.324 139.425 322.324 139.425C322.324 139.425 296.682 134.777 294.502 134.09C292.323 133.403 273.686 114.011 273.686 114.011C273.686 114.011 266.54 105.953 260.692 107.733C255.608 109.28 253.624 113.247 252.946 117.025C252.141 121.525 254.215 126.058 258.113 128.449C266.863 133.815 284.382 144.392 288.507 145.603C297.689 148.294 322.359 145.82 322.359 145.82C322.359 145.82 323.321 144.35 323.455 142.368Z" fill="#6980E2"/>
<path d="M346.263 165.146L387.998 262.758H456.053L499.715 165.146H346.263Z" fill="#F99746"/>
<path d="M500.354 169.992H343.693C340.856 169.992 338.558 167.69 338.558 164.855C338.558 162.017 340.859 159.719 343.693 159.719H500.354C503.192 159.719 505.49 162.02 505.49 164.855C505.493 167.69 503.192 169.992 500.354 169.992Z" fill="#F78248"/>
<path d="M448.77 296.079H395.025C391.142 296.079 387.995 292.931 387.995 289.047V262.758H455.8V289.047C455.8 292.931 452.652 296.079 448.77 296.079Z" fill="#F78248"/>
<path d="M474.923 348.292L481.365 344.799C481.906 344.514 482.557 344.553 483.056 344.904C483.692 345.352 484.35 345.777 485.034 346.18C486.303 346.924 487.597 347.567 488.917 348.085C489.534 348.328 489.943 348.909 489.946 349.571L490.032 357.232C490.032 358.051 490.671 358.732 491.499 358.792L498.481 359.32C499.274 359.377 499.974 358.834 500.124 358.057L501.412 351.121C501.524 350.444 502.076 349.926 502.78 349.836C505.736 349.462 508.631 348.612 511.347 347.324C512.002 347.014 512.804 347.196 513.265 347.756L515.994 351.07C516.518 351.693 517.432 351.844 518.122 351.396L523.922 347.561C524.043 347.484 524.149 347.398 524.238 347.292C524.679 346.809 524.775 346.077 524.449 345.486L521.845 340.669L521.209 339.496C522.021 338.48 522.775 337.384 523.452 336.233C524.366 334.683 525.117 333.072 525.699 331.448C525.923 330.828 526.498 330.406 527.156 330.403L533.327 330.339C534.171 330.326 534.867 329.677 534.925 328.837L535.327 323.496L535.439 321.965C535.503 321.13 534.928 320.373 534.107 320.223L528.313 319.142C527.639 319.024 527.118 318.494 527.025 317.829C526.721 315.841 526.207 313.888 525.491 312.015C525.443 311.845 525.379 311.698 525.315 311.542C525.29 311.49 525.277 311.436 525.261 311.379C525.079 310.762 525.29 310.097 525.791 309.688L531.16 305.245C531.224 305.2 531.278 305.139 531.33 305.085C531.809 304.551 531.879 303.739 531.483 303.123L527.671 297.334C527.21 296.637 526.296 296.404 525.552 296.804L518.831 300.451C518.266 300.767 517.566 300.69 517.067 300.278C515.965 299.377 514.773 298.546 513.498 297.798C512.824 297.401 512.136 297.034 511.443 296.701C510.881 296.426 510.519 295.861 510.513 295.237L510.427 287.873C510.42 287.061 509.791 286.384 508.973 286.323L502.064 285.812C501.23 285.748 500.479 286.317 500.319 287.151L499.299 292.639C499.162 293.374 498.548 293.914 497.807 293.959C494.889 294.106 492.017 294.716 489.287 295.746C488.645 295.998 487.907 295.806 487.463 295.266L483.462 290.427C482.925 289.778 481.985 289.641 481.279 290.098L475.514 293.895C474.821 294.349 474.597 295.266 474.99 295.982L475.14 296.263L478.167 301.86C478.493 302.461 478.409 303.183 477.965 303.701L477.962 303.708C476.898 304.948 475.93 306.297 475.07 307.757C474.613 308.537 474.204 309.327 473.82 310.132C473.565 310.695 473.009 311.056 472.392 311.062L466.129 311.126C465.272 311.132 464.563 311.801 464.502 312.648L463.991 319.529C463.978 319.724 464.003 319.916 464.048 320.092C464.214 320.664 464.694 321.121 465.304 321.239L469.935 322.089C470.5 322.201 470.967 322.604 471.158 323.135C471.206 323.275 471.238 323.422 471.251 323.579C471.462 327.322 472.421 330.975 474.067 334.347C474.354 334.916 474.249 335.597 473.849 336.076C473.792 336.143 473.725 336.207 473.654 336.268L469.305 339.861C468.675 340.382 468.538 341.293 468.985 341.983L469.072 342.117L472.785 347.762C473.252 348.468 474.175 348.698 474.923 348.292ZM510.356 311.634C511.133 312.443 511.865 313.357 512.536 314.383C513.808 316.339 514.731 319.862 514.559 322.192C514.543 322.441 514.517 322.687 514.495 322.933C512.852 337.873 494.548 342.443 486.098 329.757C484.996 328.098 484.162 325.369 483.989 323.087C483.957 322.556 483.948 322.051 483.989 321.604C484.158 319.484 484.654 317.57 485.418 315.863C489.764 306.153 502.553 303.58 510.356 311.634Z" fill="#DFEBFD"/>
<path opacity="0.5" d="M477.377 270.365L480.969 268.319C481.27 268.153 481.637 268.166 481.925 268.357C482.289 268.603 482.666 268.834 483.053 269.051C483.775 269.457 484.513 269.802 485.264 270.077C485.616 270.208 485.852 270.531 485.862 270.902L485.999 275.217C486.009 275.677 486.376 276.054 486.843 276.08L490.783 276.294C491.231 276.316 491.617 276.003 491.694 275.565L492.339 271.64C492.394 271.256 492.701 270.959 493.094 270.902C494.755 270.655 496.379 270.144 497.894 269.383C498.261 269.201 498.715 269.294 498.98 269.604L500.555 271.438C500.859 271.784 501.374 271.857 501.76 271.595L504.985 269.367C505.052 269.323 505.109 269.271 505.16 269.211C505.403 268.933 505.448 268.52 505.256 268.191L503.732 265.506L503.358 264.854C503.802 264.272 504.218 263.646 504.585 262.988C505.081 262.102 505.486 261.188 505.796 260.264C505.915 259.913 506.234 259.667 506.605 259.66L510.082 259.552C510.558 259.532 510.941 259.162 510.964 258.689L511.13 255.674L511.175 254.811C511.2 254.342 510.868 253.92 510.405 253.846L507.126 253.306C506.745 253.248 506.445 252.954 506.384 252.58C506.189 251.462 505.876 250.369 505.451 249.323C505.422 249.231 505.384 249.148 505.346 249.058C505.33 249.029 505.323 248.997 505.314 248.969C505.202 248.623 505.317 248.246 505.595 248.01L508.567 245.443C508.602 245.418 508.631 245.382 508.66 245.35C508.925 245.044 508.954 244.587 508.724 244.245L506.506 241.026C506.237 240.639 505.72 240.518 505.307 240.751L501.562 242.886C501.246 243.071 500.853 243.036 500.568 242.809C499.936 242.314 499.255 241.86 498.526 241.454C498.143 241.237 497.75 241.039 497.357 240.86C497.037 240.713 496.826 240.396 496.817 240.045L496.682 235.896C496.67 235.439 496.305 235.065 495.845 235.039L491.946 234.831C491.477 234.806 491.058 235.135 490.978 235.608L490.467 238.712C490.4 239.127 490.058 239.44 489.642 239.472C488 239.591 486.389 239.968 484.862 240.582C484.504 240.732 484.085 240.633 483.829 240.332L481.519 237.651C481.209 237.289 480.678 237.225 480.285 237.491L477.08 239.699C476.693 239.965 476.578 240.482 476.812 240.882L476.898 241.039L478.668 244.155C478.857 244.491 478.822 244.897 478.576 245.194L478.573 245.197C477.988 245.907 477.457 246.68 476.991 247.514C476.741 247.959 476.521 248.409 476.316 248.866C476.179 249.186 475.869 249.397 475.521 249.407L471.993 249.515C471.51 249.528 471.117 249.915 471.095 250.391L470.887 254.274C470.881 254.386 470.9 254.492 470.925 254.591C471.024 254.911 471.302 255.163 471.648 255.224L474.268 255.649C474.588 255.703 474.856 255.927 474.968 256.224C474.997 256.301 475.016 256.387 475.025 256.473C475.188 258.58 475.77 260.629 476.738 262.511C476.908 262.828 476.856 263.214 476.636 263.486C476.604 263.524 476.569 263.563 476.527 263.595L474.118 265.672C473.769 265.973 473.702 266.487 473.961 266.871L474.012 266.945L476.169 270.083C476.438 270.483 476.959 270.601 477.377 270.365ZM496.916 249.288C497.363 249.736 497.788 250.241 498.175 250.813C498.913 251.9 499.475 253.875 499.405 255.189C499.399 255.329 499.389 255.47 499.376 255.607C498.625 264.046 488.364 266.836 483.452 259.785C482.81 258.861 482.308 257.333 482.187 256.052C482.161 255.754 482.152 255.47 482.171 255.214C482.241 254.019 482.5 252.932 482.909 251.964C485.248 246.44 492.423 244.842 496.916 249.288Z" fill="#AEC3FF"/>
<path opacity="0.5" d="M317.917 299.522L324.178 296.127C324.702 295.849 325.338 295.887 325.82 296.229C326.437 296.664 327.079 297.08 327.741 297.469C328.974 298.195 330.23 298.818 331.512 299.32C332.112 299.557 332.509 300.122 332.512 300.765L332.595 308.209C332.598 309.005 333.218 309.667 334.02 309.724L340.805 310.235C341.575 310.293 342.255 309.762 342.399 309.011L343.649 302.274C343.757 301.615 344.294 301.113 344.978 301.027C347.851 300.663 350.663 299.838 353.303 298.585C353.939 298.285 354.718 298.464 355.166 299.004L357.815 302.222C358.323 302.83 359.212 302.974 359.883 302.539L365.517 298.812C365.632 298.735 365.737 298.652 365.823 298.55C366.252 298.08 366.347 297.37 366.028 296.795L363.497 292.116L362.877 290.978C363.666 289.99 364.401 288.926 365.056 287.807C365.945 286.298 366.673 284.736 367.242 283.16C367.46 282.559 368.019 282.147 368.658 282.147L374.653 282.086C375.471 282.073 376.149 281.443 376.206 280.628L376.599 275.441L376.708 273.954C376.769 273.143 376.209 272.407 375.414 272.264L369.783 271.215C369.128 271.1 368.62 270.586 368.533 269.937C368.236 268.003 367.741 266.108 367.041 264.289C366.993 264.126 366.932 263.982 366.872 263.829C366.846 263.777 366.833 263.726 366.82 263.672C366.641 263.071 366.849 262.425 367.338 262.029L372.553 257.714C372.617 257.669 372.668 257.612 372.716 257.557C373.183 257.04 373.25 256.25 372.863 255.653L369.16 250.027C368.712 249.349 367.824 249.123 367.102 249.509L360.573 253.054C360.023 253.361 359.346 253.287 358.86 252.885C357.789 252.009 356.633 251.203 355.393 250.475C354.738 250.088 354.07 249.733 353.395 249.407C352.849 249.138 352.497 248.589 352.494 247.985L352.411 240.831C352.405 240.045 351.791 239.387 350.999 239.323L344.288 238.827C343.476 238.763 342.744 239.316 342.594 240.128L341.603 245.46C341.472 246.176 340.875 246.7 340.153 246.744C337.318 246.888 334.525 247.483 331.873 248.483C331.25 248.729 330.53 248.541 330.099 248.017L326.213 243.312C325.692 242.682 324.778 242.548 324.094 242.992L318.489 246.681C317.815 247.122 317.598 248.013 317.981 248.707L318.125 248.982L321.065 254.419C321.381 255 321.301 255.704 320.87 256.205L320.867 256.212C319.835 257.417 318.892 258.727 318.055 260.15C317.61 260.907 317.211 261.674 316.843 262.457C316.594 263.004 316.054 263.356 315.453 263.362L309.369 263.423C308.535 263.429 307.848 264.078 307.787 264.899L307.288 271.586C307.276 271.778 307.301 271.963 307.346 272.133C307.506 272.689 307.976 273.133 308.567 273.248L313.066 274.073C313.616 274.181 314.07 274.575 314.255 275.086C314.303 275.22 314.332 275.367 314.344 275.517C314.549 279.155 315.479 282.706 317.077 285.982C317.355 286.535 317.256 287.197 316.866 287.66C316.808 287.727 316.744 287.788 316.674 287.845L312.449 291.336C311.836 291.841 311.705 292.726 312.139 293.397L312.226 293.528L315.834 299.013C316.291 299.694 317.189 299.915 317.917 299.522ZM352.344 263.905C353.098 264.692 353.811 265.58 354.46 266.574C355.696 268.473 356.594 271.896 356.425 274.159C356.409 274.402 356.383 274.642 356.361 274.878C354.763 289.392 336.979 293.832 328.77 281.507C327.699 279.893 326.887 277.243 326.721 275.028C326.689 274.514 326.683 274.022 326.721 273.587C326.887 271.528 327.37 269.668 328.108 268.009C332.336 258.577 344.761 256.078 352.344 263.905Z" fill="#AEC3FF"/>
</g>
<defs>
<clipPath id="clip0_1715_4999">
<rect width="793" height="483" fill="white"/>
</clipPath>
</defs>
</svg>
