<svg width="231" height="490" viewBox="0 0 231 490" fill="none" xmlns="http://www.w3.org/2000/svg">
<g clip-path="url(#clip0_1729_3087)">
<g opacity="0.3">
<path d="M80.4472 72.7307L16.1267 92.4985L120.253 407.261L184.573 387.494L80.4472 72.7307Z" stroke="#E9E9E9" stroke-width="4" stroke-miterlimit="10" stroke-linecap="round"/>
<path d="M170.28 391.882L134.55 402.863L159.597 478.577L195.326 467.596L170.28 391.882Z" stroke="#E9E9E9" stroke-width="4" stroke-miterlimit="10" stroke-linecap="round"/>
<path d="M90.6306 416.397L214.24 378.378" stroke="#E9E9E9" stroke-width="4" stroke-miterlimit="10" stroke-linecap="round"/>
<path d="M48.1945 82.2337L24.2991 10" stroke="#E9E9E9" stroke-width="4" stroke-miterlimit="10" stroke-linecap="round"/>
<path d="M139.457 484.785L215.53 461.405" stroke="#E9E9E9" stroke-width="4" stroke-miterlimit="10" stroke-linecap="round"/>
<path d="M67.5414 124.741L94.5907 116.428" stroke="#E9E9E9" stroke-width="4" stroke-miterlimit="10" stroke-linecap="round"/>
<path d="M92.9404 158.525L107.051 154.188" stroke="#E9E9E9" stroke-width="4" stroke-miterlimit="10" stroke-linecap="round"/>
<path d="M105.401 196.284L119.567 191.93" stroke="#E9E9E9" stroke-width="4" stroke-miterlimit="10" stroke-linecap="round"/>
<path d="M104.978 238.003L132.027 229.69" stroke="#E9E9E9" stroke-width="4" stroke-miterlimit="10" stroke-linecap="round"/>
<path d="M130.415 271.804L144.544 267.431" stroke="#E9E9E9" stroke-width="4" stroke-miterlimit="10" stroke-linecap="round"/>
<path d="M142.894 309.529L157.041 305.211" stroke="#E9E9E9" stroke-width="4" stroke-miterlimit="10" stroke-linecap="round"/>
<path d="M142.473 351.245L169.522 342.932" stroke="#E9E9E9" stroke-width="4" stroke-miterlimit="10" stroke-linecap="round"/>
</g>
</g>
<defs>
<clipPath id="clip0_1729_3087">
<rect width="231" height="490" fill="white" transform="translate(0.000244141)"/>
</clipPath>
</defs>
</svg>
