<svg width="360" height="327" viewBox="0 0 360 327" fill="none" xmlns="http://www.w3.org/2000/svg">
<g opacity="0.3">
<path d="M48.1836 31.2422L60.8464 19.3955" stroke="#E9E9E9" stroke-width="4" stroke-miterlimit="10" stroke-linecap="round"/>
<path d="M72.0522 42.2556L78.6466 36.0483" stroke="#E9E9E9" stroke-width="4" stroke-miterlimit="10" stroke-linecap="round"/>
<path d="M89.8535 58.871L96.4479 52.7017" stroke="#E9E9E9" stroke-width="4" stroke-miterlimit="10" stroke-linecap="round"/>
<path d="M101.585 81.2032L114.248 69.3564" stroke="#E9E9E9" stroke-width="4" stroke-miterlimit="10" stroke-linecap="round"/>
<path d="M125.415 92.1792L132.049 86.0098" stroke="#E9E9E9" stroke-width="4" stroke-miterlimit="10" stroke-linecap="round"/>
<path d="M143.215 108.832L149.85 102.663" stroke="#E9E9E9" stroke-width="4" stroke-miterlimit="10" stroke-linecap="round"/>
<path d="M154.987 131.126L167.65 119.279" stroke="#E9E9E9" stroke-width="4" stroke-miterlimit="10" stroke-linecap="round"/>
<path d="M178.816 142.139L185.41 135.932" stroke="#E9E9E9" stroke-width="4" stroke-miterlimit="10" stroke-linecap="round"/>
<path d="M196.616 158.793L203.211 152.585" stroke="#E9E9E9" stroke-width="4" stroke-miterlimit="10" stroke-linecap="round"/>
<path d="M208.349 181.085L221.012 169.239" stroke="#E9E9E9" stroke-width="4" stroke-miterlimit="10" stroke-linecap="round"/>
<path d="M232.177 192.063L238.812 185.894" stroke="#E9E9E9" stroke-width="4" stroke-miterlimit="10" stroke-linecap="round"/>
<path d="M249.979 208.716L256.614 202.547" stroke="#E9E9E9" stroke-width="4" stroke-miterlimit="10" stroke-linecap="round"/>
<path d="M261.751 231.01L274.414 219.163" stroke="#E9E9E9" stroke-width="4" stroke-miterlimit="10" stroke-linecap="round"/>
<path d="M15.98 11.8262L15.6159 12.1669C5.46137 21.6669 5.46137 37.0714 15.6159 46.5715L243.465 259.737C247.187 263.219 251.718 265.414 256.492 266.36C267.779 268.593 278.217 273.665 286.389 281.31L324.175 316.661C328.909 321.09 336.555 321.09 341.288 316.661L341.45 316.51C346.183 312.082 346.183 304.928 341.45 300.5L303.664 265.149C295.492 257.503 290.071 247.738 287.684 237.179C286.672 232.712 284.326 228.473 280.644 224.991L52.7951 11.8262C42.6002 2.32615 26.1345 2.32615 15.98 11.8262Z" stroke="#E9E9E9" stroke-width="4" stroke-miterlimit="10" stroke-linecap="round"/>
<path d="M303.461 297.321L320.736 281.122" stroke="#E9E9E9" stroke-width="4" stroke-miterlimit="10" stroke-linecap="round"/>
</g>
</svg>
