<?xml version="1.0"?>
<svg xmlns="http://www.w3.org/2000/svg" xmlns:xlink="http://www.w3.org/1999/xlink" version="1.1" xml:space="preserve">
  <defs>

    <symbol id="loader" width="100%" height="100%" viewBox="22 22 44 44">
      <circle cx="44" cy="44" r="20.2" fill="none" stroke="currentColor" stroke-width="4"></circle>
    </symbol>

    <symbol id="success" width="100%" height="100%" viewBox="0 0 68 68">
      <path fill-rule="evenodd" clip-rule="evenodd" d="M34 68C52.7777 68 68 52.7777 68 34C68 15.2223 52.7777 0 34 0C15.2223 0 0 15.2223 0 34C0 52.7777 15.2223 68 34 68ZM49.7552 28.5052C51.4149 26.8455 51.4149 24.1545 49.7552 22.4948C48.0955 20.8351 45.4045 20.8351 43.7448 22.4948L29.75 36.4896L24.2552 30.9948C22.5955 29.3351 19.9045 29.3351 18.2448 30.9948C16.5851 32.6545 16.5851 35.3455 18.2448 37.0052L26.7448 45.5052C28.4045 47.1649 31.0955 47.1649 32.7552 45.5052L49.7552 28.5052Z" fill="currentColor" />
    </symbol>

    <symbol id="tel" width="100%" height="100%" viewBox="0 0 20 18">
      <path d="M19.6425 15.5872C19.2351 16.6994 17.6181 17.6218 16.3283 17.8912C15.4459 18.0729 14.2933 18.2177 10.4134 16.6627C5.45051 14.675 2.25451 9.79967 2.00542 9.48335C1.76688 9.16703 0 6.90181 0 4.55903C0 2.21625 1.23069 1.07547 1.72677 0.585695C2.13418 0.183668 2.80758 0 3.45354 0C3.66252 0 3.8504 0.0102039 4.01927 0.0183668C4.51535 0.0387743 4.76444 0.0673452 5.09164 0.824462C5.49906 1.77341 6.49121 4.11619 6.60943 4.35699C6.72975 4.5978 6.85008 4.92432 6.6812 5.24064C6.52288 5.56716 6.38355 5.71205 6.13446 5.98959C5.88537 6.26713 5.64894 6.47937 5.39984 6.77732C5.17186 7.03649 4.91432 7.31404 5.20141 7.79361C5.48851 8.26298 6.48066 9.82824 7.94144 11.0853C9.82654 12.7077 11.3549 13.2261 11.9016 13.4465C12.309 13.6097 12.7945 13.571 13.0922 13.2649C13.4701 12.871 13.9366 12.218 14.4115 11.5751C14.7493 11.1139 15.1757 11.0568 15.6232 11.22C16.0792 11.3731 18.492 12.5261 18.9881 12.7649C19.4842 13.0057 19.8114 13.12 19.9317 13.322C20.0499 13.524 20.0499 14.473 19.6425 15.5872Z" fill="currentColor" />
    </symbol>

    <symbol id="download" width="100%" height="100%" viewBox="0 0 16 24">
      <path d="M9 3C9 2.44772 8.55228 2 8 2C7.44772 2 7 2.44772 7 3L9 3ZM7.29289 17.7071C7.68342 18.0976 8.31658 18.0976 8.70711 17.7071L15.0711 11.3431C15.4616 10.9526 15.4616 10.3195 15.0711 9.92893C14.6805 9.53841 14.0474 9.53841 13.6569 9.92893L8 15.5858L2.34315 9.92893C1.95262 9.53841 1.31946 9.53841 0.928932 9.92893C0.538408 10.3195 0.538408 10.9526 0.928933 11.3431L7.29289 17.7071ZM7 3L7 17L9 17L9 3L7 3Z" fill="currentColor" />
      <path d="M1 21H15" fill="transparent" stroke="currentColor" stroke-width="2" stroke-linecap="round" />
    </symbol>

    <symbol id="arrows" width="100%" height="100%" viewBox="0 0 28 28">
      <path d="M8.58333 4.66667L6.48333 4.66667C8.23333 3.15 10.3333 2.33333 12.6667 2.33333C13.0167 2.33333 13.3667 2.33333 13.7167 2.45C14.3 2.56667 14.8833 2.1 15 1.4C15.1167 0.816667 14.65 0.233333 13.95 0.116666C13.4833 -1.71735e-07 13.1333 -5.70878e-08 12.6667 -5.48921e-08C9.86667 -4.1718e-08 7.18333 1.05 5.08333 2.8L5.08333 1.16667C5.08333 0.466667 4.61667 -1.70165e-08 3.91667 -1.3723e-08C3.21667 -1.04295e-08 2.75 0.466667 2.75 1.16667L2.75 5.83333C2.75 6.53333 3.21667 7 3.91667 7L8.58333 7C9.28333 7 9.75 6.53333 9.75 5.83333C9.75 5.13333 9.28333 4.66667 8.58333 4.66667ZM6.83333 14.5833C6.13333 14.5833 5.66667 15.05 5.66667 15.75L5.66667 17.85C4.15 16.1 3.33333 14 3.33333 11.6667C3.33333 11.3167 3.33333 10.9667 3.45 10.6167C3.56667 10.0333 3.1 9.45 2.4 9.33333C1.81667 9.21667 1.23333 9.68333 1.11667 10.3833C1 10.85 1 11.2 1 11.6667C1 14.4667 2.05 17.15 3.8 19.25L2.16667 19.25C1.46667 19.25 1 19.7167 1 20.4167C1 21.1167 1.46667 21.5833 2.16667 21.5833L6.83333 21.5833C7.18333 21.5833 7.53333 21.35 7.76667 21.1167C7.76667 21 7.88333 20.8833 7.88333 20.7667L7.88333 15.75C8 15.05 7.53333 14.5833 6.83333 14.5833ZM23.1667 4.08333C23.8667 4.08333 24.3333 3.61667 24.3333 2.91667C24.3333 2.21667 23.8667 1.75 23.1667 1.75L18.2667 1.75C18.15 1.75 18.0333 1.86667 17.9167 1.86667C17.8 1.98333 17.6833 1.98333 17.6833 2.1C17.6833 2.21667 17.5667 2.33333 17.5667 2.33333L17.5667 7.35C17.5667 8.05 18.0333 8.51667 18.7333 8.51667C19.4333 8.51667 19.9 8.05 19.9 7.35L19.9 5.48333C21.4167 7.11667 22.2333 9.33333 22.2333 11.6667C22.2333 12.0167 22.2333 12.3667 22.1167 12.7167C22 13.3 22.4667 13.8833 23.1667 14L23.2833 14C23.8667 14 24.3333 13.5333 24.45 12.95C24.45 12.4833 24.5667 12.1333 24.5667 11.6667C24.5667 8.86667 23.5167 6.18333 21.7667 4.08333L23.1667 4.08333ZM22.35 16.9167L22 16.5667C21.8833 16.45 21.7667 16.45 21.65 16.45L16.75 16.45C16.05 16.45 15.5833 16.9167 15.5833 17.6167C15.5833 18.3167 16.05 18.7833 16.75 18.7833L18.85 18.7833C17.2167 20.3 15 21.1167 12.6667 21.1167C12.3167 21.1167 11.9667 21.1167 11.6167 21C11.0333 20.8833 10.45 21.35 10.3333 22.05C10.2167 22.75 10.6833 23.2167 11.3833 23.3333C11.85 23.3333 12.2 23.45 12.6667 23.45C15.4667 23.45 18.15 22.4 20.25 20.65L20.25 22.1667C20.25 22.8667 20.7167 23.3333 21.4167 23.3333C22.1167 23.3333 22.5833 22.8667 22.5833 22.1667L22.5833 17.5C22.5833 17.2667 22.4667 17.0333 22.35 16.9167Z" fill="currentColor" />
    </symbol>

    <symbol id="case" width="100%" height="100%" viewBox="0 0 28 28">
      <path d="M9.33325 7.00017L9.33325 4.66683C9.33325 4.02516 9.56192 3.47566 10.0193 3.01833C10.4766 2.561 11.0257 2.33272 11.6666 2.3335L16.3333 2.3335C16.9749 2.3335 17.5244 2.56216 17.9818 3.0195C18.4391 3.47683 18.6674 4.02594 18.6666 4.66683L18.6666 7.00017L23.3333 7.00017C23.9749 7.00017 24.5244 7.22883 24.9818 7.68617C25.4391 8.1435 25.6674 8.69261 25.6666 9.3335L25.6666 22.1668C25.6666 22.8085 25.4379 23.358 24.9806 23.8153C24.5233 24.2727 23.9741 24.5009 23.3333 24.5002L4.66659 24.5002C4.02492 24.5002 3.47542 24.2715 3.01809 23.8142C2.56075 23.3568 2.33248 22.8077 2.33325 22.1668L2.33325 9.3335C2.33325 8.69183 2.56192 8.14233 3.01925 7.685C3.47659 7.22767 4.0257 6.99939 4.66659 7.00017L9.33325 7.00017ZM11.6666 7.00017L16.3333 7.00017L16.3333 4.66683L11.6666 4.66683L11.6666 7.00017ZM23.3333 17.5002L17.4999 17.5002L17.4999 18.6668C17.4999 18.9974 17.3879 19.2747 17.1639 19.4987C16.9399 19.7227 16.663 19.8343 16.3333 19.8335L11.6666 19.8335C11.336 19.8335 11.0588 19.7215 10.8348 19.4975C10.6108 19.2735 10.4991 18.9966 10.4999 18.6668L10.4999 17.5002L4.66659 17.5002L4.66659 22.1668L23.3333 22.1668L23.3333 17.5002ZM12.8333 17.5002L15.1666 17.5002L15.1666 15.1668L12.8333 15.1668L12.8333 17.5002ZM4.66659 15.1668L10.4999 15.1668L10.4999 14.0002C10.4999 13.6696 10.6119 13.3923 10.8359 13.1683C11.0599 12.9443 11.3368 12.8327 11.6666 12.8335L16.3333 12.8335C16.6638 12.8335 16.9411 12.9455 17.1651 13.1695C17.3891 13.3935 17.5007 13.6704 17.4999 14.0002L17.4999 15.1668L23.3333 15.1668L23.3333 9.3335L4.66659 9.3335L4.66659 15.1668Z" fill="currentColor" />
    </symbol>

    <symbol id="planet" width="100%" height="100%" viewBox="0 0 28 28">
      <path d="M25.6666 14.0002C25.6666 7.55666 20.4434 2.3335 13.9999 2.3335C7.55642 2.3335 2.33325 7.55666 2.33325 14.0002C2.33325 20.4437 7.55642 25.6668 13.9999 25.6668" fill="transparent" stroke="currentColor" stroke-width="2.5" stroke-linecap="round" stroke-linejoin="round" />
      <path d="M15.1667 2.3916C15.1667 2.3916 18.6667 6.99993 18.6667 13.9999M12.8334 25.6083C12.8334 25.6083 9.33336 20.9999 9.33336 13.9999C9.33336 6.99993 12.8334 2.3916 12.8334 2.3916M3.06836 18.0833L14 18.0833M3.06836 9.9166L24.9317 9.9166" fill="transparent" stroke="currentColor" stroke-width="2" stroke-linecap="round" stroke-linejoin="round" />
      <path d="M25.5255 20.9032C26.1018 21.2579 26.0657 22.1201 25.473 22.1877L22.4782 22.5272L21.1353 25.2246C20.8693 25.7601 20.0468 25.4976 19.9103 24.8349L18.4462 17.6996C18.3307 17.1396 18.8347 16.7872 19.3212 17.0871L25.5255 20.9032Z" fill="transparent" stroke="currentColor" stroke-width="1.5" />
    </symbol>

    <symbol id="money" width="100%" height="100%" viewBox="0 0 28 28">
      <path d="M14 20.0399L14 22.0599M14 10.0199L14 11.8999M14 26.9799C21 26.9799 26 24.4999 26 18.9799C26 12.9799 23 8.97994 17 5.97994L19.36 2.93994C19.4799 2.74048 19.5449 2.51287 19.5485 2.28018C19.5521 2.04749 19.4941 1.81799 19.3804 1.61494C19.2667 1.41189 19.1013 1.24251 18.901 1.12397C18.7008 1.00543 18.4727 0.941941 18.24 0.939941L9.76 0.939941C9.52729 0.941941 9.29924 1.00543 9.09898 1.12397C8.89871 1.24251 8.73334 1.41189 8.61963 1.61494C8.50593 1.81799 8.44792 2.04749 8.4515 2.28018C8.45507 2.51287 8.52011 2.74048 8.64 2.93994L11 5.99994C5 9.01994 2 13.0199 2 19.0199C2 24.4999 7 26.9799 14 26.9799Z" fill="transparent" stroke="currentColor" stroke-width="2.5" stroke-linecap="round" stroke-linejoin="round" />
      <path d="M12.0001 19.1197C12.2442 19.4094 12.5513 19.6393 12.898 19.7918C13.2447 19.9444 13.6217 20.0155 14.0001 19.9997C14.5785 20.0391 15.1497 19.8528 15.5935 19.4798C16.0374 19.1068 16.3193 18.5763 16.3801 17.9997C16.3193 17.4231 16.0374 16.8926 15.5935 16.5196C15.1497 16.1466 14.5785 15.9603 14.0001 15.9997C13.4217 16.0391 12.8505 15.8528 12.4067 15.4798C11.9628 15.1068 11.6809 14.5763 11.6201 13.9997C11.676 13.4211 11.9566 12.8875 12.4016 12.5136C12.8466 12.1396 13.4206 11.9551 14.0001 11.9997C14.3719 11.977 14.7441 12.0369 15.0899 12.1752C15.4357 12.3136 15.7466 12.5268 16.0001 12.7997" fill="transparent" stroke="currentColor" stroke-width="2.5" stroke-linecap="round" stroke-linejoin="round" />
    </symbol>

    <symbol id="marketing" width="100%" height="100%" viewBox="0 0 28 28">
      <path d="M24.9375 3.67506C24.6367 3.48043 24.2926 3.36268 23.9356 3.33217C23.5786 3.30165 23.2195 3.35931 22.89 3.50006L12.0925 7.75256C11.8369 7.8566 11.5635 7.91008 11.2875 7.91006L4.375 7.91006C3.79484 7.91006 3.23844 8.14053 2.8282 8.55076C2.41797 8.961 2.1875 9.5174 2.1875 10.0976L2.1875 10.2726L3.26922e-08 10.2726L5.73936e-08 15.5226L2.1875 15.5226L2.1875 15.7501C2.20121 16.3211 2.43771 16.8641 2.84647 17.263C3.25523 17.662 3.80382 17.8852 4.375 17.8851L7 23.4501C7.17775 23.8248 7.45759 24.1418 7.80738 24.3647C8.15718 24.5876 8.56274 24.7073 8.9775 24.7101L10.08 24.7101C10.6571 24.7054 11.209 24.4729 11.6155 24.0632C12.022 23.6535 12.25 23.0997 12.25 22.5226L12.25 18.0951L22.89 22.3476C23.1517 22.4517 23.4308 22.5052 23.7125 22.5051C24.1495 22.498 24.575 22.3643 24.9375 22.1201C25.2253 21.9257 25.4628 21.6656 25.6301 21.3613C25.7975 21.057 25.89 20.7172 25.9 20.3701L25.9 5.47756C25.8984 5.12146 25.8099 4.77114 25.6422 4.45702C25.4744 4.1429 25.2325 3.87447 24.9375 3.67506ZM10.0625 10.0976L10.0625 15.7501L4.375 15.7501L4.375 10.0976L10.0625 10.0976ZM10.0625 22.5226L8.96 22.5226L6.8075 17.8851L10.0625 17.8851L10.0625 22.5226ZM12.8975 16.0126C12.6897 15.9064 12.4731 15.8185 12.25 15.7501L12.25 9.97506C12.4709 9.92948 12.6876 9.86508 12.8975 9.78256L23.7125 5.47756L23.7125 20.3176L12.8975 16.0126ZM25.9525 10.7101L25.9525 15.0851C26.5327 15.0851 27.0891 14.8546 27.4993 14.4444C27.9095 14.0341 28.14 13.4777 28.14 12.8976C28.14 12.3174 27.9095 11.761 27.4993 11.3508C27.0891 10.9405 26.5327 10.7101 25.9525 10.7101Z" fill="currentColor" />
    </symbol>

    <symbol id="rocket" width="100%" height="100%" viewBox="0 0 28 28">
      <path d="M23.709 0.875L25.081 0.875C25.6223 0.875 26.1414 1.08994 26.5243 1.47258C26.9071 1.85521 27.1224 2.37422 27.1227 2.9155L27.1227 4.28867C27.1236 7.48652 25.9029 10.5639 23.7102 12.8917L22.2775 14.413C21.6853 15.0414 21.0639 15.6417 20.4155 16.212L20.4155 22.0897C20.4155 22.8072 20.0387 23.471 19.4238 23.8397L14.1575 27.0002C14.0379 27.072 13.903 27.1142 13.7638 27.1232C13.6246 27.1323 13.4853 27.1079 13.3574 27.0522C13.2296 26.9965 13.1169 26.9111 13.0288 26.803C12.9407 26.6949 12.8796 26.5673 12.8508 26.4308L11.7273 21.0968C11.6693 21.0507 11.6147 21.0004 11.564 20.9463L9.38 18.62L7.05367 16.4348C6.99959 16.3841 6.94929 16.3295 6.90317 16.2715L1.57034 15.148C1.43368 15.1195 1.30583 15.0587 1.19745 14.9707C1.08908 14.8827 1.00334 14.7701 0.947386 14.6422C0.891432 14.5143 0.866891 14.3748 0.875812 14.2355C0.884734 14.0962 0.92686 13.961 0.998671 13.8413L4.16034 8.575C4.529 7.96017 5.19284 7.58333 5.91034 7.58333L11.7868 7.58333C12.3571 6.93567 12.9574 6.3151 13.5858 5.72367L15.1072 4.28867C17.4343 2.09641 20.5107 0.875377 23.7078 0.875L23.709 0.875ZM16.3077 5.56267L14.7863 6.9965C13.3545 8.34555 12.0805 9.85281 10.9888 11.4893L8.43034 15.3277L10.5992 17.3623C10.613 17.375 10.6262 17.3882 10.6388 17.402L12.6723 19.5697L16.5083 17.0123C18.1463 15.9202 19.6547 14.6454 21.0047 13.2125L22.4373 11.6923C24.3243 9.68908 25.3747 7.04068 25.3738 4.28867L25.3738 2.91667C25.3738 2.83931 25.3431 2.76513 25.2884 2.71043C25.2337 2.65573 25.1595 2.625 25.0822 2.625L23.709 2.625C20.9577 2.62515 18.3102 3.67595 16.3077 5.56267ZM7.58334 24.5C6.17284 25.9105 3.03217 26.1858 2.04984 26.2383C2.01131 26.2408 1.9727 26.235 1.93653 26.2216C1.90035 26.2081 1.86741 26.1872 1.83984 26.1602C1.81281 26.1326 1.79189 26.0997 1.77842 26.0635C1.76496 26.0273 1.75925 25.9887 1.76167 25.9502C1.81417 24.9678 2.0895 21.8272 3.5 20.4167C4.55 19.3667 6.53334 19.3667 7.58334 20.4167C8.63334 21.4667 8.63334 23.45 7.58334 24.5ZM6.89267 14.4807L9.53167 10.5198C9.8 10.1162 10.08 9.72067 10.3682 9.33333L5.91034 9.33333C5.86009 9.33336 5.8107 9.34638 5.76695 9.37111C5.72321 9.39584 5.6866 9.43146 5.66067 9.4745L3.1325 13.6885L6.89267 14.4807ZM18.6667 17.6307C18.2782 17.92 17.8827 18.1988 17.479 18.4683L13.5205 21.1073L14.3115 24.8675L18.5255 22.3393C18.5685 22.3134 18.6042 22.2768 18.6289 22.233C18.6536 22.1893 18.6666 22.1399 18.6667 22.0897L18.6667 17.6307ZM20.4167 9.33333C20.4166 9.56322 20.3712 9.79085 20.2832 10.0032C20.1951 10.2156 20.0661 10.4085 19.9035 10.571C19.7409 10.7335 19.5479 10.8624 19.3355 10.9503C19.123 11.0382 18.8954 11.0834 18.6655 11.0833C18.4356 11.0833 18.208 11.0379 17.9956 10.9499C17.7833 10.8618 17.5903 10.7328 17.4278 10.5702C17.2653 10.4076 17.1364 10.2145 17.0485 10.0021C16.9606 9.78971 16.9154 9.56206 16.9155 9.33217C16.9157 8.86788 17.1002 8.42268 17.4286 8.09449C17.7571 7.7663 18.2024 7.58201 18.6667 7.58217C19.131 7.58232 19.5762 7.76691 19.9044 8.09531C20.2325 8.42372 20.4168 8.86905 20.4167 9.33333Z" fill="currentColor" stroke="currentColor" />
    </symbol>

  </defs>
</svg>