<?xml version="1.0" standalone="no"?>
<!DOCTYPE svg PUBLIC "-//W3C//DTD SVG 20010904//EN"
 "http://www.w3.org/TR/2001/REC-SVG-20010904/DTD/svg10.dtd">
<svg version="1.0" xmlns="http://www.w3.org/2000/svg"
 width="256.000000pt" height="256.000000pt" viewBox="0 0 256.000000 256.000000"
 preserveAspectRatio="xMidYMid meet">
<metadata>
Created by potrace 1.14, written by Peter Selinger 2001-2017
</metadata>
<g transform="translate(0.000000,256.000000) scale(0.100000,-0.100000)"
fill="#000000" stroke="none">
<path d="M1820 1809 c-161 -17 -321 -121 -404 -263 -42 -72 -64 -156 -74 -281
-16 -191 -66 -311 -179 -433 -29 -31 -53 -62 -53 -69 0 -10 89 -13 433 -13
480 0 481 0 609 67 78 41 178 140 220 219 39 71 58 155 58 249 0 142 -52 266
-156 369 -121 122 -274 174 -454 155z m25 -343 l48 -25 28 21 c38 28 110 29
147 2 41 -30 65 -85 56 -131 -5 -31 -27 -59 -112 -145 -58 -60 -113 -108 -122
-108 -23 0 -227 210 -235 243 -17 66 24 137 89 156 46 13 48 13 101 -13z"/>
<path d="M533 1796 c-28 -7 -77 -25 -110 -41 -76 -37 -200 -161 -236 -235
-103 -214 -66 -443 97 -605 123 -122 252 -172 421 -162 145 8 265 64 365 169
91 96 134 204 145 368 3 52 13 122 22 155 27 107 97 227 177 304 20 19 36 41
36 48 0 18 -840 17 -917 -1z m209 -373 l3 -68 70 -5 70 -5 0 -65 0 -65 -72 -3
-72 -3 -3 -67 -3 -67 -65 0 -65 0 -3 67 -3 67 -67 3 -67 3 -3 68 -3 67 71 0
70 0 0 63 c0 35 3 67 7 70 3 4 35 7 69 7 l63 0 3 -67z"/>
</g>
</svg>
